G04*
G04 #@! TF.GenerationSoftware,Altium Limited,Altium Designer,21.8.1 (53)*
G04*
G04 Layer_Color=8388736*
%FSLAX44Y44*%
%MOMM*%
G71*
G04*
G04 #@! TF.SameCoordinates,E292F7DC-635B-41A5-9E53-70443CF81A2D*
G04*
G04*
G04 #@! TF.FilePolarity,Negative*
G04*
G01*
G75*
%ADD15R,1.1000X1.1000*%
%ADD16R,1.1000X1.1000*%
%ADD17R,1.7000X0.7100*%
%ADD18R,2.7200X3.6100*%
%ADD19R,0.7000X0.7000*%
%ADD20R,1.1000X0.9000*%
%ADD21R,1.0000X1.0000*%
%ADD22R,2.1000X1.1000*%
%ADD23R,1.1000X2.1000*%
%ADD24R,1.4000X0.8000*%
%ADD25R,1.3000X1.3000*%
%ADD26C,1.3000*%
%ADD27C,3.0000*%
%ADD28R,1.3000X1.3000*%
%ADD29O,7.3000X5.3000*%
%ADD30C,1.1000*%
D15*
X62250Y-88750D02*
D03*
Y-72750D02*
D03*
X79250Y-88750D02*
D03*
Y-72750D02*
D03*
X130250Y-157250D02*
D03*
Y-141250D02*
D03*
X329250Y-332500D02*
D03*
Y-348500D02*
D03*
X102250Y-308000D02*
D03*
Y-292000D02*
D03*
X311250Y-422500D02*
D03*
Y-406500D02*
D03*
X329250Y-370500D02*
D03*
Y-386500D02*
D03*
Y-422500D02*
D03*
Y-406500D02*
D03*
X311250Y-370500D02*
D03*
Y-386500D02*
D03*
X220000Y-312000D02*
D03*
Y-296000D02*
D03*
X62250Y-141250D02*
D03*
Y-157250D02*
D03*
X79250Y-141250D02*
D03*
Y-157250D02*
D03*
X96250Y-141250D02*
D03*
Y-157250D02*
D03*
X113250Y-141250D02*
D03*
Y-157250D02*
D03*
X324000Y-289750D02*
D03*
Y-305750D02*
D03*
Y-256000D02*
D03*
Y-272000D02*
D03*
X164250Y-157250D02*
D03*
Y-141250D02*
D03*
X147250Y-157250D02*
D03*
Y-141250D02*
D03*
X341750Y-289750D02*
D03*
Y-305750D02*
D03*
Y-256000D02*
D03*
Y-272000D02*
D03*
X238250Y-296000D02*
D03*
Y-312000D02*
D03*
X311250Y-332500D02*
D03*
Y-348500D02*
D03*
X220000Y-260750D02*
D03*
Y-276750D02*
D03*
X238000Y-260750D02*
D03*
Y-276750D02*
D03*
X333700Y26250D02*
D03*
D16*
X318500Y-126250D02*
D03*
X334500D02*
D03*
X173750Y-368250D02*
D03*
X189750D02*
D03*
X139750Y-369250D02*
D03*
X123750D02*
D03*
X318500Y-38000D02*
D03*
X334500D02*
D03*
X318500Y-60062D02*
D03*
X334500D02*
D03*
X318500Y-82125D02*
D03*
X334500D02*
D03*
X318500Y-104187D02*
D03*
X334500D02*
D03*
X222000Y-138000D02*
D03*
X206000D02*
D03*
X264250Y-305500D02*
D03*
X280250D02*
D03*
D17*
X131000Y-295200D02*
D03*
Y-307900D02*
D03*
Y-320600D02*
D03*
Y-333300D02*
D03*
X185000Y-295200D02*
D03*
Y-307900D02*
D03*
Y-320600D02*
D03*
Y-333300D02*
D03*
D18*
X158000Y-314250D02*
D03*
D19*
X228000Y-368750D02*
D03*
X206000D02*
D03*
X241000D02*
D03*
X263000D02*
D03*
D20*
X217750Y-332750D02*
D03*
Y-351750D02*
D03*
X237750Y-342250D02*
D03*
X260000Y-332500D02*
D03*
Y-351500D02*
D03*
X280000Y-342000D02*
D03*
D21*
X244000Y27950D02*
D03*
Y15250D02*
D03*
Y2550D02*
D03*
Y-10150D02*
D03*
Y-22850D02*
D03*
Y-35550D02*
D03*
Y-48250D02*
D03*
Y-60950D02*
D03*
X238100Y-85000D02*
D03*
X225400D02*
D03*
X212700D02*
D03*
X200000D02*
D03*
X187300D02*
D03*
X174600D02*
D03*
X161900D02*
D03*
D22*
X265000Y34300D02*
D03*
Y21600D02*
D03*
Y8900D02*
D03*
Y-3800D02*
D03*
Y-16500D02*
D03*
Y-29200D02*
D03*
Y-41900D02*
D03*
Y-54600D02*
D03*
Y-67300D02*
D03*
Y-80000D02*
D03*
X135000Y34300D02*
D03*
Y21600D02*
D03*
Y8900D02*
D03*
Y-3800D02*
D03*
Y-16500D02*
D03*
Y-29200D02*
D03*
Y-41900D02*
D03*
Y-54600D02*
D03*
Y-67300D02*
D03*
Y-80000D02*
D03*
D23*
X244500Y-106000D02*
D03*
X231800D02*
D03*
X219100D02*
D03*
X206400D02*
D03*
X193700D02*
D03*
X181000D02*
D03*
X168300D02*
D03*
X155600D02*
D03*
D24*
X285500Y-283250D02*
D03*
Y-273750D02*
D03*
Y-264250D02*
D03*
X261500D02*
D03*
Y-283250D02*
D03*
D25*
X8000Y-72000D02*
D03*
X76000Y21000D02*
D03*
X392000Y-92000D02*
D03*
Y-157812D02*
D03*
X8000Y-137812D02*
D03*
X392000Y-223625D02*
D03*
X8000Y-203625D02*
D03*
X392000Y-289437D02*
D03*
X8000Y-269437D02*
D03*
X392000Y-355250D02*
D03*
X8000Y-335250D02*
D03*
D26*
Y-92000D02*
D03*
X76000Y-19000D02*
D03*
Y1000D02*
D03*
Y-39000D02*
D03*
X275500Y-413250D02*
D03*
X210000Y-413000D02*
D03*
X144000D02*
D03*
X299500Y-208750D02*
D03*
X279500D02*
D03*
X259500D02*
D03*
X219500D02*
D03*
X239500D02*
D03*
X140250Y-208500D02*
D03*
X120250D02*
D03*
X392000Y-72000D02*
D03*
Y-137812D02*
D03*
X8000Y-157812D02*
D03*
X392000Y-203625D02*
D03*
X8000Y-223625D02*
D03*
X392000Y-269437D02*
D03*
X8000Y-289437D02*
D03*
X392000Y-335250D02*
D03*
X8000Y-355250D02*
D03*
D27*
X349000Y-437000D02*
D03*
X-17000Y61000D02*
D03*
D28*
X255500Y-413250D02*
D03*
X190000Y-413000D02*
D03*
X124000D02*
D03*
X199500Y-208750D02*
D03*
X100250Y-208500D02*
D03*
D29*
X0Y-420000D02*
D03*
X400000D02*
D03*
Y0D02*
D03*
X0D02*
D03*
D30*
X321000Y26250D02*
D03*
X295600D02*
D03*
X308300D02*
D03*
M02*
