M48
;Layer_Color=9474304
;FILE_FORMAT=4:4
METRIC,LZ
;TYPE=PLATED
T1F00S00C0.3000
T2F00S00C0.6000
T3F00S00C0.7000
;TYPE=NON_PLATED
%
T01
X-0003175Y-003875
X-0002875Y-0032875
X-00031Y-00266
X00021408Y-00252934
X00020408Y-00287934
X0004625Y-002775
Y-0032675
X000835Y-0031325
X0008825Y-0034375
X000895Y-00372
X0006425Y-0038325
X0004075Y-00396
X0003Y-003625
X00047Y-004455
X000945Y-004435
X000845Y-0041375
X0014225Y-0038925
X0015625Y-0036175
X00159Y-0034575
X001655Y-0032625
X00165Y-0031425
X001655Y-00302
X001495Y-003015
X0015025Y-00314
X0015Y-0032625
X0013Y-00346
X0018625Y-0034925
X00209029Y-00325221
X00202275Y-00315883
X0020175Y-003079
X0021Y-00278
X0019Y-0027925
X0015775Y-002785
X001705Y-0025875
X00172757Y-00227007
X0018475Y-002165
X001915Y-002325
X00152616Y-002315
X00158158Y-00208684
X0012875Y-00252
X0012575Y-0027375
X0008375Y-00257
X00097Y-0022425
X0004475Y-002235
X-000045Y-00216
X001645Y-00408625
X0016975Y-004415
X002175Y-004015
X002015Y-0038175
X00241Y-00382
X00253279Y-00369471
X0027675Y-0036875
Y-003775
Y-003855
X0027425Y-0039625
X0028975Y-0042825
X00323771Y-00442932
X003505Y-0041325
X0035075Y-00375
X00349Y-0034275
X003765Y-00312
X004265Y-0030725
X0040725Y-0028075
X0039025Y-002395
X00428Y-0024
X003115Y-0023825
X00265408Y-00221184
X00236658Y-00221684
X00257Y-002475
X0025Y-0027375
X00272
X002855Y-00294
X0025275Y-0029375
X0025075Y-003185
X0027Y-00322
X0028975Y-00327
X00306Y-0031525
X00240846Y-00331404
X0023925Y-0042
X0024Y-004455
X0038425Y-0038475
X00426Y-003695
X004305Y-0019
X0042925Y-001565
X004265Y-00119
X00395Y-0011
X0036025Y-0011375
X00359865Y-00121885
X00349Y-0014125
X0035075Y-0018075
X003355Y-00192
X00304158Y-00190184
X00270158Y-00192684
X0025Y-0020025
X002435Y-0016975
X0024375Y-0014225
X002525Y-0012575
X00273188Y-00124438
X0026875Y-0014775
X00270881Y-00094102
X002605Y-001
X0028175Y-0008425
Y-00074846
Y-00065
Y-0005575
Y-00046279
Y-000375
X00305408Y-00025934
X0030525Y-0000975
X00323Y-0001825
X0032425Y0000725
X00284Y0001775
X0023375Y0000175
Y-0001
Y-000225
Y-0003425
Y-0004775
Y-00061
X0024575Y-00073
X00326969Y-00071
X00326239Y-0009275
X003265Y-0011475
X0031775Y-0011575
X0030475Y-0012725
X0031975Y-0015725
X0039525Y-001725
X0035625Y-00093346
Y-0007175
Y-00048
X0036175Y-000375
X003265Y-00048
X0041825Y-000425
X004325Y-00079
X00431Y00032
X00393Y000385
X00362908Y00032566
X00217Y0003225
X0018525Y000315
X0015625Y0003
X00165Y00005
X0015425Y-000175
X0018475Y-0001175
X00184Y-0003775
X00215Y-00039
X0021525Y-0007175
X0018325
X00157Y-00065
X00161Y-0004725
X0014425Y-00093
X00132158Y-00127684
X00121244Y-0012825
X00112599
X00103953
X00095308
X00090658Y-00104684
X00073908Y-00120434
X00039908Y-00130684
X00050158Y-00156434
X00030908Y-00165684
X00002Y-0017325
X00006408Y-00191184
X-0002725Y-0018425
X-0002825Y-0012425
X-00011092Y-00090684
X00011658Y-00105434
X00045658Y-00095184
X00027846Y-00073096
X00054158Y-00052934
X00080408Y-00055184
X00109408Y-00033684
X001165Y-0001575
X001145Y0002575
X00112Y000375
X000845Y00038
X0005825Y0003825
X00036174Y00037176
X0001225Y000375
X-0000825Y0003675
X-0002975Y0003725
X-000295Y-000555
X000065Y-000375
X0004475Y-00027
X00096Y0001125
X0021225Y0000075
X002064Y-00128
X00232
X0022675Y-00155
X002105Y-0015525
X0022525Y-00176
X00229158Y-00195934
X001905Y-001945
X001745Y-00199808
X0014975Y-00176
X00121244Y-00170154
X00112599
X00103953
X00095308
X00087908Y-00196434
X00129408Y-00193434
X00044408Y-00198684
X001685Y-00124
T02
X002956Y0002625
X003083
X00321
X003337
T03
X00008Y-0035525
Y-0033525
Y-00289437
Y-00269437
Y-00223625
X0010025Y-002085
X0012025
X0014025
X001995Y-0020875
X002195
X0021Y-00413
X0019
X00144
X00124
X002555Y-0041325
X002755
X00392Y-0035525
Y-0033525
Y-00289437
Y-00269437
Y-00223625
X002995Y-0020875
X002795
X002595
X002395
X00392Y-00203625
Y-00157812
Y-00137812
Y-00092
Y-00072
X00076Y-00039
Y-00019
Y00001
Y00021
X00008Y-00072
Y-00092
Y-00137812
Y-00157812
Y-00203625
M30
