G04*
G04 #@! TF.GenerationSoftware,Altium Limited,Altium Designer,21.8.1 (53)*
G04*
G04 Layer_Physical_Order=1*
G04 Layer_Color=255*
%FSLAX44Y44*%
%MOMM*%
G71*
G04*
G04 #@! TF.SameCoordinates,E292F7DC-635B-41A5-9E53-70443CF81A2D*
G04*
G04*
G04 #@! TF.FilePolarity,Positive*
G04*
G01*
G75*
%ADD21R,1.0000X1.0000*%
%ADD31R,1.0000X1.0000*%
%ADD32R,1.6000X0.6100*%
%ADD33R,2.6200X3.5100*%
%ADD34R,0.6000X0.6000*%
%ADD35R,1.0000X0.8000*%
%ADD36R,0.9000X0.9000*%
%ADD37R,2.0000X1.0000*%
%ADD38R,1.0000X2.0000*%
%ADD39R,1.3000X0.7000*%
%ADD40C,0.3000*%
%ADD41C,0.5000*%
%ADD42C,0.6000*%
%ADD43R,1.2000X1.2000*%
%ADD44C,1.2000*%
%ADD45C,1.0000*%
%ADD46R,1.2000X1.2000*%
%ADD47O,7.2000X5.2000*%
%ADD48C,0.6000*%
G36*
X436941Y11444D02*
X435671Y11192D01*
X435025Y12751D01*
X432723Y16509D01*
X429860Y19860D01*
X426509Y22722D01*
X422751Y25025D01*
X418679Y26712D01*
X414394Y27741D01*
X410000Y28087D01*
X401500D01*
Y0D01*
Y-28087D01*
X410000D01*
X414394Y-27741D01*
X418679Y-26712D01*
X422751Y-25025D01*
X426509Y-22722D01*
X429860Y-19860D01*
X432723Y-16509D01*
X435025Y-12751D01*
X435671Y-11192D01*
X436941Y-11444D01*
Y-408556D01*
X435671Y-408808D01*
X435025Y-407249D01*
X432723Y-403491D01*
X429860Y-400140D01*
X426509Y-397277D01*
X422751Y-394975D01*
X418679Y-393288D01*
X414394Y-392259D01*
X410000Y-391913D01*
X401500D01*
Y-420000D01*
X400000D01*
D01*
X401500D01*
Y-448087D01*
X410000D01*
X414394Y-447741D01*
X418679Y-446712D01*
X422751Y-445025D01*
X426509Y-442723D01*
X429860Y-439860D01*
X432723Y-436509D01*
X433821Y-434716D01*
X434956Y-435294D01*
X434062Y-437454D01*
X431884Y-441008D01*
X429177Y-444177D01*
X426008Y-446884D01*
X422454Y-449062D01*
X418603Y-450657D01*
X414550Y-451630D01*
X410595Y-451941D01*
X410194D01*
X410076Y-451932D01*
X410076Y-451941D01*
X355444D01*
X355192Y-450671D01*
X356105Y-450293D01*
X358562Y-448651D01*
X360651Y-446562D01*
X362293Y-444105D01*
X363424Y-441375D01*
X364000Y-438477D01*
Y-435523D01*
X363424Y-432625D01*
X362293Y-429895D01*
X360651Y-427438D01*
X358562Y-425349D01*
X356105Y-423707D01*
X353375Y-422576D01*
X350477Y-422000D01*
X347523D01*
X344625Y-422576D01*
X341895Y-423707D01*
X339438Y-425349D01*
X337520Y-427267D01*
X336250Y-427024D01*
Y-415500D01*
X322250D01*
Y-418931D01*
X318250D01*
Y-415500D01*
X309303D01*
X308568Y-414609D01*
X309042Y-413500D01*
X318250D01*
Y-399500D01*
X314819D01*
Y-393500D01*
X318250D01*
Y-379500D01*
X304250D01*
Y-392657D01*
X302980Y-393183D01*
X292773Y-382977D01*
X291819Y-382339D01*
X291895Y-381437D01*
X292030Y-381069D01*
X297500D01*
X298866Y-380797D01*
X300023Y-380023D01*
X303077Y-376970D01*
X304250Y-377456D01*
Y-377500D01*
X318250D01*
Y-366168D01*
X319520Y-365817D01*
X322250Y-368547D01*
Y-377500D01*
X336250D01*
Y-363500D01*
X327297D01*
X325539Y-361742D01*
X326025Y-360569D01*
X327750D01*
X329116Y-360297D01*
X330273Y-359523D01*
X332273Y-357523D01*
X333047Y-356366D01*
X333219Y-355500D01*
X336250D01*
Y-341500D01*
X330095D01*
X329750Y-341431D01*
X329405Y-341500D01*
X322250D01*
Y-353431D01*
X318250D01*
Y-341500D01*
X304250D01*
Y-346431D01*
X298750D01*
X298327Y-346516D01*
X297702Y-345345D01*
X303120Y-339927D01*
X304250Y-339500D01*
Y-339500D01*
X304250Y-339500D01*
X318250D01*
Y-337569D01*
X322250D01*
Y-339500D01*
X336250D01*
Y-325500D01*
X322250D01*
Y-330431D01*
X318250D01*
Y-325500D01*
X304250D01*
Y-330924D01*
X303507D01*
X302142Y-331196D01*
X300984Y-331969D01*
X288270Y-344683D01*
X287000Y-344157D01*
Y-336000D01*
X285098D01*
Y-312500D01*
X287250D01*
Y-309598D01*
X295250D01*
X297201Y-309210D01*
X298855Y-308105D01*
X306257Y-300703D01*
X307362Y-299049D01*
X307750Y-297098D01*
Y-282750D01*
Y-269152D01*
X307362Y-267201D01*
X306257Y-265547D01*
X301355Y-260645D01*
X299701Y-259540D01*
X297750Y-259152D01*
X294000D01*
Y-258750D01*
X277000D01*
Y-269750D01*
Y-272250D01*
X285500D01*
Y-275250D01*
X277000D01*
Y-279250D01*
Y-288750D01*
X294000D01*
Y-287848D01*
X297554D01*
Y-294986D01*
X293138Y-299402D01*
X287250D01*
Y-298500D01*
X273250D01*
Y-312500D01*
X274902D01*
Y-336000D01*
X273000D01*
Y-342244D01*
X271827Y-342730D01*
X267069Y-337972D01*
Y-335000D01*
X267000Y-334655D01*
Y-326500D01*
X253000D01*
Y-338500D01*
X259931D01*
Y-339450D01*
X260203Y-340815D01*
X260977Y-341973D01*
X263330Y-344327D01*
X262844Y-345500D01*
X253000D01*
Y-351011D01*
X240261Y-363750D01*
X236000D01*
Y-364162D01*
X233000D01*
Y-363750D01*
X232088D01*
Y-360500D01*
X231739Y-358744D01*
X230744Y-357256D01*
X224750Y-351261D01*
Y-347348D01*
X230750D01*
Y-348250D01*
X244750D01*
Y-336250D01*
X244415D01*
Y-334906D01*
X245085Y-334236D01*
X245846Y-332398D01*
Y-330409D01*
X245085Y-328572D01*
X243678Y-327165D01*
X241841Y-326404D01*
X239852D01*
X238014Y-327165D01*
X236607Y-328572D01*
X235846Y-330409D01*
Y-332398D01*
X236607Y-334236D01*
X237278Y-334906D01*
Y-336250D01*
X230750D01*
Y-337152D01*
X224750D01*
Y-326750D01*
X223569D01*
Y-319000D01*
X227000D01*
Y-315569D01*
X231250D01*
Y-319000D01*
X245250D01*
Y-305000D01*
X231250D01*
Y-308431D01*
X227000D01*
Y-305000D01*
X213319D01*
Y-303000D01*
X227000D01*
Y-289000D01*
X213000D01*
Y-291631D01*
X195000D01*
Y-290150D01*
X175000D01*
Y-300250D01*
X195000D01*
Y-298769D01*
X206181D01*
Y-303464D01*
X204911Y-303990D01*
X204582Y-303661D01*
X202745Y-302900D01*
X200756D01*
X198918Y-303661D01*
X198248Y-304331D01*
X195000D01*
Y-302850D01*
X175000D01*
Y-312950D01*
X195000D01*
Y-311469D01*
X197822D01*
X198419Y-312667D01*
X198036Y-313050D01*
X197275Y-314888D01*
Y-315428D01*
X196270Y-316433D01*
X195000Y-315907D01*
Y-315550D01*
X175000D01*
Y-325650D01*
X195000D01*
Y-324169D01*
X197150D01*
X198516Y-323897D01*
X199673Y-323123D01*
X201914Y-320883D01*
X203270D01*
X203391Y-320832D01*
X204713Y-321638D01*
X204790Y-322389D01*
X204029Y-324227D01*
Y-326216D01*
X204790Y-328054D01*
X206196Y-329460D01*
X208034Y-330221D01*
X210023D01*
X210750Y-330707D01*
Y-337152D01*
X207098D01*
Y-336815D01*
X206710Y-334864D01*
X205605Y-333210D01*
X202090Y-329695D01*
X200436Y-328590D01*
X198485Y-328202D01*
X185000D01*
X184759Y-328250D01*
X175000D01*
Y-338350D01*
X184759D01*
X185000Y-338398D01*
X196374D01*
X196902Y-338926D01*
Y-354138D01*
X189790Y-361250D01*
X182750D01*
Y-375250D01*
X184902D01*
Y-405000D01*
X182000D01*
Y-421000D01*
X198000D01*
Y-405000D01*
X195098D01*
Y-375250D01*
X196750D01*
Y-368710D01*
X197750Y-367710D01*
X201000Y-370960D01*
Y-373750D01*
X205507D01*
X206000Y-373848D01*
X206493Y-373750D01*
X211000D01*
Y-369243D01*
X211098Y-368750D01*
X211000Y-368258D01*
Y-363750D01*
X208210D01*
X204960Y-360500D01*
X205605Y-359855D01*
X206710Y-358201D01*
X207098Y-356250D01*
Y-347348D01*
X210750D01*
Y-357750D01*
X218261D01*
X222912Y-362401D01*
Y-368250D01*
X223000Y-368693D01*
Y-373750D01*
X233000D01*
Y-373338D01*
X236000D01*
Y-373750D01*
X246000D01*
Y-370989D01*
X247106Y-369883D01*
X248279Y-370369D01*
Y-370466D01*
X249040Y-372304D01*
X250446Y-373710D01*
X252284Y-374471D01*
X254273D01*
X256111Y-373710D01*
X256632Y-373189D01*
X257902Y-373715D01*
Y-376888D01*
X218794Y-415996D01*
X217656Y-415339D01*
X217880Y-414500D01*
X211500D01*
Y-421097D01*
X212147Y-422022D01*
X211881Y-422402D01*
X135362D01*
X132098Y-419138D01*
Y-416000D01*
X132000Y-415507D01*
Y-405000D01*
X129098D01*
Y-376250D01*
X130750D01*
Y-362250D01*
X129098D01*
Y-356000D01*
X128710Y-354049D01*
X127605Y-352395D01*
X123348Y-348138D01*
Y-338976D01*
X123876Y-338448D01*
X130950D01*
X131443Y-338350D01*
X141000D01*
Y-328250D01*
X131241D01*
X131000Y-328202D01*
X130759Y-328250D01*
X121000D01*
Y-328404D01*
X119814Y-328640D01*
X118160Y-329745D01*
X114645Y-333260D01*
X113540Y-334914D01*
X113152Y-336865D01*
Y-350250D01*
X113540Y-352201D01*
X114645Y-353855D01*
X118902Y-358112D01*
Y-362250D01*
X116750D01*
Y-376250D01*
X118902D01*
Y-405000D01*
X116000D01*
Y-421000D01*
X121902D01*
Y-421250D01*
X122290Y-423201D01*
X123395Y-424855D01*
X129645Y-431105D01*
X131299Y-432210D01*
X133250Y-432598D01*
X214500D01*
X216451Y-432210D01*
X218105Y-431105D01*
X251911Y-397298D01*
X253181Y-397824D01*
Y-405250D01*
X247500D01*
Y-421250D01*
X263500D01*
Y-405250D01*
X260319D01*
Y-398478D01*
X271103Y-387693D01*
X272349Y-387941D01*
X272511Y-388332D01*
X273918Y-389739D01*
X275755Y-390500D01*
X277745D01*
X279582Y-389739D01*
X280252Y-389069D01*
X288772D01*
X297681Y-397978D01*
Y-412500D01*
X297953Y-413866D01*
X298727Y-415023D01*
X304250Y-420547D01*
Y-429500D01*
X318250D01*
Y-426068D01*
X322250D01*
Y-429500D01*
X334496D01*
X335345Y-430770D01*
X334576Y-432625D01*
X334000Y-435523D01*
Y-438477D01*
X334576Y-441375D01*
X335707Y-444105D01*
X337349Y-446562D01*
X339438Y-448651D01*
X341895Y-450293D01*
X342808Y-450671D01*
X342556Y-451941D01*
X-8777D01*
X-10037Y-451932D01*
X-11282Y-451884D01*
X-14511Y-451630D01*
X-18564Y-450657D01*
X-22415Y-449062D01*
X-25969Y-446884D01*
X-29138Y-444177D01*
X-31845Y-441008D01*
X-34023Y-437454D01*
X-34836Y-435491D01*
X-33701Y-434912D01*
X-32722Y-436509D01*
X-29860Y-439860D01*
X-26509Y-442723D01*
X-22751Y-445025D01*
X-18679Y-446712D01*
X-14394Y-447741D01*
X-10000Y-448087D01*
X-1500D01*
Y-420000D01*
Y-391913D01*
X-10000D01*
X-14394Y-392259D01*
X-18679Y-393288D01*
X-22751Y-394975D01*
X-26509Y-397277D01*
X-29860Y-400140D01*
X-32722Y-403491D01*
X-35025Y-407249D01*
X-35671Y-408808D01*
X-36941Y-408556D01*
Y-11444D01*
X-35671Y-11192D01*
X-35025Y-12751D01*
X-32722Y-16509D01*
X-29860Y-19860D01*
X-26509Y-22722D01*
X-22751Y-25025D01*
X-18679Y-26712D01*
X-14394Y-27741D01*
X-10000Y-28087D01*
X-1500D01*
Y0D01*
Y28087D01*
X-10000D01*
X-14394Y27741D01*
X-18679Y26712D01*
X-22751Y25025D01*
X-26509Y22722D01*
X-29860Y19860D01*
X-32722Y16509D01*
X-35025Y12751D01*
X-35671Y11192D01*
X-36941Y11444D01*
Y43750D01*
X282794D01*
X283280Y42577D01*
X278572Y37869D01*
X277000D01*
Y41300D01*
X253000D01*
Y27300D01*
Y14600D01*
Y1900D01*
Y-10800D01*
Y-23500D01*
Y-36200D01*
Y-48900D01*
Y-61600D01*
Y-74300D01*
Y-87000D01*
X277000D01*
X278024Y-87595D01*
X278181Y-87753D01*
Y-155451D01*
X237906Y-195727D01*
X237132Y-196884D01*
X236860Y-198250D01*
Y-201175D01*
X236412Y-201295D01*
X234588Y-202348D01*
X233098Y-203838D01*
X232045Y-205662D01*
X231500Y-207697D01*
Y-209803D01*
X232045Y-211838D01*
X233098Y-213662D01*
X234588Y-215152D01*
X236412Y-216205D01*
X238447Y-216750D01*
X240553D01*
X242588Y-216205D01*
X244412Y-215152D01*
X245902Y-213662D01*
X246955Y-211838D01*
X247500Y-209803D01*
Y-207697D01*
X246955Y-205662D01*
X245902Y-203838D01*
X244412Y-202348D01*
X243997Y-202109D01*
Y-199728D01*
X254758Y-188968D01*
X255931Y-189454D01*
Y-201573D01*
X254588Y-202348D01*
X253098Y-203838D01*
X252045Y-205662D01*
X251500Y-207697D01*
Y-209803D01*
X252045Y-211838D01*
X253098Y-213662D01*
X254588Y-215152D01*
X256412Y-216205D01*
X258447Y-216750D01*
X260553D01*
X262588Y-216205D01*
X264412Y-215152D01*
X265902Y-213662D01*
X266955Y-211838D01*
X267500Y-209803D01*
Y-207697D01*
X266955Y-205662D01*
X265902Y-203838D01*
X264412Y-202348D01*
X263069Y-201573D01*
Y-187728D01*
X274758Y-176039D01*
X275931Y-176525D01*
Y-201573D01*
X274588Y-202348D01*
X273098Y-203838D01*
X272045Y-205662D01*
X271500Y-207697D01*
Y-209803D01*
X272045Y-211838D01*
X273098Y-213662D01*
X274588Y-215152D01*
X276412Y-216205D01*
X278167Y-216675D01*
X278744Y-217894D01*
X270957Y-225681D01*
X222920D01*
X207500Y-210261D01*
Y-200750D01*
X204088D01*
Y-146800D01*
X205889Y-145000D01*
X213000D01*
Y-131000D01*
X211636D01*
X211095Y-129730D01*
X211400Y-128995D01*
Y-127005D01*
X210988Y-126011D01*
Y-118000D01*
X217600D01*
Y-106000D01*
Y-94000D01*
X148600D01*
Y-118000D01*
X177431D01*
Y-163589D01*
X176161Y-164115D01*
X171250Y-159203D01*
Y-150250D01*
X157250D01*
Y-164250D01*
X166203D01*
X170931Y-168978D01*
Y-196305D01*
X170261Y-196975D01*
X169500Y-198813D01*
Y-200802D01*
X170261Y-202640D01*
X171668Y-204046D01*
X172335Y-204323D01*
X172633Y-205821D01*
X162022Y-216431D01*
X145052D01*
X144712Y-215161D01*
X145162Y-214902D01*
X146652Y-213412D01*
X147705Y-211588D01*
X148130Y-210000D01*
X132370D01*
X132795Y-211588D01*
X133848Y-213412D01*
X135338Y-214902D01*
X135788Y-215161D01*
X135448Y-216431D01*
X133228D01*
X127849Y-211052D01*
X128250Y-209553D01*
Y-207447D01*
X127705Y-205412D01*
X126652Y-203588D01*
X125162Y-202098D01*
X123338Y-201045D01*
X121303Y-200500D01*
X119197D01*
X117162Y-201045D01*
X115338Y-202098D01*
X113848Y-203588D01*
X112795Y-205412D01*
X112250Y-207447D01*
Y-209553D01*
X112795Y-211588D01*
X113848Y-213412D01*
X115338Y-214902D01*
X117162Y-215955D01*
X119197Y-216500D01*
X121303D01*
X122802Y-216098D01*
X126961Y-220258D01*
X126475Y-221431D01*
X118228D01*
X108250Y-211453D01*
Y-200500D01*
X107206D01*
X106720Y-199327D01*
X132773Y-173273D01*
X133547Y-172116D01*
X133819Y-170750D01*
Y-164250D01*
X137250D01*
Y-150250D01*
X123250D01*
Y-153681D01*
X120250D01*
Y-150250D01*
X106250D01*
Y-153681D01*
X103250D01*
Y-150250D01*
X89250D01*
Y-153681D01*
X86250D01*
Y-150250D01*
X72250D01*
Y-153681D01*
X69250D01*
Y-150250D01*
X55250D01*
Y-164250D01*
X69250D01*
Y-160819D01*
X72250D01*
Y-164250D01*
X86250D01*
Y-160819D01*
X89250D01*
Y-164250D01*
X93176D01*
X93429Y-165520D01*
X92475Y-165915D01*
X91459Y-166931D01*
X50728D01*
X19266Y-135469D01*
X18108Y-134696D01*
X16743Y-134424D01*
X16069Y-133312D01*
X16000Y-132968D01*
Y-129812D01*
X12845D01*
X12500Y-129744D01*
X12155Y-129812D01*
X0D01*
Y-145812D01*
X16000D01*
Y-143956D01*
X17173Y-143470D01*
X45519Y-171815D01*
X44992Y-173085D01*
X33346D01*
X31981Y-173357D01*
X30823Y-174130D01*
X17727Y-187227D01*
X17727Y-187227D01*
X9977Y-194977D01*
X9543Y-195625D01*
X0D01*
Y-211625D01*
X16000D01*
Y-199470D01*
X16069Y-199125D01*
Y-198978D01*
X20508Y-194539D01*
X21681Y-195025D01*
Y-230522D01*
X5477Y-246727D01*
X4703Y-247884D01*
X4431Y-249250D01*
Y-261437D01*
X0D01*
Y-277437D01*
X16000D01*
Y-261437D01*
X11569D01*
Y-250728D01*
X25508Y-236789D01*
X26681Y-237275D01*
Y-293022D01*
X5477Y-314227D01*
X4703Y-315384D01*
X4431Y-316750D01*
Y-327250D01*
X0D01*
Y-343250D01*
X16000D01*
Y-327250D01*
X11569D01*
Y-318228D01*
X32773Y-297023D01*
X33547Y-295866D01*
X33819Y-294500D01*
Y-195370D01*
X38620Y-190569D01*
X103589D01*
X104115Y-191839D01*
X98719Y-197234D01*
X97946Y-198392D01*
X97674Y-199757D01*
Y-200500D01*
X92250D01*
Y-216500D01*
X103203D01*
X114227Y-227523D01*
X115384Y-228297D01*
X116750Y-228569D01*
X165571D01*
X166937Y-228297D01*
X168094Y-227523D01*
X178577Y-217041D01*
X179800Y-217614D01*
X180511Y-219332D01*
X181918Y-220739D01*
X183755Y-221500D01*
X184703D01*
X192363Y-229160D01*
X193521Y-229934D01*
X194887Y-230205D01*
X198959D01*
X206431Y-237678D01*
Y-274498D01*
X205761Y-275168D01*
X205000Y-277005D01*
Y-278995D01*
X205761Y-280832D01*
X207168Y-282239D01*
X209005Y-283000D01*
X210994D01*
X211730Y-282695D01*
X213000Y-283544D01*
Y-283750D01*
X227000D01*
Y-281848D01*
X231000D01*
Y-283750D01*
X237790D01*
X240895Y-286855D01*
X242205Y-287730D01*
X241820Y-289000D01*
X239750D01*
Y-294500D01*
X245250D01*
Y-289618D01*
X245250Y-289000D01*
X246250Y-288348D01*
X253000D01*
Y-288750D01*
X270000D01*
Y-277750D01*
X253000D01*
Y-278152D01*
X246612D01*
X245000Y-276540D01*
Y-269750D01*
X231000D01*
Y-271652D01*
X227000D01*
Y-269750D01*
X213569D01*
Y-267750D01*
X227000D01*
Y-253750D01*
X224588D01*
Y-232819D01*
X272435D01*
X273801Y-232547D01*
X274958Y-231773D01*
X292245Y-214487D01*
X292532Y-214210D01*
X293888Y-214452D01*
X294588Y-215152D01*
X296412Y-216205D01*
X298000Y-216630D01*
Y-208750D01*
Y-200870D01*
X296412Y-201295D01*
X294839Y-202204D01*
X293568Y-201749D01*
Y-172228D01*
X332547Y-133250D01*
X341500D01*
Y-127414D01*
X342770Y-126888D01*
X353681Y-137799D01*
Y-221201D01*
X334227Y-240656D01*
X334084Y-240870D01*
X325953Y-249000D01*
X317000D01*
Y-263000D01*
X331000D01*
Y-254047D01*
X333577Y-251470D01*
X334750Y-251956D01*
Y-263000D01*
X348750D01*
Y-249000D01*
X345319D01*
Y-246728D01*
X362508Y-229539D01*
X363681Y-230025D01*
Y-330500D01*
X363953Y-331866D01*
X364727Y-333023D01*
X384000Y-352297D01*
Y-363250D01*
X400000D01*
Y-347250D01*
X389047D01*
X370819Y-329022D01*
Y-274962D01*
X371992Y-274476D01*
X384000Y-286484D01*
Y-297437D01*
X400000D01*
Y-281437D01*
X389047D01*
X376069Y-268459D01*
Y-214400D01*
X377242Y-213914D01*
X384000Y-220672D01*
Y-231625D01*
X400000D01*
Y-215625D01*
X389047D01*
X381069Y-207647D01*
Y-153587D01*
X382242Y-153101D01*
X384000Y-154859D01*
Y-165812D01*
X400000D01*
Y-149812D01*
X389047D01*
X386069Y-146834D01*
Y-144813D01*
X387339Y-144359D01*
X388912Y-145267D01*
X390500Y-145693D01*
Y-137812D01*
Y-129932D01*
X388912Y-130358D01*
X387339Y-131266D01*
X386069Y-130812D01*
Y-110500D01*
X385797Y-109134D01*
X385023Y-107977D01*
X365467Y-88420D01*
X365273Y-88130D01*
X361466Y-84323D01*
X361176Y-84129D01*
X360247Y-83200D01*
Y-74824D01*
X360489Y-74582D01*
X361250Y-72745D01*
Y-70755D01*
X360821Y-69720D01*
X361898Y-69000D01*
X382921Y-90023D01*
X384000Y-90744D01*
Y-100000D01*
X400000D01*
Y-84000D01*
X387845D01*
X387500Y-83931D01*
X386922D01*
X359561Y-56570D01*
Y-55818D01*
X359624Y-55500D01*
Y-51697D01*
X360489Y-50832D01*
X361250Y-48995D01*
Y-47005D01*
X360489Y-45168D01*
X359082Y-43761D01*
X357244Y-43000D01*
X355255D01*
X354589Y-43276D01*
X353319Y-42428D01*
Y34571D01*
X353047Y35937D01*
X352273Y37094D01*
X346791Y42577D01*
X347277Y43750D01*
X436941D01*
Y11444D01*
D02*
G37*
G36*
X288796Y27903D02*
X288755Y27750D01*
X295600D01*
Y26250D01*
X297100D01*
Y19405D01*
X298302Y19727D01*
X299898Y20649D01*
X301201Y21952D01*
X301315Y22149D01*
X302585D01*
X302699Y21952D01*
X304002Y20649D01*
X304731Y20227D01*
Y15278D01*
X301922Y12469D01*
X277000D01*
Y20124D01*
X277743D01*
X279108Y20396D01*
X280266Y21169D01*
X287657Y28561D01*
X288796Y27903D01*
D02*
G37*
G36*
X326700Y20254D02*
Y19250D01*
X334931D01*
Y-31000D01*
X327500D01*
Y-41707D01*
X326230Y-42231D01*
X325569Y-41700D01*
Y-41500D01*
X325500Y-41155D01*
Y-31000D01*
X311500D01*
Y-34432D01*
X305120D01*
X284665Y-13977D01*
X283508Y-13203D01*
X282142Y-12931D01*
X277000D01*
Y-7369D01*
X297771D01*
X299137Y-7097D01*
X300294Y-6323D01*
X323216Y16599D01*
X323990Y17756D01*
X324262Y19122D01*
Y20050D01*
X325298Y20649D01*
X325430Y20781D01*
X326700Y20254D01*
D02*
G37*
G36*
X355255Y-98346D02*
X356203D01*
X364091Y-106234D01*
X365248Y-107007D01*
X366137Y-107184D01*
X373931Y-114978D01*
Y-120054D01*
X372758Y-120540D01*
X365250Y-113032D01*
Y-112755D01*
X364489Y-110918D01*
X363082Y-109511D01*
X361245Y-108750D01*
X359255D01*
X357418Y-109511D01*
X356011Y-110918D01*
X355250Y-112755D01*
Y-114745D01*
X356011Y-116582D01*
X357039Y-117611D01*
X357032Y-117647D01*
X355626Y-119053D01*
X355403Y-119592D01*
X353946Y-119964D01*
X353319Y-119457D01*
Y-98919D01*
X354589Y-98070D01*
X355255Y-98346D01*
D02*
G37*
G36*
X312015Y-117699D02*
X312435Y-117980D01*
X312050Y-119250D01*
X311500D01*
Y-133250D01*
X320794D01*
X321280Y-134423D01*
X298242Y-157461D01*
X297069Y-156975D01*
Y-104412D01*
X298242Y-103926D01*
X312015Y-117699D01*
D02*
G37*
G36*
X187839Y-118713D02*
X187948Y-119270D01*
X187203Y-120384D01*
X186931Y-121750D01*
Y-190998D01*
X186261Y-191668D01*
X185839Y-192688D01*
X184569Y-192435D01*
Y-118000D01*
X187544D01*
X187839Y-118713D01*
D02*
G37*
%LPC*%
G36*
X250500Y34450D02*
X237500D01*
Y21450D01*
Y6867D01*
X237220Y6599D01*
X236230Y6135D01*
X234745Y6750D01*
X232755D01*
X230918Y5989D01*
X229511Y4582D01*
X228750Y2745D01*
Y755D01*
X229511Y-1082D01*
X230918Y-2489D01*
X232755Y-3250D01*
X234745D01*
X236230Y-2635D01*
X237220Y-3099D01*
X237500Y-3367D01*
Y-4883D01*
X237220Y-5151D01*
X236230Y-5615D01*
X234745Y-5000D01*
X232755D01*
X230918Y-5761D01*
X229511Y-7168D01*
X228750Y-9005D01*
Y-10995D01*
X229511Y-12832D01*
X230918Y-14239D01*
X232755Y-15000D01*
X234745D01*
X236230Y-14385D01*
X237220Y-14849D01*
X237500Y-15117D01*
Y-17383D01*
X237220Y-17651D01*
X236230Y-18115D01*
X234745Y-17500D01*
X232755D01*
X230918Y-18261D01*
X229511Y-19668D01*
X228750Y-21505D01*
Y-23495D01*
X229511Y-25332D01*
X230918Y-26739D01*
X232755Y-27500D01*
X234745D01*
X236230Y-26885D01*
X237220Y-27349D01*
X237500Y-27617D01*
Y-29133D01*
X237106Y-29510D01*
X236230Y-29865D01*
X234745Y-29250D01*
X232755D01*
X230918Y-30011D01*
X229511Y-31418D01*
X228750Y-33255D01*
Y-35245D01*
X229511Y-37082D01*
X230918Y-38489D01*
X232755Y-39250D01*
X234745D01*
X236230Y-38635D01*
X237220Y-39099D01*
X237500Y-39367D01*
Y-42633D01*
X237220Y-42901D01*
X236230Y-43365D01*
X234745Y-42750D01*
X232755D01*
X230918Y-43511D01*
X229511Y-44918D01*
X228750Y-46755D01*
Y-48745D01*
X229511Y-50582D01*
X230918Y-51989D01*
X232755Y-52750D01*
X234745D01*
X236230Y-52135D01*
X237220Y-52599D01*
X237500Y-52867D01*
Y-55883D01*
X237220Y-56151D01*
X236230Y-56615D01*
X234745Y-56000D01*
X232755D01*
X230918Y-56761D01*
X229511Y-58168D01*
X228750Y-60005D01*
Y-61995D01*
X229511Y-63832D01*
X230918Y-65239D01*
X232755Y-66000D01*
X234745D01*
X236230Y-65385D01*
X237220Y-65849D01*
X237500Y-66117D01*
Y-67450D01*
X250500D01*
Y-54750D01*
Y-42050D01*
Y-29350D01*
Y-16650D01*
Y-3950D01*
Y8750D01*
Y21450D01*
Y34450D01*
D02*
G37*
G36*
X77500Y8880D02*
Y2500D01*
X83880D01*
X83455Y4088D01*
X82402Y5912D01*
X80912Y7402D01*
X79088Y8455D01*
X77500Y8880D01*
D02*
G37*
G36*
X74500Y8880D02*
X72912Y8455D01*
X71088Y7402D01*
X69598Y5912D01*
X68545Y4088D01*
X68120Y2500D01*
X74500D01*
Y8880D01*
D02*
G37*
G36*
X10000Y28087D02*
X1500D01*
Y1500D01*
X37968D01*
X37741Y4394D01*
X36712Y8679D01*
X35025Y12751D01*
X32722Y16509D01*
X29860Y19860D01*
X26509Y22722D01*
X22751Y25025D01*
X18679Y26712D01*
X14394Y27741D01*
X10000Y28087D01*
D02*
G37*
G36*
X398500D02*
X390000D01*
X385606Y27741D01*
X381321Y26712D01*
X377249Y25025D01*
X373491Y22722D01*
X370140Y19860D01*
X367277Y16509D01*
X364975Y12751D01*
X363288Y8679D01*
X362259Y4394D01*
X362032Y1500D01*
X398500D01*
Y28087D01*
D02*
G37*
G36*
X83880Y-500D02*
X77500D01*
Y-6880D01*
X79088Y-6455D01*
X80912Y-5402D01*
X82402Y-3912D01*
X83455Y-2088D01*
X83880Y-500D01*
D02*
G37*
G36*
X74500D02*
X68120D01*
X68545Y-2088D01*
X69598Y-3912D01*
X71088Y-5402D01*
X72912Y-6455D01*
X74500Y-6880D01*
Y-500D01*
D02*
G37*
G36*
X147000Y41300D02*
X123000D01*
Y27300D01*
Y22826D01*
X116686D01*
X115321Y22554D01*
X114163Y21781D01*
X88977Y-3406D01*
X88203Y-4563D01*
X87931Y-5929D01*
Y-81272D01*
X87101Y-82102D01*
X86250Y-81750D01*
Y-81750D01*
X72250D01*
Y-92044D01*
X71077Y-92530D01*
X69250Y-90703D01*
Y-81750D01*
X55250D01*
Y-95750D01*
X64203D01*
X69727Y-101273D01*
X70884Y-102047D01*
X72250Y-102319D01*
X86250D01*
X87616Y-102047D01*
X88773Y-101273D01*
X96758Y-93289D01*
X97931Y-93775D01*
Y-109272D01*
X79729Y-127474D01*
X65971D01*
X16069Y-77572D01*
Y-76500D01*
X16000Y-76155D01*
Y-64000D01*
X0D01*
Y-80000D01*
X9121D01*
X9203Y-80415D01*
X9977Y-81573D01*
X12021Y-83617D01*
X11241Y-84634D01*
X11088Y-84545D01*
X9500Y-84120D01*
Y-90500D01*
X15880D01*
X15455Y-88912D01*
X15366Y-88759D01*
X16383Y-87979D01*
X60924Y-132521D01*
Y-134250D01*
X55250D01*
Y-148250D01*
X69250D01*
Y-134611D01*
X72250D01*
Y-148250D01*
X86250D01*
Y-139297D01*
X88077Y-137470D01*
X89250Y-137956D01*
Y-148250D01*
X103250D01*
Y-139297D01*
X105077Y-137470D01*
X106250Y-137956D01*
Y-148250D01*
X120250D01*
Y-137956D01*
X121423Y-137470D01*
X123250Y-139297D01*
Y-148250D01*
X137250D01*
Y-134250D01*
X128297D01*
X125387Y-131340D01*
Y-131179D01*
X125483Y-131082D01*
X126244Y-129245D01*
Y-127255D01*
X125483Y-125418D01*
X125069Y-125003D01*
Y-114328D01*
X126339Y-113943D01*
X126727Y-114523D01*
X143681Y-131478D01*
Y-134250D01*
X140250D01*
Y-148250D01*
X154250D01*
Y-144818D01*
X157250D01*
Y-148250D01*
X171250D01*
Y-134250D01*
X157250D01*
Y-137681D01*
X154250D01*
Y-134250D01*
X150819D01*
Y-130000D01*
X150547Y-128634D01*
X149773Y-127477D01*
X132819Y-110522D01*
Y-87000D01*
X147000D01*
Y-74300D01*
Y-61600D01*
Y-48900D01*
Y-36200D01*
Y-23500D01*
Y-18000D01*
X123000D01*
Y-23500D01*
Y-29380D01*
X122885Y-29403D01*
X121727Y-30177D01*
X106242Y-45662D01*
X105069Y-45176D01*
Y-11978D01*
X109678Y-7369D01*
X123000D01*
Y-10800D01*
Y-15000D01*
X147000D01*
Y-10800D01*
Y1900D01*
Y14600D01*
Y27300D01*
Y41300D01*
D02*
G37*
G36*
X84000Y29000D02*
X68000D01*
Y18047D01*
X58977Y9023D01*
X58203Y7866D01*
X57931Y6500D01*
Y-62071D01*
X58203Y-63437D01*
X58681Y-64153D01*
Y-65750D01*
X55250D01*
Y-79750D01*
X69250D01*
Y-69456D01*
X70423Y-68970D01*
X72250Y-70797D01*
Y-79750D01*
X86250D01*
Y-65750D01*
X77297D01*
X70069Y-58522D01*
Y-46001D01*
X71339Y-45546D01*
X72912Y-46455D01*
X74500Y-46880D01*
Y-39000D01*
Y-31120D01*
X72912Y-31545D01*
X71339Y-32454D01*
X70069Y-31999D01*
Y-29978D01*
X73448Y-26598D01*
X74947Y-27000D01*
X77053D01*
X79088Y-26455D01*
X80912Y-25402D01*
X82402Y-23912D01*
X83455Y-22088D01*
X84000Y-20053D01*
Y-17947D01*
X83455Y-15912D01*
X82402Y-14088D01*
X80912Y-12598D01*
X79088Y-11545D01*
X77053Y-11000D01*
X74947D01*
X72912Y-11545D01*
X71088Y-12598D01*
X69598Y-14088D01*
X68545Y-15912D01*
X68000Y-17947D01*
Y-20053D01*
X68401Y-21552D01*
X66242Y-23711D01*
X65069Y-23225D01*
Y5022D01*
X73047Y13000D01*
X84000D01*
Y29000D01*
D02*
G37*
G36*
X398500Y-1500D02*
X362031D01*
X362259Y-4394D01*
X363288Y-8679D01*
X364975Y-12751D01*
X367277Y-16509D01*
X370140Y-19860D01*
X373491Y-22722D01*
X377249Y-25025D01*
X381321Y-26712D01*
X385606Y-27741D01*
X390000Y-28087D01*
X398500D01*
Y-1500D01*
D02*
G37*
G36*
X37969D02*
X1500D01*
Y-28087D01*
X10000D01*
X14394Y-27741D01*
X18679Y-26712D01*
X22751Y-25025D01*
X26509Y-22722D01*
X29860Y-19860D01*
X32722Y-16509D01*
X35025Y-12751D01*
X36712Y-8679D01*
X37741Y-4394D01*
X37969Y-1500D01*
D02*
G37*
G36*
X77500Y-31120D02*
Y-37500D01*
X83880D01*
X83455Y-35912D01*
X82402Y-34088D01*
X80912Y-32598D01*
X79088Y-31545D01*
X77500Y-31120D01*
D02*
G37*
G36*
X83880Y-40500D02*
X77500D01*
Y-46880D01*
X79088Y-46455D01*
X80912Y-45402D01*
X82402Y-43912D01*
X83455Y-42088D01*
X83880Y-40500D01*
D02*
G37*
G36*
X393500Y-64120D02*
Y-70500D01*
X399880D01*
X399455Y-68912D01*
X398402Y-67088D01*
X396912Y-65598D01*
X395088Y-64545D01*
X393500Y-64120D01*
D02*
G37*
G36*
X390500Y-64120D02*
X388912Y-64545D01*
X387088Y-65598D01*
X385598Y-67088D01*
X384545Y-68912D01*
X384120Y-70500D01*
X390500D01*
Y-64120D01*
D02*
G37*
G36*
Y-73500D02*
X384120D01*
X384545Y-75088D01*
X385598Y-76912D01*
X387088Y-78402D01*
X388912Y-79455D01*
X390500Y-79880D01*
Y-73500D01*
D02*
G37*
G36*
X399880D02*
X393500D01*
Y-79880D01*
X395088Y-79455D01*
X396912Y-78402D01*
X398402Y-76912D01*
X399455Y-75088D01*
X399880Y-73500D01*
D02*
G37*
G36*
X244600Y-78500D02*
X239600D01*
Y-83500D01*
X244600D01*
Y-78500D01*
D02*
G37*
G36*
X6500Y-84120D02*
X4912Y-84545D01*
X3088Y-85598D01*
X1598Y-87088D01*
X545Y-88912D01*
X120Y-90500D01*
X6500D01*
Y-84120D01*
D02*
G37*
G36*
X244600Y-86500D02*
X239600D01*
Y-91500D01*
X244600D01*
Y-86500D01*
D02*
G37*
G36*
X236600Y-78500D02*
X155400D01*
Y-91500D01*
X236600D01*
Y-85000D01*
Y-78500D01*
D02*
G37*
G36*
X6500Y-93500D02*
X120D01*
X545Y-95088D01*
X1598Y-96912D01*
X3088Y-98402D01*
X4912Y-99455D01*
X6500Y-99880D01*
Y-93500D01*
D02*
G37*
G36*
X15880D02*
X9500D01*
Y-99880D01*
X11088Y-99455D01*
X12912Y-98402D01*
X14402Y-96912D01*
X15455Y-95088D01*
X15880Y-93500D01*
D02*
G37*
G36*
X251500Y-94000D02*
X220600D01*
Y-106000D01*
Y-118000D01*
X227312D01*
Y-126253D01*
X227000Y-127005D01*
Y-128995D01*
X227305Y-129730D01*
X226456Y-131000D01*
X223500D01*
Y-136500D01*
X229000D01*
Y-133544D01*
X230270Y-132695D01*
X231005Y-133000D01*
X232995D01*
X234832Y-132239D01*
X236239Y-130832D01*
X237000Y-128995D01*
Y-127005D01*
X236488Y-125770D01*
Y-118000D01*
X251500D01*
Y-94000D01*
D02*
G37*
G36*
X393500Y-129932D02*
Y-136313D01*
X399880D01*
X399455Y-134725D01*
X398402Y-132900D01*
X396912Y-131411D01*
X395088Y-130358D01*
X393500Y-129932D01*
D02*
G37*
G36*
X220500Y-131000D02*
X215000D01*
Y-136500D01*
X220500D01*
Y-131000D01*
D02*
G37*
G36*
X229000Y-139500D02*
X223500D01*
Y-145000D01*
X229000D01*
Y-139500D01*
D02*
G37*
G36*
X220500D02*
X215000D01*
Y-145000D01*
X220500D01*
Y-139500D01*
D02*
G37*
G36*
X399880Y-139312D02*
X393500D01*
Y-145693D01*
X395088Y-145267D01*
X396912Y-144214D01*
X398402Y-142725D01*
X399455Y-140900D01*
X399880Y-139312D01*
D02*
G37*
G36*
X154250Y-150250D02*
X148750D01*
Y-155750D01*
X154250D01*
Y-150250D01*
D02*
G37*
G36*
X145750D02*
X140250D01*
Y-155750D01*
X145750D01*
Y-150250D01*
D02*
G37*
G36*
X9500Y-149932D02*
Y-156313D01*
X15880D01*
X15455Y-154725D01*
X14402Y-152900D01*
X12912Y-151411D01*
X11088Y-150358D01*
X9500Y-149932D01*
D02*
G37*
G36*
X6500Y-149932D02*
X4912Y-150358D01*
X3088Y-151411D01*
X1598Y-152900D01*
X545Y-154725D01*
X120Y-156313D01*
X6500D01*
Y-149932D01*
D02*
G37*
G36*
X154250Y-158750D02*
X148750D01*
Y-164250D01*
X154250D01*
Y-158750D01*
D02*
G37*
G36*
X145750D02*
X140250D01*
Y-164250D01*
X145750D01*
Y-158750D01*
D02*
G37*
G36*
X6500Y-159312D02*
X120D01*
X545Y-160900D01*
X1598Y-162725D01*
X3088Y-164214D01*
X4912Y-165267D01*
X6500Y-165693D01*
Y-159312D01*
D02*
G37*
G36*
X15880D02*
X9500D01*
Y-165693D01*
X11088Y-165267D01*
X12912Y-164214D01*
X14402Y-162725D01*
X15455Y-160900D01*
X15880Y-159312D01*
D02*
G37*
G36*
X393500Y-195745D02*
Y-202125D01*
X399880D01*
X399455Y-200537D01*
X398402Y-198713D01*
X396912Y-197223D01*
X395088Y-196170D01*
X393500Y-195745D01*
D02*
G37*
G36*
X390500Y-195745D02*
X388912Y-196170D01*
X387088Y-197223D01*
X385598Y-198713D01*
X384545Y-200537D01*
X384120Y-202125D01*
X390500D01*
Y-195745D01*
D02*
G37*
G36*
X141750Y-200620D02*
Y-207000D01*
X148130D01*
X147705Y-205412D01*
X146652Y-203588D01*
X145162Y-202098D01*
X143338Y-201045D01*
X141750Y-200620D01*
D02*
G37*
G36*
X138750D02*
X137162Y-201045D01*
X135338Y-202098D01*
X133848Y-203588D01*
X132795Y-205412D01*
X132370Y-207000D01*
X138750D01*
Y-200620D01*
D02*
G37*
G36*
X301000Y-200870D02*
Y-207250D01*
X307380D01*
X306955Y-205662D01*
X305902Y-203838D01*
X304412Y-202348D01*
X302588Y-201295D01*
X301000Y-200870D01*
D02*
G37*
G36*
X390500Y-205125D02*
X384120D01*
X384545Y-206713D01*
X385598Y-208537D01*
X387088Y-210026D01*
X388912Y-211080D01*
X390500Y-211505D01*
Y-205125D01*
D02*
G37*
G36*
X399880D02*
X393500D01*
Y-211505D01*
X395088Y-211080D01*
X396912Y-210026D01*
X398402Y-208537D01*
X399455Y-206713D01*
X399880Y-205125D01*
D02*
G37*
G36*
X307380Y-210250D02*
X301000D01*
Y-216630D01*
X302588Y-216205D01*
X304412Y-215152D01*
X305902Y-213662D01*
X306955Y-211838D01*
X307380Y-210250D01*
D02*
G37*
G36*
X220553Y-200750D02*
X218447D01*
X216412Y-201295D01*
X214588Y-202348D01*
X213098Y-203838D01*
X212045Y-205662D01*
X211500Y-207697D01*
Y-209803D01*
X212045Y-211838D01*
X213098Y-213662D01*
X214588Y-215152D01*
X216412Y-216205D01*
X218447Y-216750D01*
X220553D01*
X222588Y-216205D01*
X224412Y-215152D01*
X225902Y-213662D01*
X226955Y-211838D01*
X227500Y-209803D01*
Y-207697D01*
X226955Y-205662D01*
X225902Y-203838D01*
X224412Y-202348D01*
X222588Y-201295D01*
X220553Y-200750D01*
D02*
G37*
G36*
X9500Y-215745D02*
Y-222125D01*
X15880D01*
X15455Y-220537D01*
X14402Y-218713D01*
X12912Y-217223D01*
X11088Y-216170D01*
X9500Y-215745D01*
D02*
G37*
G36*
X6500Y-215745D02*
X4912Y-216170D01*
X3088Y-217223D01*
X1598Y-218713D01*
X545Y-220537D01*
X120Y-222125D01*
X6500D01*
Y-215745D01*
D02*
G37*
G36*
Y-225125D02*
X120D01*
X545Y-226713D01*
X1598Y-228537D01*
X3088Y-230026D01*
X4912Y-231080D01*
X6500Y-231505D01*
Y-225125D01*
D02*
G37*
G36*
X15880D02*
X9500D01*
Y-231505D01*
X11088Y-231080D01*
X12912Y-230026D01*
X14402Y-228537D01*
X15455Y-226713D01*
X15880Y-225125D01*
D02*
G37*
G36*
X245000Y-253750D02*
X239500D01*
Y-259250D01*
X245000D01*
Y-253750D01*
D02*
G37*
G36*
X236500D02*
X231000D01*
Y-259250D01*
X236500D01*
Y-253750D01*
D02*
G37*
G36*
X245000Y-262250D02*
X239500D01*
Y-267750D01*
X245000D01*
Y-262250D01*
D02*
G37*
G36*
X236500D02*
X231000D01*
Y-267750D01*
X236500D01*
Y-262250D01*
D02*
G37*
G36*
X393500Y-261557D02*
Y-267937D01*
X399880D01*
X399455Y-266350D01*
X398402Y-264525D01*
X396912Y-263036D01*
X395088Y-261983D01*
X393500Y-261557D01*
D02*
G37*
G36*
X390500Y-261557D02*
X388912Y-261983D01*
X387088Y-263036D01*
X385598Y-264525D01*
X384545Y-266350D01*
X384120Y-267937D01*
X390500D01*
Y-261557D01*
D02*
G37*
G36*
X270000Y-258750D02*
X253000D01*
Y-269750D01*
X270000D01*
Y-258750D01*
D02*
G37*
G36*
X390500Y-270937D02*
X384120D01*
X384545Y-272525D01*
X385598Y-274349D01*
X387088Y-275839D01*
X388912Y-276892D01*
X390500Y-277318D01*
Y-270937D01*
D02*
G37*
G36*
X399880D02*
X393500D01*
Y-277318D01*
X395088Y-276892D01*
X396912Y-275839D01*
X398402Y-274349D01*
X399455Y-272525D01*
X399880Y-270937D01*
D02*
G37*
G36*
X9500Y-281557D02*
Y-287938D01*
X15880D01*
X15455Y-286350D01*
X14402Y-284525D01*
X12912Y-283036D01*
X11088Y-281983D01*
X9500Y-281557D01*
D02*
G37*
G36*
X6500D02*
X4912Y-281983D01*
X3088Y-283036D01*
X1598Y-284525D01*
X545Y-286350D01*
X120Y-287938D01*
X6500D01*
Y-281557D01*
D02*
G37*
G36*
X109250Y-285000D02*
X103750D01*
Y-290500D01*
X109250D01*
Y-285000D01*
D02*
G37*
G36*
X100750D02*
X95250D01*
Y-290500D01*
X100750D01*
Y-285000D01*
D02*
G37*
G36*
X236750Y-289000D02*
X231250D01*
Y-294500D01*
X236750D01*
Y-289000D01*
D02*
G37*
G36*
X348750Y-265000D02*
X334750D01*
Y-279000D01*
X338181D01*
Y-282750D01*
X334750D01*
Y-296750D01*
X348750D01*
Y-282750D01*
X345319D01*
Y-279000D01*
X348750D01*
Y-265000D01*
D02*
G37*
G36*
X331000D02*
X317000D01*
Y-279000D01*
X320431D01*
Y-282750D01*
X317000D01*
Y-296750D01*
X331000D01*
Y-282750D01*
X327569D01*
Y-279000D01*
X331000D01*
Y-265000D01*
D02*
G37*
G36*
X15880Y-290938D02*
X9500D01*
Y-297318D01*
X11088Y-296892D01*
X12912Y-295839D01*
X14402Y-294349D01*
X15455Y-292525D01*
X15880Y-290938D01*
D02*
G37*
G36*
X6500D02*
X120D01*
X545Y-292525D01*
X1598Y-294349D01*
X3088Y-295839D01*
X4912Y-296892D01*
X6500Y-297318D01*
Y-290938D01*
D02*
G37*
G36*
X109250Y-293500D02*
X103750D01*
Y-299000D01*
X109250D01*
Y-293500D01*
D02*
G37*
G36*
X100750D02*
X95250D01*
Y-299000D01*
X100750D01*
Y-293500D01*
D02*
G37*
G36*
X141000Y-290150D02*
X121000D01*
Y-300250D01*
X141000D01*
Y-290150D01*
D02*
G37*
G36*
X245250Y-297500D02*
X239750D01*
Y-303000D01*
X245250D01*
Y-297500D01*
D02*
G37*
G36*
X236750D02*
X231250D01*
Y-303000D01*
X236750D01*
Y-297500D01*
D02*
G37*
G36*
X271250Y-298500D02*
X265750D01*
Y-304000D01*
X271250D01*
Y-298500D01*
D02*
G37*
G36*
X262750D02*
X257250D01*
Y-304000D01*
X262750D01*
Y-298500D01*
D02*
G37*
G36*
X348750Y-298750D02*
X343250D01*
Y-304250D01*
X348750D01*
Y-298750D01*
D02*
G37*
G36*
X340250D02*
X334750D01*
Y-304250D01*
X340250D01*
Y-298750D01*
D02*
G37*
G36*
X331000D02*
X325500D01*
Y-304250D01*
X331000D01*
Y-298750D01*
D02*
G37*
G36*
X322500D02*
X317000D01*
Y-304250D01*
X322500D01*
Y-298750D01*
D02*
G37*
G36*
X271250Y-307000D02*
X265750D01*
Y-312500D01*
X271250D01*
Y-307000D01*
D02*
G37*
G36*
X262750D02*
X257250D01*
Y-312500D01*
X262750D01*
Y-307000D01*
D02*
G37*
G36*
X173100Y-294700D02*
X159500D01*
Y-312750D01*
X173100D01*
Y-294700D01*
D02*
G37*
G36*
X348750Y-307250D02*
X343250D01*
Y-312750D01*
X348750D01*
Y-307250D01*
D02*
G37*
G36*
X340250D02*
X334750D01*
Y-312750D01*
X340250D01*
Y-307250D01*
D02*
G37*
G36*
X331000D02*
X325500D01*
Y-312750D01*
X331000D01*
Y-307250D01*
D02*
G37*
G36*
X322500D02*
X317000D01*
Y-312750D01*
X322500D01*
Y-307250D01*
D02*
G37*
G36*
X156500Y-294700D02*
X142900D01*
Y-312750D01*
X156500D01*
Y-294700D01*
D02*
G37*
G36*
X102250Y-300902D02*
X101757Y-301000D01*
X95250D01*
Y-315000D01*
X109250D01*
Y-312948D01*
X121000D01*
Y-312950D01*
X130759D01*
X131000Y-312998D01*
X131241Y-312950D01*
X141000D01*
Y-302850D01*
X131443D01*
X130950Y-302752D01*
X109250D01*
Y-301000D01*
X102743D01*
X102250Y-300902D01*
D02*
G37*
G36*
X141000Y-315550D02*
X132500D01*
Y-319100D01*
X141000D01*
Y-315550D01*
D02*
G37*
G36*
X129500D02*
X121000D01*
Y-319100D01*
X129500D01*
Y-315550D01*
D02*
G37*
G36*
X141000Y-322100D02*
X132500D01*
Y-325650D01*
X141000D01*
Y-322100D01*
D02*
G37*
G36*
X129500D02*
X121000D01*
Y-325650D01*
X129500D01*
Y-322100D01*
D02*
G37*
G36*
X393500Y-327370D02*
Y-333750D01*
X399880D01*
X399455Y-332162D01*
X398402Y-330338D01*
X396912Y-328848D01*
X395088Y-327795D01*
X393500Y-327370D01*
D02*
G37*
G36*
X390500Y-327370D02*
X388912Y-327795D01*
X387088Y-328848D01*
X385598Y-330338D01*
X384545Y-332162D01*
X384120Y-333750D01*
X390500D01*
Y-327370D01*
D02*
G37*
G36*
X173100Y-315750D02*
X159500D01*
Y-333800D01*
X173100D01*
Y-315750D01*
D02*
G37*
G36*
X156500D02*
X142900D01*
Y-333800D01*
X156500D01*
Y-315750D01*
D02*
G37*
G36*
X390500Y-336750D02*
X384120D01*
X384545Y-338338D01*
X385598Y-340162D01*
X387088Y-341651D01*
X388912Y-342705D01*
X390500Y-343130D01*
Y-336750D01*
D02*
G37*
G36*
X399880D02*
X393500D01*
Y-343130D01*
X395088Y-342705D01*
X396912Y-341651D01*
X398402Y-340162D01*
X399455Y-338338D01*
X399880Y-336750D01*
D02*
G37*
G36*
X9500Y-347370D02*
Y-353750D01*
X15880D01*
X15455Y-352162D01*
X14402Y-350338D01*
X12912Y-348848D01*
X11088Y-347795D01*
X9500Y-347370D01*
D02*
G37*
G36*
X6500D02*
X4912Y-347795D01*
X3088Y-348848D01*
X1598Y-350338D01*
X545Y-352162D01*
X120Y-353750D01*
X6500D01*
Y-347370D01*
D02*
G37*
G36*
Y-356750D02*
X120D01*
X545Y-358338D01*
X1598Y-360162D01*
X3088Y-361651D01*
X4912Y-362705D01*
X6500Y-363130D01*
Y-356750D01*
D02*
G37*
G36*
X15880D02*
X9500D01*
Y-363130D01*
X11088Y-362705D01*
X12912Y-361651D01*
X14402Y-360162D01*
X15455Y-358338D01*
X15880Y-356750D01*
D02*
G37*
G36*
X180750Y-361250D02*
X175250D01*
Y-366750D01*
X180750D01*
Y-361250D01*
D02*
G37*
G36*
X172250D02*
X166750D01*
Y-366750D01*
X172250D01*
Y-361250D01*
D02*
G37*
G36*
X146750Y-362250D02*
X141250D01*
Y-367750D01*
X146750D01*
Y-362250D01*
D02*
G37*
G36*
X138250D02*
X132750D01*
Y-367750D01*
X138250D01*
Y-362250D01*
D02*
G37*
G36*
X180750Y-369750D02*
X175250D01*
Y-375250D01*
X180750D01*
Y-369750D01*
D02*
G37*
G36*
X172250D02*
X166750D01*
Y-375250D01*
X172250D01*
Y-369750D01*
D02*
G37*
G36*
X146750Y-370750D02*
X141250D01*
Y-376250D01*
X146750D01*
Y-370750D01*
D02*
G37*
G36*
X138250D02*
X132750D01*
Y-376250D01*
X138250D01*
Y-370750D01*
D02*
G37*
G36*
X211500Y-405120D02*
Y-411500D01*
X217880D01*
X217455Y-409912D01*
X216402Y-408088D01*
X214912Y-406598D01*
X213088Y-405545D01*
X211500Y-405120D01*
D02*
G37*
G36*
X208500D02*
X206912Y-405545D01*
X205088Y-406598D01*
X203598Y-408088D01*
X202545Y-409912D01*
X202120Y-411500D01*
X208500D01*
Y-405120D01*
D02*
G37*
G36*
X145500D02*
Y-411500D01*
X151880D01*
X151455Y-409912D01*
X150402Y-408088D01*
X148912Y-406598D01*
X147088Y-405545D01*
X145500Y-405120D01*
D02*
G37*
G36*
X142500D02*
X140912Y-405545D01*
X139088Y-406598D01*
X137598Y-408088D01*
X136545Y-409912D01*
X136120Y-411500D01*
X142500D01*
Y-405120D01*
D02*
G37*
G36*
X277000Y-405370D02*
Y-411750D01*
X283380D01*
X282955Y-410162D01*
X281902Y-408338D01*
X280412Y-406848D01*
X278588Y-405795D01*
X277000Y-405370D01*
D02*
G37*
G36*
X274000D02*
X272412Y-405795D01*
X270588Y-406848D01*
X269098Y-408338D01*
X268045Y-410162D01*
X267620Y-411750D01*
X274000D01*
Y-405370D01*
D02*
G37*
G36*
X336250Y-379500D02*
X322250D01*
Y-393500D01*
X325681D01*
Y-399500D01*
X322250D01*
Y-413500D01*
X336250D01*
Y-399500D01*
X332819D01*
Y-393500D01*
X336250D01*
Y-379500D01*
D02*
G37*
G36*
X10000Y-391913D02*
X1500D01*
Y-418500D01*
X37969D01*
X37741Y-415606D01*
X36712Y-411321D01*
X35025Y-407249D01*
X32722Y-403491D01*
X29860Y-400140D01*
X26509Y-397277D01*
X22751Y-394975D01*
X18679Y-393288D01*
X14394Y-392259D01*
X10000Y-391913D01*
D02*
G37*
G36*
X398500D02*
X390000D01*
X385606Y-392259D01*
X381321Y-393288D01*
X377249Y-394975D01*
X373491Y-397277D01*
X370140Y-400140D01*
X367277Y-403491D01*
X364975Y-407249D01*
X363288Y-411321D01*
X362259Y-415606D01*
X362031Y-418500D01*
X398500D01*
Y-391913D01*
D02*
G37*
G36*
X208500Y-414500D02*
X202120D01*
X202545Y-416088D01*
X203598Y-417912D01*
X205088Y-419402D01*
X206912Y-420455D01*
X208500Y-420880D01*
Y-414500D01*
D02*
G37*
G36*
X151880D02*
X145500D01*
Y-420880D01*
X147088Y-420455D01*
X148912Y-419402D01*
X150402Y-417912D01*
X151455Y-416088D01*
X151880Y-414500D01*
D02*
G37*
G36*
X142500D02*
X136120D01*
X136545Y-416088D01*
X137598Y-417912D01*
X139088Y-419402D01*
X140912Y-420455D01*
X142500Y-420880D01*
Y-414500D01*
D02*
G37*
G36*
X283380Y-414750D02*
X277000D01*
Y-421130D01*
X278588Y-420705D01*
X280412Y-419652D01*
X281902Y-418162D01*
X282955Y-416338D01*
X283380Y-414750D01*
D02*
G37*
G36*
X274000D02*
X267620D01*
X268045Y-416338D01*
X269098Y-418162D01*
X270588Y-419652D01*
X272412Y-420705D01*
X274000Y-421130D01*
Y-414750D01*
D02*
G37*
G36*
X398500Y-421500D02*
X362032D01*
X362259Y-424394D01*
X363288Y-428679D01*
X364975Y-432751D01*
X367277Y-436509D01*
X370140Y-439860D01*
X373491Y-442723D01*
X377249Y-445025D01*
X381321Y-446712D01*
X385606Y-447741D01*
X390000Y-448087D01*
X398500D01*
Y-421500D01*
D02*
G37*
G36*
X37968D02*
X1500D01*
Y-448087D01*
X10000D01*
X14394Y-447741D01*
X18679Y-446712D01*
X22751Y-445025D01*
X26509Y-442723D01*
X29860Y-439860D01*
X32722Y-436509D01*
X35025Y-432751D01*
X36712Y-428679D01*
X37741Y-424394D01*
X37968Y-421500D01*
D02*
G37*
G36*
X294100Y24750D02*
X288755D01*
X289077Y23548D01*
X289999Y21952D01*
X291302Y20649D01*
X292898Y19727D01*
X294100Y19405D01*
Y24750D01*
D02*
G37*
%LPD*%
D21*
X62250Y-88750D02*
D03*
Y-72750D02*
D03*
X79250Y-88750D02*
D03*
Y-72750D02*
D03*
X130250Y-157250D02*
D03*
Y-141250D02*
D03*
X329250Y-332500D02*
D03*
Y-348500D02*
D03*
X102250Y-308000D02*
D03*
Y-292000D02*
D03*
X311250Y-422500D02*
D03*
Y-406500D02*
D03*
X329250Y-370500D02*
D03*
Y-386500D02*
D03*
Y-422500D02*
D03*
Y-406500D02*
D03*
X311250Y-370500D02*
D03*
Y-386500D02*
D03*
X220000Y-312000D02*
D03*
Y-296000D02*
D03*
X62250Y-141250D02*
D03*
Y-157250D02*
D03*
X79250Y-141250D02*
D03*
Y-157250D02*
D03*
X96250Y-141250D02*
D03*
Y-157250D02*
D03*
X113250Y-141250D02*
D03*
Y-157250D02*
D03*
X324000Y-289750D02*
D03*
Y-305750D02*
D03*
Y-256000D02*
D03*
Y-272000D02*
D03*
X164250Y-157250D02*
D03*
Y-141250D02*
D03*
X147250Y-157250D02*
D03*
Y-141250D02*
D03*
X341750Y-289750D02*
D03*
Y-305750D02*
D03*
Y-256000D02*
D03*
Y-272000D02*
D03*
X238250Y-296000D02*
D03*
Y-312000D02*
D03*
X311250Y-332500D02*
D03*
Y-348500D02*
D03*
X220000Y-260750D02*
D03*
Y-276750D02*
D03*
X238000Y-260750D02*
D03*
Y-276750D02*
D03*
X333700Y26250D02*
D03*
D31*
X318500Y-126250D02*
D03*
X334500D02*
D03*
X173750Y-368250D02*
D03*
X189750D02*
D03*
X139750Y-369250D02*
D03*
X123750D02*
D03*
X318500Y-38000D02*
D03*
X334500D02*
D03*
X318500Y-60062D02*
D03*
X334500D02*
D03*
X318500Y-82125D02*
D03*
X334500D02*
D03*
X318500Y-104187D02*
D03*
X334500D02*
D03*
X222000Y-138000D02*
D03*
X206000D02*
D03*
X264250Y-305500D02*
D03*
X280250D02*
D03*
D32*
X131000Y-295200D02*
D03*
Y-307900D02*
D03*
Y-320600D02*
D03*
Y-333300D02*
D03*
X185000Y-295200D02*
D03*
Y-307900D02*
D03*
Y-320600D02*
D03*
Y-333300D02*
D03*
D33*
X158000Y-314250D02*
D03*
D34*
X228000Y-368750D02*
D03*
X206000D02*
D03*
X241000D02*
D03*
X263000D02*
D03*
D35*
X217750Y-332750D02*
D03*
Y-351750D02*
D03*
X237750Y-342250D02*
D03*
X260000Y-332500D02*
D03*
Y-351500D02*
D03*
X280000Y-342000D02*
D03*
D36*
X244000Y27950D02*
D03*
Y15250D02*
D03*
Y2550D02*
D03*
Y-10150D02*
D03*
Y-22850D02*
D03*
Y-35550D02*
D03*
Y-48250D02*
D03*
Y-60950D02*
D03*
X238100Y-85000D02*
D03*
X225400D02*
D03*
X212700D02*
D03*
X200000D02*
D03*
X187300D02*
D03*
X174600D02*
D03*
X161900D02*
D03*
D37*
X265000Y34300D02*
D03*
Y21600D02*
D03*
Y8900D02*
D03*
Y-3800D02*
D03*
Y-16500D02*
D03*
Y-29200D02*
D03*
Y-41900D02*
D03*
Y-54600D02*
D03*
Y-67300D02*
D03*
Y-80000D02*
D03*
X135000Y34300D02*
D03*
Y21600D02*
D03*
Y8900D02*
D03*
Y-3800D02*
D03*
Y-16500D02*
D03*
Y-29200D02*
D03*
Y-41900D02*
D03*
Y-54600D02*
D03*
Y-67300D02*
D03*
Y-80000D02*
D03*
D38*
X244500Y-106000D02*
D03*
X231800D02*
D03*
X219100D02*
D03*
X206400D02*
D03*
X193700D02*
D03*
X181000D02*
D03*
X168300D02*
D03*
X155600D02*
D03*
D39*
X285500Y-283250D02*
D03*
Y-273750D02*
D03*
Y-264250D02*
D03*
X261500D02*
D03*
Y-283250D02*
D03*
D40*
X106500Y-115000D02*
Y-50450D01*
X95882Y-125618D02*
X106500Y-115000D01*
X95882Y-127676D02*
Y-125618D01*
X95308Y-128250D02*
X95882Y-127676D01*
X111500Y-120156D02*
Y-54500D01*
X103953Y-128250D02*
Y-127703D01*
X111500Y-120156D01*
X333700Y-104187D02*
Y-82125D01*
Y-60062D02*
Y-38000D01*
X338000Y-33243D02*
X338500Y-32743D01*
X333700Y-82125D02*
Y-60062D01*
X338500Y-32743D02*
Y21450D01*
X333700Y-125450D02*
Y-104187D01*
Y26250D02*
X338500Y21450D01*
X334500Y-38000D02*
X338000Y-34500D01*
Y-33243D01*
X356250Y-93346D02*
X366614Y-103710D01*
X358846Y-86846D02*
X358942D01*
X362750Y-90750D02*
Y-90654D01*
X358942Y-86846D02*
X362750Y-90654D01*
Y-90750D02*
X382500Y-110500D01*
X367710Y-103710D02*
X377500Y-113500D01*
X366614Y-103710D02*
X367710D01*
X382500Y-148313D02*
Y-110500D01*
X356678Y-84678D02*
Y-72178D01*
Y-84678D02*
X358846Y-86846D01*
X356250Y-71750D02*
X356678Y-72178D01*
X355993Y-58049D02*
X385444Y-87500D01*
X355993Y-55563D02*
X356056Y-55500D01*
X385444Y-87500D02*
X387500D01*
X392000Y-92000D01*
X355993Y-58049D02*
Y-55563D01*
X362250Y-224750D02*
Y-134250D01*
X344750Y-123821D02*
Y32500D01*
X349750Y-121750D02*
Y34571D01*
Y-121750D02*
X362250Y-134250D01*
X344750Y-123821D02*
X357250Y-136321D01*
Y-222679D02*
Y-136321D01*
X359865Y-122115D02*
X367250Y-129500D01*
X360250Y-113750D02*
X360922D01*
X359865Y-122115D02*
Y-121885D01*
X372500Y-269937D02*
Y-125328D01*
X360922Y-113750D02*
X372500Y-125328D01*
X341750Y-245250D02*
X362250Y-224750D01*
X356056Y-48194D02*
X356250Y-48000D01*
X342821Y41500D02*
X349750Y34571D01*
X356056Y-55500D02*
Y-48194D01*
X340750Y36500D02*
X344750Y32500D01*
X367250Y-330500D02*
Y-129500D01*
X336750Y-243179D02*
X357250Y-222679D01*
X341750Y-256000D02*
Y-245250D01*
X336750Y-243250D02*
Y-243179D01*
X324000Y-256000D02*
X336750Y-243250D01*
X372500Y-269937D02*
X392000Y-289437D01*
X367250Y-330500D02*
X392000Y-355250D01*
X290550Y36500D02*
X340750D01*
X287250Y41500D02*
X342821D01*
X267093Y23693D02*
X277743D01*
X290550Y36500D01*
X265000Y21600D02*
X267093Y23693D01*
X265000Y34300D02*
X280050D01*
X287250Y41500D01*
X377500Y-209125D02*
Y-113500D01*
X174500Y-199808D02*
Y-167500D01*
X164250Y-157250D02*
X174500Y-167500D01*
X190500Y-194500D02*
Y-121750D01*
X193507Y-118743D01*
X101243Y-207507D02*
Y-199757D01*
X130250Y-170750D02*
Y-157250D01*
X100250Y-208500D02*
X101243Y-207507D01*
Y-199757D02*
X130250Y-170750D01*
X101500Y-110750D02*
Y-10500D01*
X64493Y-131042D02*
X81208D01*
X101500Y-110750D01*
X8000Y-72000D02*
X12500Y-76500D01*
X86250Y-98750D02*
X96500Y-88500D01*
X72250Y-98750D02*
X86250D01*
X62250Y-88750D02*
X72250Y-98750D01*
X96500Y-88500D02*
Y-8000D01*
X101500Y-10500D02*
X108200Y-3800D01*
X135000D01*
X113400Y8900D02*
X135000D01*
X116686Y19257D02*
X132657D01*
X91500Y-82750D02*
Y-5929D01*
X96500Y-8000D02*
X113400Y8900D01*
X91500Y-5929D02*
X116686Y19257D01*
X61500Y6500D02*
X76000Y21000D01*
X61500Y-62071D02*
Y6500D01*
Y-62071D02*
X62250Y-62821D01*
Y-72750D02*
Y-62821D01*
X66500Y-60000D02*
X79250Y-72750D01*
X66500Y-60000D02*
Y-28500D01*
X76000Y-19000D01*
X79250Y-88750D02*
X80743Y-87257D01*
X86993D01*
X91500Y-82750D01*
X12500Y-79050D02*
X64493Y-131042D01*
Y-139007D02*
Y-131042D01*
X12500Y-79050D02*
Y-76500D01*
X62250Y-141250D02*
X64493Y-139007D01*
X113250Y-157250D02*
X130250D01*
X96250D02*
X113250D01*
X79250D02*
X96250D01*
X62250D02*
X79250D01*
X16743Y-137993D02*
X49250Y-170500D01*
X8000Y-137812D02*
X8180Y-137993D01*
X49250Y-170500D02*
X95942D01*
X8180Y-137993D02*
X16743D01*
X8000Y-203625D02*
X12500Y-199125D01*
X20250Y-189750D02*
Y-189750D01*
X12500Y-197500D02*
X20250Y-189750D01*
X12500Y-199125D02*
Y-197500D01*
X20250Y-189750D02*
X33346Y-176654D01*
X104945Y-187000D02*
X121244Y-170701D01*
X37142Y-187000D02*
X104945D01*
X30250Y-193892D02*
X37142Y-187000D01*
X35071Y-182000D02*
X101299D01*
X112599Y-170701D01*
X25250Y-191821D02*
X35071Y-182000D01*
X25250Y-232000D02*
Y-191821D01*
X8000Y-249250D02*
X25250Y-232000D01*
X33346Y-176654D02*
X98000D01*
X8000Y-269437D02*
Y-249250D01*
X98000Y-176654D02*
X103953Y-170701D01*
X121244D02*
Y-170154D01*
X112599Y-170701D02*
Y-170154D01*
X103953Y-170701D02*
Y-170154D01*
X121244Y-128454D02*
X121500Y-128198D01*
X120479Y-128500D02*
X121819Y-129840D01*
X103772Y-129170D02*
X104346Y-128596D01*
X94926Y-128824D02*
X95500Y-128250D01*
X8000Y-137812D02*
X12500Y-133312D01*
X30250Y-294500D02*
Y-193892D01*
X79250Y-141250D02*
X91676Y-128824D01*
X94926D01*
X96250Y-141250D02*
X103772Y-133728D01*
Y-129170D01*
X113250Y-128750D02*
X113824Y-128176D01*
Y-125997D01*
X116500Y-123321D01*
Y-62000D01*
X121500Y-128198D02*
Y-73550D01*
X120000Y-128500D02*
X120479D01*
X113250Y-141250D02*
Y-128750D01*
X121819Y-132818D02*
Y-129840D01*
Y-132818D02*
X130250Y-141250D01*
X100250Y-208500D02*
X104750Y-213000D01*
X106500Y-50450D02*
X124250Y-32700D01*
X111500Y-54500D02*
X122257Y-43743D01*
X133157D01*
X135000Y-41900D01*
X129250Y-112000D02*
Y-83500D01*
X147250Y-141250D02*
Y-130000D01*
X129250Y-112000D02*
X147250Y-130000D01*
Y-141250D02*
X164250D01*
X8000Y-316750D02*
X30250Y-294500D01*
X116500Y-62000D02*
X122257Y-56243D01*
X127182D01*
X128432Y-54993D01*
X121500Y-73550D02*
X124250Y-70800D01*
X132750Y-80000D02*
X135000D01*
X129250Y-83500D02*
X132750Y-80000D01*
X124250Y-70800D02*
X131500D01*
X135000Y-67300D01*
X163500Y-220000D02*
X181000Y-202500D01*
Y-106000D01*
X165571Y-225000D02*
X180571Y-210000D01*
X116750Y-225000D02*
X165571D01*
X180571Y-210000D02*
X198250D01*
X131750Y-220000D02*
X163500D01*
X198250Y-210000D02*
X199500Y-208750D01*
X120250Y-208500D02*
X131750Y-220000D01*
X104750Y-213000D02*
X116750Y-225000D01*
X104750Y-213000D02*
X104750D01*
X194887Y-226637D02*
X200437D01*
X184750Y-216500D02*
X194887Y-226637D01*
X200437D02*
X210000Y-236200D01*
X281750Y-156929D02*
Y-84250D01*
X240429Y-198250D02*
X281750Y-156929D01*
X239500Y-208750D02*
X240429Y-207821D01*
Y-198250D01*
X259500Y-186250D02*
X288500Y-157250D01*
X259500Y-208750D02*
Y-186250D01*
X288500Y-157250D02*
Y-80824D01*
X279500Y-174179D02*
X293500Y-160179D01*
X279500Y-208750D02*
Y-174179D01*
X293500Y-160179D02*
Y-76750D01*
X290000Y-211685D02*
Y-170750D01*
X334500Y-126250D01*
X272435Y-229250D02*
X290000Y-211685D01*
X220000Y-229250D02*
X272435D01*
X210000Y-278000D02*
Y-236200D01*
X124250Y-32700D02*
X131500D01*
X135000Y-29200D01*
X382500Y-148313D02*
X392000Y-157812D01*
X377500Y-209125D02*
X392000Y-223625D01*
X318500Y-38000D02*
X322000Y-41500D01*
X282142Y-16500D02*
X303642Y-38000D01*
X265000Y-16500D02*
X282142D01*
X287771Y-29200D02*
X313500Y-54929D01*
Y-55062D02*
X316818Y-58381D01*
X265000Y-29200D02*
X287771D01*
X313500Y-55062D02*
Y-54929D01*
X303642Y-38000D02*
X318500D01*
X193507Y-106193D02*
X193700Y-106000D01*
X193507Y-118743D02*
Y-106193D01*
X301250Y-412500D02*
Y-396500D01*
Y-412500D02*
X311250Y-422500D01*
X276750Y-385500D02*
X290250D01*
X301250Y-396500D01*
X269861Y-383889D02*
Y-366446D01*
X256750Y-397000D02*
X269861Y-383889D01*
X256750Y-412000D02*
Y-397000D01*
X318500Y-104187D02*
X322000Y-107688D01*
X303500Y-89187D02*
X318500Y-104187D01*
X281750Y-46279D02*
X282562D01*
X281471D02*
X281750D01*
X233750Y-10000D02*
X243850D01*
X318500Y-82125D02*
X322000Y-85625D01*
X308500Y-72125D02*
X318500Y-82125D01*
X281250Y-37500D02*
X281803Y-38053D01*
X281750Y-65000D02*
X293500Y-76750D01*
X282522Y-74846D02*
X288500Y-80824D01*
X281750Y-74846D02*
X282522D01*
X298500Y-99137D02*
X314539Y-115176D01*
X284195Y-47779D02*
X303500Y-67083D01*
Y-89187D02*
Y-67083D01*
X285670Y-56324D02*
X298500Y-69154D01*
Y-99137D02*
Y-69154D01*
X308500Y-72125D02*
Y-60750D01*
X285803Y-38053D02*
X308500Y-60750D01*
X281803Y-38053D02*
X285803D01*
X282562Y-46279D02*
X284062Y-47779D01*
X284195D01*
X282324Y-56324D02*
X285670D01*
X281750Y-55750D02*
X282324Y-56324D01*
X317750Y-125500D02*
Y-115750D01*
Y-125500D02*
X318500Y-126250D01*
X317176Y-115176D02*
X317750Y-115750D01*
X314539Y-115176D02*
X317176D01*
X322000Y-110250D02*
X326500Y-114750D01*
X322000Y-110250D02*
Y-107688D01*
Y-87887D02*
Y-85625D01*
Y-87887D02*
X326239Y-92125D01*
X318500Y-60062D02*
X322000Y-63562D01*
Y-65563D02*
Y-63562D01*
Y-65563D02*
X326969Y-70531D01*
X322000Y-43500D02*
X326500Y-48000D01*
X322000Y-43500D02*
Y-41500D01*
X243950Y-61000D02*
X244000Y-60950D01*
X233000Y-61000D02*
X243950D01*
X233750Y-47750D02*
X243500D01*
X244000Y-48250D01*
X242700Y-34250D02*
X244000Y-35550D01*
X232750Y-34250D02*
X242700D01*
X311250Y-422500D02*
X329250D01*
X185000Y-295200D02*
X209750D01*
X237750Y-342250D02*
X238346D01*
X240846Y-339750D01*
Y-331404D01*
X260000Y-351500D02*
X262432Y-353932D01*
X270250Y-357250D02*
X291500D01*
X266932Y-353932D02*
X270250Y-357250D01*
X262432Y-353932D02*
X266932D01*
X269861Y-366446D02*
X274058Y-362250D01*
X293750D01*
X291500Y-357250D02*
X298750Y-350000D01*
X293750Y-362250D02*
X299000Y-357000D01*
X273550Y-349500D02*
X288500D01*
X310757Y-334493D02*
X311250Y-334000D01*
X303507Y-334493D02*
X310757D01*
X288500Y-349500D02*
X303507Y-334493D01*
X311250Y-334000D02*
X328750D01*
X298750Y-350000D02*
X311250D01*
X299000Y-357000D02*
X327750D01*
X329750Y-355000D02*
Y-345000D01*
X327750Y-357000D02*
X329750Y-355000D01*
X320750Y-362000D02*
X329250Y-370500D01*
X304500Y-362000D02*
X320750D01*
X297750Y-368750D02*
X304500Y-362000D01*
X254091Y-369471D02*
X254812Y-368750D01*
X253279Y-369471D02*
X254091D01*
X209029Y-316942D02*
X209750Y-316221D01*
X209029Y-325221D02*
Y-316942D01*
X276750Y-377500D02*
X297500D01*
X303507Y-371493D01*
X276750Y-368750D02*
X297750D01*
X254812D02*
X263000D01*
X209750Y-316221D02*
Y-295200D01*
X219200D01*
X201867Y-315883D02*
X202275D01*
X197150Y-320600D02*
X201867Y-315883D01*
X185000Y-320600D02*
X197150D01*
X310257Y-371493D02*
X311250Y-370500D01*
X303507Y-371493D02*
X310257D01*
X263500Y-339450D02*
X273550Y-349500D01*
X217750Y-332750D02*
X220000Y-330500D01*
Y-312000D01*
X219200Y-295200D02*
X220000Y-296000D01*
Y-312000D02*
X238250D01*
X238250Y-312000D01*
X263500Y-339450D02*
Y-335000D01*
X261000Y-332500D02*
X263500Y-335000D01*
X255500Y-413250D02*
X256750Y-412000D01*
X260000Y-332500D02*
X261000D01*
X329250Y-406500D02*
Y-386500D01*
X311250Y-406500D02*
Y-386500D01*
X185000Y-307900D02*
X201750D01*
X333700Y-125450D02*
X334500Y-126250D01*
X233750Y-22500D02*
X243650D01*
X244000Y-22850D01*
X233750Y1750D02*
X243200D01*
X244000Y2550D01*
X297771Y-3800D02*
X320693Y19122D01*
Y25943D02*
X321000Y26250D01*
X320693Y19122D02*
Y25943D01*
X303400Y8900D02*
X308300Y13800D01*
Y26250D01*
X264600Y-3800D02*
X297771D01*
X264600Y8900D02*
X303400D01*
X132657Y19257D02*
X135000Y21600D01*
X8000Y-335250D02*
Y-316750D01*
X341750Y-289750D02*
Y-272000D01*
X324000Y-289750D02*
Y-272000D01*
D41*
X199500Y-208750D02*
Y-144900D01*
X203500Y-140900D01*
X220000Y-260750D02*
Y-229250D01*
X199500Y-208750D02*
X220000Y-229250D01*
X206400Y-128000D02*
Y-106000D01*
Y-138000D02*
Y-128000D01*
X231900Y-127900D02*
Y-106100D01*
X231800Y-106000D02*
X231900Y-106100D01*
Y-127900D02*
X232000Y-128000D01*
X203500Y-140900D02*
Y-140500D01*
X206000Y-138000D02*
X206400D01*
X203500Y-140500D02*
X206000Y-138000D01*
X242250Y-368250D02*
X259000Y-351500D01*
X241500Y-368250D02*
X242250D01*
X241000Y-368750D02*
X241500Y-368250D01*
X259000Y-351500D02*
X260000D01*
X227500Y-368250D02*
Y-360500D01*
X217750Y-351750D02*
X218750D01*
X227500Y-360500D01*
Y-368250D02*
X228000Y-368750D01*
X241000D01*
D42*
X214500Y-427500D02*
X263000Y-379000D01*
Y-368750D01*
X124000Y-413000D02*
Y-356000D01*
X202000Y-342250D02*
Y-336815D01*
X198485Y-333300D02*
X202000Y-336815D01*
X185000Y-333300D02*
X198485D01*
X280000Y-309500D02*
X285000Y-304500D01*
X280000Y-342000D02*
Y-309500D01*
X295250Y-304500D02*
X302652Y-297098D01*
Y-282750D01*
X285000Y-304500D02*
X295250D01*
X130950Y-307850D02*
X131000Y-307900D01*
X102250Y-306000D02*
X104100Y-307850D01*
X130950D01*
X220000Y-276750D02*
X238000D01*
X244500Y-283250D02*
X261500D01*
X238000Y-276750D02*
X244500Y-283250D01*
X286000Y-282750D02*
X302652D01*
Y-269152D01*
X285500Y-283250D02*
X286000Y-282750D01*
X297750Y-264250D02*
X302652Y-269152D01*
X285500Y-264250D02*
X297750D01*
X124000Y-413000D02*
X127000Y-416000D01*
X133250Y-427500D02*
X214500D01*
X127000Y-421250D02*
X133250Y-427500D01*
X127000Y-421250D02*
Y-416000D01*
X197750Y-360500D02*
X202000Y-356250D01*
X192000Y-366250D02*
X197750Y-360500D01*
X206000Y-368750D01*
X202000Y-356250D02*
Y-342250D01*
X191750Y-366250D02*
X192000D01*
X190000Y-368000D02*
X191750Y-366250D01*
X190000Y-413000D02*
Y-368000D01*
X202000Y-342250D02*
X237750D01*
X202000Y-342250D02*
X202000Y-342250D01*
X118250Y-350250D02*
X124000Y-356000D01*
X121765Y-333350D02*
X130950D01*
X118250Y-336865D02*
X121765Y-333350D01*
X130950D02*
X131000Y-333300D01*
X118250Y-350250D02*
Y-336865D01*
D43*
X8000Y-72000D02*
D03*
X76000Y21000D02*
D03*
X392000Y-92000D02*
D03*
Y-157812D02*
D03*
X8000Y-137812D02*
D03*
X392000Y-223625D02*
D03*
X8000Y-203625D02*
D03*
X392000Y-289437D02*
D03*
X8000Y-269437D02*
D03*
X392000Y-355250D02*
D03*
X8000Y-335250D02*
D03*
D44*
Y-92000D02*
D03*
X76000Y-19000D02*
D03*
Y1000D02*
D03*
Y-39000D02*
D03*
X275500Y-413250D02*
D03*
X210000Y-413000D02*
D03*
X144000D02*
D03*
X299500Y-208750D02*
D03*
X279500D02*
D03*
X259500D02*
D03*
X219500D02*
D03*
X239500D02*
D03*
X140250Y-208500D02*
D03*
X120250D02*
D03*
X392000Y-72000D02*
D03*
Y-137812D02*
D03*
X8000Y-157812D02*
D03*
X392000Y-203625D02*
D03*
X8000Y-223625D02*
D03*
X392000Y-269437D02*
D03*
X8000Y-289437D02*
D03*
X392000Y-335250D02*
D03*
X8000Y-355250D02*
D03*
D45*
X349000Y-437000D02*
D03*
X-17000Y61000D02*
D03*
X321000Y26250D02*
D03*
X295600D02*
D03*
X308300D02*
D03*
D46*
X255500Y-413250D02*
D03*
X190000Y-413000D02*
D03*
X124000D02*
D03*
X199500Y-208750D02*
D03*
X100250Y-208500D02*
D03*
D47*
X0Y-420000D02*
D03*
X400000D02*
D03*
Y0D02*
D03*
X0D02*
D03*
D48*
X21408Y-252934D02*
D03*
X20408Y-287934D02*
D03*
X362908Y32566D02*
D03*
X305408Y-25934D02*
D03*
X109408Y-33684D02*
D03*
X80408Y-55184D02*
D03*
X54158Y-52934D02*
D03*
X-11092Y-90684D02*
D03*
X11658Y-105434D02*
D03*
X39908Y-130684D02*
D03*
X45658Y-95184D02*
D03*
X73908Y-120434D02*
D03*
X90658Y-104684D02*
D03*
X132158Y-127684D02*
D03*
X50158Y-156434D02*
D03*
X6408Y-191184D02*
D03*
X30908Y-165684D02*
D03*
X44408Y-198684D02*
D03*
X87908Y-196434D02*
D03*
X129408Y-193434D02*
D03*
X158158Y-208684D02*
D03*
X229158Y-195934D02*
D03*
X236658Y-221684D02*
D03*
X265408Y-221184D02*
D03*
X270158Y-192684D02*
D03*
X304158Y-190184D02*
D03*
X356250Y-93346D02*
D03*
Y-71750D02*
D03*
X359865Y-121885D02*
D03*
X360250Y-113750D02*
D03*
X356250Y-48000D02*
D03*
X350750Y-180750D02*
D03*
X284000Y17750D02*
D03*
X190500Y-194500D02*
D03*
X95308Y-170154D02*
D03*
X103953D02*
D03*
X112599D02*
D03*
X121244D02*
D03*
X103953Y-128250D02*
D03*
X95308D02*
D03*
X112599D02*
D03*
X121244D02*
D03*
X46250Y-277500D02*
D03*
X44750Y-223500D02*
D03*
X174500Y-199808D02*
D03*
X172757Y-227007D02*
D03*
X152616Y-231500D02*
D03*
X184750Y-216500D02*
D03*
X27846Y-73096D02*
D03*
X128750Y-252000D02*
D03*
X170500Y-258750D02*
D03*
X64250Y-383250D02*
D03*
X88250Y-343750D02*
D03*
X157750Y-278500D02*
D03*
X130000Y-346000D02*
D03*
X159000Y-345750D02*
D03*
X186250Y-349250D02*
D03*
X156250Y-361750D02*
D03*
X142250Y-389250D02*
D03*
X164500Y-408625D02*
D03*
X201500Y-381750D02*
D03*
X241000Y-382000D02*
D03*
X217500Y-401500D02*
D03*
X239250Y-420000D02*
D03*
X274250Y-396250D02*
D03*
X289750Y-428250D02*
D03*
X350500Y-413250D02*
D03*
X350750Y-375000D02*
D03*
X349000Y-342750D02*
D03*
X306000Y-315250D02*
D03*
X289750Y-327000D02*
D03*
X270000Y-322000D02*
D03*
X250750Y-318500D02*
D03*
X252750Y-293750D02*
D03*
X285500Y-294000D02*
D03*
X272000Y-273750D02*
D03*
X250000D02*
D03*
X257000Y-247500D02*
D03*
X311500Y-238250D02*
D03*
X335500Y-192000D02*
D03*
X349000Y-141250D02*
D03*
X319750Y-157250D02*
D03*
X304750Y-127250D02*
D03*
X250000Y-200250D02*
D03*
X149750Y-176000D02*
D03*
X168500Y-124000D02*
D03*
X144250Y-93000D02*
D03*
X97000Y-224250D02*
D03*
X191500Y-232500D02*
D03*
X190000Y-279250D02*
D03*
X125750Y-273750D02*
D03*
X165500Y-326250D02*
D03*
X150000D02*
D03*
X165000Y-314250D02*
D03*
X150250Y-314000D02*
D03*
X165500Y-302000D02*
D03*
X149500Y-301500D02*
D03*
X83750Y-257000D02*
D03*
X83500Y-313250D02*
D03*
X89500Y-372000D02*
D03*
X84500Y-413750D02*
D03*
X40750Y-396000D02*
D03*
X30000Y-362500D02*
D03*
X46250Y-326750D02*
D03*
X-4500Y-216000D02*
D03*
X2000Y-173250D02*
D03*
X44750Y-27000D02*
D03*
X6500Y-37500D02*
D03*
X-29500Y-55500D02*
D03*
X-28250Y-124250D02*
D03*
X-27250Y-184250D02*
D03*
X-31000Y-266000D02*
D03*
X-28750Y-328750D02*
D03*
X-31750Y-387500D02*
D03*
X47000Y-445500D02*
D03*
X94500Y-443500D02*
D03*
X169750Y-441500D02*
D03*
X240000Y-445500D02*
D03*
X323771Y-442932D02*
D03*
X384250Y-384750D02*
D03*
X426000Y-369500D02*
D03*
X376500Y-312000D02*
D03*
X426500Y-307250D02*
D03*
X407250Y-280750D02*
D03*
X428000Y-240000D02*
D03*
X390250Y-239500D02*
D03*
X430500Y-190000D02*
D03*
X395250Y-172500D02*
D03*
X426500Y-119000D02*
D03*
X429250Y-156500D02*
D03*
X432500Y-79000D02*
D03*
X395000Y-110000D02*
D03*
X418250Y-42500D02*
D03*
X361750Y-37500D02*
D03*
X431000Y32000D02*
D03*
X393000Y38500D02*
D03*
X305250Y-9750D02*
D03*
X323000Y-18250D02*
D03*
X324250Y7250D02*
D03*
X184750Y-11750D02*
D03*
X161000Y-47250D02*
D03*
X184000Y-37750D02*
D03*
X215000Y-39000D02*
D03*
X212250Y750D02*
D03*
X165000Y5000D02*
D03*
X217000Y32250D02*
D03*
X185250Y31500D02*
D03*
X156250Y30000D02*
D03*
X-29750Y37250D02*
D03*
X-8250Y36750D02*
D03*
X12250Y37500D02*
D03*
X36174Y37176D02*
D03*
X58250Y38250D02*
D03*
X84500Y38000D02*
D03*
X112000Y37500D02*
D03*
X114500Y25750D02*
D03*
X96000Y11250D02*
D03*
X154250Y-17500D02*
D03*
X116500Y-15750D02*
D03*
X157000Y-65000D02*
D03*
X183250Y-71750D02*
D03*
X215250D02*
D03*
X245750Y-73000D02*
D03*
X243500Y-169750D02*
D03*
X268750Y-147750D02*
D03*
X273188Y-124438D02*
D03*
X270881Y-94102D02*
D03*
X260500Y-100000D02*
D03*
X252500Y-125750D02*
D03*
X243750Y-142250D02*
D03*
X225250Y-176000D02*
D03*
X226750Y-155000D02*
D03*
X210500Y-155250D02*
D03*
X276750Y-385500D02*
D03*
X281750Y-46279D02*
D03*
Y-84250D02*
D03*
Y-65000D02*
D03*
Y-55750D02*
D03*
X317750Y-115750D02*
D03*
X326500Y-114750D02*
D03*
X326239Y-92750D02*
D03*
X326969Y-71000D02*
D03*
X326500Y-48000D02*
D03*
X233750Y-61000D02*
D03*
X281750Y-74846D02*
D03*
X233750Y-47750D02*
D03*
Y-34250D02*
D03*
X210000Y-278000D02*
D03*
X232000Y-128000D02*
D03*
X206400D02*
D03*
X240846Y-331404D02*
D03*
X209029Y-325221D02*
D03*
X253279Y-369471D02*
D03*
X276750Y-377500D02*
D03*
Y-368750D02*
D03*
X202275Y-315883D02*
D03*
X201750Y-307900D02*
D03*
X233750Y-22500D02*
D03*
Y-10000D02*
D03*
X281750Y-37500D02*
D03*
X233750Y1750D02*
D03*
M02*
