G04*
G04 #@! TF.GenerationSoftware,Altium Limited,Altium Designer,21.8.1 (53)*
G04*
G04 Layer_Color=16711935*
%FSLAX44Y44*%
%MOMM*%
G71*
G04*
G04 #@! TF.SameCoordinates,E292F7DC-635B-41A5-9E53-70443CF81A2D*
G04*
G04*
G04 #@! TF.FilePolarity,Negative*
G04*
G01*
G75*
%ADD15R,1.1000X1.1000*%
%ADD25R,1.3000X1.3000*%
%ADD26C,1.3000*%
%ADD27C,3.0000*%
%ADD28R,1.3000X1.3000*%
%ADD29O,7.3000X5.3000*%
%ADD30C,1.1000*%
D15*
X333700Y26250D02*
D03*
D25*
X8000Y-72000D02*
D03*
X76000Y21000D02*
D03*
X392000Y-92000D02*
D03*
Y-157812D02*
D03*
X8000Y-137812D02*
D03*
X392000Y-223625D02*
D03*
X8000Y-203625D02*
D03*
X392000Y-289437D02*
D03*
X8000Y-269437D02*
D03*
X392000Y-355250D02*
D03*
X8000Y-335250D02*
D03*
D26*
Y-92000D02*
D03*
X76000Y-19000D02*
D03*
Y1000D02*
D03*
Y-39000D02*
D03*
X275500Y-413250D02*
D03*
X210000Y-413000D02*
D03*
X144000D02*
D03*
X299500Y-208750D02*
D03*
X279500D02*
D03*
X259500D02*
D03*
X219500D02*
D03*
X239500D02*
D03*
X140250Y-208500D02*
D03*
X120250D02*
D03*
X392000Y-72000D02*
D03*
Y-137812D02*
D03*
X8000Y-157812D02*
D03*
X392000Y-203625D02*
D03*
X8000Y-223625D02*
D03*
X392000Y-269437D02*
D03*
X8000Y-289437D02*
D03*
X392000Y-335250D02*
D03*
X8000Y-355250D02*
D03*
D27*
X349000Y-437000D02*
D03*
X-17000Y61000D02*
D03*
D28*
X255500Y-413250D02*
D03*
X190000Y-413000D02*
D03*
X124000D02*
D03*
X199500Y-208750D02*
D03*
X100250Y-208500D02*
D03*
D29*
X0Y-420000D02*
D03*
X400000D02*
D03*
Y0D02*
D03*
X0D02*
D03*
D30*
X321000Y26250D02*
D03*
X295600D02*
D03*
X308300D02*
D03*
M02*
