G04*
G04 #@! TF.GenerationSoftware,Altium Limited,Altium Designer,21.8.1 (53)*
G04*
G04 Layer_Physical_Order=2*
G04 Layer_Color=16711680*
%FSLAX44Y44*%
%MOMM*%
G71*
G04*
G04 #@! TF.SameCoordinates,E292F7DC-635B-41A5-9E53-70443CF81A2D*
G04*
G04*
G04 #@! TF.FilePolarity,Positive*
G04*
G01*
G75*
%ADD21R,1.0000X1.0000*%
%ADD40C,0.3000*%
%ADD41C,0.5000*%
%ADD43R,1.2000X1.2000*%
%ADD44C,1.2000*%
%ADD45C,1.0000*%
%ADD46R,1.2000X1.2000*%
%ADD47O,7.2000X5.2000*%
%ADD48C,0.6000*%
G36*
X436941Y11444D02*
X435671Y11192D01*
X435025Y12751D01*
X432723Y16509D01*
X429860Y19860D01*
X426509Y22722D01*
X422751Y25025D01*
X418679Y26712D01*
X414394Y27741D01*
X410000Y28087D01*
X401500D01*
Y0D01*
Y-28087D01*
X410000D01*
X414394Y-27741D01*
X418679Y-26712D01*
X422751Y-25025D01*
X426509Y-22722D01*
X429860Y-19860D01*
X432723Y-16509D01*
X435025Y-12751D01*
X435671Y-11192D01*
X436941Y-11444D01*
Y-408556D01*
X435671Y-408808D01*
X435025Y-407249D01*
X432723Y-403491D01*
X429860Y-400140D01*
X426509Y-397277D01*
X422751Y-394975D01*
X418679Y-393288D01*
X414394Y-392259D01*
X410000Y-391913D01*
X401500D01*
Y-420000D01*
Y-448087D01*
X410000D01*
X414394Y-447741D01*
X418679Y-446712D01*
X422751Y-445025D01*
X426509Y-442723D01*
X429860Y-439860D01*
X432723Y-436509D01*
X433821Y-434716D01*
X434956Y-435294D01*
X434062Y-437454D01*
X431884Y-441008D01*
X429177Y-444177D01*
X426008Y-446884D01*
X422454Y-449062D01*
X418603Y-450657D01*
X414550Y-451630D01*
X410595Y-451941D01*
X410194D01*
X410076Y-451932D01*
X410076Y-451941D01*
X355444D01*
X355192Y-450671D01*
X356105Y-450293D01*
X358562Y-448651D01*
X360651Y-446562D01*
X362293Y-444105D01*
X363424Y-441375D01*
X364000Y-438477D01*
Y-435523D01*
X363424Y-432625D01*
X362293Y-429895D01*
X360651Y-427438D01*
X358562Y-425349D01*
X356105Y-423707D01*
X353375Y-422576D01*
X350477Y-422000D01*
X347523D01*
X344625Y-422576D01*
X341895Y-423707D01*
X339438Y-425349D01*
X337349Y-427438D01*
X335707Y-429895D01*
X334576Y-432625D01*
X334000Y-435523D01*
Y-438477D01*
X334576Y-441375D01*
X335707Y-444105D01*
X337349Y-446562D01*
X339438Y-448651D01*
X341895Y-450293D01*
X342808Y-450671D01*
X342556Y-451941D01*
X-8777D01*
X-10037Y-451932D01*
X-11282Y-451884D01*
X-14511Y-451630D01*
X-18564Y-450657D01*
X-22415Y-449062D01*
X-25969Y-446884D01*
X-29138Y-444177D01*
X-31845Y-441008D01*
X-34023Y-437454D01*
X-34836Y-435491D01*
X-33701Y-434912D01*
X-32722Y-436509D01*
X-29860Y-439860D01*
X-26509Y-442723D01*
X-22751Y-445025D01*
X-18679Y-446712D01*
X-14394Y-447741D01*
X-10000Y-448087D01*
X-1500D01*
Y-420000D01*
Y-391913D01*
X-10000D01*
X-14394Y-392259D01*
X-18679Y-393288D01*
X-22751Y-394975D01*
X-26509Y-397277D01*
X-29860Y-400140D01*
X-32722Y-403491D01*
X-35025Y-407249D01*
X-35671Y-408808D01*
X-36941Y-408556D01*
Y-11444D01*
X-35671Y-11192D01*
X-35025Y-12751D01*
X-32722Y-16509D01*
X-29860Y-19860D01*
X-26509Y-22722D01*
X-22751Y-25025D01*
X-18679Y-26712D01*
X-14394Y-27741D01*
X-10000Y-28087D01*
X-1500D01*
Y0D01*
Y28087D01*
X-10000D01*
X-14394Y27741D01*
X-18679Y26712D01*
X-22751Y25025D01*
X-26509Y22722D01*
X-29860Y19860D01*
X-32722Y16509D01*
X-35025Y12751D01*
X-35671Y11192D01*
X-36941Y11444D01*
Y43750D01*
X436941D01*
Y11444D01*
D02*
G37*
%LPC*%
G36*
X340700Y33250D02*
X326700D01*
Y32246D01*
X325430Y31720D01*
X325298Y31851D01*
X323702Y32773D01*
X321922Y33250D01*
X320078D01*
X318298Y32773D01*
X316702Y31851D01*
X315399Y30548D01*
X315285Y30351D01*
X314015D01*
X313901Y30548D01*
X312598Y31851D01*
X311002Y32773D01*
X309222Y33250D01*
X307378D01*
X305598Y32773D01*
X304002Y31851D01*
X302699Y30548D01*
X302585Y30351D01*
X301315D01*
X301201Y30548D01*
X299898Y31851D01*
X298302Y32773D01*
X297100Y33095D01*
Y26250D01*
X295600D01*
D01*
X297100D01*
Y19405D01*
X298302Y19727D01*
X299898Y20649D01*
X301201Y21952D01*
X301315Y22149D01*
X302585D01*
X302699Y21952D01*
X304002Y20649D01*
X305598Y19727D01*
X307378Y19250D01*
X309222D01*
X311002Y19727D01*
X312598Y20649D01*
X313901Y21952D01*
X314015Y22149D01*
X315285D01*
X315399Y21952D01*
X316702Y20649D01*
X318298Y19727D01*
X320078Y19250D01*
X321922D01*
X323702Y19727D01*
X325298Y20649D01*
X325430Y20781D01*
X326700Y20254D01*
Y19250D01*
X340700D01*
Y33250D01*
D02*
G37*
G36*
X294100Y33095D02*
X292898Y32773D01*
X291302Y31851D01*
X289999Y30548D01*
X289077Y28952D01*
X288755Y27750D01*
X294100D01*
Y33095D01*
D02*
G37*
G36*
Y24750D02*
X288755D01*
X289077Y23548D01*
X289999Y21952D01*
X291302Y20649D01*
X292898Y19727D01*
X294100Y19405D01*
Y24750D01*
D02*
G37*
G36*
X84000Y29000D02*
X68000D01*
Y13000D01*
X84000D01*
Y29000D01*
D02*
G37*
G36*
X77500Y8880D02*
Y2500D01*
X83880D01*
X83455Y4088D01*
X82402Y5912D01*
X80912Y7402D01*
X79088Y8455D01*
X77500Y8880D01*
D02*
G37*
G36*
X74500Y8880D02*
X72912Y8455D01*
X71088Y7402D01*
X69598Y5912D01*
X68545Y4088D01*
X68120Y2500D01*
X74500D01*
Y8880D01*
D02*
G37*
G36*
X10000Y28087D02*
X1500D01*
Y1500D01*
X37968D01*
X37741Y4394D01*
X36712Y8679D01*
X35025Y12751D01*
X32722Y16509D01*
X29860Y19860D01*
X26509Y22722D01*
X22751Y25025D01*
X18679Y26712D01*
X14394Y27741D01*
X10000Y28087D01*
D02*
G37*
G36*
X398500D02*
X390000D01*
X385606Y27741D01*
X381321Y26712D01*
X377249Y25025D01*
X373491Y22722D01*
X370140Y19860D01*
X367277Y16509D01*
X364975Y12751D01*
X363288Y8679D01*
X362259Y4394D01*
X362032Y1500D01*
X398500D01*
Y28087D01*
D02*
G37*
G36*
X234745Y6750D02*
X232755D01*
X230918Y5989D01*
X229511Y4582D01*
X228750Y2745D01*
Y755D01*
X229511Y-1082D01*
X230918Y-2489D01*
X232755Y-3250D01*
X234745D01*
X236582Y-2489D01*
X237253Y-1819D01*
X240522D01*
X243865Y-5161D01*
X243339Y-6431D01*
X237253D01*
X236582Y-5761D01*
X234745Y-5000D01*
X232755D01*
X230918Y-5761D01*
X229511Y-7168D01*
X228750Y-9005D01*
Y-10995D01*
X229511Y-12832D01*
X230918Y-14239D01*
X232755Y-15000D01*
X234745D01*
X236582Y-14239D01*
X237253Y-13569D01*
X243079D01*
X247269Y-17758D01*
X246783Y-18931D01*
X237253D01*
X236582Y-18261D01*
X234745Y-17500D01*
X232755D01*
X230918Y-18261D01*
X229511Y-19668D01*
X228750Y-21505D01*
Y-23495D01*
X229511Y-25332D01*
X230918Y-26739D01*
X232755Y-27500D01*
X234745D01*
X236582Y-26739D01*
X237253Y-26069D01*
X247022D01*
X250365Y-29411D01*
X249839Y-30681D01*
X237253D01*
X236582Y-30011D01*
X234745Y-29250D01*
X232755D01*
X230918Y-30011D01*
X229511Y-31418D01*
X228750Y-33255D01*
Y-35245D01*
X229511Y-37082D01*
X230918Y-38489D01*
X232755Y-39250D01*
X234745D01*
X236582Y-38489D01*
X237253Y-37819D01*
X249522D01*
X254660Y-42957D01*
X254458Y-43658D01*
X254089Y-44181D01*
X237253D01*
X236582Y-43511D01*
X234745Y-42750D01*
X232755D01*
X230918Y-43511D01*
X229511Y-44918D01*
X228750Y-46755D01*
Y-48745D01*
X229511Y-50582D01*
X230918Y-51989D01*
X232755Y-52750D01*
X234745D01*
X236582Y-51989D01*
X237253Y-51319D01*
X252829D01*
X257746Y-56235D01*
X257349Y-57192D01*
X257146Y-57431D01*
X237253D01*
X236582Y-56761D01*
X234745Y-56000D01*
X232755D01*
X230918Y-56761D01*
X229511Y-58168D01*
X228750Y-60005D01*
Y-61995D01*
X229511Y-63832D01*
X230918Y-65239D01*
X232755Y-66000D01*
X234745D01*
X236582Y-65239D01*
X237253Y-64569D01*
X255772D01*
X276964Y-85760D01*
X277511Y-87082D01*
X278918Y-88489D01*
X280755Y-89250D01*
X282745D01*
X284582Y-88489D01*
X285989Y-87082D01*
X286750Y-85245D01*
Y-83255D01*
X285989Y-81418D01*
X284899Y-80328D01*
X284700Y-79548D01*
X284899Y-78768D01*
X285989Y-77678D01*
X286750Y-75841D01*
Y-73852D01*
X285989Y-72014D01*
X284582Y-70607D01*
X284463Y-70558D01*
Y-69288D01*
X284582Y-69239D01*
X285989Y-67832D01*
X286750Y-65995D01*
Y-64005D01*
X285989Y-62168D01*
X285008Y-61187D01*
X284720Y-60375D01*
X285008Y-59563D01*
X285989Y-58582D01*
X286750Y-56745D01*
Y-54755D01*
X285989Y-52918D01*
X284852Y-51781D01*
X284688Y-51014D01*
X284852Y-50248D01*
X285989Y-49111D01*
X286750Y-47273D01*
Y-45284D01*
X285989Y-43446D01*
X285261Y-42719D01*
X284687Y-41889D01*
X285261Y-41060D01*
X285989Y-40332D01*
X286750Y-38495D01*
Y-36505D01*
X285989Y-34668D01*
X284582Y-33261D01*
X282745Y-32500D01*
X281297D01*
X244523Y4273D01*
X243366Y5047D01*
X242000Y5319D01*
X237253D01*
X236582Y5989D01*
X234745Y6750D01*
D02*
G37*
G36*
X83880Y-500D02*
X77500D01*
Y-6880D01*
X79088Y-6455D01*
X80912Y-5402D01*
X82402Y-3912D01*
X83455Y-2088D01*
X83880Y-500D01*
D02*
G37*
G36*
X74500D02*
X68120D01*
X68545Y-2088D01*
X69598Y-3912D01*
X71088Y-5402D01*
X72912Y-6455D01*
X74500Y-6880D01*
Y-500D01*
D02*
G37*
G36*
X77053Y-11000D02*
X74947D01*
X72912Y-11545D01*
X71088Y-12598D01*
X69598Y-14088D01*
X68545Y-15912D01*
X68000Y-17947D01*
Y-20053D01*
X68545Y-22088D01*
X69598Y-23912D01*
X71088Y-25402D01*
X72912Y-26455D01*
X74947Y-27000D01*
X77053D01*
X79088Y-26455D01*
X80912Y-25402D01*
X82402Y-23912D01*
X83455Y-22088D01*
X84000Y-20053D01*
Y-17947D01*
X83455Y-15912D01*
X82402Y-14088D01*
X80912Y-12598D01*
X79088Y-11545D01*
X77053Y-11000D01*
D02*
G37*
G36*
X398500Y-1500D02*
X362031D01*
X362259Y-4394D01*
X363288Y-8679D01*
X364975Y-12751D01*
X367277Y-16509D01*
X370140Y-19860D01*
X373491Y-22722D01*
X377249Y-25025D01*
X381321Y-26712D01*
X385606Y-27741D01*
X390000Y-28087D01*
X398500D01*
Y-1500D01*
D02*
G37*
G36*
X37969D02*
X1500D01*
Y-28087D01*
X10000D01*
X14394Y-27741D01*
X18679Y-26712D01*
X22751Y-25025D01*
X26509Y-22722D01*
X29860Y-19860D01*
X32722Y-16509D01*
X35025Y-12751D01*
X36712Y-8679D01*
X37741Y-4394D01*
X37969Y-1500D01*
D02*
G37*
G36*
X77500Y-31120D02*
Y-37500D01*
X83880D01*
X83455Y-35912D01*
X82402Y-34088D01*
X80912Y-32598D01*
X79088Y-31545D01*
X77500Y-31120D01*
D02*
G37*
G36*
X74500D02*
X72912Y-31545D01*
X71088Y-32598D01*
X69598Y-34088D01*
X68545Y-35912D01*
X68120Y-37500D01*
X74500D01*
Y-31120D01*
D02*
G37*
G36*
X357244Y-43000D02*
X355255D01*
X353418Y-43761D01*
X352747Y-44432D01*
X330003D01*
X329332Y-43761D01*
X327495Y-43000D01*
X325505D01*
X323668Y-43761D01*
X322261Y-45168D01*
X321500Y-47006D01*
Y-48995D01*
X322261Y-50832D01*
X323668Y-52239D01*
X325505Y-53000D01*
X327495D01*
X329332Y-52239D01*
X330003Y-51569D01*
X352747D01*
X353418Y-52239D01*
X355255Y-53000D01*
X357244D01*
X359082Y-52239D01*
X360489Y-50832D01*
X361250Y-48995D01*
Y-47005D01*
X360489Y-45168D01*
X359082Y-43761D01*
X357244Y-43000D01*
D02*
G37*
G36*
X83880Y-40500D02*
X77500D01*
Y-46880D01*
X79088Y-46455D01*
X80912Y-45402D01*
X82402Y-43912D01*
X83455Y-42088D01*
X83880Y-40500D01*
D02*
G37*
G36*
X74500D02*
X68120D01*
X68545Y-42088D01*
X69598Y-43912D01*
X71088Y-45402D01*
X72912Y-46455D01*
X74500Y-46880D01*
Y-40500D01*
D02*
G37*
G36*
X393500Y-64120D02*
Y-70500D01*
X399880D01*
X399455Y-68912D01*
X398402Y-67088D01*
X396912Y-65598D01*
X395088Y-64545D01*
X393500Y-64120D01*
D02*
G37*
G36*
X390500Y-64120D02*
X388912Y-64545D01*
X387088Y-65598D01*
X385598Y-67088D01*
X384545Y-68912D01*
X384120Y-70500D01*
X390500D01*
Y-64120D01*
D02*
G37*
G36*
X327963Y-66000D02*
X325974D01*
X324137Y-66761D01*
X322730Y-68168D01*
X321969Y-70005D01*
Y-71995D01*
X322730Y-73832D01*
X324137Y-75239D01*
X325974Y-76000D01*
X327963D01*
X329801Y-75239D01*
X330221Y-74819D01*
X344044D01*
X345134Y-75547D01*
X346500Y-75819D01*
X353247D01*
X353418Y-75989D01*
X355255Y-76750D01*
X357244D01*
X359082Y-75989D01*
X360489Y-74582D01*
X361250Y-72745D01*
Y-70755D01*
X360489Y-68918D01*
X359082Y-67511D01*
X357244Y-66750D01*
X355255D01*
X353418Y-67511D01*
X352248Y-68681D01*
X347956D01*
X346866Y-67953D01*
X345500Y-67681D01*
X330721D01*
X329801Y-66761D01*
X327963Y-66000D01*
D02*
G37*
G36*
X390500Y-73500D02*
X384120D01*
X384545Y-75088D01*
X385598Y-76912D01*
X387088Y-78402D01*
X388912Y-79455D01*
X390500Y-79880D01*
Y-73500D01*
D02*
G37*
G36*
X399880D02*
X393500D01*
Y-79880D01*
X395088Y-79455D01*
X396912Y-78402D01*
X398402Y-76912D01*
X399455Y-75088D01*
X399880Y-73500D01*
D02*
G37*
G36*
X16000Y-64000D02*
X0D01*
Y-80000D01*
X16000D01*
Y-64000D01*
D02*
G37*
G36*
X9500Y-84120D02*
Y-90500D01*
X15880D01*
X15455Y-88912D01*
X14402Y-87088D01*
X12912Y-85598D01*
X11088Y-84545D01*
X9500Y-84120D01*
D02*
G37*
G36*
X6500Y-84120D02*
X4912Y-84545D01*
X3088Y-85598D01*
X1598Y-87088D01*
X545Y-88912D01*
X120Y-90500D01*
X6500D01*
Y-84120D01*
D02*
G37*
G36*
X327233Y-87750D02*
X325244D01*
X323406Y-88511D01*
X322000Y-89918D01*
X321239Y-91755D01*
Y-93745D01*
X322000Y-95582D01*
X323406Y-96989D01*
X325244Y-97750D01*
X327233D01*
X329071Y-96989D01*
X329443Y-96617D01*
X352449D01*
X353418Y-97585D01*
X355255Y-98346D01*
X357244D01*
X359082Y-97585D01*
X360489Y-96178D01*
X361250Y-94341D01*
Y-92352D01*
X360489Y-90514D01*
X359082Y-89107D01*
X357244Y-88346D01*
X355255D01*
X353418Y-89107D01*
X353046Y-89480D01*
X330039D01*
X329071Y-88511D01*
X327233Y-87750D01*
D02*
G37*
G36*
X6500Y-93500D02*
X120D01*
X545Y-95088D01*
X1598Y-96912D01*
X3088Y-98402D01*
X4912Y-99455D01*
X6500Y-99880D01*
Y-93500D01*
D02*
G37*
G36*
X15880D02*
X9500D01*
Y-99880D01*
X11088Y-99455D01*
X12912Y-98402D01*
X14402Y-96912D01*
X15455Y-95088D01*
X15880Y-93500D01*
D02*
G37*
G36*
X400000Y-84000D02*
X384000D01*
Y-100000D01*
X400000D01*
Y-84000D01*
D02*
G37*
G36*
X361245Y-108750D02*
X359255D01*
X357418Y-109511D01*
X356011Y-110918D01*
X355902Y-111181D01*
X330003D01*
X329332Y-110511D01*
X327495Y-109750D01*
X325505D01*
X323668Y-110511D01*
X322261Y-111918D01*
X321200Y-112129D01*
X320582Y-111511D01*
X318745Y-110750D01*
X316755D01*
X314918Y-111511D01*
X313511Y-112918D01*
X312750Y-114755D01*
Y-116745D01*
X313511Y-118582D01*
X314918Y-119989D01*
X316755Y-120750D01*
X317703D01*
X321477Y-124523D01*
X322634Y-125297D01*
X324000Y-125569D01*
X356477D01*
X357032Y-126124D01*
X358870Y-126885D01*
X360859D01*
X362697Y-126124D01*
X364104Y-124718D01*
X364865Y-122880D01*
Y-120891D01*
X364104Y-119053D01*
X363075Y-118025D01*
X363082Y-117989D01*
X364489Y-116582D01*
X365250Y-114745D01*
Y-112755D01*
X364489Y-110918D01*
X363082Y-109511D01*
X361245Y-108750D01*
D02*
G37*
G36*
X232995Y-123000D02*
X231005D01*
X230011Y-123412D01*
X208389D01*
X207395Y-123000D01*
X205406D01*
X203568Y-123761D01*
X202161Y-125168D01*
X201400Y-127005D01*
Y-128995D01*
X202161Y-130832D01*
X203568Y-132239D01*
X205406Y-133000D01*
X207395D01*
X208389Y-132588D01*
X230011D01*
X231005Y-133000D01*
X232995D01*
X234832Y-132239D01*
X236239Y-130832D01*
X237000Y-128995D01*
Y-127005D01*
X236239Y-125168D01*
X234832Y-123761D01*
X232995Y-123000D01*
D02*
G37*
G36*
X122239Y-123250D02*
X120250D01*
X118412Y-124011D01*
X117751Y-124672D01*
X116922Y-125349D01*
X116092Y-124672D01*
X115431Y-124011D01*
X113593Y-123250D01*
X111604D01*
X109767Y-124011D01*
X109106Y-124672D01*
X108276Y-125349D01*
X107446Y-124672D01*
X106785Y-124011D01*
X104948Y-123250D01*
X102959D01*
X101121Y-124011D01*
X100460Y-124672D01*
X99630Y-125349D01*
X98801Y-124672D01*
X98140Y-124011D01*
X96302Y-123250D01*
X94313D01*
X92475Y-124011D01*
X91069Y-125418D01*
X90308Y-127255D01*
Y-129245D01*
X91069Y-131082D01*
X91739Y-131753D01*
Y-166651D01*
X91069Y-167322D01*
X90308Y-169159D01*
Y-171148D01*
X91069Y-172986D01*
X92475Y-174393D01*
X94313Y-175154D01*
X96302D01*
X98140Y-174393D01*
X98801Y-173732D01*
X99630Y-173055D01*
X100460Y-173732D01*
X101121Y-174393D01*
X102959Y-175154D01*
X104948D01*
X106785Y-174393D01*
X107446Y-173732D01*
X108276Y-173055D01*
X109106Y-173732D01*
X109767Y-174393D01*
X111604Y-175154D01*
X113593D01*
X115431Y-174393D01*
X116092Y-173732D01*
X116922Y-173055D01*
X117751Y-173732D01*
X118412Y-174393D01*
X120250Y-175154D01*
X122239D01*
X124077Y-174393D01*
X125483Y-172986D01*
X126244Y-171148D01*
Y-169159D01*
X125483Y-167322D01*
X124813Y-166651D01*
Y-131753D01*
X125483Y-131082D01*
X126244Y-129245D01*
Y-127255D01*
X125483Y-125418D01*
X124077Y-124011D01*
X122239Y-123250D01*
D02*
G37*
G36*
X393500Y-129932D02*
Y-136313D01*
X399880D01*
X399455Y-134725D01*
X398402Y-132900D01*
X396912Y-131411D01*
X395088Y-130358D01*
X393500Y-129932D01*
D02*
G37*
G36*
X390500Y-129932D02*
X388912Y-130358D01*
X387088Y-131411D01*
X385598Y-132900D01*
X384545Y-134725D01*
X384120Y-136313D01*
X390500D01*
Y-129932D01*
D02*
G37*
G36*
Y-139312D02*
X384120D01*
X384545Y-140900D01*
X385598Y-142725D01*
X387088Y-144214D01*
X388912Y-145267D01*
X390500Y-145693D01*
Y-139312D01*
D02*
G37*
G36*
X399880D02*
X393500D01*
Y-145693D01*
X395088Y-145267D01*
X396912Y-144214D01*
X398402Y-142725D01*
X399455Y-140900D01*
X399880Y-139312D01*
D02*
G37*
G36*
X16000Y-129812D02*
X0D01*
Y-145812D01*
X16000D01*
Y-129812D01*
D02*
G37*
G36*
X9500Y-149932D02*
Y-156313D01*
X15880D01*
X15455Y-154725D01*
X14402Y-152900D01*
X12912Y-151411D01*
X11088Y-150358D01*
X9500Y-149932D01*
D02*
G37*
G36*
X6500Y-149932D02*
X4912Y-150358D01*
X3088Y-151411D01*
X1598Y-152900D01*
X545Y-154725D01*
X120Y-156313D01*
X6500D01*
Y-149932D01*
D02*
G37*
G36*
Y-159312D02*
X120D01*
X545Y-160900D01*
X1598Y-162725D01*
X3088Y-164214D01*
X4912Y-165267D01*
X6500Y-165693D01*
Y-159312D01*
D02*
G37*
G36*
X15880D02*
X9500D01*
Y-165693D01*
X11088Y-165267D01*
X12912Y-164214D01*
X14402Y-162725D01*
X15455Y-160900D01*
X15880Y-159312D01*
D02*
G37*
G36*
X400000Y-149812D02*
X384000D01*
Y-165812D01*
X400000D01*
Y-149812D01*
D02*
G37*
G36*
X393500Y-195745D02*
Y-202125D01*
X399880D01*
X399455Y-200537D01*
X398402Y-198713D01*
X396912Y-197223D01*
X395088Y-196170D01*
X393500Y-195745D01*
D02*
G37*
G36*
X390500Y-195745D02*
X388912Y-196170D01*
X387088Y-197223D01*
X385598Y-198713D01*
X384545Y-200537D01*
X384120Y-202125D01*
X390500D01*
Y-195745D01*
D02*
G37*
G36*
X392000Y-203625D02*
D01*
D01*
D01*
D02*
G37*
G36*
X141750Y-200620D02*
Y-207000D01*
X148130D01*
X147705Y-205412D01*
X146652Y-203588D01*
X145162Y-202098D01*
X143338Y-201045D01*
X141750Y-200620D01*
D02*
G37*
G36*
X138750D02*
X137162Y-201045D01*
X135338Y-202098D01*
X133848Y-203588D01*
X132795Y-205412D01*
X132370Y-207000D01*
X138750D01*
Y-200620D01*
D02*
G37*
G36*
X301000Y-200870D02*
Y-207250D01*
X307380D01*
X306955Y-205662D01*
X305902Y-203838D01*
X304412Y-202348D01*
X302588Y-201295D01*
X301000Y-200870D01*
D02*
G37*
G36*
X298000D02*
X296412Y-201295D01*
X294588Y-202348D01*
X293098Y-203838D01*
X292045Y-205662D01*
X291620Y-207250D01*
X298000D01*
Y-200870D01*
D02*
G37*
G36*
X390500Y-205125D02*
X384120D01*
X384545Y-206713D01*
X385598Y-208537D01*
X387088Y-210026D01*
X388912Y-211080D01*
X390500Y-211505D01*
Y-205125D01*
D02*
G37*
G36*
X399880D02*
X393500D01*
Y-211505D01*
X395088Y-211080D01*
X396912Y-210026D01*
X398402Y-208537D01*
X399455Y-206713D01*
X399880Y-205125D01*
D02*
G37*
G36*
X16000Y-195625D02*
X0D01*
Y-211625D01*
X16000D01*
Y-195625D01*
D02*
G37*
G36*
X148130Y-210000D02*
X141750D01*
Y-216380D01*
X143338Y-215955D01*
X145162Y-214902D01*
X146652Y-213412D01*
X147705Y-211588D01*
X148130Y-210000D01*
D02*
G37*
G36*
X138750D02*
X132370D01*
X132795Y-211588D01*
X133848Y-213412D01*
X135338Y-214902D01*
X137162Y-215955D01*
X138750Y-216380D01*
Y-210000D01*
D02*
G37*
G36*
X121303Y-200500D02*
X119197D01*
X117162Y-201045D01*
X115338Y-202098D01*
X113848Y-203588D01*
X112795Y-205412D01*
X112250Y-207447D01*
Y-209553D01*
X112795Y-211588D01*
X113848Y-213412D01*
X115338Y-214902D01*
X117162Y-215955D01*
X119197Y-216500D01*
X121303D01*
X123338Y-215955D01*
X125162Y-214902D01*
X126652Y-213412D01*
X127705Y-211588D01*
X128250Y-209553D01*
Y-207447D01*
X127705Y-205412D01*
X126652Y-203588D01*
X125162Y-202098D01*
X123338Y-201045D01*
X121303Y-200500D01*
D02*
G37*
G36*
X108250D02*
X92250D01*
Y-216500D01*
X108250D01*
Y-200500D01*
D02*
G37*
G36*
X307380Y-210250D02*
X301000D01*
Y-216630D01*
X302588Y-216205D01*
X304412Y-215152D01*
X305902Y-213662D01*
X306955Y-211838D01*
X307380Y-210250D01*
D02*
G37*
G36*
X298000D02*
X291620D01*
X292045Y-211838D01*
X293098Y-213662D01*
X294588Y-215152D01*
X296412Y-216205D01*
X298000Y-216630D01*
Y-210250D01*
D02*
G37*
G36*
X280553Y-200750D02*
X278447D01*
X276412Y-201295D01*
X274588Y-202348D01*
X273098Y-203838D01*
X272045Y-205662D01*
X271500Y-207697D01*
Y-209803D01*
X272045Y-211838D01*
X273098Y-213662D01*
X274588Y-215152D01*
X276412Y-216205D01*
X278447Y-216750D01*
X280553D01*
X282588Y-216205D01*
X284412Y-215152D01*
X285902Y-213662D01*
X286955Y-211838D01*
X287500Y-209803D01*
Y-207697D01*
X286955Y-205662D01*
X285902Y-203838D01*
X284412Y-202348D01*
X282588Y-201295D01*
X280553Y-200750D01*
D02*
G37*
G36*
X260553D02*
X258447D01*
X256412Y-201295D01*
X254588Y-202348D01*
X253098Y-203838D01*
X252045Y-205662D01*
X251500Y-207697D01*
Y-209803D01*
X252045Y-211838D01*
X253098Y-213662D01*
X254588Y-215152D01*
X256412Y-216205D01*
X258447Y-216750D01*
X260553D01*
X262588Y-216205D01*
X264412Y-215152D01*
X265902Y-213662D01*
X266955Y-211838D01*
X267500Y-209803D01*
Y-207697D01*
X266955Y-205662D01*
X265902Y-203838D01*
X264412Y-202348D01*
X262588Y-201295D01*
X260553Y-200750D01*
D02*
G37*
G36*
X240553D02*
X238447D01*
X236412Y-201295D01*
X234588Y-202348D01*
X233098Y-203838D01*
X232045Y-205662D01*
X231500Y-207697D01*
Y-209803D01*
X232045Y-211838D01*
X233098Y-213662D01*
X234588Y-215152D01*
X236412Y-216205D01*
X238447Y-216750D01*
X240553D01*
X242588Y-216205D01*
X244412Y-215152D01*
X245902Y-213662D01*
X246955Y-211838D01*
X247500Y-209803D01*
Y-207697D01*
X246955Y-205662D01*
X245902Y-203838D01*
X244412Y-202348D01*
X242588Y-201295D01*
X240553Y-200750D01*
D02*
G37*
G36*
X191495Y-189500D02*
X189505D01*
X187668Y-190261D01*
X186261Y-191668D01*
X185500Y-193505D01*
Y-195495D01*
X186261Y-197332D01*
X187668Y-198739D01*
X189505Y-199500D01*
X191452Y-199500D01*
X191500Y-200750D01*
X191500Y-200750D01*
X191500Y-201947D01*
X191500Y-201948D01*
X191500Y-202002D01*
Y-216750D01*
X207500D01*
Y-203456D01*
X208673Y-202970D01*
X211901Y-206198D01*
X211500Y-207697D01*
Y-209803D01*
X212045Y-211838D01*
X213098Y-213662D01*
X214588Y-215152D01*
X216412Y-216205D01*
X218447Y-216750D01*
X220553D01*
X222588Y-216205D01*
X224412Y-215152D01*
X225902Y-213662D01*
X226955Y-211838D01*
X227500Y-209803D01*
Y-207697D01*
X226955Y-205662D01*
X225902Y-203838D01*
X224412Y-202348D01*
X222588Y-201295D01*
X220553Y-200750D01*
X218447D01*
X216948Y-201152D01*
X207773Y-191977D01*
X206616Y-191203D01*
X205250Y-190931D01*
X194002D01*
X193332Y-190261D01*
X191495Y-189500D01*
D02*
G37*
G36*
X175495Y-194808D02*
X173505D01*
X171668Y-195569D01*
X170261Y-196975D01*
X169500Y-198813D01*
Y-200802D01*
X170261Y-202640D01*
X171668Y-204046D01*
X173505Y-204808D01*
X175073D01*
X180743Y-210478D01*
Y-213436D01*
X180511Y-213668D01*
X179750Y-215505D01*
Y-217495D01*
X180511Y-219332D01*
X181918Y-220739D01*
X183755Y-221500D01*
X185745D01*
X187582Y-220739D01*
X188989Y-219332D01*
X189750Y-217495D01*
Y-215505D01*
X188989Y-213668D01*
X187880Y-212559D01*
Y-209000D01*
X187609Y-207634D01*
X186835Y-206477D01*
X179500Y-199142D01*
Y-198813D01*
X178739Y-196975D01*
X177332Y-195569D01*
X175495Y-194808D01*
D02*
G37*
G36*
X9500Y-215745D02*
Y-222125D01*
X15880D01*
X15455Y-220537D01*
X14402Y-218713D01*
X12912Y-217223D01*
X11088Y-216170D01*
X9500Y-215745D01*
D02*
G37*
G36*
X6500Y-215745D02*
X4912Y-216170D01*
X3088Y-217223D01*
X1598Y-218713D01*
X545Y-220537D01*
X120Y-222125D01*
X6500D01*
Y-215745D01*
D02*
G37*
G36*
Y-225125D02*
X120D01*
X545Y-226713D01*
X1598Y-228537D01*
X3088Y-230026D01*
X4912Y-231080D01*
X6500Y-231505D01*
Y-225125D01*
D02*
G37*
G36*
X15880D02*
X9500D01*
Y-231505D01*
X11088Y-231080D01*
X12912Y-230026D01*
X14402Y-228537D01*
X15455Y-226713D01*
X15880Y-225125D01*
D02*
G37*
G36*
X400000Y-215625D02*
X384000D01*
Y-231625D01*
X400000D01*
Y-215625D01*
D02*
G37*
G36*
X393500Y-261557D02*
Y-267937D01*
X399880D01*
X399455Y-266350D01*
X398402Y-264525D01*
X396912Y-263036D01*
X395088Y-261983D01*
X393500Y-261557D01*
D02*
G37*
G36*
X390500Y-261557D02*
X388912Y-261983D01*
X387088Y-263036D01*
X385598Y-264525D01*
X384545Y-266350D01*
X384120Y-267937D01*
X390500D01*
Y-261557D01*
D02*
G37*
G36*
Y-270937D02*
X384120D01*
X384545Y-272525D01*
X385598Y-274349D01*
X387088Y-275839D01*
X388912Y-276892D01*
X390500Y-277318D01*
Y-270937D01*
D02*
G37*
G36*
X399880D02*
X393500D01*
Y-277318D01*
X395088Y-276892D01*
X396912Y-275839D01*
X398402Y-274349D01*
X399455Y-272525D01*
X399880Y-270937D01*
D02*
G37*
G36*
X16000Y-261437D02*
X0D01*
Y-277437D01*
X16000D01*
Y-261437D01*
D02*
G37*
G36*
X9500Y-281557D02*
Y-287938D01*
X15880D01*
X15455Y-286350D01*
X14402Y-284525D01*
X12912Y-283036D01*
X11088Y-281983D01*
X9500Y-281557D01*
D02*
G37*
G36*
X6500D02*
X4912Y-281983D01*
X3088Y-283036D01*
X1598Y-284525D01*
X545Y-286350D01*
X120Y-287938D01*
X6500D01*
Y-281557D01*
D02*
G37*
G36*
X15880Y-290938D02*
X9500D01*
Y-297318D01*
X11088Y-296892D01*
X12912Y-295839D01*
X14402Y-294349D01*
X15455Y-292525D01*
X15880Y-290938D01*
D02*
G37*
G36*
X6500D02*
X120D01*
X545Y-292525D01*
X1598Y-294349D01*
X3088Y-295839D01*
X4912Y-296892D01*
X6500Y-297318D01*
Y-290938D01*
D02*
G37*
G36*
X400000Y-281437D02*
X384000D01*
Y-297437D01*
X400000D01*
Y-281437D01*
D02*
G37*
G36*
X210994Y-273000D02*
X209005D01*
X207168Y-273761D01*
X205761Y-275168D01*
X205000Y-277005D01*
Y-278995D01*
X205761Y-280832D01*
X206431Y-281502D01*
Y-300558D01*
X206703Y-301923D01*
X207477Y-303081D01*
X206931Y-304331D01*
X205252D01*
X204582Y-303661D01*
X202745Y-302900D01*
X200756D01*
X198918Y-303661D01*
X197511Y-305068D01*
X196750Y-306905D01*
Y-308895D01*
X197511Y-310732D01*
X198918Y-312139D01*
X198923Y-312164D01*
X198036Y-313050D01*
X197275Y-314888D01*
Y-316877D01*
X198036Y-318715D01*
X199443Y-320121D01*
X201281Y-320883D01*
X203270D01*
X205107Y-320121D01*
X205362Y-319867D01*
X205592Y-319927D01*
X205663Y-320050D01*
X205868Y-321311D01*
X204790Y-322389D01*
X204029Y-324227D01*
Y-326216D01*
X204790Y-328054D01*
X206196Y-329460D01*
X208034Y-330221D01*
X208982D01*
X248279Y-369518D01*
Y-370466D01*
X249040Y-372304D01*
X250446Y-373710D01*
X252284Y-374471D01*
X253232D01*
X266727Y-387966D01*
X267884Y-388739D01*
X269250Y-389011D01*
X273190D01*
X273918Y-389739D01*
X275755Y-390500D01*
X277745D01*
X279582Y-389739D01*
X280989Y-388332D01*
X281750Y-386495D01*
Y-384505D01*
X280989Y-382668D01*
X279821Y-381500D01*
X280989Y-380332D01*
X281750Y-378495D01*
Y-376505D01*
X280989Y-374668D01*
X280276Y-373955D01*
X279680Y-373125D01*
X280276Y-372295D01*
X280989Y-371582D01*
X281750Y-369745D01*
Y-367755D01*
X280989Y-365918D01*
X279582Y-364511D01*
X277745Y-363750D01*
X275755D01*
X273918Y-364511D01*
X273248Y-365181D01*
X270478D01*
X242714Y-337417D01*
X243012Y-335919D01*
X243678Y-335643D01*
X245085Y-334236D01*
X245846Y-332398D01*
Y-330409D01*
X245085Y-328572D01*
X243678Y-327165D01*
X241841Y-326404D01*
X240893D01*
X213569Y-299079D01*
Y-281502D01*
X214239Y-280832D01*
X215000Y-278995D01*
Y-277005D01*
X214239Y-275168D01*
X212832Y-273761D01*
X210994Y-273000D01*
D02*
G37*
G36*
X393500Y-327370D02*
Y-333750D01*
X399880D01*
X399455Y-332162D01*
X398402Y-330338D01*
X396912Y-328848D01*
X395088Y-327795D01*
X393500Y-327370D01*
D02*
G37*
G36*
X390500Y-327370D02*
X388912Y-327795D01*
X387088Y-328848D01*
X385598Y-330338D01*
X384545Y-332162D01*
X384120Y-333750D01*
X390500D01*
Y-327370D01*
D02*
G37*
G36*
Y-336750D02*
X384120D01*
X384545Y-338338D01*
X385598Y-340162D01*
X387088Y-341651D01*
X388912Y-342705D01*
X390500Y-343130D01*
Y-336750D01*
D02*
G37*
G36*
X399880D02*
X393500D01*
Y-343130D01*
X395088Y-342705D01*
X396912Y-341651D01*
X398402Y-340162D01*
X399455Y-338338D01*
X399880Y-336750D01*
D02*
G37*
G36*
X16000Y-327250D02*
X0D01*
Y-343250D01*
X16000D01*
Y-327250D01*
D02*
G37*
G36*
X9500Y-347370D02*
Y-353750D01*
X15880D01*
X15455Y-352162D01*
X14402Y-350338D01*
X12912Y-348848D01*
X11088Y-347795D01*
X9500Y-347370D01*
D02*
G37*
G36*
X6500D02*
X4912Y-347795D01*
X3088Y-348848D01*
X1598Y-350338D01*
X545Y-352162D01*
X120Y-353750D01*
X6500D01*
Y-347370D01*
D02*
G37*
G36*
Y-356750D02*
X120D01*
X545Y-358338D01*
X1598Y-360162D01*
X3088Y-361651D01*
X4912Y-362705D01*
X6500Y-363130D01*
Y-356750D01*
D02*
G37*
G36*
X15880D02*
X9500D01*
Y-363130D01*
X11088Y-362705D01*
X12912Y-361651D01*
X14402Y-360162D01*
X15455Y-358338D01*
X15880Y-356750D01*
D02*
G37*
G36*
X400000Y-347250D02*
X384000D01*
Y-363250D01*
X400000D01*
Y-347250D01*
D02*
G37*
G36*
X211500Y-405120D02*
Y-411500D01*
X217880D01*
X217455Y-409912D01*
X216402Y-408088D01*
X214912Y-406598D01*
X213088Y-405545D01*
X211500Y-405120D01*
D02*
G37*
G36*
X208500D02*
X206912Y-405545D01*
X205088Y-406598D01*
X203598Y-408088D01*
X202545Y-409912D01*
X202120Y-411500D01*
X208500D01*
Y-405120D01*
D02*
G37*
G36*
X145500D02*
Y-411500D01*
X151880D01*
X151455Y-409912D01*
X150402Y-408088D01*
X148912Y-406598D01*
X147088Y-405545D01*
X145500Y-405120D01*
D02*
G37*
G36*
X142500D02*
X140912Y-405545D01*
X139088Y-406598D01*
X137598Y-408088D01*
X136545Y-409912D01*
X136120Y-411500D01*
X142500D01*
Y-405120D01*
D02*
G37*
G36*
X277000Y-405370D02*
Y-411750D01*
X283380D01*
X282955Y-410162D01*
X281902Y-408338D01*
X280412Y-406848D01*
X278588Y-405795D01*
X277000Y-405370D01*
D02*
G37*
G36*
X274000D02*
X272412Y-405795D01*
X270588Y-406848D01*
X269098Y-408338D01*
X268045Y-410162D01*
X267620Y-411750D01*
X274000D01*
Y-405370D01*
D02*
G37*
G36*
X10000Y-391913D02*
X1500D01*
Y-418500D01*
X37969D01*
X37741Y-415606D01*
X36712Y-411321D01*
X35025Y-407249D01*
X32722Y-403491D01*
X29860Y-400140D01*
X26509Y-397277D01*
X22751Y-394975D01*
X18679Y-393288D01*
X14394Y-392259D01*
X10000Y-391913D01*
D02*
G37*
G36*
X398500D02*
X390000D01*
X385606Y-392259D01*
X381321Y-393288D01*
X377249Y-394975D01*
X373491Y-397277D01*
X370140Y-400140D01*
X367277Y-403491D01*
X364975Y-407249D01*
X363288Y-411321D01*
X362259Y-415606D01*
X362031Y-418500D01*
X398500D01*
Y-391913D01*
D02*
G37*
G36*
X217880Y-414500D02*
X211500D01*
Y-420880D01*
X213088Y-420455D01*
X214912Y-419402D01*
X216402Y-417912D01*
X217455Y-416088D01*
X217880Y-414500D01*
D02*
G37*
G36*
X208500D02*
X202120D01*
X202545Y-416088D01*
X203598Y-417912D01*
X205088Y-419402D01*
X206912Y-420455D01*
X208500Y-420880D01*
Y-414500D01*
D02*
G37*
G36*
X151880D02*
X145500D01*
Y-420880D01*
X147088Y-420455D01*
X148912Y-419402D01*
X150402Y-417912D01*
X151455Y-416088D01*
X151880Y-414500D01*
D02*
G37*
G36*
X142500D02*
X136120D01*
X136545Y-416088D01*
X137598Y-417912D01*
X139088Y-419402D01*
X140912Y-420455D01*
X142500Y-420880D01*
Y-414500D01*
D02*
G37*
G36*
X198000Y-405000D02*
X182000D01*
Y-421000D01*
X198000D01*
Y-405000D01*
D02*
G37*
G36*
X132000D02*
X116000D01*
Y-421000D01*
X132000D01*
Y-405000D01*
D02*
G37*
G36*
X283380Y-414750D02*
X277000D01*
Y-421130D01*
X278588Y-420705D01*
X280412Y-419652D01*
X281902Y-418162D01*
X282955Y-416338D01*
X283380Y-414750D01*
D02*
G37*
G36*
X274000D02*
X267620D01*
X268045Y-416338D01*
X269098Y-418162D01*
X270588Y-419652D01*
X272412Y-420705D01*
X274000Y-421130D01*
Y-414750D01*
D02*
G37*
G36*
X263500Y-405250D02*
X247500D01*
Y-421250D01*
X263500D01*
Y-405250D01*
D02*
G37*
G36*
X398500Y-421500D02*
X362032D01*
X362259Y-424394D01*
X363288Y-428679D01*
X364975Y-432751D01*
X367277Y-436509D01*
X370140Y-439860D01*
X373491Y-442723D01*
X377249Y-445025D01*
X381321Y-446712D01*
X385606Y-447741D01*
X390000Y-448087D01*
X398500D01*
Y-421500D01*
D02*
G37*
G36*
X37968D02*
X1500D01*
Y-448087D01*
X10000D01*
X14394Y-447741D01*
X18679Y-446712D01*
X22751Y-445025D01*
X26509Y-442723D01*
X29860Y-439860D01*
X32722Y-436509D01*
X35025Y-432751D01*
X36712Y-428679D01*
X37741Y-424394D01*
X37968Y-421500D01*
D02*
G37*
%LPD*%
D21*
X333700Y26250D02*
D03*
D40*
X355952Y-93048D02*
X356250Y-93346D01*
X327162Y-93048D02*
X355952D01*
X326551Y-92437D02*
X327162Y-93048D01*
X355750Y-72250D02*
X356250Y-71750D01*
X346500Y-72250D02*
X355750D01*
X359750Y-122000D02*
X359865Y-121885D01*
X324000Y-122000D02*
X359750D01*
X326500Y-114750D02*
X358438D01*
X359438Y-113750D01*
X360250D01*
X356250Y-48000D02*
X356250Y-48000D01*
X326500Y-48000D02*
X356250D01*
X345500Y-71250D02*
X346500Y-72250D01*
X327219Y-71250D02*
X345500D01*
X317750Y-115750D02*
X324000Y-122000D01*
X326969Y-71000D02*
X327219Y-71250D01*
X190500Y-194500D02*
X205250D01*
X219500Y-208750D01*
X121244Y-170154D02*
Y-128250D01*
X112599Y-170154D02*
Y-128250D01*
X103953Y-170154D02*
Y-128250D01*
X95308Y-170154D02*
Y-128250D01*
X175119Y-199808D02*
X184312Y-209000D01*
X174500Y-199808D02*
X175119D01*
X184312Y-216062D02*
Y-209000D01*
Y-216062D02*
X184750Y-216500D01*
X253279Y-369471D02*
X269250Y-385442D01*
X276692D01*
X276750Y-385500D01*
X233750Y-22500D02*
X248500D01*
X233750Y1750D02*
X242000D01*
X248500Y-22500D02*
X281750Y-55750D01*
X280837Y-46279D02*
X281471D01*
X244558Y-10000D02*
X280837Y-46279D01*
X257250Y-61000D02*
X280500Y-84250D01*
X233000Y-61000D02*
X257250D01*
X280500Y-84250D02*
X280750D01*
X232750Y-34250D02*
X251000D01*
X281750Y-65000D01*
X254308Y-47750D02*
X281404Y-74846D01*
X233750Y-47750D02*
X254308D01*
X233750Y-10000D02*
X244558D01*
X242000Y1750D02*
X281250Y-37500D01*
X210000Y-300558D02*
Y-278000D01*
Y-300558D02*
X240846Y-331404D01*
X269000Y-368750D02*
X276750D01*
X208150Y-307900D02*
X269000Y-368750D01*
X201750Y-307900D02*
X208150D01*
X269926Y-376926D02*
X276176D01*
X208883Y-315883D02*
X269926Y-376926D01*
X276176D02*
X276750Y-377500D01*
X209029Y-325221D02*
X253279Y-369471D01*
X202275Y-315883D02*
X208883D01*
D41*
X206400Y-128000D02*
X232000D01*
D43*
X8000Y-72000D02*
D03*
X76000Y21000D02*
D03*
X392000Y-92000D02*
D03*
Y-157812D02*
D03*
X8000Y-137812D02*
D03*
X392000Y-223625D02*
D03*
X8000Y-203625D02*
D03*
X392000Y-289437D02*
D03*
X8000Y-269437D02*
D03*
X392000Y-355250D02*
D03*
X8000Y-335250D02*
D03*
D44*
Y-92000D02*
D03*
X76000Y-19000D02*
D03*
Y1000D02*
D03*
Y-39000D02*
D03*
X275500Y-413250D02*
D03*
X210000Y-413000D02*
D03*
X144000D02*
D03*
X299500Y-208750D02*
D03*
X279500D02*
D03*
X259500D02*
D03*
X219500D02*
D03*
X239500D02*
D03*
X140250Y-208500D02*
D03*
X120250D02*
D03*
X392000Y-72000D02*
D03*
Y-137812D02*
D03*
X8000Y-157812D02*
D03*
X392000Y-203625D02*
D03*
X8000Y-223625D02*
D03*
X392000Y-269437D02*
D03*
X8000Y-289437D02*
D03*
X392000Y-335250D02*
D03*
X8000Y-355250D02*
D03*
D45*
X349000Y-437000D02*
D03*
X-17000Y61000D02*
D03*
X321000Y26250D02*
D03*
X295600D02*
D03*
X308300D02*
D03*
D46*
X255500Y-413250D02*
D03*
X190000Y-413000D02*
D03*
X124000D02*
D03*
X199500Y-208750D02*
D03*
X100250Y-208500D02*
D03*
D47*
X0Y-420000D02*
D03*
X400000D02*
D03*
Y0D02*
D03*
X0D02*
D03*
D48*
X21408Y-252934D02*
D03*
X20408Y-287934D02*
D03*
X362908Y32566D02*
D03*
X305408Y-25934D02*
D03*
X109408Y-33684D02*
D03*
X80408Y-55184D02*
D03*
X54158Y-52934D02*
D03*
X-11092Y-90684D02*
D03*
X11658Y-105434D02*
D03*
X39908Y-130684D02*
D03*
X45658Y-95184D02*
D03*
X73908Y-120434D02*
D03*
X90658Y-104684D02*
D03*
X132158Y-127684D02*
D03*
X50158Y-156434D02*
D03*
X6408Y-191184D02*
D03*
X30908Y-165684D02*
D03*
X44408Y-198684D02*
D03*
X87908Y-196434D02*
D03*
X129408Y-193434D02*
D03*
X158158Y-208684D02*
D03*
X229158Y-195934D02*
D03*
X236658Y-221684D02*
D03*
X265408Y-221184D02*
D03*
X270158Y-192684D02*
D03*
X304158Y-190184D02*
D03*
X356250Y-93346D02*
D03*
Y-71750D02*
D03*
X359865Y-121885D02*
D03*
X360250Y-113750D02*
D03*
X356250Y-48000D02*
D03*
X350750Y-180750D02*
D03*
X284000Y17750D02*
D03*
X190500Y-194500D02*
D03*
X95308Y-170154D02*
D03*
X103953D02*
D03*
X112599D02*
D03*
X121244D02*
D03*
X103953Y-128250D02*
D03*
X95308D02*
D03*
X112599D02*
D03*
X121244D02*
D03*
X46250Y-277500D02*
D03*
X44750Y-223500D02*
D03*
X174500Y-199808D02*
D03*
X172757Y-227007D02*
D03*
X152616Y-231500D02*
D03*
X184750Y-216500D02*
D03*
X27846Y-73096D02*
D03*
X128750Y-252000D02*
D03*
X170500Y-258750D02*
D03*
X64250Y-383250D02*
D03*
X88250Y-343750D02*
D03*
X157750Y-278500D02*
D03*
X130000Y-346000D02*
D03*
X159000Y-345750D02*
D03*
X186250Y-349250D02*
D03*
X156250Y-361750D02*
D03*
X142250Y-389250D02*
D03*
X164500Y-408625D02*
D03*
X201500Y-381750D02*
D03*
X241000Y-382000D02*
D03*
X217500Y-401500D02*
D03*
X239250Y-420000D02*
D03*
X274250Y-396250D02*
D03*
X289750Y-428250D02*
D03*
X350500Y-413250D02*
D03*
X350750Y-375000D02*
D03*
X349000Y-342750D02*
D03*
X306000Y-315250D02*
D03*
X289750Y-327000D02*
D03*
X270000Y-322000D02*
D03*
X250750Y-318500D02*
D03*
X252750Y-293750D02*
D03*
X285500Y-294000D02*
D03*
X272000Y-273750D02*
D03*
X250000D02*
D03*
X257000Y-247500D02*
D03*
X311500Y-238250D02*
D03*
X335500Y-192000D02*
D03*
X349000Y-141250D02*
D03*
X319750Y-157250D02*
D03*
X304750Y-127250D02*
D03*
X250000Y-200250D02*
D03*
X149750Y-176000D02*
D03*
X168500Y-124000D02*
D03*
X144250Y-93000D02*
D03*
X97000Y-224250D02*
D03*
X191500Y-232500D02*
D03*
X190000Y-279250D02*
D03*
X125750Y-273750D02*
D03*
X165500Y-326250D02*
D03*
X150000D02*
D03*
X165000Y-314250D02*
D03*
X150250Y-314000D02*
D03*
X165500Y-302000D02*
D03*
X149500Y-301500D02*
D03*
X83750Y-257000D02*
D03*
X83500Y-313250D02*
D03*
X89500Y-372000D02*
D03*
X84500Y-413750D02*
D03*
X40750Y-396000D02*
D03*
X30000Y-362500D02*
D03*
X46250Y-326750D02*
D03*
X-4500Y-216000D02*
D03*
X2000Y-173250D02*
D03*
X44750Y-27000D02*
D03*
X6500Y-37500D02*
D03*
X-29500Y-55500D02*
D03*
X-28250Y-124250D02*
D03*
X-27250Y-184250D02*
D03*
X-31000Y-266000D02*
D03*
X-28750Y-328750D02*
D03*
X-31750Y-387500D02*
D03*
X47000Y-445500D02*
D03*
X94500Y-443500D02*
D03*
X169750Y-441500D02*
D03*
X240000Y-445500D02*
D03*
X323771Y-442932D02*
D03*
X384250Y-384750D02*
D03*
X426000Y-369500D02*
D03*
X376500Y-312000D02*
D03*
X426500Y-307250D02*
D03*
X407250Y-280750D02*
D03*
X428000Y-240000D02*
D03*
X390250Y-239500D02*
D03*
X430500Y-190000D02*
D03*
X395250Y-172500D02*
D03*
X426500Y-119000D02*
D03*
X429250Y-156500D02*
D03*
X432500Y-79000D02*
D03*
X395000Y-110000D02*
D03*
X418250Y-42500D02*
D03*
X361750Y-37500D02*
D03*
X431000Y32000D02*
D03*
X393000Y38500D02*
D03*
X305250Y-9750D02*
D03*
X323000Y-18250D02*
D03*
X324250Y7250D02*
D03*
X184750Y-11750D02*
D03*
X161000Y-47250D02*
D03*
X184000Y-37750D02*
D03*
X215000Y-39000D02*
D03*
X212250Y750D02*
D03*
X165000Y5000D02*
D03*
X217000Y32250D02*
D03*
X185250Y31500D02*
D03*
X156250Y30000D02*
D03*
X-29750Y37250D02*
D03*
X-8250Y36750D02*
D03*
X12250Y37500D02*
D03*
X36174Y37176D02*
D03*
X58250Y38250D02*
D03*
X84500Y38000D02*
D03*
X112000Y37500D02*
D03*
X114500Y25750D02*
D03*
X96000Y11250D02*
D03*
X154250Y-17500D02*
D03*
X116500Y-15750D02*
D03*
X157000Y-65000D02*
D03*
X183250Y-71750D02*
D03*
X215250D02*
D03*
X245750Y-73000D02*
D03*
X243500Y-169750D02*
D03*
X268750Y-147750D02*
D03*
X273188Y-124438D02*
D03*
X270881Y-94102D02*
D03*
X260500Y-100000D02*
D03*
X252500Y-125750D02*
D03*
X243750Y-142250D02*
D03*
X225250Y-176000D02*
D03*
X226750Y-155000D02*
D03*
X210500Y-155250D02*
D03*
X276750Y-385500D02*
D03*
X281750Y-46279D02*
D03*
Y-84250D02*
D03*
Y-65000D02*
D03*
Y-55750D02*
D03*
X317750Y-115750D02*
D03*
X326500Y-114750D02*
D03*
X326239Y-92750D02*
D03*
X326969Y-71000D02*
D03*
X326500Y-48000D02*
D03*
X233750Y-61000D02*
D03*
X281750Y-74846D02*
D03*
X233750Y-47750D02*
D03*
Y-34250D02*
D03*
X210000Y-278000D02*
D03*
X232000Y-128000D02*
D03*
X206400D02*
D03*
X240846Y-331404D02*
D03*
X209029Y-325221D02*
D03*
X253279Y-369471D02*
D03*
X276750Y-377500D02*
D03*
Y-368750D02*
D03*
X202275Y-315883D02*
D03*
X201750Y-307900D02*
D03*
X233750Y-22500D02*
D03*
Y-10000D02*
D03*
X281750Y-37500D02*
D03*
X233750Y1750D02*
D03*
M02*
