G04*
G04 #@! TF.GenerationSoftware,Altium Limited,Altium Designer,21.8.1 (53)*
G04*
G04 Layer_Physical_Order=2*
G04 Layer_Color=16711680*
%FSLAX44Y44*%
%MOMM*%
G71*
G04*
G04 #@! TF.SameCoordinates,2069A8A4-A70D-4D47-B8DF-A6023ED568E2*
G04*
G04*
G04 #@! TF.FilePolarity,Positive*
G04*
G01*
G75*
%ADD21C,0.5000*%
%ADD22C,1.0000*%
%ADD23C,3.0000*%
%ADD24C,0.6000*%
%ADD25R,2.3000X0.7000*%
G36*
X102856Y212810D02*
X104641Y211617D01*
X105834Y209832D01*
X106015Y208922D01*
X106215Y207726D01*
X106215Y207726D01*
X106215Y206480D01*
Y130227D01*
X106448Y129057D01*
X107111Y128065D01*
X107285Y127853D01*
X107285Y127853D01*
X109264Y126259D01*
X109261Y105870D01*
X107438Y104651D01*
X105349Y102562D01*
X103707Y100105D01*
X102577Y97375D01*
X102000Y94477D01*
Y91523D01*
X102577Y88625D01*
X103707Y85895D01*
X105349Y83438D01*
X107438Y81349D01*
X109258Y80132D01*
X109250Y1750D01*
X109250Y-3020D01*
X108418Y-12525D01*
X106762Y-21921D01*
X104292Y-31137D01*
X101029Y-40103D01*
X96997Y-48750D01*
X92226Y-57012D01*
X86754Y-64828D01*
X80621Y-72137D01*
X73875Y-78883D01*
X66566Y-85016D01*
X58750Y-90488D01*
X50487Y-95259D01*
X41841Y-99291D01*
X32875Y-102554D01*
X23659Y-105024D01*
X14263Y-106680D01*
X4758Y-107512D01*
X-4782D01*
X-14287Y-106680D01*
X-23683Y-105024D01*
X-32899Y-102554D01*
X-41865Y-99291D01*
X-50512Y-95259D01*
X-58774Y-90488D01*
X-66590Y-85016D01*
X-73899Y-78883D01*
X-80645Y-72137D01*
X-86778Y-64828D01*
X-92250Y-57012D01*
X-97021Y-48750D01*
X-101053Y-40103D01*
X-104316Y-31137D01*
X-106786Y-21921D01*
X-108442Y-12525D01*
X-109274Y-3020D01*
X-109274Y1750D01*
Y126251D01*
X-107285Y127853D01*
X-107285Y127853D01*
X-107111Y128065D01*
X-106448Y129057D01*
X-106215Y130227D01*
Y207726D01*
X-106234Y207820D01*
X-105834Y209832D01*
X-104641Y211617D01*
X-102856Y212810D01*
X-100844Y213210D01*
X-100750Y213191D01*
X100750D01*
X100844Y213210D01*
X102856Y212810D01*
D02*
G37*
%LPC*%
G36*
X40745Y67250D02*
X38755D01*
X36918Y66489D01*
X35511Y65082D01*
X35099Y64088D01*
X21850Y50838D01*
X20739D01*
X19745Y51250D01*
X17755D01*
X16761Y50838D01*
X-38011D01*
X-39005Y51250D01*
X-40995D01*
X-42832Y50489D01*
X-44239Y49082D01*
X-45000Y47245D01*
Y45255D01*
X-44239Y43418D01*
X-42832Y42011D01*
X-40995Y41250D01*
X-39005D01*
X-38011Y41662D01*
X-33955D01*
X-33429Y40392D01*
X-33989Y39832D01*
X-34750Y37995D01*
Y36005D01*
X-33989Y34168D01*
X-32582Y32761D01*
X-30745Y32000D01*
X-28755D01*
X-27761Y32412D01*
X-22650D01*
X-15962Y25723D01*
X-16448Y24550D01*
X-24000D01*
Y19050D01*
Y13550D01*
X-13338D01*
Y12179D01*
X-13579Y11938D01*
X-24500D01*
X-24943Y11850D01*
X-39000D01*
Y850D01*
X-12000D01*
Y2762D01*
X-11679D01*
X-9923Y3111D01*
X-8435Y4106D01*
X-7512Y5029D01*
X-6338Y4543D01*
Y3500D01*
X-5989Y1744D01*
X-4994Y256D01*
X4856Y-9594D01*
X6344Y-10589D01*
X8100Y-10938D01*
X12000D01*
Y-11850D01*
X39000D01*
Y-850D01*
X12000D01*
Y-1762D01*
X10000D01*
X7326Y912D01*
X7993Y2042D01*
X9400Y1762D01*
X12000D01*
Y850D01*
X39000D01*
Y11850D01*
X12000D01*
X12000Y11850D01*
X11092Y12054D01*
X11092Y12937D01*
X12278Y13550D01*
X39000D01*
Y14462D01*
X42380D01*
X44136Y14811D01*
X45624Y15806D01*
X47238Y17420D01*
X48412Y16934D01*
Y-5849D01*
X40270Y-13991D01*
X39000Y-13550D01*
Y-13550D01*
X12000D01*
Y-24550D01*
X39000D01*
Y-23588D01*
X41750D01*
X43506Y-23239D01*
X44994Y-22244D01*
X56244Y-10994D01*
X57239Y-9506D01*
X57588Y-7750D01*
Y31250D01*
X57239Y33006D01*
X56244Y34494D01*
X44901Y45838D01*
X44489Y46832D01*
X43082Y48239D01*
X41245Y49000D01*
X39255D01*
X37418Y48239D01*
X36011Y46832D01*
X35250Y44995D01*
Y43005D01*
X36011Y41168D01*
X37418Y39761D01*
X38412Y39349D01*
X43891Y33870D01*
X43593Y32372D01*
X42668Y31989D01*
X41261Y30582D01*
X40500Y28745D01*
Y26755D01*
X40721Y26223D01*
Y23879D01*
X40479Y23638D01*
X39000D01*
Y24550D01*
X12108D01*
X12000Y24550D01*
X10838Y24811D01*
Y36511D01*
X11250Y37505D01*
Y39495D01*
X10878Y40392D01*
X11727Y41662D01*
X16761D01*
X17755Y41250D01*
X19745D01*
X20739Y41662D01*
X23750D01*
X25506Y42011D01*
X26994Y43006D01*
X41588Y57599D01*
X42582Y58011D01*
X43989Y59418D01*
X44750Y61255D01*
Y63245D01*
X43989Y65082D01*
X42582Y66489D01*
X40745Y67250D01*
D02*
G37*
G36*
X-46500Y36338D02*
X-48256Y35989D01*
X-49744Y34994D01*
X-50739Y33506D01*
X-51088Y31750D01*
Y23250D01*
X-50739Y21494D01*
X-49744Y20006D01*
X-45544Y15806D01*
X-44056Y14811D01*
X-42300Y14462D01*
X-39000D01*
Y13550D01*
X-27000D01*
Y19050D01*
Y24550D01*
X-39000D01*
Y23638D01*
X-40399D01*
X-41912Y25150D01*
Y31750D01*
X-42261Y33506D01*
X-43256Y34994D01*
X-44744Y35989D01*
X-46500Y36338D01*
D02*
G37*
G36*
X-12000Y-850D02*
X-39000D01*
Y-1762D01*
X-41850D01*
X-43606Y-2111D01*
X-45094Y-3106D01*
X-51744Y-9756D01*
X-52739Y-11244D01*
X-53088Y-13000D01*
Y-17261D01*
X-53500Y-18255D01*
Y-20245D01*
X-52739Y-22082D01*
X-51332Y-23489D01*
X-49495Y-24250D01*
X-47505D01*
X-46511Y-23838D01*
X-39000D01*
Y-24550D01*
X-12000D01*
Y-13550D01*
X-39000D01*
Y-14662D01*
X-42014D01*
X-42500Y-13489D01*
X-40270Y-11259D01*
X-39000Y-11712D01*
Y-11850D01*
X-12000D01*
Y-850D01*
D02*
G37*
%LPD*%
D21*
X18750Y46250D02*
X23750D01*
X-40000D02*
X18750D01*
X23750D02*
X39750Y62250D01*
X-10000Y37979D02*
Y38250D01*
X-42300Y19050D02*
X-25500D01*
X-46500Y23250D02*
Y31750D01*
Y23250D02*
X-42300Y19050D01*
X40250Y44000D02*
X53000Y31250D01*
Y-7750D02*
Y31250D01*
X-48500Y-19250D02*
Y-13000D01*
X-41850Y-6350D01*
X-48500Y-19250D02*
X-25700D01*
X-41850Y-6350D02*
X-25500D01*
X-25700Y-19250D02*
X-25500Y-19050D01*
X-29750Y37000D02*
X-20750D01*
X-8750Y25000D01*
X-11679Y7350D02*
X-8750Y10279D01*
Y25000D01*
X-24500Y7350D02*
X-11679D01*
X-25500Y6350D02*
X-24500Y7350D01*
X41750Y-19000D02*
X53000Y-7750D01*
X25250Y19300D02*
X25500Y19050D01*
X45309Y27559D02*
X45500Y27750D01*
X45309Y21979D02*
Y27559D01*
X25550Y-19000D02*
X41750D01*
X25500Y-19050D02*
X25550Y-19000D01*
X-10000Y37979D02*
X-1750Y29729D01*
Y3500D02*
X8100Y-6350D01*
X-1750Y3500D02*
Y29729D01*
X42380Y19050D02*
X45309Y21979D01*
X25500Y19050D02*
X42380D01*
X6250Y9500D02*
Y38500D01*
Y9500D02*
X9400Y6350D01*
X8100Y-6350D02*
X25500D01*
X9400Y6350D02*
X25500D01*
D22*
X-117000Y-93000D02*
D03*
X117000Y93000D02*
D03*
D23*
X140000Y0D02*
D03*
X0Y-140000D02*
D03*
X-140000Y0D02*
D03*
D24*
X23500Y30750D02*
D03*
X18750Y46250D02*
D03*
X-71000Y55750D02*
D03*
X97250Y75000D02*
D03*
X-27250Y205500D02*
D03*
X55000Y204500D02*
D03*
X40989Y-34789D02*
D03*
X-1000Y-21000D02*
D03*
X-46250Y-37000D02*
D03*
X-5500Y-49250D02*
D03*
X-21250Y-59500D02*
D03*
X35000Y-61250D02*
D03*
X68750Y-26750D02*
D03*
X100000Y-1750D02*
D03*
X84240Y-48076D02*
D03*
X54479Y-80615D02*
D03*
X16781Y-93313D02*
D03*
X-21250Y-93000D02*
D03*
X-55836Y-74662D02*
D03*
X-79250Y-51250D02*
D03*
X-89250Y-13500D02*
D03*
X-95500Y69000D02*
D03*
X-67750Y32500D02*
D03*
X-43250Y59000D02*
D03*
X-65000Y86500D02*
D03*
X-72500Y133750D02*
D03*
X-40250Y105500D02*
D03*
X-20000Y77000D02*
D03*
X1250Y74500D02*
D03*
X20000Y76500D02*
D03*
X40590Y95969D02*
D03*
X55750Y51250D02*
D03*
X90250Y42500D02*
D03*
X75113Y86842D02*
D03*
X93250Y121250D02*
D03*
X70750Y159000D02*
D03*
X93750Y195500D02*
D03*
X10000Y200250D02*
D03*
X14400Y164618D02*
D03*
X36250Y184750D02*
D03*
X-45000Y164500D02*
D03*
X-7028Y181682D02*
D03*
X-64250Y156750D02*
D03*
X-50250Y197500D02*
D03*
X-95500Y195250D02*
D03*
X-90250Y153000D02*
D03*
X-91250Y100250D02*
D03*
X-92000Y36000D02*
D03*
X39750Y62250D02*
D03*
X-10000Y38250D02*
D03*
X-40000Y46250D02*
D03*
X-46500Y31750D02*
D03*
X40250Y44000D02*
D03*
X-48500Y-19250D02*
D03*
X-29750Y37000D02*
D03*
X45500Y27750D02*
D03*
X6250Y38500D02*
D03*
D25*
X25500Y19050D02*
D03*
Y6350D02*
D03*
Y-6350D02*
D03*
Y-19050D02*
D03*
X-25500Y19050D02*
D03*
Y6350D02*
D03*
Y-6350D02*
D03*
Y-19050D02*
D03*
M02*
