G04*
G04 #@! TF.GenerationSoftware,Altium Limited,Altium Designer,21.8.1 (53)*
G04*
G04 Layer_Color=65535*
%FSLAX44Y44*%
%MOMM*%
G71*
G04*
G04 #@! TF.SameCoordinates,2069A8A4-A70D-4D47-B8DF-A6023ED568E2*
G04*
G04*
G04 #@! TF.FilePolarity,Positive*
G04*
G01*
G75*
%ADD10C,0.1000*%
%ADD11C,0.2000*%
%ADD12C,0.2540*%
G36*
X39222Y-108205D02*
X39444Y-108317D01*
X39555Y-108400D01*
X39666Y-108511D01*
X39722Y-108567D01*
X39805Y-108705D01*
X39888Y-108955D01*
X39944Y-109261D01*
Y-127056D01*
Y-127084D01*
Y-127139D01*
X39916Y-127306D01*
X39833Y-127528D01*
X39666Y-127750D01*
X39611Y-127778D01*
X39472Y-127861D01*
X39222Y-127972D01*
X38944Y-128000D01*
X38917D01*
X38806Y-127972D01*
X38584Y-127917D01*
X38306Y-127806D01*
X38250Y-127750D01*
X38167Y-127611D01*
X38056Y-127389D01*
X38028Y-127223D01*
X38001Y-127056D01*
Y-111953D01*
X34308Y-118644D01*
X34280Y-118672D01*
X34253Y-118727D01*
X34169Y-118811D01*
X34086Y-118894D01*
X33809Y-119088D01*
X33642Y-119144D01*
X33448Y-119172D01*
X33364D01*
X33281Y-119144D01*
X33170Y-119088D01*
X33031Y-119033D01*
X32892Y-118922D01*
X32754Y-118783D01*
X32615Y-118589D01*
X29006Y-111953D01*
Y-127056D01*
Y-127084D01*
Y-127139D01*
X28978Y-127306D01*
X28867Y-127556D01*
X28811Y-127667D01*
X28700Y-127778D01*
X28645Y-127806D01*
X28506Y-127889D01*
X28284Y-127972D01*
X28006Y-128000D01*
X27978D01*
X27867Y-127972D01*
X27673Y-127917D01*
X27395Y-127833D01*
X27340Y-127778D01*
X27229Y-127639D01*
X27118Y-127389D01*
X27090Y-127223D01*
X27062Y-127056D01*
Y-109261D01*
Y-109233D01*
Y-109177D01*
Y-109094D01*
X27090Y-108983D01*
X27146Y-108733D01*
X27284Y-108483D01*
Y-108455D01*
X27340Y-108428D01*
X27451Y-108317D01*
X27673Y-108233D01*
X27812Y-108178D01*
X28117D01*
X28256Y-108233D01*
X28395Y-108289D01*
X28423D01*
X28506Y-108344D01*
X28561Y-108400D01*
X28617Y-108483D01*
X28728Y-108594D01*
X28839Y-108733D01*
X33475Y-116534D01*
X38112Y-108761D01*
X38139Y-108733D01*
X38167Y-108678D01*
X38250Y-108567D01*
X38361Y-108455D01*
X38639Y-108261D01*
X38806Y-108205D01*
X39000Y-108178D01*
X39056D01*
X39222Y-108205D01*
D02*
G37*
G36*
X46135Y-108317D02*
X46301D01*
X46496Y-108344D01*
X46912Y-108455D01*
X47412Y-108594D01*
X47939Y-108816D01*
X48467Y-109150D01*
X48717Y-109344D01*
X48967Y-109566D01*
X48994Y-109594D01*
X49022Y-109621D01*
X49078Y-109705D01*
X49161Y-109788D01*
X49383Y-110066D01*
X49605Y-110427D01*
X49827Y-110899D01*
X50049Y-111426D01*
X50188Y-112009D01*
X50244Y-112342D01*
Y-112675D01*
Y-114036D01*
Y-114480D01*
Y-114785D01*
X50133Y-115091D01*
Y-115118D01*
Y-115146D01*
X50105Y-115229D01*
X50077Y-115340D01*
X49994Y-115618D01*
X49827Y-115923D01*
X49799Y-115951D01*
X49744Y-116062D01*
X49661Y-116201D01*
X49550Y-116368D01*
X49383Y-116562D01*
X49216Y-116784D01*
X48994Y-116978D01*
X48745Y-117173D01*
X48772Y-117200D01*
X48883Y-117228D01*
X49050Y-117339D01*
X49244Y-117450D01*
X49466Y-117645D01*
X49716Y-117895D01*
X49994Y-118200D01*
X50244Y-118589D01*
X50272Y-118644D01*
X50355Y-118783D01*
X50466Y-119005D01*
X50605Y-119283D01*
X50716Y-119616D01*
X50827Y-120005D01*
X50910Y-120449D01*
X50938Y-120893D01*
Y-123614D01*
Y-123641D01*
Y-123697D01*
Y-123780D01*
X50910Y-123919D01*
Y-124086D01*
X50882Y-124252D01*
X50771Y-124696D01*
X50632Y-125168D01*
X50382Y-125696D01*
X50077Y-126223D01*
X49855Y-126473D01*
X49633Y-126723D01*
X49605D01*
X49577Y-126778D01*
X49494Y-126834D01*
X49411Y-126917D01*
X49133Y-127139D01*
X48772Y-127361D01*
X48300Y-127584D01*
X47773Y-127806D01*
X47190Y-127944D01*
X46857Y-127972D01*
X46524Y-128000D01*
X42998D01*
X42831Y-127972D01*
X42609Y-127889D01*
X42387Y-127750D01*
Y-127722D01*
X42359Y-127695D01*
X42276Y-127556D01*
X42165Y-127334D01*
X42137Y-127056D01*
Y-127028D01*
X42165Y-126889D01*
X42220Y-126723D01*
X42359Y-126473D01*
Y-126445D01*
X42415Y-126418D01*
X42526Y-126279D01*
X42748Y-126140D01*
X42915Y-126112D01*
X43081Y-126084D01*
X46690D01*
X46884Y-126057D01*
X47134Y-126001D01*
X47412Y-125918D01*
X47690Y-125779D01*
X47995Y-125612D01*
X48273Y-125390D01*
X48300Y-125363D01*
X48384Y-125252D01*
X48495Y-125113D01*
X48633Y-124891D01*
X48772Y-124641D01*
X48883Y-124335D01*
X48967Y-124002D01*
X48994Y-123614D01*
Y-120865D01*
Y-120810D01*
Y-120698D01*
X48967Y-120504D01*
X48911Y-120282D01*
X48828Y-120005D01*
X48689Y-119727D01*
X48522Y-119422D01*
X48273Y-119144D01*
X48245Y-119116D01*
X48162Y-119033D01*
X47995Y-118894D01*
X47801Y-118755D01*
X47551Y-118644D01*
X47245Y-118505D01*
X46912Y-118422D01*
X46524Y-118394D01*
X45746D01*
X45580Y-118366D01*
X45357Y-118283D01*
X45135Y-118144D01*
Y-118117D01*
X45108Y-118089D01*
X45024Y-117950D01*
X44913Y-117728D01*
X44886Y-117450D01*
Y-117423D01*
X44913Y-117284D01*
X44969Y-117117D01*
X45108Y-116867D01*
Y-116840D01*
X45163Y-116812D01*
X45274Y-116673D01*
X45496Y-116534D01*
X45663Y-116506D01*
X45830Y-116479D01*
X45996D01*
X46190Y-116451D01*
X46440Y-116395D01*
X46718Y-116312D01*
X46996Y-116173D01*
X47301Y-116007D01*
X47579Y-115785D01*
X47606Y-115757D01*
X47690Y-115646D01*
X47801Y-115507D01*
X47939Y-115285D01*
X48078Y-115035D01*
X48189Y-114730D01*
X48273Y-114396D01*
X48300Y-114036D01*
Y-112675D01*
Y-112620D01*
Y-112509D01*
X48273Y-112314D01*
X48217Y-112065D01*
X48134Y-111787D01*
X47995Y-111509D01*
X47828Y-111204D01*
X47579Y-110926D01*
X47551Y-110899D01*
X47467Y-110815D01*
X47301Y-110704D01*
X47107Y-110565D01*
X46857Y-110427D01*
X46551Y-110316D01*
X46218Y-110232D01*
X45830Y-110204D01*
X43025D01*
X42831Y-110177D01*
X42609Y-110093D01*
X42387Y-109955D01*
Y-109927D01*
X42359Y-109899D01*
X42276Y-109760D01*
X42165Y-109538D01*
X42137Y-109261D01*
Y-109233D01*
X42165Y-109094D01*
X42220Y-108927D01*
X42359Y-108678D01*
Y-108650D01*
X42415Y-108622D01*
X42526Y-108483D01*
X42748Y-108344D01*
X42915Y-108317D01*
X43081Y-108289D01*
X46024D01*
X46135Y-108317D01*
D02*
G37*
G36*
X-118778Y50545D02*
X-118556Y50433D01*
X-118445Y50350D01*
X-118334Y50239D01*
X-118278Y50184D01*
X-118195Y50045D01*
X-118112Y49795D01*
X-118056Y49489D01*
Y31694D01*
Y31666D01*
Y31611D01*
X-118084Y31444D01*
X-118167Y31222D01*
X-118334Y31000D01*
X-118389Y30972D01*
X-118528Y30889D01*
X-118778Y30778D01*
X-119056Y30750D01*
X-119083D01*
X-119194Y30778D01*
X-119416Y30833D01*
X-119694Y30944D01*
X-119750Y31000D01*
X-119833Y31139D01*
X-119944Y31361D01*
X-119972Y31527D01*
X-119999Y31694D01*
Y46797D01*
X-123692Y40106D01*
X-123720Y40078D01*
X-123747Y40023D01*
X-123831Y39939D01*
X-123914Y39856D01*
X-124192Y39662D01*
X-124358Y39606D01*
X-124552Y39578D01*
X-124636D01*
X-124719Y39606D01*
X-124830Y39662D01*
X-124969Y39717D01*
X-125108Y39828D01*
X-125246Y39967D01*
X-125385Y40161D01*
X-128994Y46797D01*
Y31694D01*
Y31666D01*
Y31611D01*
X-129022Y31444D01*
X-129133Y31194D01*
X-129189Y31083D01*
X-129300Y30972D01*
X-129355Y30944D01*
X-129494Y30861D01*
X-129716Y30778D01*
X-129994Y30750D01*
X-130022D01*
X-130133Y30778D01*
X-130327Y30833D01*
X-130605Y30917D01*
X-130660Y30972D01*
X-130771Y31111D01*
X-130882Y31361D01*
X-130910Y31527D01*
X-130938Y31694D01*
Y49489D01*
Y49517D01*
Y49573D01*
Y49656D01*
X-130910Y49767D01*
X-130854Y50017D01*
X-130716Y50267D01*
Y50295D01*
X-130660Y50322D01*
X-130549Y50433D01*
X-130327Y50517D01*
X-130188Y50572D01*
X-129883D01*
X-129744Y50517D01*
X-129605Y50461D01*
X-129577D01*
X-129494Y50406D01*
X-129439Y50350D01*
X-129383Y50267D01*
X-129272Y50156D01*
X-129161Y50017D01*
X-124525Y42216D01*
X-119888Y49989D01*
X-119861Y50017D01*
X-119833Y50072D01*
X-119750Y50184D01*
X-119639Y50295D01*
X-119361Y50489D01*
X-119194Y50545D01*
X-119000Y50572D01*
X-118945D01*
X-118778Y50545D01*
D02*
G37*
G36*
X-111865Y50433D02*
X-111699D01*
X-111504Y50406D01*
X-111088Y50295D01*
X-110588Y50156D01*
X-110061Y49934D01*
X-109533Y49601D01*
X-109283Y49406D01*
X-109033Y49184D01*
X-109006Y49156D01*
X-108978Y49129D01*
X-108922Y49045D01*
X-108839Y48962D01*
X-108617Y48684D01*
X-108395Y48323D01*
X-108173Y47852D01*
X-107951Y47324D01*
X-107812Y46741D01*
X-107756Y46408D01*
Y46075D01*
Y44714D01*
Y44270D01*
Y43965D01*
X-107867Y43659D01*
Y43632D01*
Y43604D01*
X-107895Y43521D01*
X-107923Y43410D01*
X-108006Y43132D01*
X-108173Y42827D01*
X-108201Y42799D01*
X-108256Y42688D01*
X-108339Y42549D01*
X-108450Y42382D01*
X-108617Y42188D01*
X-108784Y41966D01*
X-109006Y41772D01*
X-109256Y41577D01*
X-109228Y41550D01*
X-109117Y41522D01*
X-108950Y41411D01*
X-108756Y41300D01*
X-108534Y41105D01*
X-108284Y40855D01*
X-108006Y40550D01*
X-107756Y40161D01*
X-107729Y40106D01*
X-107645Y39967D01*
X-107534Y39745D01*
X-107395Y39467D01*
X-107284Y39134D01*
X-107173Y38746D01*
X-107090Y38301D01*
X-107062Y37857D01*
Y35136D01*
Y35109D01*
Y35053D01*
Y34970D01*
X-107090Y34831D01*
Y34664D01*
X-107118Y34498D01*
X-107229Y34054D01*
X-107368Y33582D01*
X-107618Y33054D01*
X-107923Y32527D01*
X-108145Y32277D01*
X-108367Y32027D01*
X-108395D01*
X-108423Y31971D01*
X-108506Y31916D01*
X-108589Y31833D01*
X-108867Y31611D01*
X-109228Y31388D01*
X-109700Y31166D01*
X-110227Y30944D01*
X-110810Y30805D01*
X-111143Y30778D01*
X-111476Y30750D01*
X-115002D01*
X-115169Y30778D01*
X-115391Y30861D01*
X-115613Y31000D01*
Y31028D01*
X-115641Y31055D01*
X-115724Y31194D01*
X-115835Y31416D01*
X-115863Y31694D01*
Y31722D01*
X-115835Y31860D01*
X-115780Y32027D01*
X-115641Y32277D01*
Y32305D01*
X-115585Y32332D01*
X-115474Y32471D01*
X-115252Y32610D01*
X-115085Y32638D01*
X-114919Y32666D01*
X-111310D01*
X-111116Y32693D01*
X-110866Y32749D01*
X-110588Y32832D01*
X-110310Y32971D01*
X-110005Y33138D01*
X-109727Y33360D01*
X-109700Y33387D01*
X-109616Y33498D01*
X-109505Y33637D01*
X-109367Y33859D01*
X-109228Y34109D01*
X-109117Y34415D01*
X-109033Y34748D01*
X-109006Y35136D01*
Y37885D01*
Y37940D01*
Y38052D01*
X-109033Y38246D01*
X-109089Y38468D01*
X-109172Y38746D01*
X-109311Y39023D01*
X-109478Y39328D01*
X-109727Y39606D01*
X-109755Y39634D01*
X-109838Y39717D01*
X-110005Y39856D01*
X-110199Y39995D01*
X-110449Y40106D01*
X-110755Y40245D01*
X-111088Y40328D01*
X-111476Y40356D01*
X-112254D01*
X-112420Y40384D01*
X-112642Y40467D01*
X-112865Y40606D01*
Y40633D01*
X-112892Y40661D01*
X-112976Y40800D01*
X-113087Y41022D01*
X-113114Y41300D01*
Y41327D01*
X-113087Y41466D01*
X-113031Y41633D01*
X-112892Y41883D01*
Y41910D01*
X-112837Y41938D01*
X-112726Y42077D01*
X-112504Y42216D01*
X-112337Y42244D01*
X-112170Y42271D01*
X-112004D01*
X-111810Y42299D01*
X-111560Y42355D01*
X-111282Y42438D01*
X-111004Y42577D01*
X-110699Y42743D01*
X-110421Y42965D01*
X-110394Y42993D01*
X-110310Y43104D01*
X-110199Y43243D01*
X-110061Y43465D01*
X-109922Y43715D01*
X-109811Y44020D01*
X-109727Y44353D01*
X-109700Y44714D01*
Y46075D01*
Y46130D01*
Y46241D01*
X-109727Y46436D01*
X-109783Y46686D01*
X-109866Y46963D01*
X-110005Y47241D01*
X-110172Y47546D01*
X-110421Y47824D01*
X-110449Y47852D01*
X-110533Y47935D01*
X-110699Y48046D01*
X-110893Y48185D01*
X-111143Y48323D01*
X-111449Y48435D01*
X-111782Y48518D01*
X-112170Y48546D01*
X-114974D01*
X-115169Y48573D01*
X-115391Y48657D01*
X-115613Y48795D01*
Y48823D01*
X-115641Y48851D01*
X-115724Y48990D01*
X-115835Y49212D01*
X-115863Y49489D01*
Y49517D01*
X-115835Y49656D01*
X-115780Y49823D01*
X-115641Y50072D01*
Y50100D01*
X-115585Y50128D01*
X-115474Y50267D01*
X-115252Y50406D01*
X-115085Y50433D01*
X-114919Y50461D01*
X-111976D01*
X-111865Y50433D01*
D02*
G37*
G36*
X119722Y49044D02*
X119944Y48933D01*
X120055Y48850D01*
X120166Y48739D01*
X120222Y48684D01*
X120305Y48545D01*
X120388Y48295D01*
X120444Y47990D01*
Y30194D01*
Y30166D01*
Y30111D01*
X120416Y29944D01*
X120333Y29722D01*
X120166Y29500D01*
X120111Y29472D01*
X119972Y29389D01*
X119722Y29278D01*
X119445Y29250D01*
X119417D01*
X119306Y29278D01*
X119084Y29333D01*
X118806Y29444D01*
X118750Y29500D01*
X118667Y29639D01*
X118556Y29861D01*
X118528Y30027D01*
X118501Y30194D01*
Y45297D01*
X114808Y38606D01*
X114780Y38578D01*
X114753Y38523D01*
X114669Y38439D01*
X114586Y38356D01*
X114309Y38162D01*
X114142Y38106D01*
X113947Y38078D01*
X113864D01*
X113781Y38106D01*
X113670Y38162D01*
X113531Y38217D01*
X113392Y38328D01*
X113253Y38467D01*
X113115Y38661D01*
X109506Y45297D01*
Y30194D01*
Y30166D01*
Y30111D01*
X109478Y29944D01*
X109367Y29694D01*
X109311Y29583D01*
X109200Y29472D01*
X109145Y29444D01*
X109006Y29361D01*
X108784Y29278D01*
X108506Y29250D01*
X108478D01*
X108367Y29278D01*
X108173Y29333D01*
X107895Y29417D01*
X107840Y29472D01*
X107729Y29611D01*
X107618Y29861D01*
X107590Y30027D01*
X107562Y30194D01*
Y47990D01*
Y48017D01*
Y48073D01*
Y48156D01*
X107590Y48267D01*
X107646Y48517D01*
X107784Y48767D01*
Y48795D01*
X107840Y48822D01*
X107951Y48933D01*
X108173Y49017D01*
X108312Y49072D01*
X108617D01*
X108756Y49017D01*
X108895Y48961D01*
X108923D01*
X109006Y48906D01*
X109061Y48850D01*
X109117Y48767D01*
X109228Y48656D01*
X109339Y48517D01*
X113975Y40716D01*
X118612Y48489D01*
X118639Y48517D01*
X118667Y48573D01*
X118750Y48684D01*
X118862Y48795D01*
X119139Y48989D01*
X119306Y49044D01*
X119500Y49072D01*
X119556D01*
X119722Y49044D01*
D02*
G37*
G36*
X126635Y48933D02*
X126801D01*
X126996Y48906D01*
X127412Y48795D01*
X127912Y48656D01*
X128439Y48434D01*
X128967Y48101D01*
X129217Y47906D01*
X129467Y47684D01*
X129494Y47656D01*
X129522Y47629D01*
X129578Y47545D01*
X129661Y47462D01*
X129883Y47184D01*
X130105Y46824D01*
X130327Y46351D01*
X130549Y45824D01*
X130688Y45241D01*
X130744Y44908D01*
Y44575D01*
Y43214D01*
Y42770D01*
Y42465D01*
X130633Y42159D01*
Y42132D01*
Y42104D01*
X130605Y42021D01*
X130577Y41910D01*
X130494Y41632D01*
X130327Y41327D01*
X130300Y41299D01*
X130244Y41188D01*
X130161Y41049D01*
X130050Y40882D01*
X129883Y40688D01*
X129717Y40466D01*
X129494Y40272D01*
X129244Y40077D01*
X129272Y40050D01*
X129383Y40022D01*
X129550Y39911D01*
X129744Y39800D01*
X129966Y39605D01*
X130216Y39355D01*
X130494Y39050D01*
X130744Y38661D01*
X130771Y38606D01*
X130855Y38467D01*
X130966Y38245D01*
X131105Y37967D01*
X131216Y37634D01*
X131327Y37246D01*
X131410Y36801D01*
X131438Y36357D01*
Y33636D01*
Y33609D01*
Y33553D01*
Y33470D01*
X131410Y33331D01*
Y33165D01*
X131382Y32998D01*
X131271Y32554D01*
X131132Y32082D01*
X130883Y31554D01*
X130577Y31027D01*
X130355Y30777D01*
X130133Y30527D01*
X130105D01*
X130077Y30471D01*
X129994Y30416D01*
X129911Y30333D01*
X129633Y30111D01*
X129272Y29889D01*
X128800Y29666D01*
X128273Y29444D01*
X127690Y29306D01*
X127357Y29278D01*
X127023Y29250D01*
X123498D01*
X123331Y29278D01*
X123109Y29361D01*
X122887Y29500D01*
Y29528D01*
X122859Y29555D01*
X122776Y29694D01*
X122665Y29916D01*
X122637Y30194D01*
Y30222D01*
X122665Y30361D01*
X122720Y30527D01*
X122859Y30777D01*
Y30805D01*
X122915Y30833D01*
X123026Y30971D01*
X123248Y31110D01*
X123414Y31138D01*
X123581Y31166D01*
X127190D01*
X127385Y31193D01*
X127634Y31249D01*
X127912Y31332D01*
X128190Y31471D01*
X128495Y31638D01*
X128773Y31860D01*
X128800Y31887D01*
X128884Y31999D01*
X128995Y32137D01*
X129134Y32359D01*
X129272Y32609D01*
X129383Y32915D01*
X129467Y33248D01*
X129494Y33636D01*
Y36385D01*
Y36440D01*
Y36551D01*
X129467Y36746D01*
X129411Y36968D01*
X129328Y37246D01*
X129189Y37523D01*
X129022Y37829D01*
X128773Y38106D01*
X128745Y38134D01*
X128661Y38217D01*
X128495Y38356D01*
X128301Y38495D01*
X128051Y38606D01*
X127745Y38745D01*
X127412Y38828D01*
X127023Y38856D01*
X126246D01*
X126080Y38884D01*
X125857Y38967D01*
X125635Y39106D01*
Y39133D01*
X125608Y39161D01*
X125524Y39300D01*
X125413Y39522D01*
X125386Y39800D01*
Y39827D01*
X125413Y39966D01*
X125469Y40133D01*
X125608Y40383D01*
Y40410D01*
X125663Y40438D01*
X125774Y40577D01*
X125996Y40716D01*
X126163Y40744D01*
X126329Y40771D01*
X126496D01*
X126690Y40799D01*
X126940Y40855D01*
X127218Y40938D01*
X127495Y41077D01*
X127801Y41243D01*
X128078Y41465D01*
X128106Y41493D01*
X128190Y41604D01*
X128301Y41743D01*
X128439Y41965D01*
X128578Y42215D01*
X128689Y42520D01*
X128773Y42853D01*
X128800Y43214D01*
Y44575D01*
Y44630D01*
Y44741D01*
X128773Y44936D01*
X128717Y45185D01*
X128634Y45463D01*
X128495Y45741D01*
X128328Y46046D01*
X128078Y46324D01*
X128051Y46351D01*
X127968Y46435D01*
X127801Y46546D01*
X127607Y46685D01*
X127357Y46824D01*
X127051Y46934D01*
X126718Y47018D01*
X126329Y47046D01*
X123525D01*
X123331Y47073D01*
X123109Y47157D01*
X122887Y47295D01*
Y47323D01*
X122859Y47351D01*
X122776Y47490D01*
X122665Y47712D01*
X122637Y47990D01*
Y48017D01*
X122665Y48156D01*
X122720Y48323D01*
X122859Y48573D01*
Y48600D01*
X122915Y48628D01*
X123026Y48767D01*
X123248Y48906D01*
X123414Y48933D01*
X123581Y48961D01*
X126524D01*
X126635Y48933D01*
D02*
G37*
G36*
X-27741Y-46067D02*
X-27546Y-46150D01*
X-27296Y-46316D01*
X-27269D01*
X-27241Y-46372D01*
X-27102Y-46511D01*
X-26991Y-46733D01*
X-26963Y-46872D01*
X-26936Y-47010D01*
Y-47038D01*
Y-47066D01*
X-26963Y-47205D01*
X-27047Y-47427D01*
X-27185Y-47649D01*
X-27241Y-47705D01*
X-27380Y-47788D01*
X-27602Y-47899D01*
X-27768Y-47927D01*
X-27935Y-47954D01*
X-28018D01*
X-28101Y-47927D01*
X-28213D01*
X-28435Y-47843D01*
X-28657Y-47677D01*
X-28684Y-47621D01*
X-28768Y-47483D01*
X-28851Y-47288D01*
X-28879Y-47010D01*
Y-46983D01*
X-28851Y-46844D01*
X-28796Y-46677D01*
X-28657Y-46427D01*
Y-46400D01*
X-28601Y-46372D01*
X-28490Y-46233D01*
X-28268Y-46094D01*
X-28101Y-46067D01*
X-27935Y-46039D01*
X-27879D01*
X-27741Y-46067D01*
D02*
G37*
G36*
X26063D02*
X26312Y-46094D01*
X26590Y-46150D01*
X26895Y-46233D01*
X27229Y-46316D01*
X27284D01*
X27395Y-46372D01*
X27562Y-46427D01*
X27784Y-46511D01*
X28034Y-46594D01*
X28311Y-46733D01*
X28867Y-47038D01*
X28894Y-47066D01*
X28950Y-47094D01*
X29033Y-47177D01*
X29116Y-47288D01*
X29144Y-47316D01*
X29200Y-47427D01*
X29283Y-47593D01*
X29339Y-47816D01*
Y-47843D01*
Y-47871D01*
X29311Y-48038D01*
X29200Y-48288D01*
X29144Y-48399D01*
X29033Y-48537D01*
X28978Y-48593D01*
X28839Y-48676D01*
X28589Y-48787D01*
X28450Y-48815D01*
X28284Y-48843D01*
X27812Y-48676D01*
X27756Y-48649D01*
X27645Y-48565D01*
X27423Y-48454D01*
X27145Y-48315D01*
X26812Y-48176D01*
X26423Y-48066D01*
X26007Y-47982D01*
X25563Y-47954D01*
X23370D01*
X23175Y-47982D01*
X22925Y-48038D01*
X22648Y-48149D01*
X22342Y-48260D01*
X22065Y-48454D01*
X21787Y-48704D01*
X21759Y-48732D01*
X21676Y-48843D01*
X21565Y-48982D01*
X21454Y-49204D01*
X21343Y-49454D01*
X21232Y-49759D01*
X21149Y-50092D01*
X21121Y-50481D01*
X21149Y-50925D01*
X21204Y-51175D01*
X21260Y-51369D01*
Y-51397D01*
X21287Y-51425D01*
X21398Y-51591D01*
X21565Y-51841D01*
X21843Y-52174D01*
X28034Y-58476D01*
X28061Y-58504D01*
X28117Y-58560D01*
X28228Y-58671D01*
X28367Y-58809D01*
X28506Y-59004D01*
X28644Y-59226D01*
X28783Y-59476D01*
X28922Y-59753D01*
X29033Y-60059D01*
X29200Y-60642D01*
X29255Y-60975D01*
Y-61391D01*
Y-61419D01*
Y-61475D01*
Y-61558D01*
X29227Y-61697D01*
X29200Y-61835D01*
X29172Y-62002D01*
X29089Y-62446D01*
X28922Y-62918D01*
X28672Y-63446D01*
X28506Y-63696D01*
X28311Y-63973D01*
X28089Y-64251D01*
X27839Y-64501D01*
X27784Y-64556D01*
X27645Y-64695D01*
X27395Y-64889D01*
X27062Y-65111D01*
X26646Y-65361D01*
X26118Y-65556D01*
X25535Y-65694D01*
X25202Y-65722D01*
X24841Y-65750D01*
X22675D01*
X22537Y-65722D01*
X22370D01*
X22204Y-65694D01*
X21759Y-65611D01*
X21260Y-65500D01*
X20704Y-65306D01*
X20121Y-65056D01*
X19566Y-64723D01*
X19261Y-64390D01*
X19178Y-64001D01*
Y-63973D01*
Y-63945D01*
X19205Y-63779D01*
X19289Y-63584D01*
X19427Y-63335D01*
Y-63307D01*
X19483Y-63279D01*
X19622Y-63140D01*
X19844Y-63029D01*
X19983Y-63001D01*
X20121Y-62974D01*
X20593Y-63140D01*
X20649Y-63168D01*
X20788Y-63251D01*
X20982Y-63362D01*
X21260Y-63474D01*
X21593Y-63612D01*
X21981Y-63723D01*
X22398Y-63807D01*
X22814Y-63834D01*
X24980D01*
X25174Y-63807D01*
X25396Y-63751D01*
X25674Y-63668D01*
X25979Y-63529D01*
X26285Y-63362D01*
X26562Y-63113D01*
X26590Y-63085D01*
X26673Y-62974D01*
X26812Y-62835D01*
X26951Y-62613D01*
X27062Y-62363D01*
X27201Y-62058D01*
X27284Y-61752D01*
X27312Y-61391D01*
X27256Y-60947D01*
Y-60919D01*
Y-60892D01*
X27201Y-60753D01*
Y-60725D01*
X27173Y-60669D01*
X27118Y-60531D01*
Y-60503D01*
X27090Y-60447D01*
X27062Y-60364D01*
X27006Y-60253D01*
X26812Y-59975D01*
X26562Y-59642D01*
X20455Y-53535D01*
X20427Y-53507D01*
X20371Y-53451D01*
X20260Y-53313D01*
X20149Y-53174D01*
X20010Y-52952D01*
X19844Y-52702D01*
X19649Y-52424D01*
X19483Y-52091D01*
Y-52063D01*
X19427Y-51952D01*
X19400Y-51786D01*
X19344Y-51591D01*
X19289Y-51341D01*
X19233Y-51064D01*
X19205Y-50758D01*
X19178Y-50425D01*
Y-50398D01*
Y-50342D01*
Y-50259D01*
X19205Y-50120D01*
X19233Y-49981D01*
X19261Y-49787D01*
X19344Y-49370D01*
X19511Y-48898D01*
X19788Y-48371D01*
X19927Y-48121D01*
X20121Y-47843D01*
X20343Y-47566D01*
X20593Y-47316D01*
Y-47288D01*
X20649Y-47260D01*
X20788Y-47122D01*
X21038Y-46899D01*
X21371Y-46677D01*
X21787Y-46455D01*
X22287Y-46233D01*
X22898Y-46094D01*
X23203Y-46039D01*
X25840D01*
X26063Y-46067D01*
D02*
G37*
G36*
X3159Y-57699D02*
X3381Y-57810D01*
X3492Y-57866D01*
X3603Y-57977D01*
X3631D01*
X3658Y-58032D01*
X3769Y-58171D01*
X3853Y-58393D01*
X3908Y-58504D01*
Y-58643D01*
Y-58671D01*
Y-58698D01*
X3880Y-58837D01*
X3797Y-59059D01*
X3658Y-59281D01*
X3603Y-59337D01*
X3464Y-59420D01*
X3242Y-59531D01*
X3103Y-59559D01*
X2937Y-59587D01*
X-5364D01*
X-5531Y-59559D01*
X-5781Y-59476D01*
X-6003Y-59337D01*
Y-59309D01*
X-6031Y-59281D01*
X-6114Y-59143D01*
X-6225Y-58920D01*
X-6253Y-58643D01*
Y-58615D01*
X-6225Y-58476D01*
X-6169Y-58310D01*
X-6031Y-58060D01*
Y-58032D01*
X-5975Y-58004D01*
X-5836Y-57866D01*
X-5614Y-57727D01*
X-5448Y-57699D01*
X-5281Y-57671D01*
X2992D01*
X3159Y-57699D01*
D02*
G37*
G36*
X-42205Y-57699D02*
X-41983Y-57810D01*
X-41872Y-57866D01*
X-41761Y-57977D01*
X-41733D01*
X-41705Y-58032D01*
X-41594Y-58171D01*
X-41511Y-58393D01*
X-41455Y-58504D01*
Y-58643D01*
Y-58671D01*
Y-58698D01*
X-41483Y-58837D01*
X-41566Y-59059D01*
X-41705Y-59281D01*
X-41761Y-59337D01*
X-41899Y-59420D01*
X-42121Y-59531D01*
X-42260Y-59559D01*
X-42427Y-59587D01*
X-50728D01*
X-50894Y-59559D01*
X-51144Y-59476D01*
X-51366Y-59337D01*
Y-59309D01*
X-51394Y-59281D01*
X-51477Y-59143D01*
X-51588Y-58920D01*
X-51616Y-58643D01*
Y-58615D01*
X-51588Y-58476D01*
X-51533Y-58310D01*
X-51394Y-58060D01*
Y-58032D01*
X-51339Y-58004D01*
X-51200Y-57866D01*
X-50978Y-57727D01*
X-50811Y-57699D01*
X-50644Y-57671D01*
X-42371D01*
X-42205Y-57699D01*
D02*
G37*
G36*
X95857Y-51536D02*
X96107Y-51619D01*
X96329Y-51786D01*
X96356D01*
X96384Y-51841D01*
X96495Y-51952D01*
X96579Y-52174D01*
X96634Y-52313D01*
Y-52452D01*
Y-52507D01*
Y-52591D01*
X96606Y-52730D01*
X96579Y-52813D01*
X93164Y-64973D01*
Y-65000D01*
X93108Y-65084D01*
X93053Y-65223D01*
X92969Y-65361D01*
X92831Y-65500D01*
X92664Y-65639D01*
X92470Y-65722D01*
X92220Y-65750D01*
X92164D01*
X92025Y-65722D01*
X91859Y-65667D01*
X91665Y-65583D01*
X91637Y-65556D01*
X91526Y-65445D01*
X91415Y-65250D01*
X91276Y-64973D01*
X87861Y-52730D01*
X87833Y-52480D01*
Y-52452D01*
Y-52424D01*
X87861Y-52285D01*
X87944Y-52091D01*
X88111Y-51841D01*
Y-51813D01*
X88167Y-51786D01*
X88305Y-51674D01*
X88527Y-51564D01*
X88666Y-51508D01*
X88861D01*
X88972Y-51536D01*
X89110Y-51564D01*
X89277Y-51674D01*
X89333Y-51702D01*
X89444Y-51786D01*
X89582Y-51952D01*
X89666Y-52091D01*
X89749Y-52230D01*
X92220Y-61863D01*
X94691Y-52258D01*
X94719Y-52202D01*
X94774Y-52091D01*
X94857Y-51924D01*
X94996Y-51758D01*
X95052Y-51730D01*
X95163Y-51647D01*
X95357Y-51564D01*
X95607Y-51508D01*
X95690D01*
X95857Y-51536D01*
D02*
G37*
G36*
X-31877D02*
X-31655Y-51619D01*
X-31433Y-51786D01*
X-31405D01*
X-31377Y-51841D01*
X-31266Y-51952D01*
X-31155Y-52174D01*
X-31100Y-52313D01*
Y-52480D01*
Y-64806D01*
Y-64834D01*
X-31128Y-64945D01*
X-31155Y-65111D01*
X-31211Y-65278D01*
X-31350Y-65445D01*
X-31516Y-65611D01*
X-31766Y-65722D01*
X-32099Y-65750D01*
X-36958D01*
X-37124Y-65722D01*
X-37346Y-65694D01*
X-37652Y-65639D01*
X-37985Y-65528D01*
X-38346Y-65389D01*
X-38707Y-65167D01*
X-39040Y-64889D01*
X-39068Y-64862D01*
X-39179Y-64723D01*
X-39317Y-64556D01*
X-39456Y-64306D01*
X-39623Y-64001D01*
X-39762Y-63612D01*
X-39873Y-63196D01*
X-39901Y-62752D01*
Y-52480D01*
Y-52452D01*
Y-52424D01*
X-39873Y-52285D01*
X-39789Y-52063D01*
X-39623Y-51841D01*
Y-51813D01*
X-39567Y-51786D01*
X-39429Y-51675D01*
X-39234Y-51564D01*
X-39095Y-51508D01*
X-38901D01*
X-38734Y-51536D01*
X-38512Y-51619D01*
X-38290Y-51786D01*
X-38263D01*
X-38235Y-51841D01*
X-38124Y-51952D01*
X-38013Y-52174D01*
X-37957Y-52313D01*
Y-52480D01*
Y-62752D01*
Y-62779D01*
Y-62835D01*
X-37929Y-62918D01*
Y-63029D01*
X-37818Y-63279D01*
X-37763Y-63418D01*
X-37652Y-63529D01*
X-37624D01*
X-37596Y-63585D01*
X-37430Y-63668D01*
X-37208Y-63779D01*
X-37069Y-63807D01*
X-36902Y-63834D01*
X-33043D01*
Y-52480D01*
Y-52452D01*
Y-52424D01*
X-33015Y-52285D01*
X-32932Y-52063D01*
X-32766Y-51841D01*
Y-51813D01*
X-32710Y-51786D01*
X-32571Y-51674D01*
X-32377Y-51564D01*
X-32238Y-51508D01*
X-32044D01*
X-31877Y-51536D01*
D02*
G37*
G36*
X104130Y-46067D02*
X104352Y-46150D01*
X104602Y-46316D01*
X104630D01*
X104657Y-46372D01*
X104768Y-46483D01*
X104852Y-46705D01*
X104907Y-46844D01*
Y-46983D01*
Y-64806D01*
Y-64834D01*
Y-64889D01*
X104879Y-65056D01*
X104796Y-65278D01*
X104630Y-65500D01*
X104574Y-65528D01*
X104435Y-65611D01*
X104185Y-65722D01*
X103908Y-65750D01*
X103880D01*
X103769Y-65722D01*
X103575Y-65667D01*
X103297Y-65583D01*
X103241Y-65528D01*
X103130Y-65389D01*
X103019Y-65139D01*
X102992Y-64973D01*
X102964Y-64806D01*
Y-48926D01*
X100493Y-51786D01*
X100437Y-51841D01*
X100299Y-51924D01*
X100104Y-52008D01*
X99827Y-52063D01*
X99771D01*
X99577Y-52035D01*
X99355Y-51952D01*
X99133Y-51786D01*
X99077Y-51730D01*
X98994Y-51591D01*
X98911Y-51369D01*
X98855Y-51091D01*
Y-51064D01*
X98883Y-50953D01*
X98966Y-50758D01*
X99022Y-50620D01*
X99105Y-50453D01*
X103214Y-46316D01*
X103269Y-46261D01*
X103408Y-46178D01*
X103602Y-46094D01*
X103880Y-46039D01*
X103963D01*
X104130Y-46067D01*
D02*
G37*
G36*
X73286D02*
X73453D01*
X73619Y-46094D01*
X74036Y-46205D01*
X74535Y-46344D01*
X75063Y-46594D01*
X75590Y-46899D01*
X75840Y-47122D01*
X76090Y-47344D01*
X76118Y-47371D01*
X76146Y-47399D01*
X76312Y-47566D01*
X76507Y-47843D01*
X76756Y-48204D01*
X77006Y-48649D01*
X77228Y-49176D01*
X77367Y-49787D01*
X77395Y-50092D01*
X77423Y-50425D01*
Y-61391D01*
Y-61419D01*
Y-61475D01*
Y-61558D01*
X77395Y-61697D01*
Y-61835D01*
X77367Y-62030D01*
X77256Y-62446D01*
X77117Y-62918D01*
X76867Y-63446D01*
X76562Y-63973D01*
X76340Y-64223D01*
X76118Y-64473D01*
X76090D01*
X76062Y-64528D01*
X75979Y-64584D01*
X75896Y-64667D01*
X75618Y-64889D01*
X75257Y-65111D01*
X74785Y-65333D01*
X74258Y-65556D01*
X73647Y-65694D01*
X73314Y-65722D01*
X72981Y-65750D01*
X71454D01*
X71343Y-65722D01*
X71176D01*
X71009Y-65694D01*
X70593Y-65583D01*
X70121Y-65445D01*
X69621Y-65223D01*
X69094Y-64917D01*
X68816Y-64723D01*
X68566Y-64501D01*
X68539Y-64473D01*
X68511Y-64445D01*
X68455Y-64362D01*
X68372Y-64279D01*
X68150Y-64001D01*
X67900Y-63640D01*
X67650Y-63168D01*
X67456Y-62641D01*
X67289Y-62058D01*
X67262Y-61725D01*
X67234Y-61391D01*
Y-50425D01*
Y-50398D01*
Y-50342D01*
Y-50259D01*
X67262Y-50120D01*
Y-49981D01*
X67289Y-49815D01*
X67400Y-49398D01*
X67539Y-48898D01*
X67761Y-48399D01*
X68067Y-47871D01*
X68261Y-47621D01*
X68483Y-47371D01*
X68511Y-47344D01*
X68539Y-47316D01*
X68622Y-47260D01*
X68705Y-47149D01*
X68983Y-46955D01*
X69344Y-46705D01*
X69816Y-46455D01*
X70343Y-46233D01*
X70954Y-46094D01*
X71287Y-46067D01*
X71620Y-46039D01*
X73147D01*
X73286Y-46067D01*
D02*
G37*
G36*
X60932D02*
X61098D01*
X61265Y-46094D01*
X61681Y-46205D01*
X62181Y-46344D01*
X62709Y-46594D01*
X63236Y-46899D01*
X63486Y-47122D01*
X63736Y-47344D01*
X63764Y-47371D01*
X63791Y-47399D01*
X63958Y-47566D01*
X64152Y-47843D01*
X64402Y-48204D01*
X64652Y-48649D01*
X64874Y-49176D01*
X65013Y-49787D01*
X65041Y-50092D01*
X65068Y-50425D01*
Y-61391D01*
Y-61419D01*
Y-61475D01*
Y-61558D01*
X65041Y-61697D01*
Y-61835D01*
X65013Y-62030D01*
X64902Y-62446D01*
X64763Y-62918D01*
X64513Y-63446D01*
X64208Y-63973D01*
X63986Y-64223D01*
X63764Y-64473D01*
X63736D01*
X63708Y-64528D01*
X63625Y-64584D01*
X63541Y-64667D01*
X63264Y-64889D01*
X62903Y-65111D01*
X62431Y-65333D01*
X61904Y-65556D01*
X61293Y-65694D01*
X60960Y-65722D01*
X60627Y-65750D01*
X59100D01*
X58988Y-65722D01*
X58822D01*
X58655Y-65694D01*
X58239Y-65583D01*
X57767Y-65445D01*
X57267Y-65223D01*
X56740Y-64917D01*
X56462Y-64723D01*
X56212Y-64501D01*
X56185Y-64473D01*
X56157Y-64445D01*
X56101Y-64362D01*
X56018Y-64279D01*
X55796Y-64001D01*
X55546Y-63640D01*
X55296Y-63168D01*
X55102Y-62641D01*
X54935Y-62058D01*
X54907Y-61725D01*
X54880Y-61391D01*
Y-50425D01*
Y-50398D01*
Y-50342D01*
Y-50259D01*
X54907Y-50120D01*
Y-49981D01*
X54935Y-49815D01*
X55046Y-49398D01*
X55185Y-48898D01*
X55407Y-48399D01*
X55713Y-47871D01*
X55907Y-47621D01*
X56129Y-47371D01*
X56157Y-47344D01*
X56185Y-47316D01*
X56268Y-47260D01*
X56351Y-47149D01*
X56629Y-46955D01*
X56990Y-46705D01*
X57462Y-46455D01*
X57989Y-46233D01*
X58600Y-46094D01*
X58933Y-46067D01*
X59266Y-46039D01*
X60793D01*
X60932Y-46067D01*
D02*
G37*
G36*
X49244D02*
X49438Y-46178D01*
X49549Y-46261D01*
X49660Y-46372D01*
X49716Y-46427D01*
X49799Y-46566D01*
X49882Y-46788D01*
X49938Y-47038D01*
Y-47066D01*
X49910Y-47177D01*
X49882Y-47344D01*
X49799Y-47510D01*
X49771Y-47538D01*
X49688Y-47621D01*
X49549Y-47760D01*
X49327Y-47927D01*
X49050Y-48010D01*
X48744Y-48149D01*
X48245Y-48426D01*
X48217D01*
X48161Y-48482D01*
X48050Y-48537D01*
X47911Y-48621D01*
X47578Y-48871D01*
X47217Y-49148D01*
X47190Y-49176D01*
X47078Y-49259D01*
X46912Y-49398D01*
X46718Y-49592D01*
X46468Y-49870D01*
X46218Y-50175D01*
X45940Y-50536D01*
X45635Y-50953D01*
X45607Y-50981D01*
X45552Y-51091D01*
X45468Y-51230D01*
X45357Y-51452D01*
X45246Y-51702D01*
X45107Y-52008D01*
X44969Y-52341D01*
X44830Y-52702D01*
X44802Y-52757D01*
X44774Y-52868D01*
X44719Y-53035D01*
X44663Y-53257D01*
X44524Y-53757D01*
X44497Y-54007D01*
X44469Y-54229D01*
X48439D01*
X48550Y-54256D01*
X48717D01*
X48911Y-54284D01*
X49327Y-54395D01*
X49827Y-54534D01*
X50354Y-54784D01*
X50882Y-55089D01*
X51132Y-55311D01*
X51382Y-55533D01*
X51409Y-55561D01*
X51437Y-55589D01*
X51493Y-55672D01*
X51576Y-55756D01*
X51798Y-56033D01*
X52048Y-56394D01*
X52270Y-56866D01*
X52492Y-57394D01*
X52631Y-57977D01*
X52687Y-58310D01*
Y-58643D01*
Y-61364D01*
Y-61391D01*
Y-61447D01*
Y-61530D01*
X52659Y-61669D01*
Y-61835D01*
X52631Y-62002D01*
X52520Y-62446D01*
X52381Y-62918D01*
X52131Y-63446D01*
X51826Y-63973D01*
X51604Y-64223D01*
X51382Y-64473D01*
X51354D01*
X51326Y-64528D01*
X51243Y-64584D01*
X51160Y-64667D01*
X50882Y-64889D01*
X50521Y-65111D01*
X50049Y-65333D01*
X49522Y-65556D01*
X48939Y-65694D01*
X48605Y-65722D01*
X48272Y-65750D01*
X46718D01*
X46607Y-65722D01*
X46273Y-65694D01*
X45885Y-65583D01*
X45413Y-65445D01*
X44913Y-65223D01*
X44386Y-64917D01*
X44108Y-64723D01*
X43858Y-64501D01*
X43830Y-64473D01*
X43803Y-64445D01*
X43747Y-64362D01*
X43664Y-64279D01*
X43442Y-64001D01*
X43192Y-63640D01*
X42942Y-63168D01*
X42748Y-62641D01*
X42581Y-62058D01*
X42553Y-61725D01*
X42526Y-61391D01*
Y-55311D01*
Y-55284D01*
Y-55173D01*
Y-55034D01*
X42553Y-54812D01*
X42581Y-54562D01*
X42609Y-54256D01*
X42664Y-53896D01*
X42720Y-53535D01*
X42803Y-53118D01*
X42886Y-52702D01*
X43164Y-51786D01*
X43331Y-51341D01*
X43525Y-50869D01*
X43775Y-50398D01*
X44025Y-49925D01*
X44052Y-49898D01*
X44108Y-49815D01*
X44191Y-49676D01*
X44330Y-49481D01*
X44497Y-49287D01*
X44691Y-49037D01*
X44941Y-48759D01*
X45219Y-48454D01*
X45524Y-48149D01*
X45857Y-47843D01*
X46246Y-47510D01*
X46662Y-47205D01*
X47078Y-46899D01*
X47578Y-46622D01*
X48078Y-46344D01*
X48605Y-46122D01*
X48994Y-46039D01*
X49077D01*
X49244Y-46067D01*
D02*
G37*
G36*
X39555D02*
X39777Y-46178D01*
X39888Y-46233D01*
X39999Y-46344D01*
X40027D01*
X40055Y-46400D01*
X40166Y-46539D01*
X40277Y-46761D01*
X40332Y-46872D01*
Y-47010D01*
Y-47038D01*
Y-47066D01*
X40304Y-47205D01*
X40221Y-47427D01*
X40055Y-47649D01*
X39999Y-47705D01*
X39860Y-47788D01*
X39638Y-47899D01*
X39499Y-47927D01*
X39333Y-47954D01*
X33475D01*
Y-54284D01*
X36085D01*
X36223Y-54312D01*
X36390D01*
X36557Y-54340D01*
X36973Y-54451D01*
X37473Y-54590D01*
X38000Y-54839D01*
X38528Y-55145D01*
X38778Y-55367D01*
X39028Y-55589D01*
X39055Y-55617D01*
X39083Y-55644D01*
X39222Y-55811D01*
X39444Y-56089D01*
X39694Y-56450D01*
X39916Y-56894D01*
X40138Y-57421D01*
X40277Y-58032D01*
X40332Y-58337D01*
Y-58671D01*
Y-61391D01*
Y-61419D01*
Y-61475D01*
Y-61558D01*
X40304Y-61697D01*
Y-61835D01*
X40277Y-62030D01*
X40166Y-62446D01*
X40027Y-62918D01*
X39777Y-63446D01*
X39472Y-63973D01*
X39250Y-64223D01*
X39028Y-64473D01*
X39000D01*
X38972Y-64528D01*
X38889Y-64584D01*
X38805Y-64667D01*
X38528Y-64889D01*
X38167Y-65111D01*
X37695Y-65333D01*
X37167Y-65556D01*
X36584Y-65694D01*
X36251Y-65722D01*
X35918Y-65750D01*
X32392D01*
X32226Y-65722D01*
X32004Y-65639D01*
X31781Y-65500D01*
Y-65472D01*
X31754Y-65445D01*
X31670Y-65306D01*
X31559Y-65084D01*
X31532Y-64806D01*
Y-64778D01*
X31559Y-64640D01*
X31615Y-64473D01*
X31754Y-64223D01*
Y-64195D01*
X31809Y-64167D01*
X31920Y-64029D01*
X32143Y-63890D01*
X32309Y-63862D01*
X32476Y-63834D01*
X36085D01*
X36279Y-63807D01*
X36529Y-63751D01*
X36806Y-63668D01*
X37084Y-63529D01*
X37390Y-63362D01*
X37667Y-63140D01*
X37695Y-63113D01*
X37778Y-63001D01*
X37889Y-62863D01*
X38028Y-62641D01*
X38167Y-62391D01*
X38278Y-62085D01*
X38361Y-61752D01*
X38389Y-61391D01*
Y-58643D01*
Y-58587D01*
Y-58476D01*
X38361Y-58282D01*
X38306Y-58060D01*
X38222Y-57782D01*
X38084Y-57505D01*
X37917Y-57199D01*
X37667Y-56922D01*
X37639Y-56894D01*
X37528Y-56811D01*
X37390Y-56700D01*
X37167Y-56561D01*
X36918Y-56422D01*
X36612Y-56311D01*
X36279Y-56227D01*
X35918Y-56200D01*
X32448D01*
X32337Y-56172D01*
X32170Y-56144D01*
X32004Y-56089D01*
X31837Y-55978D01*
X31670Y-55811D01*
X31559Y-55561D01*
X31532Y-55256D01*
Y-47010D01*
Y-46955D01*
X31559Y-46844D01*
X31587Y-46705D01*
X31643Y-46511D01*
X31754Y-46344D01*
X31920Y-46178D01*
X32170Y-46067D01*
X32476Y-46039D01*
X39388D01*
X39555Y-46067D01*
D02*
G37*
G36*
X11432Y-46094D02*
X11571Y-46178D01*
X11737Y-46261D01*
X11876Y-46400D01*
X12015Y-46594D01*
X12126Y-46872D01*
X16929Y-64584D01*
X16956Y-64806D01*
Y-64834D01*
Y-64862D01*
X16929Y-65028D01*
X16818Y-65250D01*
X16762Y-65361D01*
X16651Y-65500D01*
X16596Y-65528D01*
X16457Y-65611D01*
X16235Y-65722D01*
X15957Y-65750D01*
X15902D01*
X15763Y-65722D01*
X15596Y-65667D01*
X15402Y-65583D01*
X15374Y-65556D01*
X15263Y-65472D01*
X15152Y-65333D01*
X15069Y-65139D01*
X13764Y-60281D01*
X8628D01*
X7351Y-64973D01*
Y-65000D01*
Y-65028D01*
X7295Y-65195D01*
X7184Y-65389D01*
X7018Y-65556D01*
X6962Y-65583D01*
X6851Y-65639D01*
X6657Y-65722D01*
X6407Y-65750D01*
X6351D01*
X6185Y-65722D01*
X5963Y-65639D01*
X5713Y-65500D01*
X5657Y-65445D01*
X5574Y-65306D01*
X5491Y-65056D01*
X5435Y-64750D01*
X5463Y-64584D01*
X10266Y-46872D01*
Y-46844D01*
X10321Y-46733D01*
X10377Y-46622D01*
X10460Y-46455D01*
X10599Y-46316D01*
X10738Y-46178D01*
X10932Y-46094D01*
X11182Y-46067D01*
X11293D01*
X11432Y-46094D01*
D02*
G37*
G36*
X-11250Y-46067D02*
X-11028Y-46150D01*
X-10806Y-46316D01*
X-10778D01*
X-10750Y-46372D01*
X-10639Y-46483D01*
X-10528Y-46705D01*
X-10473Y-46844D01*
Y-47010D01*
Y-51508D01*
X-8640D01*
X-8474Y-51536D01*
X-8252Y-51647D01*
X-8141Y-51730D01*
X-8029Y-51841D01*
X-8002D01*
X-7974Y-51897D01*
X-7863Y-52035D01*
X-7752Y-52230D01*
X-7696Y-52369D01*
Y-52480D01*
Y-52507D01*
Y-52535D01*
X-7724Y-52674D01*
X-7807Y-52896D01*
X-7974Y-53118D01*
X-8029Y-53174D01*
X-8168Y-53257D01*
X-8390Y-53368D01*
X-8529Y-53396D01*
X-8696Y-53424D01*
X-10473D01*
Y-64806D01*
Y-64834D01*
Y-64889D01*
X-10500Y-65056D01*
X-10584Y-65278D01*
X-10750Y-65500D01*
X-10806Y-65528D01*
X-10944Y-65611D01*
X-11194Y-65722D01*
X-11472Y-65750D01*
X-11500D01*
X-11611Y-65722D01*
X-11805Y-65667D01*
X-12083Y-65583D01*
X-12138Y-65528D01*
X-12249Y-65389D01*
X-12360Y-65139D01*
X-12388Y-64973D01*
X-12416Y-64806D01*
Y-53424D01*
X-12888D01*
X-13054Y-53396D01*
X-13276Y-53313D01*
X-13499Y-53174D01*
Y-53146D01*
X-13526Y-53118D01*
X-13610Y-52952D01*
X-13721Y-52730D01*
X-13749Y-52480D01*
Y-52452D01*
X-13721Y-52313D01*
X-13665Y-52147D01*
X-13526Y-51897D01*
Y-51869D01*
X-13471Y-51841D01*
X-13360Y-51702D01*
X-13138Y-51564D01*
X-12971Y-51536D01*
X-12804Y-51508D01*
X-12416D01*
Y-47010D01*
Y-46983D01*
Y-46955D01*
X-12388Y-46816D01*
X-12305Y-46594D01*
X-12138Y-46372D01*
Y-46344D01*
X-12083Y-46316D01*
X-11944Y-46205D01*
X-11750Y-46094D01*
X-11611Y-46039D01*
X-11416D01*
X-11250Y-46067D01*
D02*
G37*
G36*
X-18579Y-51564D02*
X-18274Y-51619D01*
X-17941Y-51730D01*
X-17580Y-51869D01*
X-17219Y-52091D01*
X-16886Y-52396D01*
X-16858Y-52424D01*
X-16747Y-52563D01*
X-16608Y-52730D01*
X-16414Y-53007D01*
X-16247Y-53313D01*
X-16108Y-53673D01*
X-15997Y-54090D01*
X-15969Y-54534D01*
Y-64806D01*
Y-64834D01*
Y-64889D01*
X-15997Y-65056D01*
X-16080Y-65278D01*
X-16247Y-65500D01*
X-16303Y-65528D01*
X-16441Y-65611D01*
X-16691Y-65722D01*
X-16969Y-65750D01*
X-16997D01*
X-17108Y-65722D01*
X-17302Y-65667D01*
X-17580Y-65556D01*
X-17635Y-65500D01*
X-17746Y-65361D01*
X-17857Y-65139D01*
X-17885Y-64973D01*
X-17913Y-64806D01*
Y-54534D01*
Y-54506D01*
Y-54451D01*
X-17941Y-54367D01*
Y-54256D01*
X-18052Y-54007D01*
X-18135Y-53868D01*
X-18246Y-53757D01*
X-18274Y-53729D01*
X-18302Y-53701D01*
X-18468Y-53590D01*
X-18718Y-53479D01*
X-18857Y-53424D01*
X-22827D01*
Y-64806D01*
Y-64834D01*
Y-64889D01*
X-22854Y-65056D01*
X-22938Y-65278D01*
X-23104Y-65500D01*
X-23160Y-65528D01*
X-23299Y-65611D01*
X-23549Y-65722D01*
X-23826Y-65750D01*
X-23854D01*
X-23965Y-65722D01*
X-24159Y-65667D01*
X-24437Y-65556D01*
X-24492Y-65500D01*
X-24604Y-65361D01*
X-24715Y-65139D01*
X-24742Y-64973D01*
X-24770Y-64806D01*
Y-52480D01*
Y-52424D01*
X-24742Y-52313D01*
X-24715Y-52174D01*
X-24659Y-51980D01*
X-24548Y-51813D01*
X-24381Y-51647D01*
X-24132Y-51536D01*
X-23826Y-51508D01*
X-18801D01*
X-18579Y-51564D01*
D02*
G37*
G36*
X-27713Y-51536D02*
X-27491Y-51619D01*
X-27269Y-51758D01*
X-27241D01*
X-27213Y-51813D01*
X-27102Y-51924D01*
X-26991Y-52147D01*
X-26936Y-52285D01*
Y-52452D01*
Y-64806D01*
Y-64862D01*
X-26963Y-65000D01*
X-27047Y-65223D01*
X-27213Y-65500D01*
X-27241D01*
X-27269Y-65528D01*
X-27435Y-65611D01*
X-27657Y-65722D01*
X-27935Y-65750D01*
X-27963D01*
X-28074Y-65722D01*
X-28268Y-65667D01*
X-28546Y-65583D01*
X-28601Y-65528D01*
X-28712Y-65389D01*
X-28823Y-65139D01*
X-28851Y-64973D01*
X-28879Y-64806D01*
Y-52452D01*
Y-52396D01*
X-28851Y-52258D01*
X-28768Y-52063D01*
X-28601Y-51841D01*
Y-51813D01*
X-28546Y-51786D01*
X-28407Y-51674D01*
X-28213Y-51564D01*
X-28074Y-51508D01*
X-27879D01*
X-27713Y-51536D01*
D02*
G37*
G36*
X-56613Y-46067D02*
X-56391Y-46150D01*
X-56169Y-46316D01*
X-56141D01*
X-56114Y-46372D01*
X-56002Y-46483D01*
X-55891Y-46705D01*
X-55836Y-46844D01*
Y-47010D01*
Y-62752D01*
Y-62779D01*
Y-62835D01*
X-55808Y-62918D01*
Y-63029D01*
X-55697Y-63279D01*
X-55642Y-63418D01*
X-55531Y-63529D01*
X-55503D01*
X-55475Y-63585D01*
X-55308Y-63668D01*
X-55086Y-63779D01*
X-54948Y-63807D01*
X-54781Y-63834D01*
X-54031D01*
X-53865Y-63862D01*
X-53643Y-63973D01*
X-53504Y-64057D01*
X-53393Y-64168D01*
X-53365D01*
X-53337Y-64223D01*
X-53226Y-64362D01*
X-53143Y-64556D01*
X-53088Y-64695D01*
Y-64806D01*
Y-64834D01*
Y-64862D01*
X-53115Y-65000D01*
X-53198Y-65223D01*
X-53337Y-65445D01*
X-53393Y-65500D01*
X-53532Y-65583D01*
X-53754Y-65694D01*
X-53893Y-65722D01*
X-54059Y-65750D01*
X-54837D01*
X-54975Y-65722D01*
X-55225Y-65694D01*
X-55503Y-65639D01*
X-55836Y-65528D01*
X-56197Y-65361D01*
X-56558Y-65167D01*
X-56891Y-64862D01*
X-56919Y-64806D01*
X-57030Y-64695D01*
X-57168Y-64501D01*
X-57335Y-64251D01*
X-57502Y-63945D01*
X-57641Y-63585D01*
X-57751Y-63196D01*
X-57779Y-62752D01*
Y-47010D01*
Y-46983D01*
Y-46955D01*
X-57751Y-46816D01*
X-57668Y-46594D01*
X-57502Y-46372D01*
Y-46344D01*
X-57446Y-46316D01*
X-57307Y-46205D01*
X-57113Y-46094D01*
X-56974Y-46039D01*
X-56780D01*
X-56613Y-46067D01*
D02*
G37*
G36*
X-74492D02*
X-74270Y-46150D01*
X-74048Y-46316D01*
X-74020D01*
X-73992Y-46372D01*
X-73881Y-46483D01*
X-73770Y-46705D01*
X-73715Y-46844D01*
Y-47010D01*
Y-51508D01*
X-71883D01*
X-71716Y-51536D01*
X-71494Y-51647D01*
X-71383Y-51730D01*
X-71272Y-51841D01*
X-71244D01*
X-71216Y-51897D01*
X-71105Y-52035D01*
X-70994Y-52230D01*
X-70939Y-52369D01*
Y-52480D01*
Y-52507D01*
Y-52535D01*
X-70966Y-52674D01*
X-71050Y-52896D01*
X-71216Y-53118D01*
X-71272Y-53174D01*
X-71411Y-53257D01*
X-71633Y-53368D01*
X-71771Y-53396D01*
X-71938Y-53424D01*
X-73715D01*
Y-64806D01*
Y-64834D01*
Y-64889D01*
X-73743Y-65056D01*
X-73826Y-65278D01*
X-73992Y-65500D01*
X-74048Y-65528D01*
X-74187Y-65611D01*
X-74437Y-65722D01*
X-74714Y-65750D01*
X-74742D01*
X-74853Y-65722D01*
X-75047Y-65667D01*
X-75325Y-65583D01*
X-75381Y-65528D01*
X-75492Y-65389D01*
X-75603Y-65139D01*
X-75630Y-64973D01*
X-75658Y-64806D01*
Y-53424D01*
X-76130D01*
X-76297Y-53396D01*
X-76519Y-53313D01*
X-76741Y-53174D01*
Y-53146D01*
X-76769Y-53118D01*
X-76852Y-52952D01*
X-76963Y-52730D01*
X-76991Y-52480D01*
Y-52452D01*
X-76963Y-52313D01*
X-76908Y-52147D01*
X-76769Y-51897D01*
Y-51869D01*
X-76713Y-51841D01*
X-76602Y-51702D01*
X-76380Y-51564D01*
X-76213Y-51536D01*
X-76047Y-51508D01*
X-75658D01*
Y-47010D01*
Y-46983D01*
Y-46955D01*
X-75630Y-46816D01*
X-75547Y-46594D01*
X-75381Y-46372D01*
Y-46344D01*
X-75325Y-46316D01*
X-75186Y-46205D01*
X-74992Y-46094D01*
X-74853Y-46039D01*
X-74659D01*
X-74492Y-46067D01*
D02*
G37*
G36*
X-81821Y-51564D02*
X-81516Y-51619D01*
X-81183Y-51730D01*
X-80822Y-51869D01*
X-80461Y-52091D01*
X-80128Y-52396D01*
X-80100Y-52424D01*
X-79989Y-52563D01*
X-79850Y-52730D01*
X-79656Y-53007D01*
X-79489Y-53313D01*
X-79351Y-53674D01*
X-79240Y-54090D01*
X-79212Y-54534D01*
Y-64806D01*
Y-64834D01*
Y-64889D01*
X-79240Y-65056D01*
X-79323Y-65278D01*
X-79489Y-65500D01*
X-79545Y-65528D01*
X-79684Y-65611D01*
X-79934Y-65722D01*
X-80211Y-65750D01*
X-80239D01*
X-80350Y-65722D01*
X-80544Y-65667D01*
X-80822Y-65556D01*
X-80878Y-65500D01*
X-80989Y-65361D01*
X-81100Y-65139D01*
X-81127Y-64973D01*
X-81155Y-64806D01*
Y-54534D01*
Y-54506D01*
Y-54451D01*
X-81183Y-54367D01*
Y-54257D01*
X-81294Y-54007D01*
X-81377Y-53868D01*
X-81488Y-53757D01*
X-81516Y-53729D01*
X-81544Y-53701D01*
X-81710Y-53590D01*
X-81960Y-53479D01*
X-82099Y-53424D01*
X-86069D01*
Y-64806D01*
Y-64834D01*
Y-64889D01*
X-86097Y-65056D01*
X-86180Y-65278D01*
X-86347Y-65500D01*
X-86402Y-65528D01*
X-86541Y-65611D01*
X-86791Y-65722D01*
X-87068Y-65750D01*
X-87096D01*
X-87207Y-65722D01*
X-87402Y-65667D01*
X-87679Y-65556D01*
X-87735Y-65500D01*
X-87846Y-65361D01*
X-87957Y-65139D01*
X-87985Y-64973D01*
X-88012Y-64806D01*
Y-52480D01*
Y-52424D01*
X-87985Y-52313D01*
X-87957Y-52174D01*
X-87901Y-51980D01*
X-87790Y-51813D01*
X-87624Y-51647D01*
X-87374Y-51536D01*
X-87068Y-51508D01*
X-82044D01*
X-81821Y-51564D01*
D02*
G37*
G36*
X-92815D02*
X-92510Y-51619D01*
X-92177Y-51730D01*
X-91816Y-51869D01*
X-91455Y-52091D01*
X-91094Y-52396D01*
X-91066Y-52424D01*
X-90955Y-52563D01*
X-90816Y-52730D01*
X-90650Y-53007D01*
X-90483Y-53313D01*
X-90344Y-53674D01*
X-90233Y-54090D01*
X-90206Y-54534D01*
Y-58643D01*
Y-58671D01*
X-90233Y-58782D01*
X-90261Y-58948D01*
X-90344Y-59115D01*
X-90455Y-59281D01*
X-90650Y-59448D01*
X-90900Y-59559D01*
X-91233Y-59587D01*
X-97063D01*
Y-62752D01*
Y-62779D01*
Y-62835D01*
X-97035Y-62918D01*
Y-63029D01*
X-96924Y-63279D01*
X-96868Y-63418D01*
X-96757Y-63529D01*
X-96730D01*
X-96702Y-63585D01*
X-96535Y-63668D01*
X-96313Y-63779D01*
X-96174Y-63807D01*
X-96008Y-63834D01*
X-91150D01*
X-90983Y-63862D01*
X-90761Y-63973D01*
X-90650Y-64029D01*
X-90539Y-64140D01*
X-90511D01*
X-90483Y-64195D01*
X-90372Y-64334D01*
X-90261Y-64556D01*
X-90206Y-64667D01*
Y-64806D01*
Y-64834D01*
Y-64862D01*
X-90233Y-65000D01*
X-90317Y-65223D01*
X-90483Y-65445D01*
X-90539Y-65500D01*
X-90677Y-65583D01*
X-90900Y-65694D01*
X-91038Y-65722D01*
X-91205Y-65750D01*
X-96063D01*
X-96230Y-65722D01*
X-96452Y-65694D01*
X-96757Y-65639D01*
X-97091Y-65528D01*
X-97451Y-65389D01*
X-97812Y-65167D01*
X-98146Y-64889D01*
X-98173Y-64862D01*
X-98284Y-64723D01*
X-98423Y-64556D01*
X-98562Y-64306D01*
X-98729Y-64001D01*
X-98867Y-63612D01*
X-98978Y-63196D01*
X-99006Y-62752D01*
Y-54534D01*
Y-54479D01*
X-98978Y-54340D01*
X-98951Y-54118D01*
X-98895Y-53840D01*
X-98812Y-53535D01*
X-98645Y-53174D01*
X-98451Y-52813D01*
X-98173Y-52452D01*
X-98146Y-52424D01*
X-98007Y-52313D01*
X-97840Y-52147D01*
X-97590Y-51980D01*
X-97257Y-51813D01*
X-96896Y-51647D01*
X-96480Y-51536D01*
X-96008Y-51508D01*
X-93037D01*
X-92815Y-51564D01*
D02*
G37*
G36*
X-101977Y-46067D02*
X-101755Y-46150D01*
X-101532Y-46316D01*
X-101505D01*
X-101477Y-46372D01*
X-101366Y-46483D01*
X-101255Y-46705D01*
X-101199Y-46844D01*
Y-47010D01*
Y-64806D01*
Y-64834D01*
X-101227Y-64945D01*
X-101255Y-65111D01*
X-101310Y-65278D01*
X-101449Y-65445D01*
X-101616Y-65611D01*
X-101866Y-65722D01*
X-102199Y-65750D01*
X-107029D01*
X-107196Y-65722D01*
X-107418Y-65694D01*
X-107724Y-65639D01*
X-108057Y-65528D01*
X-108418Y-65389D01*
X-108778Y-65167D01*
X-109139Y-64889D01*
X-109167Y-64862D01*
X-109278Y-64723D01*
X-109417Y-64528D01*
X-109556Y-64279D01*
X-109722Y-63973D01*
X-109861Y-63612D01*
X-109972Y-63196D01*
X-110000Y-62752D01*
Y-54534D01*
Y-54506D01*
Y-54479D01*
X-109972Y-54312D01*
X-109944Y-54090D01*
X-109889Y-53784D01*
X-109778Y-53451D01*
X-109639Y-53090D01*
X-109417Y-52730D01*
X-109139Y-52396D01*
X-109112Y-52369D01*
X-108973Y-52258D01*
X-108778Y-52119D01*
X-108529Y-51952D01*
X-108223Y-51786D01*
X-107862Y-51647D01*
X-107446Y-51536D01*
X-106974Y-51508D01*
X-103143D01*
Y-47010D01*
Y-46983D01*
Y-46955D01*
X-103115Y-46816D01*
X-103032Y-46594D01*
X-102865Y-46372D01*
Y-46344D01*
X-102810Y-46316D01*
X-102671Y-46205D01*
X-102477Y-46094D01*
X-102338Y-46039D01*
X-102143D01*
X-101977Y-46067D01*
D02*
G37*
G36*
X-60944Y-51536D02*
X-60805Y-51564D01*
X-60611Y-51619D01*
X-60417Y-51758D01*
X-60278Y-51924D01*
X-60167Y-52147D01*
X-60111Y-52480D01*
Y-62752D01*
Y-62779D01*
Y-62807D01*
X-60084Y-62974D01*
X-60028Y-63196D01*
X-59889Y-63501D01*
X-59861Y-63529D01*
X-59778Y-63640D01*
X-59612Y-63779D01*
X-59390Y-63918D01*
X-59362D01*
X-59278Y-63973D01*
X-59167Y-64029D01*
X-59029Y-64112D01*
X-58918Y-64223D01*
X-58807Y-64390D01*
X-58723Y-64584D01*
X-58696Y-64806D01*
Y-64834D01*
Y-64862D01*
X-58723Y-65028D01*
X-58807Y-65250D01*
X-58973Y-65500D01*
X-59029Y-65556D01*
X-59167Y-65639D01*
X-59390Y-65722D01*
X-59695Y-65778D01*
X-59945Y-65750D01*
X-59973D01*
X-60000Y-65722D01*
X-60195Y-65667D01*
X-60444Y-65528D01*
X-60722Y-65334D01*
X-60750Y-65306D01*
X-60833Y-65250D01*
X-60944Y-65084D01*
X-61027Y-64973D01*
X-61111Y-64834D01*
X-61139Y-64862D01*
X-61222Y-64973D01*
X-61388Y-65111D01*
X-61610Y-65278D01*
X-61916Y-65472D01*
X-62249Y-65611D01*
X-62666Y-65722D01*
X-63165Y-65750D01*
X-65969D01*
X-66136Y-65722D01*
X-66358Y-65694D01*
X-66663Y-65639D01*
X-66996Y-65528D01*
X-67357Y-65389D01*
X-67718Y-65167D01*
X-68051Y-64889D01*
X-68079Y-64862D01*
X-68190Y-64723D01*
X-68329Y-64556D01*
X-68468Y-64306D01*
X-68634Y-64001D01*
X-68773Y-63612D01*
X-68884Y-63196D01*
X-68912Y-62752D01*
Y-54534D01*
Y-54479D01*
X-68884Y-54340D01*
X-68856Y-54118D01*
X-68801Y-53840D01*
X-68718Y-53535D01*
X-68551Y-53174D01*
X-68357Y-52813D01*
X-68079Y-52452D01*
X-68051Y-52424D01*
X-67913Y-52313D01*
X-67746Y-52147D01*
X-67496Y-51980D01*
X-67163Y-51813D01*
X-66802Y-51647D01*
X-66386Y-51536D01*
X-65914Y-51508D01*
X-61055D01*
X-60944Y-51536D01*
D02*
G37*
G36*
X50393Y115454D02*
X50578Y115407D01*
X51134Y115269D01*
X51365Y115130D01*
X51597Y114945D01*
X51643Y114898D01*
X51689Y114806D01*
X51782Y114667D01*
X51874Y114482D01*
X52106Y113973D01*
X52152Y113695D01*
X52198Y113371D01*
Y113325D01*
Y113279D01*
X52152Y113001D01*
X51967Y112584D01*
X51874Y112307D01*
X51689Y112029D01*
X51643Y111983D01*
X51597Y111890D01*
X51458Y111751D01*
X51273Y111613D01*
X51041Y111474D01*
X50764Y111335D01*
X50393Y111242D01*
X50023Y111196D01*
X49884D01*
X49699Y111242D01*
X49514Y111289D01*
X49283Y111381D01*
X49005Y111474D01*
X48774Y111659D01*
X48496Y111890D01*
X48450Y111937D01*
X48403Y111983D01*
X48264Y112122D01*
X48126Y112307D01*
X47894Y112769D01*
X47848Y113047D01*
X47802Y113371D01*
Y113418D01*
Y113510D01*
X47848Y113649D01*
X47894Y113834D01*
X48033Y114297D01*
X48218Y114528D01*
X48403Y114806D01*
X48450Y114852D01*
X48496Y114898D01*
X48635Y115037D01*
X48820Y115130D01*
X49051Y115269D01*
X49329Y115407D01*
X49653Y115454D01*
X50023Y115500D01*
X50208D01*
X50393Y115454D01*
D02*
G37*
G36*
X70861Y1499D02*
X70972Y1462D01*
X71083Y1388D01*
X71101Y1370D01*
X71157Y1296D01*
X71213Y1185D01*
X71231Y1055D01*
X71213Y944D01*
X69472Y-7796D01*
X72175D01*
Y-5481D01*
Y-5463D01*
X72194Y-5389D01*
X72231Y-5278D01*
X72305Y-5167D01*
X72324Y-5148D01*
X72398Y-5074D01*
X72509Y-5019D01*
X72638Y-5000D01*
X72675D01*
X72750Y-5019D01*
X72842Y-5056D01*
X72953Y-5130D01*
X72972Y-5148D01*
X73027Y-5222D01*
X73083Y-5333D01*
X73101Y-5481D01*
Y-7796D01*
X74527D01*
X74601Y-7814D01*
X74694Y-7851D01*
X74805Y-7944D01*
X74823Y-7963D01*
X74879Y-8037D01*
X74934Y-8148D01*
X74953Y-8259D01*
Y-8277D01*
X74934Y-8352D01*
X74897Y-8463D01*
X74823Y-8574D01*
X74805Y-8592D01*
X74749Y-8648D01*
X74638Y-8703D01*
X74490Y-8722D01*
X73101D01*
Y-11073D01*
Y-11111D01*
X73083Y-11203D01*
X73046Y-11314D01*
X72972Y-11425D01*
X72953Y-11444D01*
X72879Y-11462D01*
X72768Y-11499D01*
X72638Y-11518D01*
X72620D01*
X72564Y-11499D01*
X72453Y-11481D01*
X72305Y-11425D01*
X72287Y-11407D01*
X72249Y-11333D01*
X72194Y-11222D01*
X72175Y-11073D01*
Y-8722D01*
X68861D01*
X68787Y-8703D01*
X68676Y-8666D01*
X68565Y-8592D01*
X68546Y-8574D01*
X68509Y-8500D01*
X68454Y-8407D01*
X68435Y-8277D01*
Y-8166D01*
X70305Y1129D01*
Y1166D01*
X70324Y1240D01*
X70379Y1333D01*
X70453Y1407D01*
X70750Y1518D01*
X70787D01*
X70861Y1499D01*
D02*
G37*
G36*
X63954D02*
X64176Y1481D01*
X64454Y1407D01*
X64750Y1314D01*
X65084Y1166D01*
X65435Y962D01*
X65584Y833D01*
X65750Y685D01*
X65769D01*
X65787Y648D01*
X65880Y536D01*
X66009Y370D01*
X66176Y129D01*
X66324Y-149D01*
X66454Y-482D01*
X66546Y-871D01*
X66583Y-1075D01*
Y-1278D01*
Y-3148D01*
Y-3167D01*
Y-3204D01*
Y-3259D01*
X66565Y-3334D01*
X66546Y-3556D01*
X66472Y-3815D01*
X66380Y-4130D01*
X66232Y-4463D01*
X66028Y-4796D01*
X65898Y-4963D01*
X65750Y-5111D01*
X65713Y-5148D01*
X65602Y-5241D01*
X65435Y-5370D01*
X65195Y-5519D01*
X64917Y-5667D01*
X64565Y-5796D01*
X64195Y-5889D01*
X63991Y-5907D01*
X63769Y-5926D01*
X63658D01*
X66509Y-10833D01*
X66528Y-10851D01*
X66546Y-10907D01*
X66565Y-10981D01*
X66583Y-11073D01*
Y-11111D01*
X66565Y-11185D01*
X66509Y-11277D01*
X66417Y-11407D01*
X66398Y-11425D01*
X66324Y-11462D01*
X66213Y-11499D01*
X66083Y-11518D01*
X66009D01*
X65880Y-11481D01*
X65861Y-11462D01*
X65824Y-11444D01*
X65769Y-11370D01*
X65713Y-11296D01*
X62565Y-5926D01*
X60973D01*
Y-11073D01*
Y-11111D01*
X60954Y-11203D01*
X60917Y-11314D01*
X60843Y-11425D01*
X60825Y-11444D01*
X60751Y-11462D01*
X60640Y-11499D01*
X60510Y-11518D01*
X60491D01*
X60436Y-11499D01*
X60325Y-11481D01*
X60177Y-11425D01*
X60158Y-11407D01*
X60121Y-11333D01*
X60066Y-11222D01*
X60047Y-11073D01*
Y1036D01*
Y1055D01*
Y1111D01*
X60066Y1185D01*
X60103Y1277D01*
X60158Y1370D01*
X60251Y1444D01*
X60362Y1499D01*
X60510Y1518D01*
X63880D01*
X63954Y1499D01*
D02*
G37*
G36*
X70935Y22749D02*
X71139Y22731D01*
X71416Y22675D01*
X71731Y22564D01*
X72064Y22416D01*
X72398Y22231D01*
X72564Y22101D01*
X72712Y21953D01*
X72731D01*
X72749Y21916D01*
X72842Y21805D01*
X72972Y21638D01*
X73120Y21398D01*
X73268Y21120D01*
X73397Y20768D01*
X73490Y20398D01*
X73527Y20194D01*
Y19972D01*
Y19028D01*
Y18731D01*
Y18546D01*
X73453Y18361D01*
Y18342D01*
Y18324D01*
X73435Y18268D01*
X73416Y18194D01*
X73361Y18028D01*
X73268Y17824D01*
X73249Y17805D01*
X73212Y17731D01*
X73157Y17639D01*
X73083Y17509D01*
X72972Y17361D01*
X72824Y17213D01*
X72675Y17028D01*
X72490Y16861D01*
X72527Y16842D01*
X72601Y16805D01*
X72712Y16731D01*
X72860Y16620D01*
X73027Y16472D01*
X73194Y16306D01*
X73379Y16083D01*
X73546Y15843D01*
X73564Y15806D01*
X73620Y15732D01*
X73694Y15583D01*
X73768Y15398D01*
X73842Y15176D01*
X73916Y14935D01*
X73972Y14658D01*
X73990Y14380D01*
Y12510D01*
Y12491D01*
Y12454D01*
Y12399D01*
X73972Y12325D01*
X73953Y12102D01*
X73879Y11825D01*
X73786Y11510D01*
X73638Y11177D01*
X73435Y10843D01*
X73305Y10676D01*
X73157Y10528D01*
X73120Y10491D01*
X73009Y10399D01*
X72842Y10269D01*
X72601Y10139D01*
X72323Y9991D01*
X71990Y9862D01*
X71601Y9769D01*
X71398Y9751D01*
X71194Y9732D01*
X68824D01*
X68731Y9751D01*
X68620Y9788D01*
X68509Y9862D01*
X68491Y9880D01*
X68454Y9954D01*
X68417Y10065D01*
X68398Y10195D01*
Y10214D01*
X68417Y10269D01*
X68454Y10343D01*
X68509Y10473D01*
X68528Y10510D01*
X68602Y10565D01*
X68713Y10621D01*
X68861Y10658D01*
X71324D01*
X71472Y10695D01*
X71657Y10732D01*
X71861Y10788D01*
X72083Y10880D01*
X72305Y11010D01*
X72509Y11195D01*
X72527Y11214D01*
X72601Y11288D01*
X72694Y11399D01*
X72786Y11565D01*
X72898Y11751D01*
X72972Y11973D01*
X73046Y12232D01*
X73064Y12510D01*
Y14380D01*
Y14417D01*
Y14509D01*
X73046Y14658D01*
X72990Y14843D01*
X72935Y15046D01*
X72842Y15269D01*
X72712Y15491D01*
X72527Y15695D01*
X72509Y15713D01*
X72435Y15787D01*
X72323Y15880D01*
X72157Y15972D01*
X71972Y16083D01*
X71731Y16157D01*
X71472Y16231D01*
X71194Y16250D01*
X70694D01*
X70602Y16269D01*
X70490Y16306D01*
X70379Y16380D01*
X70361Y16398D01*
X70324Y16472D01*
X70287Y16583D01*
X70268Y16713D01*
Y16731D01*
X70287Y16787D01*
X70324Y16861D01*
X70379Y16991D01*
X70398Y17028D01*
X70472Y17083D01*
X70583Y17139D01*
X70731Y17176D01*
X70861D01*
X71009Y17213D01*
X71194Y17250D01*
X71398Y17306D01*
X71620Y17398D01*
X71842Y17528D01*
X72046Y17713D01*
X72064Y17731D01*
X72138Y17805D01*
X72231Y17917D01*
X72323Y18083D01*
X72435Y18268D01*
X72509Y18491D01*
X72583Y18750D01*
X72601Y19028D01*
Y19972D01*
Y20009D01*
Y20101D01*
X72564Y20250D01*
X72527Y20435D01*
X72472Y20638D01*
X72361Y20861D01*
X72231Y21083D01*
X72046Y21286D01*
X72027Y21305D01*
X71953Y21379D01*
X71842Y21472D01*
X71675Y21564D01*
X71490Y21675D01*
X71268Y21749D01*
X71009Y21823D01*
X70731Y21842D01*
X68824D01*
X68731Y21860D01*
X68620Y21898D01*
X68509Y21972D01*
X68491Y21990D01*
X68454Y22064D01*
X68417Y22175D01*
X68398Y22305D01*
Y22324D01*
X68417Y22379D01*
X68454Y22453D01*
X68509Y22583D01*
X68528Y22620D01*
X68602Y22675D01*
X68713Y22731D01*
X68861Y22768D01*
X70842D01*
X70935Y22749D01*
D02*
G37*
G36*
X63917D02*
X64139Y22731D01*
X64417Y22657D01*
X64713Y22564D01*
X65047Y22416D01*
X65398Y22212D01*
X65546Y22083D01*
X65713Y21935D01*
X65732D01*
X65750Y21898D01*
X65843Y21786D01*
X65972Y21620D01*
X66139Y21379D01*
X66287Y21101D01*
X66417Y20768D01*
X66509Y20379D01*
X66546Y20175D01*
Y19972D01*
Y18102D01*
Y18083D01*
Y18046D01*
Y17991D01*
X66528Y17917D01*
X66509Y17694D01*
X66435Y17435D01*
X66343Y17120D01*
X66195Y16787D01*
X65991Y16454D01*
X65861Y16287D01*
X65713Y16139D01*
X65676Y16102D01*
X65565Y16009D01*
X65398Y15880D01*
X65158Y15732D01*
X64880Y15583D01*
X64528Y15454D01*
X64158Y15361D01*
X63954Y15343D01*
X63732Y15324D01*
X63621D01*
X66472Y10417D01*
X66491Y10399D01*
X66509Y10343D01*
X66528Y10269D01*
X66546Y10177D01*
Y10139D01*
X66528Y10065D01*
X66472Y9973D01*
X66380Y9843D01*
X66361Y9825D01*
X66287Y9788D01*
X66176Y9751D01*
X66046Y9732D01*
X65972D01*
X65843Y9769D01*
X65824Y9788D01*
X65787Y9806D01*
X65732Y9880D01*
X65676Y9954D01*
X62528Y15324D01*
X60936D01*
Y10177D01*
Y10139D01*
X60917Y10047D01*
X60880Y9936D01*
X60806Y9825D01*
X60788Y9806D01*
X60714Y9788D01*
X60602Y9751D01*
X60473Y9732D01*
X60454D01*
X60399Y9751D01*
X60288Y9769D01*
X60140Y9825D01*
X60121Y9843D01*
X60084Y9917D01*
X60029Y10028D01*
X60010Y10177D01*
Y22286D01*
Y22305D01*
Y22360D01*
X60029Y22434D01*
X60065Y22527D01*
X60121Y22620D01*
X60214Y22694D01*
X60325Y22749D01*
X60473Y22768D01*
X63843D01*
X63917Y22749D01*
D02*
G37*
G36*
X4731Y41499D02*
X4842D01*
X4990Y41462D01*
X5305Y41407D01*
X5657Y41296D01*
X6064Y41129D01*
X6268Y41018D01*
X6472Y40907D01*
X6675Y40759D01*
X6879Y40592D01*
X6898Y40574D01*
X6934Y40555D01*
X6990Y40499D01*
X7046Y40425D01*
X7138Y40333D01*
X7231Y40222D01*
X7434Y39944D01*
X7638Y39611D01*
X7823Y39222D01*
X7879Y39018D01*
X7934Y38796D01*
X7972Y38555D01*
X7990Y38314D01*
Y38296D01*
Y38240D01*
Y38148D01*
X7972Y38037D01*
X7953Y37889D01*
X7934Y37740D01*
X7842Y37407D01*
Y37389D01*
X7823Y37333D01*
X7786Y37241D01*
X7731Y37129D01*
X7657Y36981D01*
X7583Y36815D01*
X7472Y36611D01*
X7360Y36407D01*
X2731Y29408D01*
X7472D01*
X7546Y29390D01*
X7638Y29352D01*
X7749Y29260D01*
X7768Y29241D01*
X7823Y29167D01*
X7879Y29056D01*
X7897Y28945D01*
Y28927D01*
X7879Y28853D01*
X7842Y28741D01*
X7768Y28630D01*
X7749Y28612D01*
X7694Y28556D01*
X7583Y28501D01*
X7434Y28482D01*
X1824D01*
X1750Y28501D01*
X1657Y28538D01*
X1528Y28630D01*
X1509Y28649D01*
X1472Y28723D01*
X1417Y28834D01*
X1398Y28982D01*
Y29001D01*
X1417Y29056D01*
X1435Y29130D01*
X1472Y29204D01*
X6564Y36926D01*
X6768Y37296D01*
X6898Y37629D01*
Y37648D01*
X6916Y37685D01*
X6934Y37759D01*
X6972Y37833D01*
X7009Y38055D01*
X7027Y38314D01*
Y38333D01*
Y38352D01*
X7009Y38481D01*
X6990Y38648D01*
X6934Y38870D01*
X6842Y39111D01*
X6694Y39388D01*
X6509Y39648D01*
X6249Y39907D01*
X6231Y39925D01*
X6194Y39962D01*
X6120Y40018D01*
X6027Y40074D01*
X5916Y40148D01*
X5768Y40240D01*
X5453Y40388D01*
X5435D01*
X5379Y40425D01*
X5287Y40444D01*
X5175Y40481D01*
X5046Y40518D01*
X4879Y40536D01*
X4546Y40574D01*
X4435D01*
X4305Y40555D01*
X4157Y40536D01*
X3972Y40481D01*
X3768Y40425D01*
X3546Y40333D01*
X3342Y40203D01*
X3324Y40185D01*
X3250Y40129D01*
X3157Y40055D01*
X3027Y39925D01*
X2898Y39759D01*
X2750Y39537D01*
X2602Y39277D01*
X2454Y38981D01*
X2435Y38963D01*
X2417Y38907D01*
X2361Y38833D01*
X2305Y38759D01*
X2287D01*
X2231Y38722D01*
X2139Y38703D01*
X2028Y38685D01*
X1991D01*
X1917Y38703D01*
X1805Y38740D01*
X1694Y38796D01*
X1676Y38814D01*
X1620Y38888D01*
X1565Y39000D01*
X1546Y39129D01*
X1583Y39296D01*
Y39314D01*
X1602Y39351D01*
X1620Y39407D01*
X1657Y39481D01*
X1750Y39685D01*
X1880Y39925D01*
X2046Y40203D01*
X2268Y40499D01*
X2509Y40759D01*
X2805Y40999D01*
X2842Y41018D01*
X2935Y41073D01*
X3083Y41166D01*
X3287Y41259D01*
X3546Y41351D01*
X3824Y41444D01*
X4157Y41499D01*
X4509Y41518D01*
X4638D01*
X4731Y41499D01*
D02*
G37*
G36*
X-3083D02*
X-2861Y41481D01*
X-2583Y41407D01*
X-2287Y41314D01*
X-1953Y41166D01*
X-1602Y40962D01*
X-1453Y40833D01*
X-1287Y40685D01*
X-1268D01*
X-1250Y40648D01*
X-1157Y40536D01*
X-1028Y40370D01*
X-861Y40129D01*
X-713Y39851D01*
X-583Y39518D01*
X-491Y39129D01*
X-454Y38925D01*
Y38722D01*
Y36852D01*
Y36833D01*
Y36796D01*
Y36741D01*
X-472Y36667D01*
X-491Y36444D01*
X-565Y36185D01*
X-657Y35870D01*
X-805Y35537D01*
X-1009Y35204D01*
X-1139Y35037D01*
X-1287Y34889D01*
X-1324Y34852D01*
X-1435Y34759D01*
X-1602Y34630D01*
X-1842Y34481D01*
X-2120Y34333D01*
X-2472Y34204D01*
X-2842Y34111D01*
X-3046Y34093D01*
X-3268Y34074D01*
X-3379D01*
X-528Y29167D01*
X-509Y29149D01*
X-491Y29093D01*
X-472Y29019D01*
X-454Y28927D01*
Y28890D01*
X-472Y28816D01*
X-528Y28723D01*
X-620Y28593D01*
X-639Y28575D01*
X-713Y28538D01*
X-824Y28501D01*
X-953Y28482D01*
X-1028D01*
X-1157Y28519D01*
X-1176Y28538D01*
X-1213Y28556D01*
X-1268Y28630D01*
X-1324Y28704D01*
X-4472Y34074D01*
X-6064D01*
Y28927D01*
Y28890D01*
X-6083Y28797D01*
X-6120Y28686D01*
X-6194Y28575D01*
X-6212Y28556D01*
X-6286Y28538D01*
X-6397Y28501D01*
X-6527Y28482D01*
X-6546D01*
X-6601Y28501D01*
X-6712Y28519D01*
X-6860Y28575D01*
X-6879Y28593D01*
X-6916Y28667D01*
X-6971Y28778D01*
X-6990Y28927D01*
Y41036D01*
Y41055D01*
Y41111D01*
X-6971Y41185D01*
X-6934Y41277D01*
X-6879Y41370D01*
X-6786Y41444D01*
X-6675Y41499D01*
X-6527Y41518D01*
X-3157D01*
X-3083Y41499D01*
D02*
G37*
G36*
X5694Y-18501D02*
X5805Y-18538D01*
X5916Y-18612D01*
X5935Y-18630D01*
X5990Y-18704D01*
X6046Y-18815D01*
X6064Y-18945D01*
Y-31073D01*
Y-31110D01*
X6046Y-31203D01*
X6009Y-31314D01*
X5935Y-31425D01*
X5916Y-31444D01*
X5842Y-31462D01*
X5731Y-31499D01*
X5601Y-31518D01*
X5583D01*
X5527Y-31499D01*
X5416Y-31481D01*
X5268Y-31425D01*
X5250Y-31407D01*
X5212Y-31333D01*
X5157Y-31222D01*
X5138Y-31073D01*
Y-20075D01*
X3120Y-22074D01*
X3101Y-22093D01*
X3027Y-22148D01*
X2935Y-22204D01*
X2805Y-22222D01*
X2768D01*
X2694Y-22204D01*
X2583Y-22167D01*
X2472Y-22074D01*
X2454Y-22056D01*
X2416Y-21982D01*
X2361Y-21871D01*
X2342Y-21741D01*
Y-21723D01*
X2361Y-21667D01*
X2398Y-21574D01*
X2472Y-21426D01*
X5268Y-18612D01*
X5286Y-18593D01*
X5361Y-18538D01*
X5453Y-18501D01*
X5583Y-18482D01*
X5620D01*
X5694Y-18501D01*
D02*
G37*
G36*
X-2157D02*
X-1935Y-18519D01*
X-1657Y-18593D01*
X-1361Y-18686D01*
X-1028Y-18834D01*
X-676Y-19038D01*
X-528Y-19167D01*
X-361Y-19315D01*
X-342D01*
X-324Y-19352D01*
X-231Y-19463D01*
X-102Y-19630D01*
X65Y-19871D01*
X213Y-20149D01*
X343Y-20482D01*
X435Y-20871D01*
X472Y-21075D01*
Y-21278D01*
Y-23148D01*
Y-23167D01*
Y-23204D01*
Y-23259D01*
X454Y-23333D01*
X435Y-23556D01*
X361Y-23815D01*
X269Y-24130D01*
X120Y-24463D01*
X-83Y-24796D01*
X-213Y-24963D01*
X-361Y-25111D01*
X-398Y-25148D01*
X-509Y-25241D01*
X-676Y-25370D01*
X-917Y-25519D01*
X-1194Y-25667D01*
X-1546Y-25796D01*
X-1917Y-25889D01*
X-2120Y-25907D01*
X-2342Y-25926D01*
X-2453D01*
X398Y-30833D01*
X417Y-30851D01*
X435Y-30907D01*
X454Y-30981D01*
X472Y-31073D01*
Y-31110D01*
X454Y-31184D01*
X398Y-31277D01*
X305Y-31407D01*
X287Y-31425D01*
X213Y-31462D01*
X102Y-31499D01*
X-28Y-31518D01*
X-102D01*
X-231Y-31481D01*
X-250Y-31462D01*
X-287Y-31444D01*
X-342Y-31370D01*
X-398Y-31296D01*
X-3546Y-25926D01*
X-5138D01*
Y-31073D01*
Y-31110D01*
X-5157Y-31203D01*
X-5194Y-31314D01*
X-5268Y-31425D01*
X-5286Y-31444D01*
X-5361Y-31462D01*
X-5472Y-31499D01*
X-5601Y-31518D01*
X-5620D01*
X-5675Y-31499D01*
X-5786Y-31481D01*
X-5935Y-31425D01*
X-5953Y-31407D01*
X-5990Y-31333D01*
X-6046Y-31222D01*
X-6064Y-31073D01*
Y-18964D01*
Y-18945D01*
Y-18889D01*
X-6046Y-18815D01*
X-6009Y-18723D01*
X-5953Y-18630D01*
X-5860Y-18556D01*
X-5749Y-18501D01*
X-5601Y-18482D01*
X-2231D01*
X-2157Y-18501D01*
D02*
G37*
G36*
X-62241Y23499D02*
X-62130D01*
X-61982Y23462D01*
X-61667Y23407D01*
X-61315Y23296D01*
X-60908Y23129D01*
X-60704Y23018D01*
X-60501Y22907D01*
X-60297Y22759D01*
X-60093Y22592D01*
X-60075Y22573D01*
X-60038Y22555D01*
X-59982Y22499D01*
X-59927Y22425D01*
X-59834Y22333D01*
X-59741Y22222D01*
X-59538Y21944D01*
X-59334Y21611D01*
X-59149Y21222D01*
X-59093Y21018D01*
X-59038Y20796D01*
X-59001Y20555D01*
X-58982Y20315D01*
Y20296D01*
Y20240D01*
Y20148D01*
X-59001Y20037D01*
X-59019Y19889D01*
X-59038Y19740D01*
X-59130Y19407D01*
Y19389D01*
X-59149Y19333D01*
X-59186Y19240D01*
X-59241Y19129D01*
X-59316Y18981D01*
X-59390Y18815D01*
X-59501Y18611D01*
X-59612Y18407D01*
X-64241Y11408D01*
X-59501D01*
X-59427Y11389D01*
X-59334Y11352D01*
X-59223Y11260D01*
X-59204Y11241D01*
X-59149Y11167D01*
X-59093Y11056D01*
X-59075Y10945D01*
Y10927D01*
X-59093Y10853D01*
X-59130Y10741D01*
X-59204Y10630D01*
X-59223Y10612D01*
X-59278Y10556D01*
X-59390Y10501D01*
X-59538Y10482D01*
X-65148D01*
X-65222Y10501D01*
X-65315Y10538D01*
X-65444Y10630D01*
X-65463Y10649D01*
X-65500Y10723D01*
X-65556Y10834D01*
X-65574Y10982D01*
Y11001D01*
X-65556Y11056D01*
X-65537Y11130D01*
X-65500Y11204D01*
X-60408Y18926D01*
X-60204Y19296D01*
X-60075Y19629D01*
Y19648D01*
X-60056Y19685D01*
X-60038Y19759D01*
X-60001Y19833D01*
X-59964Y20055D01*
X-59945Y20315D01*
Y20333D01*
Y20352D01*
X-59964Y20481D01*
X-59982Y20648D01*
X-60038Y20870D01*
X-60130Y21111D01*
X-60278Y21388D01*
X-60464Y21648D01*
X-60723Y21907D01*
X-60741Y21925D01*
X-60778Y21962D01*
X-60852Y22018D01*
X-60945Y22074D01*
X-61056Y22148D01*
X-61204Y22240D01*
X-61519Y22388D01*
X-61537D01*
X-61593Y22425D01*
X-61686Y22444D01*
X-61797Y22481D01*
X-61926Y22518D01*
X-62093Y22536D01*
X-62426Y22573D01*
X-62537D01*
X-62667Y22555D01*
X-62815Y22536D01*
X-63000Y22481D01*
X-63204Y22425D01*
X-63426Y22333D01*
X-63630Y22203D01*
X-63648Y22185D01*
X-63723Y22129D01*
X-63815Y22055D01*
X-63945Y21925D01*
X-64074Y21759D01*
X-64222Y21537D01*
X-64370Y21277D01*
X-64519Y20981D01*
X-64537Y20963D01*
X-64556Y20907D01*
X-64611Y20833D01*
X-64667Y20759D01*
X-64685D01*
X-64741Y20722D01*
X-64833Y20703D01*
X-64945Y20685D01*
X-64982D01*
X-65056Y20703D01*
X-65167Y20740D01*
X-65278Y20796D01*
X-65296Y20814D01*
X-65352Y20889D01*
X-65408Y21000D01*
X-65426Y21129D01*
X-65389Y21296D01*
Y21314D01*
X-65370Y21351D01*
X-65352Y21407D01*
X-65315Y21481D01*
X-65222Y21685D01*
X-65093Y21925D01*
X-64926Y22203D01*
X-64704Y22499D01*
X-64463Y22759D01*
X-64167Y22999D01*
X-64130Y23018D01*
X-64037Y23073D01*
X-63889Y23166D01*
X-63685Y23259D01*
X-63426Y23351D01*
X-63148Y23444D01*
X-62815Y23499D01*
X-62463Y23518D01*
X-62334D01*
X-62241Y23499D01*
D02*
G37*
G36*
X-67796D02*
X-67703Y23462D01*
X-67592Y23370D01*
X-67574Y23351D01*
X-67500Y23277D01*
X-67444Y23166D01*
X-67426Y23055D01*
Y23036D01*
X-67444Y22962D01*
X-67481Y22851D01*
X-67555Y22740D01*
X-67574Y22722D01*
X-67648Y22666D01*
X-67759Y22610D01*
X-67907Y22592D01*
X-70351D01*
X-70500Y22573D01*
X-70685Y22518D01*
X-70888Y22462D01*
X-71111Y22370D01*
X-71333Y22240D01*
X-71555Y22055D01*
X-71574Y22036D01*
X-71629Y21962D01*
X-71722Y21851D01*
X-71814Y21685D01*
X-71925Y21500D01*
X-71999Y21259D01*
X-72073Y21000D01*
X-72092Y20722D01*
Y13260D01*
Y13223D01*
Y13130D01*
X-72055Y12982D01*
X-72018Y12815D01*
X-71962Y12612D01*
X-71870Y12389D01*
X-71740Y12167D01*
X-71555Y11945D01*
X-71536Y11926D01*
X-71462Y11871D01*
X-71333Y11778D01*
X-71185Y11686D01*
X-70981Y11575D01*
X-70759Y11501D01*
X-70500Y11427D01*
X-70222Y11408D01*
X-67870D01*
X-67796Y11389D01*
X-67703Y11352D01*
X-67592Y11260D01*
X-67574Y11241D01*
X-67500Y11167D01*
X-67444Y11056D01*
X-67426Y10945D01*
Y10927D01*
X-67444Y10853D01*
X-67481Y10741D01*
X-67555Y10630D01*
X-67574Y10612D01*
X-67648Y10556D01*
X-67759Y10501D01*
X-67907Y10482D01*
X-70333D01*
X-70407Y10501D01*
X-70611Y10519D01*
X-70870Y10593D01*
X-71185Y10686D01*
X-71499Y10834D01*
X-71833Y11038D01*
X-71999Y11149D01*
X-72166Y11297D01*
Y11315D01*
X-72203Y11334D01*
X-72296Y11445D01*
X-72444Y11612D01*
X-72592Y11852D01*
X-72740Y12130D01*
X-72888Y12463D01*
X-72981Y12852D01*
X-72999Y13056D01*
X-73018Y13260D01*
Y20722D01*
Y20740D01*
Y20777D01*
Y20833D01*
X-72999Y20907D01*
X-72981Y21111D01*
X-72925Y21388D01*
X-72814Y21685D01*
X-72684Y22018D01*
X-72481Y22351D01*
X-72370Y22499D01*
X-72222Y22666D01*
X-72203Y22685D01*
X-72185Y22703D01*
X-72073Y22796D01*
X-71907Y22944D01*
X-71666Y23092D01*
X-71370Y23240D01*
X-71037Y23388D01*
X-70648Y23481D01*
X-70444Y23518D01*
X-67870D01*
X-67796Y23499D01*
D02*
G37*
G36*
X-61778Y1749D02*
X-61667Y1712D01*
X-61556Y1638D01*
X-61538Y1620D01*
X-61482Y1546D01*
X-61427Y1435D01*
X-61408Y1305D01*
Y-10823D01*
Y-10861D01*
X-61427Y-10953D01*
X-61463Y-11064D01*
X-61538Y-11175D01*
X-61556Y-11194D01*
X-61630Y-11212D01*
X-61741Y-11249D01*
X-61871Y-11268D01*
X-61889D01*
X-61945Y-11249D01*
X-62056Y-11231D01*
X-62204Y-11175D01*
X-62223Y-11157D01*
X-62260Y-11083D01*
X-62315Y-10972D01*
X-62334Y-10823D01*
Y175D01*
X-64352Y-1824D01*
X-64371Y-1843D01*
X-64445Y-1898D01*
X-64537Y-1954D01*
X-64667Y-1972D01*
X-64704D01*
X-64778Y-1954D01*
X-64889Y-1917D01*
X-65000Y-1824D01*
X-65019Y-1806D01*
X-65056Y-1732D01*
X-65111Y-1621D01*
X-65130Y-1491D01*
Y-1473D01*
X-65111Y-1417D01*
X-65074Y-1324D01*
X-65000Y-1176D01*
X-62204Y1638D01*
X-62186Y1657D01*
X-62112Y1712D01*
X-62019Y1749D01*
X-61889Y1768D01*
X-61852D01*
X-61778Y1749D01*
D02*
G37*
G36*
X-67370D02*
X-67278Y1712D01*
X-67167Y1620D01*
X-67148Y1601D01*
X-67074Y1527D01*
X-67018Y1416D01*
X-67000Y1305D01*
Y1286D01*
X-67018Y1212D01*
X-67056Y1101D01*
X-67130Y990D01*
X-67148Y972D01*
X-67222Y916D01*
X-67333Y860D01*
X-67481Y842D01*
X-69926D01*
X-70074Y824D01*
X-70259Y768D01*
X-70463Y712D01*
X-70685Y620D01*
X-70907Y490D01*
X-71129Y305D01*
X-71148Y287D01*
X-71203Y212D01*
X-71296Y101D01*
X-71388Y-65D01*
X-71500Y-250D01*
X-71574Y-491D01*
X-71648Y-750D01*
X-71666Y-1028D01*
Y-8490D01*
Y-8527D01*
Y-8620D01*
X-71629Y-8768D01*
X-71592Y-8935D01*
X-71537Y-9138D01*
X-71444Y-9361D01*
X-71314Y-9583D01*
X-71129Y-9805D01*
X-71111Y-9824D01*
X-71037Y-9879D01*
X-70907Y-9972D01*
X-70759Y-10064D01*
X-70555Y-10175D01*
X-70333Y-10249D01*
X-70074Y-10323D01*
X-69796Y-10342D01*
X-67444D01*
X-67370Y-10360D01*
X-67278Y-10398D01*
X-67167Y-10490D01*
X-67148Y-10509D01*
X-67074Y-10583D01*
X-67018Y-10694D01*
X-67000Y-10805D01*
Y-10823D01*
X-67018Y-10898D01*
X-67056Y-11009D01*
X-67130Y-11120D01*
X-67148Y-11138D01*
X-67222Y-11194D01*
X-67333Y-11249D01*
X-67481Y-11268D01*
X-69907D01*
X-69981Y-11249D01*
X-70185Y-11231D01*
X-70444Y-11157D01*
X-70759Y-11064D01*
X-71074Y-10916D01*
X-71407Y-10712D01*
X-71574Y-10601D01*
X-71740Y-10453D01*
Y-10435D01*
X-71777Y-10416D01*
X-71870Y-10305D01*
X-72018Y-10138D01*
X-72166Y-9898D01*
X-72314Y-9620D01*
X-72462Y-9287D01*
X-72555Y-8898D01*
X-72573Y-8694D01*
X-72592Y-8490D01*
Y-1028D01*
Y-1010D01*
Y-973D01*
Y-917D01*
X-72573Y-843D01*
X-72555Y-639D01*
X-72499Y-362D01*
X-72388Y-65D01*
X-72259Y268D01*
X-72055Y601D01*
X-71944Y749D01*
X-71796Y916D01*
X-71777Y935D01*
X-71759Y953D01*
X-71648Y1046D01*
X-71481Y1194D01*
X-71240Y1342D01*
X-70944Y1490D01*
X-70611Y1638D01*
X-70222Y1731D01*
X-70018Y1768D01*
X-67444D01*
X-67370Y1749D01*
D02*
G37*
%LPC*%
G36*
X72981Y-47954D02*
X71454D01*
X71259Y-47982D01*
X71009Y-48038D01*
X70732Y-48121D01*
X70454Y-48260D01*
X70149Y-48426D01*
X69871Y-48676D01*
X69844Y-48704D01*
X69760Y-48815D01*
X69649Y-48954D01*
X69538Y-49176D01*
X69399Y-49426D01*
X69288Y-49731D01*
X69205Y-50064D01*
X69177Y-50425D01*
Y-61391D01*
Y-61447D01*
Y-61558D01*
X69205Y-61752D01*
X69261Y-61974D01*
X69344Y-62252D01*
X69483Y-62530D01*
X69649Y-62835D01*
X69899Y-63113D01*
X69927Y-63140D01*
X70038Y-63224D01*
X70177Y-63335D01*
X70399Y-63474D01*
X70649Y-63612D01*
X70954Y-63723D01*
X71259Y-63807D01*
X71620Y-63834D01*
X73147D01*
X73342Y-63807D01*
X73564Y-63751D01*
X73841Y-63668D01*
X74147Y-63529D01*
X74452Y-63362D01*
X74730Y-63140D01*
X74757Y-63113D01*
X74841Y-63001D01*
X74980Y-62863D01*
X75118Y-62668D01*
X75229Y-62418D01*
X75368Y-62113D01*
X75451Y-61780D01*
X75479Y-61391D01*
Y-50425D01*
Y-50370D01*
Y-50259D01*
X75451Y-50064D01*
X75396Y-49842D01*
X75285Y-49565D01*
X75174Y-49287D01*
X74980Y-48982D01*
X74730Y-48704D01*
X74702Y-48676D01*
X74591Y-48593D01*
X74452Y-48454D01*
X74230Y-48315D01*
X73980Y-48204D01*
X73675Y-48066D01*
X73342Y-47982D01*
X72981Y-47954D01*
D02*
G37*
G36*
X60627D02*
X59100D01*
X58905Y-47982D01*
X58655Y-48038D01*
X58378Y-48121D01*
X58100Y-48260D01*
X57795Y-48426D01*
X57517Y-48676D01*
X57489Y-48704D01*
X57406Y-48815D01*
X57295Y-48954D01*
X57184Y-49176D01*
X57045Y-49426D01*
X56934Y-49731D01*
X56851Y-50064D01*
X56823Y-50425D01*
Y-61391D01*
Y-61447D01*
Y-61558D01*
X56851Y-61752D01*
X56906Y-61974D01*
X56990Y-62252D01*
X57128Y-62530D01*
X57295Y-62835D01*
X57545Y-63113D01*
X57573Y-63140D01*
X57684Y-63224D01*
X57822Y-63335D01*
X58045Y-63474D01*
X58294Y-63612D01*
X58600Y-63723D01*
X58905Y-63807D01*
X59266Y-63834D01*
X60793D01*
X60987Y-63807D01*
X61210Y-63751D01*
X61487Y-63668D01*
X61792Y-63529D01*
X62098Y-63362D01*
X62375Y-63140D01*
X62403Y-63113D01*
X62487Y-63001D01*
X62625Y-62863D01*
X62764Y-62668D01*
X62875Y-62418D01*
X63014Y-62113D01*
X63097Y-61780D01*
X63125Y-61391D01*
Y-50425D01*
Y-50370D01*
Y-50259D01*
X63097Y-50064D01*
X63042Y-49842D01*
X62931Y-49565D01*
X62820Y-49287D01*
X62625Y-48982D01*
X62375Y-48704D01*
X62348Y-48676D01*
X62237Y-48593D01*
X62098Y-48454D01*
X61876Y-48315D01*
X61626Y-48204D01*
X61321Y-48066D01*
X60987Y-47982D01*
X60627Y-47954D01*
D02*
G37*
G36*
X48272Y-56144D02*
X44469D01*
Y-61364D01*
Y-61419D01*
Y-61530D01*
X44497Y-61725D01*
X44552Y-61974D01*
X44635Y-62252D01*
X44774Y-62530D01*
X44941Y-62835D01*
X45191Y-63113D01*
X45219Y-63140D01*
X45329Y-63224D01*
X45468Y-63335D01*
X45690Y-63474D01*
X45940Y-63612D01*
X46218Y-63723D01*
X46551Y-63807D01*
X46884Y-63834D01*
X48439D01*
X48633Y-63807D01*
X48883Y-63751D01*
X49161Y-63668D01*
X49438Y-63529D01*
X49744Y-63362D01*
X50021Y-63140D01*
X50049Y-63113D01*
X50132Y-63001D01*
X50243Y-62863D01*
X50382Y-62641D01*
X50521Y-62391D01*
X50632Y-62085D01*
X50715Y-61752D01*
X50743Y-61364D01*
Y-58615D01*
Y-58560D01*
Y-58449D01*
X50715Y-58254D01*
X50660Y-58032D01*
X50577Y-57755D01*
X50438Y-57477D01*
X50271Y-57172D01*
X50021Y-56894D01*
X49994Y-56866D01*
X49882Y-56783D01*
X49744Y-56644D01*
X49522Y-56505D01*
X49272Y-56394D01*
X48966Y-56255D01*
X48633Y-56172D01*
X48272Y-56144D01*
D02*
G37*
G36*
X11210Y-49870D02*
X9072Y-58337D01*
X13320D01*
X11210Y-49870D01*
D02*
G37*
G36*
X-93093Y-53424D02*
X-96091D01*
X-96174Y-53451D01*
X-96258D01*
X-96508Y-53562D01*
X-96646Y-53646D01*
X-96757Y-53757D01*
X-96813Y-53812D01*
X-96896Y-53979D01*
X-97007Y-54201D01*
X-97035Y-54367D01*
X-97063Y-54534D01*
Y-57671D01*
X-92149D01*
Y-54534D01*
Y-54506D01*
Y-54451D01*
X-92177Y-54367D01*
Y-54257D01*
X-92288Y-54007D01*
X-92371Y-53896D01*
X-92482Y-53757D01*
X-92510Y-53729D01*
X-92538Y-53701D01*
X-92704Y-53590D01*
X-92954Y-53479D01*
X-93093Y-53424D01*
D02*
G37*
G36*
X-103143D02*
X-107057D01*
X-107141Y-53451D01*
X-107224D01*
X-107501Y-53562D01*
X-107612Y-53646D01*
X-107751Y-53757D01*
Y-53784D01*
X-107807Y-53812D01*
X-107890Y-53979D01*
X-108001Y-54229D01*
X-108029Y-54367D01*
X-108057Y-54534D01*
Y-62752D01*
Y-62779D01*
Y-62835D01*
X-108029Y-62918D01*
Y-63029D01*
X-107918Y-63279D01*
X-107862Y-63418D01*
X-107751Y-63529D01*
X-107724D01*
X-107696Y-63585D01*
X-107529Y-63668D01*
X-107307Y-63779D01*
X-107141Y-63807D01*
X-106974Y-63834D01*
X-103143D01*
Y-53424D01*
D02*
G37*
G36*
X-62055D02*
X-65997D01*
X-66080Y-53451D01*
X-66164D01*
X-66413Y-53562D01*
X-66552Y-53646D01*
X-66663Y-53757D01*
X-66719Y-53812D01*
X-66802Y-53979D01*
X-66913Y-54201D01*
X-66941Y-54367D01*
X-66969Y-54534D01*
Y-62752D01*
Y-62779D01*
Y-62835D01*
X-66941Y-62918D01*
Y-63029D01*
X-66830Y-63279D01*
X-66774Y-63418D01*
X-66663Y-63529D01*
X-66635D01*
X-66608Y-63585D01*
X-66441Y-63668D01*
X-66219Y-63779D01*
X-66080Y-63807D01*
X-65914Y-63834D01*
X-63082D01*
X-62999Y-63807D01*
X-62888D01*
X-62638Y-63696D01*
X-62499Y-63640D01*
X-62388Y-63529D01*
X-62360Y-63501D01*
X-62332Y-63474D01*
X-62221Y-63307D01*
X-62110Y-63085D01*
X-62055Y-62918D01*
Y-62752D01*
Y-53424D01*
D02*
G37*
G36*
X63769Y592D02*
X60973D01*
Y-5000D01*
X63899D01*
X64047Y-4963D01*
X64213Y-4926D01*
X64417Y-4870D01*
X64639Y-4778D01*
X64861Y-4648D01*
X65084Y-4482D01*
X65102Y-4463D01*
X65176Y-4389D01*
X65269Y-4278D01*
X65380Y-4111D01*
X65472Y-3926D01*
X65565Y-3685D01*
X65639Y-3426D01*
X65658Y-3148D01*
Y-1278D01*
Y-1241D01*
Y-1148D01*
X65621Y-1000D01*
X65584Y-834D01*
X65528Y-630D01*
X65417Y-408D01*
X65287Y-186D01*
X65102Y37D01*
X65084Y55D01*
X65009Y129D01*
X64880Y222D01*
X64732Y314D01*
X64528Y425D01*
X64306Y499D01*
X64047Y573D01*
X63769Y592D01*
D02*
G37*
G36*
X63732Y21842D02*
X60936D01*
Y16250D01*
X63861D01*
X64010Y16287D01*
X64176Y16324D01*
X64380Y16380D01*
X64602Y16472D01*
X64824Y16602D01*
X65047Y16768D01*
X65065Y16787D01*
X65139Y16861D01*
X65232Y16972D01*
X65343Y17139D01*
X65435Y17324D01*
X65528Y17565D01*
X65602Y17824D01*
X65620Y18102D01*
Y19972D01*
Y20009D01*
Y20101D01*
X65584Y20250D01*
X65546Y20416D01*
X65491Y20620D01*
X65380Y20842D01*
X65250Y21064D01*
X65065Y21286D01*
X65047Y21305D01*
X64972Y21379D01*
X64843Y21472D01*
X64695Y21564D01*
X64491Y21675D01*
X64269Y21749D01*
X64010Y21823D01*
X63732Y21842D01*
D02*
G37*
G36*
X-3268Y40592D02*
X-6064D01*
Y35000D01*
X-3138D01*
X-2990Y35037D01*
X-2824Y35074D01*
X-2620Y35130D01*
X-2398Y35222D01*
X-2176Y35352D01*
X-1953Y35519D01*
X-1935Y35537D01*
X-1861Y35611D01*
X-1768Y35722D01*
X-1657Y35889D01*
X-1565Y36074D01*
X-1472Y36315D01*
X-1398Y36574D01*
X-1379Y36852D01*
Y38722D01*
Y38759D01*
Y38851D01*
X-1417Y39000D01*
X-1453Y39166D01*
X-1509Y39370D01*
X-1620Y39592D01*
X-1750Y39814D01*
X-1935Y40037D01*
X-1953Y40055D01*
X-2027Y40129D01*
X-2157Y40222D01*
X-2305Y40314D01*
X-2509Y40425D01*
X-2731Y40499D01*
X-2990Y40574D01*
X-3268Y40592D01*
D02*
G37*
G36*
X-2342Y-19408D02*
X-5138D01*
Y-25000D01*
X-2213D01*
X-2065Y-24963D01*
X-1898Y-24926D01*
X-1694Y-24870D01*
X-1472Y-24778D01*
X-1250Y-24648D01*
X-1028Y-24481D01*
X-1009Y-24463D01*
X-935Y-24389D01*
X-843Y-24278D01*
X-731Y-24111D01*
X-639Y-23926D01*
X-546Y-23685D01*
X-472Y-23426D01*
X-454Y-23148D01*
Y-21278D01*
Y-21241D01*
Y-21149D01*
X-491Y-21000D01*
X-528Y-20834D01*
X-583Y-20630D01*
X-694Y-20408D01*
X-824Y-20186D01*
X-1009Y-19964D01*
X-1028Y-19945D01*
X-1102Y-19871D01*
X-1231Y-19778D01*
X-1380Y-19686D01*
X-1583Y-19575D01*
X-1805Y-19501D01*
X-2065Y-19426D01*
X-2342Y-19408D01*
D02*
G37*
%LPD*%
D10*
X-52750Y23750D02*
G03*
X-52750Y7750I11550J-8000D01*
G01*
X-25750D02*
G03*
X-25750Y23750I-11550J8000D01*
G01*
X-52750Y2750D02*
G03*
X-52750Y-13250I11550J-8000D01*
G01*
X-25750D02*
G03*
X-25750Y2750I-11550J8000D01*
G01*
X-52750Y7750D02*
X-25750D01*
X-52750Y23750D02*
X-25750D01*
X-52750Y-13250D02*
X-25750D01*
X-52750Y2750D02*
X-25750D01*
X-16000Y7750D02*
X16000D01*
Y23750D01*
X-16000D02*
X16000D01*
X-16000Y7750D02*
Y23750D01*
X21250Y2750D02*
X53250D01*
X21250Y-13250D02*
Y2750D01*
Y-13250D02*
X53250D01*
Y2750D01*
X-16000Y-13250D02*
X16000D01*
Y2750D01*
X-16000D02*
X16000D01*
X-16000Y-13250D02*
Y2750D01*
X21250Y23750D02*
X53250D01*
X21250Y7750D02*
Y23750D01*
Y7750D02*
X53250D01*
Y23750D01*
D11*
X-33125Y-140000D02*
X-27250D01*
X27250D02*
X33125D01*
X0Y-122250D02*
Y-116375D01*
Y-163625D02*
Y-157750D01*
X140000Y27250D02*
Y33125D01*
Y-33125D02*
Y-27250D01*
X157750Y0D02*
X163625D01*
X116375D02*
X122250D01*
X-163625D02*
X-157750D01*
X-122250D02*
X-116375D01*
X-140000Y-33125D02*
Y-27250D01*
Y27250D02*
Y33125D01*
X80500Y132750D02*
Y172500D01*
X-62500Y213500D02*
X62500D01*
X-80500Y134500D02*
Y174250D01*
D12*
X61476Y113118D02*
X71632Y97882D01*
Y113118D02*
X61476Y97882D01*
X76711D02*
Y113118D01*
X84328D01*
X86868Y110578D01*
Y105500D01*
X84328Y102961D01*
X76711D01*
X91946Y97882D02*
X97024D01*
X94485D01*
Y113118D01*
X91946Y110578D01*
M02*
