G04*
G04 #@! TF.GenerationSoftware,Altium Limited,Altium Designer,21.8.1 (53)*
G04*
G04 Layer_Physical_Order=1*
G04 Layer_Color=255*
%FSLAX44Y44*%
%MOMM*%
G71*
G04*
G04 #@! TF.SameCoordinates,2069A8A4-A70D-4D47-B8DF-A6023ED568E2*
G04*
G04*
G04 #@! TF.FilePolarity,Positive*
G04*
G01*
G75*
%ADD18R,1.5000X3.5000*%
%ADD19R,1.0000X3.5000*%
%ADD20R,1.0000X1.0000*%
%ADD21C,0.5000*%
%ADD22C,1.0000*%
%ADD23C,3.0000*%
%ADD24C,0.6000*%
G36*
X102856Y212810D02*
X104641Y211617D01*
X105834Y209832D01*
X106015Y208922D01*
X106215Y207726D01*
X106215Y207726D01*
X106215Y206480D01*
Y130227D01*
X106448Y129057D01*
X107111Y128065D01*
X107285Y127853D01*
X107285Y127853D01*
X109264Y126259D01*
X109261Y105870D01*
X107438Y104651D01*
X105349Y102562D01*
X103707Y100105D01*
X102577Y97375D01*
X102000Y94477D01*
Y91523D01*
X102577Y88625D01*
X103707Y85895D01*
X105349Y83438D01*
X107438Y81349D01*
X109258Y80132D01*
X109250Y1750D01*
X109250Y-3020D01*
X108418Y-12525D01*
X106762Y-21921D01*
X104292Y-31137D01*
X101029Y-40103D01*
X96997Y-48750D01*
X92226Y-57012D01*
X86754Y-64828D01*
X80621Y-72137D01*
X73875Y-78883D01*
X66566Y-85016D01*
X58750Y-90488D01*
X50488Y-95259D01*
X41841Y-99291D01*
X32875Y-102554D01*
X23659Y-105024D01*
X14263Y-106680D01*
X4758Y-107512D01*
X-4782D01*
X-14287Y-106680D01*
X-23683Y-105024D01*
X-32899Y-102554D01*
X-41865Y-99291D01*
X-50512Y-95259D01*
X-58774Y-90488D01*
X-66590Y-85016D01*
X-73899Y-78883D01*
X-80645Y-72137D01*
X-86778Y-64828D01*
X-92250Y-57012D01*
X-97021Y-48750D01*
X-101053Y-40103D01*
X-104316Y-31137D01*
X-106786Y-21921D01*
X-108442Y-12525D01*
X-109274Y-3020D01*
X-109274Y1750D01*
Y126251D01*
X-107285Y127853D01*
X-107285Y127853D01*
X-107111Y128065D01*
X-106448Y129057D01*
X-106215Y130227D01*
Y207726D01*
X-106234Y207820D01*
X-105834Y209832D01*
X-104641Y211617D01*
X-102856Y212810D01*
X-100844Y213210D01*
X-100750Y213191D01*
X100750D01*
X100844Y213210D01*
X102856Y212810D01*
D02*
G37*
%LPC*%
G36*
X-43000Y157000D02*
X-48500D01*
Y139000D01*
X-43000D01*
Y157000D01*
D02*
G37*
G36*
X-51500D02*
X-57000D01*
Y139000D01*
X-51500D01*
Y157000D01*
D02*
G37*
G36*
X-43000Y136000D02*
X-48500D01*
Y118000D01*
X-43000D01*
Y136000D01*
D02*
G37*
G36*
X-51500D02*
X-57000D01*
Y118000D01*
X-51500D01*
Y136000D01*
D02*
G37*
G36*
X57000Y157000D02*
X43000D01*
Y118000D01*
X45412D01*
Y74401D01*
X37912Y66901D01*
X36918Y66489D01*
X35858Y65429D01*
X34588Y65920D01*
Y117500D01*
X37000D01*
Y156500D01*
X23000D01*
Y117500D01*
X25412D01*
Y54250D01*
X25761Y52494D01*
X26756Y51006D01*
X35599Y42162D01*
X36011Y41168D01*
X37418Y39761D01*
X39255Y39000D01*
X41245D01*
X43082Y39761D01*
X44489Y41168D01*
X45250Y43005D01*
Y44995D01*
X44489Y46832D01*
X43082Y48239D01*
X42088Y48651D01*
X34588Y56150D01*
Y58580D01*
X35858Y59071D01*
X36918Y58011D01*
X38755Y57250D01*
X40745D01*
X42582Y58011D01*
X43989Y59418D01*
X44401Y60412D01*
X53244Y69256D01*
X54239Y70744D01*
X54588Y72500D01*
Y118000D01*
X57000D01*
Y157000D01*
D02*
G37*
G36*
X-23000D02*
X-37000D01*
Y118000D01*
X-34588D01*
Y49569D01*
X-35411Y49227D01*
X-35858Y49179D01*
X-37168Y50489D01*
X-39005Y51250D01*
X-40995D01*
X-42451Y50647D01*
X-49191D01*
X-50947Y50298D01*
X-52436Y49303D01*
X-57244Y44494D01*
X-58239Y43006D01*
X-58588Y41250D01*
Y28643D01*
X-58239Y26888D01*
X-57244Y25399D01*
X-54338Y22493D01*
Y18250D01*
X-54250Y17807D01*
Y8750D01*
X-52897D01*
Y1750D01*
X-54250D01*
Y-12250D01*
X-52897D01*
Y-16799D01*
X-53500Y-18255D01*
Y-20245D01*
X-52739Y-22082D01*
X-51332Y-23489D01*
X-49495Y-24250D01*
X-47505D01*
X-45668Y-23489D01*
X-44261Y-22082D01*
X-43500Y-20245D01*
Y-18255D01*
X-43720Y-17723D01*
Y-12250D01*
X-40250D01*
Y1750D01*
X-43720D01*
Y8750D01*
X-40250D01*
Y16516D01*
X-39141Y16990D01*
X-38250Y16255D01*
Y8750D01*
X-35838D01*
Y1750D01*
X-38250D01*
Y-3750D01*
X-31250D01*
X-24250D01*
Y1750D01*
X-26662D01*
Y8750D01*
X-24250D01*
Y14250D01*
X-31250D01*
Y15750D01*
X-32750D01*
Y23739D01*
X-33447Y24436D01*
X-33511Y24756D01*
X-34506Y26244D01*
X-43256Y34994D01*
X-44744Y35989D01*
X-46500Y36338D01*
X-48142Y36012D01*
X-48465Y36057D01*
X-49412Y36564D01*
Y39350D01*
X-47291Y41470D01*
X-41527D01*
X-40995Y41250D01*
X-39005D01*
X-37168Y42011D01*
X-35858Y43321D01*
X-35411Y43273D01*
X-34588Y42931D01*
Y38385D01*
X-34750Y37995D01*
Y36005D01*
X-33989Y34168D01*
X-32582Y32761D01*
X-30745Y32000D01*
X-28755D01*
X-26918Y32761D01*
X-25511Y34168D01*
X-24750Y36005D01*
Y37995D01*
X-25412Y39592D01*
Y118000D01*
X-23000D01*
Y157000D01*
D02*
G37*
G36*
X17000D02*
X3000D01*
Y118000D01*
X5720D01*
Y44730D01*
X3950Y42959D01*
X3418Y42739D01*
X2011Y41332D01*
X1599Y40338D01*
X-8744Y29994D01*
X-9739Y28506D01*
X-10088Y26750D01*
Y22750D01*
X-13412D01*
Y28349D01*
X-8162Y33599D01*
X-7168Y34011D01*
X-5761Y35418D01*
X-5000Y37255D01*
Y39245D01*
X-5412Y40239D01*
Y118000D01*
X-3000D01*
Y157000D01*
X-17000D01*
Y118000D01*
X-14588D01*
Y40239D01*
X-14651Y40088D01*
X-21244Y33494D01*
X-22239Y32006D01*
X-22588Y30250D01*
Y4750D01*
X-22239Y2994D01*
X-21244Y1506D01*
X-15000Y-4739D01*
Y-12250D01*
X-1000D01*
Y1750D01*
X-8511D01*
X-13412Y6651D01*
Y8750D01*
X-1000D01*
Y17807D01*
X-912Y18250D01*
Y24850D01*
X4504Y30266D01*
X5491Y29456D01*
X5261Y29112D01*
X4912Y27357D01*
Y22750D01*
X1000D01*
Y8750D01*
X3412D01*
Y1750D01*
X1000D01*
Y-12250D01*
X15000D01*
Y1750D01*
X12588D01*
Y8750D01*
X15000D01*
Y11162D01*
X22250D01*
Y8750D01*
X36250D01*
Y22750D01*
X22250D01*
Y20338D01*
X15000D01*
Y22750D01*
X14088D01*
Y25456D01*
X21803Y33171D01*
X22798Y34659D01*
X23147Y36415D01*
Y43799D01*
X23750Y45255D01*
Y47245D01*
X22989Y49082D01*
X21582Y50489D01*
X19745Y51250D01*
X17755D01*
X16167Y50592D01*
X14897Y51127D01*
Y118000D01*
X17000D01*
Y157000D01*
D02*
G37*
G36*
X-24250Y22750D02*
X-29750D01*
Y17250D01*
X-24250D01*
Y22750D01*
D02*
G37*
G36*
X36250Y1750D02*
X30750D01*
Y-3750D01*
X36250D01*
Y1750D01*
D02*
G37*
G36*
X27750D02*
X22250D01*
Y-3750D01*
X27750D01*
Y1750D01*
D02*
G37*
G36*
X46495Y32750D02*
X44505D01*
X42668Y31989D01*
X41261Y30582D01*
X40500Y28745D01*
Y26755D01*
X40787Y26063D01*
Y22750D01*
X38250D01*
Y8750D01*
X40662D01*
Y1750D01*
X38250D01*
Y-12250D01*
X52250D01*
Y1750D01*
X49838D01*
Y8750D01*
X52250D01*
Y22750D01*
X49963D01*
Y25459D01*
X50500Y26755D01*
Y28745D01*
X49739Y30582D01*
X48332Y31989D01*
X46495Y32750D01*
D02*
G37*
G36*
X36250Y-6750D02*
X30750D01*
Y-12250D01*
X36250D01*
Y-6750D01*
D02*
G37*
G36*
X27750D02*
X22250D01*
Y-12250D01*
X27750D01*
Y-6750D01*
D02*
G37*
G36*
X-24250Y-6750D02*
X-29750D01*
Y-12250D01*
X-24250D01*
Y-6750D01*
D02*
G37*
G36*
X-32750D02*
X-38250D01*
Y-12250D01*
X-32750D01*
Y-6750D01*
D02*
G37*
%LPD*%
D18*
X-73500Y194500D02*
D03*
X73500D02*
D03*
D19*
X50000Y137500D02*
D03*
X30000Y137000D02*
D03*
X10000Y137500D02*
D03*
X-50000D02*
D03*
X-30000D02*
D03*
X-10000D02*
D03*
D20*
X-31250Y15750D02*
D03*
X-47250D02*
D03*
X-31250Y-5250D02*
D03*
X-47250D02*
D03*
X-8000Y15750D02*
D03*
X8000D02*
D03*
X45250Y-5250D02*
D03*
X29250D02*
D03*
X-8000D02*
D03*
X8000D02*
D03*
X45250Y15750D02*
D03*
X29250D02*
D03*
D21*
X8000D02*
X9500Y17250D01*
Y27357D02*
X18559Y36415D01*
X9500Y17250D02*
Y27357D01*
X18559Y46059D02*
X18750Y46250D01*
X18559Y36415D02*
Y46059D01*
X-48309Y14191D02*
X-46750Y15750D01*
X-48309Y-19059D02*
Y14191D01*
X39750Y62250D02*
X50000Y72500D01*
Y137500D01*
X-18000Y30250D02*
X-10000Y38250D01*
X-40191Y46059D02*
X-40000Y46250D01*
X-49191Y46059D02*
X-40191D01*
X-54000Y41250D02*
X-49191Y46059D01*
X-49750Y18250D02*
Y24393D01*
X-54000Y28643D02*
X-49750Y24393D01*
Y18250D02*
X-47250Y15750D01*
X-54000Y28643D02*
Y41250D01*
X-37750Y22250D02*
Y23000D01*
X-46500Y31750D02*
X-37750Y23000D01*
Y22250D02*
X-31250Y15750D01*
X30000Y54250D02*
X40250Y44000D01*
X30000Y54250D02*
Y137000D01*
X-31250Y-5250D02*
Y15750D01*
X-48500Y-19250D02*
X-48309Y-19059D01*
X-18000Y4750D02*
Y30250D01*
Y4750D02*
X-8250Y-5000D01*
X-30000Y37000D02*
Y137500D01*
X45375Y27625D02*
X45500Y27750D01*
X45375Y15875D02*
Y27625D01*
X45250Y15750D02*
X45375Y15875D01*
X-8250Y-5000D02*
X-8000D01*
X-10000Y38250D02*
Y137500D01*
X8000Y15750D02*
X29250D01*
X8000Y-5250D02*
Y15750D01*
X45250Y-5250D02*
Y15750D01*
X-5500Y18250D02*
Y26750D01*
X6250Y38500D02*
Y38771D01*
X-8000Y15750D02*
X-5500Y18250D01*
X6250Y38771D02*
X10309Y42829D01*
Y137191D01*
X-5500Y26750D02*
X6250Y38500D01*
X10000Y137500D02*
X10309Y137191D01*
D22*
X-117000Y-93000D02*
D03*
X117000Y93000D02*
D03*
D23*
X140000Y0D02*
D03*
X0Y-140000D02*
D03*
X-140000Y0D02*
D03*
D24*
X23500Y30750D02*
D03*
X18750Y46250D02*
D03*
X-71000Y55750D02*
D03*
X97250Y75000D02*
D03*
X-27250Y205500D02*
D03*
X55000Y204500D02*
D03*
X40989Y-34789D02*
D03*
X-1000Y-21000D02*
D03*
X-46250Y-37000D02*
D03*
X-5500Y-49250D02*
D03*
X-21250Y-59500D02*
D03*
X35000Y-61250D02*
D03*
X68750Y-26750D02*
D03*
X100000Y-1750D02*
D03*
X84240Y-48076D02*
D03*
X54479Y-80615D02*
D03*
X16781Y-93313D02*
D03*
X-21250Y-93000D02*
D03*
X-55836Y-74662D02*
D03*
X-79250Y-51250D02*
D03*
X-89250Y-13500D02*
D03*
X-95500Y69000D02*
D03*
X-67750Y32500D02*
D03*
X-43250Y59000D02*
D03*
X-65000Y86500D02*
D03*
X-72500Y133750D02*
D03*
X-40250Y105500D02*
D03*
X-20000Y77000D02*
D03*
X1250Y74500D02*
D03*
X20000Y76500D02*
D03*
X40590Y95969D02*
D03*
X55750Y51250D02*
D03*
X90250Y42500D02*
D03*
X75113Y86842D02*
D03*
X93250Y121250D02*
D03*
X70750Y159000D02*
D03*
X93750Y195500D02*
D03*
X10000Y200250D02*
D03*
X14400Y164618D02*
D03*
X36250Y184750D02*
D03*
X-45000Y164500D02*
D03*
X-7028Y181682D02*
D03*
X-64250Y156750D02*
D03*
X-50250Y197500D02*
D03*
X-95500Y195250D02*
D03*
X-90250Y153000D02*
D03*
X-91250Y100250D02*
D03*
X-92000Y36000D02*
D03*
X39750Y62250D02*
D03*
X-10000Y38250D02*
D03*
X-40000Y46250D02*
D03*
X-46500Y31750D02*
D03*
X40250Y44000D02*
D03*
X-48500Y-19250D02*
D03*
X-29750Y37000D02*
D03*
X45500Y27750D02*
D03*
X6250Y38500D02*
D03*
M02*
