M48
;Layer_Color=9474304
;FILE_FORMAT=4:4
METRIC,LZ
;TYPE=PLATED
T1F00S00C0.3000
;TYPE=NON_PLATED
%
T01
X-0007925Y-0005125
X-00055836Y-00074662
X-0004625Y-00037
X-000485Y-0001925
X-0008925Y-000135
X-00092Y00036
X-0006775Y000325
X-000465Y0003175
X-0004Y0004625
X-0004325Y00059
X-00071Y0005575
X-00065Y000865
X-0009125Y0010025
X-000955Y00069
X-0002Y00077
X0000125Y000745
X0002Y000765
X0001875Y0004625
X000235Y0003075
X000455Y0002775
X0004025Y00044
X0003975Y0006225
X0005575Y0005125
X0009025Y000425
X0009725Y00075
X00075113Y00086842
X0004059Y00095969
X0009325Y0012125
X0007075Y00159
X0009375Y001955
X00055Y002045
X0003625Y0018475
X0001Y0020025
X-00007028Y00181682
X000144Y00164618
X-00045Y001645
X-0006425Y0015675
X-0009025Y00153
X-000725Y0013375
X-0004025Y001055
X-0002975Y00037
X-0001Y0003825
X0000625Y000385
X-00001Y-00021
X-000055Y-0004925
X-0002125Y-000595
Y-00093
X00016781Y-00093313
X00035Y-0006125
X00040989Y-00034789
X0006875Y-0002675
X0008424Y-00048076
X001Y-0000175
X00054479Y-00080615
X-0002725Y002055
X-0005025Y001975
X-000955Y0019525
M30
