M48
;Layer_Color=9474304
;FILE_FORMAT=4:4
METRIC,LZ
;TYPE=PLATED
T1F00S00C0.3000
T2F00S00C0.6000
T3F00S00C0.7000
T4F00S00C1.0000
T5F00S00C1.4000
;TYPE=NON_PLATED
%
T01
X00648056Y00067001
X00633056Y00097001
X00648056Y00127001
X00633056Y00157001
X00648056Y00187001
X00618056
Y00127001
Y00067001
X00588056
X00558056
X00528056
X00498056
X00468056
X00438056
X00408056
X00378056
X00348056
X00363056Y00097001
X00393056
X00423056
X00453056
X00483056
X00513056
X00543056
X00573056
X00555096Y00116596
X00562846Y00141596
X00545846Y00165846
X00558056Y00187001
X00528056
X00498056
X00468056
X00438056
X00408056
X00378056
X00348056
X00318056
X00288056
X00258056
X00273056Y00157001
X00303056
X00333056
X00363056
X00378056Y00127001
X00408056
X00438056
X00468056
X00498056
X00452596Y00163346
X00453056Y00037001
X00483056
X00513056
X00543056
X00558056Y00007001
X00588056
X00603056Y00037001
X00607846Y-00043154
X00552596Y-00041154
X00524096Y-00016904
X00477Y-0004225
X00443596Y-00018404
X00438056Y00007001
X00468056
X00423056Y00037001
X00393056
X00333056
X00303056
X00273056
X00275Y000135
X00318056Y00007001
X00359596Y-00016654
X00351846Y-00039904
X00248346Y-00041404
X00243056Y00037001
X00258056Y00067001
X00288056
X00273056Y00097001
X00243056
X0024025Y0013775
X00288056Y00127001
X00318056
X00348056
X00333056Y00097001
X00228056Y00067001
X00213056Y00037001
X001805Y00036
X00172563Y00035
X00153056Y00037001
X00158Y00015
X00180559Y0001475
X00174107Y0000725
X00193357Y-00012
X00223Y-0003
X00123096Y-00040404
X00123056Y00037001
X00093056
X00063056
X00048056Y00007001
X00063056Y-00022999
X-00023654Y-00038654
X-00026944Y00037001
X-00032966Y00080557
X00007511Y00082739
X0003075Y0007125
X00063056Y00097001
X00093056
X00123056
X001455Y000975
X00167Y0009325
X00168056Y00067001
X001715Y0013225
X00193Y0014175
X00198056Y00127001
X0021775Y0015525
X00228056Y00187001
X00155846Y00164096
X00112096Y00149096
X00106846Y00076596
X00109846Y00053846
X00018056Y00127001
X00015096Y00164096
X00033056Y00157001
X00048056Y00187001
X00018056
X-00004154Y00145346
X-00024Y0014825
X-00032904Y00159346
X-00032404Y00225846
X-00002404Y00226346
X00018846Y00228596
X00065096Y00227346
X0007825Y002175
X00075Y00197
X00063346Y00201596
X00075Y0025
X0009175Y00244
X0010225Y0023725
X00129Y0026895
X00138333
X00147667
X00157
Y00278283
Y00287617
Y0029695
X00147667
X00138333
X00129
Y00287617
X00138333
X00147667
Y00278283
X00138333
X00129
X0007105Y002895
X0005225Y0029125
X00058686Y00299686
X000595Y003215
X00061846Y00331596
X0006625Y0031475
X00086846Y00319596
X00105Y00324
X00128346Y00361596
X00123Y0037225
X00123056Y00397001
X00153056
X0017675Y0039225
Y0037375
X00198056Y00367001
X00206096Y00333096
X00211846Y00312596
X00208Y00302
X00202507Y00295993
X0022761Y0029564
X0022775Y00304265
X0022725Y0031225
X0021175Y0027095
X00210036Y002535
X00204Y0025925
Y0024725
X00198732Y00241229
X00187596Y00244846
X00215096Y00231096
X00206096Y00202346
X00140346Y00200346
X0005225Y0025075
X00003056Y00277001
X-00033154Y00304346
X-0002375Y0034225
X-00009654Y00331596
X00015846Y00333596
X00026596Y00375846
X000255Y0039675
X0001125Y00384
X00018056Y00427001
X00048056
X00070596Y00405951
X0007575Y00358
X00102096Y00382596
X00108056Y00427001
X00138056
X00168056
X00153056Y00457001
X00123056
X00138056Y00487
X00168056
X00153056Y00517
X00168056Y00547
X00153056Y00577
X00123056
X00108056Y00547
X00078056
X00048056
X00018056
X0002575Y005635
X000305Y005845
X00004695Y00584555
X-00026944Y00577
Y00517
Y00457001
Y00397001
X0001325Y00496
X00048056Y00487
X00063056Y00517
Y00577
Y00457001
X00108056Y00487
X00228056
Y00547
Y00427001
X0017375Y003415
X00153056Y00337001
X00243Y0032
X00243007Y00311493
X00243Y0030275
X00234282Y00273
X002395Y0026075
X002355Y002535
X0024375Y0024725
X0025225Y0025
X00271Y002685
X00277571Y00275179
X00303056Y00277001
X00333056
X00363056
X00393056
X00423056
X00408056Y00247001
X00378056
X00348056
X00318056
X00288056
X00303056Y00217001
X00273056
X00363056
X00393056
X00423056
X00453056
X00483056
X00513056
X00543056
X00573056
X00603056
X00618056Y00247001
X00588056
X00558056
X00556846Y00316346
X00573056Y00337001
X00603056
X00618056Y00367001
X00603056Y00397001
X00573056
X00558056Y00427001
X00618056
X00603056Y00457001
X00618056Y00487
X00588056
X00558056
X00486596Y00479096
X00483056Y00517
X00453056
X00420686Y00515664
X00407436
X00393936
Y00500497
X00407436
X00420686
Y00485332
X00407436
X00393936
Y00470165
X00407436
X00420686
X00393056Y00457001
X00363056
X00358686Y00470165
Y00485332
Y00500497
Y00515664
X00344096Y00510596
X00342596Y00472596
X00333056Y00457001
X00303056
X003005Y00473865
X00304096Y00485846
X003005Y00499265
X00303056Y00517
X00273056
X00243056
X00258056Y00547
X00288056
X00318056
X00348056
X00378056
X00408056
X00423056Y00577
X00393056
X00363056
X00333056
X00303056
X00273056
X00243056
X00258056Y00487
X00273056Y00457001
X0028639Y00444007
X00293Y004395
X00318056Y00427001
X00348056
X00378056
X00408056
X00423056Y00397001
X00420686Y00369414
X00407436
X00393936
Y00354247
X00407436
X00420686
Y00339082
X00407436
X00393936
Y00323915
X00407436
X00420686
X00378056Y00307001
X00348056
X00342596Y00319596
Y00338346
X00358686Y00339082
Y00354247
Y00369414
X00363056Y00397001
X00393056
X00333056
X00303056
X00307846Y00372846
X00306346Y00340846
X0030983Y00317073
X00318056Y00307001
X00358686Y00323915
X00451532Y00352909
X00501846Y00359346
X00513056Y00397001
X00483056
X00495596Y00436096
X00446532Y00436309
X00495096Y00312846
X00483056Y00277001
X00588056Y00307001
X00618056
Y00547
X00588056
X00603056Y00577
X00573056
X00555596Y00564346
X00494096Y00563596
X00243056Y00457001
X00258056Y00427001
X00243056Y00397001
X00633056
X00648056Y00427001
X00633056Y00457001
X00648056Y00487
X00633056Y00517
X00648056Y00547
X00633056Y00577
X00648056Y00367001
X00633056Y00337001
X00648056Y00307001
X00633056Y00277001
X00648056Y00247001
X00633056Y00217001
X00648056Y00607
X00633056Y00637
X00648056Y00667
X00633056Y00697
X00648056Y00727
X00633056Y00757
X00648056Y00787
X00633056Y00817
X00648056Y00847
X00633056Y00877
X00648056Y00907
X00633056Y00937
X00648056Y00967
X00618056
X00588056
Y00907
X00618056
X00603056Y00877
X00618056Y00847
X00603056Y00817
X00573056
X00588056Y00787
X00618056
Y00727
X00588056
X00558056
X00558346Y00762096
X00497096Y00770596
X00498056Y00727
X00505846Y00690846
X00469846Y00692846
X00445596Y00688596
X00421Y0069085
Y00706017
X0040775
X0039425
Y00721183
X0040775
X00421
X00434346Y00728596
X00407346Y00736846
X00378346
X00393056Y00757
X00394436Y00773997
Y00786997
X00407936
Y00773997
X00421186
Y00789164
Y00804331
X00407936
X00394436
Y00819497
X00407936
X00421186
X00395096Y00833096
X00408056Y00847
X00407936Y00864914
Y00877914
X00394436
Y00864914
X00421186
Y0088008
Y00895247
X00407936
X00394436
Y00910414
X00407936
X00421186
X00423056Y00937
X00393056
X00363056
X00333056
X00303056
X00273056
X00243056
X00258056Y00967
X00288056
X00318056
X00348056
X00358686Y00985165
X00393936
X00407436
X00420686
X00408056Y00967
X00378056
X00359186Y00910414
Y00895247
Y00877914
Y00864914
X00348056Y00847
X00338096Y00829846
X00343596Y00814846
X00359186Y00819497
Y00804331
Y00786997
Y00773997
X00363056Y00757
X00333056
X00303056
X00273056
X00243056
X00258056Y00727
X00288056
X00302346Y00716346
X00303056Y00697
X00288846Y00691596
X002745Y00692084
X00288056Y00667
X00279096Y00647596
X00303056Y00637
X00305596Y00615346
X002745Y00615981
X00258056Y00607
X00243056Y00637
X00258056Y00667
X00318056
X00348056
X00359Y00675684
Y00688683
Y00706017
Y00721183
X00348056Y00727
X00341846Y00715596
X00342346Y00692346
X00343346Y00644846
X00359186Y0064508
Y00629914
Y0061258
Y0059958
X00342846Y00601096
X00343596Y00614846
X00341846Y00628846
X00394436Y00629914
X00407936
Y0064508
X00421186
X00411346Y00661096
X0040775Y00675684
Y00688683
X0039425
Y00675684
X00421
X00382787Y00659617
X00394436Y0064508
Y0061258
Y0059958
X00407936
Y0061258
X00421186Y00614747
Y0059958
X00441596Y00603596
X00474096Y00603346
X00498056Y00607
X00494096Y00645346
X00558056Y00667
X00573056Y00637
X00603056
X00618056Y00667
Y00607
X00559096Y00593846
X00558056Y00847
Y00907
X00498056
X00479846Y00896096
X00485596Y00859846
X00468346Y00852846
X00437346Y00851346
X00378056Y00847
X00366596Y00832596
X00318056Y00847
X00288056
X00258056
X00273056Y00817
X002745Y00790398
X00303346Y00790096
X00303056Y00817
Y00877
X002745Y00881315
X00288056Y00907
X00258056
X00243056Y00817
X00342846Y00790096
X00318056Y00727
X00423056Y00757
X00442846Y00769346
X00471846Y00810346
X00510549Y00810715
X00498056Y00847
X00491096Y00977846
X00228056Y00967
Y00907
Y00847
X00168056
X00189Y0088125
X00168056Y00907
Y00967
X0010675Y00973
X00104193Y0094475
X000765Y009835
X0005775Y009075
X0006275Y008995
X000675Y0089125
X0006925Y0088275
X0006925Y008515
X0007393Y00845012
X00081Y00841
X0010875Y00843
X0011875Y0080425
X00108056Y00727
X00138056
X00168056
X00153056Y00697
X00123056
X00093056
X00063056
X00078056Y00727
X00048056
X00025Y007385
X0000475Y0073875
X-00011944Y00727
X-00026944Y00757
X-00011944Y00787
X-00026944Y00817
X-00011944Y00847
X-00026944Y00877
X-00011944Y00907
X00003056Y00937
X-00026944
X-00011944Y00967
X00033056Y00877
Y00817
Y00757
X-00026944Y00697
X-00011944Y00667
X-00026944Y00637
X-00011944Y00607
X00048056
X00078056
X00093056Y00637
X00063056
X00153056
X00138056Y00607
X0020875Y00616
X00228056Y00607
Y00667
X002015Y00692
X00228056Y00727
X00195Y0079025
X002305Y0098875
X00231Y0101425
X00228056Y01027
Y01087
X00168056
X00138056
X00108056
X00123056Y01117
X00153056
X00168056Y01147
X00138056
X00108056
X00078056
X00048056
X00018056
X-00011944
X00003056Y01177
X00033056
X00063056
X00093056
X00123056
X00153056
X00168056Y01207
X00138056
X00108056
X00123056Y01237
X00153056
X00168056Y01267
X00138056
X00153056Y01297
X00123056
X00138056Y01327
X00168056
X00198056
X00228056
X00213056Y01357
Y01297
X00228056Y01267
X00213056Y01237
X00228056Y01207
X00213056Y01177
X00153056Y01057
X00168056Y01027
X00153056Y00997
X000765Y0100075
Y0099225
X00076388Y01009762
X00076725Y01028125
Y01036875
Y01045375
X00076613Y01054388
X00033056Y01057
X00003056
X-00026944
X-00011944Y01087
X00003056Y01117
X00033056
X00063056
X00093056
X-00026944
Y01177
X-00011944Y01207
X00018056
X00003056Y01237
X-00026944
X-00011944Y01267
X00003056Y01297
X00033056
X00063056
X00048056Y01327
X00018056
X-00011944
X00003056Y01357
X-00026944
Y01297
X00063056Y01357
X00123056
X00153056
X00063056Y01237
X00033056Y00997
X00003056
X-00026944
X-00011944Y01027
X00258056
X00288056
X0030483Y0102511
X003005Y01014265
X00304846Y01001346
X003005Y00988865
X00343846Y01002846
X00358686Y01000332
Y01015497
Y01030664
X00342846Y01025596
X00333056Y01057
X00363056
X00393056
X00393936Y01030664
X00407436
X00420686
Y01015497
X00407436
X00393936
Y01000332
X00407436
X00420686
X00441846Y01020596
X00423056Y01057
X00408056Y01087
X00423056Y01117
X00393056
X00393936Y01150482
X00407436
X00420686
Y01165648
X00407436
X00393936
Y01180814
X00407436
X00420686
Y0119598
X00407436
X00393936
X00358686
Y01180814
Y01165648
Y01150482
X00348056Y01147
X00343596Y01165846
X00343346Y01191596
X00348056Y01207
X00318056
X0030483Y01190427
X00303596Y01166846
X0025725Y0116475
X00258056Y01147
X00273056Y01117
X00303056
X00333056
X00318056Y01087
X00288056
X00258056
X00273056Y01057
X00303056
X00243056
Y01117
Y01177
X00258056Y01207
X00288056
X00303056Y01237
X00333056
X00363056
X00393056
X00423056
X00438056Y01267
X00468056
X00498056
X00501596Y01228346
X00496596Y01188846
X00498056Y01147
X00558056
X00588056
X00603056Y01117
X00558056Y01087
X00532346Y01064596
X00496596Y01060096
X00498056Y01027
X00573056Y00997
X00603056
X00618056Y01027
X00588056Y01207
X00603056Y01237
X00573056
Y01297
X00603056
Y01357
X00558056Y01327
X00505846Y01312596
X00475346Y01312346
X00483056Y01357
X00453056
X00420686Y01348297
X00407436
X00393936
Y0133313
X00407436
X00420686
Y01317965
X00407436
X00393936
Y01302798
X00407436
X00420686
X00404096Y01289846
X00408056Y01267
X00378056
X00348056
X00318056
X00288056
X00258056
X00273056Y01237
X00243056
X00270846Y01319096
X00304346Y01318596
X00304596Y01339846
X00303056Y01357
X00333056
X00343096Y01344846
X00358686Y01348297
Y0133313
Y01317965
Y01302798
X00344346Y01312346
X00348056Y01327
X00333056Y01297
X00303056
X00243056Y01357
Y00997
X00446532Y01186909
X00648056Y01027
X00633056Y00997
X00648056Y01567
Y01627
X00558056
X00528056
X00543056Y01597
X00573056
X00588056Y01567
X00512096Y01567596
X00483056Y01597
X00453056
X00423056
X00393056
X00363056
X00333056
X00303056
X00273056
X00243056
X00233846Y01641096
X00296529Y01638124
X00361537Y016381
X00428596Y01637346
X00483096Y01639346
X00492346Y01520846
X00483056Y01477
X00513056
X00501346Y01435346
X00509596Y01394596
X00473846Y01396096
X00448846Y01435096
X00423056Y01417
X00393056
X00363056
X00333056
X00303056
X00273056
X00254246Y01433492
X00246007Y01433993
X00243056Y01477
X00273056
X00303056
X003005Y014655
Y0149075
X00288056Y01507
X00258056
X00273056Y01537
X00303056
X00333056
X00363056
X00393056
X00423056
X00420686Y01507113
X00407436
X00393936
Y01491946
X00407436
X00420686
Y01476781
X00407436
X00393936
Y01461615
X00407436
X00420686
X00408056Y01447
X00378056
X00348056
X00340096Y01453846
X00358686Y01461615
Y01476781
Y01491946
Y01507113
X00342846Y01503346
X00343596Y01478096
X00318056Y01447
X00288056
Y01387
X00318056
X00348056
X00378056
X00408056
X00258056
X00243056Y01537
X00558056Y01507
X00573056Y01477
X00603056
X00588056Y01447
Y01387
X00228056
X00213056Y01417
X00183056
X00153056
X00168056Y01447
X00198056
X00228056
X00213056Y01477
X00183056
X00198056Y01507
X00228056
X00213056Y01537
Y01597
X00183056
X00168056Y01567
X00123056Y01537
Y01477
X00108056Y01447
X00078056
X00048056
X00018056
X-00011944
X00003056Y01477
X-00026944
X-00011944Y01507
X00003056Y01537
X00033056
X00063056
X00078056Y01567
X00048056
X00063056Y01597
X00093056
X00108056Y01627
X00138056
X00164846Y01641096
X00078056Y01627
X00033056Y01597
X-00026944Y01537
Y01417
X00003056
X00033056
X00063056
X00093056
X00138056Y01387
X00168056
X-00011944
X00063056Y01477
T02
X-000135Y002641
X-000145Y002768
X-000135Y002895
X-000145Y003022
X-000135Y003149
T03
X00023Y0077175
Y0079175
Y0081175
Y0083175
Y0085175
Y0087175
Y0089175
Y0091175
X00043
Y0089175
Y0087175
Y0085175
Y0083175
Y0081175
Y0079175
Y0077175
Y0097075
X00023
Y0099075
Y0101075
Y0103075
Y0105075
Y0107075
Y0109075
Y0111075
X00043
Y0109075
Y0107075
Y0105075
Y0103075
Y0101075
Y0099075
T04
X00236Y00001
X00261
X00286
X003485
X003735
X003985
X004235
X0048475
X0050975
X0053475
X0059275Y00105
Y0013
Y00155
Y0018
X00211Y00001
X001485
X001235
X000985
X000735
X0003Y0045625
Y0048125
Y0050625
Y0053125
Y00601
Y00626
Y00651
Y00676
Y00701
T05
X00531936Y00270164
X00586936
Y0035268
X00531936
Y00435197
X00586936
Y00517714
X00531936
Y00599247
X00586936
X0058675Y0068375
X0053175
X00531936Y00765264
X00586936
Y0084778
X00531936
Y00930297
X00586936
X00092Y0122125
Y0126325
X00037
Y0122125
Y01343582
X00092
X00531936Y0134288
X00586936
Y01260363
X00531936
Y01177847
X00586936
Y0109533
X00531936
Y01012814
X00586936
Y01425397
X00531936
Y01507914
X00586936
X00092
Y01465914
X00037
Y01507914
Y01385582
X00092
M30
