G04*
G04 #@! TF.GenerationSoftware,Altium Limited,Altium Designer,21.8.1 (53)*
G04*
G04 Layer_Physical_Order=2*
G04 Layer_Color=16711680*
%FSLAX44Y44*%
%MOMM*%
G71*
G04*
G04 #@! TF.SameCoordinates,C21CB1A8-5196-45B6-BCC0-1EF7E4A1402D*
G04*
G04*
G04 #@! TF.FilePolarity,Positive*
G04*
G01*
G75*
%ADD10C,0.2000*%
%ADD16C,0.3000*%
%ADD50R,1.0000X1.0000*%
%ADD70C,0.5000*%
%ADD72C,1.0000*%
%ADD73O,7.2000X5.2000*%
%ADD74O,3.0000X2.2000*%
%ADD75R,3.0000X2.2000*%
%ADD76O,5.2000X7.2000*%
%ADD77C,1.2000*%
%ADD78R,1.2000X1.2000*%
%ADD79C,0.6000*%
%ADD80C,1.8000*%
%ADD81R,1.8000X1.8000*%
%ADD82R,1.8000X1.8000*%
%ADD83C,2.0000*%
G36*
X-10000Y1646941D02*
X576495D01*
X576620Y1645671D01*
X575375Y1645423D01*
X572645Y1644293D01*
X570188Y1642651D01*
X568099Y1640562D01*
X566457Y1638105D01*
X565326Y1635375D01*
X564750Y1632477D01*
Y1629523D01*
X565326Y1626625D01*
X566457Y1623895D01*
X568099Y1621438D01*
X570188Y1619349D01*
X572645Y1617707D01*
X575375Y1616576D01*
X578273Y1616000D01*
X581227D01*
X584125Y1616576D01*
X586855Y1617707D01*
X589312Y1619349D01*
X591401Y1621438D01*
X593043Y1623895D01*
X594174Y1626625D01*
X594750Y1629523D01*
Y1632477D01*
X594174Y1635375D01*
X593043Y1638105D01*
X591401Y1640562D01*
X589312Y1642651D01*
X586855Y1644293D01*
X584125Y1645423D01*
X582880Y1645671D01*
X583005Y1646941D01*
X631007D01*
X632265Y1646824D01*
Y1646824D01*
X632265Y1646824D01*
X636271Y1646429D01*
X641106Y1644962D01*
X645563Y1642580D01*
X649470Y1639375D01*
X652675Y1635468D01*
X655058Y1631011D01*
X656525Y1626176D01*
X656997Y1621379D01*
X656919Y1620123D01*
X656941Y1618858D01*
X656941Y1618799D01*
Y-20000D01*
X656952Y-20054D01*
X656624Y-24217D01*
X655637Y-28330D01*
X654018Y-32238D01*
X651808Y-35844D01*
X649061Y-39061D01*
X645844Y-41808D01*
X642238Y-44018D01*
X638330Y-45637D01*
X634217Y-46624D01*
X630054Y-46952D01*
X630000Y-46941D01*
X41798D01*
X41545Y-45671D01*
X41855Y-45543D01*
X44312Y-43901D01*
X46401Y-41812D01*
X48043Y-39355D01*
X49174Y-36625D01*
X49750Y-33727D01*
Y-30773D01*
X49174Y-27875D01*
X48043Y-25145D01*
X46401Y-22688D01*
X44312Y-20599D01*
X41855Y-18957D01*
X39125Y-17826D01*
X36227Y-17250D01*
X33273D01*
X30375Y-17826D01*
X27985Y-18816D01*
X27142Y-18274D01*
X26891Y-17933D01*
X27741Y-14394D01*
X28087Y-10000D01*
Y-1500D01*
X1500D01*
Y-37969D01*
X4394Y-37741D01*
X8679Y-36712D01*
X12751Y-35025D01*
X16509Y-32722D01*
X18480Y-31039D01*
X19750Y-31625D01*
Y-33727D01*
X20326Y-36625D01*
X21457Y-39355D01*
X23099Y-41812D01*
X25188Y-43901D01*
X27645Y-45543D01*
X27955Y-45671D01*
X27702Y-46941D01*
X-10000D01*
X-10054Y-46952D01*
X-14217Y-46624D01*
X-18330Y-45637D01*
X-22238Y-44018D01*
X-25844Y-41808D01*
X-29061Y-39061D01*
X-31808Y-35844D01*
X-34018Y-32238D01*
X-35637Y-28330D01*
X-36624Y-24217D01*
X-36952Y-20054D01*
X-36941Y-20000D01*
Y1620000D01*
X-36952Y1620054D01*
X-36624Y1624217D01*
X-35637Y1628330D01*
X-34018Y1632238D01*
X-31808Y1635844D01*
X-29061Y1639061D01*
X-25844Y1641808D01*
X-22238Y1644018D01*
X-18330Y1645637D01*
X-14217Y1646624D01*
X-10054Y1646952D01*
X-10000Y1646941D01*
D02*
G37*
%LPC*%
G36*
X43977Y1645000D02*
X41023D01*
X38125Y1644424D01*
X35395Y1643293D01*
X32938Y1641651D01*
X30849Y1639562D01*
X29207Y1637105D01*
X28077Y1634375D01*
X27500Y1631477D01*
Y1628523D01*
X28077Y1625625D01*
X29207Y1622895D01*
X30849Y1620438D01*
X32938Y1618349D01*
X35395Y1616707D01*
X38125Y1615576D01*
X41023Y1615000D01*
X43977D01*
X46875Y1615576D01*
X49605Y1616707D01*
X52062Y1618349D01*
X54151Y1620438D01*
X55793Y1622895D01*
X56924Y1625625D01*
X57500Y1628523D01*
Y1631477D01*
X56924Y1634375D01*
X55793Y1637105D01*
X54151Y1639562D01*
X52062Y1641651D01*
X49605Y1643293D01*
X46875Y1644424D01*
X43977Y1645000D01*
D02*
G37*
G36*
X621500Y1637968D02*
Y1601500D01*
X648087D01*
Y1610000D01*
X647741Y1614394D01*
X646712Y1618679D01*
X645025Y1622751D01*
X642722Y1626509D01*
X639860Y1629860D01*
X636509Y1632722D01*
X632751Y1635025D01*
X628679Y1636712D01*
X624394Y1637741D01*
X621500Y1637968D01*
D02*
G37*
G36*
X618500Y1637969D02*
X615606Y1637741D01*
X611321Y1636712D01*
X607249Y1635025D01*
X603491Y1632722D01*
X600140Y1629860D01*
X597277Y1626509D01*
X594975Y1622751D01*
X593288Y1618679D01*
X592259Y1614394D01*
X591913Y1610000D01*
Y1601500D01*
X618500D01*
Y1637969D01*
D02*
G37*
G36*
X1500Y1637968D02*
Y1601500D01*
X28087D01*
Y1610000D01*
X27741Y1614394D01*
X26712Y1618679D01*
X25025Y1622751D01*
X22722Y1626509D01*
X19860Y1629860D01*
X16509Y1632722D01*
X12751Y1635025D01*
X8679Y1636712D01*
X4394Y1637741D01*
X1500Y1637968D01*
D02*
G37*
G36*
X-1500Y1637969D02*
X-4394Y1637741D01*
X-8679Y1636712D01*
X-12751Y1635025D01*
X-16509Y1632722D01*
X-19860Y1629860D01*
X-22722Y1626509D01*
X-25025Y1622751D01*
X-26712Y1618679D01*
X-27741Y1614394D01*
X-28087Y1610000D01*
Y1601500D01*
X-1500D01*
Y1637969D01*
D02*
G37*
G36*
X648087Y1598500D02*
X621500D01*
Y1562032D01*
X624394Y1562259D01*
X628679Y1563288D01*
X632751Y1564975D01*
X636509Y1567278D01*
X639860Y1570140D01*
X642722Y1573491D01*
X645025Y1577249D01*
X646712Y1581321D01*
X647741Y1585606D01*
X648087Y1590000D01*
Y1598500D01*
D02*
G37*
G36*
X28087Y1598500D02*
X1500D01*
Y1562032D01*
X4394Y1562259D01*
X8679Y1563288D01*
X12751Y1564975D01*
X16509Y1567278D01*
X19860Y1570140D01*
X22722Y1573491D01*
X25025Y1577249D01*
X26712Y1581321D01*
X27741Y1585606D01*
X28087Y1590000D01*
Y1598500D01*
D02*
G37*
G36*
X-1500D02*
X-28087D01*
Y1590000D01*
X-27741Y1585606D01*
X-26712Y1581321D01*
X-25025Y1577249D01*
X-22722Y1573491D01*
X-19860Y1570140D01*
X-16509Y1567278D01*
X-12751Y1564975D01*
X-8679Y1563288D01*
X-4394Y1562259D01*
X-1500Y1562031D01*
Y1598500D01*
D02*
G37*
G36*
X618500Y1598500D02*
X591913D01*
Y1590000D01*
X592259Y1585606D01*
X593288Y1581321D01*
X594975Y1577249D01*
X597277Y1573491D01*
X600140Y1570140D01*
X603491Y1567278D01*
X607249Y1564975D01*
X611321Y1563288D01*
X615606Y1562259D01*
X618500Y1562031D01*
Y1598500D01*
D02*
G37*
G36*
X358692Y1515441D02*
X358692Y1515441D01*
X358692Y1515441D01*
X357879Y1515280D01*
X357131Y1515131D01*
X357131Y1515131D01*
X357131Y1515131D01*
X355293Y1514370D01*
X355293Y1514370D01*
X355293Y1514370D01*
X354475Y1513823D01*
X353970Y1513486D01*
X353970Y1513486D01*
X353970Y1513486D01*
X352563Y1512079D01*
X352563Y1512079D01*
X352093Y1511376D01*
X351679Y1510756D01*
X351679Y1510756D01*
X351679Y1510756D01*
X350918Y1508918D01*
X350918Y1508918D01*
X350918Y1508917D01*
X350747Y1508057D01*
X350608Y1507357D01*
X350608Y1507357D01*
X350608Y1507357D01*
X350608Y1506362D01*
X350608Y1491620D01*
X350608Y1491620D01*
X350918Y1490059D01*
X350918Y1490059D01*
X351718Y1488129D01*
X352602Y1486806D01*
X352602Y1486806D01*
X354078Y1485329D01*
X354380Y1485128D01*
X354484Y1484683D01*
X354380Y1483600D01*
X354078Y1483398D01*
X354078Y1483398D01*
X352602Y1481922D01*
X351718Y1480598D01*
X350918Y1478669D01*
X350918Y1478669D01*
X350608Y1477108D01*
X350608Y1462366D01*
X350608Y1461371D01*
X350608Y1461371D01*
X350608Y1461371D01*
X350771Y1460551D01*
X350918Y1459810D01*
X350918Y1459810D01*
X350918Y1459810D01*
X351679Y1457972D01*
X351679Y1457972D01*
X352172Y1457235D01*
X352563Y1456649D01*
X352563Y1456649D01*
X353970Y1455242D01*
X353970Y1455242D01*
X353970Y1455242D01*
X354660Y1454781D01*
X355293Y1454358D01*
X355293Y1454358D01*
X355293Y1454358D01*
X357131Y1453597D01*
X357131Y1453597D01*
X357131Y1453596D01*
X357916Y1453441D01*
X358692Y1453286D01*
X358692Y1453286D01*
X358692Y1453286D01*
X359687Y1453286D01*
X420987Y1453286D01*
X421094Y1453308D01*
X421202Y1453292D01*
X422444Y1453358D01*
X423113Y1453528D01*
X423790Y1453662D01*
X425634Y1454426D01*
X425634Y1454426D01*
X425634Y1454426D01*
X426243Y1454833D01*
X426957Y1455310D01*
X426957Y1455310D01*
X426958Y1455310D01*
X428491Y1456843D01*
X428491Y1456843D01*
X428491Y1456843D01*
X428897Y1457451D01*
X429375Y1458166D01*
X429375Y1458166D01*
X429375Y1458166D01*
X430204Y1460169D01*
X430204Y1460169D01*
X430205Y1460169D01*
X430365Y1460979D01*
X430515Y1461730D01*
X430515Y1461730D01*
X430515Y1461730D01*
X430515Y1462814D01*
X430515Y1476064D01*
X430514Y1476064D01*
Y1477108D01*
X430204Y1478669D01*
X430204Y1478669D01*
X429405Y1480598D01*
X429405Y1480598D01*
X428521Y1481922D01*
X427044Y1483398D01*
X426742Y1483600D01*
Y1485128D01*
X427044Y1485329D01*
X428521Y1486806D01*
X429405Y1488129D01*
X430204Y1490059D01*
X430204Y1490059D01*
X430514Y1491619D01*
Y1492663D01*
X430515Y1492664D01*
X430515Y1505913D01*
X430515Y1506997D01*
X430515Y1506998D01*
X430515Y1506998D01*
X430348Y1507838D01*
X430205Y1508558D01*
X430204Y1508558D01*
X430204Y1508559D01*
X429375Y1510561D01*
X429375Y1510562D01*
X429375Y1510562D01*
X428994Y1511132D01*
X428491Y1511885D01*
X428491Y1511885D01*
X428491Y1511885D01*
X426958Y1513418D01*
X426957Y1513418D01*
X426957Y1513418D01*
X426243Y1513895D01*
X425634Y1514302D01*
X425634Y1514302D01*
X425634Y1514302D01*
X423721Y1515094D01*
X423002Y1515237D01*
X422289Y1515402D01*
X421116Y1515439D01*
X421052Y1515429D01*
X420988Y1515441D01*
X420987D01*
X420987Y1515441D01*
X359687Y1515441D01*
X358692Y1515441D01*
D02*
G37*
G36*
X41000Y1521026D02*
X38500D01*
Y1509414D01*
X53915D01*
X53665Y1511307D01*
X52355Y1514470D01*
X50272Y1517185D01*
X47556Y1519269D01*
X44394Y1520579D01*
X41000Y1521026D01*
D02*
G37*
G36*
X35500D02*
X33000D01*
X29606Y1520579D01*
X26444Y1519269D01*
X23728Y1517185D01*
X21644Y1514470D01*
X20335Y1511307D01*
X20085Y1509414D01*
X35500D01*
Y1521026D01*
D02*
G37*
G36*
X53915Y1506414D02*
X38500D01*
Y1494801D01*
X41000D01*
X44394Y1495248D01*
X47556Y1496558D01*
X50272Y1498642D01*
X52355Y1501357D01*
X53665Y1504520D01*
X53915Y1506414D01*
D02*
G37*
G36*
X35500D02*
X20085D01*
X20335Y1504520D01*
X21644Y1501357D01*
X23728Y1498642D01*
X26444Y1496558D01*
X29606Y1495248D01*
X33000Y1494801D01*
X35500D01*
Y1506414D01*
D02*
G37*
G36*
X590936Y1522986D02*
X582936D01*
X579996Y1522696D01*
X577168Y1521839D01*
X574562Y1520446D01*
X572278Y1518571D01*
X570404Y1516287D01*
X569011Y1513681D01*
X568153Y1510854D01*
X567864Y1507914D01*
X568153Y1504973D01*
X569011Y1502146D01*
X570404Y1499540D01*
X572278Y1497256D01*
X574562Y1495381D01*
X577168Y1493988D01*
X579996Y1493130D01*
X582936Y1492841D01*
X590936D01*
X593877Y1493130D01*
X596704Y1493988D01*
X599310Y1495381D01*
X601594Y1497256D01*
X603469Y1499540D01*
X604861Y1502146D01*
X605719Y1504973D01*
X606009Y1507914D01*
X605719Y1510854D01*
X604861Y1513681D01*
X603469Y1516287D01*
X601594Y1518571D01*
X599310Y1520446D01*
X596704Y1521839D01*
X593877Y1522696D01*
X590936Y1522986D01*
D02*
G37*
G36*
X41000Y1479026D02*
X38500D01*
Y1467414D01*
X53915D01*
X53665Y1469307D01*
X52355Y1472470D01*
X50272Y1475185D01*
X47556Y1477269D01*
X44394Y1478579D01*
X41000Y1479026D01*
D02*
G37*
G36*
X35500D02*
X33000D01*
X29606Y1478579D01*
X26444Y1477269D01*
X23728Y1475185D01*
X21644Y1472470D01*
X20335Y1469307D01*
X20085Y1467414D01*
X35500D01*
Y1479026D01*
D02*
G37*
G36*
X301495Y1495750D02*
X299505D01*
X297668Y1494989D01*
X296261Y1493582D01*
X295500Y1491745D01*
Y1489755D01*
X296070Y1488380D01*
X246682Y1438993D01*
X245013D01*
X243175Y1438231D01*
X241769Y1436825D01*
X241007Y1434987D01*
Y1432998D01*
X241769Y1431160D01*
X243175Y1429754D01*
X245013Y1428993D01*
X247002D01*
X248840Y1429754D01*
X249789Y1430703D01*
X250007Y1430660D01*
X251413Y1429253D01*
X253251Y1428492D01*
X255240D01*
X257078Y1429253D01*
X258485Y1430660D01*
X259246Y1432498D01*
Y1434166D01*
X287521Y1462441D01*
X296488D01*
X297668Y1461261D01*
X299505Y1460500D01*
X301495D01*
X303332Y1461261D01*
X304739Y1462668D01*
X305500Y1464505D01*
Y1466495D01*
X304739Y1468332D01*
X303332Y1469739D01*
X301495Y1470500D01*
X299505D01*
X297668Y1469739D01*
X296488Y1468559D01*
X286695D01*
X286127Y1469733D01*
X286122Y1469781D01*
X301898Y1485557D01*
X302230Y1486055D01*
X303332Y1486511D01*
X304739Y1487918D01*
X305500Y1489755D01*
Y1491745D01*
X304739Y1493582D01*
X303332Y1494989D01*
X301495Y1495750D01*
D02*
G37*
G36*
X53915Y1464414D02*
X38500D01*
Y1452801D01*
X41000D01*
X44394Y1453248D01*
X47556Y1454558D01*
X50272Y1456642D01*
X52355Y1459357D01*
X53665Y1462520D01*
X53915Y1464414D01*
D02*
G37*
G36*
X35500D02*
X20085D01*
X20335Y1462520D01*
X21644Y1459357D01*
X23728Y1456642D01*
X26444Y1454558D01*
X29606Y1453248D01*
X33000Y1452801D01*
X35500D01*
Y1464414D01*
D02*
G37*
G36*
X590936Y1440469D02*
X582936D01*
X579996Y1440180D01*
X577168Y1439322D01*
X574562Y1437929D01*
X572278Y1436055D01*
X570404Y1433771D01*
X569011Y1431165D01*
X568153Y1428337D01*
X567864Y1425397D01*
X568153Y1422456D01*
X569011Y1419629D01*
X570404Y1417023D01*
X572278Y1414739D01*
X574562Y1412865D01*
X577168Y1411472D01*
X579996Y1410614D01*
X582936Y1410324D01*
X590936D01*
X593877Y1410614D01*
X596704Y1411472D01*
X599310Y1412865D01*
X601594Y1414739D01*
X603469Y1417023D01*
X604861Y1419629D01*
X605719Y1422456D01*
X606009Y1425397D01*
X605719Y1428337D01*
X604861Y1431165D01*
X603469Y1433771D01*
X601594Y1436055D01*
X599310Y1437929D01*
X596704Y1439322D01*
X593877Y1440180D01*
X590936Y1440469D01*
D02*
G37*
G36*
X41000Y1398694D02*
X38500D01*
Y1387082D01*
X53915D01*
X53665Y1388975D01*
X52355Y1392138D01*
X50272Y1394854D01*
X47556Y1396937D01*
X44394Y1398247D01*
X41000Y1398694D01*
D02*
G37*
G36*
X35500D02*
X33000D01*
X29606Y1398247D01*
X26444Y1396937D01*
X23728Y1394854D01*
X21644Y1392138D01*
X20335Y1388975D01*
X20085Y1387082D01*
X35500D01*
Y1398694D01*
D02*
G37*
G36*
X53915Y1384082D02*
X38500D01*
Y1372470D01*
X41000D01*
X44394Y1372916D01*
X47556Y1374226D01*
X50272Y1376310D01*
X52355Y1379026D01*
X53665Y1382188D01*
X53915Y1384082D01*
D02*
G37*
G36*
X35500D02*
X20085D01*
X20335Y1382188D01*
X21644Y1379026D01*
X23728Y1376310D01*
X26444Y1374226D01*
X29606Y1372916D01*
X33000Y1372470D01*
X35500D01*
Y1384082D01*
D02*
G37*
G36*
X358692Y1356625D02*
X358692Y1356625D01*
X358692Y1356625D01*
X357879Y1356463D01*
X357131Y1356315D01*
X357131Y1356315D01*
X357131Y1356315D01*
X355293Y1355553D01*
X355293Y1355553D01*
X355293Y1355553D01*
X354475Y1355007D01*
X353970Y1354669D01*
X353970Y1354669D01*
X353970Y1354669D01*
X352563Y1353262D01*
X352563Y1353262D01*
X352093Y1352559D01*
X351679Y1351939D01*
X351679Y1351939D01*
X351679Y1351939D01*
X350918Y1350101D01*
X350918Y1350101D01*
X350918Y1350101D01*
X350747Y1349241D01*
X350608Y1348540D01*
X350608Y1348540D01*
X350608Y1348540D01*
X350608Y1347545D01*
X350608Y1332803D01*
X350608Y1332803D01*
X350918Y1331242D01*
X350918Y1331242D01*
X351718Y1329313D01*
X352602Y1327990D01*
X352602Y1327990D01*
X354078Y1326513D01*
X354380Y1326311D01*
X354484Y1325866D01*
X354380Y1324784D01*
X354078Y1324582D01*
X354078Y1324582D01*
X352602Y1323105D01*
X351718Y1321782D01*
X350918Y1319852D01*
X350918Y1319852D01*
X350608Y1318292D01*
X350608Y1303549D01*
X350608Y1302555D01*
X350608Y1302554D01*
X350608Y1302554D01*
X350771Y1301734D01*
X350918Y1300994D01*
X350918Y1300994D01*
X350918Y1300993D01*
X351679Y1299156D01*
X351679Y1299155D01*
X352172Y1298418D01*
X352563Y1297832D01*
X352563Y1297832D01*
X353970Y1296426D01*
X353970Y1296426D01*
X353970Y1296425D01*
X354660Y1295964D01*
X355293Y1295542D01*
X355293Y1295542D01*
X355293Y1295541D01*
X357131Y1294780D01*
X357131Y1294780D01*
X357131Y1294780D01*
X357916Y1294624D01*
X358692Y1294470D01*
X358692Y1294470D01*
X358692Y1294470D01*
X359687Y1294470D01*
X420987Y1294470D01*
X421094Y1294491D01*
X421202Y1294476D01*
X422444Y1294541D01*
X423113Y1294711D01*
X423790Y1294846D01*
X425634Y1295609D01*
X425634Y1295609D01*
X425634Y1295609D01*
X426243Y1296016D01*
X426957Y1296493D01*
X426957Y1296493D01*
X426958Y1296493D01*
X428491Y1298026D01*
X428491Y1298026D01*
X428491Y1298027D01*
X428897Y1298635D01*
X429375Y1299349D01*
X429375Y1299350D01*
X429375Y1299350D01*
X430204Y1301353D01*
X430204Y1301353D01*
X430205Y1301353D01*
X430365Y1302163D01*
X430515Y1302913D01*
X430515Y1302914D01*
X430515Y1302914D01*
X430515Y1303998D01*
X430515Y1317247D01*
X430514Y1317248D01*
Y1318292D01*
X430204Y1319852D01*
X430204Y1319852D01*
X429405Y1321782D01*
X429405Y1321782D01*
X428521Y1323105D01*
X427044Y1324582D01*
X426742Y1324784D01*
Y1326311D01*
X427044Y1326513D01*
X428521Y1327990D01*
X429405Y1329313D01*
X430204Y1331242D01*
X430204Y1331242D01*
X430514Y1332803D01*
Y1333847D01*
X430515Y1333847D01*
X430515Y1347097D01*
X430515Y1348181D01*
X430515Y1348181D01*
X430515Y1348181D01*
X430348Y1349021D01*
X430205Y1349742D01*
X430204Y1349742D01*
X430204Y1349742D01*
X429375Y1351745D01*
X429375Y1351745D01*
X429375Y1351745D01*
X428994Y1352315D01*
X428491Y1353068D01*
X428491Y1353068D01*
X428491Y1353068D01*
X426958Y1354601D01*
X426957Y1354601D01*
X426957Y1354602D01*
X426243Y1355078D01*
X425634Y1355485D01*
X425634Y1355486D01*
X425634Y1355486D01*
X423721Y1356278D01*
X423002Y1356420D01*
X422289Y1356586D01*
X421116Y1356623D01*
X421052Y1356612D01*
X420988Y1356625D01*
X420987D01*
X420987Y1356625D01*
X359687Y1356625D01*
X358692Y1356625D01*
D02*
G37*
G36*
X41000Y1356694D02*
X38500D01*
Y1345082D01*
X53915D01*
X53665Y1346975D01*
X52355Y1350138D01*
X50272Y1352854D01*
X47556Y1354937D01*
X44394Y1356247D01*
X41000Y1356694D01*
D02*
G37*
G36*
X35500D02*
X33000D01*
X29606Y1356247D01*
X26444Y1354937D01*
X23728Y1352854D01*
X21644Y1350138D01*
X20335Y1346975D01*
X20085Y1345082D01*
X35500D01*
Y1356694D01*
D02*
G37*
G36*
X53915Y1342082D02*
X38500D01*
Y1330470D01*
X41000D01*
X44394Y1330916D01*
X47556Y1332226D01*
X50272Y1334310D01*
X52355Y1337026D01*
X53665Y1340188D01*
X53915Y1342082D01*
D02*
G37*
G36*
X35500D02*
X20085D01*
X20335Y1340188D01*
X21644Y1337026D01*
X23728Y1334310D01*
X26444Y1332226D01*
X29606Y1330916D01*
X33000Y1330470D01*
X35500D01*
Y1342082D01*
D02*
G37*
G36*
X590936Y1357953D02*
X582936D01*
X579996Y1357663D01*
X577168Y1356805D01*
X574562Y1355413D01*
X572278Y1353538D01*
X570404Y1351254D01*
X569011Y1348648D01*
X568153Y1345821D01*
X567864Y1342880D01*
X568153Y1339940D01*
X569011Y1337112D01*
X570404Y1334506D01*
X572278Y1332222D01*
X574562Y1330348D01*
X577168Y1328955D01*
X579996Y1328097D01*
X582936Y1327808D01*
X590936D01*
X593877Y1328097D01*
X596704Y1328955D01*
X599310Y1330348D01*
X601594Y1332222D01*
X603469Y1334506D01*
X604861Y1337112D01*
X605719Y1339940D01*
X606009Y1342880D01*
X605719Y1345821D01*
X604861Y1348648D01*
X603469Y1351254D01*
X601594Y1353538D01*
X599310Y1355413D01*
X596704Y1356805D01*
X593877Y1357663D01*
X590936Y1357953D01*
D02*
G37*
G36*
X41000Y1276362D02*
X38500D01*
Y1264750D01*
X53915D01*
X53665Y1266644D01*
X52355Y1269806D01*
X50272Y1272522D01*
X47556Y1274605D01*
X44394Y1275915D01*
X41000Y1276362D01*
D02*
G37*
G36*
X35500D02*
X33000D01*
X29606Y1275915D01*
X26444Y1274605D01*
X23728Y1272522D01*
X21644Y1269806D01*
X20335Y1266644D01*
X20085Y1264750D01*
X35500D01*
Y1276362D01*
D02*
G37*
G36*
X53915Y1261750D02*
X38500D01*
Y1250138D01*
X41000D01*
X44394Y1250585D01*
X47556Y1251895D01*
X50272Y1253978D01*
X52355Y1256694D01*
X53665Y1259856D01*
X53915Y1261750D01*
D02*
G37*
G36*
X35500D02*
X20085D01*
X20335Y1259856D01*
X21644Y1256694D01*
X23728Y1253978D01*
X26444Y1251895D01*
X29606Y1250585D01*
X33000Y1250138D01*
X35500D01*
Y1261750D01*
D02*
G37*
G36*
X590936Y1275436D02*
X582936D01*
X579996Y1275146D01*
X577168Y1274289D01*
X574562Y1272896D01*
X572278Y1271021D01*
X570404Y1268737D01*
X569011Y1266132D01*
X568153Y1263304D01*
X567864Y1260363D01*
X568153Y1257423D01*
X569011Y1254595D01*
X570404Y1251990D01*
X572278Y1249706D01*
X574562Y1247831D01*
X577168Y1246438D01*
X579996Y1245581D01*
X582936Y1245291D01*
X590936D01*
X593877Y1245581D01*
X596704Y1246438D01*
X599310Y1247831D01*
X601594Y1249706D01*
X603469Y1251990D01*
X604861Y1254595D01*
X605719Y1257423D01*
X606009Y1260363D01*
X605719Y1263304D01*
X604861Y1266132D01*
X603469Y1268737D01*
X601594Y1271021D01*
X599310Y1272896D01*
X596704Y1274289D01*
X593877Y1275146D01*
X590936Y1275436D01*
D02*
G37*
G36*
X41000Y1234362D02*
X38500D01*
Y1222750D01*
X53915D01*
X53665Y1224644D01*
X52355Y1227806D01*
X50272Y1230522D01*
X47556Y1232606D01*
X44394Y1233915D01*
X41000Y1234362D01*
D02*
G37*
G36*
X35500D02*
X33000D01*
X29606Y1233915D01*
X26444Y1232606D01*
X23728Y1230522D01*
X21644Y1227806D01*
X20335Y1224644D01*
X20085Y1222750D01*
X35500D01*
Y1234362D01*
D02*
G37*
G36*
X53915Y1219750D02*
X38500D01*
Y1208138D01*
X41000D01*
X44394Y1208585D01*
X47556Y1209894D01*
X50272Y1211978D01*
X52355Y1214694D01*
X53665Y1217856D01*
X53915Y1219750D01*
D02*
G37*
G36*
X35500D02*
X20085D01*
X20335Y1217856D01*
X21644Y1214694D01*
X23728Y1211978D01*
X26444Y1209894D01*
X29606Y1208585D01*
X33000Y1208138D01*
X35500D01*
Y1219750D01*
D02*
G37*
G36*
X358692Y1204309D02*
X358692Y1204309D01*
X358692Y1204309D01*
X357879Y1204147D01*
X357131Y1203998D01*
X357131Y1203998D01*
X357131Y1203998D01*
X355293Y1203237D01*
X355293Y1203237D01*
X355293Y1203237D01*
X354475Y1202690D01*
X353970Y1202353D01*
X353970Y1202353D01*
X353970Y1202353D01*
X352563Y1200946D01*
X352563Y1200946D01*
X352093Y1200243D01*
X351679Y1199623D01*
X351679Y1199623D01*
X351679Y1199623D01*
X350918Y1197785D01*
X350918Y1197785D01*
X350918Y1197785D01*
X350747Y1196925D01*
X350608Y1196224D01*
X350608Y1196224D01*
X350608Y1196224D01*
X350608Y1195229D01*
X350608Y1180487D01*
X350608Y1180487D01*
X350918Y1178926D01*
X350918Y1178926D01*
X351718Y1176996D01*
X352602Y1175673D01*
X352602Y1175673D01*
X354078Y1174196D01*
X354380Y1173995D01*
X354484Y1173550D01*
X354380Y1172467D01*
X354078Y1172266D01*
X354078Y1172265D01*
X352602Y1170789D01*
X351718Y1169466D01*
X350918Y1167536D01*
X350918Y1167536D01*
X350608Y1165975D01*
X350608Y1151233D01*
X350608Y1150238D01*
X350608Y1150238D01*
X350608Y1150238D01*
X350771Y1149418D01*
X350918Y1148678D01*
X350918Y1148677D01*
X350918Y1148677D01*
X351679Y1146839D01*
X351679Y1146839D01*
X352172Y1146102D01*
X352563Y1145516D01*
X352563Y1145516D01*
X353970Y1144109D01*
X353970Y1144109D01*
X353970Y1144109D01*
X354660Y1143648D01*
X355293Y1143225D01*
X355293Y1143225D01*
X355293Y1143225D01*
X357131Y1142464D01*
X357131Y1142464D01*
X357131Y1142464D01*
X357916Y1142308D01*
X358692Y1142153D01*
X358692Y1142153D01*
X358692Y1142153D01*
X359687Y1142153D01*
X420987Y1142153D01*
X421094Y1142175D01*
X421202Y1142159D01*
X422444Y1142225D01*
X423113Y1142395D01*
X423790Y1142529D01*
X425634Y1143293D01*
X425634Y1143293D01*
X425634Y1143293D01*
X426243Y1143700D01*
X426957Y1144177D01*
X426957Y1144177D01*
X426958Y1144177D01*
X428491Y1145710D01*
X428491Y1145710D01*
X428491Y1145710D01*
X428897Y1146318D01*
X429375Y1147033D01*
X429375Y1147033D01*
X429375Y1147033D01*
X430204Y1149036D01*
X430204Y1149036D01*
X430205Y1149037D01*
X430365Y1149846D01*
X430515Y1150597D01*
X430515Y1150597D01*
X430515Y1150597D01*
X430515Y1151681D01*
X430515Y1164931D01*
X430514Y1164931D01*
Y1165975D01*
X430204Y1167536D01*
X430204Y1167536D01*
X429405Y1169465D01*
X429405Y1169466D01*
X428521Y1170789D01*
X427044Y1172265D01*
X426742Y1172467D01*
Y1173995D01*
X427044Y1174196D01*
X428521Y1175673D01*
X429405Y1176996D01*
X430204Y1178926D01*
X430204Y1178926D01*
X430514Y1180487D01*
Y1181531D01*
X430515Y1181531D01*
X430515Y1194781D01*
X430515Y1195865D01*
X430515Y1195865D01*
X430515Y1195865D01*
X430348Y1196705D01*
X430205Y1197425D01*
X430204Y1197426D01*
X430204Y1197426D01*
X429375Y1199429D01*
X429375Y1199429D01*
X429375Y1199429D01*
X428994Y1199999D01*
X428491Y1200752D01*
X428491Y1200752D01*
X428491Y1200752D01*
X426958Y1202285D01*
X426957Y1202285D01*
X426957Y1202285D01*
X426243Y1202762D01*
X425634Y1203169D01*
X425634Y1203169D01*
X425634Y1203169D01*
X423721Y1203961D01*
X423002Y1204104D01*
X422289Y1204269D01*
X421116Y1204306D01*
X421052Y1204296D01*
X420988Y1204308D01*
X420987D01*
X420987Y1204308D01*
X359687Y1204308D01*
X358692Y1204309D01*
D02*
G37*
G36*
X590936Y1192919D02*
X582936D01*
X579996Y1192630D01*
X577168Y1191772D01*
X574562Y1190379D01*
X572278Y1188505D01*
X570404Y1186221D01*
X569011Y1183615D01*
X568153Y1180787D01*
X567864Y1177847D01*
X568153Y1174906D01*
X569011Y1172079D01*
X570404Y1169473D01*
X572278Y1167189D01*
X574562Y1165314D01*
X577168Y1163922D01*
X579996Y1163064D01*
X582936Y1162774D01*
X590936D01*
X593877Y1163064D01*
X596704Y1163922D01*
X599310Y1165314D01*
X601594Y1167189D01*
X603469Y1169473D01*
X604861Y1172079D01*
X605719Y1174906D01*
X606009Y1177847D01*
X605719Y1180787D01*
X604861Y1183615D01*
X603469Y1186221D01*
X601594Y1188505D01*
X599310Y1190379D01*
X596704Y1191772D01*
X593877Y1192630D01*
X590936Y1192919D01*
D02*
G37*
G36*
X24500Y1118630D02*
Y1112250D01*
X30880D01*
X30455Y1113838D01*
X29402Y1115662D01*
X27912Y1117151D01*
X26088Y1118205D01*
X24500Y1118630D01*
D02*
G37*
G36*
X21500Y1118630D02*
X19912Y1118205D01*
X18088Y1117151D01*
X16598Y1115662D01*
X15545Y1113838D01*
X15120Y1112250D01*
X21500D01*
Y1118630D01*
D02*
G37*
G36*
X30880Y1109250D02*
X24500D01*
Y1102870D01*
X26088Y1103295D01*
X27912Y1104348D01*
X29402Y1105838D01*
X30455Y1107662D01*
X30880Y1109250D01*
D02*
G37*
G36*
X21500D02*
X15120D01*
X15545Y1107662D01*
X16598Y1105838D01*
X18088Y1104348D01*
X19912Y1103295D01*
X21500Y1102870D01*
Y1109250D01*
D02*
G37*
G36*
X24500Y1098630D02*
Y1092250D01*
X30880D01*
X30455Y1093838D01*
X29402Y1095662D01*
X27912Y1097151D01*
X26088Y1098205D01*
X24500Y1098630D01*
D02*
G37*
G36*
X21500Y1098630D02*
X19912Y1098205D01*
X18088Y1097151D01*
X16598Y1095662D01*
X15545Y1093838D01*
X15120Y1092250D01*
X21500D01*
Y1098630D01*
D02*
G37*
G36*
X370000Y1118087D02*
X361500D01*
Y1091500D01*
X397968D01*
X397741Y1094394D01*
X396712Y1098679D01*
X395025Y1102751D01*
X392723Y1106509D01*
X389860Y1109860D01*
X386509Y1112722D01*
X382751Y1115025D01*
X378679Y1116712D01*
X374394Y1117741D01*
X370000Y1118087D01*
D02*
G37*
G36*
X358500D02*
X350000D01*
X345606Y1117741D01*
X341321Y1116712D01*
X337249Y1115025D01*
X333491Y1112722D01*
X330140Y1109860D01*
X327277Y1106509D01*
X324975Y1102751D01*
X323288Y1098679D01*
X322259Y1094394D01*
X322032Y1091500D01*
X358500D01*
Y1118087D01*
D02*
G37*
G36*
X30880Y1089250D02*
X24500D01*
Y1082870D01*
X26088Y1083295D01*
X27912Y1084348D01*
X29402Y1085838D01*
X30455Y1087662D01*
X30880Y1089250D01*
D02*
G37*
G36*
X21500D02*
X15120D01*
X15545Y1087662D01*
X16598Y1085838D01*
X18088Y1084348D01*
X19912Y1083295D01*
X21500Y1082869D01*
Y1089250D01*
D02*
G37*
G36*
X44053Y1118750D02*
X41947D01*
X39912Y1118205D01*
X38088Y1117151D01*
X36598Y1115662D01*
X35545Y1113838D01*
X35000Y1111803D01*
Y1109697D01*
X35545Y1107662D01*
X36598Y1105838D01*
X38088Y1104348D01*
X39912Y1103295D01*
X41947Y1102750D01*
X44053D01*
X46088Y1103295D01*
X47912Y1104348D01*
X49402Y1105838D01*
X50075Y1107004D01*
X51350Y1107103D01*
X67931Y1090522D01*
Y1081025D01*
X66758Y1080539D01*
X54198Y1093099D01*
X53040Y1093872D01*
X51675Y1094144D01*
X50278D01*
X49402Y1095662D01*
X47912Y1097151D01*
X46088Y1098205D01*
X44053Y1098750D01*
X41947D01*
X39912Y1098205D01*
X38088Y1097151D01*
X36598Y1095662D01*
X35545Y1093838D01*
X35000Y1091803D01*
Y1089697D01*
X35545Y1087662D01*
X36598Y1085838D01*
X38088Y1084348D01*
X39912Y1083295D01*
X41947Y1082750D01*
X44053D01*
X46088Y1083295D01*
X47912Y1084348D01*
X49402Y1085838D01*
X49463Y1085944D01*
X51050Y1086153D01*
X62431Y1074772D01*
Y1064525D01*
X61258Y1064039D01*
X53198Y1072099D01*
X52040Y1072872D01*
X50675Y1073144D01*
X50641D01*
X50455Y1073838D01*
X49402Y1075662D01*
X47912Y1077151D01*
X46088Y1078205D01*
X44053Y1078750D01*
X41947D01*
X39912Y1078205D01*
X38088Y1077151D01*
X36598Y1075662D01*
X35545Y1073838D01*
X35000Y1071803D01*
Y1069697D01*
X35545Y1067662D01*
X36598Y1065838D01*
X38088Y1064348D01*
X39912Y1063295D01*
X41947Y1062750D01*
X44053D01*
X46088Y1063295D01*
X47912Y1064348D01*
X49384Y1065820D01*
X56931Y1058272D01*
Y1047025D01*
X55758Y1046539D01*
X51698Y1050599D01*
X51000Y1051065D01*
Y1051803D01*
X50455Y1053838D01*
X49402Y1055662D01*
X47912Y1057151D01*
X46088Y1058205D01*
X44053Y1058750D01*
X41947D01*
X39912Y1058205D01*
X38088Y1057151D01*
X36598Y1055662D01*
X35545Y1053838D01*
X35000Y1051803D01*
Y1049697D01*
X35545Y1047662D01*
X36598Y1045838D01*
X38088Y1044348D01*
X39912Y1043295D01*
X41947Y1042750D01*
X44053D01*
X46088Y1043295D01*
X47876Y1044327D01*
X66602Y1025602D01*
X67759Y1024828D01*
X69125Y1024556D01*
X73222D01*
X73893Y1023886D01*
X75731Y1023125D01*
X77720D01*
X79557Y1023886D01*
X80964Y1025293D01*
X81725Y1027130D01*
Y1029120D01*
X80964Y1030957D01*
X80251Y1031670D01*
X79655Y1032500D01*
X80251Y1033330D01*
X80964Y1034043D01*
X81725Y1035880D01*
Y1037870D01*
X80964Y1039707D01*
X80376Y1040295D01*
X79568Y1041125D01*
X80376Y1041955D01*
X80964Y1042543D01*
X81725Y1044380D01*
Y1046370D01*
X80964Y1048207D01*
X80063Y1049108D01*
X79644Y1049813D01*
X80063Y1050767D01*
X80851Y1051555D01*
X81613Y1053393D01*
Y1055382D01*
X80851Y1057220D01*
X79445Y1058626D01*
X77607Y1059388D01*
X76659D01*
X75069Y1060978D01*
Y1092000D01*
X74797Y1093366D01*
X74023Y1094523D01*
X55273Y1113273D01*
X54116Y1114047D01*
X52750Y1114318D01*
X50177D01*
X49402Y1115662D01*
X47912Y1117151D01*
X46088Y1118205D01*
X44053Y1118750D01*
D02*
G37*
G36*
X475750Y1587871D02*
X213000D01*
X209345Y1587390D01*
X205940Y1585979D01*
X203015Y1583735D01*
X138265Y1518985D01*
X136021Y1516060D01*
X134610Y1512655D01*
X134129Y1509000D01*
Y1447681D01*
X87030Y1400582D01*
X73000D01*
Y1370582D01*
X77879D01*
Y1354680D01*
X77342Y1354240D01*
X75468Y1351956D01*
X74075Y1349350D01*
X73217Y1346522D01*
X72927Y1343582D01*
X73217Y1340641D01*
X74075Y1337814D01*
X75468Y1335208D01*
X77342Y1332924D01*
X77879Y1332483D01*
Y1278250D01*
X73000D01*
Y1248250D01*
X77879D01*
Y1232349D01*
X77342Y1231908D01*
X75468Y1229624D01*
X74075Y1227018D01*
X73217Y1224191D01*
X72927Y1221250D01*
X73217Y1218309D01*
X74075Y1215482D01*
X75468Y1212876D01*
X77342Y1210592D01*
X79626Y1208718D01*
X82232Y1207325D01*
X85059Y1206467D01*
X88000Y1206177D01*
X96000D01*
X98940Y1206467D01*
X101768Y1207325D01*
X104374Y1208718D01*
X106658Y1210592D01*
X108532Y1212876D01*
X109925Y1215482D01*
X110783Y1218309D01*
X111073Y1221250D01*
X110783Y1224191D01*
X109925Y1227018D01*
X108532Y1229624D01*
X106658Y1231908D01*
X106121Y1232349D01*
Y1248250D01*
X111000D01*
Y1278250D01*
X106121D01*
Y1332483D01*
X106658Y1332924D01*
X108532Y1335208D01*
X109925Y1337814D01*
X110783Y1340641D01*
X111073Y1343582D01*
X110783Y1346522D01*
X109925Y1349350D01*
X108532Y1351956D01*
X106658Y1354240D01*
X106121Y1354680D01*
Y1370582D01*
X111000D01*
Y1384612D01*
X158235Y1431847D01*
X160479Y1434771D01*
X161890Y1438177D01*
X162371Y1441832D01*
Y1503151D01*
X218849Y1559629D01*
X469901D01*
X512816Y1516715D01*
Y1508914D01*
X512936Y1507996D01*
Y1492914D01*
X517816D01*
Y1440397D01*
X512936D01*
Y1410397D01*
X517816D01*
Y1357880D01*
X512936D01*
Y1327880D01*
X517816D01*
Y1275363D01*
X512936D01*
Y1245363D01*
X517816D01*
Y1192847D01*
X512936D01*
Y1162847D01*
X517816D01*
Y1110330D01*
X512936D01*
Y1080330D01*
X550936D01*
Y1110330D01*
X546057D01*
Y1162847D01*
X550936D01*
Y1192847D01*
X546057D01*
Y1245363D01*
X550936D01*
Y1275363D01*
X546057D01*
Y1327880D01*
X550936D01*
Y1357880D01*
X546057D01*
Y1410397D01*
X550936D01*
Y1440397D01*
X546057D01*
Y1492914D01*
X550936D01*
Y1522914D01*
X541011D01*
X540576Y1526219D01*
X539165Y1529624D01*
X536921Y1532549D01*
X485735Y1583735D01*
X482811Y1585979D01*
X479405Y1587390D01*
X475750Y1587871D01*
D02*
G37*
G36*
X590936Y1110403D02*
X582936D01*
X579996Y1110113D01*
X577168Y1109256D01*
X574562Y1107863D01*
X572278Y1105988D01*
X570404Y1103704D01*
X569011Y1101098D01*
X568153Y1098271D01*
X567864Y1095330D01*
X568153Y1092390D01*
X569011Y1089562D01*
X570404Y1086956D01*
X572278Y1084672D01*
X574562Y1082798D01*
X577168Y1081405D01*
X579996Y1080547D01*
X582936Y1080258D01*
X590936D01*
X593877Y1080547D01*
X596704Y1081405D01*
X599310Y1082798D01*
X601594Y1084672D01*
X603469Y1086956D01*
X604861Y1089562D01*
X605719Y1092390D01*
X606009Y1095330D01*
X605719Y1098271D01*
X604861Y1101098D01*
X603469Y1103704D01*
X601594Y1105988D01*
X599310Y1107863D01*
X596704Y1109256D01*
X593877Y1110113D01*
X590936Y1110403D01*
D02*
G37*
G36*
X24500Y1078630D02*
Y1072250D01*
X30880D01*
X30455Y1073838D01*
X29402Y1075662D01*
X27912Y1077151D01*
X26088Y1078205D01*
X24500Y1078630D01*
D02*
G37*
G36*
X21500Y1078630D02*
X19912Y1078205D01*
X18088Y1077151D01*
X16598Y1075662D01*
X15545Y1073838D01*
X15120Y1072250D01*
X21500D01*
Y1078630D01*
D02*
G37*
G36*
X30880Y1069250D02*
X24500D01*
Y1062870D01*
X26088Y1063295D01*
X27912Y1064348D01*
X29402Y1065838D01*
X30455Y1067662D01*
X30880Y1069250D01*
D02*
G37*
G36*
X21500D02*
X15120D01*
X15545Y1067662D01*
X16598Y1065838D01*
X18088Y1064348D01*
X19912Y1063295D01*
X21500Y1062870D01*
Y1069250D01*
D02*
G37*
G36*
X397968Y1088500D02*
X361500D01*
Y1061913D01*
X370000D01*
X374394Y1062259D01*
X378679Y1063288D01*
X382751Y1064975D01*
X386509Y1067278D01*
X389860Y1070140D01*
X392723Y1073491D01*
X395025Y1077249D01*
X396712Y1081321D01*
X397741Y1085606D01*
X397968Y1088500D01*
D02*
G37*
G36*
X358500D02*
X322032D01*
X322259Y1085606D01*
X323288Y1081321D01*
X324975Y1077249D01*
X327277Y1073491D01*
X330140Y1070140D01*
X333491Y1067278D01*
X337249Y1064975D01*
X341321Y1063288D01*
X345606Y1062259D01*
X350000Y1061913D01*
X358500D01*
Y1088500D01*
D02*
G37*
G36*
X24500Y1058630D02*
Y1052250D01*
X30880D01*
X30455Y1053838D01*
X29402Y1055662D01*
X27912Y1057151D01*
X26088Y1058205D01*
X24500Y1058630D01*
D02*
G37*
G36*
X21500Y1058630D02*
X19912Y1058205D01*
X18088Y1057151D01*
X16598Y1055662D01*
X15545Y1053838D01*
X15120Y1052250D01*
X21500D01*
Y1058630D01*
D02*
G37*
G36*
Y1049250D02*
X15120D01*
X15545Y1047662D01*
X16598Y1045838D01*
X18088Y1044348D01*
X19912Y1043295D01*
X21500Y1042870D01*
Y1049250D01*
D02*
G37*
G36*
X30880D02*
X24500D01*
Y1042870D01*
X26088Y1043295D01*
X27912Y1044348D01*
X29402Y1045838D01*
X30455Y1047662D01*
X30880Y1049250D01*
D02*
G37*
G36*
X358692Y1038992D02*
X358692Y1038992D01*
X358692Y1038992D01*
X357879Y1038830D01*
X357131Y1038682D01*
X357131Y1038682D01*
X357131Y1038682D01*
X355293Y1037921D01*
X355293Y1037921D01*
X355293Y1037921D01*
X354475Y1037374D01*
X353970Y1037037D01*
X353970Y1037037D01*
X353970Y1037036D01*
X352563Y1035630D01*
X352563Y1035630D01*
X352093Y1034926D01*
X351679Y1034307D01*
X351679Y1034306D01*
X351679Y1034306D01*
X350918Y1032468D01*
X350918Y1032468D01*
X350918Y1032468D01*
X350747Y1031608D01*
X350608Y1030908D01*
X350608Y1030908D01*
X350608Y1030907D01*
X350608Y1029913D01*
X350608Y1015171D01*
X350608Y1015170D01*
X350918Y1013610D01*
X350918Y1013609D01*
X351718Y1011680D01*
X352602Y1010357D01*
X352602Y1010357D01*
X354078Y1008880D01*
X354380Y1008678D01*
X354484Y1008234D01*
X354380Y1007151D01*
X354078Y1006949D01*
X354078Y1006949D01*
X352602Y1005472D01*
X351718Y1004149D01*
X350918Y1002220D01*
X350918Y1002220D01*
X350608Y1000659D01*
X350608Y985917D01*
X350608Y984922D01*
X350608Y984922D01*
X350608Y984921D01*
X350771Y984101D01*
X350918Y983361D01*
X350918Y983361D01*
X350918Y983361D01*
X351679Y981523D01*
X351679Y981523D01*
X352172Y980786D01*
X352563Y980200D01*
X352563Y980200D01*
X353970Y978793D01*
X353970Y978793D01*
X353970Y978793D01*
X354660Y978332D01*
X355293Y977909D01*
X355293Y977909D01*
X355293Y977909D01*
X357131Y977147D01*
X357131Y977147D01*
X357131Y977147D01*
X357916Y976991D01*
X358692Y976837D01*
X358692Y976837D01*
X358692Y976837D01*
X359687Y976837D01*
X420987Y976837D01*
X421094Y976858D01*
X421202Y976843D01*
X422444Y976908D01*
X423113Y977078D01*
X423790Y977213D01*
X425634Y977977D01*
X425634Y977977D01*
X425634Y977977D01*
X426243Y978383D01*
X426957Y978860D01*
X426957Y978861D01*
X426958Y978861D01*
X428491Y980394D01*
X428491Y980394D01*
X428491Y980394D01*
X428897Y981002D01*
X429375Y981717D01*
X429375Y981717D01*
X429375Y981717D01*
X430204Y983720D01*
X430204Y983720D01*
X430205Y983720D01*
X430365Y984530D01*
X430515Y985281D01*
X430515Y985281D01*
X430515Y985281D01*
X430515Y986365D01*
X430515Y999615D01*
X430514Y999615D01*
Y1000659D01*
X430204Y1002220D01*
X430204Y1002220D01*
X429405Y1004149D01*
X429405Y1004149D01*
X428521Y1005472D01*
X427044Y1006949D01*
X426742Y1007151D01*
Y1008678D01*
X427044Y1008880D01*
X428521Y1010357D01*
X429405Y1011680D01*
X430204Y1013609D01*
X430204Y1013609D01*
X430514Y1015170D01*
Y1016214D01*
X430515Y1016215D01*
X430515Y1029464D01*
X430515Y1030548D01*
X430515Y1030548D01*
X430515Y1030549D01*
X430348Y1031388D01*
X430205Y1032109D01*
X430204Y1032109D01*
X430204Y1032109D01*
X429375Y1034112D01*
X429375Y1034112D01*
X429375Y1034113D01*
X428994Y1034682D01*
X428491Y1035435D01*
X428491Y1035435D01*
X428491Y1035436D01*
X426958Y1036969D01*
X426957Y1036969D01*
X426957Y1036969D01*
X426243Y1037446D01*
X425634Y1037853D01*
X425634Y1037853D01*
X425634Y1037853D01*
X423721Y1038645D01*
X423002Y1038788D01*
X422289Y1038953D01*
X421116Y1038990D01*
X421052Y1038979D01*
X420988Y1038992D01*
X420987D01*
X420987Y1038992D01*
X359687Y1038992D01*
X358692Y1038992D01*
D02*
G37*
G36*
X24500Y1038630D02*
Y1032250D01*
X30880D01*
X30455Y1033838D01*
X29402Y1035662D01*
X27912Y1037151D01*
X26088Y1038205D01*
X24500Y1038630D01*
D02*
G37*
G36*
X21500Y1038630D02*
X19912Y1038205D01*
X18088Y1037151D01*
X16598Y1035662D01*
X15545Y1033838D01*
X15120Y1032250D01*
X21500D01*
Y1038630D01*
D02*
G37*
G36*
X30880Y1029250D02*
X24500D01*
Y1022870D01*
X26088Y1023295D01*
X27912Y1024348D01*
X29402Y1025838D01*
X30455Y1027662D01*
X30880Y1029250D01*
D02*
G37*
G36*
X21500D02*
X15120D01*
X15545Y1027662D01*
X16598Y1025838D01*
X18088Y1024348D01*
X19912Y1023295D01*
X21500Y1022870D01*
Y1029250D01*
D02*
G37*
G36*
X301495Y1019265D02*
X299505D01*
X297668Y1018503D01*
X296480Y1017316D01*
X235005D01*
X233832Y1018489D01*
X231995Y1019250D01*
X230005D01*
X228168Y1018489D01*
X226761Y1017082D01*
X226000Y1015245D01*
Y1013255D01*
X226761Y1011418D01*
X228168Y1010011D01*
X230005Y1009250D01*
X231995D01*
X233832Y1010011D01*
X235020Y1011199D01*
X296495D01*
X297668Y1010026D01*
X299505Y1009265D01*
X301495D01*
X303332Y1010026D01*
X304739Y1011432D01*
X305500Y1013270D01*
Y1015259D01*
X304739Y1017097D01*
X303332Y1018503D01*
X301495Y1019265D01*
D02*
G37*
G36*
X24500Y1018630D02*
Y1012250D01*
X30880D01*
X30455Y1013838D01*
X29402Y1015662D01*
X27912Y1017151D01*
X26088Y1018205D01*
X24500Y1018630D01*
D02*
G37*
G36*
X21500D02*
X19912Y1018205D01*
X18088Y1017151D01*
X16598Y1015662D01*
X15545Y1013838D01*
X15120Y1012250D01*
X21500D01*
Y1018630D01*
D02*
G37*
G36*
X44053Y1038750D02*
X41947D01*
X39912Y1038205D01*
X38088Y1037151D01*
X36598Y1035662D01*
X35545Y1033838D01*
X35000Y1031803D01*
Y1029697D01*
X35545Y1027662D01*
X36598Y1025838D01*
X38088Y1024348D01*
X39912Y1023295D01*
X41947Y1022750D01*
X44053D01*
X45552Y1023151D01*
X61464Y1007239D01*
X62622Y1006466D01*
X63987Y1006194D01*
X72642D01*
X73141Y1005415D01*
X72568Y1004319D01*
X54478D01*
X50599Y1008198D01*
X51000Y1009697D01*
Y1011803D01*
X50455Y1013838D01*
X49402Y1015662D01*
X47912Y1017151D01*
X46088Y1018205D01*
X44053Y1018750D01*
X41947D01*
X39912Y1018205D01*
X38088Y1017151D01*
X36598Y1015662D01*
X35545Y1013838D01*
X35000Y1011803D01*
Y1009697D01*
X35545Y1007662D01*
X36598Y1005838D01*
X38088Y1004348D01*
X39912Y1003295D01*
X41947Y1002750D01*
X44053D01*
X45552Y1003151D01*
X50477Y998227D01*
X51634Y997453D01*
X53000Y997181D01*
X71450D01*
X72155Y995911D01*
X71942Y995568D01*
X49456D01*
X49402Y995662D01*
X47912Y997151D01*
X46088Y998205D01*
X44053Y998750D01*
X41947D01*
X39912Y998205D01*
X38088Y997151D01*
X36598Y995662D01*
X35545Y993838D01*
X35000Y991803D01*
Y989697D01*
X35545Y987662D01*
X36598Y985838D01*
X38088Y984348D01*
X39912Y983295D01*
X41947Y982750D01*
X44053D01*
X46088Y983295D01*
X47912Y984348D01*
X49402Y985838D01*
X50455Y987662D01*
X50661Y988431D01*
X71137D01*
X71816Y987161D01*
X71754Y987069D01*
X55750D01*
X54384Y986797D01*
X53227Y986023D01*
X45552Y978348D01*
X44053Y978750D01*
X41947D01*
X39912Y978205D01*
X38088Y977152D01*
X36598Y975662D01*
X35545Y973838D01*
X35000Y971803D01*
Y969697D01*
X35545Y967662D01*
X36598Y965838D01*
X38088Y964348D01*
X39912Y963295D01*
X41947Y962750D01*
X44053D01*
X46088Y963295D01*
X47912Y964348D01*
X49402Y965838D01*
X50455Y967662D01*
X51000Y969697D01*
Y971803D01*
X50599Y973302D01*
X57228Y979931D01*
X72997D01*
X73668Y979261D01*
X75505Y978500D01*
X77495D01*
X79332Y979261D01*
X80739Y980668D01*
X81500Y982505D01*
Y984495D01*
X80739Y986332D01*
X80026Y987045D01*
X79430Y987875D01*
X80026Y988705D01*
X80739Y989418D01*
X81500Y991255D01*
Y993244D01*
X80739Y995082D01*
X80151Y995670D01*
X79343Y996500D01*
X80151Y997330D01*
X80739Y997918D01*
X81500Y999755D01*
Y1001745D01*
X80739Y1003582D01*
X79838Y1004483D01*
X79419Y1005188D01*
X79838Y1006142D01*
X80626Y1006930D01*
X81388Y1008768D01*
Y1010757D01*
X80626Y1012595D01*
X79220Y1014001D01*
X77382Y1014762D01*
X75393D01*
X73555Y1014001D01*
X72885Y1013331D01*
X65466D01*
X50599Y1028198D01*
X51000Y1029697D01*
Y1031803D01*
X50455Y1033838D01*
X49402Y1035662D01*
X47912Y1037151D01*
X46088Y1038205D01*
X44053Y1038750D01*
D02*
G37*
G36*
X21500Y1009250D02*
X15120D01*
X15545Y1007662D01*
X16598Y1005838D01*
X18088Y1004348D01*
X19912Y1003295D01*
X21500Y1002870D01*
Y1009250D01*
D02*
G37*
G36*
X30880D02*
X24500D01*
Y1002870D01*
X26088Y1003295D01*
X27912Y1004348D01*
X29402Y1005838D01*
X30455Y1007662D01*
X30880Y1009250D01*
D02*
G37*
G36*
X590936Y1027886D02*
X582936D01*
X579996Y1027597D01*
X577168Y1026739D01*
X574562Y1025346D01*
X572278Y1023472D01*
X570404Y1021188D01*
X569011Y1018582D01*
X568153Y1015754D01*
X567864Y1012814D01*
X568153Y1009873D01*
X569011Y1007046D01*
X570404Y1004440D01*
X572278Y1002156D01*
X574562Y1000281D01*
X577168Y998888D01*
X579996Y998031D01*
X582936Y997741D01*
X590936D01*
X593877Y998031D01*
X596704Y998888D01*
X599310Y1000281D01*
X601594Y1002156D01*
X603469Y1004440D01*
X604861Y1007046D01*
X605719Y1009873D01*
X606009Y1012814D01*
X605719Y1015754D01*
X604861Y1018582D01*
X603469Y1021188D01*
X601594Y1023472D01*
X599310Y1025346D01*
X596704Y1026739D01*
X593877Y1027597D01*
X590936Y1027886D01*
D02*
G37*
G36*
X24500Y998630D02*
Y992250D01*
X30880D01*
X30455Y993838D01*
X29402Y995662D01*
X27912Y997151D01*
X26088Y998205D01*
X24500Y998630D01*
D02*
G37*
G36*
X21500Y998630D02*
X19912Y998205D01*
X18088Y997151D01*
X16598Y995662D01*
X15545Y993838D01*
X15120Y992250D01*
X21500D01*
Y998630D01*
D02*
G37*
G36*
X301495Y993865D02*
X299505D01*
X297668Y993103D01*
X296488Y991923D01*
X234398D01*
X233332Y992989D01*
X231495Y993750D01*
X229505D01*
X227668Y992989D01*
X226261Y991582D01*
X225500Y989745D01*
Y987755D01*
X226261Y985918D01*
X227668Y984511D01*
X229505Y983750D01*
X231495D01*
X233332Y984511D01*
X234627Y985806D01*
X296488D01*
X297668Y984626D01*
X299505Y983865D01*
X301495D01*
X303332Y984626D01*
X304739Y986032D01*
X305500Y987870D01*
Y989859D01*
X304739Y991697D01*
X303332Y993103D01*
X301495Y993865D01*
D02*
G37*
G36*
X30880Y989250D02*
X24500D01*
Y982870D01*
X26088Y983295D01*
X27912Y984348D01*
X29402Y985838D01*
X30455Y987662D01*
X30880Y989250D01*
D02*
G37*
G36*
X21500D02*
X15120D01*
X15545Y987662D01*
X16598Y985838D01*
X18088Y984348D01*
X19912Y983295D01*
X21500Y982870D01*
Y989250D01*
D02*
G37*
G36*
X31000Y978750D02*
X24500D01*
Y972250D01*
X31000D01*
Y978750D01*
D02*
G37*
G36*
X21500D02*
X15000D01*
Y972250D01*
X21500D01*
Y978750D01*
D02*
G37*
G36*
X31000Y969250D02*
X24500D01*
Y962750D01*
X31000D01*
Y969250D01*
D02*
G37*
G36*
X21500D02*
X15000D01*
Y962750D01*
X21500D01*
Y969250D01*
D02*
G37*
G36*
X107745Y978000D02*
X105755D01*
X103918Y977239D01*
X102511Y975832D01*
X101908Y974376D01*
X100949Y973417D01*
X99954Y971928D01*
X99605Y970173D01*
Y946739D01*
X99193Y945745D01*
Y943755D01*
X99955Y941918D01*
X101361Y940511D01*
X103199Y939750D01*
X105188D01*
X107026Y940511D01*
X108432Y941918D01*
X109193Y943755D01*
Y945745D01*
X108781Y946739D01*
Y968272D01*
X109050Y968541D01*
X109582Y968761D01*
X110989Y970168D01*
X111750Y972005D01*
Y973995D01*
X110989Y975832D01*
X109582Y977239D01*
X107745Y978000D01*
D02*
G37*
G36*
X423436Y918742D02*
X360186Y918742D01*
X359192Y918742D01*
X359192Y918742D01*
X357631Y918432D01*
X357631Y918432D01*
X355793Y917671D01*
X354470Y916786D01*
X354470Y916786D01*
X353064Y915380D01*
X352179Y914057D01*
X352179Y914057D01*
X351493Y912400D01*
X351363Y911744D01*
X351191Y911098D01*
X351116Y909923D01*
X351134Y909793D01*
X351108Y909664D01*
Y865414D01*
Y864469D01*
X351418Y862908D01*
X352141Y861162D01*
X353026Y859839D01*
X354362Y858503D01*
X355685Y857619D01*
X357431Y856896D01*
X358991Y856585D01*
X420936D01*
X422130Y856585D01*
X422130Y856585D01*
X423690Y856896D01*
X425896Y857809D01*
X425896Y857809D01*
X427219Y858693D01*
X427219Y858693D01*
X428907Y860381D01*
X429791Y861704D01*
X430704Y863910D01*
X431015Y865470D01*
X431015Y866663D01*
X431015Y866664D01*
X431015Y911164D01*
X431015Y911860D01*
X431015Y911860D01*
X431015Y911860D01*
X430860Y912636D01*
X430704Y913421D01*
X430704Y913421D01*
X430704Y913421D01*
X430171Y914707D01*
X430171Y914707D01*
X429639Y915504D01*
X429287Y916030D01*
X429287Y916030D01*
X429287Y916030D01*
X428302Y917015D01*
X426979Y917899D01*
X426156Y918240D01*
X425698Y918331D01*
X425261Y918495D01*
X424104Y918687D01*
X423767Y918676D01*
X423438Y918742D01*
X423437D01*
X423436Y918742D01*
D02*
G37*
G36*
X590936Y945369D02*
X582936D01*
X579996Y945080D01*
X577168Y944222D01*
X574562Y942829D01*
X572278Y940955D01*
X570404Y938671D01*
X569011Y936065D01*
X568153Y933238D01*
X567864Y930297D01*
X568153Y927356D01*
X569011Y924529D01*
X570404Y921923D01*
X572278Y919639D01*
X574562Y917765D01*
X577168Y916372D01*
X579996Y915514D01*
X582936Y915224D01*
X590936D01*
X593877Y915514D01*
X596704Y916372D01*
X599310Y917765D01*
X601594Y919639D01*
X603469Y921923D01*
X604861Y924529D01*
X605719Y927356D01*
X606009Y930297D01*
X605719Y933238D01*
X604861Y936065D01*
X603469Y938671D01*
X601594Y940955D01*
X599310Y942829D01*
X596704Y944222D01*
X593877Y945080D01*
X590936Y945369D01*
D02*
G37*
G36*
X24500Y919630D02*
Y913250D01*
X30880D01*
X30455Y914838D01*
X29402Y916662D01*
X27912Y918152D01*
X26088Y919205D01*
X24500Y919630D01*
D02*
G37*
G36*
X21500Y919630D02*
X19912Y919205D01*
X18088Y918152D01*
X16598Y916662D01*
X15545Y914838D01*
X15120Y913250D01*
X21500D01*
Y919630D01*
D02*
G37*
G36*
X30880Y910250D02*
X24500D01*
Y903870D01*
X26088Y904295D01*
X27912Y905348D01*
X29402Y906838D01*
X30455Y908662D01*
X30880Y910250D01*
D02*
G37*
G36*
X21500D02*
X15120D01*
X15545Y908662D01*
X16598Y906838D01*
X18088Y905348D01*
X19912Y904295D01*
X21500Y903870D01*
Y910250D01*
D02*
G37*
G36*
X44053Y919750D02*
X41947D01*
X39912Y919205D01*
X38088Y918152D01*
X36598Y916662D01*
X35545Y914838D01*
X35000Y912803D01*
Y910697D01*
X35545Y908662D01*
X36598Y906838D01*
X38088Y905348D01*
X39912Y904295D01*
X41947Y903750D01*
X44053D01*
X46088Y904295D01*
X47912Y905348D01*
X49402Y906838D01*
X50455Y908662D01*
X51000Y910697D01*
Y912803D01*
X50455Y914838D01*
X49402Y916662D01*
X47912Y918152D01*
X46088Y919205D01*
X44053Y919750D01*
D02*
G37*
G36*
X58745Y912500D02*
X56755D01*
X54918Y911739D01*
X53511Y910332D01*
X52750Y908495D01*
Y907047D01*
X45157Y899454D01*
X44053Y899750D01*
X41947D01*
X39912Y899205D01*
X38088Y898152D01*
X36598Y896662D01*
X35545Y894838D01*
X35000Y892803D01*
Y890697D01*
X35545Y888662D01*
X36598Y886838D01*
X38088Y885348D01*
X39912Y884295D01*
X41947Y883750D01*
X44053D01*
X46088Y884295D01*
X47374Y885038D01*
X48154Y884021D01*
X43882Y879750D01*
X41947D01*
X39912Y879205D01*
X38088Y878152D01*
X36598Y876662D01*
X35545Y874838D01*
X35000Y872803D01*
Y870697D01*
X35545Y868662D01*
X36598Y866838D01*
X38088Y865348D01*
X39912Y864295D01*
X41947Y863750D01*
X44053D01*
X46088Y864295D01*
X47912Y865348D01*
X49402Y866838D01*
X50455Y868662D01*
X51000Y870697D01*
Y872803D01*
X50455Y874838D01*
X49946Y875720D01*
X52008Y877782D01*
X53181Y877296D01*
Y858407D01*
X51076Y856302D01*
X49489Y856511D01*
X49402Y856662D01*
X47912Y858152D01*
X46088Y859205D01*
X44053Y859750D01*
X41947D01*
X39912Y859205D01*
X38088Y858152D01*
X36598Y856662D01*
X35545Y854838D01*
X35000Y852803D01*
Y850697D01*
X35545Y848662D01*
X36598Y846838D01*
X38088Y845348D01*
X39912Y844295D01*
X41947Y843750D01*
X44053D01*
X46088Y844295D01*
X47912Y845348D01*
X49402Y846838D01*
X50258Y848320D01*
X51710D01*
X52980Y848573D01*
X53055Y848517D01*
X53389Y847186D01*
X45552Y839349D01*
X44053Y839750D01*
X41947D01*
X39912Y839205D01*
X38088Y838152D01*
X36598Y836662D01*
X35545Y834838D01*
X35000Y832803D01*
Y830697D01*
X35545Y828662D01*
X36598Y826838D01*
X38088Y825348D01*
X39912Y824295D01*
X41947Y823750D01*
X44053D01*
X46088Y824295D01*
X47912Y825348D01*
X49402Y826838D01*
X50161Y828154D01*
X51431Y827814D01*
Y825228D01*
X45552Y819349D01*
X44053Y819750D01*
X41947D01*
X39912Y819205D01*
X38088Y818152D01*
X36598Y816662D01*
X35545Y814838D01*
X35000Y812803D01*
Y810697D01*
X35545Y808662D01*
X36598Y806838D01*
X38088Y805349D01*
X39912Y804295D01*
X41947Y803750D01*
X44053D01*
X46088Y804295D01*
X47912Y805349D01*
X49402Y806838D01*
X50455Y808662D01*
X51000Y810697D01*
Y812803D01*
X50599Y814302D01*
X55758Y819461D01*
X56931Y818975D01*
Y810728D01*
X45552Y799349D01*
X44053Y799750D01*
X41947D01*
X39912Y799205D01*
X38088Y798152D01*
X36598Y796662D01*
X35545Y794838D01*
X35000Y792803D01*
Y790697D01*
X35545Y788662D01*
X36598Y786838D01*
X38088Y785349D01*
X39912Y784295D01*
X41947Y783750D01*
X44053D01*
X46088Y784295D01*
X47912Y785349D01*
X49402Y786838D01*
X50455Y788662D01*
X51000Y790697D01*
Y792803D01*
X50599Y794302D01*
X60758Y804461D01*
X61931Y803975D01*
Y795728D01*
X45552Y779349D01*
X44053Y779750D01*
X41947D01*
X39912Y779205D01*
X38088Y778152D01*
X36598Y776662D01*
X35545Y774838D01*
X35000Y772803D01*
Y770697D01*
X35545Y768662D01*
X36598Y766838D01*
X38088Y765349D01*
X39912Y764295D01*
X41947Y763750D01*
X44053D01*
X46088Y764295D01*
X47912Y765349D01*
X49402Y766838D01*
X50455Y768662D01*
X51000Y770697D01*
Y772803D01*
X50599Y774302D01*
X68023Y791727D01*
X68797Y792884D01*
X69069Y794250D01*
Y824022D01*
X81047Y836000D01*
X81995D01*
X83832Y836761D01*
X85239Y838168D01*
X86000Y840005D01*
Y841995D01*
X85239Y843832D01*
X83832Y845239D01*
X81995Y846000D01*
X80006D01*
X78604Y846794D01*
X78169Y847844D01*
X76763Y849251D01*
X74925Y850012D01*
X74580D01*
X74250Y850506D01*
Y852495D01*
X73489Y854332D01*
X72082Y855739D01*
X70244Y856500D01*
X68255D01*
X66589Y855810D01*
X65319Y856299D01*
Y873772D01*
X69297Y877750D01*
X70245D01*
X72082Y878511D01*
X73489Y879918D01*
X74250Y881755D01*
Y883745D01*
X73489Y885582D01*
X72082Y886989D01*
X71885Y887070D01*
X71637Y888316D01*
X71739Y888418D01*
X72500Y890255D01*
Y892245D01*
X71739Y894082D01*
X70332Y895489D01*
X68495Y896250D01*
X68190D01*
X67342Y897520D01*
X67750Y898505D01*
Y900495D01*
X66989Y902332D01*
X65582Y903739D01*
X63745Y904500D01*
X63294D01*
X62445Y905770D01*
X62750Y906505D01*
Y908495D01*
X61989Y910332D01*
X60582Y911739D01*
X58745Y912500D01*
D02*
G37*
G36*
X24500Y899630D02*
Y893250D01*
X30880D01*
X30455Y894838D01*
X29402Y896662D01*
X27912Y898152D01*
X26088Y899205D01*
X24500Y899630D01*
D02*
G37*
G36*
X21500Y899630D02*
X19912Y899205D01*
X18088Y898152D01*
X16598Y896662D01*
X15545Y894838D01*
X15120Y893250D01*
X21500D01*
Y899630D01*
D02*
G37*
G36*
X275494Y886315D02*
X273505D01*
X271668Y885553D01*
X270455Y884341D01*
X192980D01*
X191832Y885489D01*
X189995Y886250D01*
X188006D01*
X186168Y885489D01*
X184761Y884082D01*
X184000Y882245D01*
Y880255D01*
X184761Y878418D01*
X186168Y877011D01*
X188006Y876250D01*
X189995D01*
X191832Y877011D01*
X193045Y878223D01*
X270520D01*
X271668Y877076D01*
X273505Y876315D01*
X275494D01*
X277332Y877076D01*
X278739Y878482D01*
X279500Y880320D01*
Y882309D01*
X278739Y884147D01*
X277332Y885553D01*
X275494Y886315D01*
D02*
G37*
G36*
X21500Y890250D02*
X15120D01*
X15545Y888662D01*
X16598Y886838D01*
X18088Y885348D01*
X19912Y884295D01*
X21500Y883870D01*
Y890250D01*
D02*
G37*
G36*
X30880D02*
X24500D01*
Y883870D01*
X26088Y884295D01*
X27912Y885348D01*
X29402Y886838D01*
X30455Y888662D01*
X30880Y890250D01*
D02*
G37*
G36*
X24500Y879630D02*
Y873250D01*
X30880D01*
X30455Y874838D01*
X29402Y876662D01*
X27912Y878152D01*
X26088Y879205D01*
X24500Y879630D01*
D02*
G37*
G36*
X21500Y879630D02*
X19912Y879205D01*
X18088Y878152D01*
X16598Y876662D01*
X15545Y874838D01*
X15120Y873250D01*
X21500D01*
Y879630D01*
D02*
G37*
G36*
X30880Y870250D02*
X24500D01*
Y863870D01*
X26088Y864295D01*
X27912Y865348D01*
X29402Y866838D01*
X30455Y868662D01*
X30880Y870250D01*
D02*
G37*
G36*
X21500D02*
X15120D01*
X15545Y868662D01*
X16598Y866838D01*
X18088Y865348D01*
X19912Y864295D01*
X21500Y863870D01*
Y870250D01*
D02*
G37*
G36*
X24500Y859630D02*
Y853250D01*
X30880D01*
X30455Y854838D01*
X29402Y856662D01*
X27912Y858152D01*
X26088Y859205D01*
X24500Y859630D01*
D02*
G37*
G36*
X21500D02*
X19912Y859205D01*
X18088Y858152D01*
X16598Y856662D01*
X15545Y854838D01*
X15120Y853250D01*
X21500D01*
Y859630D01*
D02*
G37*
G36*
Y850250D02*
X15120D01*
X15545Y848662D01*
X16598Y846838D01*
X18088Y845348D01*
X19912Y844295D01*
X21500Y843870D01*
Y850250D01*
D02*
G37*
G36*
X30880D02*
X24500D01*
Y843870D01*
X26088Y844295D01*
X27912Y845348D01*
X29402Y846838D01*
X30455Y848662D01*
X30880Y850250D01*
D02*
G37*
G36*
X24500Y839630D02*
Y833250D01*
X30880D01*
X30455Y834838D01*
X29402Y836662D01*
X27912Y838152D01*
X26088Y839205D01*
X24500Y839630D01*
D02*
G37*
G36*
X21500Y839630D02*
X19912Y839205D01*
X18088Y838152D01*
X16598Y836662D01*
X15545Y834838D01*
X15120Y833250D01*
X21500D01*
Y839630D01*
D02*
G37*
G36*
X590936Y862853D02*
X582936D01*
X579996Y862563D01*
X577168Y861705D01*
X574562Y860313D01*
X572278Y858438D01*
X570404Y856154D01*
X569011Y853548D01*
X568153Y850721D01*
X567864Y847780D01*
X568153Y844840D01*
X569011Y842012D01*
X570404Y839406D01*
X572278Y837122D01*
X574562Y835248D01*
X577168Y833855D01*
X579996Y832997D01*
X582936Y832708D01*
X590936D01*
X593877Y832997D01*
X596704Y833855D01*
X599310Y835248D01*
X601594Y837122D01*
X603469Y839406D01*
X604861Y842012D01*
X605719Y844840D01*
X606009Y847780D01*
X605719Y850721D01*
X604861Y853548D01*
X603469Y856154D01*
X601594Y858438D01*
X599310Y860313D01*
X596704Y861705D01*
X593877Y862563D01*
X590936Y862853D01*
D02*
G37*
G36*
X423436Y827825D02*
X360186Y827825D01*
X359192Y827825D01*
X359192Y827825D01*
X357631Y827515D01*
X357631Y827515D01*
X355793Y826754D01*
X354470Y825870D01*
X354470Y825870D01*
X353064Y824463D01*
X352179Y823140D01*
X352179Y823140D01*
X351493Y821483D01*
X351363Y820828D01*
X351191Y820181D01*
X351116Y819006D01*
X351134Y818876D01*
X351108Y818747D01*
Y774497D01*
Y773552D01*
X351418Y771992D01*
X352141Y770246D01*
X353026Y768923D01*
X354362Y767586D01*
X355685Y766702D01*
X357431Y765979D01*
X358991Y765669D01*
X420936D01*
X422130Y765669D01*
X422130Y765669D01*
X423690Y765979D01*
X425896Y766893D01*
X425896Y766893D01*
X427219Y767777D01*
X427219Y767777D01*
X428907Y769465D01*
X429791Y770788D01*
X430704Y772993D01*
X431015Y774554D01*
X431015Y775747D01*
X431015Y775747D01*
X431015Y820247D01*
X431015Y820943D01*
X431015Y820943D01*
X431015Y820943D01*
X430860Y821720D01*
X430704Y822504D01*
X430704Y822504D01*
X430704Y822504D01*
X430171Y823791D01*
X430171Y823791D01*
X429639Y824587D01*
X429287Y825114D01*
X429287Y825114D01*
X429287Y825114D01*
X428302Y826098D01*
X426979Y826982D01*
X426156Y827323D01*
X425698Y827414D01*
X425261Y827579D01*
X424104Y827770D01*
X423767Y827760D01*
X423438Y827825D01*
X423437D01*
X423436Y827825D01*
D02*
G37*
G36*
X30880Y830250D02*
X24500D01*
Y823870D01*
X26088Y824295D01*
X27912Y825348D01*
X29402Y826838D01*
X30455Y828662D01*
X30880Y830250D01*
D02*
G37*
G36*
X21500D02*
X15120D01*
X15545Y828662D01*
X16598Y826838D01*
X18088Y825348D01*
X19912Y824295D01*
X21500Y823870D01*
Y830250D01*
D02*
G37*
G36*
X24500Y819630D02*
Y813250D01*
X30880D01*
X30455Y814838D01*
X29402Y816662D01*
X27912Y818152D01*
X26088Y819205D01*
X24500Y819630D01*
D02*
G37*
G36*
X21500D02*
X19912Y819205D01*
X18088Y818152D01*
X16598Y816662D01*
X15545Y814838D01*
X15120Y813250D01*
X21500D01*
Y819630D01*
D02*
G37*
G36*
X30880Y810250D02*
X24500D01*
Y803870D01*
X26088Y804295D01*
X27912Y805349D01*
X29402Y806838D01*
X30455Y808662D01*
X30880Y810250D01*
D02*
G37*
G36*
X21500D02*
X15120D01*
X15545Y808662D01*
X16598Y806838D01*
X18088Y805349D01*
X19912Y804295D01*
X21500Y803870D01*
Y810250D01*
D02*
G37*
G36*
X109745Y848000D02*
X107755D01*
X105918Y847239D01*
X104511Y845832D01*
X103750Y843995D01*
Y842005D01*
X104511Y840168D01*
X105181Y839498D01*
Y814250D01*
X105453Y812884D01*
X106227Y811727D01*
X113750Y804203D01*
Y803255D01*
X114511Y801418D01*
X115918Y800011D01*
X117755Y799250D01*
X119745D01*
X121582Y800011D01*
X122989Y801418D01*
X123750Y803255D01*
Y805245D01*
X122989Y807082D01*
X121582Y808489D01*
X119745Y809250D01*
X118797D01*
X112319Y815728D01*
Y839498D01*
X112989Y840168D01*
X113750Y842005D01*
Y843995D01*
X112989Y845832D01*
X111582Y847239D01*
X109745Y848000D01*
D02*
G37*
G36*
X275494Y795398D02*
X273505D01*
X271668Y794637D01*
X270414Y793383D01*
X198938D01*
X197832Y794489D01*
X195995Y795250D01*
X194005D01*
X192168Y794489D01*
X190761Y793082D01*
X190000Y791245D01*
Y789255D01*
X190761Y787418D01*
X192168Y786011D01*
X194005Y785250D01*
X195995D01*
X197832Y786011D01*
X199086Y787265D01*
X270562D01*
X271668Y786159D01*
X273505Y785398D01*
X275494D01*
X277332Y786159D01*
X278739Y787566D01*
X279500Y789403D01*
Y791393D01*
X278739Y793230D01*
X277332Y794637D01*
X275494Y795398D01*
D02*
G37*
G36*
X24500Y799630D02*
Y793250D01*
X30880D01*
X30455Y794838D01*
X29402Y796662D01*
X27912Y798152D01*
X26088Y799205D01*
X24500Y799630D01*
D02*
G37*
G36*
X21500Y799630D02*
X19912Y799205D01*
X18088Y798152D01*
X16598Y796662D01*
X15545Y794838D01*
X15120Y793250D01*
X21500D01*
Y799630D01*
D02*
G37*
G36*
X30880Y790250D02*
X24500D01*
Y783870D01*
X26088Y784295D01*
X27912Y785349D01*
X29402Y786838D01*
X30455Y788662D01*
X30880Y790250D01*
D02*
G37*
G36*
X21500D02*
X15120D01*
X15545Y788662D01*
X16598Y786838D01*
X18088Y785349D01*
X19912Y784295D01*
X21500Y783870D01*
Y790250D01*
D02*
G37*
G36*
X31000Y779750D02*
X24500D01*
Y773250D01*
X31000D01*
Y779750D01*
D02*
G37*
G36*
X21500D02*
X15000D01*
Y773250D01*
X21500D01*
Y779750D01*
D02*
G37*
G36*
X31000Y770250D02*
X24500D01*
Y763750D01*
X31000D01*
Y770250D01*
D02*
G37*
G36*
X21500D02*
X15000D01*
Y763750D01*
X21500D01*
Y770250D01*
D02*
G37*
G36*
X590936Y780336D02*
X582936D01*
X579996Y780047D01*
X577168Y779189D01*
X574562Y777796D01*
X572278Y775922D01*
X570404Y773637D01*
X569011Y771032D01*
X568153Y768204D01*
X567864Y765264D01*
X568153Y762323D01*
X569011Y759496D01*
X570404Y756890D01*
X572278Y754606D01*
X574562Y752731D01*
X577168Y751338D01*
X579996Y750481D01*
X582936Y750191D01*
X590936D01*
X593877Y750481D01*
X596704Y751338D01*
X599310Y752731D01*
X601594Y754606D01*
X603469Y756890D01*
X604861Y759496D01*
X605719Y762323D01*
X606009Y765264D01*
X605719Y768204D01*
X604861Y771032D01*
X603469Y773637D01*
X601594Y775922D01*
X599310Y777796D01*
X596704Y779189D01*
X593877Y780047D01*
X590936Y780336D01*
D02*
G37*
G36*
X5745Y743750D02*
X3755D01*
X1918Y742989D01*
X511Y741582D01*
X-250Y739745D01*
Y737755D01*
X511Y735918D01*
X1918Y734511D01*
X3755Y733750D01*
X5745D01*
X6437Y734037D01*
X22709D01*
X24005Y733500D01*
X25995D01*
X27832Y734261D01*
X29239Y735668D01*
X30000Y737505D01*
Y739495D01*
X29239Y741332D01*
X27832Y742739D01*
X25995Y743500D01*
X24005D01*
X23313Y743213D01*
X7041D01*
X5745Y743750D01*
D02*
G37*
G36*
X423250Y729512D02*
X360000Y729512D01*
X359006Y729512D01*
X359006Y729512D01*
X357445Y729201D01*
X357445Y729201D01*
X355607Y728440D01*
X354284Y727556D01*
X354284Y727556D01*
X352877Y726150D01*
X351993Y724826D01*
X351993Y724826D01*
X351307Y723169D01*
X351176Y722514D01*
X351005Y721868D01*
X350930Y720692D01*
X350947Y720562D01*
X350922Y720433D01*
Y676183D01*
Y675239D01*
X351232Y673678D01*
X351955Y671932D01*
X352839Y670609D01*
X354175Y669273D01*
X355499Y668389D01*
X357244Y667665D01*
X358805Y667355D01*
X420750D01*
X421943Y667355D01*
X421943Y667355D01*
X423504Y667665D01*
X425709Y668579D01*
X425709Y668579D01*
X427033Y669463D01*
X427033Y669463D01*
X428720Y671151D01*
X429604Y672474D01*
X430518Y674679D01*
X430828Y676240D01*
X430828Y677433D01*
X430828Y677433D01*
X430828Y721933D01*
X430828Y722629D01*
X430828Y722630D01*
X430828Y722630D01*
X430674Y723406D01*
X430518Y724190D01*
X430518Y724190D01*
X430518Y724190D01*
X429985Y725477D01*
X429985Y725477D01*
X429453Y726274D01*
X429101Y726800D01*
X429101Y726800D01*
X429101Y726800D01*
X428116Y727785D01*
X426793Y728669D01*
X425970Y729010D01*
X425512Y729101D01*
X425075Y729265D01*
X423917Y729457D01*
X423581Y729446D01*
X423251Y729512D01*
X423251D01*
X423250Y729512D01*
D02*
G37*
G36*
X275494Y697084D02*
X273505D01*
X271668Y696323D01*
X270261Y694917D01*
X270217Y694809D01*
X205749D01*
X205739Y694832D01*
X204332Y696239D01*
X202495Y697000D01*
X200505D01*
X198668Y696239D01*
X197261Y694832D01*
X196500Y692995D01*
Y691005D01*
X197261Y689168D01*
X198668Y687761D01*
X200505Y687000D01*
X202495D01*
X204332Y687761D01*
X205262Y688691D01*
X270822D01*
X271668Y687846D01*
X273505Y687084D01*
X275494D01*
X277332Y687846D01*
X278739Y689252D01*
X279500Y691090D01*
Y693079D01*
X278739Y694917D01*
X277332Y696323D01*
X275494Y697084D01*
D02*
G37*
G36*
X41000Y712000D02*
X19000D01*
Y690000D01*
X41000D01*
Y712000D01*
D02*
G37*
G36*
X590750Y698823D02*
X582750D01*
X579809Y698533D01*
X576982Y697675D01*
X574376Y696282D01*
X572092Y694408D01*
X570218Y692124D01*
X568825Y689518D01*
X567967Y686691D01*
X567677Y683750D01*
X567967Y680809D01*
X568825Y677982D01*
X570218Y675376D01*
X572092Y673092D01*
X574376Y671218D01*
X576982Y669825D01*
X579809Y668967D01*
X582750Y668677D01*
X590750D01*
X593690Y668967D01*
X596518Y669825D01*
X599124Y671218D01*
X601408Y673092D01*
X603282Y675376D01*
X604675Y677982D01*
X605533Y680809D01*
X605823Y683750D01*
X605533Y686691D01*
X604675Y689518D01*
X603282Y692124D01*
X601408Y694408D01*
X599124Y696282D01*
X596518Y697675D01*
X593690Y698533D01*
X590750Y698823D01*
D02*
G37*
G36*
X31448Y687000D02*
X28552D01*
X25754Y686250D01*
X23246Y684802D01*
X21198Y682754D01*
X19750Y680246D01*
X19000Y677448D01*
Y674552D01*
X19750Y671754D01*
X21198Y669246D01*
X23246Y667198D01*
X25754Y665750D01*
X28552Y665000D01*
X31448D01*
X34246Y665750D01*
X36754Y667198D01*
X38802Y669246D01*
X40250Y671754D01*
X41000Y674552D01*
Y677448D01*
X40250Y680246D01*
X38802Y682754D01*
X36754Y684802D01*
X34246Y686250D01*
X31448Y687000D01*
D02*
G37*
G36*
X423436Y653409D02*
X360186Y653409D01*
X359192Y653409D01*
X359192Y653409D01*
X357631Y653098D01*
X357631Y653098D01*
X355793Y652337D01*
X354470Y651453D01*
X354470Y651453D01*
X353064Y650046D01*
X352179Y648723D01*
X352179Y648723D01*
X351493Y647066D01*
X351363Y646411D01*
X351191Y645765D01*
X351116Y644589D01*
X351134Y644459D01*
X351108Y644330D01*
Y600080D01*
Y599136D01*
X351418Y597575D01*
X352141Y595829D01*
X353026Y594506D01*
X354362Y593170D01*
X355685Y592286D01*
X357431Y591563D01*
X358991Y591252D01*
X420936D01*
X422130Y591252D01*
X422130Y591252D01*
X423690Y591562D01*
X425896Y592476D01*
X425896Y592476D01*
X427219Y593360D01*
X427219Y593360D01*
X428907Y595048D01*
X429791Y596371D01*
X430704Y598576D01*
X431015Y600137D01*
X431015Y601330D01*
X431015Y601330D01*
X431015Y645830D01*
X431015Y646526D01*
X431015Y646527D01*
X431015Y646527D01*
X430860Y647303D01*
X430704Y648087D01*
X430704Y648087D01*
X430704Y648087D01*
X430171Y649374D01*
X430171Y649374D01*
X429639Y650171D01*
X429287Y650697D01*
X429287Y650697D01*
X429287Y650697D01*
X428302Y651682D01*
X426979Y652566D01*
X426156Y652907D01*
X425698Y652998D01*
X425261Y653162D01*
X424104Y653354D01*
X423767Y653343D01*
X423438Y653409D01*
X423437D01*
X423436Y653409D01*
D02*
G37*
G36*
X31448Y662000D02*
X28552D01*
X25754Y661250D01*
X23246Y659802D01*
X21198Y657754D01*
X19750Y655246D01*
X19000Y652448D01*
Y649552D01*
X19750Y646754D01*
X21198Y644246D01*
X23246Y642198D01*
X25754Y640750D01*
X28552Y640000D01*
X31448D01*
X34246Y640750D01*
X36754Y642198D01*
X38802Y644246D01*
X40250Y646754D01*
X41000Y649552D01*
Y652448D01*
X40250Y655246D01*
X38802Y657754D01*
X36754Y659802D01*
X34246Y661250D01*
X31448Y662000D01*
D02*
G37*
G36*
Y637000D02*
X28552D01*
X25754Y636250D01*
X23246Y634802D01*
X21198Y632754D01*
X19750Y630246D01*
X19000Y627448D01*
Y624552D01*
X19750Y621754D01*
X21198Y619246D01*
X23246Y617198D01*
X25754Y615750D01*
X28552Y615000D01*
X31448D01*
X34246Y615750D01*
X36754Y617198D01*
X38802Y619246D01*
X40250Y621754D01*
X41000Y624552D01*
Y627448D01*
X40250Y630246D01*
X38802Y632754D01*
X36754Y634802D01*
X34246Y636250D01*
X31448Y637000D01*
D02*
G37*
G36*
X209745Y621000D02*
X207755D01*
X205918Y620239D01*
X204511Y618832D01*
X203750Y616995D01*
Y615005D01*
X204511Y613168D01*
X205918Y611761D01*
X207755Y611000D01*
X209745D01*
X211582Y611761D01*
X212753Y612932D01*
X270478D01*
X271668Y611743D01*
X273505Y610981D01*
X275494D01*
X277332Y611743D01*
X278739Y613149D01*
X279500Y614987D01*
Y616976D01*
X278739Y618814D01*
X277332Y620220D01*
X275494Y620981D01*
X273505D01*
X271668Y620220D01*
X270497Y619049D01*
X212772D01*
X211582Y620239D01*
X209745Y621000D01*
D02*
G37*
G36*
X31500Y611986D02*
Y602500D01*
X40986D01*
X40250Y605246D01*
X38802Y607754D01*
X36754Y609802D01*
X34246Y611250D01*
X31500Y611986D01*
D02*
G37*
G36*
X28500Y611986D02*
X25754Y611250D01*
X23246Y609802D01*
X21198Y607754D01*
X19750Y605246D01*
X19014Y602500D01*
X28500D01*
Y611986D01*
D02*
G37*
G36*
X40986Y599500D02*
X30000D01*
X19014D01*
X19750Y596754D01*
X21198Y594246D01*
X23246Y592198D01*
X25754Y590750D01*
X27682Y590233D01*
X27515Y588963D01*
X7119D01*
X5689Y589555D01*
X3700D01*
X1863Y588794D01*
X456Y587387D01*
X-305Y585550D01*
Y583561D01*
X456Y581723D01*
X1863Y580316D01*
X3700Y579555D01*
X5689D01*
X6249Y579787D01*
X28813D01*
X29505Y579500D01*
X31495D01*
X33332Y580261D01*
X34739Y581668D01*
X35500Y583505D01*
Y585495D01*
X34739Y587332D01*
X33332Y588739D01*
X32671Y589013D01*
X32759Y590351D01*
X34246Y590750D01*
X36754Y592198D01*
X38802Y594246D01*
X40250Y596754D01*
X40986Y599500D01*
D02*
G37*
G36*
X590936Y614320D02*
X582936D01*
X579996Y614030D01*
X577168Y613172D01*
X574562Y611779D01*
X572278Y609905D01*
X570404Y607621D01*
X569011Y605015D01*
X568153Y602188D01*
X567864Y599247D01*
X568153Y596306D01*
X569011Y593479D01*
X570404Y590873D01*
X572278Y588589D01*
X574562Y586715D01*
X577168Y585322D01*
X579996Y584464D01*
X582936Y584174D01*
X590936D01*
X593877Y584464D01*
X596704Y585322D01*
X599310Y586715D01*
X601594Y588589D01*
X603469Y590873D01*
X604861Y593479D01*
X605719Y596306D01*
X606009Y599247D01*
X605719Y602188D01*
X604861Y605015D01*
X603469Y607621D01*
X601594Y609905D01*
X599310Y611779D01*
X596704Y613172D01*
X593877Y614030D01*
X590936Y614320D01*
D02*
G37*
G36*
X41000Y542250D02*
X31500D01*
Y532750D01*
X41000D01*
Y542250D01*
D02*
G37*
G36*
X28500D02*
X19000D01*
Y532750D01*
X28500D01*
Y542250D01*
D02*
G37*
G36*
X358692Y523992D02*
X358692Y523992D01*
X358692Y523992D01*
X357879Y523830D01*
X357131Y523682D01*
X357131Y523682D01*
X357131Y523682D01*
X355293Y522921D01*
X355293Y522920D01*
X355293Y522920D01*
X354475Y522374D01*
X353970Y522037D01*
X353970Y522037D01*
X353970Y522036D01*
X352563Y520630D01*
X352563Y520630D01*
X352093Y519926D01*
X351679Y519307D01*
X351679Y519306D01*
X351679Y519306D01*
X350918Y517468D01*
X350918Y517468D01*
X350918Y517468D01*
X350747Y516608D01*
X350608Y515908D01*
X350608Y515908D01*
X350608Y515907D01*
X350608Y514913D01*
X350608Y500170D01*
X350608Y500170D01*
X350918Y498610D01*
X350918Y498610D01*
X351718Y496680D01*
X352602Y495357D01*
X352602Y495357D01*
X354078Y493880D01*
X354380Y493678D01*
X354484Y493234D01*
X354380Y492151D01*
X354078Y491949D01*
X354078Y491949D01*
X352602Y490472D01*
X351718Y489149D01*
X350918Y487220D01*
X350918Y487220D01*
X350608Y485659D01*
X350608Y470916D01*
X350608Y469922D01*
X350608Y469922D01*
X350608Y469921D01*
X350771Y469101D01*
X350918Y468361D01*
X350918Y468361D01*
X350918Y468361D01*
X351679Y466523D01*
X351679Y466523D01*
X352172Y465786D01*
X352563Y465200D01*
X352563Y465200D01*
X353970Y463793D01*
X353970Y463793D01*
X353970Y463793D01*
X354660Y463331D01*
X355293Y462909D01*
X355293Y462909D01*
X355293Y462909D01*
X357131Y462147D01*
X357131Y462147D01*
X357131Y462147D01*
X357916Y461991D01*
X358692Y461837D01*
X358692Y461837D01*
X358692Y461837D01*
X359687Y461837D01*
X420987Y461837D01*
X421094Y461858D01*
X421202Y461843D01*
X422444Y461908D01*
X423113Y462078D01*
X423790Y462213D01*
X425634Y462976D01*
X425634Y462976D01*
X425634Y462977D01*
X426243Y463383D01*
X426957Y463860D01*
X426957Y463861D01*
X426958Y463861D01*
X428491Y465394D01*
X428491Y465394D01*
X428491Y465394D01*
X428897Y466002D01*
X429375Y466717D01*
X429375Y466717D01*
X429375Y466717D01*
X430204Y468720D01*
X430204Y468720D01*
X430205Y468720D01*
X430365Y469530D01*
X430515Y470281D01*
X430515Y470281D01*
X430515Y470281D01*
X430515Y471365D01*
X430515Y484615D01*
X430514Y484615D01*
Y485659D01*
X430204Y487220D01*
X430204Y487220D01*
X429405Y489149D01*
X429405Y489149D01*
X428521Y490472D01*
X427044Y491949D01*
X426742Y492151D01*
Y493678D01*
X427044Y493880D01*
X428521Y495357D01*
X429405Y496680D01*
X430204Y498609D01*
X430204Y498610D01*
X430514Y500170D01*
Y501214D01*
X430515Y501215D01*
X430515Y514464D01*
X430515Y515548D01*
X430515Y515548D01*
X430515Y515549D01*
X430348Y516389D01*
X430205Y517109D01*
X430204Y517109D01*
X430204Y517109D01*
X429375Y519112D01*
X429375Y519112D01*
X429375Y519113D01*
X428994Y519683D01*
X428491Y520435D01*
X428491Y520435D01*
X428491Y520436D01*
X426958Y521969D01*
X426957Y521969D01*
X426957Y521969D01*
X426243Y522446D01*
X425634Y522853D01*
X425634Y522853D01*
X425634Y522853D01*
X423721Y523645D01*
X423002Y523788D01*
X422289Y523953D01*
X421116Y523990D01*
X421052Y523979D01*
X420988Y523992D01*
X420987D01*
X420987Y523992D01*
X359687Y523992D01*
X358692Y523992D01*
D02*
G37*
G36*
X41000Y529750D02*
X31500D01*
Y520250D01*
X41000D01*
Y529750D01*
D02*
G37*
G36*
X28500D02*
X19000D01*
Y520250D01*
X28500D01*
Y529750D01*
D02*
G37*
G36*
X590936Y532786D02*
X582936D01*
X579996Y532497D01*
X577168Y531639D01*
X574562Y530246D01*
X572278Y528372D01*
X570404Y526088D01*
X569011Y523482D01*
X568153Y520654D01*
X567864Y517714D01*
X568153Y514773D01*
X569011Y511946D01*
X570404Y509340D01*
X572278Y507056D01*
X574562Y505181D01*
X577168Y503788D01*
X579996Y502931D01*
X582936Y502641D01*
X590936D01*
X593877Y502931D01*
X596704Y503788D01*
X599310Y505181D01*
X601594Y507056D01*
X603469Y509340D01*
X604861Y511946D01*
X605719Y514773D01*
X606009Y517714D01*
X605719Y520654D01*
X604861Y523482D01*
X603469Y526088D01*
X601594Y528372D01*
X599310Y530246D01*
X596704Y531639D01*
X593877Y532497D01*
X590936Y532786D01*
D02*
G37*
G36*
X31448Y517250D02*
X28552D01*
X25754Y516500D01*
X23246Y515052D01*
X21198Y513004D01*
X19750Y510496D01*
X19000Y507698D01*
Y504802D01*
X19750Y502004D01*
X21198Y499496D01*
X23246Y497448D01*
X25754Y496000D01*
X28552Y495250D01*
X31448D01*
X34246Y496000D01*
X36754Y497448D01*
X38802Y499496D01*
X40250Y502004D01*
X41000Y504802D01*
Y507698D01*
X40250Y510496D01*
X38802Y513004D01*
X36754Y515052D01*
X34246Y516500D01*
X31448Y517250D01*
D02*
G37*
G36*
Y492250D02*
X28552D01*
X25754Y491500D01*
X23246Y490052D01*
X21198Y488004D01*
X19750Y485496D01*
X19000Y482698D01*
Y479802D01*
X19750Y477004D01*
X21198Y474496D01*
X23246Y472448D01*
X25754Y471000D01*
X28552Y470250D01*
X31448D01*
X34246Y471000D01*
X36754Y472448D01*
X38802Y474496D01*
X40250Y477004D01*
X41000Y479802D01*
Y482698D01*
X40250Y485496D01*
X38802Y488004D01*
X36754Y490052D01*
X34246Y491500D01*
X31448Y492250D01*
D02*
G37*
G36*
Y467250D02*
X28552D01*
X25754Y466500D01*
X23246Y465052D01*
X21198Y463004D01*
X19750Y460496D01*
X19000Y457698D01*
Y454802D01*
X19750Y452004D01*
X21198Y449496D01*
X23246Y447448D01*
X25754Y446000D01*
X28552Y445250D01*
X31448D01*
X34246Y446000D01*
X36754Y447448D01*
X38802Y449496D01*
X40250Y452004D01*
X41000Y454802D01*
Y457698D01*
X40250Y460496D01*
X38802Y463004D01*
X36754Y465052D01*
X34246Y466500D01*
X31448Y467250D01*
D02*
G37*
G36*
X301495Y504265D02*
X299505D01*
X297668Y503503D01*
X296261Y502097D01*
X295500Y500259D01*
Y498590D01*
X284227Y487318D01*
X283564Y486325D01*
X283331Y485155D01*
X283331Y485155D01*
Y448019D01*
X282151Y446839D01*
X281390Y445001D01*
Y443012D01*
X282151Y441174D01*
X283558Y439768D01*
X285396Y439007D01*
X287385D01*
X288000Y438596D01*
Y438505D01*
X288761Y436668D01*
X290168Y435261D01*
X292005Y434500D01*
X293995D01*
X295832Y435261D01*
X297239Y436668D01*
X298000Y438505D01*
Y440495D01*
X297239Y442332D01*
X296059Y443512D01*
Y465098D01*
X299826Y468865D01*
X301495D01*
X303332Y469626D01*
X304739Y471032D01*
X305500Y472870D01*
Y474859D01*
X304739Y476697D01*
X303332Y478103D01*
X301495Y478865D01*
X299505D01*
X297668Y478103D01*
X296261Y476697D01*
X295500Y474859D01*
Y473190D01*
X290837Y468527D01*
X290719Y468351D01*
X289449Y468736D01*
Y483888D01*
X299826Y494265D01*
X301495D01*
X303332Y495026D01*
X304739Y496432D01*
X305500Y498270D01*
Y500259D01*
X304739Y502097D01*
X303332Y503503D01*
X301495Y504265D01*
D02*
G37*
G36*
X590936Y450270D02*
X582936D01*
X579996Y449980D01*
X577168Y449122D01*
X574562Y447729D01*
X572278Y445855D01*
X570404Y443571D01*
X569011Y440965D01*
X568153Y438138D01*
X567864Y435197D01*
X568153Y432257D01*
X569011Y429429D01*
X570404Y426823D01*
X572278Y424539D01*
X574562Y422665D01*
X577168Y421272D01*
X579996Y420414D01*
X582936Y420125D01*
X590936D01*
X593877Y420414D01*
X596704Y421272D01*
X599310Y422665D01*
X601594Y424539D01*
X603469Y426823D01*
X604861Y429429D01*
X605719Y432257D01*
X606009Y435197D01*
X605719Y438138D01*
X604861Y440965D01*
X603469Y443571D01*
X601594Y445855D01*
X599310Y447729D01*
X596704Y449122D01*
X593877Y449980D01*
X590936Y450270D01*
D02*
G37*
G36*
X358692Y377742D02*
X358692Y377742D01*
X358692Y377742D01*
X357879Y377580D01*
X357131Y377432D01*
X357131Y377432D01*
X357131Y377432D01*
X355293Y376671D01*
X355293Y376670D01*
X355293Y376670D01*
X354475Y376124D01*
X353970Y375787D01*
X353970Y375787D01*
X353970Y375786D01*
X352563Y374380D01*
X352563Y374380D01*
X352093Y373676D01*
X351679Y373057D01*
X351679Y373056D01*
X351679Y373056D01*
X350918Y371218D01*
X350918Y371218D01*
X350918Y371218D01*
X350747Y370358D01*
X350608Y369658D01*
X350608Y369658D01*
X350608Y369657D01*
X350608Y368663D01*
X350608Y353921D01*
X350608Y353920D01*
X350918Y352360D01*
X350918Y352360D01*
X351718Y350430D01*
X352602Y349107D01*
X352602Y349107D01*
X354078Y347630D01*
X354380Y347428D01*
X354484Y346984D01*
X354380Y345901D01*
X354078Y345699D01*
X354078Y345699D01*
X352602Y344222D01*
X351718Y342899D01*
X350918Y340970D01*
X350918Y340970D01*
X350608Y339409D01*
X350608Y324666D01*
X350608Y323672D01*
X350608Y323672D01*
X350608Y323671D01*
X350771Y322851D01*
X350918Y322111D01*
X350918Y322111D01*
X350918Y322111D01*
X351679Y320273D01*
X351679Y320273D01*
X352172Y319536D01*
X352563Y318950D01*
X352563Y318950D01*
X353970Y317543D01*
X353970Y317543D01*
X353970Y317543D01*
X354660Y317082D01*
X355293Y316659D01*
X355293Y316659D01*
X355293Y316659D01*
X357131Y315897D01*
X357131Y315897D01*
X357131Y315897D01*
X357916Y315741D01*
X358692Y315587D01*
X358692Y315587D01*
X358692Y315587D01*
X359687Y315587D01*
X420987Y315587D01*
X421094Y315608D01*
X421202Y315593D01*
X422444Y315658D01*
X423113Y315828D01*
X423790Y315963D01*
X425634Y316726D01*
X425634Y316726D01*
X425634Y316727D01*
X426243Y317134D01*
X426957Y317610D01*
X426957Y317611D01*
X426958Y317611D01*
X428491Y319144D01*
X428491Y319144D01*
X428491Y319144D01*
X428897Y319752D01*
X429375Y320467D01*
X429375Y320467D01*
X429375Y320467D01*
X430204Y322470D01*
X430204Y322470D01*
X430205Y322470D01*
X430365Y323280D01*
X430515Y324031D01*
X430515Y324031D01*
X430515Y324031D01*
X430515Y325115D01*
X430515Y338365D01*
X430514Y338365D01*
Y339409D01*
X430204Y340970D01*
X430204Y340970D01*
X429405Y342899D01*
X429405Y342899D01*
X428521Y344222D01*
X427044Y345699D01*
X426742Y345901D01*
Y347428D01*
X427044Y347630D01*
X428521Y349107D01*
X429405Y350430D01*
X430204Y352359D01*
X430204Y352360D01*
X430514Y353920D01*
Y354964D01*
X430515Y354965D01*
X430515Y368214D01*
X430515Y369298D01*
X430515Y369298D01*
X430515Y369299D01*
X430348Y370139D01*
X430205Y370859D01*
X430204Y370859D01*
X430204Y370859D01*
X429375Y372862D01*
X429375Y372862D01*
X429375Y372863D01*
X428994Y373433D01*
X428491Y374185D01*
X428491Y374185D01*
X428491Y374186D01*
X426958Y375719D01*
X426957Y375719D01*
X426957Y375719D01*
X426243Y376196D01*
X425634Y376603D01*
X425634Y376603D01*
X425634Y376603D01*
X423721Y377395D01*
X423002Y377538D01*
X422289Y377703D01*
X421116Y377740D01*
X421052Y377729D01*
X420988Y377742D01*
X420987D01*
X420987Y377742D01*
X359687Y377742D01*
X358692Y377742D01*
D02*
G37*
G36*
X177745Y397250D02*
X175755D01*
X173918Y396489D01*
X172511Y395082D01*
X171750Y393245D01*
Y391255D01*
X172511Y389418D01*
X173691Y388238D01*
Y377762D01*
X172511Y376582D01*
X171750Y374745D01*
Y372755D01*
X172511Y370918D01*
X173918Y369511D01*
X175755Y368750D01*
X177745D01*
X179582Y369511D01*
X180989Y370918D01*
X181750Y372755D01*
Y374745D01*
X180989Y376582D01*
X179809Y377762D01*
Y388238D01*
X180989Y389418D01*
X181750Y391255D01*
Y393245D01*
X180989Y395082D01*
X179582Y396489D01*
X177745Y397250D01*
D02*
G37*
G36*
X590936Y367753D02*
X582936D01*
X579996Y367463D01*
X577168Y366606D01*
X574562Y365213D01*
X572278Y363338D01*
X570404Y361054D01*
X569011Y358448D01*
X568153Y355621D01*
X567864Y352680D01*
X568153Y349740D01*
X569011Y346912D01*
X570404Y344306D01*
X572278Y342023D01*
X574562Y340148D01*
X577168Y338755D01*
X579996Y337897D01*
X582936Y337608D01*
X590936D01*
X593877Y337897D01*
X596704Y338755D01*
X599310Y340148D01*
X601594Y342023D01*
X603469Y344306D01*
X604861Y346912D01*
X605719Y349740D01*
X606009Y352680D01*
X605719Y355621D01*
X604861Y358448D01*
X603469Y361054D01*
X601594Y363338D01*
X599310Y365213D01*
X596704Y366606D01*
X593877Y367463D01*
X590936Y367753D01*
D02*
G37*
G36*
X243995Y325000D02*
X242005D01*
X240168Y324239D01*
X238988Y323059D01*
X235000D01*
X235000Y323059D01*
X233829Y322826D01*
X232837Y322163D01*
X227924Y317250D01*
X226255D01*
X224418Y316489D01*
X223011Y315082D01*
X222250Y313245D01*
Y311255D01*
X223011Y309418D01*
X224418Y308011D01*
X224419Y308005D01*
X223512Y307097D01*
X222750Y305260D01*
Y303271D01*
X223512Y301433D01*
X224092Y300852D01*
X224775Y299882D01*
X224092Y299193D01*
X223372Y298472D01*
X222610Y296634D01*
Y294645D01*
X223372Y292808D01*
X224778Y291401D01*
X226616Y290640D01*
X228605D01*
X230443Y291401D01*
X231849Y292808D01*
X232610Y294645D01*
Y296314D01*
X235987Y299691D01*
X238988D01*
X240168Y298511D01*
X242005Y297750D01*
X243995D01*
X245832Y298511D01*
X247239Y299918D01*
X248000Y301755D01*
Y303745D01*
X247239Y305582D01*
X246533Y306288D01*
X245932Y307125D01*
X246533Y307947D01*
X247246Y308660D01*
X248007Y310498D01*
Y312487D01*
X247246Y314325D01*
X246651Y314920D01*
X245850Y315743D01*
X246651Y316580D01*
X247239Y317168D01*
X248000Y319005D01*
Y320995D01*
X247239Y322832D01*
X245832Y324239D01*
X243995Y325000D01*
D02*
G37*
G36*
X123995Y377250D02*
X122005D01*
X120168Y376489D01*
X118761Y375082D01*
X118000Y373245D01*
Y372989D01*
X65770Y320759D01*
X64500Y321285D01*
Y322495D01*
X63739Y324332D01*
X62332Y325739D01*
X60494Y326500D01*
X58505D01*
X56668Y325739D01*
X55261Y324332D01*
X54500Y322495D01*
Y320505D01*
X55261Y318668D01*
X56034Y317894D01*
Y304000D01*
X55854Y303925D01*
X54447Y302519D01*
X53686Y300681D01*
Y298692D01*
X54447Y296854D01*
X55854Y295448D01*
X57692Y294686D01*
X59681D01*
X60392Y294981D01*
X61495Y294389D01*
X61693Y294145D01*
X62011Y292544D01*
X63006Y291055D01*
X66399Y287662D01*
X66811Y286668D01*
X68217Y285261D01*
X69212Y284849D01*
X70412Y283649D01*
Y251989D01*
X70000Y250995D01*
Y249005D01*
X70761Y247168D01*
X72168Y245761D01*
X73624Y245158D01*
X78006Y240776D01*
X79494Y239782D01*
X81250Y239432D01*
X89711D01*
X90755Y239000D01*
X92745D01*
X94582Y239761D01*
X95989Y241168D01*
X96750Y243005D01*
Y244995D01*
X95989Y246832D01*
X94582Y248239D01*
X92745Y249000D01*
X90755D01*
X89811Y248609D01*
X83151D01*
X79588Y252171D01*
Y285550D01*
X79239Y287306D01*
X78244Y288794D01*
X75700Y291338D01*
X75289Y292332D01*
X73882Y293739D01*
X72888Y294151D01*
X70838Y296200D01*
Y312761D01*
X70901Y312912D01*
X126053Y368064D01*
X126390Y368569D01*
X127239Y369418D01*
X128000Y371255D01*
Y373245D01*
X127239Y375082D01*
X125832Y376489D01*
X123995Y377250D01*
D02*
G37*
G36*
X127500Y301741D02*
X126168Y301189D01*
X124761Y299782D01*
X124209Y298450D01*
X127500D01*
Y301741D01*
D02*
G37*
G36*
X158500Y301741D02*
Y298450D01*
X161791D01*
X161239Y299782D01*
X159832Y301189D01*
X158500Y301741D01*
D02*
G37*
G36*
X139833Y301741D02*
Y296950D01*
X136833D01*
Y301740D01*
X135501Y301189D01*
X134461Y300149D01*
X133667Y299911D01*
X132872Y300149D01*
X131832Y301189D01*
X130500Y301741D01*
Y296950D01*
X129000D01*
Y295450D01*
X124209D01*
X124761Y294118D01*
X125801Y293078D01*
X126039Y292283D01*
X125801Y291488D01*
X124761Y290449D01*
X124209Y289117D01*
X129000D01*
Y286117D01*
X124209D01*
X124761Y284784D01*
X125801Y283745D01*
X126039Y282950D01*
X125801Y282155D01*
X124761Y281116D01*
X124209Y279783D01*
X129000D01*
Y276783D01*
X124209D01*
X124761Y275451D01*
X125801Y274412D01*
X126039Y273617D01*
X125801Y272822D01*
X124761Y271782D01*
X124209Y270450D01*
X129000D01*
Y268950D01*
X130500D01*
Y264160D01*
X131832Y264711D01*
X132872Y265751D01*
X133667Y265989D01*
X134461Y265751D01*
X135501Y264711D01*
X136833Y264159D01*
Y268950D01*
X139833D01*
Y264159D01*
X141166Y264711D01*
X142205Y265751D01*
X143000Y265989D01*
X143795Y265751D01*
X144834Y264711D01*
X146167Y264159D01*
Y268950D01*
X149167D01*
Y264159D01*
X150499Y264711D01*
X151538Y265751D01*
X152333Y265989D01*
X153128Y265751D01*
X154168Y264711D01*
X155500Y264159D01*
Y268950D01*
X157000D01*
Y270450D01*
X161791D01*
X161239Y271782D01*
X160199Y272822D01*
X159961Y273617D01*
X160199Y274412D01*
X161239Y275451D01*
X161791Y276783D01*
X157000D01*
Y279783D01*
X161791D01*
X161239Y281116D01*
X160199Y282155D01*
X159961Y282950D01*
X160199Y283745D01*
X161239Y284784D01*
X161791Y286117D01*
X157000D01*
Y289117D01*
X161791D01*
X161239Y290449D01*
X160199Y291488D01*
X159961Y292283D01*
X160199Y293078D01*
X161239Y294118D01*
X161791Y295450D01*
X157000D01*
Y296950D01*
X155500D01*
Y301741D01*
X154168Y301189D01*
X153128Y300149D01*
X152333Y299911D01*
X151538Y300149D01*
X150499Y301189D01*
X149166Y301741D01*
Y296950D01*
X146166D01*
Y301740D01*
X144834Y301189D01*
X143795Y300149D01*
X143000Y299911D01*
X142205Y300149D01*
X141166Y301189D01*
X139833Y301741D01*
D02*
G37*
G36*
X208995Y307000D02*
X207005D01*
X205168Y306239D01*
X203761Y304832D01*
X203000Y302995D01*
Y301005D01*
X202991Y300993D01*
X201513D01*
X199675Y300231D01*
X198269Y298825D01*
X197507Y296987D01*
Y294998D01*
X198269Y293160D01*
X199675Y291754D01*
X201513Y290993D01*
X203182D01*
X217337Y276837D01*
X217337Y276837D01*
X218330Y276174D01*
X219500Y275941D01*
X219500Y275941D01*
X228114D01*
X228865Y274734D01*
X228477Y274009D01*
X215762D01*
X214582Y275189D01*
X212745Y275950D01*
X210755D01*
X208918Y275189D01*
X207511Y273782D01*
X206750Y271945D01*
Y269956D01*
X207511Y268118D01*
X208918Y266711D01*
X210755Y265950D01*
X212745D01*
X214582Y266711D01*
X215762Y267891D01*
X231149D01*
X231149Y267891D01*
X232320Y268124D01*
X232575Y268295D01*
X233287Y268000D01*
X235276D01*
X237114Y268761D01*
X238521Y270168D01*
X239282Y272005D01*
Y273995D01*
X239002Y274671D01*
X239850Y275941D01*
X259233D01*
X266000Y269174D01*
Y267505D01*
X266761Y265668D01*
X268168Y264261D01*
X270005Y263500D01*
X271994D01*
X273832Y264261D01*
X275239Y265668D01*
X276000Y267505D01*
Y269043D01*
X276336Y269705D01*
X277091Y270179D01*
X278566D01*
X280403Y270940D01*
X281810Y272347D01*
X282571Y274184D01*
Y276173D01*
X281810Y278011D01*
X280403Y279418D01*
X278566Y280179D01*
X276897D01*
X271663Y285413D01*
X270671Y286076D01*
X269500Y286309D01*
X269500Y286309D01*
X228017D01*
X213000Y301326D01*
Y302995D01*
X212239Y304832D01*
X210832Y306239D01*
X208995Y307000D01*
D02*
G37*
G36*
X161791Y267450D02*
X158500D01*
Y264159D01*
X159832Y264711D01*
X161239Y266118D01*
X161791Y267450D01*
D02*
G37*
G36*
X127500Y267450D02*
X124209D01*
X124761Y266118D01*
X126168Y264711D01*
X127500Y264159D01*
Y267450D01*
D02*
G37*
G36*
X240495Y265750D02*
X238505D01*
X236668Y264989D01*
X235261Y263582D01*
X235044Y263059D01*
X207262D01*
X206832Y263489D01*
X204995Y264250D01*
X203005D01*
X201168Y263489D01*
X199761Y262082D01*
X199000Y260245D01*
Y258255D01*
X199761Y256418D01*
X201168Y255011D01*
X203005Y254250D01*
X204124D01*
X204521Y253693D01*
X203972Y252274D01*
X203863Y252250D01*
X203005D01*
X201168Y251489D01*
X199761Y250082D01*
X199000Y248245D01*
Y246255D01*
X198983Y246229D01*
X197737D01*
X195900Y245468D01*
X194493Y244062D01*
X193732Y242224D01*
Y240235D01*
X194493Y238397D01*
X195900Y236991D01*
X197737Y236229D01*
X199727D01*
X201564Y236991D01*
X202446Y237872D01*
X248098D01*
X248098Y237872D01*
X249269Y238105D01*
X250261Y238768D01*
X253647Y242154D01*
X253647Y242154D01*
X254311Y243146D01*
X254543Y244317D01*
X254543Y244317D01*
Y245538D01*
X255082Y245761D01*
X256489Y247168D01*
X257250Y249005D01*
Y250995D01*
X256489Y252832D01*
X255082Y254239D01*
X253245Y255000D01*
X251255D01*
X249418Y254239D01*
X248011Y252832D01*
X247725Y252142D01*
X246582Y251489D01*
X244745Y252250D01*
X242755D01*
X241565Y251757D01*
X241032Y252131D01*
X240500Y252690D01*
Y254495D01*
X240466Y254577D01*
X241229Y256054D01*
X242332Y256511D01*
X243739Y257918D01*
X244500Y259755D01*
Y261745D01*
X243739Y263582D01*
X242332Y264989D01*
X240495Y265750D01*
D02*
G37*
G36*
X-6500Y262600D02*
X-12000D01*
Y257100D01*
X-6500D01*
Y262600D01*
D02*
G37*
G36*
X494250Y1629871D02*
X164000D01*
X160345Y1629390D01*
X156940Y1627979D01*
X154015Y1625735D01*
X82015Y1553735D01*
X79771Y1550810D01*
X78360Y1547405D01*
X77879Y1543750D01*
Y1522914D01*
X73000D01*
Y1492914D01*
X77879D01*
Y1477012D01*
X77342Y1476571D01*
X75468Y1474287D01*
X74075Y1471682D01*
X73217Y1468854D01*
X72927Y1465914D01*
X73217Y1462973D01*
X74075Y1460146D01*
X75468Y1457540D01*
X77342Y1455256D01*
X79626Y1453381D01*
X82232Y1451988D01*
X85059Y1451131D01*
X88000Y1450841D01*
X96000D01*
X98940Y1451131D01*
X101768Y1451988D01*
X104374Y1453381D01*
X106658Y1455256D01*
X108532Y1457540D01*
X109925Y1460146D01*
X110783Y1462973D01*
X111073Y1465914D01*
X110783Y1468854D01*
X109925Y1471682D01*
X108532Y1474287D01*
X106658Y1476571D01*
X106121Y1477012D01*
Y1492914D01*
X111000D01*
Y1522914D01*
X106121D01*
Y1537901D01*
X169849Y1601629D01*
X488401D01*
X550515Y1539515D01*
X553440Y1537271D01*
X556845Y1535860D01*
X560500Y1535379D01*
X596901D01*
X619879Y1512401D01*
Y1084349D01*
X604151Y1068621D01*
X553500D01*
X549845Y1068140D01*
X546440Y1066729D01*
X543515Y1064485D01*
X526103Y1047073D01*
X523859Y1044149D01*
X522449Y1040743D01*
X521967Y1037088D01*
Y1027814D01*
X512936D01*
Y997814D01*
X517816D01*
Y945297D01*
X512936D01*
Y915297D01*
X517816D01*
Y862780D01*
X512936D01*
Y832780D01*
X517816D01*
Y780264D01*
X512936D01*
Y750264D01*
X517816D01*
Y698750D01*
X512750D01*
Y668750D01*
X517816D01*
Y614247D01*
X512936D01*
Y584247D01*
X517816D01*
Y532714D01*
X512936D01*
Y502714D01*
X517816D01*
Y450197D01*
X512936D01*
Y420197D01*
X517816D01*
Y367680D01*
X512936D01*
Y337680D01*
X517816D01*
Y285164D01*
X512936D01*
Y255164D01*
X550936D01*
Y285164D01*
X546057D01*
Y337680D01*
X550936D01*
Y367680D01*
X546057D01*
Y420197D01*
X550936D01*
Y450197D01*
X546057D01*
Y502714D01*
X550936D01*
Y532714D01*
X546057D01*
Y584247D01*
X550936D01*
Y614247D01*
X546057D01*
Y668750D01*
X550750D01*
Y698750D01*
X546057D01*
Y750264D01*
X550936D01*
Y780264D01*
X546057D01*
Y832780D01*
X550936D01*
Y862780D01*
X546057D01*
Y915297D01*
X550936D01*
Y945297D01*
X546057D01*
Y997814D01*
X550936D01*
Y1027814D01*
X550209D01*
Y1031239D01*
X559349Y1040379D01*
X610000D01*
X613655Y1040860D01*
X617060Y1042271D01*
X619985Y1044515D01*
X643985Y1068515D01*
X646229Y1071440D01*
X647640Y1074845D01*
X648121Y1078500D01*
Y1518250D01*
X647640Y1521905D01*
X646229Y1525310D01*
X643985Y1528235D01*
X612735Y1559485D01*
X609810Y1561729D01*
X606405Y1563140D01*
X602750Y1563621D01*
X566349D01*
X504235Y1625735D01*
X501310Y1627979D01*
X497905Y1629390D01*
X494250Y1629871D01*
D02*
G37*
G36*
X590936Y285236D02*
X582936D01*
X579996Y284947D01*
X577168Y284089D01*
X574562Y282696D01*
X572278Y280822D01*
X570404Y278538D01*
X569011Y275932D01*
X568153Y273104D01*
X567864Y270164D01*
X568153Y267223D01*
X569011Y264396D01*
X570404Y261790D01*
X572278Y259506D01*
X574562Y257631D01*
X577168Y256238D01*
X579996Y255381D01*
X582936Y255091D01*
X590936D01*
X593877Y255381D01*
X596704Y256238D01*
X599310Y257631D01*
X601594Y259506D01*
X603469Y261790D01*
X604861Y264396D01*
X605719Y267223D01*
X606009Y270164D01*
X605719Y273104D01*
X604861Y275932D01*
X603469Y278538D01*
X601594Y280822D01*
X599310Y282696D01*
X596704Y284089D01*
X593877Y284947D01*
X590936Y285236D01*
D02*
G37*
G36*
X79245Y222500D02*
X77255D01*
X75418Y221739D01*
X74011Y220332D01*
X73408Y218876D01*
X71756Y217224D01*
X70761Y215735D01*
X70412Y213979D01*
Y198989D01*
X70000Y197995D01*
Y196005D01*
X70761Y194168D01*
X72168Y192761D01*
X74005Y192000D01*
X75995D01*
X77832Y192761D01*
X79239Y194168D01*
X80000Y196005D01*
Y197995D01*
X79588Y198989D01*
Y212079D01*
X80550Y213041D01*
X81082Y213261D01*
X82489Y214668D01*
X83250Y216505D01*
Y218495D01*
X82489Y220332D01*
X81082Y221739D01*
X79245Y222500D01*
D02*
G37*
G36*
X594250Y190986D02*
Y181500D01*
X603736D01*
X603000Y184246D01*
X601552Y186754D01*
X599504Y188802D01*
X596996Y190250D01*
X594250Y190986D01*
D02*
G37*
G36*
X591250Y190986D02*
X588504Y190250D01*
X585996Y188802D01*
X583948Y186754D01*
X582500Y184246D01*
X581764Y181500D01*
X591250D01*
Y190986D01*
D02*
G37*
G36*
X603736Y178500D02*
X594250D01*
Y169014D01*
X596996Y169750D01*
X599504Y171198D01*
X601552Y173246D01*
X603000Y175754D01*
X603736Y178500D01*
D02*
G37*
G36*
X591250D02*
X581764D01*
X582500Y175754D01*
X583948Y173246D01*
X585996Y171198D01*
X588504Y169750D01*
X591250Y169014D01*
Y178500D01*
D02*
G37*
G36*
X594198Y166000D02*
X591302D01*
X588504Y165250D01*
X585996Y163802D01*
X583948Y161754D01*
X582500Y159246D01*
X581750Y156448D01*
Y153552D01*
X582500Y150754D01*
X583948Y148246D01*
X585996Y146198D01*
X588504Y144750D01*
X591302Y144000D01*
X594198D01*
X596996Y144750D01*
X599504Y146198D01*
X601552Y148246D01*
X603000Y150754D01*
X603750Y153552D01*
Y156448D01*
X603000Y159246D01*
X601552Y161754D01*
X599504Y163802D01*
X596996Y165250D01*
X594198Y166000D01*
D02*
G37*
G36*
X-22755Y347250D02*
X-24745D01*
X-26582Y346489D01*
X-27989Y345082D01*
X-28750Y343245D01*
Y341255D01*
X-28588Y340865D01*
Y150239D01*
X-29000Y149245D01*
Y147255D01*
X-28239Y145418D01*
X-26832Y144011D01*
X-24995Y143250D01*
X-23005D01*
X-21168Y144011D01*
X-19761Y145418D01*
X-19000Y147255D01*
Y149245D01*
X-19412Y150239D01*
Y257100D01*
X-15000D01*
Y264100D01*
X-13500D01*
Y265600D01*
X-6500D01*
Y271100D01*
X-8504D01*
X-9031Y272370D01*
X-8899Y272502D01*
X-7977Y274098D01*
X-7500Y275878D01*
Y277722D01*
X-7977Y279502D01*
X-8899Y281098D01*
X-9855Y282055D01*
X-9850Y283289D01*
X-9729Y283595D01*
X-9202Y283899D01*
X-7899Y285202D01*
X-6977Y286798D01*
X-6500Y288578D01*
Y290422D01*
X-6977Y292202D01*
X-7899Y293798D01*
X-9202Y295101D01*
X-9729Y295405D01*
X-9850Y295711D01*
X-9855Y296945D01*
X-8899Y297902D01*
X-7977Y299498D01*
X-7500Y301278D01*
Y303122D01*
X-7977Y304902D01*
X-8899Y306498D01*
X-9855Y307455D01*
X-9850Y308689D01*
X-9729Y308995D01*
X-9202Y309299D01*
X-7899Y310602D01*
X-6977Y312198D01*
X-6500Y313978D01*
Y315822D01*
X-6977Y317602D01*
X-7899Y319198D01*
X-9202Y320501D01*
X-10798Y321423D01*
X-12578Y321900D01*
X-14422D01*
X-16202Y321423D01*
X-17798Y320501D01*
X-18142Y320158D01*
X-19412Y320684D01*
Y339658D01*
X-18750Y341255D01*
Y343245D01*
X-19511Y345082D01*
X-20918Y346489D01*
X-22755Y347250D01*
D02*
G37*
G36*
X594198Y141000D02*
X591302D01*
X588504Y140250D01*
X585996Y138802D01*
X583948Y136754D01*
X582500Y134246D01*
X581750Y131448D01*
Y128552D01*
X582500Y125754D01*
X583948Y123246D01*
X585996Y121198D01*
X588504Y119750D01*
X591302Y119000D01*
X594198D01*
X596996Y119750D01*
X599504Y121198D01*
X601552Y123246D01*
X603000Y125754D01*
X603750Y128552D01*
Y131448D01*
X603000Y134246D01*
X601552Y136754D01*
X599504Y138802D01*
X596996Y140250D01*
X594198Y141000D01*
D02*
G37*
G36*
X603750Y116000D02*
X581750D01*
Y94000D01*
X603750D01*
Y116000D01*
D02*
G37*
G36*
X8506Y87739D02*
X6517D01*
X4679Y86978D01*
X3272Y85571D01*
X2511Y83734D01*
Y81744D01*
X3272Y79907D01*
X4679Y78500D01*
X5673Y78088D01*
X15756Y68006D01*
X17244Y67011D01*
X19000Y66662D01*
X28761D01*
X29755Y66250D01*
X31745D01*
X33582Y67011D01*
X34989Y68418D01*
X35750Y70255D01*
Y72245D01*
X34989Y74082D01*
X33582Y75489D01*
X31745Y76250D01*
X29755D01*
X28761Y75838D01*
X20900D01*
X12162Y84577D01*
X11750Y85571D01*
X10343Y86978D01*
X8506Y87739D01*
D02*
G37*
G36*
X181495Y41000D02*
X179505D01*
X177668Y40239D01*
X176261Y38832D01*
X175416Y39218D01*
X175395Y39239D01*
X173557Y40000D01*
X171568D01*
X169730Y39239D01*
X168324Y37832D01*
X167563Y35995D01*
Y34005D01*
X167975Y33011D01*
Y9064D01*
X168324Y7309D01*
X169235Y5944D01*
X169868Y4418D01*
X171274Y3011D01*
X173112Y2250D01*
X175101D01*
X176939Y3011D01*
X178345Y4418D01*
X179107Y6255D01*
Y8245D01*
X178946Y8631D01*
X179177Y9049D01*
X179858Y9750D01*
X181553D01*
X183391Y10511D01*
X184797Y11918D01*
X185559Y13755D01*
Y15745D01*
X185117Y16810D01*
Y34082D01*
X185500Y35005D01*
Y36995D01*
X184739Y38832D01*
X183332Y40239D01*
X181495Y41000D01*
D02*
G37*
G36*
X536250Y11986D02*
Y2500D01*
X545736D01*
X545000Y5246D01*
X543552Y7754D01*
X541504Y9802D01*
X538996Y11250D01*
X536250Y11986D01*
D02*
G37*
G36*
X533250D02*
X530504Y11250D01*
X527996Y9802D01*
X525948Y7754D01*
X524500Y5246D01*
X523764Y2500D01*
X533250D01*
Y11986D01*
D02*
G37*
G36*
X425000D02*
Y2500D01*
X434486D01*
X433750Y5246D01*
X432302Y7754D01*
X430254Y9802D01*
X427746Y11250D01*
X425000Y11986D01*
D02*
G37*
G36*
X422000D02*
X419254Y11250D01*
X416746Y9802D01*
X414698Y7754D01*
X413250Y5246D01*
X412514Y2500D01*
X422000D01*
Y11986D01*
D02*
G37*
G36*
X287500D02*
Y2500D01*
X296986D01*
X296250Y5246D01*
X294802Y7754D01*
X292754Y9802D01*
X290246Y11250D01*
X287500Y11986D01*
D02*
G37*
G36*
X284500D02*
X281754Y11250D01*
X279246Y9802D01*
X277198Y7754D01*
X275750Y5246D01*
X275014Y2500D01*
X284500D01*
Y11986D01*
D02*
G37*
G36*
X150000D02*
Y2500D01*
X159486D01*
X158750Y5246D01*
X157302Y7754D01*
X155254Y9802D01*
X152746Y11250D01*
X150000Y11986D01*
D02*
G37*
G36*
X147000D02*
X144254Y11250D01*
X141746Y9802D01*
X139698Y7754D01*
X138250Y5246D01*
X137514Y2500D01*
X147000D01*
Y11986D01*
D02*
G37*
G36*
X621500Y37968D02*
Y1500D01*
X648087D01*
Y10000D01*
X647741Y14394D01*
X646712Y18679D01*
X645025Y22751D01*
X642722Y26509D01*
X639860Y29860D01*
X636509Y32722D01*
X632751Y35025D01*
X628679Y36712D01*
X624394Y37741D01*
X621500Y37968D01*
D02*
G37*
G36*
X618500D02*
X615606Y37741D01*
X611321Y36712D01*
X607249Y35025D01*
X603491Y32722D01*
X600140Y29860D01*
X597277Y26509D01*
X594975Y22751D01*
X593288Y18679D01*
X592259Y14394D01*
X591913Y10000D01*
Y1500D01*
X618500D01*
Y37968D01*
D02*
G37*
G36*
X1500Y37969D02*
Y1500D01*
X28087D01*
Y10000D01*
X27741Y14394D01*
X26712Y18679D01*
X25025Y22751D01*
X22722Y26509D01*
X19860Y29860D01*
X16509Y32722D01*
X12751Y35025D01*
X8679Y36712D01*
X4394Y37741D01*
X1500Y37969D01*
D02*
G37*
G36*
X-1500Y37968D02*
X-4394Y37741D01*
X-8679Y36712D01*
X-12751Y35025D01*
X-16509Y32722D01*
X-19860Y29860D01*
X-22722Y26509D01*
X-25025Y22751D01*
X-26712Y18679D01*
X-27741Y14394D01*
X-28087Y10000D01*
Y1500D01*
X-1500D01*
Y37968D01*
D02*
G37*
G36*
X545736Y-500D02*
X536250D01*
Y-9986D01*
X538996Y-9250D01*
X541504Y-7802D01*
X543552Y-5754D01*
X545000Y-3246D01*
X545736Y-500D01*
D02*
G37*
G36*
X533250D02*
X523764D01*
X524500Y-3246D01*
X525948Y-5754D01*
X527996Y-7802D01*
X530504Y-9250D01*
X533250Y-9986D01*
Y-500D01*
D02*
G37*
G36*
X434486D02*
X425000D01*
Y-9986D01*
X427746Y-9250D01*
X430254Y-7802D01*
X432302Y-5754D01*
X433750Y-3246D01*
X434486Y-500D01*
D02*
G37*
G36*
X422000D02*
X412514D01*
X413250Y-3246D01*
X414698Y-5754D01*
X416746Y-7802D01*
X419254Y-9250D01*
X422000Y-9986D01*
Y-500D01*
D02*
G37*
G36*
X296986D02*
X287500D01*
Y-9986D01*
X290246Y-9250D01*
X292754Y-7802D01*
X294802Y-5754D01*
X296250Y-3246D01*
X296986Y-500D01*
D02*
G37*
G36*
X284500D02*
X275014D01*
X275750Y-3246D01*
X277198Y-5754D01*
X279246Y-7802D01*
X281754Y-9250D01*
X284500Y-9986D01*
Y-500D01*
D02*
G37*
G36*
X159486D02*
X150000D01*
Y-9986D01*
X152746Y-9250D01*
X155254Y-7802D01*
X157302Y-5754D01*
X158750Y-3246D01*
X159486Y-500D01*
D02*
G37*
G36*
X147000D02*
X137514D01*
X138250Y-3246D01*
X139698Y-5754D01*
X141746Y-7802D01*
X144254Y-9250D01*
X147000Y-9986D01*
Y-500D01*
D02*
G37*
G36*
X511198Y12000D02*
X508302D01*
X505504Y11250D01*
X502996Y9802D01*
X500948Y7754D01*
X499500Y5246D01*
X498750Y2448D01*
Y-448D01*
X499500Y-3246D01*
X500948Y-5754D01*
X502996Y-7802D01*
X505504Y-9250D01*
X508302Y-10000D01*
X511198D01*
X513996Y-9250D01*
X516504Y-7802D01*
X518552Y-5754D01*
X520000Y-3246D01*
X520750Y-448D01*
Y2448D01*
X520000Y5246D01*
X518552Y7754D01*
X516504Y9802D01*
X513996Y11250D01*
X511198Y12000D01*
D02*
G37*
G36*
X495750D02*
X473750D01*
Y-10000D01*
X495750D01*
Y12000D01*
D02*
G37*
G36*
X399948D02*
X397052D01*
X394254Y11250D01*
X391746Y9802D01*
X389698Y7754D01*
X388250Y5246D01*
X387500Y2448D01*
Y-448D01*
X388250Y-3246D01*
X389698Y-5754D01*
X391746Y-7802D01*
X394254Y-9250D01*
X397052Y-10000D01*
X399948D01*
X402746Y-9250D01*
X405254Y-7802D01*
X407302Y-5754D01*
X408750Y-3246D01*
X409500Y-448D01*
Y2448D01*
X408750Y5246D01*
X407302Y7754D01*
X405254Y9802D01*
X402746Y11250D01*
X399948Y12000D01*
D02*
G37*
G36*
X374948D02*
X372052D01*
X369254Y11250D01*
X366746Y9802D01*
X364698Y7754D01*
X363250Y5246D01*
X362500Y2448D01*
Y-448D01*
X363250Y-3246D01*
X364698Y-5754D01*
X366746Y-7802D01*
X369254Y-9250D01*
X372052Y-10000D01*
X374948D01*
X377746Y-9250D01*
X380254Y-7802D01*
X382302Y-5754D01*
X383750Y-3246D01*
X384500Y-448D01*
Y2448D01*
X383750Y5246D01*
X382302Y7754D01*
X380254Y9802D01*
X377746Y11250D01*
X374948Y12000D01*
D02*
G37*
G36*
X359500D02*
X337500D01*
Y-10000D01*
X359500D01*
Y12000D01*
D02*
G37*
G36*
X262448D02*
X259552D01*
X256754Y11250D01*
X254246Y9802D01*
X252198Y7754D01*
X250750Y5246D01*
X250000Y2448D01*
Y-448D01*
X250750Y-3246D01*
X252198Y-5754D01*
X254246Y-7802D01*
X256754Y-9250D01*
X259552Y-10000D01*
X262448D01*
X265246Y-9250D01*
X267754Y-7802D01*
X269802Y-5754D01*
X271250Y-3246D01*
X272000Y-448D01*
Y2448D01*
X271250Y5246D01*
X269802Y7754D01*
X267754Y9802D01*
X265246Y11250D01*
X262448Y12000D01*
D02*
G37*
G36*
X237448D02*
X234552D01*
X231754Y11250D01*
X229246Y9802D01*
X227198Y7754D01*
X225750Y5246D01*
X225000Y2448D01*
Y-448D01*
X225750Y-3246D01*
X227198Y-5754D01*
X229246Y-7802D01*
X231754Y-9250D01*
X234552Y-10000D01*
X237448D01*
X240246Y-9250D01*
X242754Y-7802D01*
X244802Y-5754D01*
X246250Y-3246D01*
X247000Y-448D01*
Y2448D01*
X246250Y5246D01*
X244802Y7754D01*
X242754Y9802D01*
X240246Y11250D01*
X237448Y12000D01*
D02*
G37*
G36*
X222000D02*
X200000D01*
Y-10000D01*
X222000D01*
Y12000D01*
D02*
G37*
G36*
X124948D02*
X122052D01*
X119254Y11250D01*
X116746Y9802D01*
X114698Y7754D01*
X113250Y5246D01*
X112500Y2448D01*
Y-448D01*
X113250Y-3246D01*
X114698Y-5754D01*
X116746Y-7802D01*
X119254Y-9250D01*
X122052Y-10000D01*
X124948D01*
X127746Y-9250D01*
X130254Y-7802D01*
X132302Y-5754D01*
X133750Y-3246D01*
X134500Y-448D01*
Y2448D01*
X133750Y5246D01*
X132302Y7754D01*
X130254Y9802D01*
X127746Y11250D01*
X124948Y12000D01*
D02*
G37*
G36*
X99948D02*
X97052D01*
X94254Y11250D01*
X91746Y9802D01*
X89698Y7754D01*
X88250Y5246D01*
X87500Y2448D01*
Y-448D01*
X88250Y-3246D01*
X89698Y-5754D01*
X91746Y-7802D01*
X94254Y-9250D01*
X97052Y-10000D01*
X99948D01*
X102746Y-9250D01*
X105254Y-7802D01*
X107302Y-5754D01*
X108750Y-3246D01*
X109500Y-448D01*
Y2448D01*
X108750Y5246D01*
X107302Y7754D01*
X105254Y9802D01*
X102746Y11250D01*
X99948Y12000D01*
D02*
G37*
G36*
X84500D02*
X62500D01*
Y-10000D01*
X84500D01*
Y12000D01*
D02*
G37*
G36*
X618500Y-1500D02*
X591913D01*
Y-10000D01*
X592259Y-14394D01*
X593288Y-18679D01*
X594025Y-20458D01*
X592899Y-21059D01*
X592651Y-20688D01*
X590562Y-18599D01*
X588105Y-16957D01*
X585375Y-15826D01*
X582477Y-15250D01*
X579523D01*
X576625Y-15826D01*
X573895Y-16957D01*
X571438Y-18599D01*
X569349Y-20688D01*
X567707Y-23145D01*
X566576Y-25875D01*
X566000Y-28773D01*
Y-31727D01*
X566576Y-34625D01*
X567707Y-37355D01*
X569349Y-39812D01*
X571438Y-41901D01*
X573895Y-43543D01*
X576625Y-44674D01*
X579523Y-45250D01*
X582477D01*
X585375Y-44674D01*
X588105Y-43543D01*
X590562Y-41901D01*
X592651Y-39812D01*
X594293Y-37355D01*
X595424Y-34625D01*
X596000Y-31727D01*
Y-28773D01*
X595424Y-25875D01*
X596597Y-25398D01*
X597277Y-26509D01*
X600140Y-29860D01*
X603491Y-32722D01*
X607249Y-35025D01*
X611321Y-36712D01*
X615606Y-37741D01*
X618500Y-37968D01*
Y-1500D01*
D02*
G37*
G36*
X194351Y-7000D02*
X192362D01*
X190524Y-7761D01*
X189118Y-9168D01*
X188357Y-11005D01*
Y-12995D01*
X189118Y-14832D01*
X190524Y-16239D01*
X191519Y-16651D01*
X208112Y-33244D01*
X209601Y-34239D01*
X211357Y-34588D01*
X221011D01*
X222005Y-35000D01*
X223995D01*
X225832Y-34239D01*
X227239Y-32832D01*
X228000Y-30995D01*
Y-29005D01*
X227239Y-27168D01*
X225832Y-25761D01*
X223995Y-25000D01*
X222005D01*
X221011Y-25412D01*
X213257D01*
X198007Y-10162D01*
X197595Y-9168D01*
X196189Y-7761D01*
X194351Y-7000D01*
D02*
G37*
G36*
X-1500Y-1500D02*
X-28087D01*
Y-10000D01*
X-27741Y-14394D01*
X-26712Y-18679D01*
X-25025Y-22751D01*
X-22722Y-26509D01*
X-19860Y-29860D01*
X-16509Y-32722D01*
X-12751Y-35025D01*
X-8679Y-36712D01*
X-4394Y-37741D01*
X-1500Y-37968D01*
Y-1500D01*
D02*
G37*
G36*
X648087Y-1500D02*
X621500D01*
Y-37968D01*
X624394Y-37741D01*
X628679Y-36712D01*
X632751Y-35025D01*
X636509Y-32722D01*
X639860Y-29860D01*
X642722Y-26509D01*
X645025Y-22751D01*
X646712Y-18679D01*
X647741Y-14394D01*
X648087Y-10000D01*
Y-1500D01*
D02*
G37*
%LPD*%
G36*
X359686Y1511363D02*
X420987Y1511363D01*
X420987Y1511363D01*
X420987Y1511363D01*
X420988D01*
X422160Y1511326D01*
X424074Y1510534D01*
X425607Y1509001D01*
X426436Y1506998D01*
X426436Y1505914D01*
X426436Y1492664D01*
X426436Y1492664D01*
Y1491619D01*
X425637Y1489690D01*
X424160Y1488213D01*
X422231Y1487414D01*
X358892D01*
X356962Y1488213D01*
X355485Y1489690D01*
X354686Y1491620D01*
X354686Y1506363D01*
X354686Y1507357D01*
X355447Y1509195D01*
X356854Y1510602D01*
X358692Y1511363D01*
X359686Y1511363D01*
D02*
G37*
G36*
X421186Y1481314D02*
X422231D01*
X424160Y1480515D01*
X425637Y1479038D01*
X426436Y1477108D01*
Y1476064D01*
X426436Y1476064D01*
X426436Y1462814D01*
X426436Y1461730D01*
X425607Y1459727D01*
X424074Y1458194D01*
X422230Y1457430D01*
X420987Y1457365D01*
X420987Y1457365D01*
X420987Y1457365D01*
X359686Y1457365D01*
X358692Y1457365D01*
X356854Y1458126D01*
X355447Y1459532D01*
X354686Y1461370D01*
X354686Y1462365D01*
X354686Y1477108D01*
X355485Y1479038D01*
X356962Y1480515D01*
X358892Y1481314D01*
X359936D01*
X421186Y1481314D01*
D02*
G37*
G36*
X359686Y1352547D02*
X420987Y1352547D01*
X420987Y1352547D01*
X420987Y1352547D01*
X420988D01*
X422160Y1352510D01*
X424074Y1351717D01*
X425607Y1350184D01*
X426436Y1348182D01*
X426436Y1347098D01*
X426436Y1333847D01*
X426436Y1333847D01*
Y1332803D01*
X425637Y1330874D01*
X424160Y1329397D01*
X422231Y1328597D01*
X358892D01*
X356962Y1329397D01*
X355485Y1330874D01*
X354686Y1332803D01*
X354686Y1347546D01*
X354686Y1348541D01*
X355447Y1350379D01*
X356854Y1351785D01*
X358692Y1352547D01*
X359686Y1352547D01*
D02*
G37*
G36*
X421186Y1322497D02*
X422231D01*
X424160Y1321698D01*
X425637Y1320221D01*
X426436Y1318292D01*
Y1317247D01*
X426436Y1317247D01*
X426436Y1303997D01*
X426436Y1302913D01*
X425607Y1300910D01*
X424074Y1299377D01*
X422230Y1298614D01*
X420987Y1298548D01*
X420987Y1298548D01*
X420987Y1298548D01*
X359686Y1298548D01*
X358692Y1298548D01*
X356854Y1299309D01*
X355447Y1300716D01*
X354686Y1302554D01*
X354686Y1303548D01*
X354686Y1318292D01*
X355485Y1320221D01*
X356962Y1321698D01*
X358892Y1322497D01*
X359936D01*
X421186Y1322497D01*
D02*
G37*
G36*
X359686Y1200230D02*
X420987Y1200230D01*
X420987Y1200230D01*
X420987Y1200230D01*
X420988D01*
X422160Y1200193D01*
X424074Y1199401D01*
X425607Y1197868D01*
X426436Y1195865D01*
X426436Y1194781D01*
X426436Y1181531D01*
X426436Y1181531D01*
Y1180487D01*
X425637Y1178557D01*
X424160Y1177080D01*
X422231Y1176281D01*
X358892D01*
X356962Y1177080D01*
X355485Y1178557D01*
X354686Y1180487D01*
X354686Y1195230D01*
X354686Y1196225D01*
X355447Y1198062D01*
X356854Y1199469D01*
X358692Y1200230D01*
X359686Y1200230D01*
D02*
G37*
G36*
X421186Y1170181D02*
X422231D01*
X424160Y1169382D01*
X425637Y1167905D01*
X426436Y1165975D01*
Y1164931D01*
X426436Y1164931D01*
X426436Y1151681D01*
X426436Y1150597D01*
X425607Y1148594D01*
X424074Y1147061D01*
X422230Y1146297D01*
X420987Y1146232D01*
X420987Y1146232D01*
X420987Y1146232D01*
X359686Y1146232D01*
X358692Y1146232D01*
X356854Y1146993D01*
X355447Y1148400D01*
X354686Y1150238D01*
X354686Y1151232D01*
X354686Y1165975D01*
X355485Y1167905D01*
X356962Y1169382D01*
X358892Y1170181D01*
X359936D01*
X421186Y1170181D01*
D02*
G37*
G36*
X359686Y1034914D02*
X420987Y1034914D01*
X420987Y1034914D01*
X420987Y1034914D01*
X420988D01*
X422160Y1034877D01*
X424074Y1034085D01*
X425607Y1032552D01*
X426436Y1030549D01*
X426436Y1029465D01*
X426436Y1016215D01*
X426436Y1016215D01*
Y1015170D01*
X425637Y1013241D01*
X424160Y1011764D01*
X422231Y1010965D01*
X358892D01*
X356962Y1011764D01*
X355485Y1013241D01*
X354686Y1015170D01*
X354686Y1029913D01*
X354686Y1030908D01*
X355447Y1032746D01*
X356854Y1034153D01*
X358692Y1034914D01*
X359686Y1034914D01*
D02*
G37*
G36*
X421186Y1004865D02*
X422231D01*
X424160Y1004065D01*
X425637Y1002589D01*
X426436Y1000659D01*
Y999615D01*
X426436Y999615D01*
X426436Y986364D01*
X426436Y985281D01*
X425607Y983278D01*
X424074Y981745D01*
X422230Y980981D01*
X420987Y980916D01*
X420987Y980916D01*
X420987Y980915D01*
X359686Y980916D01*
X358692Y980915D01*
X356854Y981676D01*
X355447Y983083D01*
X354686Y984921D01*
X354686Y985916D01*
X354686Y1000659D01*
X355485Y1002589D01*
X356962Y1004065D01*
X358892Y1004865D01*
X359936D01*
X421186Y1004865D01*
D02*
G37*
G36*
X423436Y914664D02*
X423436Y914664D01*
X423438D01*
X424595Y914472D01*
X425419Y914131D01*
X426403Y913146D01*
X426936Y911860D01*
X426936Y911164D01*
X426936Y866664D01*
X426936D01*
X426936Y865470D01*
X426023Y863265D01*
X424335Y861577D01*
X422130Y860664D01*
X420936Y860664D01*
X358991D01*
X357246Y861387D01*
X355909Y862723D01*
X355186Y864469D01*
Y865414D01*
Y909664D01*
X355186Y909664D01*
X355186Y909664D01*
X355261Y910839D01*
X355947Y912496D01*
X357354Y913903D01*
X359192Y914664D01*
X360186Y914664D01*
X423436Y914664D01*
X423436Y914664D01*
D02*
G37*
G36*
Y823747D02*
X423436Y823747D01*
X423438D01*
X424595Y823555D01*
X425419Y823214D01*
X426403Y822230D01*
X426936Y820943D01*
X426936Y820247D01*
X426936Y775747D01*
X426936D01*
X426936Y774554D01*
X426023Y772348D01*
X424335Y770661D01*
X422130Y769747D01*
X420936Y769747D01*
X358991D01*
X357246Y770470D01*
X355909Y771806D01*
X355186Y773552D01*
Y774497D01*
Y818747D01*
X355186Y818747D01*
X355186Y818747D01*
X355261Y819922D01*
X355947Y821579D01*
X357354Y822986D01*
X359192Y823747D01*
X360186Y823747D01*
X423436Y823747D01*
X423436Y823747D01*
D02*
G37*
G36*
X423250Y725433D02*
X423250Y725433D01*
X423251D01*
X424409Y725242D01*
X425233Y724901D01*
X426217Y723916D01*
X426750Y722630D01*
X426750Y721933D01*
X426750Y677433D01*
X426750D01*
X426750Y676240D01*
X425836Y674035D01*
X424149Y672347D01*
X421943Y671433D01*
X420750Y671433D01*
X358805D01*
X357059Y672157D01*
X355723Y673493D01*
X355000Y675239D01*
Y676183D01*
Y720433D01*
X355000Y720433D01*
X355000Y720433D01*
X355075Y721609D01*
X355761Y723266D01*
X357168Y724672D01*
X359005Y725433D01*
X360000Y725433D01*
X423250Y725434D01*
X423250Y725433D01*
D02*
G37*
G36*
X423436Y649330D02*
X423436Y649330D01*
X423438D01*
X424595Y649139D01*
X425419Y648798D01*
X426403Y647813D01*
X426936Y646527D01*
X426936Y645831D01*
X426936Y601330D01*
X426936D01*
X426936Y600137D01*
X426023Y597932D01*
X424335Y596244D01*
X422130Y595331D01*
X420936Y595331D01*
X358991D01*
X357246Y596054D01*
X355909Y597390D01*
X355186Y599136D01*
Y600080D01*
Y644330D01*
X355186Y644330D01*
X355186Y644331D01*
X355261Y645506D01*
X355947Y647163D01*
X357354Y648569D01*
X359192Y649331D01*
X360186Y649330D01*
X423436Y649331D01*
X423436Y649330D01*
D02*
G37*
G36*
X359686Y519914D02*
X420987Y519914D01*
X420987Y519914D01*
X420987Y519914D01*
X420988D01*
X422160Y519877D01*
X424074Y519085D01*
X425607Y517552D01*
X426436Y515549D01*
X426436Y514465D01*
X426436Y501215D01*
X426436Y501214D01*
Y500170D01*
X425637Y498241D01*
X424160Y496764D01*
X422231Y495965D01*
X358892D01*
X356962Y496764D01*
X355485Y498241D01*
X354686Y500170D01*
X354686Y514913D01*
X354686Y515908D01*
X355447Y517746D01*
X356854Y519153D01*
X358692Y519914D01*
X359686Y519914D01*
D02*
G37*
G36*
X421186Y489865D02*
X422231D01*
X424160Y489065D01*
X425637Y487589D01*
X426436Y485659D01*
Y484615D01*
X426436Y484615D01*
X426436Y471364D01*
X426436Y470280D01*
X425607Y468278D01*
X424074Y466745D01*
X422230Y465981D01*
X420987Y465915D01*
X420987Y465915D01*
X420987Y465915D01*
X359686Y465915D01*
X358692Y465915D01*
X356854Y466676D01*
X355447Y468083D01*
X354686Y469921D01*
X354686Y470916D01*
X354686Y485659D01*
X355485Y487589D01*
X356962Y489065D01*
X358892Y489865D01*
X359936D01*
X421186Y489865D01*
D02*
G37*
G36*
X359686Y373664D02*
X420987Y373664D01*
X420987Y373664D01*
X420987Y373664D01*
X420988D01*
X422160Y373627D01*
X424074Y372835D01*
X425607Y371302D01*
X426436Y369299D01*
X426436Y368215D01*
X426436Y354965D01*
X426436Y354964D01*
Y353920D01*
X425637Y351991D01*
X424160Y350514D01*
X422231Y349715D01*
X358892D01*
X356962Y350514D01*
X355485Y351991D01*
X354686Y353920D01*
X354686Y368663D01*
X354686Y369658D01*
X355447Y371496D01*
X356854Y372903D01*
X358692Y373664D01*
X359686Y373664D01*
D02*
G37*
G36*
X421186Y343615D02*
X422231D01*
X424160Y342815D01*
X425637Y341339D01*
X426436Y339409D01*
Y338365D01*
X426436Y338365D01*
X426436Y325114D01*
X426436Y324030D01*
X425607Y322028D01*
X424074Y320495D01*
X422230Y319731D01*
X420987Y319666D01*
X420987Y319666D01*
X420987Y319665D01*
X359686Y319666D01*
X358692Y319665D01*
X356854Y320426D01*
X355447Y321833D01*
X354686Y323671D01*
X354686Y324666D01*
X354686Y339409D01*
X355485Y341339D01*
X356962Y342815D01*
X358892Y343615D01*
X359936D01*
X421186Y343615D01*
D02*
G37*
D10*
X246007Y1433993D02*
X299735Y1487720D01*
Y1489985D01*
X300500Y1490750D01*
X286254Y1465500D02*
X300500D01*
X254246Y1433492D02*
X286254Y1465500D01*
X189032Y881282D02*
X274500D01*
X195074Y790324D02*
X274500D01*
X269500Y283250D02*
X277571Y275179D01*
X226750Y283250D02*
X269500D01*
X219500Y279000D02*
X260500D01*
X271000Y268500D01*
X208000Y302000D02*
X226750Y283250D01*
X202507Y295993D02*
X219500Y279000D01*
X251485Y249235D02*
X252250Y250000D01*
X251485Y244317D02*
Y249235D01*
X248098Y240931D02*
X251485Y244317D01*
X204750Y260000D02*
X238750D01*
X204000Y259250D02*
X204750Y260000D01*
X238750D02*
X239500Y260750D01*
X231149Y270950D02*
X233199Y273000D01*
X234282D01*
X211750Y270950D02*
X231149D01*
X235000Y320000D02*
X243000D01*
X199031Y240931D02*
X248098D01*
X198732Y241229D02*
X199031Y240931D01*
X204000Y247250D02*
X243750D01*
X243750Y247250D01*
X242515Y311000D02*
X243007Y311493D01*
X234485Y311000D02*
X242515D01*
X210036Y253500D02*
X235500D01*
X227610Y295640D02*
X234720Y302750D01*
X243000D01*
X227250Y312250D02*
X235000Y320000D01*
X227750Y304265D02*
X234485Y311000D01*
X286390Y444007D02*
Y485155D01*
X293000Y439500D02*
Y466365D01*
X286390Y485155D02*
X300500Y499265D01*
X293000Y466365D02*
X300500Y473865D01*
X208759Y615991D02*
X274491D01*
X208750Y616000D02*
X208759Y615991D01*
X274491D02*
X274500D01*
X201750Y691750D02*
X274500D01*
X274491Y692094D02*
X274500Y692084D01*
X201500Y692000D02*
X201750Y691750D01*
X274491Y790407D02*
X274500Y790398D01*
X195000Y790250D02*
X195074Y790324D01*
X274491Y881324D02*
X274500Y881315D01*
X189000Y881250D02*
X189032Y881282D01*
X176750Y373750D02*
Y392250D01*
X231000Y1014250D02*
X231007Y1014257D01*
X300493D02*
X300500Y1014265D01*
X231007Y1014257D02*
X300493D01*
X230500Y988750D02*
X230615Y988865D01*
X300500D01*
X274491Y615991D02*
X274500Y615981D01*
X59093Y321093D02*
X59500Y321500D01*
X58686Y299686D02*
X59093Y300093D01*
Y321093D01*
D16*
X108750Y814250D02*
Y843000D01*
Y814250D02*
X118750Y804250D01*
X48110Y1048075D02*
X49175D01*
X69125Y1028125D02*
X76725D01*
X43000Y1050750D02*
X45435D01*
X48110Y1048075D01*
X49175D02*
X69125Y1028125D01*
X44175Y1069575D02*
X50675D01*
X60500Y1044750D02*
Y1059750D01*
X43000Y1070750D02*
X44175Y1069575D01*
X50675D02*
X60500Y1059750D01*
Y1044750D02*
X68375Y1036875D01*
X71500Y1059500D02*
Y1092000D01*
X52750Y1110750D02*
X71500Y1092000D01*
X43000Y1110750D02*
X52750D01*
X66000Y1051000D02*
Y1076250D01*
X51675Y1090575D02*
X66000Y1076250D01*
X43000Y1090750D02*
X43175Y1090575D01*
X51675D01*
X66000Y1051000D02*
X71625Y1045375D01*
X71500Y1059500D02*
X76613Y1054388D01*
X71625Y1045375D02*
X76725D01*
X68375Y1036875D02*
X76725D01*
X76500Y983350D02*
Y983500D01*
X55750D02*
X76500D01*
X43000Y970750D02*
X55750Y983500D01*
X44250Y992000D02*
X76250D01*
X43000Y990750D02*
X44250Y992000D01*
X76250D02*
X76500Y992250D01*
X53000Y1000750D02*
X76500D01*
X43000Y1010750D02*
X53000Y1000750D01*
X63987Y1009762D02*
X76388D01*
X43000Y1030750D02*
X63987Y1009762D01*
X43000Y990750D02*
X44507D01*
X58500Y894438D02*
X62750Y898688D01*
Y899500D01*
X58500Y889321D02*
Y894438D01*
X56750Y880500D02*
X67500Y891250D01*
X43000Y891750D02*
Y892250D01*
X57750Y907000D01*
Y907500D01*
X60500Y809250D02*
Y831583D01*
X43000Y791750D02*
X60500Y809250D01*
X55000Y823750D02*
Y836679D01*
X43000Y811750D02*
X55000Y823750D01*
X60500Y831583D02*
X73929Y845012D01*
X73930D01*
X69250Y850929D02*
Y851500D01*
X55000Y836679D02*
X69250Y850929D01*
X65500Y825500D02*
X81000Y841000D01*
X65500Y794250D02*
Y825500D01*
X56750Y856929D02*
Y880500D01*
X43000Y851750D02*
X43139Y851889D01*
X51710D02*
X56750Y856929D01*
X43139Y851889D02*
X51710D01*
X43000Y771750D02*
X65500Y794250D01*
X61750Y875250D02*
X69250Y882750D01*
X61750Y850500D02*
Y875250D01*
X43000Y831750D02*
X61750Y850500D01*
X43000Y873821D02*
X58500Y889321D01*
X43000Y871750D02*
Y873821D01*
D50*
X-13500Y264100D02*
D03*
D70*
X19000Y71250D02*
X30750D01*
X7511Y82739D02*
X19000Y71250D01*
X71050Y289500D02*
X75000Y285550D01*
X66250Y294300D02*
X71050Y289500D01*
X-24000Y148250D02*
Y342250D01*
X66250Y314750D02*
X122809Y371309D01*
Y372059D01*
X123000Y372250D01*
X4875Y738625D02*
X24875D01*
X4750Y738750D02*
X4875Y738625D01*
X24875D02*
X25000Y738500D01*
X4875Y584375D02*
X30375D01*
X4695Y584555D02*
X4875Y584375D01*
X30375D02*
X30500Y584500D01*
X104193Y970173D02*
X106750Y972729D01*
Y973000D01*
X104193Y944750D02*
Y970173D01*
X75000Y250000D02*
Y285550D01*
X66250Y294300D02*
Y314750D01*
X193357Y-12000D02*
X211357Y-30000D01*
X223000D01*
X172563Y9064D02*
X174107Y7521D01*
Y7250D02*
Y7521D01*
X172563Y9064D02*
Y35000D01*
X180529Y14779D02*
Y35971D01*
X180500Y36000D02*
X180529Y35971D01*
Y14779D02*
X180559Y14750D01*
X81250Y244021D02*
X91729D01*
X91750Y244000D01*
X75000Y250000D02*
X75271D01*
X81250Y244021D01*
X75000Y197000D02*
Y213979D01*
X78250Y217229D01*
Y217500D01*
D72*
X34750Y-32250D02*
D03*
X581000Y-30250D02*
D03*
X579750Y1631000D02*
D03*
X42500Y1630000D02*
D03*
X-13500Y289500D02*
D03*
X-14500Y302200D02*
D03*
Y276800D02*
D03*
X-13500Y314900D02*
D03*
D73*
X360000Y1090000D02*
D03*
D74*
X37000Y1507914D02*
D03*
Y1465914D02*
D03*
X92000D02*
D03*
X586936Y599247D02*
D03*
X586750Y683750D02*
D03*
X37000Y1263250D02*
D03*
Y1221250D02*
D03*
X92000D02*
D03*
X37000Y1385582D02*
D03*
Y1343582D02*
D03*
X92000D02*
D03*
X586936Y1507914D02*
D03*
Y1095330D02*
D03*
Y1177847D02*
D03*
Y1260363D02*
D03*
Y765264D02*
D03*
Y1342880D02*
D03*
Y847780D02*
D03*
Y1425397D02*
D03*
Y270164D02*
D03*
Y352680D02*
D03*
Y435197D02*
D03*
Y930297D02*
D03*
Y517714D02*
D03*
Y1012814D02*
D03*
D75*
X92000Y1507914D02*
D03*
X531936Y599247D02*
D03*
X531750Y683750D02*
D03*
X92000Y1263250D02*
D03*
Y1385582D02*
D03*
X531936Y1507914D02*
D03*
Y1095330D02*
D03*
Y1177847D02*
D03*
Y1260363D02*
D03*
Y765264D02*
D03*
Y1342880D02*
D03*
Y847780D02*
D03*
Y1425397D02*
D03*
Y270164D02*
D03*
Y352680D02*
D03*
Y435197D02*
D03*
Y930297D02*
D03*
Y517714D02*
D03*
Y1012814D02*
D03*
D76*
X0Y1600000D02*
D03*
X620000D02*
D03*
Y0D02*
D03*
X0D02*
D03*
D77*
X43000Y791750D02*
D03*
Y771750D02*
D03*
Y831750D02*
D03*
Y811750D02*
D03*
Y851750D02*
D03*
Y871750D02*
D03*
Y891750D02*
D03*
Y911750D02*
D03*
X23000D02*
D03*
Y891750D02*
D03*
Y871750D02*
D03*
Y851750D02*
D03*
Y831750D02*
D03*
Y811750D02*
D03*
Y791750D02*
D03*
X43000Y990750D02*
D03*
Y970750D02*
D03*
Y1030750D02*
D03*
Y1010750D02*
D03*
Y1050750D02*
D03*
Y1070750D02*
D03*
Y1090750D02*
D03*
Y1110750D02*
D03*
X23000D02*
D03*
Y1090750D02*
D03*
Y1070750D02*
D03*
Y1050750D02*
D03*
Y1030750D02*
D03*
Y1010750D02*
D03*
Y990750D02*
D03*
D78*
Y771750D02*
D03*
Y970750D02*
D03*
D79*
X129000Y296950D02*
D03*
X138333D02*
D03*
X147667D02*
D03*
X157000D02*
D03*
X129000Y287617D02*
D03*
X138333D02*
D03*
X147667D02*
D03*
X157000D02*
D03*
X129000Y268950D02*
D03*
X138333D02*
D03*
X147667D02*
D03*
X157000D02*
D03*
Y278283D02*
D03*
X147667D02*
D03*
X138333D02*
D03*
X129000D02*
D03*
X138056Y1627000D02*
D03*
X648056D02*
D03*
Y1567000D02*
D03*
Y1027000D02*
D03*
X633056Y997000D02*
D03*
X648056Y967000D02*
D03*
X633056Y937000D02*
D03*
X648056Y907000D02*
D03*
X633056Y877000D02*
D03*
X648056Y847000D02*
D03*
X633056Y817000D02*
D03*
X648056Y787000D02*
D03*
X633056Y757000D02*
D03*
X648056Y727000D02*
D03*
X633056Y697000D02*
D03*
X648056Y667000D02*
D03*
X633056Y637000D02*
D03*
X648056Y607000D02*
D03*
X633056Y577000D02*
D03*
X648056Y547000D02*
D03*
X633056Y517000D02*
D03*
X648056Y487000D02*
D03*
X633056Y457001D02*
D03*
X648056Y427001D02*
D03*
X633056Y397001D02*
D03*
X648056Y367001D02*
D03*
X633056Y337001D02*
D03*
X648056Y307001D02*
D03*
X633056Y277001D02*
D03*
X648056Y247001D02*
D03*
X633056Y217001D02*
D03*
X648056Y187001D02*
D03*
X633056Y157001D02*
D03*
X648056Y127001D02*
D03*
X633056Y97001D02*
D03*
X648056Y67001D02*
D03*
X603056Y1477000D02*
D03*
Y1357000D02*
D03*
Y1297000D02*
D03*
Y1237000D02*
D03*
Y1117000D02*
D03*
X618056Y1027000D02*
D03*
X603056Y997000D02*
D03*
X618056Y967000D02*
D03*
Y907000D02*
D03*
X603056Y877000D02*
D03*
X618056Y847000D02*
D03*
X603056Y817000D02*
D03*
X618056Y787000D02*
D03*
Y727000D02*
D03*
Y667000D02*
D03*
X603056Y637000D02*
D03*
X618056Y607000D02*
D03*
X603056Y577000D02*
D03*
X618056Y547000D02*
D03*
Y487000D02*
D03*
X603056Y457001D02*
D03*
X618056Y427001D02*
D03*
X603056Y397001D02*
D03*
X618056Y367001D02*
D03*
X603056Y337001D02*
D03*
X618056Y307001D02*
D03*
Y247001D02*
D03*
X603056Y217001D02*
D03*
X618056Y187001D02*
D03*
Y127001D02*
D03*
Y67001D02*
D03*
X603056Y37001D02*
D03*
X573056Y1597000D02*
D03*
X588056Y1567000D02*
D03*
X573056Y1477000D02*
D03*
X588056Y1447000D02*
D03*
Y1387000D02*
D03*
X573056Y1297000D02*
D03*
Y1237000D02*
D03*
X588056Y1207000D02*
D03*
Y1147000D02*
D03*
X573056Y997000D02*
D03*
X588056Y967000D02*
D03*
Y907000D02*
D03*
X573056Y817000D02*
D03*
X588056Y787000D02*
D03*
Y727000D02*
D03*
X573056Y637000D02*
D03*
Y577000D02*
D03*
X588056Y547000D02*
D03*
Y487000D02*
D03*
X573056Y397001D02*
D03*
Y337001D02*
D03*
X588056Y307001D02*
D03*
Y247001D02*
D03*
X573056Y217001D02*
D03*
Y97001D02*
D03*
X588056Y67001D02*
D03*
Y7001D02*
D03*
X558056Y1627000D02*
D03*
X543056Y1597000D02*
D03*
X558056Y1507000D02*
D03*
Y1327000D02*
D03*
Y1147000D02*
D03*
Y1087000D02*
D03*
Y907000D02*
D03*
Y847000D02*
D03*
Y727000D02*
D03*
Y667000D02*
D03*
Y487000D02*
D03*
Y427001D02*
D03*
Y247001D02*
D03*
X543056Y217001D02*
D03*
X558056Y187001D02*
D03*
X543056Y97001D02*
D03*
X558056Y67001D02*
D03*
X543056Y37001D02*
D03*
X558056Y7001D02*
D03*
X528056Y1627000D02*
D03*
X513056Y1477000D02*
D03*
Y397001D02*
D03*
Y217001D02*
D03*
X528056Y187001D02*
D03*
X513056Y97001D02*
D03*
X528056Y67001D02*
D03*
X513056Y37001D02*
D03*
X483056Y1597000D02*
D03*
Y1477000D02*
D03*
Y1357000D02*
D03*
X498056Y1267000D02*
D03*
Y1147000D02*
D03*
Y1027000D02*
D03*
Y907000D02*
D03*
Y847000D02*
D03*
Y727000D02*
D03*
Y607000D02*
D03*
X483056Y517000D02*
D03*
Y397001D02*
D03*
Y277001D02*
D03*
Y217001D02*
D03*
X498056Y187001D02*
D03*
Y127001D02*
D03*
X483056Y97001D02*
D03*
X498056Y67001D02*
D03*
X483056Y37001D02*
D03*
X453056Y1597000D02*
D03*
Y1357000D02*
D03*
X468056Y1267000D02*
D03*
X453056Y517000D02*
D03*
Y217001D02*
D03*
X468056Y187001D02*
D03*
Y127001D02*
D03*
X453056Y97001D02*
D03*
X468056Y67001D02*
D03*
X453056Y37001D02*
D03*
X468056Y7001D02*
D03*
X423056Y1597000D02*
D03*
Y1537000D02*
D03*
Y1417000D02*
D03*
X438056Y1267000D02*
D03*
X423056Y1237000D02*
D03*
Y1117000D02*
D03*
Y1057000D02*
D03*
Y937000D02*
D03*
Y757000D02*
D03*
Y577000D02*
D03*
Y397001D02*
D03*
Y277001D02*
D03*
Y217001D02*
D03*
X438056Y187001D02*
D03*
Y127001D02*
D03*
X423056Y97001D02*
D03*
X438056Y67001D02*
D03*
X423056Y37001D02*
D03*
X438056Y7001D02*
D03*
X393056Y1597000D02*
D03*
Y1537000D02*
D03*
X408056Y1447000D02*
D03*
X393056Y1417000D02*
D03*
X408056Y1387000D02*
D03*
Y1267000D02*
D03*
X393056Y1237000D02*
D03*
Y1117000D02*
D03*
X408056Y1087000D02*
D03*
X393056Y1057000D02*
D03*
X408056Y967000D02*
D03*
X393056Y937000D02*
D03*
X408056Y847000D02*
D03*
X393056Y757000D02*
D03*
Y577000D02*
D03*
X408056Y547000D02*
D03*
X393056Y457001D02*
D03*
X408056Y427001D02*
D03*
X393056Y397001D02*
D03*
Y277001D02*
D03*
X408056Y247001D02*
D03*
X393056Y217001D02*
D03*
X408056Y187001D02*
D03*
Y127001D02*
D03*
X393056Y97001D02*
D03*
X408056Y67001D02*
D03*
X393056Y37001D02*
D03*
X363056Y1597000D02*
D03*
Y1537000D02*
D03*
X378056Y1447000D02*
D03*
X363056Y1417000D02*
D03*
X378056Y1387000D02*
D03*
Y1267000D02*
D03*
X363056Y1237000D02*
D03*
Y1057000D02*
D03*
X378056Y967000D02*
D03*
X363056Y937000D02*
D03*
X378056Y847000D02*
D03*
X363056Y757000D02*
D03*
Y577000D02*
D03*
X378056Y547000D02*
D03*
X363056Y457001D02*
D03*
X378056Y427001D02*
D03*
X363056Y397001D02*
D03*
X378056Y307001D02*
D03*
X363056Y277001D02*
D03*
X378056Y247001D02*
D03*
X363056Y217001D02*
D03*
X378056Y187001D02*
D03*
X363056Y157001D02*
D03*
X378056Y127001D02*
D03*
X363056Y97001D02*
D03*
X378056Y67001D02*
D03*
X333056Y1597000D02*
D03*
Y1537000D02*
D03*
X348056Y1447000D02*
D03*
X333056Y1417000D02*
D03*
X348056Y1387000D02*
D03*
X333056Y1357000D02*
D03*
X348056Y1327000D02*
D03*
X333056Y1297000D02*
D03*
X348056Y1267000D02*
D03*
X333056Y1237000D02*
D03*
X348056Y1207000D02*
D03*
Y1147000D02*
D03*
X333056Y1117000D02*
D03*
Y1057000D02*
D03*
X348056Y967000D02*
D03*
X333056Y937000D02*
D03*
X348056Y847000D02*
D03*
X333056Y757000D02*
D03*
X348056Y727000D02*
D03*
Y667000D02*
D03*
X333056Y577000D02*
D03*
X348056Y547000D02*
D03*
X333056Y457001D02*
D03*
X348056Y427001D02*
D03*
X333056Y397001D02*
D03*
X348056Y307001D02*
D03*
X333056Y277001D02*
D03*
X348056Y247001D02*
D03*
Y187001D02*
D03*
X333056Y157001D02*
D03*
X348056Y127001D02*
D03*
X333056Y97001D02*
D03*
X348056Y67001D02*
D03*
X333056Y37001D02*
D03*
X303056Y1597000D02*
D03*
Y1537000D02*
D03*
Y1477000D02*
D03*
X318056Y1447000D02*
D03*
X303056Y1417000D02*
D03*
X318056Y1387000D02*
D03*
X303056Y1357000D02*
D03*
Y1297000D02*
D03*
X318056Y1267000D02*
D03*
X303056Y1237000D02*
D03*
X318056Y1207000D02*
D03*
X303056Y1117000D02*
D03*
X318056Y1087000D02*
D03*
X303056Y1057000D02*
D03*
X318056Y967000D02*
D03*
X303056Y937000D02*
D03*
Y877000D02*
D03*
X318056Y847000D02*
D03*
X303056Y817000D02*
D03*
Y757000D02*
D03*
X318056Y727000D02*
D03*
X303056Y697000D02*
D03*
X318056Y667000D02*
D03*
X303056Y637000D02*
D03*
Y577000D02*
D03*
X318056Y547000D02*
D03*
X303056Y517000D02*
D03*
Y457001D02*
D03*
X318056Y427001D02*
D03*
X303056Y397001D02*
D03*
X318056Y307001D02*
D03*
X303056Y277001D02*
D03*
X318056Y247001D02*
D03*
X303056Y217001D02*
D03*
X318056Y187001D02*
D03*
X303056Y157001D02*
D03*
X318056Y127001D02*
D03*
X303056Y37001D02*
D03*
X318056Y7001D02*
D03*
X273056Y1597000D02*
D03*
Y1537000D02*
D03*
X288056Y1507000D02*
D03*
X273056Y1477000D02*
D03*
X288056Y1447000D02*
D03*
X273056Y1417000D02*
D03*
X288056Y1387000D02*
D03*
Y1267000D02*
D03*
X273056Y1237000D02*
D03*
X288056Y1207000D02*
D03*
X273056Y1117000D02*
D03*
X288056Y1087000D02*
D03*
X273056Y1057000D02*
D03*
X288056Y1027000D02*
D03*
Y967000D02*
D03*
X273056Y937000D02*
D03*
X288056Y907000D02*
D03*
Y847000D02*
D03*
X273056Y817000D02*
D03*
Y757000D02*
D03*
X288056Y727000D02*
D03*
Y667000D02*
D03*
X273056Y577000D02*
D03*
X288056Y547000D02*
D03*
X273056Y517000D02*
D03*
Y457001D02*
D03*
X288056Y247001D02*
D03*
X273056Y217001D02*
D03*
X288056Y187001D02*
D03*
X273056Y157001D02*
D03*
X288056Y127001D02*
D03*
X273056Y97001D02*
D03*
X288056Y67001D02*
D03*
X273056Y37001D02*
D03*
X243056Y1597000D02*
D03*
Y1537000D02*
D03*
X258056Y1507000D02*
D03*
X243056Y1477000D02*
D03*
X258056Y1387000D02*
D03*
X243056Y1357000D02*
D03*
X258056Y1267000D02*
D03*
X243056Y1237000D02*
D03*
X258056Y1207000D02*
D03*
X243056Y1177000D02*
D03*
X258056Y1147000D02*
D03*
X243056Y1117000D02*
D03*
X258056Y1087000D02*
D03*
X243056Y1057000D02*
D03*
X258056Y1027000D02*
D03*
X243056Y997000D02*
D03*
X258056Y967000D02*
D03*
X243056Y937000D02*
D03*
X258056Y907000D02*
D03*
Y847000D02*
D03*
X243056Y817000D02*
D03*
Y757000D02*
D03*
X258056Y727000D02*
D03*
Y667000D02*
D03*
X243056Y637000D02*
D03*
X258056Y607000D02*
D03*
X243056Y577000D02*
D03*
X258056Y547000D02*
D03*
X243056Y517000D02*
D03*
X258056Y487000D02*
D03*
X243056Y457001D02*
D03*
X258056Y427001D02*
D03*
X243056Y397001D02*
D03*
X258056Y187001D02*
D03*
X243056Y97001D02*
D03*
X258056Y67001D02*
D03*
X243056Y37001D02*
D03*
X213056Y1597000D02*
D03*
Y1537000D02*
D03*
X228056Y1507000D02*
D03*
X213056Y1477000D02*
D03*
X228056Y1447000D02*
D03*
X213056Y1417000D02*
D03*
X228056Y1387000D02*
D03*
X213056Y1357000D02*
D03*
X228056Y1327000D02*
D03*
X213056Y1297000D02*
D03*
X228056Y1267000D02*
D03*
X213056Y1237000D02*
D03*
X228056Y1207000D02*
D03*
X213056Y1177000D02*
D03*
X228056Y1087000D02*
D03*
Y1027000D02*
D03*
Y967000D02*
D03*
Y907000D02*
D03*
Y847000D02*
D03*
Y727000D02*
D03*
Y667000D02*
D03*
Y607000D02*
D03*
Y547000D02*
D03*
Y487000D02*
D03*
Y427001D02*
D03*
Y187001D02*
D03*
Y67001D02*
D03*
X213056Y37001D02*
D03*
X183056Y1597000D02*
D03*
X198056Y1507000D02*
D03*
X183056Y1477000D02*
D03*
X198056Y1447000D02*
D03*
X183056Y1417000D02*
D03*
X198056Y1327000D02*
D03*
Y367001D02*
D03*
Y127001D02*
D03*
X168056Y1567000D02*
D03*
Y1447000D02*
D03*
X153056Y1417000D02*
D03*
X168056Y1387000D02*
D03*
X153056Y1357000D02*
D03*
X168056Y1327000D02*
D03*
X153056Y1297000D02*
D03*
X168056Y1267000D02*
D03*
X153056Y1237000D02*
D03*
X168056Y1207000D02*
D03*
X153056Y1177000D02*
D03*
X168056Y1147000D02*
D03*
X153056Y1117000D02*
D03*
X168056Y1087000D02*
D03*
X153056Y1057000D02*
D03*
X168056Y1027000D02*
D03*
X153056Y997000D02*
D03*
X168056Y967000D02*
D03*
Y907000D02*
D03*
Y847000D02*
D03*
Y727000D02*
D03*
X153056Y697000D02*
D03*
Y637000D02*
D03*
Y577000D02*
D03*
X168056Y547000D02*
D03*
X153056Y517000D02*
D03*
X168056Y487000D02*
D03*
X153056Y457001D02*
D03*
X168056Y427001D02*
D03*
X153056Y397001D02*
D03*
Y337001D02*
D03*
X168056Y67001D02*
D03*
X153056Y37001D02*
D03*
X123056Y1537000D02*
D03*
Y1477000D02*
D03*
X138056Y1387000D02*
D03*
X123056Y1357000D02*
D03*
X138056Y1327000D02*
D03*
X123056Y1297000D02*
D03*
X138056Y1267000D02*
D03*
X123056Y1237000D02*
D03*
X138056Y1207000D02*
D03*
X123056Y1177000D02*
D03*
X138056Y1147000D02*
D03*
X123056Y1117000D02*
D03*
X138056Y1087000D02*
D03*
Y727000D02*
D03*
X123056Y697000D02*
D03*
X138056Y607000D02*
D03*
X123056Y577000D02*
D03*
X138056Y487000D02*
D03*
X123056Y457001D02*
D03*
X138056Y427001D02*
D03*
X123056Y397001D02*
D03*
Y97001D02*
D03*
Y37001D02*
D03*
X108056Y1627000D02*
D03*
X93056Y1597000D02*
D03*
X108056Y1447000D02*
D03*
X93056Y1417000D02*
D03*
X108056Y1207000D02*
D03*
X93056Y1177000D02*
D03*
X108056Y1147000D02*
D03*
X93056Y1117000D02*
D03*
X108056Y1087000D02*
D03*
Y727000D02*
D03*
X93056Y697000D02*
D03*
Y637000D02*
D03*
X108056Y547000D02*
D03*
Y487000D02*
D03*
Y427001D02*
D03*
X93056Y97001D02*
D03*
Y37001D02*
D03*
X78056Y1627000D02*
D03*
X63056Y1597000D02*
D03*
X78056Y1567000D02*
D03*
X63056Y1537000D02*
D03*
Y1477000D02*
D03*
X78056Y1447000D02*
D03*
X63056Y1417000D02*
D03*
Y1357000D02*
D03*
Y1297000D02*
D03*
Y1237000D02*
D03*
Y1177000D02*
D03*
X78056Y1147000D02*
D03*
X63056Y1117000D02*
D03*
X78056Y727000D02*
D03*
X63056Y697000D02*
D03*
Y637000D02*
D03*
X78056Y607000D02*
D03*
X63056Y577000D02*
D03*
X78056Y547000D02*
D03*
X63056Y517000D02*
D03*
Y457001D02*
D03*
Y97001D02*
D03*
Y37001D02*
D03*
Y-22999D02*
D03*
X33056Y1597000D02*
D03*
X48056Y1567000D02*
D03*
X33056Y1537000D02*
D03*
X48056Y1447000D02*
D03*
X33056Y1417000D02*
D03*
X48056Y1327000D02*
D03*
X33056Y1297000D02*
D03*
Y1177000D02*
D03*
X48056Y1147000D02*
D03*
X33056Y1117000D02*
D03*
Y1057000D02*
D03*
Y997000D02*
D03*
Y877000D02*
D03*
Y817000D02*
D03*
Y757000D02*
D03*
X48056Y727000D02*
D03*
Y607000D02*
D03*
Y547000D02*
D03*
Y487000D02*
D03*
Y427001D02*
D03*
Y187001D02*
D03*
X33056Y157001D02*
D03*
X48056Y7001D02*
D03*
X3056Y1537000D02*
D03*
Y1477000D02*
D03*
X18056Y1447000D02*
D03*
X3056Y1417000D02*
D03*
Y1357000D02*
D03*
X18056Y1327000D02*
D03*
X3056Y1297000D02*
D03*
Y1237000D02*
D03*
X18056Y1207000D02*
D03*
X3056Y1177000D02*
D03*
X18056Y1147000D02*
D03*
X3056Y1117000D02*
D03*
Y1057000D02*
D03*
Y997000D02*
D03*
Y937000D02*
D03*
X18056Y547000D02*
D03*
Y427001D02*
D03*
X3056Y277001D02*
D03*
X18056Y187001D02*
D03*
Y127001D02*
D03*
X-26944Y1537000D02*
D03*
X-11944Y1507000D02*
D03*
X-26944Y1477000D02*
D03*
X-11944Y1447000D02*
D03*
X-26944Y1417000D02*
D03*
X-11944Y1387000D02*
D03*
X-26944Y1357000D02*
D03*
X-11944Y1327000D02*
D03*
X-26944Y1297000D02*
D03*
X-11944Y1267000D02*
D03*
X-26944Y1237000D02*
D03*
X-11944Y1207000D02*
D03*
X-26944Y1177000D02*
D03*
X-11944Y1147000D02*
D03*
X-26944Y1117000D02*
D03*
X-11944Y1087000D02*
D03*
X-26944Y1057000D02*
D03*
X-11944Y1027000D02*
D03*
X-26944Y997000D02*
D03*
X-11944Y967000D02*
D03*
X-26944Y937000D02*
D03*
X-11944Y907000D02*
D03*
X-26944Y877000D02*
D03*
X-11944Y847000D02*
D03*
X-26944Y817000D02*
D03*
X-11944Y787000D02*
D03*
X-26944Y757000D02*
D03*
X-11944Y727000D02*
D03*
X-26944Y697000D02*
D03*
X-11944Y667000D02*
D03*
X-26944Y637000D02*
D03*
X-11944Y607000D02*
D03*
X-26944Y577000D02*
D03*
Y517000D02*
D03*
Y457001D02*
D03*
Y397001D02*
D03*
Y37001D02*
D03*
X52250Y250750D02*
D03*
X52250Y291250D02*
D03*
X173750Y341500D02*
D03*
X217750Y155250D02*
D03*
X240250Y137750D02*
D03*
X275000Y13500D02*
D03*
X158000Y15000D02*
D03*
X167000Y93250D02*
D03*
X145500Y97500D02*
D03*
X171500Y132250D02*
D03*
X193000Y141750D02*
D03*
X102250Y237250D02*
D03*
X25750Y563500D02*
D03*
X13250Y496000D02*
D03*
X11250Y384000D02*
D03*
X25500Y396750D02*
D03*
X105000Y324000D02*
D03*
X75750Y358000D02*
D03*
X86846Y319596D02*
D03*
X61846Y331596D02*
D03*
X556846Y316346D02*
D03*
X555596Y564346D02*
D03*
X559096Y593846D02*
D03*
X494096Y563596D02*
D03*
X441846Y1020596D02*
D03*
X491096Y977846D02*
D03*
X479846Y896096D02*
D03*
X304846Y1001346D02*
D03*
X304830Y1025110D02*
D03*
X343846Y1002846D02*
D03*
X342846Y1025596D02*
D03*
X304830Y1190427D02*
D03*
X257250Y1164750D02*
D03*
X303596Y1166846D02*
D03*
X343346Y1191596D02*
D03*
X343596Y1165846D02*
D03*
X404096Y1289846D02*
D03*
X340096Y1453846D02*
D03*
X300500Y1490750D02*
D03*
Y1465500D02*
D03*
X304596Y1339846D02*
D03*
X270846Y1319096D02*
D03*
X304346Y1318596D02*
D03*
X344346Y1312346D02*
D03*
X343096Y1344846D02*
D03*
X343596Y1478096D02*
D03*
X342846Y1503346D02*
D03*
X164846Y1641096D02*
D03*
X233846D02*
D03*
X296529Y1638124D02*
D03*
X361537Y1638100D02*
D03*
X428596Y1637346D02*
D03*
X483096Y1639346D02*
D03*
X512096Y1567596D02*
D03*
X492346Y1520846D02*
D03*
X448846Y1435096D02*
D03*
X501346Y1435346D02*
D03*
X473846Y1396096D02*
D03*
X509596Y1394596D02*
D03*
X475346Y1312346D02*
D03*
X505846Y1312596D02*
D03*
X501596Y1228346D02*
D03*
X496596Y1188846D02*
D03*
X446532Y1186909D02*
D03*
X532346Y1064596D02*
D03*
X496596Y1060096D02*
D03*
X501846Y359346D02*
D03*
X558346Y762096D02*
D03*
X434346Y728596D02*
D03*
X505846Y690846D02*
D03*
X469846Y692846D02*
D03*
X437346Y851346D02*
D03*
X468346Y852846D02*
D03*
X485596Y859846D02*
D03*
X395096Y833096D02*
D03*
X366596Y832596D02*
D03*
X338096Y829846D02*
D03*
X303346Y790096D02*
D03*
X342846D02*
D03*
X343596Y814846D02*
D03*
X510549Y810715D02*
D03*
X471846Y810346D02*
D03*
X497096Y770596D02*
D03*
X442846Y769346D02*
D03*
X445596Y688596D02*
D03*
X407346Y736846D02*
D03*
X378346D02*
D03*
X302346Y716346D02*
D03*
X341846Y715596D02*
D03*
X342346Y692346D02*
D03*
X288846Y691596D02*
D03*
X279096Y647596D02*
D03*
X305596Y615346D02*
D03*
X342846Y601096D02*
D03*
X343346Y644846D02*
D03*
X343596Y614846D02*
D03*
X341846Y628846D02*
D03*
X382787Y659617D02*
D03*
X411346Y661096D02*
D03*
X494096Y645346D02*
D03*
X474096Y603346D02*
D03*
X441596Y603596D02*
D03*
X309830Y317073D02*
D03*
X342596Y319596D02*
D03*
X307846Y372846D02*
D03*
X306346Y340846D02*
D03*
X342596Y338346D02*
D03*
Y472596D02*
D03*
X304096Y485846D02*
D03*
X344096Y510596D02*
D03*
X486596Y479096D02*
D03*
X446532Y436309D02*
D03*
X495596Y436096D02*
D03*
X451532Y352909D02*
D03*
X495096Y312846D02*
D03*
X452596Y163346D02*
D03*
X545846Y165846D02*
D03*
X562846Y141596D02*
D03*
X555096Y116596D02*
D03*
X607846Y-43154D02*
D03*
X552596Y-41154D02*
D03*
X477000Y-42250D02*
D03*
X351846Y-39904D02*
D03*
X524096Y-16904D02*
D03*
X443596Y-18404D02*
D03*
X359596Y-16654D02*
D03*
X248346Y-41404D02*
D03*
X123096Y-40404D02*
D03*
X-23654Y-38654D02*
D03*
X-32966Y80557D02*
D03*
X-32904Y159346D02*
D03*
X-32404Y225846D02*
D03*
X-33154Y304346D02*
D03*
X-9654Y331596D02*
D03*
X15846Y333596D02*
D03*
X26596Y375846D02*
D03*
X70596Y405951D02*
D03*
X102096Y382596D02*
D03*
X128346Y361596D02*
D03*
X206096Y333096D02*
D03*
X211846Y312596D02*
D03*
X206096Y202346D02*
D03*
X187596Y244846D02*
D03*
X215096Y231096D02*
D03*
X140346Y200346D02*
D03*
X155846Y164096D02*
D03*
X112096Y149096D02*
D03*
X106846Y76596D02*
D03*
X109846Y53846D02*
D03*
X-4154Y145346D02*
D03*
X15096Y164096D02*
D03*
X-2404Y226346D02*
D03*
X18846Y228596D02*
D03*
X65096Y227346D02*
D03*
X63346Y201596D02*
D03*
X30750Y71250D02*
D03*
X277571Y275179D02*
D03*
X271000Y268500D02*
D03*
X252250Y250000D02*
D03*
X239500Y260750D02*
D03*
X234282Y273000D02*
D03*
X211750Y270950D02*
D03*
X208000Y302000D02*
D03*
X202507Y295993D02*
D03*
X243000Y320000D02*
D03*
X243750Y247250D02*
D03*
X198732Y241229D02*
D03*
X243007Y311493D02*
D03*
X204000Y247250D02*
D03*
X210036Y253500D02*
D03*
X227610Y295640D02*
D03*
X243000Y302750D02*
D03*
X227750Y304265D02*
D03*
X227250Y312250D02*
D03*
X235500Y253500D02*
D03*
X204000Y259250D02*
D03*
X293000Y439500D02*
D03*
X286390Y444007D02*
D03*
X300500Y473865D02*
D03*
Y499265D02*
D03*
X208750Y616000D02*
D03*
X274500Y692084D02*
D03*
X201500Y692000D02*
D03*
X274500Y790398D02*
D03*
X195000Y790250D02*
D03*
X274500Y881315D02*
D03*
X189000Y881250D02*
D03*
X254246Y1433492D02*
D03*
X176750Y373750D02*
D03*
Y392250D02*
D03*
X231000Y1014250D02*
D03*
X230500Y988750D02*
D03*
X300500Y1014265D02*
D03*
Y988865D02*
D03*
X274500Y615981D02*
D03*
X359186Y645080D02*
D03*
X394436Y629914D02*
D03*
X359186Y612580D02*
D03*
X394436D02*
D03*
Y645080D02*
D03*
Y599580D02*
D03*
X359186D02*
D03*
Y629914D02*
D03*
X407936Y599580D02*
D03*
X421186D02*
D03*
Y614747D02*
D03*
Y645080D02*
D03*
X407936Y629914D02*
D03*
Y612580D02*
D03*
Y645080D02*
D03*
X359000Y688683D02*
D03*
Y721183D02*
D03*
X394250Y706017D02*
D03*
X359000D02*
D03*
X394250Y675684D02*
D03*
Y688683D02*
D03*
Y721183D02*
D03*
X359000Y675684D02*
D03*
X421000Y721183D02*
D03*
X407750D02*
D03*
X421000Y706017D02*
D03*
Y690850D02*
D03*
Y675684D02*
D03*
X407750Y706017D02*
D03*
Y688683D02*
D03*
Y675684D02*
D03*
X246007Y1433993D02*
D03*
X123000Y372250D02*
D03*
X25000Y738500D02*
D03*
X4750Y738750D02*
D03*
X4695Y584555D02*
D03*
X420686Y1507113D02*
D03*
Y1150482D02*
D03*
Y1030664D02*
D03*
Y369414D02*
D03*
X394436Y773997D02*
D03*
X359186Y786997D02*
D03*
Y804331D02*
D03*
Y819497D02*
D03*
Y773997D02*
D03*
X394436Y819497D02*
D03*
Y804331D02*
D03*
Y786997D02*
D03*
Y895247D02*
D03*
X359186Y864914D02*
D03*
Y877914D02*
D03*
X394436Y864914D02*
D03*
Y877914D02*
D03*
Y910414D02*
D03*
X359186D02*
D03*
Y895247D02*
D03*
X420686Y1000332D02*
D03*
X407436D02*
D03*
X420686Y985165D02*
D03*
Y1302798D02*
D03*
Y1348297D02*
D03*
X58686Y299686D02*
D03*
X59500Y321500D02*
D03*
X108750Y843000D02*
D03*
X118750Y804250D02*
D03*
X76613Y1054388D02*
D03*
X76725Y1045375D02*
D03*
Y1036875D02*
D03*
Y1028125D02*
D03*
X76500Y983500D02*
D03*
X106750Y973000D02*
D03*
X104193Y944750D02*
D03*
X76500Y992250D02*
D03*
X76388Y1009762D02*
D03*
X76500Y1000750D02*
D03*
X66250Y314750D02*
D03*
X71050Y289500D02*
D03*
X-23750Y342250D02*
D03*
X193357Y-12000D02*
D03*
X223000Y-30000D02*
D03*
X174107Y7250D02*
D03*
X180559Y14750D02*
D03*
X172563Y35000D02*
D03*
X7511Y82739D02*
D03*
X-24000Y148250D02*
D03*
X62750Y899500D02*
D03*
X67500Y891250D02*
D03*
X57750Y907500D02*
D03*
X30500Y584500D02*
D03*
X73930Y845012D02*
D03*
X69250Y851500D02*
D03*
X81000Y841000D02*
D03*
X69250Y882750D02*
D03*
X407436Y339082D02*
D03*
X393936D02*
D03*
X358686D02*
D03*
X420686D02*
D03*
X358686Y323915D02*
D03*
X393936D02*
D03*
X407436D02*
D03*
X420686D02*
D03*
X407436Y485332D02*
D03*
X393936D02*
D03*
X358686D02*
D03*
X420686D02*
D03*
X358686Y470165D02*
D03*
X393936D02*
D03*
X407436D02*
D03*
X420686D02*
D03*
X393936Y1000332D02*
D03*
X358686D02*
D03*
Y985165D02*
D03*
X393936D02*
D03*
X407436D02*
D03*
Y1165648D02*
D03*
X393936D02*
D03*
X358686D02*
D03*
X420686D02*
D03*
X358686Y1150482D02*
D03*
X393936D02*
D03*
X407436D02*
D03*
Y1317965D02*
D03*
X393936D02*
D03*
X358686D02*
D03*
X420686D02*
D03*
X358686Y1302798D02*
D03*
X393936D02*
D03*
X407436D02*
D03*
Y1476781D02*
D03*
X393936D02*
D03*
X358686D02*
D03*
X420686D02*
D03*
X358686Y1461615D02*
D03*
X393936D02*
D03*
X407436D02*
D03*
X420686D02*
D03*
X407436Y354247D02*
D03*
X393936D02*
D03*
X358686D02*
D03*
X420686D02*
D03*
X358686Y369414D02*
D03*
X393936D02*
D03*
X407436D02*
D03*
Y500497D02*
D03*
X393936D02*
D03*
X358686D02*
D03*
X420686D02*
D03*
X358686Y515664D02*
D03*
X393936D02*
D03*
X407436D02*
D03*
X420686D02*
D03*
X407436Y1015497D02*
D03*
X393936D02*
D03*
X358686D02*
D03*
X420686D02*
D03*
X358686Y1030664D02*
D03*
X393936D02*
D03*
X407436D02*
D03*
Y1180814D02*
D03*
X393936D02*
D03*
X358686D02*
D03*
X420686D02*
D03*
X358686Y1195980D02*
D03*
X393936D02*
D03*
X407436D02*
D03*
X420686D02*
D03*
X407436Y1333130D02*
D03*
X393936D02*
D03*
X358686D02*
D03*
X420686D02*
D03*
X358686Y1348297D02*
D03*
X393936D02*
D03*
X407436D02*
D03*
Y1507113D02*
D03*
X393936D02*
D03*
X358686D02*
D03*
X420686Y1491946D02*
D03*
X358686D02*
D03*
X393936D02*
D03*
X407436D02*
D03*
X421186Y819497D02*
D03*
X407936D02*
D03*
X421186Y804331D02*
D03*
Y789164D02*
D03*
Y773997D02*
D03*
X407936Y804331D02*
D03*
Y786997D02*
D03*
Y773997D02*
D03*
Y864914D02*
D03*
Y877914D02*
D03*
Y895247D02*
D03*
X421186Y864914D02*
D03*
Y880080D02*
D03*
Y895247D02*
D03*
X407936Y910414D02*
D03*
X421186D02*
D03*
X180500Y36000D02*
D03*
X75000Y250000D02*
D03*
X91750Y244000D02*
D03*
X75000Y197000D02*
D03*
X78250Y217500D02*
D03*
D80*
X592750Y180000D02*
D03*
Y130000D02*
D03*
Y155000D02*
D03*
X509750Y1000D02*
D03*
X534750D02*
D03*
X423500D02*
D03*
X373500D02*
D03*
X398500D02*
D03*
X148500D02*
D03*
X98500D02*
D03*
X123500D02*
D03*
X286000D02*
D03*
X236000D02*
D03*
X261000D02*
D03*
X30000Y651000D02*
D03*
Y676000D02*
D03*
Y626000D02*
D03*
Y601000D02*
D03*
Y456250D02*
D03*
Y506250D02*
D03*
Y481250D02*
D03*
D81*
X592750Y105000D02*
D03*
X30000Y701000D02*
D03*
Y531250D02*
D03*
D82*
X484750Y1000D02*
D03*
X348500D02*
D03*
X73500D02*
D03*
X211000D02*
D03*
D83*
X148250Y1509000D02*
X213000Y1573750D01*
X475750D01*
X148250Y1441832D02*
Y1509000D01*
X97000Y1390582D02*
X148250Y1441832D01*
X92000Y1543750D02*
X164000Y1615750D01*
X494250D02*
X560500Y1549500D01*
X164000Y1615750D02*
X494250D01*
X560500Y1549500D02*
X602750D01*
X526936Y1508914D02*
X527936Y1507914D01*
X526936Y1508914D02*
Y1522564D01*
X475750Y1573750D02*
X526936Y1522564D01*
X602750Y1549500D02*
X634000Y1518250D01*
X527936Y1507914D02*
X531936D01*
Y1425397D02*
Y1507914D01*
X536088Y1037088D02*
X553500Y1054500D01*
X610000D02*
X634000Y1078500D01*
X553500Y1054500D02*
X610000D01*
X536088Y1013814D02*
Y1037088D01*
X535088Y1012814D02*
X536088Y1013814D01*
X531936Y1012814D02*
X535088D01*
X634000Y1078500D02*
Y1518250D01*
X92000Y1507914D02*
Y1543750D01*
Y1465914D02*
Y1507914D01*
X97000Y1386582D02*
Y1390582D01*
X92000Y1385582D02*
X96000D01*
X97000Y1386582D01*
X92000Y1343582D02*
Y1385582D01*
Y1263250D02*
Y1343582D01*
Y1221250D02*
Y1263250D01*
X531936Y352680D02*
Y435197D01*
Y270164D02*
Y352680D01*
Y930297D02*
Y1012814D01*
Y847780D02*
Y930297D01*
Y765264D02*
Y847780D01*
Y517714D02*
Y765264D01*
Y435197D02*
Y517714D01*
Y1342880D02*
Y1425397D01*
Y1260363D02*
Y1342880D01*
Y1177847D02*
Y1260363D01*
Y1095330D02*
Y1177847D01*
M02*
