G04*
G04 #@! TF.GenerationSoftware,Altium Limited,Altium Designer,21.8.1 (53)*
G04*
G04 Layer_Color=16711935*
%FSLAX44Y44*%
%MOMM*%
G71*
G04*
G04 #@! TF.SameCoordinates,C21CB1A8-5196-45B6-BCC0-1EF7E4A1402D*
G04*
G04*
G04 #@! TF.FilePolarity,Negative*
G04*
G01*
G75*
%ADD19R,1.1000X1.1000*%
%ADD38C,3.0000*%
%ADD39O,7.3000X5.3000*%
%ADD40O,3.1000X2.3000*%
%ADD41R,3.1000X2.3000*%
%ADD42O,5.3000X7.3000*%
%ADD43C,1.3000*%
%ADD44R,1.3000X1.3000*%
%ADD45C,1.1000*%
%ADD46C,0.7000*%
%ADD47C,1.9000*%
%ADD48R,1.9000X1.9000*%
%ADD49R,1.9000X1.9000*%
D19*
X-13500Y264100D02*
D03*
D38*
X34750Y-32250D02*
D03*
X581000Y-30250D02*
D03*
X579750Y1631000D02*
D03*
X42500Y1630000D02*
D03*
D39*
X360000Y1090000D02*
D03*
D40*
X37000Y1507914D02*
D03*
Y1465914D02*
D03*
X92000D02*
D03*
X586936Y599247D02*
D03*
X586750Y683750D02*
D03*
X37000Y1263250D02*
D03*
Y1221250D02*
D03*
X92000D02*
D03*
X37000Y1385582D02*
D03*
Y1343582D02*
D03*
X92000D02*
D03*
X586936Y1507914D02*
D03*
Y1095330D02*
D03*
Y1177847D02*
D03*
Y1260363D02*
D03*
Y765264D02*
D03*
Y1342880D02*
D03*
Y847780D02*
D03*
Y1425397D02*
D03*
Y270164D02*
D03*
Y352680D02*
D03*
Y435197D02*
D03*
Y930297D02*
D03*
Y517714D02*
D03*
Y1012814D02*
D03*
D41*
X92000Y1507914D02*
D03*
X531936Y599247D02*
D03*
X531750Y683750D02*
D03*
X92000Y1263250D02*
D03*
Y1385582D02*
D03*
X531936Y1507914D02*
D03*
Y1095330D02*
D03*
Y1177847D02*
D03*
Y1260363D02*
D03*
Y765264D02*
D03*
Y1342880D02*
D03*
Y847780D02*
D03*
Y1425397D02*
D03*
Y270164D02*
D03*
Y352680D02*
D03*
Y435197D02*
D03*
Y930297D02*
D03*
Y517714D02*
D03*
Y1012814D02*
D03*
D42*
X0Y1600000D02*
D03*
X620000D02*
D03*
Y0D02*
D03*
X0D02*
D03*
D43*
X43000Y791750D02*
D03*
Y771750D02*
D03*
Y831750D02*
D03*
Y811750D02*
D03*
Y851750D02*
D03*
Y871750D02*
D03*
Y891750D02*
D03*
Y911750D02*
D03*
X23000D02*
D03*
Y891750D02*
D03*
Y871750D02*
D03*
Y851750D02*
D03*
Y831750D02*
D03*
Y811750D02*
D03*
Y791750D02*
D03*
X43000Y990750D02*
D03*
Y970750D02*
D03*
Y1030750D02*
D03*
Y1010750D02*
D03*
Y1050750D02*
D03*
Y1070750D02*
D03*
Y1090750D02*
D03*
Y1110750D02*
D03*
X23000D02*
D03*
Y1090750D02*
D03*
Y1070750D02*
D03*
Y1050750D02*
D03*
Y1030750D02*
D03*
Y1010750D02*
D03*
Y990750D02*
D03*
D44*
Y771750D02*
D03*
Y970750D02*
D03*
D45*
X-13500Y289500D02*
D03*
X-14500Y302200D02*
D03*
Y276800D02*
D03*
X-13500Y314900D02*
D03*
D46*
X129000Y296950D02*
D03*
X138333D02*
D03*
X147667D02*
D03*
X157000D02*
D03*
X129000Y287617D02*
D03*
X138333D02*
D03*
X147667D02*
D03*
X157000D02*
D03*
X129000Y268950D02*
D03*
X138333D02*
D03*
X147667D02*
D03*
X157000D02*
D03*
Y278283D02*
D03*
X147667D02*
D03*
X138333D02*
D03*
X129000D02*
D03*
D47*
X592750Y180000D02*
D03*
Y130000D02*
D03*
Y155000D02*
D03*
X509750Y1000D02*
D03*
X534750D02*
D03*
X423500D02*
D03*
X373500D02*
D03*
X398500D02*
D03*
X148500D02*
D03*
X98500D02*
D03*
X123500D02*
D03*
X286000D02*
D03*
X236000D02*
D03*
X261000D02*
D03*
X30000Y651000D02*
D03*
Y676000D02*
D03*
Y626000D02*
D03*
Y601000D02*
D03*
Y456250D02*
D03*
Y506250D02*
D03*
Y481250D02*
D03*
D48*
X592750Y105000D02*
D03*
X30000Y701000D02*
D03*
Y531250D02*
D03*
D49*
X484750Y1000D02*
D03*
X348500D02*
D03*
X73500D02*
D03*
X211000D02*
D03*
M02*
