M48
;Layer_Color=9474304
;FILE_FORMAT=4:4
METRIC,LZ
;TYPE=PLATED
T1F00S00C0.3000
T2F00S00C0.6000
T3F00S00C0.9000
T4F00S00C1.0000
T5F00S00C1.4000
;TYPE=NON_PLATED
%
T01
X-0033425Y-0061375
X-0033725Y-005475
X-00292Y-0055225
X-0025075Y-00583
X-00236Y-0061575
X-001895Y-0058575
X-0013975Y-005785
X-00139Y-0053075
X-001595Y-005485
X-0016375Y-005065
X-0019425Y-00498
X-002005Y-00469
X-0018975Y-004405
X-0014325Y-0043675
X-001285Y-004505
X-00118Y-0046325
X-00128Y-00475
X-00118Y-00491
X-001085Y-00513
X-0008Y-005065
X-0007375Y-0048825
X-00082Y-0047575
X-000735Y-0046275
X-0008225Y-004505
X-001005Y-004255
X-00136097Y-00403246
X-00135751Y-0039365
X-0014675Y-004105
X-0017625Y-003975
X-0019125Y-0036525
X-002445Y-0036375
X-0022375Y-00393
X-00277
X-0025225Y-004205
X-002535Y-004715
X-0029425Y-00472
X-00334Y-0047425
X-003175Y-0041825
X-0033925Y-0038275
X-002535Y-0051725
X-0021475Y-0055175
X-00152Y-0062075
X-000825Y-0062
X-0008975Y-0059
X-00088Y-00531
X-0004825Y-005165
X-00048Y-005465
X-0000875Y-005535
X-0000975Y-005835
X0003Y-005855
X0002925Y-00553
X0003125Y-0052425
X0000675Y-0052875
X00013Y-0050925
X000065Y-0048275
X00037442Y-00472173
X000275Y-0045575
X00026698Y-004196
X00035448
X000363Y-004042
X0002755
X000188
X0001005
X00009198Y-004196
X00017948
X-0000975Y-004205
X-0001025Y-004015
X-0003525Y-0038775
X-00034395Y-00423169
X-000335Y-0045475
X-0000975Y-0045025
X-0003575Y-0048175
X000365Y-00498
X0004225Y-0036925
X-000365Y-0034975
X-00109Y-0034825
X-000665Y-0040025
X000075Y-0061975
X0009375Y-006205
X00093Y-0059025
X000845Y-00564
X0008325Y-005285
X000605Y-0050775
X0006Y-004195
X00058Y-0039525
X0008225Y-0042625
X00118Y-0042225
X0012125Y-004065
X001375Y-0037875
X00192Y-00376
X001735Y-0040025
X00164Y-00429
X002035Y-0043625
X002515Y-0042125
X0025075Y-004575
X0024675Y-0049175
X0025275Y-00536
X0024675Y-00566
X001865Y-0056275
X0019075Y-005005
X0011675Y-00547
X0017425Y-0061975
X00211Y-006095
X00265Y-0062075
X0034Y-0056425
X0031625Y-0054
X0034175Y-0049925
X0031025Y-004625
X003425Y-004295
Y-00357
X0031275Y-0038375
X0025Y-0037325
X00093472Y-003494
X000645Y-00335
X0006375Y-00294
X0009825Y-0030375
X0010575Y-0026725
X0013175Y-0027975
Y-00241
X00129Y-0021675
X00121999Y-0018915
X0011325Y-00178
X0010275Y-0019325
X00066499Y-001794
X00058Y-001675
X0005675Y-00129
X0005225Y-0009975
X00056249Y-000762
X00065Y-000315
X0006175Y-000025
X0006375Y000275
X00100249Y-000369
X00143499
X00153Y-0004975
X001715Y-0002925
X0017575Y0000475
X0015475Y-000015
X0020275Y00012
X00242Y-0000425
X0023775Y00035
X0026725Y00048
X00317Y0001925
X0034325Y-000295
X00326Y-0007275
X00295Y-00062
X00284Y-0003775
X0026175Y-0007825
X002615Y-001015
X0024425Y-0010675
X002165Y-00107
X0022075Y-0013925
X0019775Y-0012725
X001705Y-001395
X0014525Y-0013525
X00133499Y-001354
X001335Y-0012525
X001435Y-001135
X00179Y-00103
X001755Y-0007375
X0024575Y-0006425
X00220696Y-0003114
X00185749Y000516
X00184Y-001655
X00172Y-001925
X00205Y-00195
X0021275Y-0021775
X00242Y-002345
X002635Y-002425
X0026375Y-00266
X0024275Y-00292
X0020325Y-0028025
X00208Y-0031025
X0016725Y-0033175
X00121Y-003305
X00167Y-0027375
X0019375Y-00246
X002475Y-0020275
X0028225
X0029675Y-0017625
X0032575Y-0019225
X0034275Y-0021225
X0034325Y-0016675
X0032275Y-0013775
X003415Y-0010475
X00247Y-0015125
X002275Y-00174
X00146Y-0016375
X00099999Y-00127745
X00089999Y-00126
X000855Y-0013875
X0006525Y-0024175
X003265Y-00251
X0034275Y-0028975
X0032625Y-0032325
X002915Y-00315
X00263Y-0033325
X0001175Y-00315
X-00011Y-0028075
X-00037Y-003045
X-000385Y-0025075
X-0003775Y-002165
X-0001225Y-00217
X000035Y-0024025
X00036Y-0021625
X000205Y-002
X0000925Y-00167
X-00022Y-0015775
X-00032Y-0011225
X-0003Y-000915
X-00007Y-0008675
X00030499Y-000874
X00029999Y-0009615
X00025499Y-000784
X00034749Y-0007715
Y-000458
X00044999
X00026999Y-000379
X0004225Y-0002225
X0004Y0000625
X00019Y-0000875
X0000825Y000185
X-0000925Y0001825
X-000265Y0001925
X-0002675Y00038
X-00010001Y000381
X000075Y0003775
X0002575Y0003725
X-0005125Y000485
X-0006775Y00034
X-00068Y00006
X-0006675Y-0001625
X-00069501Y-000259
X-000685Y-000405
X-0005375Y-0004125
X-00034751Y-0004465
X-00027341Y-00036319
X-0004125Y-0002125
X-0002175Y-000095
X0000175Y-0003125
X-00045251Y-0007665
X-000635Y-0008675
X-0006825Y-0006125
X-0010275Y-0005475
X-00102126Y-00076775
X-00115Y-000685
X-00113Y-000945
X-0011075Y-0012175
X-00101251Y-00133749
X-00095825Y-00139627
X-000895Y-0014575
X-00083202Y-0015225
X-00088976Y-00164861
X-00083262Y-00170575
X-0007025Y-00168
X-0007175Y-0019075
X-0004675
X-0007025Y-0024325
Y-002795
X-000675Y-0032975
X-0010575Y-0030825
X-001445Y-0031675
X-00142Y-002795
X-00143Y-00228
X-0011375Y-0024325
X-0010775Y-00259
X-0010675Y-0020775
X-00098Y-0021575
X-00120654Y-00201596
X-00121691Y-0019277
X-00129808Y-00191692
X-00131Y-00183
X-0014025Y-0018375
X-00141067Y-00174683
X-001725Y-001885
X-0020775Y-0019925
X-002255Y-002245
X-002055Y-00240056
X-00209Y-0024725
X-0020375Y-0025375
X-002095Y-002605
X-002245Y-002745
X-002385Y-00287
X-0023675Y-0033375
X-00193Y-0034375
X-00167Y-0034225
X-001905Y-0031275
X-0017875Y-00261
X-001825Y-00144
X-0020225Y-001105
X-00226Y-00093
X-0022775Y-00069
X-00232Y-000595
X-0023325Y-000495
X-0023375Y-000405
X-00242Y-00038
X-00254Y-00031212
X-0024475Y-0002175
X-0022775Y-0000775
X-0025325Y0000975
X-0023925Y0003025
X-002205Y00046
X-00192Y0003375
X-001875Y0000525
X-0015425Y-0000075
X-00154314Y-00017266
X-00152814Y-0002525
X-00151996Y-00041403
X-00145496Y-00048989
X-00179Y-000565
X-0027425Y-0006175
X-0027225Y-00114
X-0031125Y-0009
X-00315Y-0003
X-0029375Y-0002325
X-00341Y00001
X-00316Y0003225
X-002675Y000495
X-00147592Y00043759
X-00138251Y0004085
X-00049063Y00015307
X-0005725Y-0011125
X-00086053Y-0012956
X00012Y-001205
X0003125Y-0014475
X0003225Y-002705
X-00281Y-002985
X-0034125Y-002935
X-0031575Y-0024775
X-003415Y-002065
X-0030975Y-0017125
X-002595Y-0016975
X-0022725Y-0016325
X-00342Y-0013
X-003435Y-00054
X-00314Y-003385
X-00342Y0006475
X-003385Y0010675
X-00301Y000905
X-00244Y0010775
X-00239Y0006925
X-00222151Y0005975
X-0021625Y0005325
X-0019925Y00073
X-00182751Y000891
X-00190251Y0009675
X-0019475Y0011
X-001575Y001125
X-00153991Y00094864
X-00148751Y000711
X-0015028Y00062321
X-00149405Y00053446
X-0006775Y000675
X-00062001Y0009885
X-0006725Y001155
X-00034251Y001141
X-00042Y0010375
X-000325Y0008075
X-000285Y00055
X-00011Y000555
X0000675Y0005525
X0000875Y00082
X-0001125Y00106
X0003575Y0010525
X00037Y0006175
X-0010175Y001125
X-00222Y0008475
X0004975Y00085
X00052999Y0011335
X0006475Y0010375
X00103029Y00103762
X0010925Y00115
X0012225Y00097
X00147749Y0009085
X00158082Y00090089
X0017375Y00092
X0019875Y0007225
X002295Y0007575
X00226Y001105
X00257Y0009175
X0031425Y0009125
X0034125Y0011275
X0034075Y0005475
X00111499Y00062331
X00109249Y000706
X001415Y001155
T02
X00157599Y0010985
X00170299Y0010885
X00182999Y0010985
X00195699Y0010885
X00208399Y0010985
T03
X-00114251Y-005649
X-00064251
X00139Y-0035925
Y-0030925
T04
X-002927Y-0036805
X-002673
X00066499Y-0020715
X00091499
X00116499
X00141499
X00166499
X00191499
X0029Y-00217525
Y-00242525
Y-00267525
Y-00292525
Y-00154762
Y-00129762
Y-00104762
Y-00079762
Y-00017
Y00008
Y00033
X-00000001Y-0020715
X-00025001
X-00050001
X-00075001
X-002673Y-002269
Y-002523
Y-002777
X-002927
Y-002523
Y-002269
X-0029Y-001714
Y-001464
Y-00081712
Y-00056712
Y00007975
Y00032975
X-002927Y-0031725
X-002673
Y-0034265
X-002927
X-0029Y00057975
X0029Y00058
T05
X-00283Y-005169
X-00228
Y-004274
X-00283
X00224499Y-004014
Y-003594
X00279499
Y-004014
X00277749Y-0047465
Y-0051665
X00222749
Y-0047465
M30
