G04*
G04 #@! TF.GenerationSoftware,Altium Limited,Altium Designer,21.8.1 (53)*
G04*
G04 Layer_Color=65535*
%FSLAX44Y44*%
%MOMM*%
G71*
G04*
G04 #@! TF.SameCoordinates,D16A5DDD-09C7-43D5-B036-B9B5DCE20735*
G04*
G04*
G04 #@! TF.FilePolarity,Positive*
G04*
G01*
G75*
%ADD10C,0.2500*%
%ADD11C,0.4000*%
%ADD12C,0.1000*%
%ADD13C,0.2000*%
%ADD14C,0.3000*%
%ADD15C,0.2540*%
%ADD16C,0.1270*%
%ADD17C,0.2032*%
%ADD18C,0.1500*%
G36*
X-126251Y-598570D02*
X-126251Y-531538D01*
X-127672Y-533323D01*
X-130251Y-537088D01*
X-132552Y-541029D01*
X-134564Y-545125D01*
X-136276Y-549355D01*
X-137679Y-553698D01*
X-138766Y-558130D01*
X-139531Y-562629D01*
X-139751Y-564900D01*
X-139751D01*
X-139694Y-567217D01*
X-139168Y-571822D01*
X-138234Y-576362D01*
X-136899Y-580801D01*
X-135174Y-585103D01*
X-133073Y-589235D01*
X-130611Y-593162D01*
X-127810Y-596856D01*
X-126251Y-598570D01*
D01*
D02*
G37*
G36*
X105330Y-297250D02*
X172362Y-297250D01*
X170577Y-295829D01*
X166812Y-293250D01*
X162871Y-290949D01*
X158775Y-288937D01*
X154544Y-287225D01*
X150202Y-285822D01*
X145770Y-284735D01*
X141271Y-283970D01*
X139000Y-283750D01*
X136683Y-283807D01*
X132078Y-284333D01*
X127538Y-285267D01*
X123099Y-286602D01*
X118797Y-288327D01*
X114665Y-290428D01*
X110737Y-292889D01*
X107044Y-295691D01*
X105330Y-297250D01*
Y-297250D01*
D02*
G37*
G36*
X-32839Y-240067D02*
X-32617Y-240150D01*
X-32394Y-240317D01*
X-32367D01*
X-32339Y-240372D01*
X-32228Y-240483D01*
X-32117Y-240705D01*
X-32061Y-240844D01*
Y-241010D01*
Y-255391D01*
Y-255419D01*
Y-255475D01*
Y-255558D01*
X-32089Y-255697D01*
Y-255835D01*
X-32117Y-256030D01*
X-32228Y-256446D01*
X-32367Y-256918D01*
X-32617Y-257446D01*
X-32922Y-257973D01*
X-33144Y-258223D01*
X-33366Y-258473D01*
X-33394D01*
X-33422Y-258528D01*
X-33505Y-258584D01*
X-33588Y-258667D01*
X-33866Y-258889D01*
X-34227Y-259111D01*
X-34699Y-259334D01*
X-35226Y-259556D01*
X-35837Y-259694D01*
X-36170Y-259722D01*
X-36503Y-259750D01*
X-38030D01*
X-38141Y-259722D01*
X-38308D01*
X-38474Y-259694D01*
X-38891Y-259583D01*
X-39363Y-259445D01*
X-39862Y-259223D01*
X-40390Y-258917D01*
X-40668Y-258723D01*
X-40917Y-258501D01*
X-40945Y-258473D01*
X-40973Y-258445D01*
X-41028Y-258362D01*
X-41112Y-258279D01*
X-41334Y-258001D01*
X-41584Y-257640D01*
X-41834Y-257168D01*
X-42028Y-256641D01*
X-42194Y-256058D01*
X-42222Y-255725D01*
X-42250Y-255391D01*
Y-241010D01*
Y-240983D01*
Y-240955D01*
X-42222Y-240816D01*
X-42139Y-240594D01*
X-41972Y-240372D01*
Y-240344D01*
X-41917Y-240317D01*
X-41778Y-240205D01*
X-41584Y-240094D01*
X-41445Y-240039D01*
X-41251D01*
X-41084Y-240067D01*
X-40862Y-240150D01*
X-40640Y-240317D01*
X-40612D01*
X-40584Y-240372D01*
X-40473Y-240483D01*
X-40362Y-240705D01*
X-40307Y-240844D01*
Y-241010D01*
Y-255391D01*
Y-255447D01*
Y-255558D01*
X-40279Y-255752D01*
X-40223Y-255974D01*
X-40140Y-256252D01*
X-40001Y-256530D01*
X-39835Y-256835D01*
X-39585Y-257113D01*
X-39557Y-257140D01*
X-39446Y-257224D01*
X-39307Y-257335D01*
X-39085Y-257474D01*
X-38835Y-257612D01*
X-38530Y-257723D01*
X-38224Y-257807D01*
X-37864Y-257834D01*
X-36337D01*
X-36142Y-257807D01*
X-35920Y-257751D01*
X-35643Y-257668D01*
X-35337Y-257529D01*
X-35032Y-257362D01*
X-34754Y-257140D01*
X-34726Y-257113D01*
X-34643Y-257001D01*
X-34504Y-256863D01*
X-34365Y-256668D01*
X-34255Y-256418D01*
X-34116Y-256113D01*
X-34032Y-255780D01*
X-34005Y-255391D01*
Y-241010D01*
Y-240983D01*
Y-240955D01*
X-33977Y-240816D01*
X-33894Y-240594D01*
X-33727Y-240372D01*
Y-240344D01*
X-33672Y-240317D01*
X-33533Y-240205D01*
X-33338Y-240094D01*
X-33200Y-240039D01*
X-33005D01*
X-32839Y-240067D01*
D02*
G37*
G36*
X5556D02*
X5779Y-240178D01*
X5917Y-240233D01*
X6029Y-240344D01*
X6056D01*
X6084Y-240400D01*
X6195Y-240539D01*
X6278Y-240761D01*
X6334Y-240872D01*
Y-241010D01*
Y-241038D01*
Y-241066D01*
X6306Y-241205D01*
X6223Y-241427D01*
X6056Y-241649D01*
X6001Y-241705D01*
X5862Y-241788D01*
X5640Y-241899D01*
X5501Y-241927D01*
X5334Y-241954D01*
X2225D01*
Y-258806D01*
Y-258834D01*
Y-258889D01*
X2197Y-259056D01*
X2114Y-259278D01*
X1947Y-259500D01*
X1892Y-259528D01*
X1753Y-259611D01*
X1503Y-259722D01*
X1226Y-259750D01*
X1198D01*
X1087Y-259722D01*
X892Y-259667D01*
X615Y-259583D01*
X559Y-259528D01*
X448Y-259389D01*
X337Y-259139D01*
X309Y-258973D01*
X282Y-258806D01*
Y-241954D01*
X-2966D01*
X-3133Y-241927D01*
X-3355Y-241843D01*
X-3577Y-241705D01*
Y-241677D01*
X-3605Y-241649D01*
X-3688Y-241510D01*
X-3799Y-241288D01*
X-3827Y-241010D01*
Y-240983D01*
X-3799Y-240844D01*
X-3744Y-240677D01*
X-3605Y-240427D01*
Y-240400D01*
X-3550Y-240372D01*
X-3438Y-240233D01*
X-3216Y-240094D01*
X-3050Y-240067D01*
X-2883Y-240039D01*
X5390D01*
X5556Y-240067D01*
D02*
G37*
G36*
X-10129D02*
X-9963D01*
X-9796Y-240094D01*
X-9380Y-240205D01*
X-8880Y-240344D01*
X-8352Y-240594D01*
X-7825Y-240900D01*
X-7575Y-241122D01*
X-7325Y-241344D01*
X-7297Y-241371D01*
X-7270Y-241399D01*
X-7103Y-241566D01*
X-6909Y-241843D01*
X-6659Y-242204D01*
X-6409Y-242649D01*
X-6187Y-243176D01*
X-6048Y-243787D01*
X-6020Y-244092D01*
X-5993Y-244425D01*
Y-247174D01*
Y-247201D01*
Y-247257D01*
Y-247340D01*
X-6020Y-247479D01*
Y-247618D01*
X-6048Y-247812D01*
X-6159Y-248229D01*
X-6298Y-248728D01*
X-6548Y-249228D01*
X-6853Y-249756D01*
X-7075Y-250005D01*
X-7297Y-250255D01*
X-7325D01*
X-7353Y-250311D01*
X-7436Y-250366D01*
X-7520Y-250450D01*
X-7797Y-250672D01*
X-8158Y-250894D01*
X-8630Y-251116D01*
X-9158Y-251338D01*
X-9768Y-251477D01*
X-10101Y-251505D01*
X-10434Y-251532D01*
X-10296D01*
X-6104Y-258390D01*
X-6076Y-258417D01*
X-6048Y-258501D01*
X-6020Y-258640D01*
X-5993Y-258834D01*
Y-258862D01*
Y-258889D01*
X-6020Y-259056D01*
X-6131Y-259278D01*
X-6215Y-259389D01*
X-6326Y-259528D01*
X-6381Y-259556D01*
X-6520Y-259639D01*
X-6742Y-259722D01*
X-7020Y-259750D01*
X-7159D01*
X-7325Y-259722D01*
X-7492Y-259667D01*
X-7520Y-259639D01*
X-7603Y-259556D01*
X-7714Y-259445D01*
X-7853Y-259250D01*
X-12350Y-251532D01*
X-14238D01*
Y-258806D01*
Y-258834D01*
Y-258889D01*
X-14266Y-259056D01*
X-14349Y-259278D01*
X-14516Y-259500D01*
X-14571Y-259528D01*
X-14710Y-259611D01*
X-14960Y-259722D01*
X-15237Y-259750D01*
X-15265D01*
X-15376Y-259722D01*
X-15570Y-259667D01*
X-15848Y-259583D01*
X-15904Y-259528D01*
X-16015Y-259389D01*
X-16126Y-259139D01*
X-16154Y-258973D01*
X-16181Y-258806D01*
Y-241010D01*
Y-240955D01*
X-16154Y-240844D01*
X-16126Y-240705D01*
X-16070Y-240511D01*
X-15959Y-240344D01*
X-15793Y-240178D01*
X-15543Y-240067D01*
X-15237Y-240039D01*
X-10268D01*
X-10129Y-240067D01*
D02*
G37*
G36*
X-23927Y-240094D02*
X-23788Y-240178D01*
X-23622Y-240261D01*
X-23483Y-240400D01*
X-23344Y-240594D01*
X-23233Y-240872D01*
X-18430Y-258584D01*
X-18402Y-258806D01*
Y-258834D01*
Y-258862D01*
X-18430Y-259028D01*
X-18541Y-259250D01*
X-18597Y-259361D01*
X-18708Y-259500D01*
X-18763Y-259528D01*
X-18902Y-259611D01*
X-19124Y-259722D01*
X-19402Y-259750D01*
X-19457D01*
X-19596Y-259722D01*
X-19763Y-259667D01*
X-19957Y-259583D01*
X-19985Y-259556D01*
X-20096Y-259472D01*
X-20207Y-259334D01*
X-20290Y-259139D01*
X-21595Y-254281D01*
X-26731D01*
X-28008Y-258973D01*
Y-259000D01*
Y-259028D01*
X-28063Y-259195D01*
X-28175Y-259389D01*
X-28341Y-259556D01*
X-28397Y-259583D01*
X-28508Y-259639D01*
X-28702Y-259722D01*
X-28952Y-259750D01*
X-29007D01*
X-29174Y-259722D01*
X-29396Y-259639D01*
X-29646Y-259500D01*
X-29701Y-259445D01*
X-29785Y-259306D01*
X-29868Y-259056D01*
X-29924Y-258751D01*
X-29896Y-258584D01*
X-25093Y-240872D01*
Y-240844D01*
X-25037Y-240733D01*
X-24982Y-240622D01*
X-24899Y-240455D01*
X-24760Y-240317D01*
X-24621Y-240178D01*
X-24427Y-240094D01*
X-24177Y-240067D01*
X-24066D01*
X-23927Y-240094D01*
D02*
G37*
G36*
X130352Y-239317D02*
X130602Y-239344D01*
X130880Y-239400D01*
X131185Y-239483D01*
X131518Y-239566D01*
X131574D01*
X131685Y-239622D01*
X131852Y-239678D01*
X132074Y-239761D01*
X132324Y-239844D01*
X132601Y-239983D01*
X133156Y-240288D01*
X133184Y-240316D01*
X133240Y-240344D01*
X133323Y-240427D01*
X133406Y-240538D01*
X133434Y-240566D01*
X133490Y-240677D01*
X133573Y-240844D01*
X133628Y-241066D01*
Y-241093D01*
Y-241121D01*
X133601Y-241288D01*
X133490Y-241538D01*
X133434Y-241649D01*
X133323Y-241787D01*
X133267Y-241843D01*
X133129Y-241926D01*
X132879Y-242037D01*
X132740Y-242065D01*
X132573Y-242093D01*
X132101Y-241926D01*
X132046Y-241898D01*
X131935Y-241815D01*
X131713Y-241704D01*
X131435Y-241565D01*
X131102Y-241427D01*
X130713Y-241315D01*
X130297Y-241232D01*
X129853Y-241204D01*
X127660D01*
X127465Y-241232D01*
X127215Y-241288D01*
X126938Y-241399D01*
X126632Y-241510D01*
X126355Y-241704D01*
X126077Y-241954D01*
X126049Y-241982D01*
X125966Y-242093D01*
X125855Y-242232D01*
X125744Y-242454D01*
X125633Y-242704D01*
X125522Y-243009D01*
X125439Y-243342D01*
X125411Y-243731D01*
X125439Y-244175D01*
X125494Y-244425D01*
X125550Y-244619D01*
Y-244647D01*
X125577Y-244675D01*
X125688Y-244841D01*
X125855Y-245091D01*
X126133Y-245424D01*
X132324Y-251726D01*
X132351Y-251754D01*
X132407Y-251810D01*
X132518Y-251921D01*
X132657Y-252059D01*
X132796Y-252254D01*
X132934Y-252476D01*
X133073Y-252726D01*
X133212Y-253003D01*
X133323Y-253309D01*
X133490Y-253892D01*
X133545Y-254225D01*
Y-254641D01*
Y-254669D01*
Y-254725D01*
Y-254808D01*
X133517Y-254947D01*
X133490Y-255086D01*
X133462Y-255252D01*
X133379Y-255696D01*
X133212Y-256168D01*
X132962Y-256696D01*
X132796Y-256946D01*
X132601Y-257223D01*
X132379Y-257501D01*
X132129Y-257751D01*
X132074Y-257806D01*
X131935Y-257945D01*
X131685Y-258139D01*
X131352Y-258361D01*
X130935Y-258611D01*
X130408Y-258806D01*
X129825Y-258944D01*
X129492Y-258972D01*
X129131Y-259000D01*
X126966D01*
X126827Y-258972D01*
X126660D01*
X126494Y-258944D01*
X126049Y-258861D01*
X125550Y-258750D01*
X124994Y-258556D01*
X124411Y-258306D01*
X123856Y-257973D01*
X123551Y-257640D01*
X123468Y-257251D01*
Y-257223D01*
Y-257195D01*
X123495Y-257029D01*
X123579Y-256835D01*
X123717Y-256585D01*
Y-256557D01*
X123773Y-256529D01*
X123912Y-256390D01*
X124134Y-256279D01*
X124273Y-256252D01*
X124411Y-256224D01*
X124883Y-256390D01*
X124939Y-256418D01*
X125078Y-256501D01*
X125272Y-256612D01*
X125550Y-256723D01*
X125883Y-256862D01*
X126271Y-256973D01*
X126688Y-257057D01*
X127104Y-257084D01*
X129270D01*
X129464Y-257057D01*
X129686Y-257001D01*
X129964Y-256918D01*
X130269Y-256779D01*
X130575Y-256612D01*
X130852Y-256363D01*
X130880Y-256335D01*
X130963Y-256224D01*
X131102Y-256085D01*
X131241Y-255863D01*
X131352Y-255613D01*
X131491Y-255308D01*
X131574Y-255002D01*
X131602Y-254641D01*
X131546Y-254197D01*
Y-254169D01*
Y-254142D01*
X131491Y-254003D01*
Y-253975D01*
X131463Y-253920D01*
X131407Y-253781D01*
Y-253753D01*
X131380Y-253697D01*
X131352Y-253614D01*
X131296Y-253503D01*
X131102Y-253225D01*
X130852Y-252892D01*
X124745Y-246785D01*
X124717Y-246757D01*
X124661Y-246701D01*
X124550Y-246562D01*
X124439Y-246424D01*
X124300Y-246202D01*
X124134Y-245952D01*
X123939Y-245674D01*
X123773Y-245341D01*
Y-245313D01*
X123717Y-245202D01*
X123690Y-245036D01*
X123634Y-244841D01*
X123579Y-244591D01*
X123523Y-244314D01*
X123495Y-244008D01*
X123468Y-243675D01*
Y-243647D01*
Y-243592D01*
Y-243509D01*
X123495Y-243370D01*
X123523Y-243231D01*
X123551Y-243037D01*
X123634Y-242620D01*
X123801Y-242148D01*
X124078Y-241621D01*
X124217Y-241371D01*
X124411Y-241093D01*
X124634Y-240816D01*
X124883Y-240566D01*
Y-240538D01*
X124939Y-240510D01*
X125078Y-240372D01*
X125328Y-240149D01*
X125661Y-239927D01*
X126077Y-239705D01*
X126577Y-239483D01*
X127188Y-239344D01*
X127493Y-239289D01*
X130130D01*
X130352Y-239317D01*
D02*
G37*
G36*
X177576D02*
X177743D01*
X177909Y-239344D01*
X178326Y-239455D01*
X178825Y-239594D01*
X179353Y-239844D01*
X179880Y-240149D01*
X180130Y-240372D01*
X180380Y-240594D01*
X180408Y-240621D01*
X180436Y-240649D01*
X180602Y-240816D01*
X180796Y-241093D01*
X181046Y-241454D01*
X181296Y-241898D01*
X181518Y-242426D01*
X181657Y-243037D01*
X181685Y-243342D01*
X181713Y-243675D01*
Y-254641D01*
Y-254669D01*
Y-254725D01*
Y-254808D01*
X181685Y-254947D01*
Y-255086D01*
X181657Y-255280D01*
X181546Y-255696D01*
X181407Y-256168D01*
X181157Y-256696D01*
X180852Y-257223D01*
X180630Y-257473D01*
X180408Y-257723D01*
X180380D01*
X180352Y-257778D01*
X180269Y-257834D01*
X180186Y-257917D01*
X179908Y-258139D01*
X179547Y-258361D01*
X179075Y-258584D01*
X178548Y-258806D01*
X177937Y-258944D01*
X177604Y-258972D01*
X177271Y-259000D01*
X175744D01*
X175633Y-258972D01*
X175466D01*
X175299Y-258944D01*
X174883Y-258833D01*
X174411Y-258695D01*
X173911Y-258472D01*
X173384Y-258167D01*
X173106Y-257973D01*
X172856Y-257751D01*
X172829Y-257723D01*
X172801Y-257695D01*
X172745Y-257612D01*
X172662Y-257529D01*
X172440Y-257251D01*
X172190Y-256890D01*
X171940Y-256418D01*
X171746Y-255891D01*
X171579Y-255308D01*
X171552Y-254974D01*
X171524Y-254641D01*
Y-243675D01*
Y-243647D01*
Y-243592D01*
Y-243509D01*
X171552Y-243370D01*
Y-243231D01*
X171579Y-243064D01*
X171690Y-242648D01*
X171829Y-242148D01*
X172051Y-241649D01*
X172357Y-241121D01*
X172551Y-240871D01*
X172773Y-240621D01*
X172801Y-240594D01*
X172829Y-240566D01*
X172912Y-240510D01*
X172995Y-240399D01*
X173273Y-240205D01*
X173634Y-239955D01*
X174106Y-239705D01*
X174633Y-239483D01*
X175244Y-239344D01*
X175577Y-239317D01*
X175910Y-239289D01*
X177437D01*
X177576Y-239317D01*
D02*
G37*
G36*
X165222D02*
X165388D01*
X165555Y-239344D01*
X165971Y-239455D01*
X166471Y-239594D01*
X166999Y-239844D01*
X167526Y-240149D01*
X167776Y-240372D01*
X168026Y-240594D01*
X168054Y-240621D01*
X168081Y-240649D01*
X168248Y-240816D01*
X168442Y-241093D01*
X168692Y-241454D01*
X168942Y-241898D01*
X169164Y-242426D01*
X169303Y-243037D01*
X169331Y-243342D01*
X169358Y-243675D01*
Y-254641D01*
Y-254669D01*
Y-254725D01*
Y-254808D01*
X169331Y-254947D01*
Y-255086D01*
X169303Y-255280D01*
X169192Y-255696D01*
X169053Y-256168D01*
X168803Y-256696D01*
X168498Y-257223D01*
X168276Y-257473D01*
X168054Y-257723D01*
X168026D01*
X167998Y-257778D01*
X167915Y-257834D01*
X167831Y-257917D01*
X167554Y-258139D01*
X167193Y-258361D01*
X166721Y-258584D01*
X166194Y-258806D01*
X165583Y-258944D01*
X165250Y-258972D01*
X164916Y-259000D01*
X163389D01*
X163279Y-258972D01*
X163112D01*
X162945Y-258944D01*
X162529Y-258833D01*
X162057Y-258695D01*
X161557Y-258472D01*
X161030Y-258167D01*
X160752Y-257973D01*
X160502Y-257751D01*
X160474Y-257723D01*
X160447Y-257695D01*
X160391Y-257612D01*
X160308Y-257529D01*
X160086Y-257251D01*
X159836Y-256890D01*
X159586Y-256418D01*
X159392Y-255891D01*
X159225Y-255308D01*
X159197Y-254974D01*
X159170Y-254641D01*
Y-243675D01*
Y-243647D01*
Y-243592D01*
Y-243509D01*
X159197Y-243370D01*
Y-243231D01*
X159225Y-243064D01*
X159336Y-242648D01*
X159475Y-242148D01*
X159697Y-241649D01*
X160002Y-241121D01*
X160197Y-240871D01*
X160419Y-240621D01*
X160447Y-240594D01*
X160474Y-240566D01*
X160558Y-240510D01*
X160641Y-240399D01*
X160919Y-240205D01*
X161280Y-239955D01*
X161751Y-239705D01*
X162279Y-239483D01*
X162890Y-239344D01*
X163223Y-239317D01*
X163556Y-239289D01*
X165083D01*
X165222Y-239317D01*
D02*
G37*
G36*
X153534D02*
X153728Y-239428D01*
X153839Y-239511D01*
X153950Y-239622D01*
X154006Y-239678D01*
X154089Y-239816D01*
X154172Y-240038D01*
X154228Y-240288D01*
Y-240316D01*
X154200Y-240427D01*
X154172Y-240594D01*
X154089Y-240760D01*
X154061Y-240788D01*
X153978Y-240871D01*
X153839Y-241010D01*
X153617Y-241177D01*
X153340Y-241260D01*
X153034Y-241399D01*
X152535Y-241676D01*
X152507D01*
X152451Y-241732D01*
X152340Y-241787D01*
X152201Y-241871D01*
X151868Y-242121D01*
X151507Y-242398D01*
X151480Y-242426D01*
X151369Y-242509D01*
X151202Y-242648D01*
X151008Y-242842D01*
X150758Y-243120D01*
X150508Y-243425D01*
X150230Y-243786D01*
X149925Y-244203D01*
X149897Y-244230D01*
X149842Y-244342D01*
X149758Y-244480D01*
X149647Y-244702D01*
X149536Y-244952D01*
X149397Y-245258D01*
X149259Y-245591D01*
X149120Y-245952D01*
X149092Y-246007D01*
X149064Y-246118D01*
X149009Y-246285D01*
X148953Y-246507D01*
X148814Y-247007D01*
X148787Y-247257D01*
X148759Y-247479D01*
X152729D01*
X152840Y-247506D01*
X153006D01*
X153201Y-247534D01*
X153617Y-247645D01*
X154117Y-247784D01*
X154644Y-248034D01*
X155172Y-248339D01*
X155422Y-248561D01*
X155672Y-248783D01*
X155699Y-248811D01*
X155727Y-248839D01*
X155783Y-248922D01*
X155866Y-249006D01*
X156088Y-249283D01*
X156338Y-249644D01*
X156560Y-250116D01*
X156782Y-250644D01*
X156921Y-251227D01*
X156976Y-251560D01*
Y-251893D01*
Y-254614D01*
Y-254641D01*
Y-254697D01*
Y-254780D01*
X156949Y-254919D01*
Y-255086D01*
X156921Y-255252D01*
X156810Y-255696D01*
X156671Y-256168D01*
X156421Y-256696D01*
X156116Y-257223D01*
X155894Y-257473D01*
X155672Y-257723D01*
X155644D01*
X155616Y-257778D01*
X155533Y-257834D01*
X155449Y-257917D01*
X155172Y-258139D01*
X154811Y-258361D01*
X154339Y-258584D01*
X153812Y-258806D01*
X153229Y-258944D01*
X152895Y-258972D01*
X152562Y-259000D01*
X151008D01*
X150897Y-258972D01*
X150563Y-258944D01*
X150175Y-258833D01*
X149703Y-258695D01*
X149203Y-258472D01*
X148675Y-258167D01*
X148398Y-257973D01*
X148148Y-257751D01*
X148120Y-257723D01*
X148092Y-257695D01*
X148037Y-257612D01*
X147954Y-257529D01*
X147732Y-257251D01*
X147482Y-256890D01*
X147232Y-256418D01*
X147038Y-255891D01*
X146871Y-255308D01*
X146843Y-254974D01*
X146816Y-254641D01*
Y-248561D01*
Y-248534D01*
Y-248423D01*
Y-248284D01*
X146843Y-248062D01*
X146871Y-247812D01*
X146899Y-247506D01*
X146954Y-247146D01*
X147010Y-246785D01*
X147093Y-246368D01*
X147176Y-245952D01*
X147454Y-245036D01*
X147621Y-244591D01*
X147815Y-244119D01*
X148065Y-243647D01*
X148315Y-243176D01*
X148342Y-243148D01*
X148398Y-243064D01*
X148481Y-242926D01*
X148620Y-242731D01*
X148787Y-242537D01*
X148981Y-242287D01*
X149231Y-242010D01*
X149508Y-241704D01*
X149814Y-241399D01*
X150147Y-241093D01*
X150536Y-240760D01*
X150952Y-240455D01*
X151369Y-240149D01*
X151868Y-239872D01*
X152368Y-239594D01*
X152895Y-239372D01*
X153284Y-239289D01*
X153367D01*
X153534Y-239317D01*
D02*
G37*
G36*
X143845D02*
X144067Y-239428D01*
X144178Y-239483D01*
X144289Y-239594D01*
X144317D01*
X144345Y-239650D01*
X144456Y-239788D01*
X144567Y-240011D01*
X144622Y-240122D01*
Y-240261D01*
Y-240288D01*
Y-240316D01*
X144594Y-240455D01*
X144511Y-240677D01*
X144345Y-240899D01*
X144289Y-240955D01*
X144150Y-241038D01*
X143928Y-241149D01*
X143789Y-241177D01*
X143623Y-241204D01*
X137765D01*
Y-247534D01*
X140375D01*
X140513Y-247562D01*
X140680D01*
X140847Y-247590D01*
X141263Y-247701D01*
X141763Y-247840D01*
X142290Y-248089D01*
X142818Y-248395D01*
X143068Y-248617D01*
X143317Y-248839D01*
X143345Y-248867D01*
X143373Y-248895D01*
X143512Y-249061D01*
X143734Y-249339D01*
X143984Y-249700D01*
X144206Y-250144D01*
X144428Y-250671D01*
X144567Y-251282D01*
X144622Y-251588D01*
Y-251921D01*
Y-254641D01*
Y-254669D01*
Y-254725D01*
Y-254808D01*
X144594Y-254947D01*
Y-255086D01*
X144567Y-255280D01*
X144456Y-255696D01*
X144317Y-256168D01*
X144067Y-256696D01*
X143762Y-257223D01*
X143539Y-257473D01*
X143317Y-257723D01*
X143290D01*
X143262Y-257778D01*
X143179Y-257834D01*
X143095Y-257917D01*
X142818Y-258139D01*
X142457Y-258361D01*
X141985Y-258584D01*
X141457Y-258806D01*
X140874Y-258944D01*
X140541Y-258972D01*
X140208Y-259000D01*
X136682D01*
X136516Y-258972D01*
X136294Y-258889D01*
X136072Y-258750D01*
Y-258722D01*
X136044Y-258695D01*
X135961Y-258556D01*
X135849Y-258334D01*
X135822Y-258056D01*
Y-258028D01*
X135849Y-257889D01*
X135905Y-257723D01*
X136044Y-257473D01*
Y-257445D01*
X136099Y-257418D01*
X136210Y-257279D01*
X136432Y-257140D01*
X136599Y-257112D01*
X136766Y-257084D01*
X140375D01*
X140569Y-257057D01*
X140819Y-257001D01*
X141096Y-256918D01*
X141374Y-256779D01*
X141679Y-256612D01*
X141957Y-256390D01*
X141985Y-256363D01*
X142068Y-256252D01*
X142179Y-256113D01*
X142318Y-255891D01*
X142457Y-255641D01*
X142568Y-255335D01*
X142651Y-255002D01*
X142679Y-254641D01*
Y-251893D01*
Y-251837D01*
Y-251726D01*
X142651Y-251532D01*
X142596Y-251310D01*
X142512Y-251032D01*
X142374Y-250755D01*
X142207Y-250449D01*
X141957Y-250172D01*
X141929Y-250144D01*
X141818Y-250061D01*
X141679Y-249949D01*
X141457Y-249811D01*
X141208Y-249672D01*
X140902Y-249561D01*
X140569Y-249478D01*
X140208Y-249450D01*
X136738D01*
X136627Y-249422D01*
X136460Y-249394D01*
X136294Y-249339D01*
X136127Y-249228D01*
X135961Y-249061D01*
X135849Y-248811D01*
X135822Y-248506D01*
Y-240261D01*
Y-240205D01*
X135849Y-240094D01*
X135877Y-239955D01*
X135933Y-239761D01*
X136044Y-239594D01*
X136210Y-239428D01*
X136460Y-239317D01*
X136766Y-239289D01*
X143678D01*
X143845Y-239317D01*
D02*
G37*
G36*
X115722Y-239344D02*
X115861Y-239428D01*
X116027Y-239511D01*
X116166Y-239650D01*
X116305Y-239844D01*
X116416Y-240122D01*
X121219Y-257834D01*
X121247Y-258056D01*
Y-258084D01*
Y-258112D01*
X121219Y-258278D01*
X121108Y-258500D01*
X121052Y-258611D01*
X120941Y-258750D01*
X120886Y-258778D01*
X120747Y-258861D01*
X120525Y-258972D01*
X120247Y-259000D01*
X120191D01*
X120053Y-258972D01*
X119886Y-258917D01*
X119692Y-258833D01*
X119664Y-258806D01*
X119553Y-258722D01*
X119442Y-258584D01*
X119359Y-258389D01*
X118054Y-253531D01*
X112918D01*
X111641Y-258223D01*
Y-258250D01*
Y-258278D01*
X111585Y-258445D01*
X111474Y-258639D01*
X111308Y-258806D01*
X111252Y-258833D01*
X111141Y-258889D01*
X110947Y-258972D01*
X110697Y-259000D01*
X110641D01*
X110475Y-258972D01*
X110253Y-258889D01*
X110003Y-258750D01*
X109947Y-258695D01*
X109864Y-258556D01*
X109781Y-258306D01*
X109725Y-258001D01*
X109753Y-257834D01*
X114556Y-240122D01*
Y-240094D01*
X114611Y-239983D01*
X114667Y-239872D01*
X114750Y-239705D01*
X114889Y-239566D01*
X115028Y-239428D01*
X115222Y-239344D01*
X115472Y-239317D01*
X115583D01*
X115722Y-239344D01*
D02*
G37*
G36*
X190407Y-398387D02*
X190667Y-398451D01*
X191315Y-398646D01*
X191639Y-398905D01*
X192027Y-399164D01*
X192092Y-399229D01*
X192157Y-399294D01*
X192351Y-399488D01*
X192481Y-399747D01*
X192675Y-400071D01*
X192870Y-400460D01*
X192934Y-400914D01*
X192999Y-401432D01*
Y-401691D01*
X192934Y-401950D01*
X192870Y-402210D01*
X192675Y-402987D01*
X192481Y-403311D01*
X192222Y-403635D01*
X192157Y-403700D01*
X192027Y-403765D01*
X191833Y-403894D01*
X191574Y-404024D01*
X190861Y-404348D01*
X190472Y-404413D01*
X190019Y-404477D01*
X189954D01*
X189889D01*
X189500Y-404413D01*
X188917Y-404154D01*
X188528Y-404024D01*
X188140Y-403765D01*
X188075Y-403700D01*
X187945Y-403635D01*
X187751Y-403441D01*
X187556Y-403181D01*
X187362Y-402858D01*
X187168Y-402469D01*
X187038Y-401950D01*
X186973Y-401432D01*
Y-401238D01*
X187038Y-400979D01*
X187103Y-400719D01*
X187232Y-400395D01*
X187362Y-400007D01*
X187621Y-399683D01*
X187945Y-399294D01*
X188010Y-399229D01*
X188075Y-399164D01*
X188269Y-398970D01*
X188528Y-398775D01*
X189176Y-398451D01*
X189565Y-398387D01*
X190019Y-398322D01*
X190084D01*
X190213D01*
X190407Y-398387D01*
D02*
G37*
G36*
X188657Y-513637D02*
X188917Y-513702D01*
X189565Y-513896D01*
X189889Y-514155D01*
X190277Y-514414D01*
X190342Y-514479D01*
X190407Y-514544D01*
X190601Y-514738D01*
X190731Y-514997D01*
X190925Y-515321D01*
X191120Y-515710D01*
X191185Y-516164D01*
X191249Y-516682D01*
Y-516941D01*
X191185Y-517200D01*
X191120Y-517460D01*
X190925Y-518237D01*
X190731Y-518561D01*
X190472Y-518885D01*
X190407Y-518950D01*
X190277Y-519015D01*
X190083Y-519144D01*
X189824Y-519274D01*
X189111Y-519598D01*
X188722Y-519663D01*
X188269Y-519728D01*
X188204D01*
X188139D01*
X187750Y-519663D01*
X187167Y-519403D01*
X186778Y-519274D01*
X186390Y-519015D01*
X186325Y-518950D01*
X186195Y-518885D01*
X186001Y-518691D01*
X185807Y-518432D01*
X185612Y-518108D01*
X185418Y-517719D01*
X185288Y-517200D01*
X185223Y-516682D01*
Y-516488D01*
X185288Y-516228D01*
X185353Y-515969D01*
X185483Y-515645D01*
X185612Y-515257D01*
X185871Y-514933D01*
X186195Y-514544D01*
X186260Y-514479D01*
X186325Y-514414D01*
X186519Y-514220D01*
X186778Y-514025D01*
X187426Y-513702D01*
X187815Y-513637D01*
X188269Y-513572D01*
X188333D01*
X188463D01*
X188657Y-513637D01*
D02*
G37*
G36*
X316983Y-473354D02*
X334695Y-478157D01*
X334723D01*
X334806Y-478212D01*
X334945Y-478268D01*
X335084Y-478351D01*
X335250Y-478490D01*
X335361Y-478656D01*
X335472Y-478851D01*
X335500Y-479100D01*
Y-479212D01*
X335444Y-479323D01*
X335389Y-479461D01*
X335306Y-479628D01*
X335167Y-479767D01*
X334972Y-479906D01*
X334695Y-480017D01*
X316983Y-484819D01*
X316761Y-484847D01*
X316733D01*
X316705D01*
X316538Y-484819D01*
X316316Y-484736D01*
X316094Y-484570D01*
X316066D01*
X316039Y-484514D01*
X315928Y-484375D01*
X315844Y-484153D01*
X315789Y-484014D01*
Y-483820D01*
X315817Y-483709D01*
X315844Y-483570D01*
X315955Y-483404D01*
X315983Y-483348D01*
X316066Y-483265D01*
X316233Y-483098D01*
X316344Y-483043D01*
X316483Y-482959D01*
X331530Y-479073D01*
X316566Y-475242D01*
X316538D01*
X316511D01*
X316372Y-475186D01*
X316205Y-475075D01*
X316039Y-474936D01*
X316011Y-474881D01*
X315928Y-474770D01*
X315844Y-474575D01*
X315789Y-474325D01*
Y-474270D01*
X315817Y-474103D01*
X315900Y-473881D01*
X316066Y-473631D01*
Y-473604D01*
X316122Y-473576D01*
X316233Y-473465D01*
X316455Y-473381D01*
X316594Y-473326D01*
X316761D01*
X316983Y-473354D01*
D02*
G37*
G36*
X330642Y-487013D02*
X330864Y-487096D01*
X331086Y-487262D01*
X331141Y-487318D01*
X331225Y-487457D01*
X331336Y-487679D01*
X331363Y-487818D01*
X331391Y-487984D01*
Y-489733D01*
X334556D01*
X334584D01*
X334639D01*
X334806Y-489761D01*
X335028Y-489844D01*
X335250Y-490011D01*
X335278Y-490066D01*
X335361Y-490205D01*
X335472Y-490455D01*
X335500Y-490733D01*
Y-490760D01*
X335472Y-490872D01*
X335417Y-491066D01*
X335333Y-491343D01*
X335278Y-491399D01*
X335139Y-491510D01*
X334889Y-491621D01*
X334723Y-491649D01*
X334556Y-491677D01*
X331391D01*
Y-496285D01*
X331363Y-496480D01*
X331280Y-496702D01*
X331141Y-496924D01*
X331086Y-496951D01*
X330947Y-497035D01*
X330725Y-497146D01*
X330447Y-497174D01*
X330281D01*
X316622Y-494425D01*
X316594D01*
X316538Y-494397D01*
X316372Y-494370D01*
X316178Y-494259D01*
X315983Y-494064D01*
X315789Y-493537D01*
Y-493370D01*
X315817Y-493287D01*
X315900Y-493037D01*
X316066Y-492787D01*
Y-492759D01*
X316122Y-492732D01*
X316261Y-492621D01*
X316455Y-492537D01*
X316594Y-492482D01*
X316733D01*
X316927Y-492510D01*
X329476Y-495064D01*
Y-491677D01*
X326339D01*
X326311D01*
X326283D01*
X326144Y-491649D01*
X325922Y-491566D01*
X325700Y-491399D01*
X325672D01*
X325644Y-491343D01*
X325533Y-491205D01*
X325422Y-491010D01*
X325367Y-490872D01*
Y-490677D01*
X325395Y-490511D01*
X325478Y-490289D01*
X325644Y-490066D01*
Y-490039D01*
X325700Y-490011D01*
X325811Y-489900D01*
X326033Y-489789D01*
X326172Y-489733D01*
X326339D01*
X329476D01*
Y-487929D01*
X329503Y-487762D01*
X329614Y-487540D01*
X329670Y-487401D01*
X329781Y-487290D01*
Y-487262D01*
X329837Y-487235D01*
X329975Y-487124D01*
X330197Y-487040D01*
X330308Y-486985D01*
X330447D01*
X330475D01*
X330503D01*
X330642Y-487013D01*
D02*
G37*
G36*
X321230Y-499283D02*
X321425Y-499311D01*
X321674Y-499339D01*
X322174Y-499478D01*
X322202D01*
X322285Y-499533D01*
X322452Y-499589D01*
X322618Y-499644D01*
X322868Y-499756D01*
X323118Y-499894D01*
X323423Y-500061D01*
X323729Y-500255D01*
X333584Y-506974D01*
Y-500339D01*
X333612Y-500172D01*
X333723Y-499950D01*
X333779Y-499811D01*
X333890Y-499700D01*
Y-499672D01*
X333945Y-499644D01*
X334084Y-499533D01*
X334306Y-499450D01*
X334417Y-499395D01*
X334556D01*
X334584D01*
X334612D01*
X334750Y-499422D01*
X334972Y-499506D01*
X335195Y-499644D01*
X335250Y-499700D01*
X335333Y-499839D01*
X335444Y-500061D01*
X335472Y-500227D01*
X335500Y-500394D01*
Y-508639D01*
X335472Y-508778D01*
X335361Y-509000D01*
X335306Y-509111D01*
X335195Y-509250D01*
X335167D01*
X335139Y-509306D01*
X335000Y-509389D01*
X334778Y-509472D01*
X334501Y-509528D01*
X334445D01*
X334334Y-509500D01*
X334195Y-509472D01*
X334056Y-509389D01*
X322674Y-501893D01*
X322146Y-501616D01*
X321702Y-501421D01*
X321674D01*
X321619Y-501394D01*
X321536Y-501366D01*
X321425Y-501338D01*
X321119Y-501282D01*
X320786Y-501255D01*
X320758D01*
X320731D01*
X320564Y-501282D01*
X320342Y-501310D01*
X320036Y-501394D01*
X319703Y-501505D01*
X319342Y-501699D01*
X318981Y-501949D01*
X318648Y-502282D01*
X318621Y-502310D01*
X318565Y-502365D01*
X318510Y-502476D01*
X318398Y-502587D01*
X318315Y-502754D01*
X318204Y-502948D01*
X317982Y-503392D01*
Y-503420D01*
X317954Y-503503D01*
X317899Y-503614D01*
X317843Y-503781D01*
X317815Y-503948D01*
X317760Y-504170D01*
X317732Y-504614D01*
Y-504753D01*
X317760Y-504919D01*
X317788Y-505141D01*
X317843Y-505391D01*
X317954Y-505669D01*
X318065Y-505947D01*
X318232Y-506224D01*
X318260Y-506252D01*
X318315Y-506335D01*
X318454Y-506474D01*
X318621Y-506641D01*
X318843Y-506835D01*
X319120Y-507029D01*
X319453Y-507224D01*
X319870Y-507418D01*
X319925Y-507446D01*
X320036Y-507501D01*
X320203Y-507612D01*
X320342Y-507779D01*
X320370Y-507807D01*
X320397Y-507918D01*
X320453Y-508056D01*
X320508Y-508251D01*
Y-508334D01*
X320481Y-508417D01*
Y-508501D01*
X320397Y-508750D01*
X320258Y-509000D01*
X320203Y-509056D01*
X320064Y-509139D01*
X319814Y-509250D01*
X319676Y-509278D01*
X319509Y-509306D01*
X319259Y-509250D01*
X319231D01*
X319176Y-509222D01*
X319093Y-509195D01*
X318954Y-509139D01*
X318648Y-509000D01*
X318260Y-508778D01*
X317815Y-508528D01*
X317371Y-508195D01*
X316955Y-507807D01*
X316594Y-507362D01*
X316566Y-507307D01*
X316455Y-507168D01*
X316344Y-506918D01*
X316178Y-506585D01*
X316039Y-506196D01*
X315900Y-505752D01*
X315817Y-505252D01*
X315789Y-504697D01*
Y-504503D01*
X315817Y-504336D01*
X315844Y-504170D01*
X315900Y-503948D01*
X316039Y-503448D01*
X316122Y-503143D01*
X316261Y-502865D01*
X316400Y-502532D01*
X316594Y-502226D01*
X316816Y-501893D01*
X317066Y-501560D01*
X317371Y-501227D01*
X317704Y-500894D01*
Y-500866D01*
X317760Y-500811D01*
X317815Y-500755D01*
X317899Y-500644D01*
X318121Y-500366D01*
X318454Y-500061D01*
X318898Y-499783D01*
X319426Y-499506D01*
X319731Y-499395D01*
X320064Y-499339D01*
X320397Y-499283D01*
X320786Y-499256D01*
X320814D01*
X320897D01*
X321036D01*
X321230Y-499283D01*
D02*
G37*
G36*
X318733Y-358104D02*
X336445Y-362906D01*
X336473D01*
X336556Y-362962D01*
X336695Y-363018D01*
X336833Y-363101D01*
X337000Y-363240D01*
X337111Y-363406D01*
X337222Y-363601D01*
X337250Y-363850D01*
Y-363961D01*
X337194Y-364072D01*
X337139Y-364211D01*
X337056Y-364378D01*
X336917Y-364517D01*
X336722Y-364655D01*
X336445Y-364767D01*
X318733Y-369569D01*
X318510Y-369597D01*
X318483D01*
X318455D01*
X318288Y-369569D01*
X318066Y-369486D01*
X317844Y-369320D01*
X317816D01*
X317789Y-369264D01*
X317678Y-369125D01*
X317594Y-368903D01*
X317539Y-368764D01*
Y-368570D01*
X317567Y-368459D01*
X317594Y-368320D01*
X317705Y-368153D01*
X317733Y-368098D01*
X317816Y-368015D01*
X317983Y-367848D01*
X318094Y-367793D01*
X318233Y-367709D01*
X333280Y-363823D01*
X318316Y-359991D01*
X318288D01*
X318261D01*
X318122Y-359936D01*
X317955Y-359825D01*
X317789Y-359686D01*
X317761Y-359631D01*
X317678Y-359520D01*
X317594Y-359325D01*
X317539Y-359075D01*
Y-359020D01*
X317567Y-358853D01*
X317650Y-358631D01*
X317816Y-358381D01*
Y-358354D01*
X317872Y-358326D01*
X317983Y-358215D01*
X318205Y-358131D01*
X318344Y-358076D01*
X318510D01*
X318733Y-358104D01*
D02*
G37*
G36*
X332392Y-371763D02*
X332614Y-371846D01*
X332836Y-372012D01*
X332891Y-372068D01*
X332975Y-372207D01*
X333086Y-372429D01*
X333113Y-372568D01*
X333141Y-372734D01*
Y-374483D01*
X336306D01*
X336334D01*
X336389D01*
X336556Y-374511D01*
X336778Y-374594D01*
X337000Y-374761D01*
X337028Y-374817D01*
X337111Y-374955D01*
X337222Y-375205D01*
X337250Y-375483D01*
Y-375510D01*
X337222Y-375622D01*
X337167Y-375816D01*
X337083Y-376093D01*
X337028Y-376149D01*
X336889Y-376260D01*
X336639Y-376371D01*
X336473Y-376399D01*
X336306Y-376427D01*
X333141D01*
Y-381035D01*
X333113Y-381230D01*
X333030Y-381452D01*
X332891Y-381674D01*
X332836Y-381702D01*
X332697Y-381785D01*
X332475Y-381896D01*
X332197Y-381924D01*
X332031D01*
X318372Y-379175D01*
X318344D01*
X318288Y-379147D01*
X318122Y-379120D01*
X317927Y-379009D01*
X317733Y-378814D01*
X317539Y-378287D01*
Y-378120D01*
X317567Y-378037D01*
X317650Y-377787D01*
X317816Y-377537D01*
Y-377509D01*
X317872Y-377482D01*
X318011Y-377371D01*
X318205Y-377287D01*
X318344Y-377232D01*
X318483D01*
X318677Y-377259D01*
X331226Y-379814D01*
Y-376427D01*
X328088D01*
X328061D01*
X328033D01*
X327894Y-376399D01*
X327672Y-376316D01*
X327450Y-376149D01*
X327422D01*
X327394Y-376093D01*
X327283Y-375955D01*
X327172Y-375760D01*
X327117Y-375622D01*
Y-375427D01*
X327145Y-375261D01*
X327228Y-375039D01*
X327394Y-374817D01*
Y-374789D01*
X327450Y-374761D01*
X327561Y-374650D01*
X327783Y-374539D01*
X327922Y-374483D01*
X328088D01*
X331226D01*
Y-372679D01*
X331253Y-372512D01*
X331364Y-372290D01*
X331420Y-372151D01*
X331531Y-372040D01*
Y-372012D01*
X331586Y-371985D01*
X331725Y-371874D01*
X331947Y-371790D01*
X332058Y-371735D01*
X332197D01*
X332225D01*
X332253D01*
X332392Y-371763D01*
D02*
G37*
G36*
X322980Y-384034D02*
X323175Y-384061D01*
X323424Y-384089D01*
X323924Y-384228D01*
X323952D01*
X324035Y-384283D01*
X324202Y-384339D01*
X324368Y-384394D01*
X324618Y-384506D01*
X324868Y-384644D01*
X325173Y-384811D01*
X325479Y-385005D01*
X335334Y-391724D01*
Y-385089D01*
X335362Y-384922D01*
X335473Y-384700D01*
X335529Y-384561D01*
X335640Y-384450D01*
Y-384422D01*
X335695Y-384394D01*
X335834Y-384283D01*
X336056Y-384200D01*
X336167Y-384145D01*
X336306D01*
X336334D01*
X336362D01*
X336500Y-384172D01*
X336722Y-384256D01*
X336945Y-384394D01*
X337000Y-384450D01*
X337083Y-384589D01*
X337194Y-384811D01*
X337222Y-384977D01*
X337250Y-385144D01*
Y-393389D01*
X337222Y-393528D01*
X337111Y-393750D01*
X337056Y-393861D01*
X336945Y-394000D01*
X336917D01*
X336889Y-394056D01*
X336750Y-394139D01*
X336528Y-394222D01*
X336250Y-394278D01*
X336195D01*
X336084Y-394250D01*
X335945Y-394222D01*
X335806Y-394139D01*
X324424Y-386643D01*
X323896Y-386366D01*
X323452Y-386171D01*
X323424D01*
X323369Y-386143D01*
X323286Y-386116D01*
X323175Y-386088D01*
X322869Y-386032D01*
X322536Y-386005D01*
X322508D01*
X322481D01*
X322314Y-386032D01*
X322092Y-386060D01*
X321786Y-386143D01*
X321453Y-386255D01*
X321092Y-386449D01*
X320732Y-386699D01*
X320398Y-387032D01*
X320371Y-387060D01*
X320315Y-387115D01*
X320260Y-387226D01*
X320149Y-387337D01*
X320065Y-387504D01*
X319954Y-387698D01*
X319732Y-388142D01*
Y-388170D01*
X319704Y-388253D01*
X319649Y-388364D01*
X319593Y-388531D01*
X319566Y-388698D01*
X319510Y-388920D01*
X319482Y-389364D01*
Y-389503D01*
X319510Y-389669D01*
X319538Y-389891D01*
X319593Y-390141D01*
X319704Y-390419D01*
X319815Y-390696D01*
X319982Y-390974D01*
X320010Y-391002D01*
X320065Y-391085D01*
X320204Y-391224D01*
X320371Y-391390D01*
X320593Y-391585D01*
X320870Y-391779D01*
X321203Y-391973D01*
X321620Y-392168D01*
X321675Y-392196D01*
X321786Y-392251D01*
X321953Y-392362D01*
X322092Y-392529D01*
X322120Y-392556D01*
X322147Y-392668D01*
X322203Y-392806D01*
X322258Y-393001D01*
Y-393084D01*
X322231Y-393167D01*
Y-393251D01*
X322147Y-393500D01*
X322009Y-393750D01*
X321953Y-393806D01*
X321814Y-393889D01*
X321564Y-394000D01*
X321426Y-394028D01*
X321259Y-394056D01*
X321009Y-394000D01*
X320981D01*
X320926Y-393972D01*
X320843Y-393945D01*
X320704Y-393889D01*
X320398Y-393750D01*
X320010Y-393528D01*
X319566Y-393278D01*
X319121Y-392945D01*
X318705Y-392556D01*
X318344Y-392112D01*
X318316Y-392057D01*
X318205Y-391918D01*
X318094Y-391668D01*
X317927Y-391335D01*
X317789Y-390946D01*
X317650Y-390502D01*
X317567Y-390002D01*
X317539Y-389447D01*
Y-389253D01*
X317567Y-389086D01*
X317594Y-388920D01*
X317650Y-388698D01*
X317789Y-388198D01*
X317872Y-387892D01*
X318011Y-387615D01*
X318150Y-387282D01*
X318344Y-386976D01*
X318566Y-386643D01*
X318816Y-386310D01*
X319121Y-385977D01*
X319454Y-385644D01*
Y-385616D01*
X319510Y-385560D01*
X319566Y-385505D01*
X319649Y-385394D01*
X319871Y-385116D01*
X320204Y-384811D01*
X320648Y-384533D01*
X321176Y-384256D01*
X321481Y-384145D01*
X321814Y-384089D01*
X322147Y-384034D01*
X322536Y-384006D01*
X322564D01*
X322647D01*
X322786D01*
X322980Y-384034D01*
D02*
G37*
G36*
X341473Y-217656D02*
X341695Y-217739D01*
X341972Y-217905D01*
Y-217933D01*
X342028Y-217961D01*
X342111Y-218127D01*
X342195Y-218377D01*
X342250Y-218683D01*
X342167Y-219127D01*
X341750Y-219488D01*
X326898Y-225873D01*
X341306D01*
X341334D01*
X341389D01*
X341556Y-225901D01*
X341778Y-225984D01*
X342000Y-226151D01*
X342028Y-226206D01*
X342111Y-226345D01*
X342222Y-226595D01*
X342250Y-226873D01*
Y-226900D01*
X342222Y-227011D01*
X342167Y-227206D01*
X342056Y-227483D01*
X342000Y-227539D01*
X341861Y-227650D01*
X341639Y-227761D01*
X341473Y-227789D01*
X341306Y-227817D01*
X323511D01*
X323483D01*
X323455D01*
X323316Y-227789D01*
X323094Y-227705D01*
X322872Y-227539D01*
X322844D01*
X322816Y-227483D01*
X322705Y-227344D01*
X322594Y-227150D01*
X322539Y-227011D01*
Y-226817D01*
X322567Y-226706D01*
X322594Y-226567D01*
X322678Y-226373D01*
X322705Y-226317D01*
X322733Y-226290D01*
X322816Y-226234D01*
X322900Y-226151D01*
X323038Y-226095D01*
X323205Y-226012D01*
X323427Y-225956D01*
X337891Y-219571D01*
X323511D01*
X323483D01*
X323455D01*
X323316Y-219543D01*
X323094Y-219460D01*
X322872Y-219293D01*
X322844D01*
X322816Y-219238D01*
X322705Y-219099D01*
X322594Y-218905D01*
X322539Y-218766D01*
Y-218572D01*
X322567Y-218405D01*
X322650Y-218183D01*
X322816Y-217961D01*
Y-217933D01*
X322872Y-217905D01*
X322983Y-217794D01*
X323205Y-217683D01*
X323344Y-217628D01*
X323511D01*
X341306D01*
X341362D01*
X341473Y-217656D01*
D02*
G37*
G36*
X341528Y-230065D02*
X341750Y-230176D01*
X341861Y-230232D01*
X342000Y-230343D01*
X342028Y-230398D01*
X342111Y-230537D01*
X342222Y-230759D01*
X342250Y-231037D01*
Y-231092D01*
X342222Y-231231D01*
X342167Y-231398D01*
X342083Y-231592D01*
X342056Y-231620D01*
X341972Y-231731D01*
X341834Y-231842D01*
X341639Y-231925D01*
X336781Y-233230D01*
Y-238366D01*
X341473Y-239643D01*
X341500D01*
X341528D01*
X341695Y-239699D01*
X341889Y-239810D01*
X342056Y-239976D01*
X342083Y-240032D01*
X342139Y-240143D01*
X342222Y-240337D01*
X342250Y-240587D01*
Y-240643D01*
X342222Y-240809D01*
X342139Y-241031D01*
X342000Y-241281D01*
X341945Y-241337D01*
X341806Y-241420D01*
X341556Y-241503D01*
X341250Y-241559D01*
X341084Y-241531D01*
X323372Y-236728D01*
X323344D01*
X323233Y-236673D01*
X323122Y-236617D01*
X322955Y-236534D01*
X322816Y-236395D01*
X322678Y-236256D01*
X322594Y-236062D01*
X322567Y-235812D01*
Y-235701D01*
X322594Y-235562D01*
X322678Y-235423D01*
X322761Y-235257D01*
X322900Y-235118D01*
X323094Y-234979D01*
X323372Y-234868D01*
X341084Y-230065D01*
X341306Y-230037D01*
X341334D01*
X341362D01*
X341528Y-230065D01*
D02*
G37*
G36*
X341500Y-243752D02*
X341722Y-243835D01*
X341945Y-244002D01*
X342000Y-244057D01*
X342083Y-244196D01*
X342195Y-244418D01*
X342222Y-244557D01*
X342250Y-244724D01*
Y-248305D01*
X342222Y-248416D01*
Y-248583D01*
X342195Y-248749D01*
X342083Y-249166D01*
X341945Y-249638D01*
X341722Y-250165D01*
X341417Y-250665D01*
X341223Y-250942D01*
X341001Y-251192D01*
X340973Y-251220D01*
X340945Y-251248D01*
X340862Y-251303D01*
X340779Y-251387D01*
X340501Y-251609D01*
X340140Y-251859D01*
X339668Y-252108D01*
X339141Y-252303D01*
X338558Y-252469D01*
X338224Y-252497D01*
X337891Y-252525D01*
X326925D01*
X326898D01*
X326842D01*
X326759D01*
X326620Y-252497D01*
X326481D01*
X326315Y-252469D01*
X325898Y-252358D01*
X325398Y-252219D01*
X324899Y-251997D01*
X324371Y-251692D01*
X324121Y-251498D01*
X323871Y-251276D01*
X323844Y-251248D01*
X323816Y-251220D01*
X323760Y-251137D01*
X323649Y-251053D01*
X323455Y-250776D01*
X323205Y-250415D01*
X322955Y-249943D01*
X322733Y-249415D01*
X322594Y-248805D01*
X322567Y-248472D01*
X322539Y-248138D01*
Y-244668D01*
X322567Y-244501D01*
X322678Y-244279D01*
X322733Y-244141D01*
X322844Y-244030D01*
Y-244002D01*
X322900Y-243974D01*
X323038Y-243863D01*
X323261Y-243780D01*
X323372Y-243724D01*
X323511D01*
X323538D01*
X323566D01*
X323705Y-243752D01*
X323927Y-243835D01*
X324149Y-244002D01*
X324205Y-244057D01*
X324288Y-244196D01*
X324399Y-244418D01*
X324427Y-244557D01*
X324454Y-244724D01*
Y-248305D01*
X324482Y-248499D01*
X324538Y-248721D01*
X324621Y-248999D01*
X324760Y-249277D01*
X324926Y-249582D01*
X325176Y-249860D01*
X325204Y-249887D01*
X325287Y-249971D01*
X325454Y-250082D01*
X325648Y-250221D01*
X325898Y-250359D01*
X326203Y-250470D01*
X326537Y-250554D01*
X326925Y-250581D01*
X337891D01*
X337947D01*
X338058D01*
X338252Y-250554D01*
X338502Y-250498D01*
X338780Y-250415D01*
X339057Y-250276D01*
X339363Y-250110D01*
X339640Y-249860D01*
X339668Y-249832D01*
X339751Y-249721D01*
X339862Y-249582D01*
X339973Y-249360D01*
X340112Y-249110D01*
X340223Y-248832D01*
X340307Y-248499D01*
X340334Y-248138D01*
Y-244668D01*
X340362Y-244501D01*
X340473Y-244279D01*
X340529Y-244141D01*
X340640Y-244030D01*
Y-244002D01*
X340695Y-243974D01*
X340834Y-243863D01*
X341056Y-243780D01*
X341167Y-243724D01*
X341306D01*
X341334D01*
X341362D01*
X341500Y-243752D01*
D02*
G37*
G36*
X341473Y-79893D02*
X341695Y-79976D01*
X341972Y-80143D01*
Y-80171D01*
X342028Y-80198D01*
X342111Y-80365D01*
X342195Y-80615D01*
X342250Y-80920D01*
X342167Y-81364D01*
X341750Y-81725D01*
X326898Y-88111D01*
X341306D01*
X341334D01*
X341389D01*
X341556Y-88139D01*
X341778Y-88222D01*
X342000Y-88388D01*
X342028Y-88444D01*
X342111Y-88583D01*
X342222Y-88833D01*
X342250Y-89110D01*
Y-89138D01*
X342222Y-89249D01*
X342167Y-89443D01*
X342056Y-89721D01*
X342000Y-89776D01*
X341861Y-89888D01*
X341639Y-89999D01*
X341473Y-90026D01*
X341306Y-90054D01*
X323511D01*
X323483D01*
X323455D01*
X323316Y-90026D01*
X323094Y-89943D01*
X322872Y-89776D01*
X322844D01*
X322816Y-89721D01*
X322705Y-89582D01*
X322594Y-89388D01*
X322539Y-89249D01*
Y-89055D01*
X322567Y-88944D01*
X322594Y-88805D01*
X322678Y-88610D01*
X322705Y-88555D01*
X322733Y-88527D01*
X322816Y-88472D01*
X322900Y-88388D01*
X323038Y-88333D01*
X323205Y-88250D01*
X323427Y-88194D01*
X337891Y-81809D01*
X323511D01*
X323483D01*
X323455D01*
X323316Y-81781D01*
X323094Y-81698D01*
X322872Y-81531D01*
X322844D01*
X322816Y-81475D01*
X322705Y-81337D01*
X322594Y-81142D01*
X322539Y-81004D01*
Y-80809D01*
X322567Y-80643D01*
X322650Y-80421D01*
X322816Y-80198D01*
Y-80171D01*
X322872Y-80143D01*
X322983Y-80032D01*
X323205Y-79921D01*
X323344Y-79865D01*
X323511D01*
X341306D01*
X341362D01*
X341473Y-79893D01*
D02*
G37*
G36*
X341528Y-92303D02*
X341750Y-92414D01*
X341861Y-92469D01*
X342000Y-92580D01*
X342028Y-92636D01*
X342111Y-92775D01*
X342222Y-92997D01*
X342250Y-93274D01*
Y-93330D01*
X342222Y-93469D01*
X342167Y-93635D01*
X342083Y-93830D01*
X342056Y-93857D01*
X341972Y-93968D01*
X341834Y-94080D01*
X341639Y-94163D01*
X336781Y-95468D01*
Y-100604D01*
X341473Y-101881D01*
X341500D01*
X341528D01*
X341695Y-101936D01*
X341889Y-102047D01*
X342056Y-102214D01*
X342083Y-102269D01*
X342139Y-102381D01*
X342222Y-102575D01*
X342250Y-102825D01*
Y-102880D01*
X342222Y-103047D01*
X342139Y-103269D01*
X342000Y-103519D01*
X341945Y-103574D01*
X341806Y-103658D01*
X341556Y-103741D01*
X341250Y-103796D01*
X341084Y-103769D01*
X323372Y-98966D01*
X323344D01*
X323233Y-98910D01*
X323122Y-98855D01*
X322955Y-98771D01*
X322816Y-98633D01*
X322678Y-98494D01*
X322594Y-98299D01*
X322567Y-98050D01*
Y-97938D01*
X322594Y-97800D01*
X322678Y-97661D01*
X322761Y-97494D01*
X322900Y-97355D01*
X323094Y-97217D01*
X323372Y-97106D01*
X341084Y-92303D01*
X341306Y-92275D01*
X341334D01*
X341362D01*
X341528Y-92303D01*
D02*
G37*
G36*
X341500Y-105990D02*
X341722Y-106073D01*
X341945Y-106239D01*
X342000Y-106295D01*
X342083Y-106434D01*
X342195Y-106656D01*
X342222Y-106795D01*
X342250Y-106961D01*
Y-110543D01*
X342222Y-110654D01*
Y-110820D01*
X342195Y-110987D01*
X342083Y-111403D01*
X341945Y-111875D01*
X341722Y-112403D01*
X341417Y-112902D01*
X341223Y-113180D01*
X341001Y-113430D01*
X340973Y-113458D01*
X340945Y-113485D01*
X340862Y-113541D01*
X340779Y-113624D01*
X340501Y-113846D01*
X340140Y-114096D01*
X339668Y-114346D01*
X339141Y-114540D01*
X338558Y-114707D01*
X338224Y-114735D01*
X337891Y-114762D01*
X326925D01*
X326898D01*
X326842D01*
X326759D01*
X326620Y-114735D01*
X326481D01*
X326315Y-114707D01*
X325898Y-114596D01*
X325398Y-114457D01*
X324899Y-114235D01*
X324371Y-113930D01*
X324121Y-113735D01*
X323871Y-113513D01*
X323844Y-113485D01*
X323816Y-113458D01*
X323760Y-113374D01*
X323649Y-113291D01*
X323455Y-113013D01*
X323205Y-112653D01*
X322955Y-112181D01*
X322733Y-111653D01*
X322594Y-111042D01*
X322567Y-110709D01*
X322539Y-110376D01*
Y-106906D01*
X322567Y-106739D01*
X322678Y-106517D01*
X322733Y-106378D01*
X322844Y-106267D01*
Y-106239D01*
X322900Y-106212D01*
X323038Y-106101D01*
X323261Y-106017D01*
X323372Y-105962D01*
X323511D01*
X323538D01*
X323566D01*
X323705Y-105990D01*
X323927Y-106073D01*
X324149Y-106239D01*
X324205Y-106295D01*
X324288Y-106434D01*
X324399Y-106656D01*
X324427Y-106795D01*
X324454Y-106961D01*
Y-110543D01*
X324482Y-110737D01*
X324538Y-110959D01*
X324621Y-111237D01*
X324760Y-111514D01*
X324926Y-111820D01*
X325176Y-112097D01*
X325204Y-112125D01*
X325287Y-112208D01*
X325454Y-112319D01*
X325648Y-112458D01*
X325898Y-112597D01*
X326203Y-112708D01*
X326537Y-112791D01*
X326925Y-112819D01*
X337891D01*
X337947D01*
X338058D01*
X338252Y-112791D01*
X338502Y-112736D01*
X338780Y-112653D01*
X339057Y-112514D01*
X339363Y-112347D01*
X339640Y-112097D01*
X339668Y-112070D01*
X339751Y-111958D01*
X339862Y-111820D01*
X339973Y-111597D01*
X340112Y-111348D01*
X340223Y-111070D01*
X340307Y-110737D01*
X340334Y-110376D01*
Y-106906D01*
X340362Y-106739D01*
X340473Y-106517D01*
X340529Y-106378D01*
X340640Y-106267D01*
Y-106239D01*
X340695Y-106212D01*
X340834Y-106101D01*
X341056Y-106017D01*
X341167Y-105962D01*
X341306D01*
X341334D01*
X341362D01*
X341500Y-105990D01*
D02*
G37*
G36*
X341473Y57869D02*
X341695Y57786D01*
X341972Y57620D01*
Y57592D01*
X342028Y57564D01*
X342111Y57397D01*
X342195Y57147D01*
X342250Y56842D01*
X342167Y56398D01*
X341750Y56037D01*
X326898Y49652D01*
X341306D01*
X341334D01*
X341389D01*
X341556Y49624D01*
X341778Y49541D01*
X342000Y49374D01*
X342028Y49319D01*
X342111Y49180D01*
X342222Y48930D01*
X342250Y48652D01*
Y48625D01*
X342222Y48513D01*
X342167Y48319D01*
X342056Y48042D01*
X342000Y47986D01*
X341861Y47875D01*
X341639Y47764D01*
X341473Y47736D01*
X341306Y47708D01*
X323511D01*
X323483D01*
X323455D01*
X323316Y47736D01*
X323094Y47819D01*
X322872Y47986D01*
X322844D01*
X322816Y48042D01*
X322705Y48180D01*
X322594Y48375D01*
X322539Y48513D01*
Y48708D01*
X322567Y48819D01*
X322594Y48958D01*
X322678Y49152D01*
X322705Y49208D01*
X322733Y49235D01*
X322816Y49291D01*
X322900Y49374D01*
X323038Y49430D01*
X323205Y49513D01*
X323427Y49568D01*
X337891Y55954D01*
X323511D01*
X323483D01*
X323455D01*
X323316Y55981D01*
X323094Y56065D01*
X322872Y56231D01*
X322844D01*
X322816Y56287D01*
X322705Y56426D01*
X322594Y56620D01*
X322539Y56759D01*
Y56953D01*
X322567Y57120D01*
X322650Y57342D01*
X322816Y57564D01*
Y57592D01*
X322872Y57620D01*
X322983Y57730D01*
X323205Y57842D01*
X323344Y57897D01*
X323511D01*
X341306D01*
X341362D01*
X341473Y57869D01*
D02*
G37*
G36*
X341528Y45460D02*
X341750Y45349D01*
X341861Y45293D01*
X342000Y45182D01*
X342028Y45127D01*
X342111Y44988D01*
X342222Y44766D01*
X342250Y44488D01*
Y44432D01*
X342222Y44294D01*
X342167Y44127D01*
X342083Y43933D01*
X342056Y43905D01*
X341972Y43794D01*
X341834Y43683D01*
X341639Y43600D01*
X336781Y42295D01*
Y37159D01*
X341473Y35882D01*
X341500D01*
X341528D01*
X341695Y35826D01*
X341889Y35715D01*
X342056Y35549D01*
X342083Y35493D01*
X342139Y35382D01*
X342222Y35188D01*
X342250Y34938D01*
Y34882D01*
X342222Y34716D01*
X342139Y34494D01*
X342000Y34244D01*
X341945Y34188D01*
X341806Y34105D01*
X341556Y34022D01*
X341250Y33966D01*
X341084Y33994D01*
X323372Y38797D01*
X323344D01*
X323233Y38852D01*
X323122Y38908D01*
X322955Y38991D01*
X322816Y39130D01*
X322678Y39269D01*
X322594Y39463D01*
X322567Y39713D01*
Y39824D01*
X322594Y39963D01*
X322678Y40101D01*
X322761Y40268D01*
X322900Y40407D01*
X323094Y40546D01*
X323372Y40657D01*
X341084Y45460D01*
X341306Y45487D01*
X341334D01*
X341362D01*
X341528Y45460D01*
D02*
G37*
G36*
X341500Y31773D02*
X341722Y31690D01*
X341945Y31523D01*
X342000Y31467D01*
X342083Y31329D01*
X342195Y31107D01*
X342222Y30968D01*
X342250Y30801D01*
Y27220D01*
X342222Y27109D01*
Y26942D01*
X342195Y26776D01*
X342083Y26359D01*
X341945Y25887D01*
X341722Y25360D01*
X341417Y24860D01*
X341223Y24583D01*
X341001Y24333D01*
X340973Y24305D01*
X340945Y24277D01*
X340862Y24221D01*
X340779Y24138D01*
X340501Y23916D01*
X340140Y23666D01*
X339668Y23416D01*
X339141Y23222D01*
X338558Y23056D01*
X338224Y23028D01*
X337891Y23000D01*
X326925D01*
X326898D01*
X326842D01*
X326759D01*
X326620Y23028D01*
X326481D01*
X326315Y23056D01*
X325898Y23167D01*
X325398Y23305D01*
X324899Y23528D01*
X324371Y23833D01*
X324121Y24027D01*
X323871Y24249D01*
X323844Y24277D01*
X323816Y24305D01*
X323760Y24388D01*
X323649Y24471D01*
X323455Y24749D01*
X323205Y25110D01*
X322955Y25582D01*
X322733Y26109D01*
X322594Y26720D01*
X322567Y27053D01*
X322539Y27386D01*
Y30857D01*
X322567Y31023D01*
X322678Y31245D01*
X322733Y31384D01*
X322844Y31495D01*
Y31523D01*
X322900Y31551D01*
X323038Y31662D01*
X323261Y31745D01*
X323372Y31801D01*
X323511D01*
X323538D01*
X323566D01*
X323705Y31773D01*
X323927Y31690D01*
X324149Y31523D01*
X324205Y31467D01*
X324288Y31329D01*
X324399Y31107D01*
X324427Y30968D01*
X324454Y30801D01*
Y27220D01*
X324482Y27025D01*
X324538Y26803D01*
X324621Y26526D01*
X324760Y26248D01*
X324926Y25943D01*
X325176Y25665D01*
X325204Y25637D01*
X325287Y25554D01*
X325454Y25443D01*
X325648Y25304D01*
X325898Y25166D01*
X326203Y25054D01*
X326537Y24971D01*
X326925Y24943D01*
X337891D01*
X337947D01*
X338058D01*
X338252Y24971D01*
X338502Y25027D01*
X338780Y25110D01*
X339057Y25249D01*
X339363Y25415D01*
X339640Y25665D01*
X339668Y25693D01*
X339751Y25804D01*
X339862Y25943D01*
X339973Y26165D01*
X340112Y26415D01*
X340223Y26692D01*
X340307Y27025D01*
X340334Y27386D01*
Y30857D01*
X340362Y31023D01*
X340473Y31245D01*
X340529Y31384D01*
X340640Y31495D01*
Y31523D01*
X340695Y31551D01*
X340834Y31662D01*
X341056Y31745D01*
X341167Y31801D01*
X341306D01*
X341334D01*
X341362D01*
X341500Y31773D01*
D02*
G37*
G36*
X-320944Y-492392D02*
X-320722Y-492475D01*
X-320500Y-492641D01*
X-320472Y-492697D01*
X-320389Y-492836D01*
X-320278Y-493086D01*
X-320250Y-493363D01*
Y-493391D01*
X-320278Y-493502D01*
X-320333Y-493696D01*
X-320417Y-493974D01*
X-320472Y-494029D01*
X-320611Y-494141D01*
X-320861Y-494252D01*
X-321027Y-494279D01*
X-321194Y-494307D01*
X-337074D01*
X-334214Y-496778D01*
X-334159Y-496833D01*
X-334076Y-496972D01*
X-333992Y-497167D01*
X-333937Y-497444D01*
Y-497500D01*
X-333965Y-497694D01*
X-334048Y-497916D01*
X-334214Y-498138D01*
X-334270Y-498194D01*
X-334409Y-498277D01*
X-334631Y-498360D01*
X-334908Y-498416D01*
X-334936D01*
X-335047Y-498388D01*
X-335242Y-498305D01*
X-335380Y-498249D01*
X-335547Y-498166D01*
X-339683Y-494057D01*
X-339739Y-494002D01*
X-339822Y-493863D01*
X-339906Y-493669D01*
X-339961Y-493391D01*
Y-493308D01*
X-339933Y-493141D01*
X-339850Y-492919D01*
X-339683Y-492669D01*
Y-492641D01*
X-339628Y-492614D01*
X-339517Y-492503D01*
X-339295Y-492419D01*
X-339156Y-492364D01*
X-339017D01*
X-321194D01*
X-321166D01*
X-321111D01*
X-320944Y-492392D01*
D02*
G37*
G36*
X-317529Y-510798D02*
X-319445D01*
Y-499277D01*
X-317529D01*
Y-510798D01*
D02*
G37*
G36*
X-338795Y-511658D02*
X-338573Y-511742D01*
X-338351Y-511908D01*
X-338295Y-511964D01*
X-338212Y-512103D01*
X-338101Y-512325D01*
X-338073Y-512463D01*
X-338046Y-512630D01*
Y-515740D01*
X-321194D01*
X-321166D01*
X-321111D01*
X-320944Y-515767D01*
X-320722Y-515850D01*
X-320500Y-516017D01*
X-320472Y-516073D01*
X-320389Y-516211D01*
X-320278Y-516461D01*
X-320250Y-516739D01*
Y-516767D01*
X-320278Y-516878D01*
X-320333Y-517072D01*
X-320417Y-517350D01*
X-320472Y-517405D01*
X-320611Y-517516D01*
X-320861Y-517627D01*
X-321027Y-517655D01*
X-321194Y-517683D01*
X-338046D01*
Y-520931D01*
X-338073Y-521098D01*
X-338157Y-521320D01*
X-338295Y-521542D01*
X-338323D01*
X-338351Y-521570D01*
X-338490Y-521653D01*
X-338712Y-521764D01*
X-338989Y-521792D01*
X-339017D01*
X-339156Y-521764D01*
X-339323Y-521708D01*
X-339572Y-521570D01*
X-339600D01*
X-339628Y-521514D01*
X-339767Y-521403D01*
X-339906Y-521181D01*
X-339933Y-521014D01*
X-339961Y-520848D01*
Y-512575D01*
X-339933Y-512408D01*
X-339822Y-512186D01*
X-339767Y-512047D01*
X-339656Y-511936D01*
Y-511908D01*
X-339600Y-511880D01*
X-339461Y-511769D01*
X-339239Y-511686D01*
X-339128Y-511631D01*
X-338989D01*
X-338962D01*
X-338934D01*
X-338795Y-511658D01*
D02*
G37*
G36*
X-324303Y-523985D02*
X-324165D01*
X-323970Y-524013D01*
X-323554Y-524124D01*
X-323082Y-524263D01*
X-322554Y-524512D01*
X-322027Y-524818D01*
X-321777Y-525040D01*
X-321527Y-525262D01*
Y-525290D01*
X-321471Y-525317D01*
X-321416Y-525401D01*
X-321333Y-525484D01*
X-321111Y-525762D01*
X-320888Y-526123D01*
X-320666Y-526595D01*
X-320444Y-527122D01*
X-320305Y-527733D01*
X-320278Y-528066D01*
X-320250Y-528399D01*
Y-529926D01*
X-320278Y-530037D01*
Y-530204D01*
X-320305Y-530370D01*
X-320417Y-530787D01*
X-320555Y-531259D01*
X-320778Y-531758D01*
X-321083Y-532286D01*
X-321277Y-532563D01*
X-321499Y-532813D01*
X-321527Y-532841D01*
X-321555Y-532869D01*
X-321638Y-532924D01*
X-321721Y-533008D01*
X-321999Y-533230D01*
X-322360Y-533479D01*
X-322832Y-533729D01*
X-323359Y-533924D01*
X-323942Y-534090D01*
X-324276Y-534118D01*
X-324609Y-534146D01*
X-338989D01*
X-339017D01*
X-339045D01*
X-339184Y-534118D01*
X-339406Y-534035D01*
X-339628Y-533868D01*
X-339656D01*
X-339683Y-533813D01*
X-339795Y-533674D01*
X-339906Y-533479D01*
X-339961Y-533341D01*
Y-533146D01*
X-339933Y-532980D01*
X-339850Y-532758D01*
X-339683Y-532536D01*
Y-532508D01*
X-339628Y-532480D01*
X-339517Y-532369D01*
X-339295Y-532258D01*
X-339156Y-532202D01*
X-338989D01*
X-324609D01*
X-324553D01*
X-324442D01*
X-324248Y-532175D01*
X-324026Y-532119D01*
X-323748Y-532036D01*
X-323470Y-531897D01*
X-323165Y-531730D01*
X-322887Y-531481D01*
X-322860Y-531453D01*
X-322776Y-531342D01*
X-322665Y-531203D01*
X-322527Y-530981D01*
X-322388Y-530731D01*
X-322277Y-530426D01*
X-322193Y-530120D01*
X-322166Y-529759D01*
Y-528232D01*
X-322193Y-528038D01*
X-322249Y-527816D01*
X-322332Y-527538D01*
X-322471Y-527233D01*
X-322638Y-526928D01*
X-322860Y-526650D01*
X-322887Y-526622D01*
X-322999Y-526539D01*
X-323137Y-526400D01*
X-323332Y-526261D01*
X-323582Y-526150D01*
X-323887Y-526012D01*
X-324220Y-525928D01*
X-324609Y-525900D01*
X-338989D01*
X-339017D01*
X-339045D01*
X-339184Y-525873D01*
X-339406Y-525789D01*
X-339628Y-525623D01*
X-339656D01*
X-339683Y-525567D01*
X-339795Y-525429D01*
X-339906Y-525234D01*
X-339961Y-525095D01*
Y-524901D01*
X-339933Y-524734D01*
X-339850Y-524512D01*
X-339683Y-524290D01*
Y-524263D01*
X-339628Y-524235D01*
X-339517Y-524124D01*
X-339295Y-524013D01*
X-339156Y-523957D01*
X-338989D01*
X-324609D01*
X-324581D01*
X-324525D01*
X-324442D01*
X-324303Y-523985D01*
D02*
G37*
G36*
Y-536339D02*
X-324165D01*
X-323970Y-536367D01*
X-323554Y-536478D01*
X-323082Y-536617D01*
X-322554Y-536866D01*
X-322027Y-537172D01*
X-321777Y-537394D01*
X-321527Y-537616D01*
Y-537644D01*
X-321471Y-537672D01*
X-321416Y-537755D01*
X-321333Y-537838D01*
X-321111Y-538116D01*
X-320888Y-538477D01*
X-320666Y-538949D01*
X-320444Y-539476D01*
X-320305Y-540087D01*
X-320278Y-540420D01*
X-320250Y-540753D01*
Y-542280D01*
X-320278Y-542391D01*
Y-542558D01*
X-320305Y-542724D01*
X-320417Y-543141D01*
X-320555Y-543613D01*
X-320778Y-544112D01*
X-321083Y-544640D01*
X-321277Y-544918D01*
X-321499Y-545167D01*
X-321527Y-545195D01*
X-321555Y-545223D01*
X-321638Y-545279D01*
X-321721Y-545362D01*
X-321999Y-545584D01*
X-322360Y-545834D01*
X-322832Y-546084D01*
X-323359Y-546278D01*
X-323942Y-546445D01*
X-324276Y-546472D01*
X-324609Y-546500D01*
X-335575D01*
X-335602D01*
X-335658D01*
X-335741D01*
X-335880Y-546472D01*
X-336019D01*
X-336185Y-546445D01*
X-336602Y-546333D01*
X-337102Y-546195D01*
X-337601Y-545973D01*
X-338129Y-545667D01*
X-338379Y-545473D01*
X-338629Y-545251D01*
X-338656Y-545223D01*
X-338684Y-545195D01*
X-338740Y-545112D01*
X-338851Y-545029D01*
X-339045Y-544751D01*
X-339295Y-544390D01*
X-339545Y-543918D01*
X-339767Y-543391D01*
X-339906Y-542780D01*
X-339933Y-542447D01*
X-339961Y-542114D01*
Y-540587D01*
X-339933Y-540448D01*
Y-540281D01*
X-339906Y-540115D01*
X-339795Y-539698D01*
X-339656Y-539198D01*
X-339406Y-538671D01*
X-339100Y-538144D01*
X-338878Y-537894D01*
X-338656Y-537644D01*
X-338629Y-537616D01*
X-338601Y-537588D01*
X-338434Y-537422D01*
X-338157Y-537227D01*
X-337796Y-536978D01*
X-337351Y-536728D01*
X-336824Y-536506D01*
X-336213Y-536367D01*
X-335908Y-536339D01*
X-335575Y-536311D01*
X-324609D01*
X-324581D01*
X-324525D01*
X-324442D01*
X-324303Y-536339D01*
D02*
G37*
G36*
X-334520Y-398949D02*
X-334325Y-398977D01*
X-334076Y-399005D01*
X-333576Y-399144D01*
X-333548D01*
X-333465Y-399199D01*
X-333298Y-399255D01*
X-333132Y-399310D01*
X-332882Y-399421D01*
X-332632Y-399560D01*
X-332327Y-399727D01*
X-332021Y-399921D01*
X-322166Y-406640D01*
Y-400004D01*
X-322138Y-399838D01*
X-322027Y-399616D01*
X-321971Y-399477D01*
X-321860Y-399366D01*
Y-399338D01*
X-321805Y-399310D01*
X-321666Y-399199D01*
X-321444Y-399116D01*
X-321333Y-399060D01*
X-321194D01*
X-321166D01*
X-321138D01*
X-321000Y-399088D01*
X-320778Y-399171D01*
X-320555Y-399310D01*
X-320500Y-399366D01*
X-320417Y-399505D01*
X-320305Y-399727D01*
X-320278Y-399893D01*
X-320250Y-400060D01*
Y-408305D01*
X-320278Y-408444D01*
X-320389Y-408666D01*
X-320444Y-408777D01*
X-320555Y-408916D01*
X-320583D01*
X-320611Y-408971D01*
X-320750Y-409055D01*
X-320972Y-409138D01*
X-321249Y-409194D01*
X-321305D01*
X-321416Y-409166D01*
X-321555Y-409138D01*
X-321694Y-409055D01*
X-333076Y-401559D01*
X-333604Y-401281D01*
X-334048Y-401087D01*
X-334076D01*
X-334131Y-401059D01*
X-334214Y-401031D01*
X-334325Y-401004D01*
X-334631Y-400948D01*
X-334964Y-400920D01*
X-334992D01*
X-335019D01*
X-335186Y-400948D01*
X-335408Y-400976D01*
X-335714Y-401059D01*
X-336047Y-401170D01*
X-336408Y-401365D01*
X-336768Y-401614D01*
X-337102Y-401948D01*
X-337129Y-401975D01*
X-337185Y-402031D01*
X-337240Y-402142D01*
X-337351Y-402253D01*
X-337435Y-402420D01*
X-337546Y-402614D01*
X-337768Y-403058D01*
Y-403086D01*
X-337796Y-403169D01*
X-337851Y-403280D01*
X-337907Y-403447D01*
X-337934Y-403613D01*
X-337990Y-403835D01*
X-338018Y-404280D01*
Y-404418D01*
X-337990Y-404585D01*
X-337962Y-404807D01*
X-337907Y-405057D01*
X-337796Y-405335D01*
X-337685Y-405612D01*
X-337518Y-405890D01*
X-337490Y-405918D01*
X-337435Y-406001D01*
X-337296Y-406140D01*
X-337129Y-406306D01*
X-336907Y-406501D01*
X-336630Y-406695D01*
X-336297Y-406889D01*
X-335880Y-407084D01*
X-335825Y-407112D01*
X-335714Y-407167D01*
X-335547Y-407278D01*
X-335408Y-407445D01*
X-335380Y-407472D01*
X-335353Y-407583D01*
X-335297Y-407722D01*
X-335242Y-407917D01*
Y-408000D01*
X-335269Y-408083D01*
Y-408166D01*
X-335353Y-408416D01*
X-335491Y-408666D01*
X-335547Y-408722D01*
X-335686Y-408805D01*
X-335936Y-408916D01*
X-336074Y-408944D01*
X-336241Y-408971D01*
X-336491Y-408916D01*
X-336519D01*
X-336574Y-408888D01*
X-336657Y-408861D01*
X-336796Y-408805D01*
X-337102Y-408666D01*
X-337490Y-408444D01*
X-337934Y-408194D01*
X-338379Y-407861D01*
X-338795Y-407472D01*
X-339156Y-407028D01*
X-339184Y-406973D01*
X-339295Y-406834D01*
X-339406Y-406584D01*
X-339572Y-406251D01*
X-339711Y-405862D01*
X-339850Y-405418D01*
X-339933Y-404918D01*
X-339961Y-404363D01*
Y-404169D01*
X-339933Y-404002D01*
X-339906Y-403835D01*
X-339850Y-403613D01*
X-339711Y-403114D01*
X-339628Y-402808D01*
X-339489Y-402531D01*
X-339350Y-402197D01*
X-339156Y-401892D01*
X-338934Y-401559D01*
X-338684Y-401226D01*
X-338379Y-400893D01*
X-338046Y-400560D01*
Y-400532D01*
X-337990Y-400476D01*
X-337934Y-400421D01*
X-337851Y-400310D01*
X-337629Y-400032D01*
X-337296Y-399727D01*
X-336852Y-399449D01*
X-336324Y-399171D01*
X-336019Y-399060D01*
X-335686Y-399005D01*
X-335353Y-398949D01*
X-334964Y-398922D01*
X-334936D01*
X-334853D01*
X-334714D01*
X-334520Y-398949D01*
D02*
G37*
G36*
X-317529Y-421548D02*
X-319445D01*
Y-410027D01*
X-317529D01*
Y-421548D01*
D02*
G37*
G36*
X-338795Y-422408D02*
X-338573Y-422492D01*
X-338351Y-422658D01*
X-338295Y-422714D01*
X-338212Y-422853D01*
X-338101Y-423075D01*
X-338073Y-423214D01*
X-338046Y-423380D01*
Y-426489D01*
X-321194D01*
X-321166D01*
X-321111D01*
X-320944Y-426517D01*
X-320722Y-426600D01*
X-320500Y-426767D01*
X-320472Y-426823D01*
X-320389Y-426961D01*
X-320278Y-427211D01*
X-320250Y-427489D01*
Y-427517D01*
X-320278Y-427628D01*
X-320333Y-427822D01*
X-320417Y-428100D01*
X-320472Y-428155D01*
X-320611Y-428266D01*
X-320861Y-428377D01*
X-321027Y-428405D01*
X-321194Y-428433D01*
X-338046D01*
Y-431681D01*
X-338073Y-431848D01*
X-338157Y-432070D01*
X-338295Y-432292D01*
X-338323D01*
X-338351Y-432319D01*
X-338490Y-432403D01*
X-338712Y-432514D01*
X-338989Y-432542D01*
X-339017D01*
X-339156Y-432514D01*
X-339323Y-432458D01*
X-339572Y-432319D01*
X-339600D01*
X-339628Y-432264D01*
X-339767Y-432153D01*
X-339906Y-431931D01*
X-339933Y-431764D01*
X-339961Y-431598D01*
Y-423325D01*
X-339933Y-423158D01*
X-339822Y-422936D01*
X-339767Y-422797D01*
X-339656Y-422686D01*
Y-422658D01*
X-339600Y-422631D01*
X-339461Y-422519D01*
X-339239Y-422436D01*
X-339128Y-422381D01*
X-338989D01*
X-338962D01*
X-338934D01*
X-338795Y-422408D01*
D02*
G37*
G36*
X-324303Y-434735D02*
X-324165D01*
X-323970Y-434763D01*
X-323554Y-434874D01*
X-323082Y-435013D01*
X-322554Y-435262D01*
X-322027Y-435568D01*
X-321777Y-435790D01*
X-321527Y-436012D01*
Y-436040D01*
X-321471Y-436067D01*
X-321416Y-436151D01*
X-321333Y-436234D01*
X-321111Y-436512D01*
X-320888Y-436872D01*
X-320666Y-437345D01*
X-320444Y-437872D01*
X-320305Y-438483D01*
X-320278Y-438816D01*
X-320250Y-439149D01*
Y-440676D01*
X-320278Y-440787D01*
Y-440954D01*
X-320305Y-441120D01*
X-320417Y-441537D01*
X-320555Y-442009D01*
X-320778Y-442508D01*
X-321083Y-443036D01*
X-321277Y-443313D01*
X-321499Y-443563D01*
X-321527Y-443591D01*
X-321555Y-443619D01*
X-321638Y-443674D01*
X-321721Y-443758D01*
X-321999Y-443980D01*
X-322360Y-444230D01*
X-322832Y-444479D01*
X-323359Y-444674D01*
X-323942Y-444840D01*
X-324276Y-444868D01*
X-324609Y-444896D01*
X-338989D01*
X-339017D01*
X-339045D01*
X-339184Y-444868D01*
X-339406Y-444785D01*
X-339628Y-444618D01*
X-339656D01*
X-339683Y-444563D01*
X-339795Y-444424D01*
X-339906Y-444230D01*
X-339961Y-444091D01*
Y-443896D01*
X-339933Y-443730D01*
X-339850Y-443508D01*
X-339683Y-443286D01*
Y-443258D01*
X-339628Y-443230D01*
X-339517Y-443119D01*
X-339295Y-443008D01*
X-339156Y-442952D01*
X-338989D01*
X-324609D01*
X-324553D01*
X-324442D01*
X-324248Y-442925D01*
X-324026Y-442869D01*
X-323748Y-442786D01*
X-323470Y-442647D01*
X-323165Y-442481D01*
X-322887Y-442231D01*
X-322860Y-442203D01*
X-322776Y-442092D01*
X-322665Y-441953D01*
X-322527Y-441731D01*
X-322388Y-441481D01*
X-322277Y-441176D01*
X-322193Y-440870D01*
X-322166Y-440509D01*
Y-438983D01*
X-322193Y-438788D01*
X-322249Y-438566D01*
X-322332Y-438288D01*
X-322471Y-437983D01*
X-322638Y-437678D01*
X-322860Y-437400D01*
X-322887Y-437372D01*
X-322999Y-437289D01*
X-323137Y-437150D01*
X-323332Y-437011D01*
X-323582Y-436900D01*
X-323887Y-436762D01*
X-324220Y-436678D01*
X-324609Y-436650D01*
X-338989D01*
X-339017D01*
X-339045D01*
X-339184Y-436623D01*
X-339406Y-436539D01*
X-339628Y-436373D01*
X-339656D01*
X-339683Y-436317D01*
X-339795Y-436179D01*
X-339906Y-435984D01*
X-339961Y-435845D01*
Y-435651D01*
X-339933Y-435484D01*
X-339850Y-435262D01*
X-339683Y-435040D01*
Y-435013D01*
X-339628Y-434985D01*
X-339517Y-434874D01*
X-339295Y-434763D01*
X-339156Y-434707D01*
X-338989D01*
X-324609D01*
X-324581D01*
X-324525D01*
X-324442D01*
X-324303Y-434735D01*
D02*
G37*
G36*
Y-447089D02*
X-324165D01*
X-323970Y-447117D01*
X-323554Y-447228D01*
X-323082Y-447367D01*
X-322554Y-447617D01*
X-322027Y-447922D01*
X-321777Y-448144D01*
X-321527Y-448366D01*
Y-448394D01*
X-321471Y-448422D01*
X-321416Y-448505D01*
X-321333Y-448588D01*
X-321111Y-448866D01*
X-320888Y-449227D01*
X-320666Y-449699D01*
X-320444Y-450226D01*
X-320305Y-450837D01*
X-320278Y-451170D01*
X-320250Y-451503D01*
Y-453030D01*
X-320278Y-453141D01*
Y-453308D01*
X-320305Y-453474D01*
X-320417Y-453891D01*
X-320555Y-454363D01*
X-320778Y-454862D01*
X-321083Y-455390D01*
X-321277Y-455667D01*
X-321499Y-455917D01*
X-321527Y-455945D01*
X-321555Y-455973D01*
X-321638Y-456029D01*
X-321721Y-456112D01*
X-321999Y-456334D01*
X-322360Y-456584D01*
X-322832Y-456834D01*
X-323359Y-457028D01*
X-323942Y-457195D01*
X-324276Y-457222D01*
X-324609Y-457250D01*
X-335575D01*
X-335602D01*
X-335658D01*
X-335741D01*
X-335880Y-457222D01*
X-336019D01*
X-336185Y-457195D01*
X-336602Y-457083D01*
X-337102Y-456945D01*
X-337601Y-456722D01*
X-338129Y-456417D01*
X-338379Y-456223D01*
X-338629Y-456001D01*
X-338656Y-455973D01*
X-338684Y-455945D01*
X-338740Y-455862D01*
X-338851Y-455779D01*
X-339045Y-455501D01*
X-339295Y-455140D01*
X-339545Y-454668D01*
X-339767Y-454141D01*
X-339906Y-453530D01*
X-339933Y-453197D01*
X-339961Y-452864D01*
Y-451337D01*
X-339933Y-451198D01*
Y-451031D01*
X-339906Y-450865D01*
X-339795Y-450448D01*
X-339656Y-449949D01*
X-339406Y-449421D01*
X-339100Y-448894D01*
X-338878Y-448644D01*
X-338656Y-448394D01*
X-338629Y-448366D01*
X-338601Y-448338D01*
X-338434Y-448172D01*
X-338157Y-447977D01*
X-337796Y-447728D01*
X-337351Y-447478D01*
X-336824Y-447256D01*
X-336213Y-447117D01*
X-335908Y-447089D01*
X-335575Y-447061D01*
X-324609D01*
X-324581D01*
X-324525D01*
X-324442D01*
X-324303Y-447089D01*
D02*
G37*
G36*
X-319194Y-166151D02*
X-318972Y-166234D01*
X-318750Y-166401D01*
X-318722Y-166456D01*
X-318639Y-166595D01*
X-318528Y-166845D01*
X-318500Y-167122D01*
Y-167150D01*
X-318528Y-167261D01*
X-318583Y-167456D01*
X-318667Y-167733D01*
X-318722Y-167789D01*
X-318861Y-167900D01*
X-319111Y-168011D01*
X-319277Y-168039D01*
X-319444Y-168066D01*
X-335324D01*
X-332464Y-170537D01*
X-332409Y-170593D01*
X-332326Y-170732D01*
X-332242Y-170926D01*
X-332187Y-171203D01*
Y-171259D01*
X-332215Y-171453D01*
X-332298Y-171675D01*
X-332464Y-171898D01*
X-332520Y-171953D01*
X-332659Y-172036D01*
X-332881Y-172120D01*
X-333158Y-172175D01*
X-333186D01*
X-333297Y-172147D01*
X-333492Y-172064D01*
X-333630Y-172009D01*
X-333797Y-171925D01*
X-337934Y-167817D01*
X-337989Y-167761D01*
X-338072Y-167622D01*
X-338156Y-167428D01*
X-338211Y-167150D01*
Y-167067D01*
X-338183Y-166900D01*
X-338100Y-166678D01*
X-337934Y-166428D01*
Y-166401D01*
X-337878Y-166373D01*
X-337767Y-166262D01*
X-337545Y-166178D01*
X-337406Y-166123D01*
X-337267D01*
X-319444D01*
X-319416D01*
X-319361D01*
X-319194Y-166151D01*
D02*
G37*
G36*
X-315779Y-184557D02*
X-317695D01*
Y-173036D01*
X-315779D01*
Y-184557D01*
D02*
G37*
G36*
X-319277Y-185390D02*
X-319055Y-185473D01*
X-318778Y-185640D01*
Y-185668D01*
X-318722Y-185695D01*
X-318639Y-185862D01*
X-318556Y-186112D01*
X-318500Y-186417D01*
X-318583Y-186861D01*
X-319000Y-187222D01*
X-333853Y-193608D01*
X-319444D01*
X-319416D01*
X-319361D01*
X-319194Y-193635D01*
X-318972Y-193719D01*
X-318750Y-193885D01*
X-318722Y-193941D01*
X-318639Y-194079D01*
X-318528Y-194329D01*
X-318500Y-194607D01*
Y-194635D01*
X-318528Y-194746D01*
X-318583Y-194940D01*
X-318694Y-195218D01*
X-318750Y-195273D01*
X-318889Y-195384D01*
X-319111Y-195495D01*
X-319277Y-195523D01*
X-319444Y-195551D01*
X-337239D01*
X-337267D01*
X-337295D01*
X-337434Y-195523D01*
X-337656Y-195440D01*
X-337878Y-195273D01*
X-337906D01*
X-337934Y-195218D01*
X-338045Y-195079D01*
X-338156Y-194885D01*
X-338211Y-194746D01*
Y-194552D01*
X-338183Y-194440D01*
X-338156Y-194302D01*
X-338072Y-194107D01*
X-338045Y-194052D01*
X-338017Y-194024D01*
X-337934Y-193969D01*
X-337850Y-193885D01*
X-337711Y-193830D01*
X-337545Y-193746D01*
X-337323Y-193691D01*
X-322859Y-187306D01*
X-337239D01*
X-337267D01*
X-337295D01*
X-337434Y-187278D01*
X-337656Y-187194D01*
X-337878Y-187028D01*
X-337906D01*
X-337934Y-186972D01*
X-338045Y-186834D01*
X-338156Y-186639D01*
X-338211Y-186500D01*
Y-186306D01*
X-338183Y-186140D01*
X-338100Y-185917D01*
X-337934Y-185695D01*
Y-185668D01*
X-337878Y-185640D01*
X-337767Y-185529D01*
X-337545Y-185418D01*
X-337406Y-185362D01*
X-337239D01*
X-319444D01*
X-319388D01*
X-319277Y-185390D01*
D02*
G37*
G36*
X-319194Y-197772D02*
X-318972Y-197855D01*
X-318750Y-198022D01*
X-318722Y-198077D01*
X-318639Y-198216D01*
X-318528Y-198466D01*
X-318500Y-198744D01*
Y-198771D01*
X-318528Y-198882D01*
X-318583Y-199077D01*
X-318667Y-199354D01*
X-318722Y-199410D01*
X-318861Y-199521D01*
X-319111Y-199632D01*
X-319277Y-199660D01*
X-319444Y-199688D01*
X-337239D01*
X-337267D01*
X-337295D01*
X-337434Y-199660D01*
X-337656Y-199576D01*
X-337878Y-199410D01*
X-337906D01*
X-337934Y-199354D01*
X-338045Y-199216D01*
X-338156Y-199021D01*
X-338211Y-198882D01*
Y-198688D01*
X-338183Y-198521D01*
X-338100Y-198299D01*
X-337934Y-198077D01*
Y-198050D01*
X-337878Y-198022D01*
X-337767Y-197911D01*
X-337545Y-197800D01*
X-337406Y-197744D01*
X-337239D01*
X-319444D01*
X-319416D01*
X-319361D01*
X-319194Y-197772D01*
D02*
G37*
G36*
X-317500Y34869D02*
X-317278Y34786D01*
X-317055Y34620D01*
X-317000Y34564D01*
X-316917Y34425D01*
X-316805Y34203D01*
X-316778Y34064D01*
X-316750Y33898D01*
Y30316D01*
X-316778Y30205D01*
Y30039D01*
X-316805Y29872D01*
X-316917Y29456D01*
X-317055Y28984D01*
X-317278Y28456D01*
X-317583Y27957D01*
X-317777Y27679D01*
X-317999Y27429D01*
X-318027Y27401D01*
X-318055Y27373D01*
X-318138Y27318D01*
X-318221Y27235D01*
X-318499Y27013D01*
X-318860Y26763D01*
X-319332Y26513D01*
X-319859Y26319D01*
X-320442Y26152D01*
X-320775Y26124D01*
X-321109Y26096D01*
X-332075D01*
X-332103D01*
X-332158D01*
X-332241D01*
X-332380Y26124D01*
X-332519D01*
X-332686Y26152D01*
X-333102Y26263D01*
X-333602Y26402D01*
X-334101Y26624D01*
X-334629Y26929D01*
X-334879Y27124D01*
X-335129Y27346D01*
X-335156Y27373D01*
X-335184Y27401D01*
X-335240Y27485D01*
X-335351Y27568D01*
X-335545Y27845D01*
X-335795Y28206D01*
X-336045Y28678D01*
X-336267Y29206D01*
X-336406Y29817D01*
X-336433Y30150D01*
X-336461Y30483D01*
Y33953D01*
X-336433Y34120D01*
X-336322Y34342D01*
X-336267Y34481D01*
X-336156Y34592D01*
Y34620D01*
X-336100Y34647D01*
X-335961Y34758D01*
X-335739Y34842D01*
X-335628Y34897D01*
X-335490D01*
X-335462D01*
X-335434D01*
X-335295Y34869D01*
X-335073Y34786D01*
X-334851Y34620D01*
X-334795Y34564D01*
X-334712Y34425D01*
X-334601Y34203D01*
X-334573Y34064D01*
X-334546Y33898D01*
Y30316D01*
X-334518Y30122D01*
X-334462Y29900D01*
X-334379Y29622D01*
X-334240Y29345D01*
X-334074Y29039D01*
X-333824Y28762D01*
X-333796Y28734D01*
X-333713Y28651D01*
X-333546Y28540D01*
X-333352Y28401D01*
X-333102Y28262D01*
X-332797Y28151D01*
X-332463Y28068D01*
X-332075Y28040D01*
X-321109D01*
X-321053D01*
X-320942D01*
X-320748Y28068D01*
X-320498Y28123D01*
X-320220Y28206D01*
X-319943Y28345D01*
X-319637Y28512D01*
X-319360Y28762D01*
X-319332Y28789D01*
X-319249Y28900D01*
X-319138Y29039D01*
X-319027Y29261D01*
X-318888Y29511D01*
X-318777Y29789D01*
X-318693Y30122D01*
X-318666Y30483D01*
Y33953D01*
X-318638Y34120D01*
X-318527Y34342D01*
X-318471Y34481D01*
X-318360Y34592D01*
Y34620D01*
X-318305Y34647D01*
X-318166Y34758D01*
X-317944Y34842D01*
X-317833Y34897D01*
X-317694D01*
X-317666D01*
X-317638D01*
X-317500Y34869D01*
D02*
G37*
G36*
X-320803Y23903D02*
X-320664D01*
X-320470Y23876D01*
X-320054Y23764D01*
X-319582Y23626D01*
X-319054Y23376D01*
X-318527Y23070D01*
X-318277Y22848D01*
X-318027Y22626D01*
Y22598D01*
X-317972Y22571D01*
X-317916Y22487D01*
X-317833Y22404D01*
X-317611Y22127D01*
X-317388Y21766D01*
X-317166Y21294D01*
X-316944Y20766D01*
X-316805Y20155D01*
X-316778Y19822D01*
X-316750Y19489D01*
Y14658D01*
X-316778Y14547D01*
X-316805Y14381D01*
X-316861Y14214D01*
X-316972Y14048D01*
X-317139Y13881D01*
X-317388Y13770D01*
X-317694Y13742D01*
X-335490D01*
X-335545D01*
X-335656Y13770D01*
X-335795Y13798D01*
X-335989Y13853D01*
X-336156Y13964D01*
X-336322Y14131D01*
X-336433Y14381D01*
X-336461Y14686D01*
Y19656D01*
X-336433Y19794D01*
Y19961D01*
X-336406Y20128D01*
X-336295Y20544D01*
X-336156Y21044D01*
X-335906Y21571D01*
X-335601Y22099D01*
X-335378Y22349D01*
X-335156Y22598D01*
X-335129Y22626D01*
X-335101Y22654D01*
X-334934Y22820D01*
X-334657Y23015D01*
X-334296Y23265D01*
X-333852Y23515D01*
X-333324Y23737D01*
X-332713Y23876D01*
X-332408Y23903D01*
X-332075Y23931D01*
X-321109D01*
X-321081D01*
X-321025D01*
X-320942D01*
X-320803Y23903D01*
D02*
G37*
G36*
X-317472Y11494D02*
X-317250Y11382D01*
X-317139Y11327D01*
X-317000Y11216D01*
X-316972Y11160D01*
X-316889Y11022D01*
X-316778Y10799D01*
X-316750Y10522D01*
Y10466D01*
X-316778Y10328D01*
X-316833Y10161D01*
X-316917Y9967D01*
X-316944Y9939D01*
X-317028Y9828D01*
X-317166Y9717D01*
X-317361Y9633D01*
X-322219Y8329D01*
Y3193D01*
X-317527Y1916D01*
X-317500D01*
X-317472D01*
X-317305Y1860D01*
X-317111Y1749D01*
X-316944Y1582D01*
X-316917Y1527D01*
X-316861Y1416D01*
X-316778Y1221D01*
X-316750Y972D01*
Y916D01*
X-316778Y750D01*
X-316861Y527D01*
X-317000Y278D01*
X-317055Y222D01*
X-317194Y139D01*
X-317444Y55D01*
X-317750Y0D01*
X-317916Y28D01*
X-335628Y4831D01*
X-335656D01*
X-335767Y4886D01*
X-335878Y4942D01*
X-336045Y5025D01*
X-336184Y5164D01*
X-336322Y5303D01*
X-336406Y5497D01*
X-336433Y5747D01*
Y5858D01*
X-336406Y5997D01*
X-336322Y6135D01*
X-336239Y6302D01*
X-336100Y6441D01*
X-335906Y6580D01*
X-335628Y6691D01*
X-317916Y11494D01*
X-317694Y11521D01*
X-317666D01*
X-317638D01*
X-317472Y11494D01*
D02*
G37*
G36*
X-332770Y-72271D02*
X-332575Y-72299D01*
X-332326Y-72327D01*
X-331826Y-72466D01*
X-331798D01*
X-331715Y-72521D01*
X-331548Y-72577D01*
X-331382Y-72632D01*
X-331132Y-72743D01*
X-330882Y-72882D01*
X-330577Y-73049D01*
X-330271Y-73243D01*
X-320416Y-79961D01*
Y-73326D01*
X-320388Y-73160D01*
X-320277Y-72937D01*
X-320221Y-72799D01*
X-320110Y-72688D01*
Y-72660D01*
X-320055Y-72632D01*
X-319916Y-72521D01*
X-319694Y-72438D01*
X-319583Y-72382D01*
X-319444D01*
X-319416D01*
X-319388D01*
X-319250Y-72410D01*
X-319028Y-72493D01*
X-318805Y-72632D01*
X-318750Y-72688D01*
X-318667Y-72826D01*
X-318556Y-73049D01*
X-318528Y-73215D01*
X-318500Y-73382D01*
Y-81627D01*
X-318528Y-81766D01*
X-318639Y-81988D01*
X-318694Y-82099D01*
X-318805Y-82238D01*
X-318833D01*
X-318861Y-82293D01*
X-319000Y-82377D01*
X-319222Y-82460D01*
X-319499Y-82515D01*
X-319555D01*
X-319666Y-82488D01*
X-319805Y-82460D01*
X-319944Y-82377D01*
X-331326Y-74881D01*
X-331854Y-74603D01*
X-332298Y-74409D01*
X-332326D01*
X-332381Y-74381D01*
X-332464Y-74353D01*
X-332575Y-74326D01*
X-332881Y-74270D01*
X-333214Y-74242D01*
X-333242D01*
X-333270D01*
X-333436Y-74270D01*
X-333658Y-74298D01*
X-333964Y-74381D01*
X-334297Y-74492D01*
X-334658Y-74686D01*
X-335019Y-74936D01*
X-335352Y-75269D01*
X-335379Y-75297D01*
X-335435Y-75353D01*
X-335490Y-75464D01*
X-335602Y-75575D01*
X-335685Y-75742D01*
X-335796Y-75936D01*
X-336018Y-76380D01*
Y-76408D01*
X-336046Y-76491D01*
X-336101Y-76602D01*
X-336157Y-76769D01*
X-336185Y-76935D01*
X-336240Y-77157D01*
X-336268Y-77601D01*
Y-77740D01*
X-336240Y-77907D01*
X-336212Y-78129D01*
X-336157Y-78379D01*
X-336046Y-78657D01*
X-335935Y-78934D01*
X-335768Y-79212D01*
X-335740Y-79240D01*
X-335685Y-79323D01*
X-335546Y-79462D01*
X-335379Y-79628D01*
X-335157Y-79823D01*
X-334880Y-80017D01*
X-334547Y-80211D01*
X-334130Y-80406D01*
X-334075Y-80433D01*
X-333964Y-80489D01*
X-333797Y-80600D01*
X-333658Y-80766D01*
X-333630Y-80794D01*
X-333603Y-80905D01*
X-333547Y-81044D01*
X-333492Y-81238D01*
Y-81322D01*
X-333519Y-81405D01*
Y-81488D01*
X-333603Y-81738D01*
X-333741Y-81988D01*
X-333797Y-82044D01*
X-333936Y-82127D01*
X-334186Y-82238D01*
X-334324Y-82266D01*
X-334491Y-82293D01*
X-334741Y-82238D01*
X-334769D01*
X-334824Y-82210D01*
X-334907Y-82182D01*
X-335046Y-82127D01*
X-335352Y-81988D01*
X-335740Y-81766D01*
X-336185Y-81516D01*
X-336629Y-81183D01*
X-337045Y-80794D01*
X-337406Y-80350D01*
X-337434Y-80295D01*
X-337545Y-80156D01*
X-337656Y-79906D01*
X-337822Y-79573D01*
X-337961Y-79184D01*
X-338100Y-78740D01*
X-338183Y-78240D01*
X-338211Y-77685D01*
Y-77491D01*
X-338183Y-77324D01*
X-338156Y-77157D01*
X-338100Y-76935D01*
X-337961Y-76435D01*
X-337878Y-76130D01*
X-337739Y-75852D01*
X-337600Y-75519D01*
X-337406Y-75214D01*
X-337184Y-74881D01*
X-336934Y-74548D01*
X-336629Y-74215D01*
X-336296Y-73881D01*
Y-73854D01*
X-336240Y-73798D01*
X-336185Y-73743D01*
X-336101Y-73632D01*
X-335879Y-73354D01*
X-335546Y-73049D01*
X-335102Y-72771D01*
X-334574Y-72493D01*
X-334269Y-72382D01*
X-333936Y-72327D01*
X-333603Y-72271D01*
X-333214Y-72243D01*
X-333186D01*
X-333103D01*
X-332964D01*
X-332770Y-72271D01*
D02*
G37*
G36*
X-315779Y-94870D02*
X-317695D01*
Y-83348D01*
X-315779D01*
Y-94870D01*
D02*
G37*
G36*
X-319277Y-95702D02*
X-319055Y-95786D01*
X-318778Y-95952D01*
Y-95980D01*
X-318722Y-96008D01*
X-318639Y-96174D01*
X-318556Y-96424D01*
X-318500Y-96730D01*
X-318583Y-97174D01*
X-319000Y-97535D01*
X-333853Y-103920D01*
X-319444D01*
X-319416D01*
X-319361D01*
X-319194Y-103948D01*
X-318972Y-104031D01*
X-318750Y-104198D01*
X-318722Y-104253D01*
X-318639Y-104392D01*
X-318528Y-104642D01*
X-318500Y-104920D01*
Y-104947D01*
X-318528Y-105058D01*
X-318583Y-105253D01*
X-318694Y-105530D01*
X-318750Y-105586D01*
X-318889Y-105697D01*
X-319111Y-105808D01*
X-319277Y-105836D01*
X-319444Y-105863D01*
X-337239D01*
X-337267D01*
X-337295D01*
X-337434Y-105836D01*
X-337656Y-105752D01*
X-337878Y-105586D01*
X-337906D01*
X-337934Y-105530D01*
X-338045Y-105392D01*
X-338156Y-105197D01*
X-338211Y-105058D01*
Y-104864D01*
X-338183Y-104753D01*
X-338156Y-104614D01*
X-338072Y-104420D01*
X-338045Y-104364D01*
X-338017Y-104337D01*
X-337934Y-104281D01*
X-337850Y-104198D01*
X-337711Y-104142D01*
X-337545Y-104059D01*
X-337323Y-104003D01*
X-322859Y-97618D01*
X-337239D01*
X-337267D01*
X-337295D01*
X-337434Y-97590D01*
X-337656Y-97507D01*
X-337878Y-97340D01*
X-337906D01*
X-337934Y-97285D01*
X-338045Y-97146D01*
X-338156Y-96952D01*
X-338211Y-96813D01*
Y-96619D01*
X-338183Y-96452D01*
X-338100Y-96230D01*
X-337934Y-96008D01*
Y-95980D01*
X-337878Y-95952D01*
X-337767Y-95841D01*
X-337545Y-95730D01*
X-337406Y-95675D01*
X-337239D01*
X-319444D01*
X-319388D01*
X-319277Y-95702D01*
D02*
G37*
G36*
X-319194Y-108084D02*
X-318972Y-108168D01*
X-318750Y-108334D01*
X-318722Y-108390D01*
X-318639Y-108529D01*
X-318528Y-108778D01*
X-318500Y-109056D01*
Y-109084D01*
X-318528Y-109195D01*
X-318583Y-109389D01*
X-318667Y-109667D01*
X-318722Y-109722D01*
X-318861Y-109833D01*
X-319111Y-109944D01*
X-319277Y-109972D01*
X-319444Y-110000D01*
X-337239D01*
X-337267D01*
X-337295D01*
X-337434Y-109972D01*
X-337656Y-109889D01*
X-337878Y-109722D01*
X-337906D01*
X-337934Y-109667D01*
X-338045Y-109528D01*
X-338156Y-109334D01*
X-338211Y-109195D01*
Y-109001D01*
X-338183Y-108834D01*
X-338100Y-108612D01*
X-337934Y-108390D01*
Y-108362D01*
X-337878Y-108334D01*
X-337767Y-108223D01*
X-337545Y-108112D01*
X-337406Y-108057D01*
X-337239D01*
X-319444D01*
X-319416D01*
X-319361D01*
X-319194Y-108084D01*
D02*
G37*
G36*
X-158052Y183683D02*
X-157858Y183600D01*
X-157608Y183434D01*
X-157580D01*
X-157553Y183378D01*
X-157414Y183239D01*
X-157303Y183017D01*
X-157275Y182878D01*
X-157247Y182740D01*
Y182712D01*
Y182684D01*
X-157275Y182545D01*
X-157358Y182323D01*
X-157497Y182101D01*
X-157553Y182045D01*
X-157691Y181962D01*
X-157914Y181851D01*
X-158080Y181823D01*
X-158247Y181796D01*
X-158330D01*
X-158413Y181823D01*
X-158524D01*
X-158746Y181907D01*
X-158968Y182073D01*
X-158996Y182129D01*
X-159080Y182268D01*
X-159163Y182462D01*
X-159191Y182740D01*
Y182767D01*
X-159163Y182906D01*
X-159107Y183073D01*
X-158968Y183323D01*
Y183350D01*
X-158913Y183378D01*
X-158802Y183517D01*
X-158580Y183656D01*
X-158413Y183683D01*
X-158247Y183711D01*
X-158191D01*
X-158052Y183683D01*
D02*
G37*
G36*
X-218491D02*
X-218296Y183600D01*
X-218046Y183434D01*
X-218019D01*
X-217991Y183378D01*
X-217852Y183239D01*
X-217741Y183017D01*
X-217713Y182878D01*
X-217686Y182740D01*
Y182712D01*
Y182684D01*
X-217713Y182545D01*
X-217796Y182323D01*
X-217935Y182101D01*
X-217991Y182045D01*
X-218130Y181962D01*
X-218352Y181851D01*
X-218518Y181823D01*
X-218685Y181796D01*
X-218768D01*
X-218852Y181823D01*
X-218963D01*
X-219185Y181907D01*
X-219407Y182073D01*
X-219435Y182129D01*
X-219518Y182268D01*
X-219601Y182462D01*
X-219629Y182740D01*
Y182767D01*
X-219601Y182906D01*
X-219546Y183073D01*
X-219407Y183323D01*
Y183350D01*
X-219351Y183378D01*
X-219240Y183517D01*
X-219018Y183656D01*
X-218852Y183683D01*
X-218685Y183711D01*
X-218629D01*
X-218491Y183683D01*
D02*
G37*
G36*
X-187591Y172051D02*
X-187369Y171940D01*
X-187258Y171884D01*
X-187147Y171773D01*
X-187119D01*
X-187092Y171718D01*
X-186980Y171579D01*
X-186897Y171357D01*
X-186842Y171246D01*
Y171107D01*
Y171079D01*
Y171052D01*
X-186870Y170913D01*
X-186953Y170691D01*
X-187092Y170469D01*
X-187147Y170413D01*
X-187286Y170330D01*
X-187508Y170219D01*
X-187647Y170191D01*
X-187813Y170163D01*
X-196114D01*
X-196281Y170191D01*
X-196531Y170274D01*
X-196753Y170413D01*
Y170441D01*
X-196781Y170469D01*
X-196864Y170607D01*
X-196975Y170830D01*
X-197003Y171107D01*
Y171135D01*
X-196975Y171274D01*
X-196919Y171440D01*
X-196781Y171690D01*
Y171718D01*
X-196725Y171746D01*
X-196586Y171884D01*
X-196364Y172023D01*
X-196198Y172051D01*
X-196031Y172079D01*
X-187758D01*
X-187591Y172051D01*
D02*
G37*
G36*
X-232955Y172051D02*
X-232733Y171940D01*
X-232622Y171884D01*
X-232511Y171773D01*
X-232483D01*
X-232455Y171718D01*
X-232344Y171579D01*
X-232261Y171357D01*
X-232205Y171246D01*
Y171107D01*
Y171079D01*
Y171052D01*
X-232233Y170913D01*
X-232316Y170691D01*
X-232455Y170469D01*
X-232511Y170413D01*
X-232649Y170330D01*
X-232871Y170219D01*
X-233010Y170191D01*
X-233177Y170163D01*
X-241478D01*
X-241644Y170191D01*
X-241894Y170274D01*
X-242116Y170413D01*
Y170441D01*
X-242144Y170469D01*
X-242227Y170607D01*
X-242338Y170830D01*
X-242366Y171107D01*
Y171135D01*
X-242338Y171274D01*
X-242283Y171440D01*
X-242144Y171690D01*
Y171718D01*
X-242089Y171746D01*
X-241950Y171884D01*
X-241728Y172023D01*
X-241561Y172051D01*
X-241394Y172079D01*
X-233121D01*
X-232955Y172051D01*
D02*
G37*
G36*
X-127819Y178214D02*
X-127569Y178131D01*
X-127347Y177964D01*
X-127319D01*
X-127292Y177909D01*
X-127181Y177798D01*
X-127097Y177576D01*
X-127042Y177437D01*
Y177298D01*
Y177243D01*
Y177159D01*
X-127070Y177020D01*
X-127097Y176937D01*
X-130512Y164777D01*
Y164750D01*
X-130568Y164666D01*
X-130623Y164527D01*
X-130707Y164389D01*
X-130845Y164250D01*
X-131012Y164111D01*
X-131206Y164028D01*
X-131456Y164000D01*
X-131512D01*
X-131650Y164028D01*
X-131817Y164083D01*
X-132011Y164167D01*
X-132039Y164194D01*
X-132150Y164305D01*
X-132261Y164500D01*
X-132400Y164777D01*
X-135815Y177020D01*
X-135843Y177270D01*
Y177298D01*
Y177326D01*
X-135815Y177465D01*
X-135731Y177659D01*
X-135565Y177909D01*
Y177937D01*
X-135509Y177964D01*
X-135371Y178076D01*
X-135148Y178186D01*
X-135010Y178242D01*
X-134815D01*
X-134704Y178214D01*
X-134565Y178186D01*
X-134399Y178076D01*
X-134343Y178048D01*
X-134232Y177964D01*
X-134094Y177798D01*
X-134010Y177659D01*
X-133927Y177520D01*
X-131456Y167887D01*
X-128985Y177493D01*
X-128958Y177548D01*
X-128902Y177659D01*
X-128819Y177826D01*
X-128680Y177992D01*
X-128624Y178020D01*
X-128513Y178103D01*
X-128319Y178186D01*
X-128069Y178242D01*
X-127986D01*
X-127819Y178214D01*
D02*
G37*
G36*
X-222627D02*
X-222405Y178131D01*
X-222183Y177964D01*
X-222155D01*
X-222127Y177909D01*
X-222016Y177798D01*
X-221905Y177576D01*
X-221850Y177437D01*
Y177270D01*
Y164944D01*
Y164916D01*
X-221878Y164805D01*
X-221905Y164639D01*
X-221961Y164472D01*
X-222100Y164305D01*
X-222266Y164139D01*
X-222516Y164028D01*
X-222849Y164000D01*
X-227708D01*
X-227874Y164028D01*
X-228096Y164056D01*
X-228402Y164111D01*
X-228735Y164222D01*
X-229096Y164361D01*
X-229457Y164583D01*
X-229790Y164861D01*
X-229818Y164888D01*
X-229929Y165027D01*
X-230067Y165194D01*
X-230206Y165444D01*
X-230373Y165749D01*
X-230512Y166138D01*
X-230623Y166554D01*
X-230650Y166998D01*
Y177270D01*
Y177298D01*
Y177326D01*
X-230623Y177465D01*
X-230539Y177687D01*
X-230373Y177909D01*
Y177937D01*
X-230317Y177964D01*
X-230179Y178075D01*
X-229984Y178186D01*
X-229845Y178242D01*
X-229651D01*
X-229484Y178214D01*
X-229262Y178131D01*
X-229040Y177964D01*
X-229013D01*
X-228985Y177909D01*
X-228874Y177798D01*
X-228763Y177576D01*
X-228707Y177437D01*
Y177270D01*
Y166998D01*
Y166971D01*
Y166915D01*
X-228679Y166832D01*
Y166721D01*
X-228568Y166471D01*
X-228513Y166332D01*
X-228402Y166221D01*
X-228374D01*
X-228346Y166166D01*
X-228180Y166082D01*
X-227957Y165971D01*
X-227819Y165943D01*
X-227652Y165916D01*
X-223793D01*
Y177270D01*
Y177298D01*
Y177326D01*
X-223765Y177465D01*
X-223682Y177687D01*
X-223516Y177909D01*
Y177937D01*
X-223460Y177964D01*
X-223321Y178076D01*
X-223127Y178186D01*
X-222988Y178242D01*
X-222794D01*
X-222627Y178214D01*
D02*
G37*
G36*
X-119546Y183683D02*
X-119324Y183600D01*
X-119074Y183434D01*
X-119046D01*
X-119019Y183378D01*
X-118908Y183267D01*
X-118824Y183045D01*
X-118769Y182906D01*
Y182767D01*
Y164944D01*
Y164916D01*
Y164861D01*
X-118797Y164694D01*
X-118880Y164472D01*
X-119046Y164250D01*
X-119102Y164222D01*
X-119241Y164139D01*
X-119491Y164028D01*
X-119768Y164000D01*
X-119796D01*
X-119907Y164028D01*
X-120101Y164083D01*
X-120379Y164167D01*
X-120435Y164222D01*
X-120546Y164361D01*
X-120657Y164611D01*
X-120684Y164777D01*
X-120712Y164944D01*
Y180824D01*
X-123183Y177964D01*
X-123238Y177909D01*
X-123377Y177826D01*
X-123572Y177742D01*
X-123849Y177687D01*
X-123905D01*
X-124099Y177715D01*
X-124321Y177798D01*
X-124543Y177964D01*
X-124599Y178020D01*
X-124682Y178159D01*
X-124765Y178381D01*
X-124821Y178659D01*
Y178686D01*
X-124793Y178797D01*
X-124710Y178992D01*
X-124654Y179130D01*
X-124571Y179297D01*
X-120462Y183434D01*
X-120407Y183489D01*
X-120268Y183572D01*
X-120074Y183656D01*
X-119796Y183711D01*
X-119713D01*
X-119546Y183683D01*
D02*
G37*
G36*
X-148891Y178186D02*
X-148585Y178131D01*
X-148252Y178020D01*
X-147891Y177881D01*
X-147530Y177659D01*
X-147197Y177354D01*
X-147170Y177326D01*
X-147058Y177187D01*
X-146920Y177020D01*
X-146725Y176743D01*
X-146559Y176437D01*
X-146420Y176077D01*
X-146309Y175660D01*
X-146281Y175216D01*
Y164944D01*
Y164916D01*
Y164861D01*
X-146309Y164694D01*
X-146392Y164472D01*
X-146559Y164250D01*
X-146614Y164222D01*
X-146753Y164139D01*
X-147003Y164028D01*
X-147281Y164000D01*
X-147308D01*
X-147419Y164028D01*
X-147614Y164083D01*
X-147891Y164194D01*
X-147947Y164250D01*
X-148058Y164389D01*
X-148169Y164611D01*
X-148197Y164777D01*
X-148224Y164944D01*
Y175216D01*
Y175244D01*
Y175299D01*
X-148252Y175382D01*
Y175494D01*
X-148363Y175743D01*
X-148447Y175882D01*
X-148558Y175993D01*
X-148585Y176021D01*
X-148613Y176049D01*
X-148780Y176160D01*
X-149030Y176271D01*
X-149168Y176326D01*
X-153138D01*
Y164944D01*
Y164916D01*
Y164861D01*
X-153166Y164694D01*
X-153249Y164472D01*
X-153416Y164250D01*
X-153471Y164222D01*
X-153610Y164139D01*
X-153860Y164028D01*
X-154138Y164000D01*
X-154166D01*
X-154277Y164028D01*
X-154471Y164083D01*
X-154749Y164194D01*
X-154804Y164250D01*
X-154915Y164389D01*
X-155026Y164611D01*
X-155054Y164777D01*
X-155082Y164944D01*
Y177270D01*
Y177326D01*
X-155054Y177437D01*
X-155026Y177576D01*
X-154971Y177770D01*
X-154860Y177937D01*
X-154693Y178103D01*
X-154443Y178214D01*
X-154138Y178242D01*
X-149113D01*
X-148891Y178186D01*
D02*
G37*
G36*
X-158025Y178214D02*
X-157802Y178131D01*
X-157580Y177992D01*
X-157553D01*
X-157525Y177937D01*
X-157414Y177826D01*
X-157303Y177603D01*
X-157247Y177465D01*
Y177298D01*
Y164944D01*
Y164888D01*
X-157275Y164750D01*
X-157358Y164527D01*
X-157525Y164250D01*
X-157553D01*
X-157580Y164222D01*
X-157747Y164139D01*
X-157969Y164028D01*
X-158247Y164000D01*
X-158274D01*
X-158385Y164028D01*
X-158580Y164083D01*
X-158857Y164167D01*
X-158913Y164222D01*
X-159024Y164361D01*
X-159135Y164611D01*
X-159163Y164777D01*
X-159191Y164944D01*
Y177298D01*
Y177354D01*
X-159163Y177493D01*
X-159080Y177687D01*
X-158913Y177909D01*
Y177937D01*
X-158857Y177964D01*
X-158719Y178076D01*
X-158524Y178186D01*
X-158385Y178242D01*
X-158191D01*
X-158025Y178214D01*
D02*
G37*
G36*
X-175015Y178186D02*
X-174710Y178131D01*
X-174377Y178020D01*
X-174016Y177881D01*
X-173655Y177659D01*
X-173321Y177354D01*
X-173294Y177326D01*
X-173183Y177187D01*
X-173044Y177020D01*
X-172850Y176743D01*
X-172683Y176437D01*
X-172544Y176077D01*
X-172433Y175660D01*
X-172405Y175216D01*
Y164944D01*
Y164916D01*
Y164861D01*
X-172433Y164694D01*
X-172516Y164472D01*
X-172683Y164250D01*
X-172738Y164222D01*
X-172877Y164139D01*
X-173127Y164028D01*
X-173405Y164000D01*
X-173433D01*
X-173544Y164028D01*
X-173738Y164083D01*
X-174016Y164194D01*
X-174071Y164250D01*
X-174182Y164389D01*
X-174293Y164611D01*
X-174321Y164777D01*
X-174349Y164944D01*
Y175216D01*
Y175244D01*
Y175299D01*
X-174377Y175382D01*
Y175494D01*
X-174487Y175743D01*
X-174571Y175882D01*
X-174682Y175993D01*
Y176021D01*
X-174737Y176049D01*
X-174904Y176160D01*
X-175126Y176271D01*
X-175293Y176326D01*
X-177875D01*
Y164944D01*
Y164916D01*
Y164861D01*
X-177902Y164694D01*
X-177985Y164472D01*
X-178152Y164250D01*
X-178208Y164222D01*
X-178347Y164139D01*
X-178596Y164028D01*
X-178874Y164000D01*
X-178902D01*
X-179013Y164028D01*
X-179207Y164083D01*
X-179485Y164194D01*
X-179540Y164250D01*
X-179651Y164389D01*
X-179762Y164611D01*
X-179790Y164777D01*
X-179818Y164944D01*
Y176326D01*
X-183344D01*
Y164944D01*
Y164916D01*
Y164861D01*
X-183371Y164694D01*
X-183455Y164472D01*
X-183621Y164250D01*
X-183677Y164222D01*
X-183816Y164139D01*
X-184065Y164028D01*
X-184343Y164000D01*
X-184371D01*
X-184482Y164028D01*
X-184676Y164083D01*
X-184954Y164194D01*
X-185009Y164250D01*
X-185120Y164389D01*
X-185231Y164611D01*
X-185259Y164777D01*
X-185287Y164944D01*
Y177270D01*
Y177326D01*
X-185259Y177437D01*
X-185231Y177576D01*
X-185176Y177770D01*
X-185065Y177937D01*
X-184898Y178103D01*
X-184648Y178214D01*
X-184343Y178242D01*
X-175237D01*
X-175015Y178186D01*
D02*
G37*
G36*
X-202000Y183683D02*
X-201778Y183600D01*
X-201556Y183434D01*
X-201528D01*
X-201500Y183378D01*
X-201389Y183267D01*
X-201278Y183045D01*
X-201222Y182906D01*
Y182740D01*
Y178242D01*
X-199390D01*
X-199224Y178214D01*
X-199002Y178103D01*
X-198890Y178020D01*
X-198779Y177909D01*
X-198752D01*
X-198724Y177853D01*
X-198613Y177715D01*
X-198502Y177520D01*
X-198446Y177381D01*
Y177270D01*
Y177243D01*
Y177215D01*
X-198474Y177076D01*
X-198557Y176854D01*
X-198724Y176632D01*
X-198779Y176576D01*
X-198918Y176493D01*
X-199140Y176382D01*
X-199279Y176354D01*
X-199446Y176326D01*
X-201222D01*
Y164944D01*
Y164916D01*
Y164861D01*
X-201250Y164694D01*
X-201334Y164472D01*
X-201500Y164250D01*
X-201556Y164222D01*
X-201695Y164139D01*
X-201944Y164028D01*
X-202222Y164000D01*
X-202250D01*
X-202361Y164028D01*
X-202555Y164083D01*
X-202833Y164167D01*
X-202888Y164222D01*
X-202999Y164361D01*
X-203110Y164611D01*
X-203138Y164777D01*
X-203166Y164944D01*
Y176326D01*
X-203638D01*
X-203804Y176354D01*
X-204027Y176437D01*
X-204249Y176576D01*
Y176604D01*
X-204276Y176632D01*
X-204360Y176798D01*
X-204471Y177020D01*
X-204498Y177270D01*
Y177298D01*
X-204471Y177437D01*
X-204415Y177603D01*
X-204276Y177853D01*
Y177881D01*
X-204221Y177909D01*
X-204110Y178048D01*
X-203888Y178186D01*
X-203721Y178214D01*
X-203554Y178242D01*
X-203166D01*
Y182740D01*
Y182767D01*
Y182795D01*
X-203138Y182934D01*
X-203055Y183156D01*
X-202888Y183378D01*
Y183406D01*
X-202833Y183434D01*
X-202694Y183545D01*
X-202500Y183656D01*
X-202361Y183711D01*
X-202166D01*
X-202000Y183683D01*
D02*
G37*
G36*
X-209329Y178186D02*
X-209024Y178131D01*
X-208690Y178020D01*
X-208330Y177881D01*
X-207969Y177659D01*
X-207636Y177354D01*
X-207608Y177326D01*
X-207497Y177187D01*
X-207358Y177020D01*
X-207164Y176743D01*
X-206997Y176437D01*
X-206858Y176077D01*
X-206747Y175660D01*
X-206719Y175216D01*
Y164944D01*
Y164916D01*
Y164861D01*
X-206747Y164694D01*
X-206831Y164472D01*
X-206997Y164250D01*
X-207053Y164222D01*
X-207191Y164139D01*
X-207441Y164028D01*
X-207719Y164000D01*
X-207747D01*
X-207858Y164028D01*
X-208052Y164083D01*
X-208330Y164194D01*
X-208385Y164250D01*
X-208496Y164389D01*
X-208607Y164611D01*
X-208635Y164777D01*
X-208663Y164944D01*
Y175216D01*
Y175244D01*
Y175299D01*
X-208690Y175382D01*
Y175494D01*
X-208802Y175743D01*
X-208885Y175882D01*
X-208996Y175993D01*
X-209024Y176021D01*
X-209051Y176049D01*
X-209218Y176160D01*
X-209468Y176271D01*
X-209607Y176326D01*
X-213577D01*
Y164944D01*
Y164916D01*
Y164861D01*
X-213604Y164694D01*
X-213688Y164472D01*
X-213854Y164250D01*
X-213910Y164222D01*
X-214049Y164139D01*
X-214298Y164028D01*
X-214576Y164000D01*
X-214604D01*
X-214715Y164028D01*
X-214909Y164083D01*
X-215187Y164194D01*
X-215242Y164250D01*
X-215354Y164389D01*
X-215464Y164611D01*
X-215492Y164777D01*
X-215520Y164944D01*
Y177270D01*
Y177326D01*
X-215492Y177437D01*
X-215464Y177576D01*
X-215409Y177770D01*
X-215298Y177937D01*
X-215131Y178103D01*
X-214881Y178214D01*
X-214576Y178242D01*
X-209551D01*
X-209329Y178186D01*
D02*
G37*
G36*
X-218463Y178214D02*
X-218241Y178131D01*
X-218019Y177992D01*
X-217991D01*
X-217963Y177937D01*
X-217852Y177826D01*
X-217741Y177603D01*
X-217686Y177465D01*
Y177298D01*
Y164944D01*
Y164888D01*
X-217713Y164750D01*
X-217796Y164527D01*
X-217963Y164250D01*
X-217991D01*
X-218019Y164222D01*
X-218185Y164139D01*
X-218407Y164028D01*
X-218685Y164000D01*
X-218713D01*
X-218824Y164028D01*
X-219018Y164083D01*
X-219296Y164167D01*
X-219351Y164222D01*
X-219462Y164361D01*
X-219573Y164611D01*
X-219601Y164777D01*
X-219629Y164944D01*
Y177298D01*
Y177354D01*
X-219601Y177493D01*
X-219518Y177687D01*
X-219351Y177909D01*
Y177937D01*
X-219296Y177964D01*
X-219157Y178076D01*
X-218963Y178186D01*
X-218824Y178242D01*
X-218629D01*
X-218463Y178214D01*
D02*
G37*
G36*
X-247363Y183683D02*
X-247141Y183600D01*
X-246919Y183433D01*
X-246891D01*
X-246864Y183378D01*
X-246752Y183267D01*
X-246642Y183045D01*
X-246586Y182906D01*
Y182740D01*
Y166998D01*
Y166971D01*
Y166915D01*
X-246558Y166832D01*
Y166721D01*
X-246447Y166471D01*
X-246392Y166332D01*
X-246281Y166221D01*
X-246253D01*
X-246225Y166166D01*
X-246059Y166082D01*
X-245836Y165971D01*
X-245698Y165943D01*
X-245531Y165916D01*
X-244781D01*
X-244615Y165888D01*
X-244393Y165777D01*
X-244254Y165693D01*
X-244143Y165582D01*
X-244115D01*
X-244087Y165527D01*
X-243976Y165388D01*
X-243893Y165194D01*
X-243838Y165055D01*
Y164944D01*
Y164916D01*
Y164888D01*
X-243865Y164750D01*
X-243948Y164527D01*
X-244087Y164305D01*
X-244143Y164250D01*
X-244282Y164167D01*
X-244504Y164056D01*
X-244643Y164028D01*
X-244809Y164000D01*
X-245586D01*
X-245725Y164028D01*
X-245975Y164056D01*
X-246253Y164111D01*
X-246586Y164222D01*
X-246947Y164389D01*
X-247308Y164583D01*
X-247641Y164888D01*
X-247669Y164944D01*
X-247780Y165055D01*
X-247918Y165249D01*
X-248085Y165499D01*
X-248252Y165805D01*
X-248391Y166166D01*
X-248501Y166554D01*
X-248529Y166998D01*
Y182740D01*
Y182767D01*
Y182795D01*
X-248501Y182934D01*
X-248418Y183156D01*
X-248252Y183378D01*
Y183406D01*
X-248196Y183433D01*
X-248057Y183545D01*
X-247863Y183656D01*
X-247724Y183711D01*
X-247530D01*
X-247363Y183683D01*
D02*
G37*
G36*
X-265242D02*
X-265020Y183600D01*
X-264798Y183433D01*
X-264770D01*
X-264742Y183378D01*
X-264631Y183267D01*
X-264520Y183045D01*
X-264465Y182906D01*
Y182740D01*
Y178242D01*
X-262633D01*
X-262466Y178214D01*
X-262244Y178103D01*
X-262133Y178020D01*
X-262022Y177909D01*
X-261994D01*
X-261966Y177853D01*
X-261855Y177715D01*
X-261744Y177520D01*
X-261689Y177381D01*
Y177270D01*
Y177243D01*
Y177215D01*
X-261716Y177076D01*
X-261800Y176854D01*
X-261966Y176632D01*
X-262022Y176576D01*
X-262160Y176493D01*
X-262383Y176382D01*
X-262521Y176354D01*
X-262688Y176326D01*
X-264465D01*
Y164944D01*
Y164916D01*
Y164861D01*
X-264493Y164694D01*
X-264576Y164472D01*
X-264742Y164250D01*
X-264798Y164222D01*
X-264937Y164139D01*
X-265187Y164028D01*
X-265464Y164000D01*
X-265492D01*
X-265603Y164028D01*
X-265797Y164083D01*
X-266075Y164167D01*
X-266131Y164222D01*
X-266242Y164361D01*
X-266353Y164611D01*
X-266380Y164777D01*
X-266408Y164944D01*
Y176326D01*
X-266880D01*
X-267047Y176354D01*
X-267269Y176437D01*
X-267491Y176576D01*
Y176604D01*
X-267519Y176632D01*
X-267602Y176798D01*
X-267713Y177020D01*
X-267741Y177270D01*
Y177298D01*
X-267713Y177437D01*
X-267658Y177603D01*
X-267519Y177853D01*
Y177881D01*
X-267463Y177909D01*
X-267352Y178048D01*
X-267130Y178186D01*
X-266963Y178214D01*
X-266797Y178242D01*
X-266408D01*
Y182740D01*
Y182767D01*
Y182795D01*
X-266380Y182934D01*
X-266297Y183156D01*
X-266131Y183378D01*
Y183406D01*
X-266075Y183433D01*
X-265936Y183545D01*
X-265742Y183656D01*
X-265603Y183711D01*
X-265409D01*
X-265242Y183683D01*
D02*
G37*
G36*
X-272571Y178186D02*
X-272266Y178131D01*
X-271933Y178020D01*
X-271572Y177881D01*
X-271211Y177659D01*
X-270878Y177354D01*
X-270850Y177326D01*
X-270739Y177187D01*
X-270600Y177020D01*
X-270406Y176743D01*
X-270239Y176437D01*
X-270100Y176077D01*
X-269989Y175660D01*
X-269962Y175216D01*
Y164944D01*
Y164916D01*
Y164861D01*
X-269989Y164694D01*
X-270073Y164472D01*
X-270239Y164250D01*
X-270295Y164222D01*
X-270434Y164139D01*
X-270683Y164028D01*
X-270961Y164000D01*
X-270989D01*
X-271100Y164028D01*
X-271294Y164083D01*
X-271572Y164194D01*
X-271627Y164250D01*
X-271738Y164389D01*
X-271849Y164611D01*
X-271877Y164777D01*
X-271905Y164944D01*
Y175216D01*
Y175244D01*
Y175299D01*
X-271933Y175382D01*
Y175494D01*
X-272044Y175743D01*
X-272127Y175882D01*
X-272238Y175993D01*
X-272266Y176021D01*
X-272294Y176049D01*
X-272460Y176160D01*
X-272710Y176271D01*
X-272849Y176326D01*
X-276819D01*
Y164944D01*
Y164916D01*
Y164861D01*
X-276847Y164694D01*
X-276930Y164472D01*
X-277097Y164250D01*
X-277152Y164222D01*
X-277291Y164139D01*
X-277541Y164028D01*
X-277818Y164000D01*
X-277846D01*
X-277957Y164028D01*
X-278152Y164083D01*
X-278429Y164194D01*
X-278485Y164250D01*
X-278596Y164389D01*
X-278707Y164611D01*
X-278735Y164777D01*
X-278762Y164944D01*
Y177270D01*
Y177326D01*
X-278735Y177437D01*
X-278707Y177576D01*
X-278651Y177770D01*
X-278540Y177937D01*
X-278374Y178103D01*
X-278124Y178214D01*
X-277818Y178242D01*
X-272794D01*
X-272571Y178186D01*
D02*
G37*
G36*
X-283565D02*
X-283260Y178131D01*
X-282927Y178020D01*
X-282566Y177881D01*
X-282205Y177659D01*
X-281844Y177354D01*
X-281816Y177326D01*
X-281705Y177187D01*
X-281566Y177020D01*
X-281400Y176743D01*
X-281233Y176437D01*
X-281094Y176077D01*
X-280983Y175660D01*
X-280956Y175216D01*
Y171107D01*
Y171079D01*
X-280983Y170968D01*
X-281011Y170802D01*
X-281094Y170635D01*
X-281205Y170469D01*
X-281400Y170302D01*
X-281650Y170191D01*
X-281983Y170163D01*
X-287813D01*
Y166998D01*
Y166971D01*
Y166915D01*
X-287785Y166832D01*
Y166721D01*
X-287674Y166471D01*
X-287619Y166332D01*
X-287507Y166221D01*
X-287480D01*
X-287452Y166166D01*
X-287285Y166082D01*
X-287063Y165971D01*
X-286924Y165943D01*
X-286758Y165916D01*
X-281900D01*
X-281733Y165888D01*
X-281511Y165777D01*
X-281400Y165721D01*
X-281289Y165610D01*
X-281261D01*
X-281233Y165555D01*
X-281122Y165416D01*
X-281011Y165194D01*
X-280956Y165083D01*
Y164944D01*
Y164916D01*
Y164888D01*
X-280983Y164750D01*
X-281067Y164527D01*
X-281233Y164305D01*
X-281289Y164250D01*
X-281427Y164167D01*
X-281650Y164056D01*
X-281788Y164028D01*
X-281955Y164000D01*
X-286813D01*
X-286980Y164028D01*
X-287202Y164056D01*
X-287507Y164111D01*
X-287841Y164222D01*
X-288202Y164361D01*
X-288562Y164583D01*
X-288895Y164861D01*
X-288923Y164888D01*
X-289034Y165027D01*
X-289173Y165194D01*
X-289312Y165444D01*
X-289478Y165749D01*
X-289617Y166138D01*
X-289728Y166554D01*
X-289756Y166998D01*
Y175216D01*
Y175271D01*
X-289728Y175410D01*
X-289701Y175632D01*
X-289645Y175910D01*
X-289562Y176215D01*
X-289395Y176576D01*
X-289201Y176937D01*
X-288923Y177298D01*
X-288895Y177326D01*
X-288757Y177437D01*
X-288590Y177603D01*
X-288340Y177770D01*
X-288007Y177937D01*
X-287646Y178103D01*
X-287230Y178214D01*
X-286758Y178242D01*
X-283787D01*
X-283565Y178186D01*
D02*
G37*
G36*
X-292727Y183683D02*
X-292505Y183600D01*
X-292283Y183433D01*
X-292255D01*
X-292227Y183378D01*
X-292116Y183267D01*
X-292005Y183045D01*
X-291949Y182906D01*
Y182740D01*
Y164944D01*
Y164916D01*
X-291977Y164805D01*
X-292005Y164639D01*
X-292060Y164472D01*
X-292199Y164305D01*
X-292366Y164139D01*
X-292616Y164028D01*
X-292949Y164000D01*
X-297779D01*
X-297946Y164028D01*
X-298168Y164056D01*
X-298473Y164111D01*
X-298807Y164222D01*
X-299167Y164361D01*
X-299529Y164583D01*
X-299889Y164861D01*
X-299917Y164888D01*
X-300028Y165027D01*
X-300167Y165222D01*
X-300306Y165471D01*
X-300472Y165777D01*
X-300611Y166138D01*
X-300722Y166554D01*
X-300750Y166998D01*
Y175216D01*
Y175244D01*
Y175271D01*
X-300722Y175438D01*
X-300695Y175660D01*
X-300639Y175965D01*
X-300528Y176299D01*
X-300389Y176660D01*
X-300167Y177020D01*
X-299889Y177354D01*
X-299862Y177381D01*
X-299723Y177492D01*
X-299529Y177631D01*
X-299279Y177798D01*
X-298973Y177964D01*
X-298612Y178103D01*
X-298196Y178214D01*
X-297724Y178242D01*
X-293893D01*
Y182740D01*
Y182767D01*
Y182795D01*
X-293865Y182934D01*
X-293782Y183156D01*
X-293615Y183378D01*
Y183406D01*
X-293560Y183433D01*
X-293421Y183545D01*
X-293226Y183656D01*
X-293088Y183711D01*
X-292893D01*
X-292727Y183683D01*
D02*
G37*
G36*
X-162383Y178214D02*
X-162244Y178186D01*
X-162050Y178131D01*
X-161856Y177992D01*
X-161717Y177826D01*
X-161606Y177603D01*
X-161550Y177270D01*
Y166998D01*
Y166971D01*
Y166943D01*
X-161523Y166776D01*
X-161467Y166554D01*
X-161328Y166249D01*
X-161301Y166221D01*
X-161217Y166110D01*
X-161051Y165971D01*
X-160828Y165832D01*
X-160801D01*
X-160718Y165777D01*
X-160606Y165721D01*
X-160468Y165638D01*
X-160357Y165527D01*
X-160245Y165360D01*
X-160162Y165166D01*
X-160135Y164944D01*
Y164916D01*
Y164888D01*
X-160162Y164722D01*
X-160245Y164500D01*
X-160412Y164250D01*
X-160468Y164194D01*
X-160606Y164111D01*
X-160828Y164028D01*
X-161134Y163972D01*
X-161384Y164000D01*
X-161411D01*
X-161439Y164028D01*
X-161634Y164083D01*
X-161884Y164222D01*
X-162161Y164417D01*
X-162189Y164444D01*
X-162272Y164500D01*
X-162383Y164666D01*
X-162467Y164777D01*
X-162550Y164916D01*
X-162577Y164888D01*
X-162661Y164777D01*
X-162827Y164639D01*
X-163050Y164472D01*
X-163355Y164278D01*
X-163688Y164139D01*
X-164104Y164028D01*
X-164604Y164000D01*
X-167408D01*
X-167575Y164028D01*
X-167797Y164056D01*
X-168102Y164111D01*
X-168435Y164222D01*
X-168796Y164361D01*
X-169157Y164583D01*
X-169490Y164861D01*
X-169518Y164888D01*
X-169629Y165027D01*
X-169768Y165194D01*
X-169907Y165444D01*
X-170073Y165749D01*
X-170212Y166138D01*
X-170323Y166554D01*
X-170351Y166998D01*
Y175216D01*
Y175271D01*
X-170323Y175410D01*
X-170295Y175632D01*
X-170240Y175910D01*
X-170157Y176215D01*
X-169990Y176576D01*
X-169796Y176937D01*
X-169518Y177298D01*
X-169490Y177326D01*
X-169352Y177437D01*
X-169185Y177603D01*
X-168935Y177770D01*
X-168602Y177937D01*
X-168241Y178103D01*
X-167825Y178214D01*
X-167353Y178242D01*
X-162494D01*
X-162383Y178214D01*
D02*
G37*
G36*
X-251694Y178214D02*
X-251555Y178186D01*
X-251361Y178131D01*
X-251167Y177992D01*
X-251028Y177826D01*
X-250917Y177603D01*
X-250861Y177270D01*
Y166998D01*
Y166971D01*
Y166943D01*
X-250834Y166776D01*
X-250778Y166554D01*
X-250639Y166249D01*
X-250611Y166221D01*
X-250528Y166110D01*
X-250362Y165971D01*
X-250140Y165832D01*
X-250112D01*
X-250028Y165777D01*
X-249917Y165721D01*
X-249779Y165638D01*
X-249667Y165527D01*
X-249557Y165360D01*
X-249473Y165166D01*
X-249445Y164944D01*
Y164916D01*
Y164888D01*
X-249473Y164722D01*
X-249557Y164500D01*
X-249723Y164250D01*
X-249779Y164194D01*
X-249917Y164111D01*
X-250140Y164028D01*
X-250445Y163972D01*
X-250695Y164000D01*
X-250723D01*
X-250750Y164028D01*
X-250945Y164083D01*
X-251194Y164222D01*
X-251472Y164416D01*
X-251500Y164444D01*
X-251583Y164500D01*
X-251694Y164666D01*
X-251777Y164777D01*
X-251861Y164916D01*
X-251889Y164888D01*
X-251972Y164777D01*
X-252138Y164639D01*
X-252360Y164472D01*
X-252666Y164278D01*
X-252999Y164139D01*
X-253415Y164028D01*
X-253915Y164000D01*
X-256719D01*
X-256886Y164028D01*
X-257108Y164056D01*
X-257413Y164111D01*
X-257746Y164222D01*
X-258107Y164361D01*
X-258468Y164583D01*
X-258801Y164861D01*
X-258829Y164888D01*
X-258940Y165027D01*
X-259079Y165194D01*
X-259218Y165444D01*
X-259384Y165749D01*
X-259523Y166138D01*
X-259634Y166554D01*
X-259662Y166998D01*
Y175216D01*
Y175271D01*
X-259634Y175410D01*
X-259606Y175632D01*
X-259551Y175910D01*
X-259468Y176215D01*
X-259301Y176576D01*
X-259107Y176937D01*
X-258829Y177298D01*
X-258801Y177326D01*
X-258662Y177437D01*
X-258496Y177603D01*
X-258246Y177770D01*
X-257913Y177937D01*
X-257552Y178103D01*
X-257136Y178214D01*
X-256664Y178242D01*
X-251805D01*
X-251694Y178214D01*
D02*
G37*
G36*
X318149Y-290373D02*
X318334Y-290419D01*
X318797Y-290558D01*
X319028Y-290743D01*
X319306Y-290928D01*
X319352Y-290975D01*
X319398Y-291021D01*
X319537Y-291160D01*
X319630Y-291345D01*
X319769Y-291576D01*
X319907Y-291854D01*
X319954Y-292178D01*
X320000Y-292548D01*
Y-292733D01*
X319954Y-292918D01*
X319907Y-293103D01*
X319769Y-293659D01*
X319630Y-293890D01*
X319445Y-294121D01*
X319398Y-294168D01*
X319306Y-294214D01*
X319167Y-294307D01*
X318982Y-294399D01*
X318473Y-294631D01*
X318195Y-294677D01*
X317871Y-294723D01*
X317825D01*
X317779D01*
X317501Y-294677D01*
X317084Y-294492D01*
X316807Y-294399D01*
X316529Y-294214D01*
X316483Y-294168D01*
X316390Y-294121D01*
X316251Y-293983D01*
X316113Y-293797D01*
X315974Y-293566D01*
X315835Y-293288D01*
X315742Y-292918D01*
X315696Y-292548D01*
Y-292409D01*
X315742Y-292224D01*
X315789Y-292039D01*
X315881Y-291807D01*
X315974Y-291530D01*
X316159Y-291298D01*
X316390Y-291021D01*
X316437Y-290975D01*
X316483Y-290928D01*
X316622Y-290789D01*
X316807Y-290651D01*
X317269Y-290419D01*
X317547Y-290373D01*
X317871Y-290327D01*
X317917D01*
X318010D01*
X318149Y-290373D01*
D02*
G37*
G36*
X-317501Y60127D02*
X-317085Y59942D01*
X-316807Y59850D01*
X-316529Y59664D01*
X-316483Y59618D01*
X-316390Y59572D01*
X-316251Y59433D01*
X-316113Y59248D01*
X-315974Y59016D01*
X-315835Y58739D01*
X-315742Y58369D01*
X-315696Y57998D01*
Y57860D01*
X-315742Y57674D01*
X-315789Y57489D01*
X-315881Y57258D01*
X-315974Y56980D01*
X-316159Y56749D01*
X-316390Y56471D01*
X-316437Y56425D01*
X-316483Y56379D01*
X-316622Y56240D01*
X-316807Y56101D01*
X-317270Y55869D01*
X-317547Y55823D01*
X-317871Y55777D01*
X-317917D01*
X-318010D01*
X-318149Y55823D01*
X-318334Y55869D01*
X-318797Y56008D01*
X-319028Y56193D01*
X-319306Y56379D01*
X-319352Y56425D01*
X-319398Y56471D01*
X-319537Y56610D01*
X-319630Y56795D01*
X-319769Y57027D01*
X-319907Y57304D01*
X-319954Y57628D01*
X-320000Y57998D01*
Y58183D01*
X-319954Y58369D01*
X-319907Y58554D01*
X-319769Y59109D01*
X-319630Y59340D01*
X-319445Y59572D01*
X-319398Y59618D01*
X-319306Y59664D01*
X-319167Y59757D01*
X-318982Y59850D01*
X-318473Y60081D01*
X-318195Y60127D01*
X-317871Y60173D01*
X-317825D01*
X-317779D01*
X-317501Y60127D01*
D02*
G37*
G36*
Y-144248D02*
X-317085Y-144433D01*
X-316807Y-144525D01*
X-316529Y-144711D01*
X-316483Y-144757D01*
X-316390Y-144803D01*
X-316251Y-144942D01*
X-316113Y-145127D01*
X-315974Y-145359D01*
X-315835Y-145636D01*
X-315742Y-146006D01*
X-315696Y-146377D01*
Y-146516D01*
X-315742Y-146701D01*
X-315789Y-146886D01*
X-315881Y-147117D01*
X-315974Y-147395D01*
X-316159Y-147626D01*
X-316390Y-147904D01*
X-316437Y-147950D01*
X-316483Y-147997D01*
X-316622Y-148135D01*
X-316807Y-148274D01*
X-317270Y-148505D01*
X-317547Y-148552D01*
X-317871Y-148598D01*
X-317917D01*
X-318010D01*
X-318149Y-148552D01*
X-318334Y-148505D01*
X-318797Y-148367D01*
X-319028Y-148182D01*
X-319306Y-147997D01*
X-319352Y-147950D01*
X-319398Y-147904D01*
X-319537Y-147765D01*
X-319630Y-147580D01*
X-319769Y-147348D01*
X-319907Y-147071D01*
X-319954Y-146747D01*
X-320000Y-146377D01*
Y-146192D01*
X-319954Y-146006D01*
X-319907Y-145821D01*
X-319769Y-145266D01*
X-319630Y-145035D01*
X-319445Y-144803D01*
X-319398Y-144757D01*
X-319306Y-144711D01*
X-319167Y-144618D01*
X-318982Y-144525D01*
X-318473Y-144294D01*
X-318195Y-144248D01*
X-317871Y-144202D01*
X-317825D01*
X-317779D01*
X-317501Y-144248D01*
D02*
G37*
G36*
X318149Y-152610D02*
X318334Y-152657D01*
X318797Y-152795D01*
X319028Y-152981D01*
X319306Y-153166D01*
X319352Y-153212D01*
X319398Y-153258D01*
X319537Y-153397D01*
X319630Y-153582D01*
X319769Y-153814D01*
X319907Y-154091D01*
X319954Y-154415D01*
X320000Y-154785D01*
Y-154971D01*
X319954Y-155156D01*
X319907Y-155341D01*
X319769Y-155896D01*
X319630Y-156128D01*
X319445Y-156359D01*
X319398Y-156405D01*
X319306Y-156452D01*
X319167Y-156544D01*
X318982Y-156637D01*
X318473Y-156868D01*
X318195Y-156914D01*
X317871Y-156961D01*
X317825D01*
X317779D01*
X317501Y-156914D01*
X317084Y-156729D01*
X316807Y-156637D01*
X316529Y-156452D01*
X316483Y-156405D01*
X316390Y-156359D01*
X316251Y-156220D01*
X316113Y-156035D01*
X315974Y-155804D01*
X315835Y-155526D01*
X315742Y-155156D01*
X315696Y-154785D01*
Y-154647D01*
X315742Y-154462D01*
X315789Y-154277D01*
X315881Y-154045D01*
X315974Y-153767D01*
X316159Y-153536D01*
X316390Y-153258D01*
X316437Y-153212D01*
X316483Y-153166D01*
X316622Y-153027D01*
X316807Y-152888D01*
X317269Y-152657D01*
X317547Y-152610D01*
X317871Y-152564D01*
X317917D01*
X318010D01*
X318149Y-152610D01*
D02*
G37*
G36*
X-193001Y-424637D02*
X-192418Y-424896D01*
X-192029Y-425026D01*
X-191640Y-425285D01*
X-191576Y-425350D01*
X-191446Y-425414D01*
X-191252Y-425609D01*
X-191057Y-425868D01*
X-190863Y-426192D01*
X-190668Y-426581D01*
X-190539Y-427099D01*
X-190474Y-427617D01*
Y-427812D01*
X-190539Y-428071D01*
X-190604Y-428330D01*
X-190733Y-428654D01*
X-190863Y-429043D01*
X-191122Y-429367D01*
X-191446Y-429756D01*
X-191511Y-429821D01*
X-191576Y-429885D01*
X-191770Y-430080D01*
X-192029Y-430274D01*
X-192677Y-430598D01*
X-193066Y-430663D01*
X-193519Y-430728D01*
X-193584D01*
X-193714D01*
X-193908Y-430663D01*
X-194167Y-430598D01*
X-194815Y-430404D01*
X-195139Y-430145D01*
X-195528Y-429885D01*
X-195593Y-429821D01*
X-195658Y-429756D01*
X-195852Y-429561D01*
X-195982Y-429302D01*
X-196176Y-428978D01*
X-196370Y-428589D01*
X-196435Y-428136D01*
X-196500Y-427617D01*
Y-427358D01*
X-196435Y-427099D01*
X-196370Y-426840D01*
X-196176Y-426062D01*
X-195982Y-425738D01*
X-195722Y-425414D01*
X-195658Y-425350D01*
X-195528Y-425285D01*
X-195334Y-425155D01*
X-195075Y-425026D01*
X-194362Y-424702D01*
X-193973Y-424637D01*
X-193519Y-424572D01*
X-193455D01*
X-193390D01*
X-193001Y-424637D01*
D02*
G37*
G36*
X-317501Y-54560D02*
X-317085Y-54745D01*
X-316807Y-54838D01*
X-316529Y-55023D01*
X-316483Y-55069D01*
X-316390Y-55116D01*
X-316251Y-55255D01*
X-316113Y-55440D01*
X-315974Y-55671D01*
X-315835Y-55949D01*
X-315742Y-56319D01*
X-315696Y-56689D01*
Y-56828D01*
X-315742Y-57013D01*
X-315789Y-57198D01*
X-315881Y-57430D01*
X-315974Y-57707D01*
X-316159Y-57939D01*
X-316390Y-58216D01*
X-316437Y-58263D01*
X-316483Y-58309D01*
X-316622Y-58448D01*
X-316807Y-58587D01*
X-317270Y-58818D01*
X-317547Y-58864D01*
X-317871Y-58911D01*
X-317917D01*
X-318010D01*
X-318149Y-58864D01*
X-318334Y-58818D01*
X-318797Y-58679D01*
X-319028Y-58494D01*
X-319306Y-58309D01*
X-319352Y-58263D01*
X-319398Y-58216D01*
X-319537Y-58078D01*
X-319630Y-57892D01*
X-319769Y-57661D01*
X-319907Y-57383D01*
X-319954Y-57059D01*
X-320000Y-56689D01*
Y-56504D01*
X-319954Y-56319D01*
X-319907Y-56134D01*
X-319769Y-55578D01*
X-319630Y-55347D01*
X-319445Y-55116D01*
X-319398Y-55069D01*
X-319306Y-55023D01*
X-319167Y-54931D01*
X-318982Y-54838D01*
X-318473Y-54607D01*
X-318195Y-54560D01*
X-317871Y-54514D01*
X-317825D01*
X-317779D01*
X-317501Y-54560D01*
D02*
G37*
G36*
X66800Y-232892D02*
X66985Y-232938D01*
X67217Y-233031D01*
X67494Y-233123D01*
X67726Y-233309D01*
X68003Y-233540D01*
X68050Y-233586D01*
X68096Y-233633D01*
X68235Y-233771D01*
X68373Y-233957D01*
X68605Y-234419D01*
X68651Y-234697D01*
X68697Y-235021D01*
Y-235067D01*
Y-235160D01*
X68651Y-235299D01*
X68605Y-235484D01*
X68466Y-235947D01*
X68281Y-236178D01*
X68096Y-236456D01*
X68050Y-236502D01*
X68003Y-236548D01*
X67864Y-236687D01*
X67679Y-236779D01*
X67448Y-236918D01*
X67170Y-237057D01*
X66846Y-237104D01*
X66476Y-237150D01*
X66291D01*
X66106Y-237104D01*
X65921Y-237057D01*
X65365Y-236918D01*
X65134Y-236779D01*
X64903Y-236594D01*
X64856Y-236548D01*
X64810Y-236456D01*
X64717Y-236317D01*
X64625Y-236132D01*
X64394Y-235623D01*
X64347Y-235345D01*
X64301Y-235021D01*
Y-234975D01*
Y-234928D01*
X64347Y-234651D01*
X64532Y-234234D01*
X64625Y-233957D01*
X64810Y-233679D01*
X64856Y-233633D01*
X64903Y-233540D01*
X65041Y-233401D01*
X65226Y-233262D01*
X65458Y-233123D01*
X65736Y-232985D01*
X66106Y-232892D01*
X66476Y-232846D01*
X66615D01*
X66800Y-232892D01*
D02*
G37*
G36*
X-74700D02*
X-74515Y-232938D01*
X-74283Y-233031D01*
X-74006Y-233123D01*
X-73774Y-233309D01*
X-73497Y-233540D01*
X-73450Y-233586D01*
X-73404Y-233633D01*
X-73265Y-233771D01*
X-73127Y-233957D01*
X-72895Y-234419D01*
X-72849Y-234697D01*
X-72803Y-235021D01*
Y-235067D01*
Y-235160D01*
X-72849Y-235299D01*
X-72895Y-235484D01*
X-73034Y-235947D01*
X-73219Y-236178D01*
X-73404Y-236456D01*
X-73450Y-236502D01*
X-73497Y-236548D01*
X-73636Y-236687D01*
X-73821Y-236779D01*
X-74052Y-236918D01*
X-74330Y-237057D01*
X-74654Y-237104D01*
X-75024Y-237150D01*
X-75209D01*
X-75394Y-237104D01*
X-75579Y-237057D01*
X-76135Y-236918D01*
X-76366Y-236779D01*
X-76597Y-236594D01*
X-76644Y-236548D01*
X-76690Y-236456D01*
X-76782Y-236317D01*
X-76875Y-236132D01*
X-77106Y-235623D01*
X-77153Y-235345D01*
X-77199Y-235021D01*
Y-234975D01*
Y-234928D01*
X-77153Y-234651D01*
X-76968Y-234234D01*
X-76875Y-233957D01*
X-76690Y-233679D01*
X-76644Y-233633D01*
X-76597Y-233540D01*
X-76459Y-233401D01*
X-76273Y-233262D01*
X-76042Y-233123D01*
X-75764Y-232985D01*
X-75394Y-232892D01*
X-75024Y-232846D01*
X-74885D01*
X-74700Y-232892D01*
D02*
G37*
G36*
X-193001Y-514137D02*
X-192418Y-514396D01*
X-192029Y-514526D01*
X-191640Y-514785D01*
X-191576Y-514850D01*
X-191446Y-514914D01*
X-191252Y-515109D01*
X-191057Y-515368D01*
X-190863Y-515692D01*
X-190668Y-516081D01*
X-190539Y-516599D01*
X-190474Y-517117D01*
Y-517312D01*
X-190539Y-517571D01*
X-190604Y-517830D01*
X-190733Y-518154D01*
X-190863Y-518543D01*
X-191122Y-518867D01*
X-191446Y-519256D01*
X-191511Y-519320D01*
X-191576Y-519385D01*
X-191770Y-519580D01*
X-192029Y-519774D01*
X-192677Y-520098D01*
X-193066Y-520163D01*
X-193519Y-520228D01*
X-193584D01*
X-193714D01*
X-193908Y-520163D01*
X-194167Y-520098D01*
X-194815Y-519904D01*
X-195139Y-519644D01*
X-195528Y-519385D01*
X-195593Y-519320D01*
X-195658Y-519256D01*
X-195852Y-519061D01*
X-195982Y-518802D01*
X-196176Y-518478D01*
X-196370Y-518089D01*
X-196435Y-517636D01*
X-196500Y-517117D01*
Y-516858D01*
X-196435Y-516599D01*
X-196370Y-516340D01*
X-196176Y-515562D01*
X-195982Y-515238D01*
X-195723Y-514914D01*
X-195658Y-514850D01*
X-195528Y-514785D01*
X-195334Y-514655D01*
X-195075Y-514526D01*
X-194362Y-514202D01*
X-193973Y-514137D01*
X-193519Y-514072D01*
X-193455D01*
X-193390D01*
X-193001Y-514137D01*
D02*
G37*
G36*
X-80358Y-486797D02*
X-80173Y-486843D01*
X-79618Y-486982D01*
X-79386Y-487121D01*
X-79155Y-487306D01*
X-79109Y-487352D01*
X-79062Y-487445D01*
X-78970Y-487584D01*
X-78877Y-487769D01*
X-78646Y-488278D01*
X-78600Y-488555D01*
X-78553Y-488879D01*
Y-488926D01*
Y-488972D01*
X-78600Y-489250D01*
X-78785Y-489666D01*
X-78877Y-489944D01*
X-79062Y-490221D01*
X-79109Y-490268D01*
X-79155Y-490360D01*
X-79294Y-490499D01*
X-79479Y-490638D01*
X-79710Y-490777D01*
X-79988Y-490916D01*
X-80358Y-491008D01*
X-80729Y-491054D01*
X-80867D01*
X-81052Y-491008D01*
X-81238Y-490962D01*
X-81469Y-490869D01*
X-81747Y-490777D01*
X-81978Y-490592D01*
X-82256Y-490360D01*
X-82302Y-490314D01*
X-82348Y-490268D01*
X-82487Y-490129D01*
X-82626Y-489944D01*
X-82857Y-489481D01*
X-82904Y-489203D01*
X-82950Y-488879D01*
Y-488833D01*
Y-488741D01*
X-82904Y-488602D01*
X-82857Y-488417D01*
X-82718Y-487954D01*
X-82533Y-487723D01*
X-82348Y-487445D01*
X-82302Y-487398D01*
X-82256Y-487352D01*
X-82117Y-487213D01*
X-81932Y-487121D01*
X-81700Y-486982D01*
X-81423Y-486843D01*
X-81099Y-486797D01*
X-80729Y-486751D01*
X-80543D01*
X-80358Y-486797D01*
D02*
G37*
G36*
X130301Y-61966D02*
X130486Y-62013D01*
X130717Y-62105D01*
X130995Y-62198D01*
X131226Y-62383D01*
X131504Y-62614D01*
X131550Y-62660D01*
X131597Y-62707D01*
X131735Y-62846D01*
X131874Y-63031D01*
X132106Y-63493D01*
X132152Y-63771D01*
X132198Y-64095D01*
Y-64141D01*
Y-64234D01*
X132152Y-64373D01*
X132106Y-64558D01*
X131967Y-65021D01*
X131782Y-65252D01*
X131597Y-65530D01*
X131550Y-65576D01*
X131504Y-65622D01*
X131365Y-65761D01*
X131180Y-65854D01*
X130949Y-65993D01*
X130671Y-66131D01*
X130347Y-66178D01*
X129977Y-66224D01*
X129792D01*
X129607Y-66178D01*
X129422Y-66131D01*
X128866Y-65993D01*
X128635Y-65854D01*
X128403Y-65669D01*
X128357Y-65622D01*
X128311Y-65530D01*
X128218Y-65391D01*
X128126Y-65206D01*
X127894Y-64697D01*
X127848Y-64419D01*
X127802Y-64095D01*
Y-64049D01*
Y-64003D01*
X127848Y-63725D01*
X128033Y-63308D01*
X128126Y-63031D01*
X128311Y-62753D01*
X128357Y-62707D01*
X128403Y-62614D01*
X128542Y-62475D01*
X128727Y-62337D01*
X128959Y-62198D01*
X129236Y-62059D01*
X129607Y-61966D01*
X129977Y-61920D01*
X130116D01*
X130301Y-61966D01*
D02*
G37*
G36*
X318149Y-14848D02*
X318334Y-14894D01*
X318797Y-15033D01*
X319028Y-15218D01*
X319306Y-15403D01*
X319352Y-15450D01*
X319398Y-15496D01*
X319537Y-15635D01*
X319630Y-15820D01*
X319769Y-16051D01*
X319907Y-16329D01*
X319954Y-16653D01*
X320000Y-17023D01*
Y-17208D01*
X319954Y-17393D01*
X319907Y-17579D01*
X319769Y-18134D01*
X319630Y-18365D01*
X319445Y-18597D01*
X319398Y-18643D01*
X319306Y-18689D01*
X319167Y-18782D01*
X318982Y-18874D01*
X318473Y-19106D01*
X318195Y-19152D01*
X317871Y-19198D01*
X317825D01*
X317779D01*
X317501Y-19152D01*
X317084Y-18967D01*
X316807Y-18874D01*
X316529Y-18689D01*
X316483Y-18643D01*
X316390Y-18597D01*
X316251Y-18458D01*
X316113Y-18273D01*
X315974Y-18041D01*
X315835Y-17764D01*
X315742Y-17393D01*
X315696Y-17023D01*
Y-16884D01*
X315742Y-16699D01*
X315789Y-16514D01*
X315881Y-16283D01*
X315974Y-16005D01*
X316159Y-15774D01*
X316390Y-15496D01*
X316437Y-15450D01*
X316483Y-15403D01*
X316622Y-15265D01*
X316807Y-15126D01*
X317269Y-14894D01*
X317547Y-14848D01*
X317871Y-14802D01*
X317917D01*
X318010D01*
X318149Y-14848D01*
D02*
G37*
G36*
X51857Y-374600D02*
X52273Y-374785D01*
X52551Y-374878D01*
X52829Y-375063D01*
X52875Y-375109D01*
X52968Y-375156D01*
X53106Y-375295D01*
X53245Y-375480D01*
X53384Y-375711D01*
X53523Y-375989D01*
X53615Y-376359D01*
X53662Y-376729D01*
Y-376868D01*
X53615Y-377053D01*
X53569Y-377238D01*
X53477Y-377470D01*
X53384Y-377747D01*
X53199Y-377979D01*
X52968Y-378256D01*
X52921Y-378303D01*
X52875Y-378349D01*
X52736Y-378488D01*
X52551Y-378627D01*
X52088Y-378858D01*
X51811Y-378904D01*
X51487Y-378951D01*
X51440D01*
X51348D01*
X51209Y-378904D01*
X51024Y-378858D01*
X50561Y-378719D01*
X50330Y-378534D01*
X50052Y-378349D01*
X50006Y-378303D01*
X49959Y-378256D01*
X49821Y-378118D01*
X49728Y-377933D01*
X49589Y-377701D01*
X49450Y-377423D01*
X49404Y-377099D01*
X49358Y-376729D01*
Y-376544D01*
X49404Y-376359D01*
X49450Y-376174D01*
X49589Y-375619D01*
X49728Y-375387D01*
X49913Y-375156D01*
X49959Y-375109D01*
X50052Y-375063D01*
X50191Y-374971D01*
X50376Y-374878D01*
X50885Y-374647D01*
X51163Y-374600D01*
X51487Y-374554D01*
X51533D01*
X51579D01*
X51857Y-374600D01*
D02*
G37*
%LPC*%
G36*
X-10434Y-241954D02*
X-14238D01*
Y-249617D01*
X-10268D01*
X-10074Y-249589D01*
X-9851Y-249534D01*
X-9574Y-249450D01*
X-9269Y-249311D01*
X-8963Y-249145D01*
X-8686Y-248923D01*
X-8658Y-248895D01*
X-8575Y-248784D01*
X-8436Y-248645D01*
X-8297Y-248451D01*
X-8186Y-248201D01*
X-8047Y-247896D01*
X-7964Y-247562D01*
X-7936Y-247174D01*
Y-244425D01*
Y-244370D01*
Y-244259D01*
X-7964Y-244064D01*
X-8019Y-243842D01*
X-8130Y-243565D01*
X-8241Y-243287D01*
X-8436Y-242982D01*
X-8686Y-242704D01*
X-8713Y-242676D01*
X-8824Y-242593D01*
X-8963Y-242454D01*
X-9185Y-242315D01*
X-9435Y-242204D01*
X-9740Y-242066D01*
X-10074Y-241982D01*
X-10434Y-241954D01*
D02*
G37*
G36*
X-24149Y-243870D02*
X-26287Y-252337D01*
X-22039D01*
X-24149Y-243870D01*
D02*
G37*
G36*
X177271Y-241204D02*
X175744D01*
X175549Y-241232D01*
X175299Y-241288D01*
X175022Y-241371D01*
X174744Y-241510D01*
X174439Y-241676D01*
X174161Y-241926D01*
X174133Y-241954D01*
X174050Y-242065D01*
X173939Y-242204D01*
X173828Y-242426D01*
X173689Y-242676D01*
X173578Y-242981D01*
X173495Y-243314D01*
X173467Y-243675D01*
Y-254641D01*
Y-254697D01*
Y-254808D01*
X173495Y-255002D01*
X173550Y-255224D01*
X173634Y-255502D01*
X173773Y-255780D01*
X173939Y-256085D01*
X174189Y-256363D01*
X174217Y-256390D01*
X174328Y-256474D01*
X174467Y-256585D01*
X174689Y-256723D01*
X174939Y-256862D01*
X175244Y-256973D01*
X175549Y-257057D01*
X175910Y-257084D01*
X177437D01*
X177631Y-257057D01*
X177854Y-257001D01*
X178131Y-256918D01*
X178437Y-256779D01*
X178742Y-256612D01*
X179020Y-256390D01*
X179047Y-256363D01*
X179131Y-256252D01*
X179270Y-256113D01*
X179408Y-255918D01*
X179519Y-255669D01*
X179658Y-255363D01*
X179741Y-255030D01*
X179769Y-254641D01*
Y-243675D01*
Y-243620D01*
Y-243509D01*
X179741Y-243314D01*
X179686Y-243092D01*
X179575Y-242815D01*
X179464Y-242537D01*
X179270Y-242232D01*
X179020Y-241954D01*
X178992Y-241926D01*
X178881Y-241843D01*
X178742Y-241704D01*
X178520Y-241565D01*
X178270Y-241454D01*
X177965Y-241315D01*
X177631Y-241232D01*
X177271Y-241204D01*
D02*
G37*
G36*
X164916D02*
X163389D01*
X163195Y-241232D01*
X162945Y-241288D01*
X162668Y-241371D01*
X162390Y-241510D01*
X162085Y-241676D01*
X161807Y-241926D01*
X161779Y-241954D01*
X161696Y-242065D01*
X161585Y-242204D01*
X161474Y-242426D01*
X161335Y-242676D01*
X161224Y-242981D01*
X161141Y-243314D01*
X161113Y-243675D01*
Y-254641D01*
Y-254697D01*
Y-254808D01*
X161141Y-255002D01*
X161196Y-255224D01*
X161280Y-255502D01*
X161418Y-255780D01*
X161585Y-256085D01*
X161835Y-256363D01*
X161863Y-256390D01*
X161974Y-256474D01*
X162113Y-256585D01*
X162334Y-256723D01*
X162584Y-256862D01*
X162890Y-256973D01*
X163195Y-257057D01*
X163556Y-257084D01*
X165083D01*
X165277Y-257057D01*
X165499Y-257001D01*
X165777Y-256918D01*
X166082Y-256779D01*
X166388Y-256612D01*
X166665Y-256390D01*
X166693Y-256363D01*
X166777Y-256252D01*
X166915Y-256113D01*
X167054Y-255918D01*
X167165Y-255669D01*
X167304Y-255363D01*
X167387Y-255030D01*
X167415Y-254641D01*
Y-243675D01*
Y-243620D01*
Y-243509D01*
X167387Y-243314D01*
X167332Y-243092D01*
X167221Y-242815D01*
X167110Y-242537D01*
X166915Y-242232D01*
X166665Y-241954D01*
X166638Y-241926D01*
X166527Y-241843D01*
X166388Y-241704D01*
X166166Y-241565D01*
X165916Y-241454D01*
X165611Y-241315D01*
X165277Y-241232D01*
X164916Y-241204D01*
D02*
G37*
G36*
X152562Y-249394D02*
X148759D01*
Y-254614D01*
Y-254669D01*
Y-254780D01*
X148787Y-254974D01*
X148842Y-255224D01*
X148925Y-255502D01*
X149064Y-255780D01*
X149231Y-256085D01*
X149481Y-256363D01*
X149508Y-256390D01*
X149620Y-256474D01*
X149758Y-256585D01*
X149980Y-256723D01*
X150230Y-256862D01*
X150508Y-256973D01*
X150841Y-257057D01*
X151174Y-257084D01*
X152729D01*
X152923Y-257057D01*
X153173Y-257001D01*
X153451Y-256918D01*
X153728Y-256779D01*
X154034Y-256612D01*
X154311Y-256390D01*
X154339Y-256363D01*
X154422Y-256252D01*
X154533Y-256113D01*
X154672Y-255891D01*
X154811Y-255641D01*
X154922Y-255335D01*
X155005Y-255002D01*
X155033Y-254614D01*
Y-251865D01*
Y-251810D01*
Y-251698D01*
X155005Y-251504D01*
X154950Y-251282D01*
X154867Y-251005D01*
X154728Y-250727D01*
X154561Y-250422D01*
X154311Y-250144D01*
X154284Y-250116D01*
X154172Y-250033D01*
X154034Y-249894D01*
X153812Y-249755D01*
X153562Y-249644D01*
X153256Y-249505D01*
X152923Y-249422D01*
X152562Y-249394D01*
D02*
G37*
G36*
X115500Y-243120D02*
X113362Y-251588D01*
X117610D01*
X115500Y-243120D01*
D02*
G37*
G36*
X334837Y-233674D02*
X326370Y-235784D01*
X334837Y-237922D01*
Y-233674D01*
D02*
G37*
G36*
Y-95912D02*
X326370Y-98022D01*
X334837Y-100160D01*
Y-95912D01*
D02*
G37*
G36*
Y41851D02*
X326370Y39741D01*
X334837Y37603D01*
Y41851D01*
D02*
G37*
G36*
X-324609Y-538255D02*
X-335575D01*
X-335630D01*
X-335741D01*
X-335936Y-538282D01*
X-336158Y-538338D01*
X-336435Y-538449D01*
X-336713Y-538560D01*
X-337018Y-538754D01*
X-337296Y-539004D01*
X-337324Y-539032D01*
X-337407Y-539143D01*
X-337546Y-539282D01*
X-337685Y-539504D01*
X-337796Y-539754D01*
X-337934Y-540059D01*
X-338018Y-540392D01*
X-338046Y-540753D01*
Y-542280D01*
X-338018Y-542475D01*
X-337962Y-542724D01*
X-337879Y-543002D01*
X-337740Y-543280D01*
X-337574Y-543585D01*
X-337324Y-543863D01*
X-337296Y-543890D01*
X-337185Y-543974D01*
X-337046Y-544085D01*
X-336824Y-544196D01*
X-336574Y-544334D01*
X-336269Y-544446D01*
X-335936Y-544529D01*
X-335575Y-544557D01*
X-324609D01*
X-324553D01*
X-324442D01*
X-324248Y-544529D01*
X-324026Y-544473D01*
X-323748Y-544390D01*
X-323470Y-544251D01*
X-323165Y-544085D01*
X-322887Y-543835D01*
X-322860Y-543807D01*
X-322776Y-543696D01*
X-322665Y-543557D01*
X-322527Y-543335D01*
X-322388Y-543085D01*
X-322277Y-542780D01*
X-322193Y-542475D01*
X-322166Y-542114D01*
Y-540587D01*
X-322193Y-540392D01*
X-322249Y-540170D01*
X-322332Y-539893D01*
X-322471Y-539587D01*
X-322638Y-539282D01*
X-322860Y-539004D01*
X-322887Y-538976D01*
X-322999Y-538893D01*
X-323137Y-538754D01*
X-323332Y-538615D01*
X-323582Y-538504D01*
X-323887Y-538366D01*
X-324220Y-538282D01*
X-324609Y-538255D01*
D02*
G37*
G36*
Y-449005D02*
X-335575D01*
X-335630D01*
X-335741D01*
X-335936Y-449032D01*
X-336158Y-449088D01*
X-336435Y-449199D01*
X-336713Y-449310D01*
X-337018Y-449504D01*
X-337296Y-449754D01*
X-337324Y-449782D01*
X-337407Y-449893D01*
X-337546Y-450032D01*
X-337685Y-450254D01*
X-337796Y-450504D01*
X-337934Y-450809D01*
X-338018Y-451142D01*
X-338046Y-451503D01*
Y-453030D01*
X-338018Y-453224D01*
X-337962Y-453474D01*
X-337879Y-453752D01*
X-337740Y-454030D01*
X-337574Y-454335D01*
X-337324Y-454613D01*
X-337296Y-454640D01*
X-337185Y-454724D01*
X-337046Y-454835D01*
X-336824Y-454946D01*
X-336574Y-455084D01*
X-336269Y-455196D01*
X-335936Y-455279D01*
X-335575Y-455307D01*
X-324609D01*
X-324553D01*
X-324442D01*
X-324248Y-455279D01*
X-324026Y-455223D01*
X-323748Y-455140D01*
X-323470Y-455001D01*
X-323165Y-454835D01*
X-322887Y-454585D01*
X-322860Y-454557D01*
X-322776Y-454446D01*
X-322665Y-454307D01*
X-322527Y-454085D01*
X-322388Y-453835D01*
X-322277Y-453530D01*
X-322193Y-453224D01*
X-322166Y-452864D01*
Y-451337D01*
X-322193Y-451142D01*
X-322249Y-450920D01*
X-322332Y-450643D01*
X-322471Y-450337D01*
X-322638Y-450032D01*
X-322860Y-449754D01*
X-322887Y-449726D01*
X-322999Y-449643D01*
X-323137Y-449504D01*
X-323332Y-449366D01*
X-323582Y-449254D01*
X-323887Y-449116D01*
X-324220Y-449032D01*
X-324609Y-449005D01*
D02*
G37*
G36*
X-321109Y21988D02*
X-332075D01*
X-332130D01*
X-332241D01*
X-332436Y21960D01*
X-332658Y21904D01*
X-332935Y21793D01*
X-333213Y21682D01*
X-333518Y21488D01*
X-333796Y21238D01*
X-333824Y21210D01*
X-333907Y21099D01*
X-334046Y20961D01*
X-334185Y20738D01*
X-334296Y20489D01*
X-334435Y20183D01*
X-334518Y19850D01*
X-334546Y19489D01*
Y15686D01*
X-318666D01*
Y19656D01*
X-318693Y19850D01*
X-318749Y20072D01*
X-318832Y20350D01*
X-318971Y20655D01*
X-319138Y20961D01*
X-319360Y21238D01*
X-319387Y21266D01*
X-319499Y21349D01*
X-319637Y21488D01*
X-319832Y21627D01*
X-320081Y21738D01*
X-320387Y21877D01*
X-320720Y21960D01*
X-321109Y21988D01*
D02*
G37*
G36*
X-324162Y7885D02*
X-332630Y5774D01*
X-324162Y3637D01*
Y7885D01*
D02*
G37*
G36*
X-283843Y176326D02*
X-286841D01*
X-286924Y176299D01*
X-287008D01*
X-287258Y176188D01*
X-287396Y176104D01*
X-287507Y175993D01*
X-287563Y175938D01*
X-287646Y175771D01*
X-287757Y175549D01*
X-287785Y175382D01*
X-287813Y175216D01*
Y172079D01*
X-282899D01*
Y175216D01*
Y175244D01*
Y175299D01*
X-282927Y175382D01*
Y175494D01*
X-283038Y175743D01*
X-283121Y175854D01*
X-283232Y175993D01*
X-283260Y176021D01*
X-283288Y176049D01*
X-283454Y176160D01*
X-283704Y176271D01*
X-283843Y176326D01*
D02*
G37*
G36*
X-293893D02*
X-297807D01*
X-297890Y176299D01*
X-297974D01*
X-298251Y176188D01*
X-298362Y176104D01*
X-298501Y175993D01*
Y175965D01*
X-298557Y175938D01*
X-298640Y175771D01*
X-298751Y175521D01*
X-298779Y175382D01*
X-298807Y175216D01*
Y166998D01*
Y166971D01*
Y166915D01*
X-298779Y166832D01*
Y166721D01*
X-298668Y166471D01*
X-298612Y166332D01*
X-298501Y166221D01*
X-298473D01*
X-298446Y166166D01*
X-298279Y166082D01*
X-298057Y165971D01*
X-297890Y165943D01*
X-297724Y165916D01*
X-293893D01*
Y176326D01*
D02*
G37*
G36*
X-163494Y176326D02*
X-167436D01*
X-167519Y176299D01*
X-167603D01*
X-167852Y176188D01*
X-167991Y176104D01*
X-168102Y175993D01*
X-168158Y175938D01*
X-168241Y175771D01*
X-168352Y175549D01*
X-168380Y175382D01*
X-168408Y175216D01*
Y166998D01*
Y166971D01*
Y166915D01*
X-168380Y166832D01*
Y166721D01*
X-168269Y166471D01*
X-168213Y166332D01*
X-168102Y166221D01*
X-168074D01*
X-168047Y166166D01*
X-167880Y166082D01*
X-167658Y165971D01*
X-167519Y165943D01*
X-167353Y165916D01*
X-164521D01*
X-164438Y165943D01*
X-164326D01*
X-164077Y166054D01*
X-163938Y166110D01*
X-163827Y166221D01*
X-163799Y166249D01*
X-163771Y166276D01*
X-163660Y166443D01*
X-163549Y166665D01*
X-163494Y166832D01*
Y166998D01*
Y176326D01*
D02*
G37*
G36*
X-252805Y176326D02*
X-256747D01*
X-256830Y176299D01*
X-256914D01*
X-257163Y176188D01*
X-257302Y176104D01*
X-257413Y175993D01*
X-257469Y175938D01*
X-257552Y175771D01*
X-257663Y175549D01*
X-257691Y175382D01*
X-257719Y175216D01*
Y166998D01*
Y166971D01*
Y166915D01*
X-257691Y166832D01*
Y166721D01*
X-257580Y166471D01*
X-257524Y166332D01*
X-257413Y166221D01*
X-257385D01*
X-257358Y166166D01*
X-257191Y166082D01*
X-256969Y165971D01*
X-256830Y165943D01*
X-256664Y165916D01*
X-253832D01*
X-253749Y165943D01*
X-253638D01*
X-253388Y166054D01*
X-253249Y166110D01*
X-253138Y166221D01*
X-253110Y166249D01*
X-253082Y166276D01*
X-252971Y166443D01*
X-252860Y166665D01*
X-252805Y166832D01*
Y166998D01*
Y176326D01*
D02*
G37*
%LPD*%
D10*
X-211250Y-80500D02*
G03*
X-211250Y-80500I-1250J0D01*
G01*
X-152250Y7500D02*
G03*
X-152250Y7500I-1250J0D01*
G01*
X-143250Y-161500D02*
G03*
X-143250Y-161500I-1250J0D01*
G01*
X184999Y37600D02*
G03*
X184999Y37600I-1250J0D01*
G01*
X148999Y59350D02*
G03*
X148999Y59350I-1250J0D01*
G01*
D11*
X-311220Y-299470D02*
G03*
X-311220Y-299470I-1800J0D01*
G01*
Y-209120D02*
G03*
X-311220Y-209120I-1800J0D01*
G01*
D12*
X37499Y-336900D02*
G03*
X21499Y-336900I-8000J-11550D01*
G01*
Y-363900D02*
G03*
X37499Y-363900I8000J11550D01*
G01*
X128749Y72100D02*
G03*
X144749Y72100I8000J11550D01*
G01*
Y99100D02*
G03*
X128749Y99100I-8000J-11550D01*
G01*
X-148501Y85350D02*
G03*
X-127501Y85350I10500J23375D01*
G01*
Y116850D02*
G03*
X-148501Y116850I-10500J-23375D01*
G01*
X-122251Y89350D02*
G03*
X-106251Y89350I8000J11550D01*
G01*
Y116350D02*
G03*
X-122251Y116350I-8000J-11550D01*
G01*
X-160501Y-264150D02*
G03*
X-144501Y-264150I8000J8000D01*
G01*
X-140759Y-264154D02*
G03*
X-124759Y-264154I8000J8000D01*
G01*
X179249Y-13400D02*
G03*
X179249Y-29400I11550J-8000D01*
G01*
X206249D02*
G03*
X206249Y-13400I-11550J8000D01*
G01*
X158499Y-116824D02*
G03*
X158499Y-132824I11550J-8000D01*
G01*
X185499D02*
G03*
X185499Y-116824I-11550J8000D01*
G01*
X-156501Y57600D02*
G03*
X-156501Y73600I-11550J8000D01*
G01*
X-183501D02*
G03*
X-183501Y57600I11550J-8000D01*
G01*
X-151500Y-117500D02*
G03*
X-151500Y-101500I-11550J8000D01*
G01*
X-178500D02*
G03*
X-178500Y-117500I11550J-8000D01*
G01*
X148749Y-422150D02*
G03*
X127749Y-422150I-10500J-23375D01*
G01*
Y-453650D02*
G03*
X148749Y-453650I10500J23375D01*
G01*
X171999Y-557150D02*
G03*
X170999Y-557150I-500J0D01*
G01*
D02*
G03*
X171999Y-557150I500J0D01*
G01*
X-28001Y-502650D02*
G03*
X-28001Y-518650I11550J-8000D01*
G01*
X-1001D02*
G03*
X-1001Y-502650I-11550J8000D01*
G01*
X-28001Y-521650D02*
G03*
X-28001Y-537650I11550J-8000D01*
G01*
X-1001D02*
G03*
X-1001Y-521650I-11550J8000D01*
G01*
X12499Y-493150D02*
G03*
X28499Y-493150I8000J11550D01*
G01*
Y-466150D02*
G03*
X12499Y-466150I-8000J-11550D01*
G01*
X-139251Y37350D02*
X-123251D01*
X-139251Y5350D02*
Y37350D01*
X-123251Y5350D02*
Y37350D01*
X-139251Y5350D02*
X-123251D01*
X-111501Y-391150D02*
Y-359150D01*
X-127501D02*
X-111501D01*
X-127501Y-391150D02*
Y-359150D01*
Y-391150D02*
X-111501D01*
X-92251D02*
Y-359150D01*
X-108251D02*
X-92251D01*
X-108251Y-391150D02*
Y-359150D01*
Y-391150D02*
X-92251D01*
X-43001Y-505650D02*
Y-473650D01*
X-59001D02*
X-43001D01*
X-59001Y-505650D02*
Y-473650D01*
Y-505650D02*
X-43001D01*
X21499Y-363900D02*
Y-336900D01*
X37499Y-363900D02*
Y-336900D01*
X128499Y34600D02*
Y66600D01*
Y34600D02*
X144499D01*
Y66600D01*
X128499D02*
X144499D01*
X-140251Y79100D02*
X-108251D01*
X-140251Y63100D02*
Y79100D01*
Y63100D02*
X-108251D01*
Y79100D01*
X144749Y72100D02*
Y99100D01*
X128749Y72100D02*
Y99100D01*
X207499Y34100D02*
Y66100D01*
X191499D02*
X207499D01*
X191499Y34100D02*
Y66100D01*
Y34100D02*
X207499D01*
X-121251Y5350D02*
Y37350D01*
Y5350D02*
X-105251D01*
Y37350D01*
X-121251D02*
X-105251D01*
X-127501Y85350D02*
Y116850D01*
X-148501Y85350D02*
Y116850D01*
X-106251Y89350D02*
Y116350D01*
X-122251Y89350D02*
Y116350D01*
X-160501Y-264150D02*
Y-235150D01*
X-144501Y-262150D02*
Y-235150D01*
X-160501D02*
X-144501D01*
Y-264150D02*
Y-262150D01*
X-140251Y-59900D02*
Y-27900D01*
Y-59900D02*
X-124251D01*
Y-27900D01*
X-140251D02*
X-124251D01*
X-140759Y-264154D02*
Y-235154D01*
X-124759Y-262154D02*
Y-235154D01*
X-140759D02*
X-124759D01*
Y-264154D02*
Y-262154D01*
X-122751Y-59900D02*
Y-27900D01*
Y-59900D02*
X-106751D01*
Y-27900D01*
X-122751D02*
X-106751D01*
X179249Y-29400D02*
X206249D01*
X179249Y-13400D02*
X206249D01*
X176749Y-33400D02*
X208749D01*
X176749Y-49400D02*
Y-33400D01*
Y-49400D02*
X208749D01*
Y-33400D01*
X158499Y-132824D02*
X185499D01*
X158499Y-116824D02*
X185499D01*
X215749Y-99400D02*
Y-67400D01*
Y-99400D02*
X231749D01*
Y-67400D01*
X215749D02*
X231749D01*
X-183501Y73600D02*
X-156501D01*
X-183501Y57600D02*
X-156501D01*
X-178500Y-101500D02*
X-151500D01*
X-178500Y-117500D02*
X-151500D01*
X127749Y-453650D02*
Y-422150D01*
X148749Y-453650D02*
Y-422150D01*
X-28001Y-518650D02*
X-1001D01*
X-28001Y-502650D02*
X-1001D01*
X-28001Y-537650D02*
X-1001D01*
X-28001Y-521650D02*
X-1001D01*
X-30501Y-499900D02*
X1499D01*
Y-483900D01*
X-30501D02*
X1499D01*
X-30501Y-499900D02*
Y-483900D01*
Y-479400D02*
X1499D01*
Y-463400D01*
X-30501D02*
X1499D01*
X-30501Y-479400D02*
Y-463400D01*
X-3751Y-366400D02*
Y-334400D01*
Y-366400D02*
X12249D01*
Y-334400D01*
X-3751D02*
X12249D01*
X28499Y-493150D02*
Y-466150D01*
X12499Y-493150D02*
Y-466150D01*
D13*
X-39251Y-564900D02*
G03*
X-39251Y-564900I-50000J0D01*
G01*
X50149Y-407900D02*
G03*
X50149Y-415900I0J-4000D01*
G01*
X189000Y-334250D02*
G03*
X189000Y-334250I-50000J0D01*
G01*
X-147000Y-64500D02*
Y-38500D01*
X-211000Y-64500D02*
Y-38500D01*
X-147000D01*
X-211000Y-64500D02*
X-147000D01*
X-228750Y-381500D02*
Y-350500D01*
X-154250Y-381500D02*
X-150750Y-378000D01*
X-156250Y-350500D02*
X-150750Y-356000D01*
Y-378000D02*
Y-356000D01*
X-228750Y-381500D02*
X-202750D01*
X-228750Y-350500D02*
X-202750D01*
X-178750D02*
X-156250D01*
X-178750Y-381500D02*
X-154250D01*
X-228750Y-598250D02*
Y-567250D01*
X-154250Y-598250D02*
X-150750Y-594750D01*
X-156250Y-567250D02*
X-150750Y-572750D01*
Y-594750D02*
Y-572750D01*
X-228750Y-598250D02*
X-202750D01*
X-228750Y-567250D02*
X-202750D01*
X-178750D02*
X-156250D01*
X-178750Y-598250D02*
X-154250D01*
X-223000Y42500D02*
X-160000D01*
X-223000Y7500D02*
X-160000D01*
X-223000D02*
Y8000D01*
Y42000D02*
Y42500D01*
X-183500Y7500D02*
Y42500D01*
X-160000Y7500D02*
Y8000D01*
Y42000D02*
Y42500D01*
X-214000Y-126500D02*
X-151000D01*
X-214000Y-161500D02*
X-151000D01*
X-214000D02*
Y-161000D01*
Y-127000D02*
Y-126500D01*
X-174500Y-161500D02*
Y-126500D01*
X-151000Y-161500D02*
Y-161000D01*
Y-127000D02*
Y-126500D01*
X297749Y-360400D02*
X309499D01*
X297749Y-400400D02*
X309499D01*
Y-360400D01*
X297749Y-405650D02*
Y-404900D01*
X295999Y-475650D02*
X307749D01*
X295999Y-515650D02*
X307749D01*
Y-475650D01*
X295999Y-520900D02*
Y-520150D01*
X-254800Y-324750D02*
Y-309750D01*
X-259800Y-329750D02*
X-254800Y-324750D01*
X-260000Y-304550D02*
X-254800Y-309750D01*
X-259800Y-330150D02*
X-254800Y-335150D01*
Y-350150D02*
Y-335150D01*
X-274800Y-329750D02*
X-259800D01*
X-274600Y-304550D02*
X-260000D01*
X-279800Y-309750D02*
X-274600Y-304550D01*
X-279800Y-324750D02*
Y-309750D01*
Y-335150D02*
X-274800Y-330150D01*
X-279800Y-324750D02*
X-274800Y-329750D01*
X-259800Y-355150D02*
X-254800Y-350150D01*
X-259800Y-355550D02*
X-254800Y-360550D01*
Y-375550D02*
Y-360550D01*
X-259800Y-380550D02*
X-254800Y-375550D01*
X-274800Y-380550D02*
X-259800D01*
X-274800Y-355150D02*
X-259800D01*
X-279800Y-360550D02*
X-274800Y-355550D01*
X-279800Y-350150D02*
X-274800Y-355150D01*
X-279800Y-375550D02*
X-274800Y-380550D01*
X-279800Y-375550D02*
Y-360550D01*
X-280200Y-329750D02*
Y-304750D01*
X-305200D02*
X-280200D01*
X-305200Y-329750D02*
X-280200D01*
X-279800Y-350150D02*
Y-335150D01*
X-280200Y-350150D02*
Y-335150D01*
X-285200Y-330150D02*
X-280200Y-335150D01*
X-305200Y-329750D02*
Y-304750D01*
Y-350150D02*
Y-335150D01*
X-300200Y-330150D01*
X-285200Y-355150D02*
X-280200Y-350150D01*
X-285200Y-355550D02*
X-280200Y-360550D01*
Y-375550D02*
Y-360550D01*
X-285200Y-380550D02*
X-280200Y-375550D01*
X-300200Y-380550D02*
X-285200D01*
X-300200Y-355150D02*
X-285200D01*
X-305200Y-360550D02*
X-300200Y-355550D01*
X-305200Y-350150D02*
X-300200Y-355150D01*
X-305200Y-375550D02*
X-300200Y-380550D01*
X-305200Y-375550D02*
Y-360550D01*
X313000Y-318525D02*
Y-191525D01*
X253500D02*
X313000D01*
X253500Y-318525D02*
X313000D01*
X253500D02*
Y-191525D01*
X-253500Y-18025D02*
Y83975D01*
X-313000D02*
X-253500D01*
X-313000Y-18025D02*
Y83975D01*
Y-18025D02*
X-253500D01*
Y-197400D02*
Y-120400D01*
X-313000D02*
X-253500D01*
X-313000Y-197400D02*
Y-120400D01*
Y-197400D02*
X-253500D01*
X313000Y-180762D02*
Y-53762D01*
X253500D02*
X313000D01*
X253500Y-180762D02*
X313000D01*
X253500D02*
Y-53762D01*
X-313000Y-407400D02*
X-301250D01*
X-313000Y-447400D02*
X-301250D01*
X-313000D02*
Y-407400D01*
X-253500Y-107712D02*
Y-30712D01*
X-313000D02*
X-253500D01*
X-313000Y-107712D02*
Y-30712D01*
Y-107712D02*
X-253500D01*
X-254800Y-234400D02*
Y-219400D01*
X-259800Y-239400D02*
X-254800Y-234400D01*
X-260000Y-214200D02*
X-254800Y-219400D01*
X-259800Y-239800D02*
X-254800Y-244800D01*
Y-259800D02*
Y-244800D01*
X-274800Y-239400D02*
X-259800D01*
X-274600Y-214200D02*
X-260000D01*
X-279800Y-219400D02*
X-274600Y-214200D01*
X-279800Y-234400D02*
Y-219400D01*
Y-244800D02*
X-274800Y-239800D01*
X-279800Y-234400D02*
X-274800Y-239400D01*
X-259800Y-264800D02*
X-254800Y-259800D01*
X-259800Y-265200D02*
X-254800Y-270200D01*
Y-285200D02*
Y-270200D01*
X-259800Y-290200D02*
X-254800Y-285200D01*
X-274800Y-290200D02*
X-259800D01*
X-274800Y-264800D02*
X-259800D01*
X-279800Y-270200D02*
X-274800Y-265200D01*
X-279800Y-259800D02*
X-274800Y-264800D01*
X-279800Y-285200D02*
X-274800Y-290200D01*
X-279800Y-285200D02*
Y-270200D01*
X-280200Y-239400D02*
Y-214400D01*
X-305200D02*
X-280200D01*
X-305200Y-239400D02*
X-280200D01*
X-279800Y-259800D02*
Y-244800D01*
X-280200Y-259800D02*
Y-244800D01*
X-285200Y-239800D02*
X-280200Y-244800D01*
X-305200Y-239400D02*
Y-214400D01*
Y-259800D02*
Y-244800D01*
X-300200Y-239800D01*
X-285200Y-264800D02*
X-280200Y-259800D01*
X-285200Y-265200D02*
X-280200Y-270200D01*
Y-285200D02*
Y-270200D01*
X-285200Y-290200D02*
X-280200Y-285200D01*
X-300200Y-290200D02*
X-285200D01*
X-300200Y-264800D02*
X-285200D01*
X-305200Y-270200D02*
X-300200Y-265200D01*
X-305200Y-259800D02*
X-300200Y-264800D01*
X-305200Y-285200D02*
X-300200Y-290200D01*
X-305200Y-285200D02*
Y-270200D01*
X217499Y-230150D02*
Y-170650D01*
X40499Y-230150D02*
X217499D01*
X40499D02*
Y-170650D01*
X217499D01*
X25999Y-230150D02*
Y-170650D01*
X-101001Y-230150D02*
X25999D01*
X-101001D02*
Y-170650D01*
X25999D01*
X-313000Y-536900D02*
Y-496900D01*
X-301250D01*
X-313000Y-536900D02*
X-301250D01*
X150749Y20600D02*
X158749D01*
X150749D02*
Y24600D01*
X172749Y20600D02*
X180749D01*
Y24600D01*
X172749Y76350D02*
X180749D01*
Y72350D02*
Y76350D01*
X150749D02*
X158749D01*
X150749Y72350D02*
Y76350D01*
X253500Y-43000D02*
Y84000D01*
Y-43000D02*
X313000D01*
Y84000D01*
X253500D02*
X313000D01*
X162999Y-527150D02*
Y-497150D01*
X42999D02*
X162999D01*
X42999Y-527150D02*
Y-497150D01*
X162999Y-617150D02*
Y-587150D01*
X42999Y-617150D02*
X162999D01*
X42999D02*
Y-587150D01*
X110499Y-485150D02*
Y-459150D01*
X73999Y-489650D02*
X105999D01*
X69499Y-384650D02*
X110499D01*
X69499Y-411650D02*
Y-384650D01*
X110499Y-411650D02*
Y-384650D01*
X105999Y-489650D02*
X110549Y-485150D01*
X69499D02*
X73999Y-489650D01*
X69499Y-485150D02*
Y-459150D01*
X50149Y-415900D02*
X50187Y-429900D01*
X50153Y-393900D02*
X50190Y-407900D01*
D14*
X-183250Y-381500D02*
Y-350500D01*
Y-598250D02*
Y-567250D01*
X69499Y-454400D02*
X110549D01*
D15*
X297749Y-429650D02*
Y-331150D01*
X198999Y-429650D02*
Y-331150D01*
X297749D01*
X198999Y-429650D02*
X297749D01*
X295999Y-544900D02*
Y-446400D01*
X197249Y-544900D02*
Y-446400D01*
X295999D01*
X197249Y-544900D02*
X295999D01*
X-301250Y-399400D02*
X-202500D01*
Y-455650D02*
Y-399400D01*
X-301250Y-455650D02*
X-202500D01*
X-301250D02*
Y-399400D01*
Y-545150D02*
Y-488900D01*
X-202500Y-545150D02*
Y-488900D01*
X-301250Y-545150D02*
X-202500D01*
X-301250Y-488900D02*
X-202500D01*
X-198001Y117100D02*
X-180751D01*
X-198001Y83100D02*
X-180751D01*
X-23751Y-564898D02*
X-32415D01*
X-28083Y-569230D02*
Y-560566D01*
X139002Y-399750D02*
Y-391086D01*
X134670Y-395418D02*
X143334D01*
D16*
X-142252Y-444401D02*
X-103252D01*
X-142252Y-494901D02*
X-103252D01*
X152500Y-108574D02*
X191500D01*
X152500Y-58074D02*
X191500D01*
D17*
X-73001Y189100D02*
X89999D01*
X-90001Y172100D02*
X-73001Y189100D01*
X-90001Y123100D02*
Y172100D01*
X89999Y123100D02*
Y189100D01*
X89999Y-130000D02*
Y-122000D01*
X-90001Y-130000D02*
Y-122000D01*
Y-130000D02*
X89999D01*
D18*
X149999Y101850D02*
Y117850D01*
Y101850D02*
X214999D01*
X215999Y102850D01*
X149999Y117850D02*
X213999D01*
X215999Y115850D01*
Y102850D02*
Y115850D01*
M02*
