G04*
G04 #@! TF.GenerationSoftware,Altium Limited,Altium Designer,21.8.1 (53)*
G04*
G04 Layer_Physical_Order=1*
G04 Layer_Color=255*
%FSLAX44Y44*%
%MOMM*%
G71*
G04*
G04 #@! TF.SameCoordinates,D16A5DDD-09C7-43D5-B036-B9B5DCE20735*
G04*
G04*
G04 #@! TF.FilePolarity,Positive*
G04*
G01*
G75*
%ADD14C,0.3000*%
%ADD47R,3.3000X2.4000*%
%ADD48R,1.0000X2.4000*%
%ADD49R,2.3000X2.3000*%
%ADD50R,2.6000X2.2000*%
%ADD51R,1.0000X1.0000*%
G04:AMPARAMS|DCode=52|XSize=1.97mm|YSize=0.6mm|CornerRadius=0.075mm|HoleSize=0mm|Usage=FLASHONLY|Rotation=180.000|XOffset=0mm|YOffset=0mm|HoleType=Round|Shape=RoundedRectangle|*
%AMROUNDEDRECTD52*
21,1,1.9700,0.4500,0,0,180.0*
21,1,1.8200,0.6000,0,0,180.0*
1,1,0.1500,-0.9100,0.2250*
1,1,0.1500,0.9100,0.2250*
1,1,0.1500,0.9100,-0.2250*
1,1,0.1500,-0.9100,-0.2250*
%
%ADD52ROUNDEDRECTD52*%
%ADD53R,0.9000X2.0000*%
%ADD54R,5.0000X5.0000*%
%ADD55R,2.0000X0.9000*%
%ADD56R,0.8000X1.0000*%
%ADD57R,0.9000X0.7000*%
%ADD58R,1.0000X1.0000*%
%ADD59R,1.5000X1.3000*%
%ADD60R,2.9000X5.4000*%
%ADD61R,3.3000X2.4000*%
%ADD62R,0.6100X1.6000*%
%ADD63R,3.5100X2.6200*%
%ADD64C,0.6000*%
%ADD65C,0.8000*%
%ADD66C,1.2000*%
%ADD67C,1.0000*%
%ADD68C,0.5000*%
%ADD69O,3.0000X2.2000*%
%ADD70R,3.0000X2.2000*%
%ADD71C,1.0000*%
%ADD72O,7.2000X5.2000*%
%ADD73C,1.6000*%
%ADD74R,1.6000X1.6000*%
%ADD75C,1.8000*%
%ADD76R,1.8000X1.8000*%
%ADD77R,1.8000X1.8000*%
%ADD78R,1.6000X1.6000*%
%ADD79C,0.6000*%
G36*
X301500Y101913D02*
X310000D01*
X314394Y102259D01*
X318679Y103288D01*
X322751Y104975D01*
X326509Y107277D01*
X329860Y110140D01*
X332723Y113491D01*
X335025Y117249D01*
X336579Y121000D01*
X346941D01*
Y-599000D01*
X346952Y-599054D01*
X346624Y-603217D01*
X345637Y-607330D01*
X344018Y-611238D01*
X341808Y-614844D01*
X339061Y-618061D01*
X335844Y-620808D01*
X332238Y-623018D01*
X328330Y-624637D01*
X324217Y-625624D01*
X321244Y-625858D01*
X320000Y-625941D01*
X320000Y-625941D01*
X318746Y-625941D01*
X-320000D01*
X-320054Y-625952D01*
X-324217Y-625624D01*
X-328330Y-624637D01*
X-332238Y-623018D01*
X-335844Y-620808D01*
X-339061Y-618061D01*
X-341808Y-614844D01*
X-344018Y-611238D01*
X-345637Y-607330D01*
X-346624Y-603217D01*
X-346952Y-599054D01*
X-346941Y-599000D01*
Y121000D01*
X-336579D01*
X-335025Y117249D01*
X-332723Y113491D01*
X-329860Y110140D01*
X-326509Y107277D01*
X-322751Y104975D01*
X-318679Y103288D01*
X-314394Y102259D01*
X-310000Y101913D01*
X-301500D01*
Y130000D01*
X-298500D01*
Y101913D01*
X-290000D01*
X-285606Y102259D01*
X-281321Y103288D01*
X-277249Y104975D01*
X-273491Y107277D01*
X-270140Y110140D01*
X-267278Y113491D01*
X-264975Y117249D01*
X-263421Y121000D01*
X-98188Y121000D01*
X-97001Y120800D01*
X-97001Y119730D01*
Y115800D01*
X-85001D01*
X-73001D01*
Y119730D01*
X-71814Y121000D01*
X71812D01*
X72999Y120800D01*
X72999Y119730D01*
Y115800D01*
X84999D01*
X96999D01*
Y119730D01*
X98187Y121000D01*
X263421Y121000D01*
X264975Y117249D01*
X267278Y113491D01*
X270140Y110140D01*
X273491Y107277D01*
X277249Y104975D01*
X281321Y103288D01*
X285606Y102259D01*
X290000Y101913D01*
X298500D01*
Y130000D01*
X301500D01*
Y101913D01*
D02*
G37*
%LPC*%
G36*
X206899Y116850D02*
X201399D01*
Y114846D01*
X200129Y114320D01*
X199997Y114452D01*
X198401Y115373D01*
X196621Y115850D01*
X194778D01*
X192997Y115373D01*
X191401Y114452D01*
X190444Y113495D01*
X189210Y113500D01*
X188905Y113622D01*
X188601Y114148D01*
X187297Y115452D01*
X185701Y116373D01*
X183921Y116850D01*
X182078D01*
X180297Y116373D01*
X178701Y115452D01*
X177398Y114148D01*
X177094Y113622D01*
X176788Y113500D01*
X175554Y113495D01*
X174597Y114452D01*
X173001Y115373D01*
X171221Y115850D01*
X169378D01*
X167597Y115373D01*
X166001Y114452D01*
X165044Y113495D01*
X163810Y113500D01*
X163505Y113622D01*
X163201Y114148D01*
X161897Y115452D01*
X160301Y116373D01*
X158521Y116850D01*
X156678D01*
X154897Y116373D01*
X153301Y115452D01*
X151998Y114148D01*
X151076Y112552D01*
X150599Y110772D01*
Y108929D01*
X151076Y107148D01*
X151998Y105552D01*
X152869Y104681D01*
Y101017D01*
X147702Y95850D01*
X146755D01*
X145019Y95131D01*
X143749Y95581D01*
Y100600D01*
X138249D01*
Y93600D01*
Y86600D01*
X143749D01*
X143749Y86600D01*
X145008Y86574D01*
X146755Y85850D01*
X148744D01*
X150582Y86611D01*
X151988Y88018D01*
X152070Y88217D01*
X153445D01*
X153843Y87257D01*
X155249Y85850D01*
X157087Y85089D01*
X159076D01*
X159749Y84639D01*
Y78389D01*
X159726Y78374D01*
X157271Y75919D01*
X143749D01*
Y84600D01*
X135344D01*
X134999Y84669D01*
X127170D01*
X108029Y103809D01*
Y104757D01*
X107268Y106595D01*
X105862Y108001D01*
X104024Y108762D01*
X102035D01*
X100197Y108001D01*
X98791Y106595D01*
X98269Y105336D01*
X96999Y105589D01*
Y112800D01*
X84999D01*
X72999D01*
Y107800D01*
Y95100D01*
Y82400D01*
Y69700D01*
Y57000D01*
Y44300D01*
Y31600D01*
Y18900D01*
Y6200D01*
Y-6500D01*
Y-19200D01*
Y-31900D01*
Y-37900D01*
X58617D01*
X57494Y-36776D01*
X56336Y-36003D01*
X54970Y-35731D01*
X31513D01*
X31238Y-35068D01*
X29832Y-33661D01*
X27994Y-32900D01*
X26005D01*
X24167Y-33661D01*
X22760Y-35068D01*
X21999Y-36905D01*
Y-38894D01*
X22379Y-39811D01*
X21530Y-41081D01*
X-31248D01*
X-31918Y-40411D01*
X-33756Y-39650D01*
X-35745D01*
X-37583Y-40411D01*
X-38990Y-41817D01*
X-39751Y-43655D01*
Y-45644D01*
X-38990Y-47482D01*
X-38845Y-47626D01*
X-39331Y-48800D01*
X-55651D01*
Y-60800D01*
Y-72800D01*
X-50268D01*
X-49962Y-73200D01*
X-49594Y-74070D01*
X-50251Y-75655D01*
Y-77644D01*
X-49490Y-79482D01*
X-48083Y-80889D01*
X-46245Y-81650D01*
X-44256D01*
X-42418Y-80889D01*
X-41012Y-79482D01*
X-40251Y-77644D01*
Y-75655D01*
X-40908Y-74070D01*
X-40539Y-73200D01*
X-40234Y-72800D01*
X22483D01*
X22762Y-74017D01*
X21985Y-74831D01*
X17499D01*
X16134Y-75103D01*
X14976Y-75876D01*
X-44829Y-135681D01*
X-92700D01*
X-92992Y-135389D01*
X-94830Y-134627D01*
X-96251D01*
Y-132754D01*
X-97012Y-130917D01*
X-98119Y-129810D01*
Y-121166D01*
X-97001Y-120800D01*
Y-120800D01*
X-73001D01*
Y-108100D01*
Y-95400D01*
Y-82700D01*
Y-70000D01*
Y-65000D01*
X-85001D01*
X-97001D01*
Y-70000D01*
Y-73206D01*
X-98623D01*
X-99293Y-72536D01*
X-101131Y-71775D01*
X-103120D01*
X-104958Y-72536D01*
X-106365Y-73942D01*
X-107126Y-75780D01*
Y-77769D01*
X-106365Y-79607D01*
X-105257Y-80715D01*
Y-130683D01*
X-105490Y-130917D01*
X-105899Y-131903D01*
X-107396Y-132201D01*
X-124722Y-114876D01*
Y-66918D01*
X-116704Y-58900D01*
X-107751D01*
Y-44900D01*
X-121751D01*
Y-53853D01*
X-124078Y-56180D01*
X-125251Y-55694D01*
Y-44900D01*
X-139251D01*
Y-47934D01*
X-140496Y-47994D01*
X-141257Y-46157D01*
X-141927Y-45486D01*
Y-35673D01*
X-140424Y-34170D01*
X-139251Y-34656D01*
Y-42900D01*
X-125251D01*
Y-32745D01*
X-125182Y-32400D01*
Y-31378D01*
X-123023Y-29218D01*
X-121751D01*
Y-42900D01*
X-107751D01*
Y-42606D01*
X-106578Y-42120D01*
X-98374Y-50323D01*
X-97216Y-51097D01*
X-97001Y-51140D01*
Y-57300D01*
Y-62000D01*
X-85001D01*
X-73001D01*
Y-57300D01*
Y-44600D01*
Y-31130D01*
X-71731Y-30388D01*
X-70495Y-30900D01*
X-68506D01*
X-66669Y-30139D01*
X-65262Y-28732D01*
X-64501Y-26894D01*
Y-24905D01*
X-65262Y-23068D01*
X-66669Y-21661D01*
X-68506Y-20900D01*
X-70495D01*
X-71731Y-21411D01*
X-73001Y-20669D01*
Y-6500D01*
Y6200D01*
Y18900D01*
Y31600D01*
Y44300D01*
Y57000D01*
Y69700D01*
Y85331D01*
X-71951D01*
X-70586Y85603D01*
X-69428Y86376D01*
X-61954Y93850D01*
X-61006D01*
X-59169Y94611D01*
X-57762Y96018D01*
X-57001Y97856D01*
Y99845D01*
X-57762Y101683D01*
X-59169Y103089D01*
X-61006Y103850D01*
X-62995D01*
X-64833Y103089D01*
X-66240Y101683D01*
X-67001Y99845D01*
Y98897D01*
X-71828Y94070D01*
X-73001Y94556D01*
Y107800D01*
Y112800D01*
X-85001D01*
X-97001D01*
Y105198D01*
X-99751D01*
X-101702Y104810D01*
X-103356Y103705D01*
X-105981Y101080D01*
X-107251Y101606D01*
Y101850D01*
X-121251D01*
Y100448D01*
X-127501D01*
X-128501Y101100D01*
X-128501Y102370D01*
Y108100D01*
X-147501D01*
Y102370D01*
X-147501Y101100D01*
X-147501Y99830D01*
Y84100D01*
X-137349D01*
Y78100D01*
X-139251D01*
Y76198D01*
X-156501D01*
X-158452Y75810D01*
X-160106Y74705D01*
X-162202Y72608D01*
X-162243Y72600D01*
X-169001D01*
Y58600D01*
X-167099D01*
Y38000D01*
X-181500D01*
Y12000D01*
X-177524D01*
Y-8500D01*
X-197500D01*
Y-36500D01*
X-184098D01*
Y-56500D01*
Y-66500D01*
X-186000D01*
Y-94500D01*
X-172000D01*
Y-66500D01*
X-173902D01*
Y-61598D01*
X-150362D01*
X-149349Y-62611D01*
Y-66500D01*
X-163000D01*
Y-94500D01*
X-162493D01*
Y-102500D01*
X-164000D01*
Y-116500D01*
X-162493D01*
Y-131000D01*
X-172500D01*
Y-157000D01*
X-142500D01*
Y-155768D01*
X-135034D01*
X-86001Y-204801D01*
Y-218150D01*
X-76069D01*
X-75653Y-220241D01*
X-74327Y-222225D01*
X-65827Y-230725D01*
X-63842Y-232052D01*
X-61501Y-232517D01*
X-57618D01*
Y-474650D01*
X-58001D01*
Y-488650D01*
X-44001D01*
Y-474650D01*
X-45383D01*
Y-232517D01*
X202616D01*
X266949Y-296851D01*
X268934Y-298177D01*
X271275Y-298642D01*
X279000D01*
Y-303525D01*
X301000D01*
Y-297598D01*
X305314D01*
X307655Y-297132D01*
X309639Y-295806D01*
X314326Y-291120D01*
X315652Y-289135D01*
X316118Y-286794D01*
Y-155012D01*
Y-34387D01*
X315652Y-32046D01*
X314326Y-30062D01*
X301000Y-16736D01*
Y-6000D01*
X279000D01*
Y-28000D01*
X294961D01*
X303883Y-36921D01*
Y-148645D01*
X301000D01*
Y-143762D01*
X279000D01*
Y-165762D01*
X301000D01*
Y-160880D01*
X303883D01*
Y-284260D01*
X302780Y-285363D01*
X301000D01*
Y-281525D01*
X279000D01*
Y-286407D01*
X273809D01*
X209475Y-222074D01*
X207491Y-220748D01*
X205150Y-220282D01*
X-58967D01*
X-63883Y-215366D01*
Y-212150D01*
X-64001Y-211559D01*
Y-196150D01*
X-77349D01*
X-87374Y-186126D01*
X-87331Y-185871D01*
X-85891Y-184870D01*
X-85251Y-184998D01*
X-34555D01*
X-34069Y-186171D01*
X-45148Y-197250D01*
X-45755Y-196899D01*
X-48553Y-196150D01*
X-51449D01*
X-54247Y-196899D01*
X-56755Y-198348D01*
X-58803Y-200396D01*
X-60251Y-202904D01*
X-61001Y-205702D01*
Y-208598D01*
X-60251Y-211396D01*
X-58803Y-213904D01*
X-56755Y-215952D01*
X-54247Y-217400D01*
X-51449Y-218150D01*
X-48553D01*
X-45755Y-217400D01*
X-43247Y-215952D01*
X-41199Y-213904D01*
X-39750Y-211396D01*
X-39001Y-208598D01*
Y-205702D01*
X-39750Y-202904D01*
X-40101Y-202297D01*
X-27773Y-189968D01*
X-14526D01*
X-14039Y-191142D01*
X-20148Y-197250D01*
X-20755Y-196899D01*
X-23553Y-196150D01*
X-26449D01*
X-29247Y-196899D01*
X-31755Y-198348D01*
X-33803Y-200396D01*
X-35251Y-202904D01*
X-36001Y-205702D01*
Y-208598D01*
X-35251Y-211396D01*
X-33803Y-213904D01*
X-31755Y-215952D01*
X-29247Y-217400D01*
X-26449Y-218150D01*
X-23553D01*
X-20755Y-217400D01*
X-18247Y-215952D01*
X-16199Y-213904D01*
X-14750Y-211396D01*
X-14001Y-208598D01*
Y-205702D01*
X-14750Y-202904D01*
X-15101Y-202297D01*
X-8273Y-195468D01*
X-3813D01*
X-3646Y-196738D01*
X-4247Y-196899D01*
X-6755Y-198348D01*
X-8803Y-200396D01*
X-10251Y-202904D01*
X-10987Y-205650D01*
X10985D01*
X10250Y-202904D01*
X8801Y-200396D01*
X6753Y-198348D01*
X4245Y-196899D01*
X3644Y-196738D01*
X3811Y-195468D01*
X54511D01*
X55499Y-196150D01*
X55499Y-196738D01*
Y-218150D01*
X77499D01*
X77499Y-196458D01*
X78038Y-195747D01*
X78469Y-195425D01*
X79615Y-195197D01*
X80772Y-194423D01*
X86757Y-188438D01*
X87931Y-188924D01*
Y-196718D01*
X87253Y-196899D01*
X84745Y-198348D01*
X82697Y-200396D01*
X81249Y-202904D01*
X80499Y-205702D01*
Y-208598D01*
X81249Y-211396D01*
X82697Y-213904D01*
X84745Y-215952D01*
X87253Y-217400D01*
X90051Y-218150D01*
X92947D01*
X95745Y-217400D01*
X98253Y-215952D01*
X100301Y-213904D01*
X101749Y-211396D01*
X102499Y-208598D01*
Y-205702D01*
X101749Y-202904D01*
X100301Y-200396D01*
X98253Y-198348D01*
X95745Y-196899D01*
X95068Y-196718D01*
Y-188128D01*
X117257Y-165938D01*
X118431Y-166425D01*
Y-185647D01*
X117760Y-186318D01*
X116999Y-188155D01*
Y-190144D01*
X117760Y-191982D01*
X119167Y-193389D01*
X121005Y-194150D01*
X122656D01*
X123237Y-195151D01*
X123279Y-195323D01*
X121352Y-197250D01*
X120745Y-196899D01*
X117947Y-196150D01*
X115051D01*
X112253Y-196899D01*
X109745Y-198348D01*
X107697Y-200396D01*
X106249Y-202904D01*
X105499Y-205702D01*
Y-208598D01*
X106249Y-211396D01*
X107697Y-213904D01*
X109745Y-215952D01*
X112253Y-217400D01*
X115051Y-218150D01*
X117947D01*
X120745Y-217400D01*
X123253Y-215952D01*
X125301Y-213904D01*
X126749Y-211396D01*
X127499Y-208598D01*
Y-205702D01*
X126749Y-202904D01*
X126399Y-202297D01*
X131023Y-197673D01*
X131796Y-196515D01*
X132068Y-195150D01*
Y-179424D01*
X133241Y-178938D01*
X156599Y-202297D01*
X156249Y-202904D01*
X155499Y-205702D01*
Y-208598D01*
X156249Y-211396D01*
X157697Y-213904D01*
X159745Y-215952D01*
X162253Y-217400D01*
X165051Y-218150D01*
X167947D01*
X170745Y-217400D01*
X173253Y-215952D01*
X175301Y-213904D01*
X176749Y-211396D01*
X177499Y-208598D01*
Y-205702D01*
X176749Y-202904D01*
X175301Y-200396D01*
X173253Y-198348D01*
X170745Y-196899D01*
X167947Y-196150D01*
X165051D01*
X162253Y-196899D01*
X161646Y-197250D01*
X137068Y-172672D01*
Y-138902D01*
X137738Y-138232D01*
X138499Y-136394D01*
Y-134405D01*
X137738Y-132568D01*
X136650Y-131480D01*
X137101Y-130210D01*
X156999D01*
Y-131824D01*
X170999D01*
Y-117824D01*
X169097D01*
Y-112368D01*
X170104Y-111361D01*
X171209Y-109707D01*
X171597Y-107756D01*
Y-93189D01*
X171209Y-91238D01*
X170104Y-89584D01*
X166589Y-86069D01*
X164935Y-84964D01*
X162985Y-84576D01*
X147300D01*
X147078Y-84620D01*
X138200D01*
X137127Y-84833D01*
X136838Y-85027D01*
X135568Y-84348D01*
Y-82300D01*
X136838Y-81621D01*
X137127Y-81814D01*
X138200Y-82028D01*
X145800D01*
Y-76974D01*
Y-71920D01*
X138200D01*
X137127Y-72133D01*
X136838Y-72327D01*
X135568Y-71648D01*
Y-69600D01*
X136838Y-68921D01*
X137127Y-69114D01*
X138200Y-69328D01*
X156400D01*
X157473Y-69114D01*
X158383Y-68507D01*
X158990Y-67597D01*
X159204Y-66524D01*
Y-62024D01*
X158990Y-60951D01*
X158383Y-60041D01*
X157473Y-59433D01*
X156400Y-59220D01*
X144449D01*
Y-58531D01*
X144178Y-57166D01*
X143404Y-56008D01*
X140568Y-53172D01*
Y-42472D01*
X141838Y-41624D01*
X142505Y-41900D01*
X144494D01*
X146332Y-41139D01*
X147738Y-39732D01*
X148499Y-37894D01*
Y-35905D01*
X147738Y-34067D01*
X147068Y-33397D01*
Y6226D01*
X154874Y14032D01*
X159749D01*
Y10600D01*
X171749D01*
Y20394D01*
X172922Y20880D01*
X181181Y12622D01*
Y-14400D01*
X177749D01*
Y-28400D01*
X181181D01*
Y-34400D01*
X177749D01*
Y-48400D01*
X191749D01*
Y-34400D01*
X188318D01*
Y-28400D01*
X191749D01*
Y-14400D01*
X188318D01*
Y14100D01*
X188046Y15466D01*
X187272Y16624D01*
X174566Y29330D01*
X174944Y30488D01*
X175031Y30600D01*
X181249D01*
Y38532D01*
X192499D01*
Y35100D01*
X206499D01*
Y49100D01*
X192499D01*
Y45669D01*
X179749D01*
X178384Y45397D01*
X177226Y44624D01*
X177202Y44600D01*
X169249D01*
Y30669D01*
X162249D01*
Y39553D01*
X166285Y43589D01*
X167059Y44747D01*
X167330Y46113D01*
Y60166D01*
X168036Y60732D01*
X169249Y60197D01*
Y52350D01*
X181249D01*
Y56032D01*
X192499D01*
Y51100D01*
X206499D01*
Y65100D01*
X192499D01*
Y63169D01*
X181249D01*
Y66350D01*
X181249Y66350D01*
X181249D01*
X181821Y67376D01*
X198223Y83777D01*
X198996Y84935D01*
X199268Y86300D01*
Y102583D01*
X200296Y103259D01*
X201399Y102850D01*
Y102850D01*
X206899D01*
Y109850D01*
Y116850D01*
D02*
G37*
G36*
X-166751Y116600D02*
X-171751D01*
Y112600D01*
X-166751D01*
Y116600D01*
D02*
G37*
G36*
X-174751D02*
X-179751D01*
Y112600D01*
X-174751D01*
Y116600D01*
D02*
G37*
G36*
X-200751D02*
X-205751D01*
Y112600D01*
X-200751D01*
Y116600D01*
D02*
G37*
G36*
X-208751D02*
X-213751D01*
Y112600D01*
X-208751D01*
Y116600D01*
D02*
G37*
G36*
X-107251Y117850D02*
X-112751D01*
Y112350D01*
X-107251D01*
Y117850D01*
D02*
G37*
G36*
X-115751D02*
X-121251D01*
Y112350D01*
X-115751D01*
Y117850D01*
D02*
G37*
G36*
X215399Y116850D02*
X209899D01*
Y111350D01*
X215399D01*
Y116850D01*
D02*
G37*
G36*
X-128501Y118100D02*
X-136501D01*
Y111100D01*
X-128501D01*
Y118100D01*
D02*
G37*
G36*
X-139501D02*
X-147501D01*
Y111100D01*
X-139501D01*
Y118100D01*
D02*
G37*
G36*
X-33256Y119100D02*
X-35245D01*
X-37083Y118339D01*
X-38490Y116932D01*
X-39251Y115095D01*
Y113106D01*
X-38490Y111268D01*
X-37083Y109861D01*
X-35245Y109100D01*
X-33256D01*
X-31418Y109861D01*
X-31123Y110157D01*
X49122D01*
X50167Y109111D01*
X52005Y108350D01*
X53994D01*
X55831Y109111D01*
X57238Y110518D01*
X57999Y112356D01*
Y114345D01*
X57238Y116182D01*
X55831Y117589D01*
X53994Y118350D01*
X52005D01*
X50167Y117589D01*
X49872Y117294D01*
X-30373D01*
X-31418Y118339D01*
X-33256Y119100D01*
D02*
G37*
G36*
X-166751Y109600D02*
X-171751D01*
Y105600D01*
X-166751D01*
Y109600D01*
D02*
G37*
G36*
X-174751D02*
X-179751D01*
Y105600D01*
X-174751D01*
Y109600D01*
D02*
G37*
G36*
X-200751Y109600D02*
X-205751D01*
Y105600D01*
X-200751D01*
Y109600D01*
D02*
G37*
G36*
X-208751D02*
X-213751D01*
Y105600D01*
X-208751D01*
Y109600D01*
D02*
G37*
G36*
X-107251Y109350D02*
X-112751D01*
Y103850D01*
X-107251D01*
Y109350D01*
D02*
G37*
G36*
X-115751D02*
X-121251D01*
Y103850D01*
X-115751D01*
Y109350D01*
D02*
G37*
G36*
X215399Y108350D02*
X209899D01*
Y102850D01*
X215399D01*
Y108350D01*
D02*
G37*
G36*
X135249Y100600D02*
X129749D01*
Y95100D01*
X135249D01*
Y100600D01*
D02*
G37*
G36*
Y92100D02*
X129749D01*
Y86600D01*
X135249D01*
Y92100D01*
D02*
G37*
G36*
X-189256Y101750D02*
X-191245D01*
X-193083Y100989D01*
X-193753Y100319D01*
X-233296D01*
X-234662Y100047D01*
X-235819Y99274D01*
X-273549Y61544D01*
X-279000D01*
Y68975D01*
X-301000D01*
Y46975D01*
X-279000D01*
Y54407D01*
X-272071D01*
X-270705Y54678D01*
X-269548Y55452D01*
X-231818Y93182D01*
X-213751D01*
Y83600D01*
X-200751D01*
Y85532D01*
X-186253D01*
X-185583Y84861D01*
X-183745Y84100D01*
X-181756D01*
X-181021Y84405D01*
X-179751Y83600D01*
Y83600D01*
X-166751D01*
Y94600D01*
X-179751D01*
Y94600D01*
X-181021Y93796D01*
X-181756Y94100D01*
X-183745D01*
X-184731Y93692D01*
X-185703Y94664D01*
X-185251Y95756D01*
Y97745D01*
X-186012Y99583D01*
X-187418Y100989D01*
X-189256Y101750D01*
D02*
G37*
G36*
X-171001Y72600D02*
X-176501D01*
Y67100D01*
X-171001D01*
Y72600D01*
D02*
G37*
G36*
X-179501D02*
X-185001D01*
Y67100D01*
X-179501D01*
Y72600D01*
D02*
G37*
G36*
X291500Y68986D02*
Y59500D01*
X300986D01*
X300250Y62246D01*
X298802Y64754D01*
X296754Y66802D01*
X294246Y68250D01*
X291500Y68986D01*
D02*
G37*
G36*
X288500Y68986D02*
X285754Y68250D01*
X283246Y66802D01*
X281198Y64754D01*
X279750Y62246D01*
X279014Y59500D01*
X288500D01*
Y68986D01*
D02*
G37*
G36*
X-171001Y64100D02*
X-176501D01*
Y58600D01*
X-171001D01*
Y64100D01*
D02*
G37*
G36*
X-179501D02*
X-185001D01*
Y58600D01*
X-179501D01*
Y64100D01*
D02*
G37*
G36*
X288500Y56500D02*
X279014D01*
X279750Y53754D01*
X281198Y51246D01*
X283246Y49198D01*
X285754Y47750D01*
X288500Y47014D01*
Y56500D01*
D02*
G37*
G36*
X300986D02*
X291500D01*
Y47014D01*
X294246Y47750D01*
X296754Y49198D01*
X298802Y51246D01*
X300250Y53754D01*
X300986Y56500D01*
D02*
G37*
G36*
X16999Y65100D02*
X-8501D01*
Y39600D01*
X16999D01*
Y65100D01*
D02*
G37*
G36*
X-11501D02*
X-37001D01*
Y39600D01*
X-11501D01*
Y65100D01*
D02*
G37*
G36*
X-221157Y64750D02*
X-223146D01*
X-224984Y63989D01*
X-225654Y63319D01*
X-238750D01*
X-240116Y63047D01*
X-241273Y62273D01*
X-267003Y36544D01*
X-279568D01*
X-279750Y37221D01*
X-281198Y39729D01*
X-283246Y41777D01*
X-285754Y43225D01*
X-288552Y43975D01*
X-291448D01*
X-294246Y43225D01*
X-296754Y41777D01*
X-298802Y39729D01*
X-300250Y37221D01*
X-301000Y34423D01*
Y31527D01*
X-300250Y28729D01*
X-298802Y26221D01*
X-296754Y24173D01*
X-294246Y22725D01*
X-291448Y21975D01*
X-288552D01*
X-285754Y22725D01*
X-283246Y24173D01*
X-281198Y26221D01*
X-279750Y28729D01*
X-279568Y29407D01*
X-268620D01*
X-268134Y28233D01*
X-274781Y21587D01*
X-275554Y20429D01*
X-275826Y19064D01*
Y-37492D01*
X-284047Y-45712D01*
X-301000D01*
Y-67712D01*
X-279000D01*
Y-50759D01*
X-270089Y-41848D01*
X-268819Y-42351D01*
Y-87523D01*
X-292523Y-111227D01*
X-293297Y-112384D01*
X-293569Y-113750D01*
Y-135400D01*
X-301000D01*
Y-157400D01*
X-279000D01*
Y-135400D01*
X-286431D01*
Y-115228D01*
X-264743Y-93539D01*
X-263569Y-94025D01*
Y-139422D01*
X-275624Y-151476D01*
X-276397Y-152634D01*
X-276669Y-153999D01*
Y-205822D01*
X-287747Y-216900D01*
X-302700D01*
Y-236900D01*
X-282700D01*
Y-221947D01*
X-272042Y-211288D01*
X-270869Y-211774D01*
Y-217503D01*
X-271160Y-217581D01*
X-273440Y-218898D01*
X-275302Y-220760D01*
X-276618Y-223040D01*
X-277300Y-225583D01*
Y-228216D01*
X-276618Y-230760D01*
X-275302Y-233040D01*
X-273440Y-234902D01*
X-271160Y-236218D01*
X-268617Y-236900D01*
X-265984D01*
X-263440Y-236218D01*
X-261160Y-234902D01*
X-259298Y-233040D01*
X-257981Y-230760D01*
X-257300Y-228216D01*
Y-225583D01*
X-257981Y-223040D01*
X-259298Y-220760D01*
X-261160Y-218898D01*
X-263440Y-217581D01*
X-263731Y-217503D01*
Y-195949D01*
X-263731Y-195949D01*
Y-158028D01*
X-254743Y-149039D01*
X-253569Y-149525D01*
Y-295249D01*
X-253298Y-296615D01*
X-252524Y-297773D01*
X-215773Y-334523D01*
X-214616Y-335297D01*
X-213250Y-335569D01*
X-164478D01*
X-145819Y-354227D01*
Y-397092D01*
X-145548Y-398458D01*
X-144774Y-399616D01*
X-141097Y-403293D01*
Y-404240D01*
X-140336Y-406078D01*
X-138929Y-407485D01*
X-137092Y-408246D01*
X-135102D01*
X-133265Y-407485D01*
X-132594Y-406815D01*
X-120347D01*
X-118981Y-406543D01*
X-117824Y-405769D01*
X-102204Y-390150D01*
X-93251D01*
Y-376150D01*
X-107251D01*
Y-385103D01*
X-111231Y-389083D01*
X-112501Y-388557D01*
Y-376150D01*
X-126501D01*
Y-385103D01*
X-130905Y-389507D01*
X-132182D01*
Y-352178D01*
X-132454Y-350812D01*
X-133227Y-349655D01*
X-159156Y-323727D01*
X-160313Y-322953D01*
X-161679Y-322681D01*
X-208772D01*
X-238133Y-293320D01*
X-238078Y-292742D01*
X-237657Y-292000D01*
X-237505D01*
X-237042Y-291808D01*
X-236549Y-291710D01*
X-236132Y-291431D01*
X-235668Y-291239D01*
X-235313Y-290884D01*
X-234895Y-290605D01*
X-234616Y-290187D01*
X-234261Y-289832D01*
X-234069Y-289368D01*
X-233790Y-288951D01*
X-233692Y-288458D01*
X-233500Y-287995D01*
Y-287493D01*
X-233402Y-287000D01*
X-233403Y-286996D01*
Y-81862D01*
X-224145Y-72605D01*
X-223866Y-72187D01*
X-223511Y-71832D01*
X-223319Y-71368D01*
X-223040Y-70951D01*
X-222942Y-70458D01*
X-222750Y-69995D01*
Y-69493D01*
X-222652Y-69000D01*
X-222750Y-68507D01*
Y-68005D01*
X-222942Y-67542D01*
X-223040Y-67049D01*
X-223319Y-66632D01*
X-223511Y-66168D01*
X-223866Y-65813D01*
X-224145Y-65395D01*
X-224563Y-65116D01*
X-224918Y-64761D01*
X-225382Y-64569D01*
X-225799Y-64290D01*
X-226292Y-64192D01*
X-226755Y-64000D01*
X-227257D01*
X-227571Y-63938D01*
X-227910Y-63352D01*
X-228107Y-62678D01*
X-227761Y-62332D01*
X-227000Y-60495D01*
Y-58505D01*
X-227761Y-56668D01*
X-229168Y-55261D01*
X-229971Y-54928D01*
X-230111Y-54556D01*
X-230156Y-53477D01*
X-229011Y-52332D01*
X-228250Y-50495D01*
Y-48505D01*
X-229011Y-46668D01*
X-230099Y-45580D01*
X-230416Y-45254D01*
X-230169Y-43990D01*
X-229511Y-43332D01*
X-228750Y-41495D01*
Y-39505D01*
X-229511Y-37668D01*
X-230918Y-36261D01*
X-232755Y-35500D01*
X-234745D01*
X-236582Y-36261D01*
X-237374Y-36104D01*
X-237761Y-35168D01*
X-239168Y-33761D01*
X-241005Y-33000D01*
X-242995D01*
X-244832Y-33761D01*
X-246239Y-35168D01*
X-247000Y-37005D01*
Y-37953D01*
X-260509Y-51462D01*
X-261682Y-50976D01*
Y17521D01*
X-237100Y42103D01*
X-223674D01*
X-223332Y41761D01*
X-221495Y41000D01*
X-219505D01*
X-217668Y41761D01*
X-216261Y43168D01*
X-215500Y45005D01*
Y46995D01*
X-215534Y47077D01*
X-214735Y48466D01*
X-213418Y49011D01*
X-212011Y50418D01*
X-211250Y52255D01*
Y54245D01*
X-212011Y56082D01*
X-213418Y57489D01*
X-215255Y58250D01*
X-215986D01*
X-217151Y58755D01*
Y60745D01*
X-217913Y62582D01*
X-219319Y63989D01*
X-221157Y64750D01*
D02*
G37*
G36*
X-201500Y38000D02*
X-215000D01*
Y26500D01*
X-201500D01*
Y38000D01*
D02*
G37*
G36*
X-218000D02*
X-231500D01*
Y26500D01*
X-218000D01*
Y38000D01*
D02*
G37*
G36*
X291448Y44000D02*
X288552D01*
X285754Y43250D01*
X283246Y41802D01*
X281198Y39754D01*
X279750Y37246D01*
X279000Y34448D01*
Y31552D01*
X279647Y29136D01*
X258506Y7994D01*
X257511Y6506D01*
X257162Y4750D01*
Y-73312D01*
X230749D01*
Y-68400D01*
X216749D01*
Y-72386D01*
X207251D01*
X206873Y-72133D01*
X205800Y-71920D01*
X187600D01*
X186527Y-72133D01*
X185617Y-72741D01*
X185010Y-73651D01*
X184796Y-74724D01*
Y-79224D01*
X185010Y-80297D01*
X185617Y-81207D01*
X186527Y-81814D01*
X187600Y-82028D01*
X205800D01*
X206873Y-81814D01*
X207251Y-81562D01*
X216749D01*
Y-82400D01*
X225806D01*
X226249Y-82488D01*
X258917D01*
X258918Y-82489D01*
X260755Y-83250D01*
X262745D01*
X264582Y-82489D01*
X265142Y-81929D01*
X266412Y-82455D01*
Y-87732D01*
X230749D01*
Y-84400D01*
X216749D01*
Y-85586D01*
X207879D01*
X207783Y-85441D01*
X206873Y-84833D01*
X205800Y-84620D01*
X187600D01*
X186527Y-84833D01*
X185617Y-85441D01*
X185010Y-86351D01*
X184796Y-87424D01*
Y-91924D01*
X185010Y-92997D01*
X185617Y-93907D01*
X186527Y-94514D01*
X187600Y-94728D01*
X197028D01*
X197200Y-94762D01*
X216749D01*
Y-98400D01*
X230749D01*
Y-96908D01*
X257225D01*
X257751Y-98178D01*
X257261Y-98668D01*
X256500Y-100505D01*
Y-102495D01*
X256912Y-103489D01*
Y-240229D01*
X257261Y-241985D01*
X258256Y-243474D01*
X258658Y-243876D01*
X259261Y-245332D01*
X260668Y-246739D01*
X262505Y-247500D01*
X264495D01*
X265142Y-247232D01*
X266412Y-248081D01*
Y-253500D01*
X266761Y-255256D01*
X267756Y-256744D01*
X277601Y-266590D01*
X279000Y-267524D01*
Y-268973D01*
X279750Y-271771D01*
X281198Y-274279D01*
X283246Y-276327D01*
X285754Y-277775D01*
X288552Y-278525D01*
X291448D01*
X294246Y-277775D01*
X296754Y-276327D01*
X298802Y-274279D01*
X300250Y-271771D01*
X301000Y-268973D01*
Y-266077D01*
X300250Y-263279D01*
X298802Y-260771D01*
X296754Y-258723D01*
X294246Y-257274D01*
X291448Y-256525D01*
X288552D01*
X285754Y-257274D01*
X283246Y-258723D01*
X283061Y-258908D01*
X282856Y-258867D01*
X275588Y-251600D01*
Y-133588D01*
X279637D01*
X279750Y-134008D01*
X281198Y-136517D01*
X283246Y-138565D01*
X285754Y-140013D01*
X288552Y-140762D01*
X291448D01*
X294246Y-140013D01*
X296754Y-138565D01*
X298802Y-136517D01*
X300250Y-134008D01*
X301000Y-131211D01*
Y-128314D01*
X300250Y-125517D01*
X298802Y-123008D01*
X296754Y-120960D01*
X294246Y-119512D01*
X291448Y-118762D01*
X288552D01*
X285754Y-119512D01*
X283246Y-120960D01*
X281198Y-123008D01*
X280387Y-124412D01*
X275588D01*
Y-92500D01*
Y-5401D01*
X281716Y728D01*
X283246Y-802D01*
X285754Y-2250D01*
X288552Y-3000D01*
X291448D01*
X294246Y-2250D01*
X296754Y-802D01*
X298802Y1246D01*
X300250Y3754D01*
X301000Y6552D01*
Y9448D01*
X300250Y12246D01*
X298802Y14754D01*
X296754Y16802D01*
X294246Y18250D01*
X291448Y19000D01*
X288552D01*
X285754Y18250D01*
X283246Y16802D01*
X281198Y14754D01*
X279750Y12246D01*
X279128Y9925D01*
X278257Y9751D01*
X276768Y8757D01*
X267756Y-256D01*
X267608Y-476D01*
X266338Y-91D01*
Y2849D01*
X286136Y22647D01*
X288552Y22000D01*
X291448D01*
X294246Y22750D01*
X296754Y24198D01*
X298802Y26246D01*
X300250Y28754D01*
X301000Y31552D01*
Y34448D01*
X300250Y37246D01*
X298802Y39754D01*
X296754Y41802D01*
X294246Y43250D01*
X291448Y44000D01*
D02*
G37*
G36*
X-201500Y23500D02*
X-215000D01*
Y12000D01*
X-201500D01*
Y23500D01*
D02*
G37*
G36*
X-218000D02*
X-231500D01*
Y12000D01*
X-218000D01*
Y23500D01*
D02*
G37*
G36*
X16999Y36600D02*
X-8501D01*
Y11100D01*
X16999D01*
Y36600D01*
D02*
G37*
G36*
X-11501D02*
X-37001D01*
Y11100D01*
X-11501D01*
Y36600D01*
D02*
G37*
G36*
X-288500Y18961D02*
Y9475D01*
X-279014D01*
X-279750Y12221D01*
X-281198Y14729D01*
X-283246Y16777D01*
X-285754Y18226D01*
X-288500Y18961D01*
D02*
G37*
G36*
X-291500Y18961D02*
X-294246Y18226D01*
X-296754Y16777D01*
X-298802Y14729D01*
X-300250Y12221D01*
X-300986Y9475D01*
X-291500D01*
Y18961D01*
D02*
G37*
G36*
X-279014Y6475D02*
X-288500D01*
Y-3011D01*
X-285754Y-2275D01*
X-283246Y-827D01*
X-281198Y1221D01*
X-279750Y3729D01*
X-279014Y6475D01*
D02*
G37*
G36*
X-291500D02*
X-300986D01*
X-300250Y3729D01*
X-298802Y1221D01*
X-296754Y-827D01*
X-294246Y-2275D01*
X-291500Y-3011D01*
Y6475D01*
D02*
G37*
G36*
X207749Y-14400D02*
X202249D01*
Y-19900D01*
X207749D01*
Y-14400D01*
D02*
G37*
G36*
X199249D02*
X193749D01*
Y-19900D01*
X199249D01*
Y-14400D01*
D02*
G37*
G36*
X207749Y-22900D02*
X202249D01*
Y-28400D01*
X207749D01*
Y-22900D01*
D02*
G37*
G36*
X199249D02*
X193749D01*
Y-28400D01*
X199249D01*
Y-22900D01*
D02*
G37*
G36*
X-58650Y-48800D02*
X-63651D01*
Y-59300D01*
X-58650D01*
Y-48800D01*
D02*
G37*
G36*
X207749Y-34400D02*
X193749D01*
Y-48400D01*
X197181D01*
Y-59220D01*
X187600D01*
X186527Y-59433D01*
X185617Y-60041D01*
X185010Y-60951D01*
X184796Y-62024D01*
Y-66524D01*
X185010Y-67597D01*
X185617Y-68507D01*
X186527Y-69114D01*
X187600Y-69328D01*
X205800D01*
X206873Y-69114D01*
X207783Y-68507D01*
X208390Y-67597D01*
X208604Y-66524D01*
Y-62024D01*
X208390Y-60951D01*
X207783Y-60041D01*
X206873Y-59433D01*
X205800Y-59220D01*
X204318D01*
Y-48400D01*
X207749D01*
Y-34400D01*
D02*
G37*
G36*
X-58650Y-62300D02*
X-63651D01*
Y-72800D01*
X-58650D01*
Y-62300D01*
D02*
G37*
G36*
X156400Y-71920D02*
X148800D01*
Y-75474D01*
X159204D01*
Y-74724D01*
X158990Y-73651D01*
X158383Y-72741D01*
X157473Y-72133D01*
X156400Y-71920D01*
D02*
G37*
G36*
X291500Y-68776D02*
Y-78262D01*
X300986D01*
X300250Y-75517D01*
X298802Y-73008D01*
X296754Y-70960D01*
X294246Y-69512D01*
X291500Y-68776D01*
D02*
G37*
G36*
X288500D02*
X285754Y-69512D01*
X283246Y-70960D01*
X281198Y-73008D01*
X279750Y-75517D01*
X279014Y-78262D01*
X288500D01*
Y-68776D01*
D02*
G37*
G36*
X-195000Y-66500D02*
X-200500D01*
Y-79000D01*
X-195000D01*
Y-66500D01*
D02*
G37*
G36*
X-203500D02*
X-209000D01*
Y-79000D01*
X-203500D01*
Y-66500D01*
D02*
G37*
G36*
X-288500Y-70726D02*
Y-80212D01*
X-279014D01*
X-279750Y-77467D01*
X-281198Y-74958D01*
X-283246Y-72910D01*
X-285754Y-71462D01*
X-288500Y-70726D01*
D02*
G37*
G36*
X-291500Y-70726D02*
X-294246Y-71462D01*
X-296754Y-72910D01*
X-298802Y-74958D01*
X-300250Y-77467D01*
X-300986Y-80212D01*
X-291500D01*
Y-70726D01*
D02*
G37*
G36*
X159204Y-78474D02*
X148800D01*
Y-82028D01*
X156400D01*
X157473Y-81814D01*
X158383Y-81207D01*
X158990Y-80297D01*
X159204Y-79224D01*
Y-78474D01*
D02*
G37*
G36*
X300986Y-81262D02*
X291500D01*
Y-90749D01*
X294246Y-90013D01*
X296754Y-88565D01*
X298802Y-86517D01*
X300250Y-84008D01*
X300986Y-81262D01*
D02*
G37*
G36*
X288500D02*
X279014D01*
X279750Y-84008D01*
X281198Y-86517D01*
X283246Y-88565D01*
X285754Y-90013D01*
X288500Y-90749D01*
Y-81262D01*
D02*
G37*
G36*
X-291500Y-83212D02*
X-300986D01*
X-300250Y-85958D01*
X-298802Y-88466D01*
X-296754Y-90514D01*
X-294246Y-91963D01*
X-291500Y-92698D01*
Y-83212D01*
D02*
G37*
G36*
X-279014D02*
X-288500D01*
Y-92698D01*
X-285754Y-91963D01*
X-283246Y-90514D01*
X-281198Y-88466D01*
X-279750Y-85958D01*
X-279014Y-83212D01*
D02*
G37*
G36*
X-195000Y-82000D02*
X-200500D01*
Y-94500D01*
X-195000D01*
Y-82000D01*
D02*
G37*
G36*
X-203500D02*
X-209000D01*
Y-94500D01*
X-203500D01*
Y-82000D01*
D02*
G37*
G36*
X205800Y-97320D02*
X187600D01*
X186527Y-97534D01*
X185617Y-98141D01*
X185010Y-99051D01*
X184796Y-100124D01*
Y-104624D01*
X185010Y-105697D01*
X185617Y-106607D01*
X186527Y-107214D01*
X187600Y-107428D01*
X205800D01*
X206873Y-107214D01*
X207783Y-106607D01*
X208390Y-105697D01*
X208604Y-104624D01*
Y-100124D01*
X208390Y-99051D01*
X207783Y-98141D01*
X206873Y-97534D01*
X205800Y-97320D01*
D02*
G37*
G36*
X-166000Y-102500D02*
X-171500D01*
Y-108000D01*
X-166000D01*
Y-102500D01*
D02*
G37*
G36*
X-174500D02*
X-180000D01*
Y-108000D01*
X-174500D01*
Y-102500D01*
D02*
G37*
G36*
X291448Y-93762D02*
X288552D01*
X285754Y-94512D01*
X283246Y-95960D01*
X281198Y-98008D01*
X279750Y-100517D01*
X279000Y-103314D01*
Y-106211D01*
X279750Y-109008D01*
X281198Y-111517D01*
X283246Y-113565D01*
X285754Y-115013D01*
X288552Y-115762D01*
X291448D01*
X294246Y-115013D01*
X296754Y-113565D01*
X298802Y-111517D01*
X300250Y-109008D01*
X301000Y-106211D01*
Y-103314D01*
X300250Y-100517D01*
X298802Y-98008D01*
X296754Y-95960D01*
X294246Y-94512D01*
X291448Y-93762D01*
D02*
G37*
G36*
X-166000Y-111000D02*
X-171500D01*
Y-116500D01*
X-166000D01*
Y-111000D01*
D02*
G37*
G36*
X-174500D02*
X-180000D01*
Y-116500D01*
X-174500D01*
Y-111000D01*
D02*
G37*
G36*
X186999Y-117824D02*
X181499D01*
Y-123324D01*
X186999D01*
Y-117824D01*
D02*
G37*
G36*
X178499D02*
X172999D01*
Y-123324D01*
X178499D01*
Y-117824D01*
D02*
G37*
G36*
X186999Y-126324D02*
X181499D01*
Y-131824D01*
X186999D01*
Y-126324D01*
D02*
G37*
G36*
X178499D02*
X172999D01*
Y-131824D01*
X178499D01*
Y-126324D01*
D02*
G37*
G36*
X-192500Y-131000D02*
X-206000D01*
Y-142500D01*
X-192500D01*
Y-131000D01*
D02*
G37*
G36*
X-209000D02*
X-222500D01*
Y-142500D01*
X-209000D01*
Y-131000D01*
D02*
G37*
G36*
X-192500Y-145500D02*
X-206000D01*
Y-157000D01*
X-192500D01*
Y-145500D01*
D02*
G37*
G36*
X-209000D02*
X-222500D01*
Y-157000D01*
X-209000D01*
Y-145500D01*
D02*
G37*
G36*
X-288500Y-160414D02*
Y-169900D01*
X-279014D01*
X-279750Y-167154D01*
X-281198Y-164646D01*
X-283246Y-162598D01*
X-285754Y-161150D01*
X-288500Y-160414D01*
D02*
G37*
G36*
X-291500Y-160414D02*
X-294246Y-161150D01*
X-296754Y-162598D01*
X-298802Y-164646D01*
X-300250Y-167154D01*
X-300986Y-169900D01*
X-291500D01*
Y-160414D01*
D02*
G37*
G36*
X-279014Y-172900D02*
X-288500D01*
Y-182386D01*
X-285754Y-181650D01*
X-283246Y-180202D01*
X-281198Y-178154D01*
X-279750Y-175646D01*
X-279014Y-172900D01*
D02*
G37*
G36*
X-291500D02*
X-300986D01*
X-300250Y-175646D01*
X-298802Y-178154D01*
X-296754Y-180202D01*
X-294246Y-181650D01*
X-291500Y-182386D01*
Y-172900D01*
D02*
G37*
G36*
X192999Y-196164D02*
Y-205650D01*
X202485D01*
X201749Y-202904D01*
X200301Y-200396D01*
X198253Y-198348D01*
X195745Y-196899D01*
X192999Y-196164D01*
D02*
G37*
G36*
X189999D02*
X187253Y-196899D01*
X184745Y-198348D01*
X182697Y-200396D01*
X181249Y-202904D01*
X180513Y-205650D01*
X189999D01*
Y-196164D01*
D02*
G37*
G36*
X291500Y-206539D02*
Y-216025D01*
X300986D01*
X300250Y-213279D01*
X298802Y-210771D01*
X296754Y-208723D01*
X294246Y-207274D01*
X291500Y-206539D01*
D02*
G37*
G36*
X288500Y-206539D02*
X285754Y-207274D01*
X283246Y-208723D01*
X281198Y-210771D01*
X279750Y-213279D01*
X279014Y-216025D01*
X288500D01*
Y-206539D01*
D02*
G37*
G36*
X202485Y-208650D02*
X192999D01*
Y-218136D01*
X195745Y-217400D01*
X198253Y-215952D01*
X200301Y-213904D01*
X201749Y-211396D01*
X202485Y-208650D01*
D02*
G37*
G36*
X189999D02*
X180513D01*
X181249Y-211396D01*
X182697Y-213904D01*
X184745Y-215952D01*
X187253Y-217400D01*
X189999Y-218136D01*
Y-208650D01*
D02*
G37*
G36*
X10985D02*
X1499D01*
Y-218136D01*
X4245Y-217400D01*
X6753Y-215952D01*
X8801Y-213904D01*
X10250Y-211396D01*
X10985Y-208650D01*
D02*
G37*
G36*
X-1501D02*
X-10987D01*
X-10251Y-211396D01*
X-8803Y-213904D01*
X-6755Y-215952D01*
X-4247Y-217400D01*
X-1501Y-218136D01*
Y-208650D01*
D02*
G37*
G36*
X142947Y-196150D02*
X140051D01*
X137253Y-196899D01*
X134745Y-198348D01*
X132697Y-200396D01*
X131249Y-202904D01*
X130499Y-205702D01*
Y-208598D01*
X131249Y-211396D01*
X132697Y-213904D01*
X134745Y-215952D01*
X137253Y-217400D01*
X140051Y-218150D01*
X142947D01*
X145745Y-217400D01*
X148253Y-215952D01*
X150301Y-213904D01*
X151749Y-211396D01*
X152499Y-208598D01*
Y-205702D01*
X151749Y-202904D01*
X150301Y-200396D01*
X148253Y-198348D01*
X145745Y-196899D01*
X142947Y-196150D01*
D02*
G37*
G36*
X288500Y-219025D02*
X279014D01*
X279750Y-221771D01*
X281198Y-224279D01*
X283246Y-226327D01*
X285754Y-227775D01*
X288500Y-228511D01*
Y-219025D01*
D02*
G37*
G36*
X300986D02*
X291500D01*
Y-228511D01*
X294246Y-227775D01*
X296754Y-226327D01*
X298802Y-224279D01*
X300250Y-221771D01*
X300986Y-219025D01*
D02*
G37*
G36*
X-140073Y-169683D02*
X-142062D01*
X-143900Y-170444D01*
X-145306Y-171850D01*
X-146067Y-173688D01*
Y-175106D01*
X-206017Y-235056D01*
X-206495D01*
X-208332Y-235818D01*
X-209739Y-237224D01*
X-210500Y-239062D01*
Y-241051D01*
X-210002Y-242253D01*
X-211832Y-243011D01*
X-213239Y-244418D01*
X-214000Y-246255D01*
Y-248245D01*
X-213239Y-250082D01*
X-211832Y-251489D01*
X-209995Y-252250D01*
X-209811D01*
X-208750Y-253380D01*
Y-254327D01*
X-208750Y-254745D01*
X-209812Y-255500D01*
X-210494D01*
X-212332Y-256261D01*
X-213739Y-257668D01*
X-214500Y-259505D01*
Y-261495D01*
X-213739Y-263332D01*
X-212332Y-264739D01*
X-210494Y-265500D01*
X-208505D01*
X-206668Y-264739D01*
X-206314Y-264385D01*
X-198930D01*
X-197565Y-264113D01*
X-196407Y-263340D01*
X-157339Y-224272D01*
X-156069Y-224799D01*
Y-236150D01*
X-159501D01*
Y-250150D01*
X-145501D01*
Y-236150D01*
X-148932D01*
Y-225729D01*
X-137598Y-214394D01*
X-136328Y-214920D01*
Y-236154D01*
X-139759D01*
Y-250154D01*
X-125759D01*
Y-236154D01*
X-129190D01*
Y-215180D01*
X-120607Y-206596D01*
X-119659D01*
X-117822Y-205835D01*
X-116415Y-204429D01*
X-115654Y-202591D01*
Y-200602D01*
X-116415Y-198764D01*
X-117822Y-197357D01*
X-118052Y-196201D01*
X-117453Y-195602D01*
X-116691Y-193765D01*
Y-191775D01*
X-117453Y-189938D01*
X-118859Y-188531D01*
X-120697Y-187770D01*
X-122686D01*
X-124524Y-188531D01*
X-124971Y-188979D01*
X-125569Y-188860D01*
X-126975Y-187454D01*
X-127209Y-186280D01*
X-126761Y-185832D01*
X-126000Y-183995D01*
Y-182006D01*
X-126761Y-180168D01*
X-128168Y-178761D01*
X-130006Y-178000D01*
X-131995D01*
X-133832Y-178761D01*
X-135170Y-180099D01*
X-135241Y-180168D01*
X-136451Y-180257D01*
X-137387Y-179375D01*
X-137407Y-178093D01*
X-136829Y-177515D01*
X-136067Y-175677D01*
Y-173688D01*
X-136829Y-171850D01*
X-138235Y-170444D01*
X-140073Y-169683D01*
D02*
G37*
G36*
X291448Y-231525D02*
X288552D01*
X285754Y-232274D01*
X283246Y-233723D01*
X281198Y-235771D01*
X279750Y-238279D01*
X279000Y-241077D01*
Y-243973D01*
X279750Y-246771D01*
X281198Y-249279D01*
X283246Y-251327D01*
X285754Y-252775D01*
X288552Y-253525D01*
X291448D01*
X294246Y-252775D01*
X296754Y-251327D01*
X298802Y-249279D01*
X300250Y-246771D01*
X301000Y-243973D01*
Y-241077D01*
X300250Y-238279D01*
X298802Y-235771D01*
X296754Y-233723D01*
X294246Y-232274D01*
X291448Y-231525D01*
D02*
G37*
G36*
X-145501Y-252150D02*
X-151001D01*
Y-257650D01*
X-145501D01*
Y-252150D01*
D02*
G37*
G36*
X-154001D02*
X-159501D01*
Y-257650D01*
X-154001D01*
Y-252150D01*
D02*
G37*
G36*
X-125759Y-252154D02*
X-131259D01*
Y-257654D01*
X-125759D01*
Y-252154D01*
D02*
G37*
G36*
X-134259D02*
X-139759D01*
Y-257654D01*
X-134259D01*
Y-252154D01*
D02*
G37*
G36*
X-265984Y-242300D02*
X-268617D01*
X-271160Y-242981D01*
X-273440Y-244298D01*
X-275302Y-246160D01*
X-276618Y-248440D01*
X-277300Y-250983D01*
Y-253616D01*
X-276618Y-256160D01*
X-275302Y-258440D01*
X-273440Y-260302D01*
X-271160Y-261618D01*
X-268617Y-262300D01*
X-265984D01*
X-263440Y-261618D01*
X-261160Y-260302D01*
X-259298Y-258440D01*
X-257981Y-256160D01*
X-257300Y-253616D01*
Y-250983D01*
X-257981Y-248440D01*
X-259298Y-246160D01*
X-261160Y-244298D01*
X-263440Y-242981D01*
X-265984Y-242300D01*
D02*
G37*
G36*
X-291383D02*
X-294016D01*
X-296560Y-242981D01*
X-298840Y-244298D01*
X-300702Y-246160D01*
X-302019Y-248440D01*
X-302700Y-250983D01*
Y-253616D01*
X-302019Y-256160D01*
X-300702Y-258440D01*
X-298840Y-260302D01*
X-296560Y-261618D01*
X-294016Y-262300D01*
X-291383D01*
X-288840Y-261618D01*
X-286560Y-260302D01*
X-284698Y-258440D01*
X-283382Y-256160D01*
X-282700Y-253616D01*
Y-250983D01*
X-283382Y-248440D01*
X-284698Y-246160D01*
X-286560Y-244298D01*
X-288840Y-242981D01*
X-291383Y-242300D01*
D02*
G37*
G36*
X-145501Y-260650D02*
X-151001D01*
Y-266150D01*
X-145501D01*
Y-260650D01*
D02*
G37*
G36*
X-154001D02*
X-159501D01*
Y-266150D01*
X-154001D01*
Y-260650D01*
D02*
G37*
G36*
X-125759Y-260654D02*
X-131259D01*
Y-266154D01*
X-125759D01*
Y-260654D01*
D02*
G37*
G36*
X-134259D02*
X-139759D01*
Y-266154D01*
X-134259D01*
Y-260654D01*
D02*
G37*
G36*
X-265984Y-267700D02*
X-268617D01*
X-271160Y-268381D01*
X-273440Y-269698D01*
X-275302Y-271560D01*
X-276618Y-273840D01*
X-277300Y-276383D01*
Y-279016D01*
X-276618Y-281560D01*
X-275302Y-283840D01*
X-273440Y-285702D01*
X-271160Y-287018D01*
X-268617Y-287700D01*
X-265984D01*
X-263440Y-287018D01*
X-261160Y-285702D01*
X-259298Y-283840D01*
X-257981Y-281560D01*
X-257300Y-279016D01*
Y-276383D01*
X-257981Y-273840D01*
X-259298Y-271560D01*
X-261160Y-269698D01*
X-263440Y-268381D01*
X-265984Y-267700D01*
D02*
G37*
G36*
X-291383D02*
X-294016D01*
X-296560Y-268381D01*
X-298840Y-269698D01*
X-300702Y-271560D01*
X-302019Y-273840D01*
X-302700Y-276383D01*
Y-279016D01*
X-302019Y-281560D01*
X-300702Y-283840D01*
X-298840Y-285702D01*
X-296560Y-287018D01*
X-294016Y-287700D01*
X-291383D01*
X-288840Y-287018D01*
X-286560Y-285702D01*
X-284698Y-283840D01*
X-283382Y-281560D01*
X-282700Y-279016D01*
Y-276383D01*
X-283382Y-273840D01*
X-284698Y-271560D01*
X-286560Y-269698D01*
X-288840Y-268381D01*
X-291383Y-267700D01*
D02*
G37*
G36*
X140500Y-299299D02*
Y-307750D01*
X148951D01*
X148319Y-305390D01*
X147002Y-303110D01*
X145140Y-301248D01*
X142860Y-299932D01*
X140500Y-299299D01*
D02*
G37*
G36*
X137500Y-299299D02*
X135140Y-299932D01*
X132860Y-301248D01*
X130998Y-303110D01*
X129682Y-305390D01*
X129049Y-307750D01*
X137500D01*
Y-299299D01*
D02*
G37*
G36*
X-282700Y-307250D02*
X-291200D01*
Y-315750D01*
X-282700D01*
Y-307250D01*
D02*
G37*
G36*
X-294200D02*
X-302700D01*
Y-315750D01*
X-294200D01*
Y-307250D01*
D02*
G37*
G36*
X148951Y-310750D02*
X140500D01*
Y-319201D01*
X142860Y-318568D01*
X145140Y-317252D01*
X147002Y-315390D01*
X148319Y-313110D01*
X148951Y-310750D01*
D02*
G37*
G36*
X137500D02*
X129049D01*
X129682Y-313110D01*
X130998Y-315390D01*
X132860Y-317252D01*
X135140Y-318568D01*
X137500Y-319201D01*
Y-310750D01*
D02*
G37*
G36*
X-265984Y-307250D02*
X-268617D01*
X-271160Y-307931D01*
X-273440Y-309248D01*
X-275302Y-311110D01*
X-276618Y-313390D01*
X-277300Y-315933D01*
Y-318566D01*
X-276618Y-321110D01*
X-275302Y-323390D01*
X-273440Y-325252D01*
X-271160Y-326568D01*
X-268617Y-327250D01*
X-265984D01*
X-263440Y-326568D01*
X-261160Y-325252D01*
X-259298Y-323390D01*
X-257981Y-321110D01*
X-257300Y-318566D01*
Y-315933D01*
X-257981Y-313390D01*
X-259298Y-311110D01*
X-261160Y-309248D01*
X-263440Y-307931D01*
X-265984Y-307250D01*
D02*
G37*
G36*
X-282700Y-318750D02*
X-291200D01*
Y-327250D01*
X-282700D01*
Y-318750D01*
D02*
G37*
G36*
X-294200D02*
X-302700D01*
Y-327250D01*
X-294200D01*
Y-318750D01*
D02*
G37*
G36*
X36499Y-335400D02*
X30999D01*
Y-340900D01*
X36499D01*
Y-335400D01*
D02*
G37*
G36*
X27999D02*
X22499D01*
Y-340900D01*
X27999D01*
Y-335400D01*
D02*
G37*
G36*
X11249D02*
X5749D01*
Y-340900D01*
X11249D01*
Y-335400D01*
D02*
G37*
G36*
X2749D02*
X-2751D01*
Y-340900D01*
X2749D01*
Y-335400D01*
D02*
G37*
G36*
X-291200Y-332699D02*
Y-341150D01*
X-282749D01*
X-283382Y-338790D01*
X-284698Y-336510D01*
X-286560Y-334648D01*
X-288840Y-333331D01*
X-291200Y-332699D01*
D02*
G37*
G36*
X-294200Y-332699D02*
X-296560Y-333331D01*
X-298840Y-334648D01*
X-300702Y-336510D01*
X-302019Y-338790D01*
X-302651Y-341150D01*
X-294200D01*
Y-332699D01*
D02*
G37*
G36*
X36499Y-343900D02*
X30999D01*
Y-349400D01*
X36499D01*
Y-343900D01*
D02*
G37*
G36*
X27999D02*
X22499D01*
Y-349400D01*
X27999D01*
Y-343900D01*
D02*
G37*
G36*
X11249D02*
X5749D01*
Y-349400D01*
X11249D01*
Y-343900D01*
D02*
G37*
G36*
X2749D02*
X-2751D01*
Y-349400D01*
X2749D01*
Y-343900D01*
D02*
G37*
G36*
X228499Y-346288D02*
X220499D01*
X217106Y-346734D01*
X213943Y-348044D01*
X211227Y-350128D01*
X210305Y-351331D01*
X149000D01*
Y-349250D01*
X129000D01*
Y-352282D01*
X36499D01*
Y-351400D01*
X22499D01*
Y-353302D01*
X21157D01*
X19206Y-353690D01*
X17552Y-354795D01*
X12844Y-359502D01*
X12519Y-359989D01*
X11249Y-359604D01*
Y-351400D01*
X-2751D01*
Y-365400D01*
X131D01*
Y-374900D01*
X-1351D01*
Y-394900D01*
X8749D01*
Y-374900D01*
X7268D01*
Y-365400D01*
X11249Y-365400D01*
X11351Y-366628D01*
Y-374900D01*
X11349D01*
Y-384659D01*
X11301Y-384900D01*
X11349Y-385141D01*
Y-394900D01*
X21449D01*
Y-385342D01*
X21547Y-384850D01*
Y-366167D01*
X22499Y-365400D01*
X24051D01*
Y-374900D01*
X24049D01*
Y-384659D01*
X24001Y-384900D01*
X24049Y-385141D01*
Y-394900D01*
X34149D01*
Y-385342D01*
X34247Y-384850D01*
Y-365400D01*
X36499D01*
Y-364517D01*
X129000D01*
Y-369250D01*
X149000D01*
Y-367469D01*
X210305D01*
X211227Y-368671D01*
X213943Y-370755D01*
X216055Y-371630D01*
Y-388400D01*
X207499D01*
Y-414400D01*
X216055D01*
Y-461892D01*
X215356Y-461984D01*
X212193Y-463294D01*
X209478Y-465378D01*
X207394Y-468094D01*
X206084Y-471256D01*
X205637Y-474650D01*
X206084Y-478043D01*
X207394Y-481206D01*
X209478Y-483922D01*
X212193Y-486005D01*
X214680Y-487035D01*
Y-503650D01*
X205749D01*
Y-529650D01*
X214680D01*
Y-552808D01*
X172157Y-595331D01*
X-134158D01*
X-154750Y-574739D01*
Y-569250D01*
X-160238D01*
X-211000Y-518489D01*
Y-503900D01*
X-245000D01*
Y-529900D01*
X-222411D01*
X-181750Y-570561D01*
Y-596250D01*
X-156061D01*
X-143206Y-609105D01*
X-141535Y-610388D01*
X-139588Y-611194D01*
X-137500Y-611469D01*
X175499D01*
X177588Y-611194D01*
X179534Y-610388D01*
X181205Y-609105D01*
X228455Y-561855D01*
X229737Y-560184D01*
X230543Y-558238D01*
X230818Y-556150D01*
Y-529650D01*
X239749D01*
Y-503650D01*
X230818D01*
Y-487035D01*
X233305Y-486005D01*
X236021Y-483922D01*
X238105Y-481206D01*
X239415Y-478043D01*
X239861Y-474650D01*
X239415Y-471256D01*
X238105Y-468094D01*
X236021Y-465378D01*
X233305Y-463294D01*
X232193Y-462834D01*
Y-414400D01*
X241499D01*
Y-388400D01*
X232193D01*
Y-371941D01*
X235055Y-370755D01*
X237771Y-368671D01*
X239855Y-365956D01*
X241165Y-362793D01*
X241611Y-359400D01*
X241165Y-356006D01*
X239855Y-352844D01*
X237771Y-350128D01*
X235055Y-348044D01*
X231893Y-346734D01*
X228499Y-346288D01*
D02*
G37*
G36*
X-282749Y-344150D02*
X-291200D01*
Y-352601D01*
X-288840Y-351968D01*
X-286560Y-350652D01*
X-284698Y-348790D01*
X-283382Y-346510D01*
X-282749Y-344150D01*
D02*
G37*
G36*
X-294200D02*
X-302651D01*
X-302019Y-346510D01*
X-300702Y-348790D01*
X-298840Y-350652D01*
X-296560Y-351968D01*
X-294200Y-352601D01*
Y-344150D01*
D02*
G37*
G36*
X-265984Y-332650D02*
X-268617D01*
X-271160Y-333331D01*
X-273440Y-334648D01*
X-275302Y-336510D01*
X-276618Y-338790D01*
X-277300Y-341333D01*
Y-343966D01*
X-276618Y-346510D01*
X-275302Y-348790D01*
X-273440Y-350652D01*
X-271160Y-351968D01*
X-268617Y-352650D01*
X-265984D01*
X-263440Y-351968D01*
X-261160Y-350652D01*
X-259298Y-348790D01*
X-257981Y-346510D01*
X-257300Y-343966D01*
Y-341333D01*
X-257981Y-338790D01*
X-259298Y-336510D01*
X-261160Y-334648D01*
X-263440Y-333331D01*
X-265984Y-332650D01*
D02*
G37*
G36*
X283499Y-346288D02*
X281000D01*
Y-357900D01*
X296414D01*
X296165Y-356006D01*
X294855Y-352844D01*
X292771Y-350128D01*
X290055Y-348044D01*
X286893Y-346734D01*
X283499Y-346288D01*
D02*
G37*
G36*
X277999D02*
X275499D01*
X272106Y-346734D01*
X268943Y-348044D01*
X266227Y-350128D01*
X264144Y-352844D01*
X262834Y-356006D01*
X262584Y-357900D01*
X277999D01*
Y-346288D01*
D02*
G37*
G36*
X-112501Y-360150D02*
X-118001D01*
Y-365650D01*
X-112501D01*
Y-360150D01*
D02*
G37*
G36*
X-93251D02*
X-98751D01*
Y-365650D01*
X-93251D01*
Y-360150D01*
D02*
G37*
G36*
X-101751D02*
X-107251D01*
Y-365650D01*
X-101751D01*
Y-360150D01*
D02*
G37*
G36*
X-121001D02*
X-126501D01*
Y-365650D01*
X-121001D01*
Y-360150D01*
D02*
G37*
G36*
X-291200Y-358099D02*
Y-366550D01*
X-282749D01*
X-283382Y-364190D01*
X-284698Y-361910D01*
X-286560Y-360048D01*
X-288840Y-358731D01*
X-291200Y-358099D01*
D02*
G37*
G36*
X-294200Y-358099D02*
X-296560Y-358731D01*
X-298840Y-360048D01*
X-300702Y-361910D01*
X-302019Y-364190D01*
X-302651Y-366550D01*
X-294200D01*
Y-358099D01*
D02*
G37*
G36*
X296414Y-360900D02*
X281000D01*
Y-372512D01*
X283499D01*
X286893Y-372065D01*
X290055Y-370755D01*
X292771Y-368671D01*
X294855Y-365956D01*
X296165Y-362793D01*
X296414Y-360900D01*
D02*
G37*
G36*
X277999D02*
X262584D01*
X262834Y-362793D01*
X264144Y-365956D01*
X266227Y-368671D01*
X268943Y-370755D01*
X272106Y-372065D01*
X275499Y-372512D01*
X277999D01*
Y-360900D01*
D02*
G37*
G36*
X-93251Y-368650D02*
X-98751D01*
Y-374150D01*
X-93251D01*
Y-368650D01*
D02*
G37*
G36*
X-101751D02*
X-107251D01*
Y-374150D01*
X-101751D01*
Y-368650D01*
D02*
G37*
G36*
X-112501D02*
X-118001D01*
Y-374150D01*
X-112501D01*
Y-368650D01*
D02*
G37*
G36*
X-121001D02*
X-126501D01*
Y-374150D01*
X-121001D01*
Y-368650D01*
D02*
G37*
G36*
X-282749Y-369550D02*
X-291200D01*
Y-378000D01*
X-288840Y-377368D01*
X-286560Y-376052D01*
X-284698Y-374190D01*
X-283382Y-371909D01*
X-282749Y-369550D01*
D02*
G37*
G36*
X-294200D02*
X-302651D01*
X-302019Y-371909D01*
X-300702Y-374190D01*
X-298840Y-376052D01*
X-296560Y-377368D01*
X-294200Y-378000D01*
Y-369550D01*
D02*
G37*
G36*
X-265984Y-358050D02*
X-268617D01*
X-271160Y-358731D01*
X-273440Y-360048D01*
X-275302Y-361910D01*
X-276618Y-364190D01*
X-277300Y-366733D01*
Y-369366D01*
X-276618Y-371909D01*
X-275302Y-374190D01*
X-273440Y-376052D01*
X-271160Y-377368D01*
X-268617Y-378050D01*
X-265984D01*
X-263440Y-377368D01*
X-261160Y-376052D01*
X-259298Y-374190D01*
X-257981Y-371909D01*
X-257300Y-369366D01*
Y-366733D01*
X-257981Y-364190D01*
X-259298Y-361910D01*
X-261160Y-360048D01*
X-263440Y-358731D01*
X-265984Y-358050D01*
D02*
G37*
G36*
X108499Y-386650D02*
X91499D01*
Y-399150D01*
X108499D01*
Y-386650D01*
D02*
G37*
G36*
X88499D02*
X71499D01*
Y-399150D01*
X88499D01*
Y-386650D01*
D02*
G37*
G36*
X283499Y-388288D02*
X280999D01*
Y-399900D01*
X296414D01*
X296165Y-398006D01*
X294855Y-394844D01*
X292771Y-392128D01*
X290055Y-390044D01*
X286893Y-388734D01*
X283499Y-388288D01*
D02*
G37*
G36*
X277999D02*
X275499D01*
X272106Y-388734D01*
X268943Y-390044D01*
X266227Y-392128D01*
X264144Y-394844D01*
X262834Y-398006D01*
X262584Y-399900D01*
X277999D01*
Y-388288D01*
D02*
G37*
G36*
X296414Y-402900D02*
X280999D01*
Y-414512D01*
X283499D01*
X286893Y-414065D01*
X290055Y-412755D01*
X292771Y-410672D01*
X294855Y-407956D01*
X296165Y-404794D01*
X296414Y-402900D01*
D02*
G37*
G36*
X277999D02*
X262584D01*
X262834Y-404794D01*
X264144Y-407956D01*
X266227Y-410672D01*
X268943Y-412755D01*
X272106Y-414065D01*
X275499Y-414512D01*
X277999D01*
Y-402900D01*
D02*
G37*
G36*
X108499Y-402150D02*
X91499D01*
Y-414650D01*
X108499D01*
Y-402150D01*
D02*
G37*
G36*
X88499D02*
X71499D01*
Y-414650D01*
X88499D01*
Y-402150D01*
D02*
G37*
G36*
X-199750Y-352500D02*
X-226750D01*
Y-366021D01*
X-227630Y-366385D01*
X-229093Y-367508D01*
X-276236Y-414651D01*
X-279000Y-414288D01*
X-287000D01*
X-290394Y-414734D01*
X-293556Y-416044D01*
X-296272Y-418128D01*
X-298356Y-420844D01*
X-299665Y-424006D01*
X-300112Y-427400D01*
X-299665Y-430793D01*
X-298356Y-433956D01*
X-296272Y-436671D01*
X-293556Y-438755D01*
X-290394Y-440065D01*
X-287000Y-440512D01*
X-279000D01*
X-275606Y-440065D01*
X-275298Y-439937D01*
X-252843Y-462392D01*
X-251380Y-463514D01*
X-249678Y-464220D01*
X-247850Y-464460D01*
X-183150D01*
X-180705Y-466905D01*
X-179051Y-468010D01*
X-177100Y-468399D01*
X-147452D01*
X-147230Y-468354D01*
X-138352D01*
X-137279Y-468141D01*
X-136369Y-467533D01*
X-135761Y-466624D01*
X-135548Y-465551D01*
Y-461051D01*
X-135761Y-459978D01*
X-136369Y-459068D01*
X-137279Y-458460D01*
X-138352Y-458247D01*
X-147230D01*
X-147452Y-458203D01*
X-174798D01*
X-175562Y-457170D01*
X-174090Y-455699D01*
X-147452D01*
X-147230Y-455654D01*
X-138352D01*
X-137279Y-455441D01*
X-136369Y-454833D01*
X-135761Y-453924D01*
X-135548Y-452851D01*
Y-448351D01*
X-135761Y-447278D01*
X-136369Y-446368D01*
X-137279Y-445760D01*
X-138352Y-445547D01*
X-147230D01*
X-147452Y-445503D01*
X-176202D01*
X-178153Y-445891D01*
X-179806Y-446996D01*
X-183150Y-450339D01*
X-244926D01*
X-266118Y-429147D01*
X-265888Y-427400D01*
X-266252Y-424636D01*
X-221176Y-379560D01*
X-219750D01*
X-219291Y-379500D01*
X-199750D01*
Y-352500D01*
D02*
G37*
G36*
X46849Y-374900D02*
X36749D01*
Y-394900D01*
X46849D01*
Y-383468D01*
X110271D01*
X134681Y-407878D01*
Y-420900D01*
X128749D01*
Y-436611D01*
X60344Y-436611D01*
X50941Y-427208D01*
X50280Y-426766D01*
X49499Y-426611D01*
X36499D01*
X35719Y-426766D01*
X35057Y-427208D01*
X34640Y-427833D01*
X34615Y-427869D01*
X33997Y-428751D01*
X33313Y-428900D01*
X30599D01*
Y-438900D01*
Y-448900D01*
X33190D01*
X34460Y-450041D01*
Y-456900D01*
X34460Y-456900D01*
X34615Y-457680D01*
X35057Y-458342D01*
X77057Y-500342D01*
X77719Y-500784D01*
X78499Y-500939D01*
X98155D01*
X127210Y-529994D01*
Y-581900D01*
X127210Y-581900D01*
X127365Y-582680D01*
X127807Y-583342D01*
X132763Y-588297D01*
X132855Y-588359D01*
X132926Y-588444D01*
X133183Y-588578D01*
X133424Y-588739D01*
X133533Y-588761D01*
X133631Y-588812D01*
X133920Y-588838D01*
X134205Y-588895D01*
X134313Y-588873D01*
X134424Y-588883D01*
X135804Y-588734D01*
X136009Y-588670D01*
X136222Y-588644D01*
X136385Y-588552D01*
X136564Y-588495D01*
X136728Y-588358D01*
X136915Y-588253D01*
X137030Y-588105D01*
X137174Y-587985D01*
X137273Y-587795D01*
X137405Y-587626D01*
X137819Y-586808D01*
X137840Y-586733D01*
X137883Y-586668D01*
X137946Y-586352D01*
X138003Y-586150D01*
X167308D01*
X167334Y-586189D01*
X167553Y-586517D01*
X167555Y-586519D01*
X167557Y-586522D01*
X167887Y-586743D01*
X168213Y-586962D01*
X169483Y-587492D01*
X169869Y-587571D01*
X170256Y-587650D01*
X170259Y-587650D01*
X170263Y-587650D01*
X170652Y-587574D01*
X171038Y-587500D01*
X171040Y-587498D01*
X171043Y-587497D01*
X171374Y-587278D01*
X171702Y-587062D01*
X174932Y-583873D01*
X174936Y-583868D01*
X174941Y-583864D01*
X175159Y-583538D01*
X175378Y-583214D01*
X175380Y-583208D01*
X175383Y-583202D01*
X175459Y-582820D01*
X175538Y-582435D01*
X175537Y-582428D01*
X175538Y-582422D01*
Y-460650D01*
X175383Y-459869D01*
X174941Y-459208D01*
X152941Y-437208D01*
X152280Y-436766D01*
X151499Y-436611D01*
X147749D01*
Y-420900D01*
X141818D01*
Y-406400D01*
X141546Y-405034D01*
X140773Y-403876D01*
X114272Y-377376D01*
X113115Y-376603D01*
X111749Y-376331D01*
X46849D01*
Y-374900D01*
D02*
G37*
G36*
X27599Y-428900D02*
X24049D01*
Y-437400D01*
X27599D01*
Y-428900D01*
D02*
G37*
G36*
X-154750Y-352500D02*
X-181750D01*
Y-368089D01*
X-224706Y-411044D01*
X-225988Y-412715D01*
X-226686Y-414400D01*
X-245000D01*
Y-440400D01*
X-211000D01*
Y-422924D01*
X-210931Y-422400D01*
Y-420092D01*
X-170339Y-379500D01*
X-154750D01*
Y-352500D01*
D02*
G37*
G36*
X-81255Y-445500D02*
X-83245D01*
X-85082Y-446261D01*
X-85436Y-446614D01*
X-86876Y-446507D01*
X-86969Y-446368D01*
X-87879Y-445760D01*
X-88952Y-445547D01*
X-107152D01*
X-108225Y-445760D01*
X-109134Y-446368D01*
X-109742Y-447278D01*
X-109956Y-448351D01*
Y-452851D01*
X-109742Y-453924D01*
X-109134Y-454833D01*
X-108225Y-455441D01*
X-107152Y-455654D01*
X-88952D01*
X-87879Y-455441D01*
X-86969Y-454833D01*
X-86788Y-454563D01*
X-85363Y-454458D01*
X-85082Y-454739D01*
X-83245Y-455500D01*
X-81255D01*
X-79418Y-454739D01*
X-78011Y-453332D01*
X-77250Y-451495D01*
Y-449505D01*
X-78011Y-447668D01*
X-79418Y-446261D01*
X-81255Y-445500D01*
D02*
G37*
G36*
X27599Y-440400D02*
X24049D01*
Y-448900D01*
X27599D01*
Y-440400D01*
D02*
G37*
G36*
X-88952Y-458247D02*
X-96552D01*
Y-461801D01*
X-86148D01*
Y-461051D01*
X-86361Y-459978D01*
X-86969Y-459068D01*
X-87879Y-458460D01*
X-88952Y-458247D01*
D02*
G37*
G36*
X-99551D02*
X-107152D01*
X-108225Y-458460D01*
X-109134Y-459068D01*
X-109742Y-459978D01*
X-109956Y-461051D01*
Y-461801D01*
X-99551D01*
Y-458247D01*
D02*
G37*
G36*
X-86148Y-464801D02*
X-96552D01*
Y-468354D01*
X-88952D01*
X-87879Y-468141D01*
X-86969Y-467533D01*
X-86361Y-466624D01*
X-86148Y-465551D01*
Y-464801D01*
D02*
G37*
G36*
X-99551D02*
X-109956D01*
Y-465551D01*
X-109742Y-466624D01*
X-109134Y-467533D01*
X-108225Y-468141D01*
X-107152Y-468354D01*
X-99551D01*
Y-464801D01*
D02*
G37*
G36*
X-15501Y-464400D02*
X-21001D01*
Y-469900D01*
X-15501D01*
Y-464400D01*
D02*
G37*
G36*
X-24001D02*
X-29501D01*
Y-469900D01*
X-24001D01*
Y-464400D01*
D02*
G37*
G36*
X-81005Y-470750D02*
X-82995D01*
X-84832Y-471511D01*
X-85448Y-472127D01*
X-86787Y-472040D01*
X-86969Y-471768D01*
X-87879Y-471160D01*
X-88952Y-470947D01*
X-107152D01*
X-108225Y-471160D01*
X-109134Y-471768D01*
X-109742Y-472678D01*
X-109956Y-473751D01*
Y-478251D01*
X-109742Y-479324D01*
X-109134Y-480233D01*
X-108225Y-480841D01*
X-107152Y-481054D01*
X-88952D01*
X-87879Y-480841D01*
X-86969Y-480233D01*
X-86568Y-479634D01*
X-85267Y-479554D01*
X-84832Y-479989D01*
X-82995Y-480750D01*
X-81005D01*
X-79168Y-479989D01*
X-77761Y-478582D01*
X-77000Y-476745D01*
Y-474755D01*
X-77761Y-472918D01*
X-79168Y-471511D01*
X-81005Y-470750D01*
D02*
G37*
G36*
X281749Y-461538D02*
X279249D01*
Y-473150D01*
X294664D01*
X294415Y-471256D01*
X293105Y-468094D01*
X291021Y-465378D01*
X288305Y-463294D01*
X285143Y-461984D01*
X281749Y-461538D01*
D02*
G37*
G36*
X276249D02*
X273749D01*
X270355Y-461984D01*
X267193Y-463294D01*
X264478Y-465378D01*
X262394Y-468094D01*
X261084Y-471256D01*
X260835Y-473150D01*
X276249D01*
Y-461538D01*
D02*
G37*
G36*
X-24001Y-472900D02*
X-29501D01*
Y-478400D01*
X-24001D01*
Y-472900D01*
D02*
G37*
G36*
X8749Y-428900D02*
X-1351D01*
Y-448900D01*
X131D01*
Y-459722D01*
X-4548Y-464400D01*
X-13501D01*
Y-474555D01*
X-13569Y-474900D01*
Y-477817D01*
X-14404Y-478476D01*
X-15501Y-477878D01*
X-15501Y-477272D01*
Y-472900D01*
X-21001D01*
Y-478400D01*
X-16718D01*
X-15844Y-478400D01*
X-15188Y-479540D01*
X-20547Y-484900D01*
X-29501D01*
Y-498900D01*
X-26069D01*
Y-503650D01*
X-29501D01*
Y-517650D01*
X-20207D01*
X-19721Y-518823D01*
X-23548Y-522650D01*
X-29501D01*
Y-536650D01*
X-26069D01*
Y-558782D01*
X-54251D01*
Y-554900D01*
X-59383D01*
Y-514683D01*
X-49349Y-504650D01*
X-44001D01*
Y-490650D01*
X-58001D01*
Y-495998D01*
X-69826Y-507823D01*
X-71152Y-509808D01*
X-71617Y-512149D01*
Y-554900D01*
X-74251D01*
Y-574900D01*
X-54251D01*
Y-571017D01*
X36999D01*
Y-586150D01*
X69999D01*
Y-528150D01*
X36999D01*
Y-558782D01*
X-18932D01*
Y-536650D01*
X-15501D01*
Y-524702D01*
X-14610Y-523968D01*
X-13501Y-524442D01*
Y-528150D01*
X-8001D01*
Y-522650D01*
X-11795D01*
X-12281Y-521477D01*
X-8454Y-517650D01*
X499D01*
Y-503650D01*
X-2932D01*
Y-498900D01*
X499D01*
Y-484900D01*
X-8795D01*
X-9281Y-483727D01*
X-7477Y-481923D01*
X-6704Y-480765D01*
X-6432Y-479400D01*
Y-478400D01*
X499D01*
Y-469446D01*
X6223Y-463723D01*
X6996Y-462565D01*
X7268Y-461200D01*
Y-448900D01*
X8749D01*
Y-428900D01*
D02*
G37*
G36*
X21449D02*
X11349D01*
Y-448900D01*
X12431D01*
Y-456900D01*
X12702Y-458265D01*
X13476Y-459423D01*
X16931Y-462878D01*
Y-464650D01*
X13499D01*
Y-478650D01*
X27499D01*
Y-464650D01*
X24068D01*
Y-461400D01*
X23796Y-460034D01*
X23022Y-458876D01*
X19568Y-455422D01*
Y-448900D01*
X21449D01*
Y-428900D01*
D02*
G37*
G36*
X27499Y-480650D02*
X21999D01*
Y-486150D01*
X27499D01*
Y-480650D01*
D02*
G37*
G36*
X18999D02*
X13499D01*
Y-486150D01*
X18999D01*
Y-480650D01*
D02*
G37*
G36*
X-88952Y-483647D02*
X-96552D01*
Y-487201D01*
X-86148D01*
Y-486451D01*
X-86361Y-485378D01*
X-86969Y-484468D01*
X-87879Y-483860D01*
X-88952Y-483647D01*
D02*
G37*
G36*
X-99551D02*
X-107152D01*
X-108225Y-483860D01*
X-109134Y-484468D01*
X-109742Y-485378D01*
X-109956Y-486451D01*
Y-487201D01*
X-99551D01*
Y-483647D01*
D02*
G37*
G36*
X294664Y-476150D02*
X279249D01*
Y-487762D01*
X281749D01*
X285143Y-487315D01*
X288305Y-486005D01*
X291021Y-483922D01*
X293105Y-481206D01*
X294415Y-478043D01*
X294664Y-476150D01*
D02*
G37*
G36*
X276249D02*
X260835D01*
X261084Y-478043D01*
X262394Y-481206D01*
X264478Y-483922D01*
X267193Y-486005D01*
X270355Y-487315D01*
X273749Y-487762D01*
X276249D01*
Y-476150D01*
D02*
G37*
G36*
X-86148Y-490201D02*
X-96552D01*
Y-493755D01*
X-88952D01*
X-87879Y-493541D01*
X-86969Y-492933D01*
X-86361Y-492024D01*
X-86148Y-490951D01*
Y-490201D01*
D02*
G37*
G36*
X-99551D02*
X-109956D01*
Y-490951D01*
X-109742Y-492024D01*
X-109134Y-492933D01*
X-108225Y-493541D01*
X-107152Y-493755D01*
X-99551D01*
Y-490201D01*
D02*
G37*
G36*
X-147452Y-470903D02*
X-177579D01*
X-179530Y-471291D01*
X-181184Y-472396D01*
X-183878Y-475089D01*
X-244900D01*
X-246727Y-475330D01*
X-248430Y-476035D01*
X-249892Y-477157D01*
X-276811Y-504076D01*
X-279000Y-503788D01*
X-287000D01*
X-290394Y-504234D01*
X-293556Y-505544D01*
X-296272Y-507628D01*
X-298356Y-510344D01*
X-299665Y-513506D01*
X-300112Y-516900D01*
X-299665Y-520293D01*
X-298356Y-523456D01*
X-296272Y-526171D01*
X-293556Y-528255D01*
X-290394Y-529565D01*
X-287000Y-530012D01*
X-279000D01*
X-276325Y-529660D01*
X-226750Y-579235D01*
Y-596250D01*
X-199750D01*
Y-569250D01*
X-216765D01*
X-266263Y-519752D01*
X-265888Y-516900D01*
X-266327Y-513562D01*
X-241975Y-489210D01*
X-183878D01*
X-180783Y-492305D01*
X-179129Y-493410D01*
X-177178Y-493799D01*
X-147452D01*
X-147230Y-493755D01*
X-138352D01*
X-137279Y-493541D01*
X-136369Y-492933D01*
X-135761Y-492024D01*
X-135548Y-490951D01*
Y-486451D01*
X-135761Y-485378D01*
X-136369Y-484468D01*
X-137279Y-483860D01*
X-138352Y-483647D01*
X-147230D01*
X-147452Y-483603D01*
X-175066D01*
X-176519Y-482150D01*
X-175468Y-481099D01*
X-147452D01*
X-147230Y-481054D01*
X-138352D01*
X-137279Y-480841D01*
X-136369Y-480233D01*
X-135761Y-479324D01*
X-135548Y-478251D01*
Y-473751D01*
X-135761Y-472678D01*
X-136369Y-471768D01*
X-137279Y-471160D01*
X-138352Y-470947D01*
X-147230D01*
X-147452Y-470903D01*
D02*
G37*
G36*
X27499Y-489150D02*
X21999D01*
Y-494650D01*
X27499D01*
Y-489150D01*
D02*
G37*
G36*
X18999D02*
X13499D01*
Y-494650D01*
X18999D01*
Y-489150D01*
D02*
G37*
G36*
X281749Y-503538D02*
X279250D01*
Y-515150D01*
X294664D01*
X294415Y-513256D01*
X293105Y-510094D01*
X291021Y-507378D01*
X288305Y-505294D01*
X285143Y-503984D01*
X281749Y-503538D01*
D02*
G37*
G36*
X276250D02*
X273749D01*
X270355Y-503984D01*
X267193Y-505294D01*
X264478Y-507378D01*
X262394Y-510094D01*
X261084Y-513256D01*
X260835Y-515150D01*
X276250D01*
Y-503538D01*
D02*
G37*
G36*
X499Y-522650D02*
X-5001D01*
Y-528150D01*
X499D01*
Y-522650D01*
D02*
G37*
G36*
X294664Y-518150D02*
X279250D01*
Y-529762D01*
X281749D01*
X285143Y-529315D01*
X288305Y-528005D01*
X291021Y-525922D01*
X293105Y-523206D01*
X294415Y-520043D01*
X294664Y-518150D01*
D02*
G37*
G36*
X276250D02*
X260835D01*
X261084Y-520043D01*
X262394Y-523206D01*
X264478Y-525922D01*
X267193Y-528005D01*
X270355Y-529315D01*
X273749Y-529762D01*
X276250D01*
Y-518150D01*
D02*
G37*
G36*
X499Y-531150D02*
X-5001D01*
Y-536650D01*
X499D01*
Y-531150D01*
D02*
G37*
G36*
X-8001D02*
X-13501D01*
Y-536650D01*
X-8001D01*
Y-531150D01*
D02*
G37*
G36*
X-112751Y-554949D02*
Y-563400D01*
X-104300D01*
X-104932Y-561040D01*
X-106249Y-558760D01*
X-108111Y-556898D01*
X-110391Y-555581D01*
X-112751Y-554949D01*
D02*
G37*
G36*
X-115751Y-554949D02*
X-118111Y-555581D01*
X-120391Y-556898D01*
X-122253Y-558760D01*
X-123569Y-561040D01*
X-124202Y-563400D01*
X-115751D01*
Y-554949D01*
D02*
G37*
G36*
X-104300Y-566400D02*
X-112751D01*
Y-574851D01*
X-110391Y-574218D01*
X-108111Y-572902D01*
X-106249Y-571040D01*
X-104932Y-568760D01*
X-104300Y-566400D01*
D02*
G37*
G36*
X-115751D02*
X-124202D01*
X-123569Y-568760D01*
X-122253Y-571040D01*
X-120391Y-572902D01*
X-118111Y-574218D01*
X-115751Y-574851D01*
Y-566400D01*
D02*
G37*
G36*
X310000Y-561913D02*
X301500D01*
Y-588500D01*
X337968D01*
X337741Y-585606D01*
X336712Y-581321D01*
X335025Y-577249D01*
X332723Y-573491D01*
X329860Y-570140D01*
X326509Y-567277D01*
X322751Y-564975D01*
X318679Y-563288D01*
X314394Y-562259D01*
X310000Y-561913D01*
D02*
G37*
G36*
X-290000D02*
X-298500D01*
Y-588500D01*
X-262031D01*
X-262259Y-585606D01*
X-263288Y-581321D01*
X-264975Y-577249D01*
X-267278Y-573491D01*
X-270140Y-570140D01*
X-273491Y-567277D01*
X-277249Y-564975D01*
X-281321Y-563288D01*
X-285606Y-562259D01*
X-290000Y-561913D01*
D02*
G37*
G36*
X298500D02*
X290000D01*
X285606Y-562259D01*
X281321Y-563288D01*
X277249Y-564975D01*
X273491Y-567277D01*
X270140Y-570140D01*
X267278Y-573491D01*
X264975Y-577249D01*
X263288Y-581321D01*
X262259Y-585606D01*
X262031Y-588500D01*
X298500D01*
Y-561913D01*
D02*
G37*
G36*
X-301500D02*
X-310000D01*
X-314394Y-562259D01*
X-318679Y-563288D01*
X-322751Y-564975D01*
X-326509Y-567277D01*
X-329860Y-570140D01*
X-332723Y-573491D01*
X-335025Y-577249D01*
X-336712Y-581321D01*
X-337741Y-585606D01*
X-337968Y-588500D01*
X-301500D01*
Y-561913D01*
D02*
G37*
G36*
X337969Y-591500D02*
X301500D01*
Y-618087D01*
X310000D01*
X314394Y-617741D01*
X318679Y-616712D01*
X322751Y-615025D01*
X326509Y-612723D01*
X329860Y-609860D01*
X332723Y-606509D01*
X335025Y-602751D01*
X336712Y-598679D01*
X337741Y-594394D01*
X337969Y-591500D01*
D02*
G37*
G36*
X298500D02*
X262031D01*
X262259Y-594394D01*
X263288Y-598679D01*
X264975Y-602751D01*
X267278Y-606509D01*
X270140Y-609860D01*
X273491Y-612723D01*
X277249Y-615025D01*
X281321Y-616712D01*
X285606Y-617741D01*
X290000Y-618087D01*
X298500D01*
Y-591500D01*
D02*
G37*
G36*
X-262031D02*
X-298500D01*
Y-618087D01*
X-290000D01*
X-285606Y-617741D01*
X-281321Y-616712D01*
X-277249Y-615025D01*
X-273491Y-612723D01*
X-270140Y-609860D01*
X-267278Y-606509D01*
X-264975Y-602751D01*
X-263288Y-598679D01*
X-262259Y-594394D01*
X-262031Y-591500D01*
D02*
G37*
G36*
X-301500D02*
X-337969D01*
X-337741Y-594394D01*
X-336712Y-598679D01*
X-335025Y-602751D01*
X-332723Y-606509D01*
X-329860Y-609860D01*
X-326509Y-612723D01*
X-322751Y-615025D01*
X-318679Y-616712D01*
X-314394Y-617741D01*
X-310000Y-618087D01*
X-301500D01*
Y-591500D01*
D02*
G37*
G36*
X242977Y-593500D02*
X240023D01*
X237125Y-594076D01*
X234395Y-595207D01*
X231938Y-596849D01*
X229849Y-598938D01*
X228207Y-601395D01*
X227076Y-604125D01*
X226500Y-607023D01*
Y-609977D01*
X227076Y-612875D01*
X228207Y-615605D01*
X229849Y-618062D01*
X231938Y-620151D01*
X234395Y-621793D01*
X237125Y-622924D01*
X240023Y-623500D01*
X242977D01*
X245875Y-622924D01*
X248605Y-621793D01*
X251062Y-620151D01*
X253151Y-618062D01*
X254793Y-615605D01*
X255924Y-612875D01*
X256500Y-609977D01*
Y-607023D01*
X255924Y-604125D01*
X254793Y-601395D01*
X253151Y-598938D01*
X251062Y-596849D01*
X248605Y-595207D01*
X245875Y-594076D01*
X242977Y-593500D01*
D02*
G37*
%LPD*%
G36*
X178701Y104249D02*
X179431Y103828D01*
Y82528D01*
X172922Y76020D01*
X171749Y76506D01*
Y86350D01*
X163073D01*
X162471Y87620D01*
X163081Y89094D01*
Y90042D01*
X166331Y93292D01*
X167105Y94450D01*
X167376Y95815D01*
Y100429D01*
X168920Y101973D01*
X169378Y101850D01*
X171221D01*
X173001Y102327D01*
X174597Y103249D01*
X175901Y104552D01*
X176205Y105079D01*
X176510Y105200D01*
X177744Y105206D01*
X178701Y104249D01*
D02*
G37*
G36*
X-145524Y10827D02*
X-144366Y10053D01*
X-143001Y9782D01*
X-138251D01*
Y6350D01*
X-124251D01*
Y9782D01*
X-120251D01*
Y6350D01*
X-112007D01*
X-111521Y5177D01*
X-117629Y-931D01*
X-141548D01*
X-142913Y-1203D01*
X-144071Y-1977D01*
X-154361Y-12266D01*
X-155309D01*
X-157146Y-13028D01*
X-158553Y-14434D01*
X-159314Y-16272D01*
X-160500Y-16069D01*
Y-8500D01*
X-167328D01*
Y11064D01*
X-166392Y12000D01*
X-151500D01*
Y15143D01*
X-150327Y15629D01*
X-145524Y10827D01*
D02*
G37*
G36*
X-158553Y-20099D02*
X-157146Y-21505D01*
X-156980Y-22344D01*
X-157053Y-22418D01*
X-157814Y-24255D01*
Y-26244D01*
X-157053Y-28082D01*
X-155646Y-29489D01*
X-154979Y-29765D01*
X-154696Y-30587D01*
X-154639Y-31280D01*
X-155293Y-32259D01*
X-155564Y-33624D01*
Y-37900D01*
X-156235Y-38571D01*
X-156996Y-40408D01*
Y-42397D01*
X-156235Y-44235D01*
X-154828Y-45642D01*
X-152991Y-46403D01*
X-151211D01*
X-150617Y-46979D01*
X-150283Y-47480D01*
X-150496Y-47994D01*
Y-49984D01*
X-150346Y-50346D01*
X-151051Y-51402D01*
X-173902D01*
Y-36500D01*
X-160500D01*
Y-18464D01*
X-159314Y-18261D01*
X-158553Y-20099D01*
D02*
G37*
G36*
X65431Y-102477D02*
Y-119400D01*
X65702Y-120765D01*
X66476Y-121923D01*
X73076Y-128523D01*
X74234Y-129297D01*
X75599Y-129568D01*
X86497D01*
X87167Y-130239D01*
X89005Y-131000D01*
X90994D01*
X92831Y-130239D01*
X93631Y-129439D01*
X94901Y-129965D01*
Y-144788D01*
X65138Y-174552D01*
X64534Y-174802D01*
X-78758D01*
X-79244Y-173629D01*
X-79023Y-173408D01*
X-78262Y-171570D01*
Y-169581D01*
X-78924Y-167982D01*
X-78850Y-167611D01*
Y-162226D01*
X-79122Y-160861D01*
X-79895Y-159703D01*
X-81335Y-158263D01*
X-81037Y-156765D01*
X-80370Y-156489D01*
X-79700Y-155819D01*
X-42209D01*
X-40843Y-155547D01*
X-39686Y-154773D01*
X15369Y-99718D01*
X26497D01*
X27167Y-100389D01*
X29005Y-101150D01*
X30994D01*
X32831Y-100389D01*
X34238Y-98982D01*
X34999Y-97144D01*
Y-95155D01*
X34238Y-93317D01*
X33757Y-92837D01*
X33331Y-91639D01*
X33775Y-91195D01*
X34738Y-90232D01*
X35499Y-88394D01*
Y-86405D01*
X34738Y-84567D01*
X33494Y-83323D01*
X33525Y-83181D01*
X33913Y-82254D01*
X33980Y-82150D01*
X35744D01*
X37582Y-81389D01*
X38252Y-80718D01*
X43672D01*
X65431Y-102477D01*
D02*
G37*
G36*
X137127Y-94514D02*
X138200Y-94728D01*
X147078D01*
X147300Y-94772D01*
X160873D01*
X161401Y-95300D01*
Y-105645D01*
X160394Y-106651D01*
X159289Y-108305D01*
X158901Y-110256D01*
Y-117824D01*
X156999D01*
Y-120014D01*
X133638D01*
X131838Y-120372D01*
X131513Y-120281D01*
X130568Y-119622D01*
Y-104424D01*
X131741Y-103938D01*
X132351Y-104548D01*
X133509Y-105322D01*
X134874Y-105594D01*
X135589D01*
X135610Y-105697D01*
X136217Y-106607D01*
X137127Y-107214D01*
X138200Y-107428D01*
X156400D01*
X157473Y-107214D01*
X158383Y-106607D01*
X158990Y-105697D01*
X159204Y-104624D01*
Y-100124D01*
X158990Y-99051D01*
X158383Y-98141D01*
X157473Y-97534D01*
X156400Y-97320D01*
X138200D01*
X137127Y-97534D01*
X136806Y-97748D01*
X135568Y-97048D01*
Y-95000D01*
X136838Y-94321D01*
X137127Y-94514D01*
D02*
G37*
G36*
X59499Y-438650D02*
X128749Y-438650D01*
Y-444900D01*
X138250D01*
X147749D01*
Y-438650D01*
X151499D01*
X173499Y-460650D01*
Y-582422D01*
X170269Y-585611D01*
X168999Y-585080D01*
Y-558650D01*
X152499D01*
X135999D01*
Y-585888D01*
X135585Y-586706D01*
X134205Y-586855D01*
X129249Y-581900D01*
Y-529150D01*
X98999Y-498900D01*
X78499D01*
X36499Y-456900D01*
X36499Y-428650D01*
X49499D01*
X59499Y-438650D01*
D02*
G37*
%LPC*%
G36*
X147749Y-447900D02*
X139749D01*
Y-454900D01*
X147749D01*
Y-447900D01*
D02*
G37*
G36*
X136749D02*
X128749D01*
Y-454900D01*
X136749D01*
Y-447900D01*
D02*
G37*
G36*
X108499Y-456150D02*
X91499D01*
Y-468650D01*
X108499D01*
Y-456150D01*
D02*
G37*
G36*
X88499D02*
X71499D01*
Y-468650D01*
X88499D01*
Y-456150D01*
D02*
G37*
G36*
X108499Y-471650D02*
X91499D01*
Y-484150D01*
X108499D01*
Y-471650D01*
D02*
G37*
G36*
X88499D02*
X71499D01*
Y-484150D01*
X88499D01*
Y-471650D01*
D02*
G37*
G36*
X168999Y-528150D02*
X153999D01*
Y-555650D01*
X168999D01*
Y-528150D01*
D02*
G37*
G36*
X150999D02*
X135999D01*
Y-555650D01*
X150999D01*
Y-528150D01*
D02*
G37*
%LPD*%
D14*
X-160251Y26358D02*
X-155000Y21107D01*
X-150757D01*
X-131251Y13350D02*
X-113251D01*
X-143001D02*
X-131251D01*
X-160251Y26358D02*
Y30600D01*
X-150757Y21107D02*
X-143001Y13350D01*
X-238750Y59750D02*
X-222151D01*
X-265525Y32975D02*
X-238750Y59750D01*
X-290000Y32975D02*
X-265525D01*
X-265251Y18999D02*
X-238578Y45672D01*
X-220828D01*
X-272257Y-38970D02*
Y19064D01*
X-238071Y53250D02*
X-216250D01*
X-265251Y-89001D02*
Y18999D01*
X-272257Y19064D02*
X-238071Y53250D01*
X-220828Y45672D02*
X-220500Y46000D01*
X-147592Y36259D02*
Y43759D01*
X-148251Y35600D02*
X-147592Y36259D01*
X-149382Y53424D02*
X-118977D01*
X-149405Y53446D02*
X-149382Y53424D01*
X-116151Y-4500D02*
X-104751Y6901D01*
X-260001Y-56001D02*
X-242000Y-38000D01*
X-260001Y-140900D02*
Y-56001D01*
X-255001Y-61751D02*
X-233750Y-40500D01*
X-255001Y-144251D02*
Y-61751D01*
X-152814Y-25250D02*
X-137064Y-9500D01*
X-141548Y-4500D02*
X-116151D01*
X-154314Y-17266D02*
X-141548Y-4500D01*
X-250001Y-66251D02*
X-233250Y-49500D01*
X-267300Y-156550D02*
X-255001Y-144251D01*
X-273100Y-153999D02*
X-260001Y-140900D01*
X-290000Y-113750D02*
X-265251Y-89001D01*
X-273100Y-207300D02*
Y-153999D01*
X-290000Y-56712D02*
X-272257Y-38970D01*
X-245001Y-291499D02*
X-210250Y-326250D01*
X-250001Y-295249D02*
X-213250Y-332000D01*
X-250001Y-295249D02*
Y-66251D01*
X-245001Y-291499D02*
Y-72501D01*
X-232000Y-59500D01*
X-114080Y-9500D02*
X-99751Y4829D01*
X-137064Y-9500D02*
X-114080D01*
X-130801Y-19500D02*
X-109938D01*
X-103138Y-12700D01*
X-128751Y-32400D02*
Y-29900D01*
X-112009Y-14500D02*
X-100509Y-3000D01*
X-128751Y-29900D02*
X-124501Y-25650D01*
X-106501D02*
X-97051Y-35100D01*
X-132872Y-14500D02*
X-112009D01*
X-124501Y-25650D02*
X-106501D01*
X-151996Y-33624D02*
X-132872Y-14500D01*
X-145496Y-34195D02*
X-130801Y-19500D01*
X-132251Y-35900D02*
X-128751Y-32400D01*
X-151996Y-41403D02*
Y-33624D01*
X-145496Y-48989D02*
Y-34195D01*
X-100509Y-3000D02*
X-88001D01*
X-95447Y-139250D02*
X-43351D01*
X-83202Y-152250D02*
X-42209D01*
X-86283Y-158361D02*
X-86283D01*
X-128291Y-116354D02*
Y-65440D01*
X-95825Y-139627D02*
X-95447Y-139250D01*
X-128291Y-116354D02*
X-86283Y-158361D01*
X-101688Y-133312D02*
X-101251Y-133749D01*
X-101688Y-133312D02*
Y-77213D01*
X-135751Y-118086D02*
X-88976Y-164861D01*
X-86283Y-158361D02*
X-82418Y-162226D01*
X-132759Y-243154D02*
Y-213701D01*
X-120654Y-201596D01*
X-121691Y-193441D02*
Y-192770D01*
X-152501Y-224251D02*
X-121691Y-193441D01*
X-152501Y-243150D02*
Y-224251D01*
X-198930Y-260816D02*
X-129808Y-191694D01*
Y-191692D01*
X-82688Y-167880D02*
X-82418Y-167611D01*
X-82688Y-170001D02*
Y-167880D01*
X-83262Y-170575D02*
X-82688Y-170001D01*
X-82418Y-167611D02*
Y-162226D01*
X-89500Y-145750D02*
X-42780D01*
X-135751Y-118086D02*
Y-55400D01*
X-42209Y-152250D02*
X13891Y-96150D01*
X-42780Y-145750D02*
X15570Y-87400D01*
X-43351Y-139250D02*
X17499Y-78400D01*
X-102126Y-76775D02*
X-101688Y-77213D01*
X-163000Y-332000D02*
X-142251Y-352749D01*
X-210250Y-326250D02*
X-161679D01*
X-213250Y-332000D02*
X-163000D01*
X-142251Y-397092D02*
Y-352749D01*
X-135751Y-393650D02*
Y-352178D01*
X-161679Y-326250D02*
X-135751Y-352178D01*
X-142251Y-397092D02*
X-136097Y-403246D01*
X-141067Y-175153D02*
Y-174683D01*
X-205500Y-240056D02*
Y-239586D01*
X-141067Y-175153D01*
X-140250Y-184000D02*
Y-183750D01*
X-203500Y-247250D02*
X-140250Y-184000D01*
X-209000Y-247250D02*
X-203500D01*
X-203750Y-253750D02*
X-203176Y-253176D01*
X-200484D01*
X-131000Y-183692D01*
Y-183000D01*
X-209184Y-260816D02*
X-198930D01*
X-209500Y-260500D02*
X-209184Y-260816D01*
X84999Y50800D02*
X104403D01*
X116425Y38779D01*
Y30175D02*
Y38779D01*
X84999Y25400D02*
X113100D01*
X126999Y-170543D02*
Y11501D01*
X113100Y25400D02*
X126999Y11501D01*
X116425Y30175D02*
X131999Y14600D01*
X109519Y63500D02*
X110687Y62331D01*
X111499D01*
X84999Y63500D02*
X109519D01*
X170299Y108398D02*
Y108850D01*
X163808Y101907D02*
X170299Y108398D01*
X163808Y95815D02*
Y101907D01*
X158082Y90089D02*
X163808Y95815D01*
X158749Y72350D02*
X162249Y75850D01*
X163249D01*
X165749Y78350D02*
Y79350D01*
X136749Y77600D02*
X141999Y72350D01*
X158749D01*
X163249Y75850D02*
X165749Y78350D01*
X106749Y-153900D02*
Y-97250D01*
X100250Y-90751D02*
Y-58250D01*
Y-90751D02*
X106749Y-97250D01*
Y-51751D02*
Y-32150D01*
X100250Y-58250D02*
X106749Y-51751D01*
X81999Y-41100D02*
X84999Y-38100D01*
X75110Y-41100D02*
X81999D01*
X27811Y-37900D02*
X29211Y-39300D01*
X45399Y-45400D02*
X53999D01*
X57139Y-41468D02*
X74742D01*
X54970Y-39300D02*
X57139Y-41468D01*
X74742D02*
X75110Y-41100D01*
X29211Y-39300D02*
X54970D01*
X44999Y-45800D02*
X45399Y-45400D01*
X26999Y-37900D02*
X27811D01*
X34749Y-77150D02*
X45150D01*
X68999Y-119400D02*
Y-100999D01*
X45150Y-77150D02*
X68999Y-100999D01*
X44449Y-60800D02*
X47449Y-63800D01*
X56249Y-76200D02*
X84999D01*
X53099D02*
X56249D01*
X47449Y-70550D02*
X53099Y-76200D01*
X47449Y-70550D02*
Y-63800D01*
X-233296Y96750D02*
X-190251D01*
X-272071Y57975D02*
X-233296Y96750D01*
X-290000Y57975D02*
X-272071D01*
X-98052Y-450601D02*
X-98001Y-450550D01*
X-82300D01*
X-82250Y-450500D01*
X-98052Y-476001D02*
X-97926Y-475875D01*
X-82125D01*
X-82000Y-475750D01*
X-24001Y-528150D02*
X-6501Y-510650D01*
X-22501Y-563149D02*
Y-529650D01*
Y-563149D02*
X-20750Y-564900D01*
X-267300Y-195949D02*
Y-156550D01*
X-267300Y-195949D02*
X-267300Y-195949D01*
X-267300Y-226900D02*
Y-195949D01*
X-292700Y-226900D02*
X-273100Y-207300D01*
X-290000Y-146400D02*
Y-113750D01*
X-136097Y-403246D02*
X-120347D01*
X-100251Y-383150D01*
X-135751Y-393650D02*
X-135177Y-393076D01*
X-129427D02*
X-119501Y-383150D01*
X-135177Y-393076D02*
X-129427D01*
X13891Y-96150D02*
X29999D01*
X15570Y-87400D02*
X30499D01*
X17499Y-78400D02*
X25499D01*
X53999Y-45400D02*
X57249Y-48650D01*
X57149Y-60800D02*
X57249Y-60700D01*
Y-48650D01*
X75599Y-126000D02*
X89999D01*
X68999Y-119400D02*
X75599Y-126000D01*
X106349Y0D02*
X116749Y-10400D01*
X126999Y-170543D02*
X128499Y-172043D01*
X133499Y-174150D02*
Y-135400D01*
X116749Y-161400D02*
Y-10400D01*
X121999Y-189150D02*
Y-2150D01*
X111749Y-158400D02*
Y-21650D01*
X116499Y-207150D02*
X128499Y-195150D01*
Y-172043D01*
X133499Y-174150D02*
X166499Y-207150D01*
X-34751Y-44650D02*
X32787D01*
X33937Y-45800D02*
X34749D01*
X32787Y-44650D02*
X33937Y-45800D01*
X-85576Y-76775D02*
X-85001Y-76200D01*
X-102126Y-76775D02*
X-85576D01*
X-128291Y-65440D02*
X-114751Y-51900D01*
X-135751Y-55400D02*
X-132251Y-51900D01*
X-114751Y-35900D02*
X-114008Y-36642D01*
X-107008D01*
X-95851Y-47800D01*
X-88001D01*
X-85001Y-50800D01*
X-88001Y-35100D02*
X-85001Y-38100D01*
X-97051Y-35100D02*
X-88001D01*
X-103138Y-12700D02*
X-85001D01*
X-88001Y-3000D02*
X-85001Y0D01*
X-85964Y11737D02*
X-85001Y12700D01*
X-99751Y9730D02*
X-97743Y11737D01*
X-85964D01*
X-104751Y6901D02*
Y21850D01*
X-99751Y4829D02*
Y9730D01*
X-104751Y21850D02*
X-101201Y25400D01*
X-85001D01*
X91499Y-186650D02*
X116749Y-161400D01*
X91499Y-207150D02*
Y-186650D01*
X-9751Y-191900D02*
X78249D01*
X111749Y-158400D01*
X-29251Y-186400D02*
X74249D01*
X106749Y-153900D01*
X100249Y-49042D02*
Y-36900D01*
X84999Y-50800D02*
X98492D01*
X100249Y-49042D01*
X143499Y-36900D02*
Y7704D01*
X153395Y17600D01*
X-45251Y-61600D02*
X-44451Y-60800D01*
X-45251Y-76650D02*
Y-61600D01*
X-84501Y-25900D02*
X-69501D01*
X-85001Y-25400D02*
X-84501Y-25900D01*
X-50001Y-207150D02*
X-29251Y-186400D01*
X-25001Y-207150D02*
X-9751Y-191900D01*
X107149Y12700D02*
X121999Y-2150D01*
X3699Y-384900D02*
Y-358950D01*
X4249Y-358400D01*
X176492Y67093D02*
X195699Y86300D01*
Y108850D01*
X176492Y60593D02*
Y67093D01*
X175249Y59350D02*
X176492Y60593D01*
X163762Y61813D02*
X182999Y81050D01*
X163762Y46113D02*
Y61813D01*
X182999Y81050D02*
Y109850D01*
X147749Y90850D02*
X156437Y99538D01*
Y108688D01*
X157599Y109850D01*
X-113251Y29350D02*
Y40850D01*
X-113251Y40850D02*
X-113251Y40850D01*
X-138251Y40850D02*
X-87751D01*
X-142001Y29350D02*
X-131251D01*
X-148251Y35600D02*
X-142001Y29350D01*
X-87751Y40850D02*
X-85001Y38100D01*
X-142739Y47800D02*
X-88001D01*
X-162001Y32350D02*
X-160251Y30600D01*
X-88001Y47800D02*
X-85001Y50800D01*
X-147439Y43100D02*
X-142739Y47800D01*
X-149809Y61850D02*
X-125501D01*
X-118977Y53424D02*
X-97743Y74658D01*
X-116251Y71100D02*
X-98451Y88900D01*
X-125501Y61850D02*
X-116251Y71100D01*
X-150280Y62321D02*
X-149809Y61850D01*
X-207251Y89100D02*
X-182751D01*
X87999Y73200D02*
X105837D01*
X108437Y70600D02*
X109249D01*
X105837Y73200D02*
X108437Y70600D01*
X101699Y88900D02*
X122999Y67600D01*
X84999Y101600D02*
X87999Y98600D01*
X127999Y34492D02*
Y69671D01*
X122999Y32421D02*
Y67600D01*
X84999Y88900D02*
X101699D01*
X87999Y98600D02*
X99070D01*
X127999Y69671D01*
X103029Y103762D02*
X125691Y81100D01*
X134999D01*
X136749Y79350D01*
X84999Y76200D02*
X87999Y73200D01*
X-97743Y74658D02*
X-86543D01*
X-85001Y76200D01*
X131999Y-99150D02*
Y14600D01*
X84999Y12700D02*
X107149D01*
X84999Y0D02*
X106349D01*
X102799Y-12700D02*
X111749Y-21650D01*
X84999Y-12700D02*
X102799D01*
X135391Y27100D02*
X171749D01*
X136999Y-54650D02*
Y18421D01*
X122999Y32421D02*
X136999Y18421D01*
X127999Y34492D02*
X135391Y27100D01*
X184749Y-21400D02*
Y14100D01*
Y-41400D02*
Y-21400D01*
X142381Y-64274D02*
X147300D01*
X140881Y-62774D02*
Y-58531D01*
Y-62774D02*
X142381Y-64274D01*
X136999Y-54650D02*
X140881Y-58531D01*
X199249Y-64274D02*
X200749Y-62774D01*
X196700Y-64274D02*
X199249D01*
X200749Y-62774D02*
Y-41400D01*
X171749Y27100D02*
X184749Y14100D01*
X84999Y-25400D02*
X99999D01*
X106749Y-32150D01*
X153395Y17600D02*
X165749D01*
X131999Y-99150D02*
X134874Y-102025D01*
X146951D01*
X147300Y-102374D01*
X-182751Y89100D02*
X-173251D01*
X111749Y-379900D02*
X138249Y-406400D01*
X43349Y-379900D02*
X111749D01*
X138249Y-429400D02*
Y-406400D01*
X41799Y-381450D02*
X43349Y-379900D01*
X41799Y-384900D02*
Y-381450D01*
X59849Y-63500D02*
X84999D01*
X57149Y-60800D02*
X59849Y-63500D01*
X52624Y113725D02*
X52999Y113350D01*
X-34251Y114100D02*
X-33876Y113725D01*
X52624D01*
X-71951Y88900D02*
X-62001Y98850D01*
X-85001Y88900D02*
X-71951D01*
X-98451D02*
X-85001D01*
X136499Y58600D02*
X137249Y59350D01*
X156249D01*
X141499Y37600D02*
X156249D01*
X136499Y42600D02*
X141499Y37600D01*
X156249Y38600D02*
X163762Y46113D01*
X156249Y37600D02*
Y38600D01*
X177749Y41100D02*
X178749D01*
X179749Y42100D02*
X199499D01*
X175249Y37600D02*
Y38600D01*
X177749Y41100D01*
X178749D02*
X179749Y42100D01*
X197999Y59600D02*
X199499Y58100D01*
X179749Y59600D02*
X197999D01*
X15999Y-456900D02*
Y-439300D01*
X16399Y-438900D01*
X15999Y-456900D02*
X20499Y-461400D01*
Y-471650D02*
Y-461400D01*
X3699Y-461200D02*
Y-438900D01*
X-6501Y-471400D02*
X3699Y-461200D01*
X-22501Y-491900D02*
X-10001Y-479400D01*
Y-474900D01*
X-6501Y-471400D01*
X-22501Y-491900D02*
X-22501Y-491900D01*
X-22501Y-510650D02*
Y-491900D01*
X-6501Y-510650D02*
X-6501Y-510650D01*
Y-491900D01*
D47*
X-179000Y-22500D02*
D03*
D48*
X-156000Y-80500D02*
D03*
X-179000D02*
D03*
X-202000D02*
D03*
D49*
X-213250Y-366000D02*
D03*
X-168250D02*
D03*
X-213250Y-582750D02*
D03*
X-168250D02*
D03*
D50*
X-216500Y25000D02*
D03*
X-166500D02*
D03*
X-207500Y-144000D02*
D03*
X-157500D02*
D03*
D51*
X-131251Y29350D02*
D03*
Y13350D02*
D03*
X-119501Y-383150D02*
D03*
Y-367150D02*
D03*
X-100251Y-383150D02*
D03*
Y-367150D02*
D03*
X-51001Y-497650D02*
D03*
Y-481650D02*
D03*
X29499Y-358400D02*
D03*
Y-342400D02*
D03*
X136499Y58600D02*
D03*
Y42600D02*
D03*
X136749Y93600D02*
D03*
Y77600D02*
D03*
X199499Y42100D02*
D03*
Y58100D02*
D03*
X-113251Y29350D02*
D03*
Y13350D02*
D03*
X-114251Y110850D02*
D03*
Y94850D02*
D03*
X-152501Y-243150D02*
D03*
Y-259150D02*
D03*
X-132251Y-35900D02*
D03*
Y-51900D02*
D03*
X-132759Y-243154D02*
D03*
Y-259154D02*
D03*
X-114751Y-35900D02*
D03*
Y-51900D02*
D03*
X223749Y-75400D02*
D03*
Y-91400D02*
D03*
X4249Y-342400D02*
D03*
Y-358400D02*
D03*
X20499Y-471650D02*
D03*
Y-487650D02*
D03*
X208399Y109850D02*
D03*
D52*
X-147452Y-488701D02*
D03*
Y-476001D02*
D03*
Y-463301D02*
D03*
Y-450601D02*
D03*
X-98052D02*
D03*
Y-463301D02*
D03*
Y-476001D02*
D03*
Y-488701D02*
D03*
X196700Y-64274D02*
D03*
Y-76974D02*
D03*
Y-89674D02*
D03*
Y-102374D02*
D03*
X147300D02*
D03*
Y-89674D02*
D03*
Y-76974D02*
D03*
Y-64274D02*
D03*
D53*
X-57151Y-60800D02*
D03*
X-44451D02*
D03*
X-31751D02*
D03*
X-19051D02*
D03*
X-6351D02*
D03*
X6349D02*
D03*
X19049D02*
D03*
X31749D02*
D03*
X44449D02*
D03*
X57149D02*
D03*
D54*
X-10001Y38100D02*
D03*
D55*
X84999Y114300D02*
D03*
Y101600D02*
D03*
Y88900D02*
D03*
Y76200D02*
D03*
Y63500D02*
D03*
Y50800D02*
D03*
Y38100D02*
D03*
Y25400D02*
D03*
Y12700D02*
D03*
Y0D02*
D03*
Y-12700D02*
D03*
Y-25400D02*
D03*
Y-38100D02*
D03*
Y-50800D02*
D03*
Y-63500D02*
D03*
Y-76200D02*
D03*
Y-88900D02*
D03*
Y-101600D02*
D03*
X-85001Y-114300D02*
D03*
Y-101600D02*
D03*
Y-88900D02*
D03*
Y-76200D02*
D03*
Y-63500D02*
D03*
Y-50800D02*
D03*
Y-38100D02*
D03*
Y-25400D02*
D03*
Y-12700D02*
D03*
Y0D02*
D03*
Y12700D02*
D03*
Y25400D02*
D03*
Y38100D02*
D03*
Y50800D02*
D03*
Y63500D02*
D03*
Y76200D02*
D03*
Y88900D02*
D03*
Y101600D02*
D03*
Y114300D02*
D03*
X84999Y-114300D02*
D03*
D56*
X165749Y17600D02*
D03*
X156249Y37600D02*
D03*
X175249D02*
D03*
X165749Y79350D02*
D03*
X175249Y59350D02*
D03*
X156249D02*
D03*
D57*
X-207251Y89100D02*
D03*
X-173251Y111100D02*
D03*
Y89100D02*
D03*
X-207251Y111100D02*
D03*
D58*
X-116251Y71100D02*
D03*
X-132251D02*
D03*
X200749Y-21400D02*
D03*
X184749D02*
D03*
X200749Y-41400D02*
D03*
X184749D02*
D03*
X179999Y-124824D02*
D03*
X163999D02*
D03*
X-178001Y65600D02*
D03*
X-162001D02*
D03*
X-173000Y-109500D02*
D03*
X-157000D02*
D03*
X-6501Y-510650D02*
D03*
X-22501D02*
D03*
X-6501Y-529650D02*
D03*
X-22501D02*
D03*
X-22501Y-491900D02*
D03*
X-6501D02*
D03*
X-22501Y-471400D02*
D03*
X-6501D02*
D03*
D59*
X-138001Y109600D02*
D03*
Y92600D02*
D03*
X138249Y-446400D02*
D03*
Y-429400D02*
D03*
D60*
X53499Y-557150D02*
D03*
X152499D02*
D03*
D61*
X89999Y-400650D02*
D03*
Y-470150D02*
D03*
D62*
X41799Y-384900D02*
D03*
X29099D02*
D03*
X16399D02*
D03*
X3699D02*
D03*
X41799Y-438900D02*
D03*
X29099D02*
D03*
X16399D02*
D03*
X3699D02*
D03*
D63*
X22749Y-411900D02*
D03*
D64*
X-238501Y-79751D02*
X-227750Y-69000D01*
X-238501Y-286999D02*
X-238500Y-287000D01*
X-238501Y-286999D02*
Y-79751D01*
X-144251Y-120900D02*
Y-60499D01*
X-148250Y-56500D02*
X-144251Y-60499D01*
X-179000Y-56500D02*
X-148250D01*
X-179000D02*
Y-22500D01*
Y-80500D02*
Y-56500D01*
X-172426Y13176D02*
X-162001Y23600D01*
X-172426Y-15925D02*
Y13176D01*
X-179000Y-22500D02*
X-172426Y-15925D01*
X133500Y-125250D02*
X133638Y-125112D01*
X163711D01*
X163999Y-124824D02*
Y-110256D01*
X-183001Y-457400D02*
X-177100Y-463301D01*
X-147452D01*
X-176202Y-450601D02*
X-147452D01*
X-183001Y-457400D02*
X-176202Y-450601D01*
X-183729Y-482150D02*
X-177579Y-476001D01*
X-183729Y-482150D02*
X-177178Y-488701D01*
X-147452D01*
X-177579Y-476001D02*
X-147452D01*
X99999Y-146900D02*
Y-127745D01*
X66999Y-179900D02*
X99999Y-146900D01*
X-144251Y-120900D02*
X-85251Y-179900D01*
X66999D01*
X16449Y-363107D02*
X21157Y-358400D01*
X16449Y-384850D02*
Y-363107D01*
X21157Y-358400D02*
X29499D01*
X16399Y-384900D02*
X16449Y-384850D01*
X29149D02*
Y-358750D01*
X29099Y-384900D02*
X29149Y-384850D01*
X-162001Y23600D02*
Y32350D01*
Y65600D01*
X-135251Y95350D02*
X-104501D01*
X-156501Y71100D02*
X-148751D01*
X-132251D01*
X162985Y-89674D02*
X166499Y-93189D01*
Y-107756D02*
Y-93189D01*
X163999Y-110256D02*
X166499Y-107756D01*
X147300Y-89674D02*
X162985D01*
X-161751Y67600D02*
X-160001D01*
X-162251Y67100D02*
X-161751Y67600D01*
X-160001D02*
X-156501Y71100D01*
X-137001Y92600D02*
X-133501Y89100D01*
X-132251Y71100D02*
Y86850D01*
X-138001Y92600D02*
X-137001D01*
X-133501Y88100D02*
Y89100D01*
Y88100D02*
X-132251Y86850D01*
X-104501Y95350D02*
X-99751Y100100D01*
X-86501D01*
X-138001Y92600D02*
X-135251Y95350D01*
X-86501Y100100D02*
X-85001Y101600D01*
D65*
X290000Y-14387D02*
X310000Y-34387D01*
X290000Y-295137D02*
X293657Y-291481D01*
X-156376Y-144000D02*
Y-77750D01*
X-75001Y-207150D02*
X-70001Y-212150D01*
X-132500Y-149651D02*
X-75001Y-207150D01*
X-157500Y-144000D02*
X-151849Y-149651D01*
X-132500D01*
X29499Y-358400D02*
X137850D01*
X-20750Y-564900D02*
X45749D01*
X-64251D02*
X-20750D01*
X-65500Y-563651D02*
X-64251Y-564900D01*
X-65500Y-563651D02*
Y-512149D01*
X-51001Y-497650D01*
X-51501Y-226400D02*
X205150D01*
X271275Y-292525D01*
X290000D01*
Y-154762D02*
X309750D01*
X310000Y-155012D02*
Y-34387D01*
X309750Y-154762D02*
X310000Y-155012D01*
Y-286794D02*
Y-155012D01*
X305314Y-291481D02*
X310000Y-286794D01*
X293657Y-291481D02*
X305314D01*
X45749Y-564900D02*
X53499Y-557150D01*
X-61501Y-226400D02*
X-51501D01*
Y-481150D02*
X-51001Y-481650D01*
X-51501Y-481150D02*
Y-226400D01*
X-70001Y-217900D02*
Y-212150D01*
Y-217900D02*
X-61501Y-226400D01*
D66*
X-219000Y-422400D02*
Y-416750D01*
X-224000Y-427400D02*
X-219000Y-422400D01*
X-228000Y-427400D02*
X-224000D01*
X-219000Y-416750D02*
X-168250Y-366000D01*
X222749Y-516650D02*
Y-474650D01*
X224124D02*
Y-359400D01*
X139000D02*
X224124D01*
X-137500Y-603400D02*
X175499D01*
X-219271Y-518129D02*
Y-516900D01*
X-228000D02*
X-224000D01*
X-137500Y-603400D01*
X222749Y-556150D02*
Y-516650D01*
X175499Y-603400D02*
X222749Y-556150D01*
X224124Y-359400D02*
X224499D01*
D67*
X-279000Y-427400D02*
X-277850D01*
X-283000D02*
X-279000D01*
X-224100Y-372500D02*
X-219750D01*
X-279000Y-427400D02*
X-224100Y-372500D01*
X-219750D02*
X-213250Y-366000D01*
X-279650Y-516900D02*
X-279100D01*
X-283000D02*
X-279650D01*
X-279100D02*
X-213250Y-582750D01*
X-244900Y-482150D02*
X-183729D01*
X-279650Y-516900D02*
X-244900Y-482150D01*
X-247850Y-457400D02*
X-183001D01*
X-277850Y-427400D02*
X-247850Y-457400D01*
D68*
X263500Y-242500D02*
Y-242229D01*
X261500Y-240229D02*
X263500Y-242229D01*
X261500Y-240229D02*
Y-101500D01*
X271000Y-129000D02*
Y-92500D01*
Y-131750D02*
Y-129000D01*
Y-253500D02*
Y-131750D01*
Y-92500D02*
Y-3500D01*
Y-129000D02*
X289238D01*
X270820Y-92320D02*
X271000Y-92500D01*
X261479Y-78250D02*
X261750D01*
Y4750D02*
X290000Y33000D01*
X226249Y-77900D02*
X261129D01*
X261750Y-78250D02*
Y4750D01*
X261129Y-77900D02*
X261479Y-78250D01*
X225323Y-76974D02*
X226249Y-77900D01*
X224670Y-92320D02*
X270820D01*
X222523Y-90174D02*
X224670Y-92320D01*
X287513Y5513D02*
X290000Y8000D01*
X280013Y5513D02*
X287513D01*
X271000Y-3500D02*
X280013Y5513D01*
X196700Y-76974D02*
X225323D01*
X223749Y-75400D02*
X225323Y-76974D01*
X282302Y-263345D02*
X286482Y-267525D01*
X271000Y-253500D02*
X280845Y-263345D01*
X286482Y-267525D02*
X290000D01*
X280845Y-263345D02*
X282302D01*
X197200Y-90174D02*
X222523D01*
X196700Y-89674D02*
X197200Y-90174D01*
X289238Y-129000D02*
X290000Y-129762D01*
D69*
X279499Y-401400D02*
D03*
Y-359400D02*
D03*
X224499D02*
D03*
X277749Y-516650D02*
D03*
Y-474650D02*
D03*
X222749D02*
D03*
X-283000Y-427400D02*
D03*
Y-516900D02*
D03*
D70*
X224499Y-401400D02*
D03*
X222749Y-516650D02*
D03*
X-228000Y-427400D02*
D03*
Y-516900D02*
D03*
D71*
X241500Y-608500D02*
D03*
X-326000Y171000D02*
D03*
X182999Y109850D02*
D03*
X170299Y108850D02*
D03*
X195699D02*
D03*
X157599Y109850D02*
D03*
D72*
X-300000Y130000D02*
D03*
Y-590000D02*
D03*
X300000D02*
D03*
Y130000D02*
D03*
D73*
X-267300Y-317250D02*
D03*
Y-342650D02*
D03*
Y-368050D02*
D03*
X-292700Y-342650D02*
D03*
Y-368050D02*
D03*
X-267300Y-226900D02*
D03*
Y-252300D02*
D03*
Y-277700D02*
D03*
X-292700Y-252300D02*
D03*
Y-277700D02*
D03*
X-114251Y-564900D02*
D03*
X139000Y-309250D02*
D03*
D74*
X-292700Y-317250D02*
D03*
Y-226900D02*
D03*
X139000Y-359250D02*
D03*
D75*
X290000Y-267525D02*
D03*
Y-242525D02*
D03*
Y-217525D02*
D03*
X-290000Y32975D02*
D03*
Y7975D02*
D03*
Y-171400D02*
D03*
X290000Y-129762D02*
D03*
Y-104762D02*
D03*
Y-79762D02*
D03*
X-290000Y-81712D02*
D03*
X116499Y-207150D02*
D03*
X91499D02*
D03*
X141499D02*
D03*
X166499D02*
D03*
X191499D02*
D03*
X-25001D02*
D03*
X-50001D02*
D03*
X-1D02*
D03*
X290000Y58000D02*
D03*
Y8000D02*
D03*
Y33000D02*
D03*
D76*
Y-292525D02*
D03*
X-290000Y57975D02*
D03*
Y-146400D02*
D03*
X290000Y-154762D02*
D03*
X-290000Y-56712D02*
D03*
X290000Y-17000D02*
D03*
D77*
X66499Y-207150D02*
D03*
X-75001D02*
D03*
D78*
X-64251Y-564900D02*
D03*
D79*
X-244750Y-21750D02*
D03*
X-86053Y-129560D02*
D03*
X-110750Y-121750D02*
D03*
X-113750Y-243250D02*
D03*
X-106750Y-207750D02*
D03*
X-143000Y-228000D02*
D03*
X-172500Y-188500D02*
D03*
X-182500Y-144000D02*
D03*
X-202250Y-110500D02*
D03*
X-227750Y-7750D02*
D03*
X-154250Y-750D02*
D03*
X-187500Y5250D02*
D03*
X-192000Y33750D02*
D03*
X-199250Y73000D02*
D03*
X-267500Y49500D02*
D03*
X-239000Y69250D02*
D03*
X-239250Y30250D02*
D03*
X-253250Y9750D02*
D03*
X-254000Y-31212D02*
D03*
X-222151Y59750D02*
D03*
X-147592Y43759D02*
D03*
X-216250Y53250D02*
D03*
X-220500Y46000D02*
D03*
X-149405Y53446D02*
D03*
X-242000Y-38000D02*
D03*
X-154314Y-17266D02*
D03*
X-152814Y-25250D02*
D03*
X-233750Y-40500D02*
D03*
X-233250Y-49500D02*
D03*
X-274250Y-61750D02*
D03*
X-226000Y-93000D02*
D03*
X-227750Y-69000D02*
D03*
X-232000Y-59500D02*
D03*
X-179000Y-56500D02*
D03*
X-151996Y-41403D02*
D03*
X-145496Y-48989D02*
D03*
X-102126Y-76775D02*
D03*
X-95825Y-139627D02*
D03*
X-101251Y-133749D02*
D03*
X-83202Y-152250D02*
D03*
X-88976Y-164861D02*
D03*
X-120654Y-201596D02*
D03*
X-121691Y-192770D02*
D03*
X-129808Y-191692D02*
D03*
X-83262Y-170575D02*
D03*
X-89500Y-145750D02*
D03*
X-292000Y-552250D02*
D03*
X-250750Y-583000D02*
D03*
X-189500Y-585750D02*
D03*
X-214750Y-551750D02*
D03*
X-253500Y-517250D02*
D03*
X-191250Y-365250D02*
D03*
X-167000Y-342250D02*
D03*
X-193000Y-343750D02*
D03*
X-236750Y-333750D02*
D03*
X-142000Y-279500D02*
D03*
X-252250Y-420500D02*
D03*
X-223750Y-393000D02*
D03*
X-238500Y-287000D02*
D03*
X131750Y-279750D02*
D03*
X121000Y-330500D02*
D03*
X203250Y-280250D02*
D03*
X-11000Y-280750D02*
D03*
X11750Y-315000D02*
D03*
X63750Y-294000D02*
D03*
X64500Y-335000D02*
D03*
X98250Y-303750D02*
D03*
X167250Y-331750D02*
D03*
X208000Y-310250D02*
D03*
X167000Y-273750D02*
D03*
X105750Y-267250D02*
D03*
X32250Y-270500D02*
D03*
X93472Y-349400D02*
D03*
X-207750Y-199250D02*
D03*
X31250Y-524250D02*
D03*
X60500Y-507750D02*
D03*
X30000Y-585500D02*
D03*
X84500Y-564000D02*
D03*
X83250Y-528500D02*
D03*
X116750Y-547000D02*
D03*
X42250Y-369250D02*
D03*
X137500Y-378750D02*
D03*
X173500Y-400250D02*
D03*
X192000Y-376000D02*
D03*
X164000Y-429000D02*
D03*
X203500Y-436250D02*
D03*
X190750Y-500500D02*
D03*
X186500Y-562750D02*
D03*
X93000Y-590250D02*
D03*
X-9750Y-583500D02*
D03*
X316250Y-540000D02*
D03*
X341750Y-499250D02*
D03*
X310250Y-462500D02*
D03*
X342500Y-429500D02*
D03*
X312750Y-383750D02*
D03*
X326250Y-323250D02*
D03*
X342500Y-357000D02*
D03*
X295000Y-62000D02*
D03*
X284000Y-37750D02*
D03*
X296750Y-176250D02*
D03*
X282250Y-202750D02*
D03*
X326500Y-251000D02*
D03*
X342750Y-289750D02*
D03*
X325750Y-192250D02*
D03*
X342750Y-212250D02*
D03*
X322750Y-137750D02*
D03*
X343250Y-166750D02*
D03*
X326000Y-72750D02*
D03*
X341500Y-104750D02*
D03*
X317000Y19250D02*
D03*
X343250Y-29500D02*
D03*
X340750Y54750D02*
D03*
X212750Y-217750D02*
D03*
X129000Y-216750D02*
D03*
X113250Y-178000D02*
D03*
X102750Y-193250D02*
D03*
X36000Y-216250D02*
D03*
X20500Y-200000D02*
D03*
X-12250Y-217000D02*
D03*
X-37750Y-216500D02*
D03*
X-46750Y-190750D02*
D03*
X-71750D02*
D03*
X31250Y-144750D02*
D03*
X12000Y-120500D02*
D03*
X-22000Y-157750D02*
D03*
X-70250Y-168000D02*
D03*
X9250Y-167000D02*
D03*
X58000Y-167500D02*
D03*
X85500Y-138750D02*
D03*
X56750Y-129000D02*
D03*
X52250Y-99750D02*
D03*
X61750Y-2500D02*
D03*
X42250Y-22250D02*
D03*
X-26750Y38000D02*
D03*
X-26500Y19250D02*
D03*
X-10001Y38100D02*
D03*
X-9250Y18250D02*
D03*
X8250Y18500D02*
D03*
X7500Y37750D02*
D03*
X6750Y55250D02*
D03*
X-11000Y55500D02*
D03*
X-28500Y55000D02*
D03*
X37000Y61750D02*
D03*
X63750Y27500D02*
D03*
X40000Y6250D02*
D03*
X65000Y-31500D02*
D03*
X1750Y-31250D02*
D03*
X19000Y-8750D02*
D03*
X25750Y37250D02*
D03*
X-21750Y-9500D02*
D03*
X-49063Y15307D02*
D03*
X-51250Y48500D02*
D03*
X-32500Y80750D02*
D03*
X8750Y82000D02*
D03*
X49750Y85000D02*
D03*
X179000Y-103000D02*
D03*
X220750Y-139250D02*
D03*
X227500Y-174000D02*
D03*
X184000Y-165500D02*
D03*
X146000Y-163750D02*
D03*
X172000Y-192500D02*
D03*
X205000Y-195000D02*
D03*
X242000Y-234500D02*
D03*
X263750Y-266000D02*
D03*
X247500Y-202750D02*
D03*
X247000Y-151250D02*
D03*
X244250Y-106750D02*
D03*
X216500Y-107000D02*
D03*
X197750Y-127250D02*
D03*
X170500Y-139500D02*
D03*
X145250Y-135250D02*
D03*
X143500Y-113500D02*
D03*
X175750Y4750D02*
D03*
X154750Y-1500D02*
D03*
X171500Y-29250D02*
D03*
X153000Y-49750D02*
D03*
X175500Y-73750D02*
D03*
X245750Y-64250D02*
D03*
X220696Y-31140D02*
D03*
X242000Y-4250D02*
D03*
X267250Y48000D02*
D03*
X237750Y35000D02*
D03*
X202750Y12000D02*
D03*
X229500Y75750D02*
D03*
X341250Y112750D02*
D03*
X314250Y91250D02*
D03*
X257000Y91750D02*
D03*
X226000Y110500D02*
D03*
X198750Y72250D02*
D03*
X185749Y51600D02*
D03*
X173750Y92000D02*
D03*
X122250Y97000D02*
D03*
X141500Y115500D02*
D03*
X109250Y115000D02*
D03*
X64750Y103750D02*
D03*
X35750Y105250D02*
D03*
X-11250Y106000D02*
D03*
X-42000Y103750D02*
D03*
X-101750Y112500D02*
D03*
X-67250Y115500D02*
D03*
X-67750Y67500D02*
D03*
Y34000D02*
D03*
X-68000Y6000D02*
D03*
X-66750Y-16250D02*
D03*
X-41250Y-21250D02*
D03*
X-27341Y-36319D02*
D03*
X-53750Y-41250D02*
D03*
X-68500Y-40500D02*
D03*
X-68250Y-61250D02*
D03*
X-30000Y-91500D02*
D03*
X-57250Y-111250D02*
D03*
X-63500Y-86750D02*
D03*
X-7000D02*
D03*
X-32000Y-112250D02*
D03*
X-113000Y-94500D02*
D03*
X-115000Y-68500D02*
D03*
X-102750Y-54750D02*
D03*
X-153991Y94864D02*
D03*
X-157500Y112500D02*
D03*
X-194750Y110000D02*
D03*
X-293750Y-23250D02*
D03*
X-272250Y-114000D02*
D03*
X-259500Y-169750D02*
D03*
X-227250Y-163250D02*
D03*
X-225500Y-224500D02*
D03*
X-144500Y-316750D02*
D03*
X-190500Y-312750D02*
D03*
X-107750Y-259000D02*
D03*
X-105750Y-308250D02*
D03*
X-109000Y-348250D02*
D03*
X-100500Y-425500D02*
D03*
X-66500Y-400250D02*
D03*
X-67500Y-329750D02*
D03*
X-70250Y-279500D02*
D03*
Y-243250D02*
D03*
X-98000Y-215750D02*
D03*
X-178750Y-261000D02*
D03*
X-224500Y-274500D02*
D03*
X-281000Y-298500D02*
D03*
X-176250Y-397500D02*
D03*
X-146750Y-410500D02*
D03*
X-143250Y-436750D02*
D03*
X-189750Y-440500D02*
D03*
X-244500Y-363750D02*
D03*
X-277000Y-393000D02*
D03*
X-317500Y-418250D02*
D03*
X-314000Y-338500D02*
D03*
X-315750Y-247750D02*
D03*
X-309750Y-171250D02*
D03*
X-311250Y-90000D02*
D03*
X-315000Y-30000D02*
D03*
X-316000Y32250D02*
D03*
X-222000Y84750D02*
D03*
X-244000Y107750D02*
D03*
X-301000Y90500D02*
D03*
X-338500Y106750D02*
D03*
X-342000Y64750D02*
D03*
X-341000Y1000D02*
D03*
X-343500Y-54000D02*
D03*
X-342000Y-130000D02*
D03*
X-341500Y-206500D02*
D03*
X-341250Y-293500D02*
D03*
X-339250Y-382750D02*
D03*
X-334250Y-613750D02*
D03*
X-337250Y-547500D02*
D03*
X-334000Y-474250D02*
D03*
X-294250Y-472000D02*
D03*
X-253500Y-471500D02*
D03*
X-200500Y-469000D02*
D03*
X-139000Y-530750D02*
D03*
X-48250Y-516500D02*
D03*
X13000Y-509250D02*
D03*
X6750Y-528750D02*
D03*
X29250Y-553000D02*
D03*
X-8750Y-553500D02*
D03*
X-48000Y-546500D02*
D03*
X-88000Y-531000D02*
D03*
X-89750Y-590000D02*
D03*
X-139750Y-578500D02*
D03*
X-159500Y-548500D02*
D03*
X-108500Y-513000D02*
D03*
X-80000Y-506500D02*
D03*
X-73750Y-488250D02*
D03*
X-73500Y-462750D02*
D03*
X-128000Y-475000D02*
D03*
X-128500Y-450500D02*
D03*
X-118000Y-463250D02*
D03*
Y-491000D02*
D03*
X-163750Y-506500D02*
D03*
X-194250Y-498000D02*
D03*
X-236000Y-615750D02*
D03*
X-152000Y-620750D02*
D03*
X-82500Y-620000D02*
D03*
X7500Y-619750D02*
D03*
X93750Y-620500D02*
D03*
X174250Y-619750D02*
D03*
X340000Y-564250D02*
D03*
X265000Y-620750D02*
D03*
X211000Y-609500D02*
D03*
X246750Y-566000D02*
D03*
X252750Y-536000D02*
D03*
X246750Y-491750D02*
D03*
X250750Y-457500D02*
D03*
X251500Y-421250D02*
D03*
X250000Y-373250D02*
D03*
X263000Y-333250D02*
D03*
X291500Y-315000D02*
D03*
X242750Y-292000D02*
D03*
X193750Y-246000D02*
D03*
X131750Y-241000D02*
D03*
X65250Y-241750D02*
D03*
X3500Y-240250D02*
D03*
X-38500Y-250750D02*
D03*
X-37000Y-304500D02*
D03*
X-36500Y-349750D02*
D03*
X-35250Y-387750D02*
D03*
X-34395Y-423169D02*
D03*
X-205500Y-240056D02*
D03*
X-209000Y-247250D02*
D03*
X-141067Y-174683D02*
D03*
X-131000Y-183000D02*
D03*
X-140250Y-183750D02*
D03*
X-209500Y-260500D02*
D03*
X-203750Y-253750D02*
D03*
X-35750Y-481750D02*
D03*
X-33500Y-454750D02*
D03*
X-9750Y-450250D02*
D03*
X-10250Y-401500D02*
D03*
X-9750Y-420500D02*
D03*
X6500Y-482750D02*
D03*
X36500Y-498000D02*
D03*
X37442Y-472173D02*
D03*
X27500Y-455750D02*
D03*
X121250Y-406500D02*
D03*
X118000Y-422250D02*
D03*
X82250Y-426250D02*
D03*
X60000Y-419500D02*
D03*
X58000Y-395250D02*
D03*
X35448Y-419600D02*
D03*
X26698D02*
D03*
X17948D02*
D03*
X9198D02*
D03*
X36300Y-404200D02*
D03*
X27550D02*
D03*
X18800D02*
D03*
X10050D02*
D03*
X133500Y-125250D02*
D03*
X111499Y62331D02*
D03*
X158082Y90089D02*
D03*
X34749Y-45800D02*
D03*
X44999D02*
D03*
X56249Y-76200D02*
D03*
X-82250Y-450500D02*
D03*
X-82000Y-475750D02*
D03*
X261500Y-101500D02*
D03*
X261750Y-78250D02*
D03*
X263500Y-242500D02*
D03*
X29999Y-96150D02*
D03*
X30499Y-87400D02*
D03*
X25499Y-78400D02*
D03*
X26999Y-37900D02*
D03*
X89999Y-126000D02*
D03*
X133499Y-135400D02*
D03*
X99999Y-127745D02*
D03*
X34749Y-77150D02*
D03*
X-136097Y-403246D02*
D03*
X-135751Y-393650D02*
D03*
X143499Y-36900D02*
D03*
X100249D02*
D03*
X-34751Y-44650D02*
D03*
X-45251Y-76650D02*
D03*
X-69501Y-25900D02*
D03*
X66499Y-179400D02*
D03*
X121999Y-189150D02*
D03*
X-138251Y40850D02*
D03*
X-190251Y96750D02*
D03*
X-182751Y89100D02*
D03*
X-148751Y71100D02*
D03*
X109249Y70600D02*
D03*
X103029Y103762D02*
D03*
X147749Y90850D02*
D03*
X-150280Y62321D02*
D03*
X52999Y113350D02*
D03*
X-34251Y114100D02*
D03*
X-62001Y98850D02*
D03*
M02*
