G04*
G04 #@! TF.GenerationSoftware,Altium Limited,Altium Designer,21.8.1 (53)*
G04*
G04 Layer_Color=8388736*
%FSLAX44Y44*%
%MOMM*%
G71*
G04*
G04 #@! TF.SameCoordinates,996D42DF-EE5A-41D5-9054-6BF74EEE028F*
G04*
G04*
G04 #@! TF.FilePolarity,Negative*
G04*
G01*
G75*
%ADD17R,0.3200X0.9098*%
%ADD18R,0.9098X0.3200*%
%ADD19R,4.1000X4.1000*%
%ADD20R,1.4000X1.6000*%
G04:AMPARAMS|DCode=21|XSize=1mm|YSize=0.71mm|CornerRadius=0.2025mm|HoleSize=0mm|Usage=FLASHONLY|Rotation=180.000|XOffset=0mm|YOffset=0mm|HoleType=Round|Shape=RoundedRectangle|*
%AMROUNDEDRECTD21*
21,1,1.0000,0.3050,0,0,180.0*
21,1,0.5950,0.7100,0,0,180.0*
1,1,0.4050,-0.2975,0.1525*
1,1,0.4050,0.2975,0.1525*
1,1,0.4050,0.2975,-0.1525*
1,1,0.4050,-0.2975,-0.1525*
%
%ADD21ROUNDEDRECTD21*%
G04:AMPARAMS|DCode=22|XSize=1mm|YSize=0.63mm|CornerRadius=0.1825mm|HoleSize=0mm|Usage=FLASHONLY|Rotation=180.000|XOffset=0mm|YOffset=0mm|HoleType=Round|Shape=RoundedRectangle|*
%AMROUNDEDRECTD22*
21,1,1.0000,0.2650,0,0,180.0*
21,1,0.6350,0.6300,0,0,180.0*
1,1,0.3650,-0.3175,0.1325*
1,1,0.3650,0.3175,0.1325*
1,1,0.3650,0.3175,-0.1325*
1,1,0.3650,-0.3175,-0.1325*
%
%ADD22ROUNDEDRECTD22*%
%ADD23R,1.1000X1.1000*%
%ADD24R,1.1000X1.1000*%
%ADD25R,3.4000X2.5000*%
%ADD26R,1.1000X2.5000*%
%ADD27R,2.3000X2.7000*%
%ADD28R,1.3000X1.5000*%
%ADD29R,1.1000X0.9000*%
%ADD30R,1.0000X0.8000*%
G04:AMPARAMS|DCode=31|XSize=2.07mm|YSize=0.7mm|CornerRadius=0.125mm|HoleSize=0mm|Usage=FLASHONLY|Rotation=270.000|XOffset=0mm|YOffset=0mm|HoleType=Round|Shape=RoundedRectangle|*
%AMROUNDEDRECTD31*
21,1,2.0700,0.4500,0,0,270.0*
21,1,1.8200,0.7000,0,0,270.0*
1,1,0.2500,-0.2250,-0.9100*
1,1,0.2500,-0.2250,0.9100*
1,1,0.2500,0.2250,0.9100*
1,1,0.2500,0.2250,-0.9100*
%
%ADD31ROUNDEDRECTD31*%
G04:AMPARAMS|DCode=32|XSize=1mm|YSize=0.71mm|CornerRadius=0.2025mm|HoleSize=0mm|Usage=FLASHONLY|Rotation=270.000|XOffset=0mm|YOffset=0mm|HoleType=Round|Shape=RoundedRectangle|*
%AMROUNDEDRECTD32*
21,1,1.0000,0.3050,0,0,270.0*
21,1,0.5950,0.7100,0,0,270.0*
1,1,0.4050,-0.1525,-0.2975*
1,1,0.4050,-0.1525,0.2975*
1,1,0.4050,0.1525,0.2975*
1,1,0.4050,0.1525,-0.2975*
%
%ADD32ROUNDEDRECTD32*%
G04:AMPARAMS|DCode=33|XSize=1mm|YSize=0.63mm|CornerRadius=0.1825mm|HoleSize=0mm|Usage=FLASHONLY|Rotation=270.000|XOffset=0mm|YOffset=0mm|HoleType=Round|Shape=RoundedRectangle|*
%AMROUNDEDRECTD33*
21,1,1.0000,0.2650,0,0,270.0*
21,1,0.6350,0.6300,0,0,270.0*
1,1,0.3650,-0.1325,-0.3175*
1,1,0.3650,-0.1325,0.3175*
1,1,0.3650,0.1325,0.3175*
1,1,0.3650,0.1325,-0.3175*
%
%ADD33ROUNDEDRECTD33*%
%ADD34C,0.7000*%
%ADD35C,3.0000*%
%ADD36O,5.3000X7.3000*%
%ADD37C,1.3000*%
%ADD38R,1.3000X1.3000*%
%ADD39C,1.1000*%
%ADD40C,1.9000*%
%ADD41R,1.9000X1.9000*%
%ADD42R,1.3000X1.3000*%
D17*
X117000Y248500D02*
D03*
X121000D02*
D03*
X125000D02*
D03*
X129000D02*
D03*
X133000D02*
D03*
X137000D02*
D03*
X141000D02*
D03*
X145000D02*
D03*
X149000D02*
D03*
X153000D02*
D03*
X157000D02*
D03*
X161000D02*
D03*
X165000D02*
D03*
X169000D02*
D03*
Y317402D02*
D03*
X165000D02*
D03*
X161000D02*
D03*
X157000D02*
D03*
X153000D02*
D03*
X149000D02*
D03*
X145000D02*
D03*
X141000D02*
D03*
X137000D02*
D03*
X133000D02*
D03*
X129000D02*
D03*
X125000D02*
D03*
X121000D02*
D03*
X117000D02*
D03*
D18*
X177451Y256951D02*
D03*
Y260951D02*
D03*
Y264951D02*
D03*
Y268951D02*
D03*
Y272951D02*
D03*
Y276951D02*
D03*
Y280951D02*
D03*
Y284951D02*
D03*
Y288951D02*
D03*
Y292951D02*
D03*
Y296951D02*
D03*
Y300951D02*
D03*
Y304951D02*
D03*
Y308951D02*
D03*
X108549D02*
D03*
Y304951D02*
D03*
Y300951D02*
D03*
Y296951D02*
D03*
Y292951D02*
D03*
Y288951D02*
D03*
Y284951D02*
D03*
Y280951D02*
D03*
Y276951D02*
D03*
Y272951D02*
D03*
Y268951D02*
D03*
Y264951D02*
D03*
Y260951D02*
D03*
Y256951D02*
D03*
D19*
X143000Y282951D02*
D03*
D20*
X88250Y171000D02*
D03*
X71250D02*
D03*
D21*
X261350Y273350D02*
D03*
Y298150D02*
D03*
X243650D02*
D03*
Y273350D02*
D03*
X261100Y193100D02*
D03*
Y217900D02*
D03*
X243400D02*
D03*
Y193100D02*
D03*
X260100Y349350D02*
D03*
Y374150D02*
D03*
X242400D02*
D03*
Y349350D02*
D03*
X261100Y85600D02*
D03*
Y110400D02*
D03*
X243400D02*
D03*
Y85600D02*
D03*
D22*
X261350Y281750D02*
D03*
Y289750D02*
D03*
X243650D02*
D03*
Y281750D02*
D03*
X261100Y201500D02*
D03*
Y209500D02*
D03*
X243400D02*
D03*
Y201500D02*
D03*
X260100Y357750D02*
D03*
Y365750D02*
D03*
X242400D02*
D03*
Y357750D02*
D03*
X261100Y94000D02*
D03*
Y102000D02*
D03*
X243400D02*
D03*
Y94000D02*
D03*
D23*
X222500Y257000D02*
D03*
Y273000D02*
D03*
X31000Y102250D02*
D03*
Y86250D02*
D03*
X41250Y380000D02*
D03*
Y396000D02*
D03*
Y362250D02*
D03*
Y346250D02*
D03*
X60500Y380000D02*
D03*
Y396000D02*
D03*
Y362250D02*
D03*
Y346250D02*
D03*
X106502Y203249D02*
D03*
Y219249D02*
D03*
X107750Y168750D02*
D03*
Y184750D02*
D03*
X142500Y169000D02*
D03*
Y185000D02*
D03*
X125000Y169000D02*
D03*
Y185000D02*
D03*
X124000Y203250D02*
D03*
Y219250D02*
D03*
X-16500Y160250D02*
D03*
Y176250D02*
D03*
X88750Y203250D02*
D03*
Y219250D02*
D03*
X750Y160250D02*
D03*
Y176250D02*
D03*
X215000Y340500D02*
D03*
Y324500D02*
D03*
X222250Y141700D02*
D03*
Y125700D02*
D03*
X222500Y106950D02*
D03*
Y90950D02*
D03*
D24*
X88500Y149500D02*
D03*
X72500D02*
D03*
X39500Y306250D02*
D03*
X23500D02*
D03*
X263250Y321000D02*
D03*
X247250D02*
D03*
X-10750Y240250D02*
D03*
X5250D02*
D03*
X62250Y260750D02*
D03*
X78250D02*
D03*
X62250Y318500D02*
D03*
X78250D02*
D03*
X62250Y281250D02*
D03*
X78250D02*
D03*
X62250Y239000D02*
D03*
X78250D02*
D03*
X181000Y345750D02*
D03*
X165000D02*
D03*
X181000Y363000D02*
D03*
X165000D02*
D03*
X39500Y239750D02*
D03*
X23500D02*
D03*
X131250Y150000D02*
D03*
X147250D02*
D03*
X178250Y75500D02*
D03*
X194250D02*
D03*
X-13500Y264100D02*
D03*
D25*
X76000Y64500D02*
D03*
D26*
X53000Y122500D02*
D03*
X76000D02*
D03*
X99000D02*
D03*
D27*
X135500Y121500D02*
D03*
Y71500D02*
D03*
X1750Y114250D02*
D03*
Y64250D02*
D03*
D28*
X39500Y262000D02*
D03*
Y284000D02*
D03*
X23500D02*
D03*
Y262000D02*
D03*
D29*
X28250Y218000D02*
D03*
Y199000D02*
D03*
X48250Y208500D02*
D03*
X-11500Y217500D02*
D03*
Y198500D02*
D03*
X8500Y208000D02*
D03*
D30*
X54500Y175000D02*
D03*
X20500Y153000D02*
D03*
Y175000D02*
D03*
X54500Y153000D02*
D03*
D31*
X205301Y112299D02*
D03*
X192601D02*
D03*
X179901D02*
D03*
X167201D02*
D03*
Y161699D02*
D03*
X179901D02*
D03*
X192601D02*
D03*
X205301D02*
D03*
D32*
X135400Y412350D02*
D03*
X110600D02*
D03*
Y394650D02*
D03*
X135400D02*
D03*
X181400Y412850D02*
D03*
X156600D02*
D03*
Y395150D02*
D03*
X181400D02*
D03*
D33*
X127000Y412350D02*
D03*
X119000D02*
D03*
Y394650D02*
D03*
X127000D02*
D03*
X173000Y412850D02*
D03*
X165000D02*
D03*
Y395150D02*
D03*
X173000D02*
D03*
D34*
X129000Y296951D02*
D03*
X138333D02*
D03*
X147667D02*
D03*
X157000D02*
D03*
X129000Y287618D02*
D03*
X138333D02*
D03*
X147667D02*
D03*
X157000D02*
D03*
X129000Y268951D02*
D03*
X138333D02*
D03*
X147667D02*
D03*
X157000D02*
D03*
Y278284D02*
D03*
X147667D02*
D03*
X138333D02*
D03*
X129000D02*
D03*
D35*
X307250Y-39000D02*
D03*
X51000Y499750D02*
D03*
D36*
X350000Y480000D02*
D03*
X0D02*
D03*
Y-10000D02*
D03*
X350000D02*
D03*
D37*
X307750Y192500D02*
D03*
Y212500D02*
D03*
Y152500D02*
D03*
Y172500D02*
D03*
Y132500D02*
D03*
Y112500D02*
D03*
Y92500D02*
D03*
Y72500D02*
D03*
X327750D02*
D03*
Y92500D02*
D03*
Y112500D02*
D03*
Y132500D02*
D03*
Y152500D02*
D03*
Y172500D02*
D03*
Y192500D02*
D03*
X307750Y385750D02*
D03*
Y405750D02*
D03*
Y345750D02*
D03*
Y365750D02*
D03*
Y325750D02*
D03*
Y305750D02*
D03*
Y285750D02*
D03*
Y265750D02*
D03*
X327750D02*
D03*
Y285750D02*
D03*
Y305750D02*
D03*
Y325750D02*
D03*
Y345750D02*
D03*
Y365750D02*
D03*
Y385750D02*
D03*
X113250Y448250D02*
D03*
X93250D02*
D03*
X153250D02*
D03*
X133250D02*
D03*
X173250D02*
D03*
X193250D02*
D03*
X213250D02*
D03*
X233250D02*
D03*
Y468250D02*
D03*
X213250D02*
D03*
X193250D02*
D03*
X173250D02*
D03*
X153250D02*
D03*
X133250D02*
D03*
X113250D02*
D03*
D38*
X327750Y212500D02*
D03*
Y405750D02*
D03*
D39*
X-13500Y289500D02*
D03*
X-14500Y302200D02*
D03*
Y276800D02*
D03*
X-13500Y314900D02*
D03*
D40*
X261000Y1000D02*
D03*
X236000D02*
D03*
X286000D02*
D03*
X123500D02*
D03*
X98500D02*
D03*
X148500D02*
D03*
D41*
X211000D02*
D03*
X73500D02*
D03*
D42*
X93250Y468250D02*
D03*
M02*
