G04*
G04 #@! TF.GenerationSoftware,Altium Limited,Altium Designer,21.8.1 (53)*
G04*
G04 Layer_Color=65535*
%FSLAX44Y44*%
%MOMM*%
G71*
G04*
G04 #@! TF.SameCoordinates,996D42DF-EE5A-41D5-9054-6BF74EEE028F*
G04*
G04*
G04 #@! TF.FilePolarity,Positive*
G04*
G01*
G75*
%ADD10C,0.1000*%
%ADD11C,0.2000*%
%ADD12C,0.2500*%
%ADD13C,0.1200*%
%ADD14C,0.1270*%
%ADD15C,0.1500*%
%ADD16C,0.2540*%
G36*
X-17826Y436276D02*
X-17604Y436193D01*
X-17382Y436026D01*
X-17326Y435971D01*
X-17243Y435832D01*
X-17132Y435610D01*
X-17104Y435471D01*
X-17076Y435304D01*
Y433527D01*
X-5694D01*
X-5666D01*
X-5611D01*
X-5444Y433500D01*
X-5222Y433416D01*
X-5000Y433250D01*
X-4972Y433194D01*
X-4889Y433055D01*
X-4778Y432806D01*
X-4750Y432528D01*
Y432500D01*
X-4778Y432389D01*
X-4833Y432195D01*
X-4917Y431917D01*
X-4972Y431862D01*
X-5111Y431751D01*
X-5361Y431640D01*
X-5527Y431612D01*
X-5694Y431584D01*
X-17076D01*
Y431112D01*
X-17104Y430946D01*
X-17188Y430723D01*
X-17326Y430501D01*
X-17354D01*
X-17382Y430474D01*
X-17548Y430390D01*
X-17771Y430279D01*
X-18020Y430252D01*
X-18048D01*
X-18187Y430279D01*
X-18354Y430335D01*
X-18603Y430474D01*
X-18631D01*
X-18659Y430529D01*
X-18798Y430640D01*
X-18937Y430862D01*
X-18964Y431029D01*
X-18992Y431195D01*
Y431584D01*
X-23489D01*
X-23517D01*
X-23545D01*
X-23684Y431612D01*
X-23906Y431695D01*
X-24128Y431862D01*
X-24156D01*
X-24184Y431917D01*
X-24295Y432056D01*
X-24406Y432250D01*
X-24461Y432389D01*
Y432584D01*
X-24433Y432750D01*
X-24350Y432972D01*
X-24184Y433194D01*
Y433222D01*
X-24128Y433250D01*
X-24017Y433361D01*
X-23795Y433472D01*
X-23656Y433527D01*
X-23489D01*
X-18992D01*
Y435360D01*
X-18964Y435526D01*
X-18853Y435748D01*
X-18770Y435859D01*
X-18659Y435971D01*
Y435998D01*
X-18603Y436026D01*
X-18465Y436137D01*
X-18270Y436248D01*
X-18131Y436304D01*
X-18020D01*
X-17993D01*
X-17965D01*
X-17826Y436276D01*
D02*
G37*
G36*
X-5444Y428003D02*
X-5222Y427920D01*
X-5000Y427753D01*
X-4972Y427697D01*
X-4889Y427559D01*
X-4778Y427309D01*
X-4750Y427031D01*
Y427003D01*
X-4778Y426892D01*
X-4833Y426698D01*
X-4944Y426420D01*
X-5000Y426365D01*
X-5139Y426254D01*
X-5361Y426143D01*
X-5527Y426115D01*
X-5694Y426087D01*
X-15966D01*
X-15994D01*
X-16049D01*
X-16133Y426059D01*
X-16244D01*
X-16493Y425948D01*
X-16632Y425865D01*
X-16743Y425754D01*
X-16771Y425726D01*
X-16799Y425699D01*
X-16910Y425532D01*
X-17021Y425282D01*
X-17076Y425143D01*
Y421173D01*
X-5694D01*
X-5666D01*
X-5611D01*
X-5444Y421146D01*
X-5222Y421062D01*
X-5000Y420896D01*
X-4972Y420840D01*
X-4889Y420701D01*
X-4778Y420452D01*
X-4750Y420174D01*
Y420146D01*
X-4778Y420035D01*
X-4833Y419841D01*
X-4944Y419563D01*
X-5000Y419508D01*
X-5139Y419397D01*
X-5361Y419286D01*
X-5527Y419258D01*
X-5694Y419230D01*
X-18020D01*
X-18076D01*
X-18187Y419258D01*
X-18326Y419286D01*
X-18520Y419341D01*
X-18687Y419452D01*
X-18853Y419619D01*
X-18964Y419869D01*
X-18992Y420174D01*
Y425199D01*
X-18937Y425421D01*
X-18881Y425726D01*
X-18770Y426059D01*
X-18631Y426420D01*
X-18409Y426781D01*
X-18104Y427114D01*
X-18076Y427142D01*
X-17937Y427253D01*
X-17771Y427392D01*
X-17493Y427586D01*
X-17188Y427753D01*
X-16827Y427892D01*
X-16410Y428003D01*
X-15966Y428031D01*
X-5694D01*
X-5666D01*
X-5611D01*
X-5444Y428003D01*
D02*
G37*
G36*
X-5500Y417037D02*
X-5278Y416953D01*
X-5000Y416787D01*
Y416759D01*
X-4972Y416731D01*
X-4889Y416565D01*
X-4778Y416343D01*
X-4750Y416065D01*
Y416037D01*
X-4778Y415926D01*
X-4833Y415732D01*
X-4917Y415454D01*
X-4972Y415399D01*
X-5111Y415288D01*
X-5361Y415177D01*
X-5527Y415149D01*
X-5694Y415121D01*
X-18048D01*
X-18104D01*
X-18242Y415149D01*
X-18437Y415232D01*
X-18659Y415399D01*
X-18687D01*
X-18714Y415454D01*
X-18826Y415593D01*
X-18937Y415787D01*
X-18992Y415926D01*
Y416121D01*
X-18964Y416287D01*
X-18881Y416509D01*
X-18742Y416731D01*
Y416759D01*
X-18687Y416787D01*
X-18576Y416898D01*
X-18354Y417009D01*
X-18215Y417065D01*
X-18048D01*
X-5694D01*
X-5638D01*
X-5500Y417037D01*
D02*
G37*
G36*
X-23295D02*
X-23073Y416953D01*
X-22851Y416815D01*
X-22796Y416759D01*
X-22712Y416620D01*
X-22601Y416398D01*
X-22573Y416232D01*
X-22546Y416065D01*
Y415982D01*
X-22573Y415899D01*
Y415787D01*
X-22657Y415565D01*
X-22823Y415343D01*
X-22879Y415316D01*
X-23018Y415232D01*
X-23212Y415149D01*
X-23489Y415121D01*
X-23517D01*
X-23656Y415149D01*
X-23823Y415204D01*
X-24072Y415343D01*
X-24100D01*
X-24128Y415399D01*
X-24267Y415510D01*
X-24406Y415732D01*
X-24433Y415899D01*
X-24461Y416065D01*
Y416121D01*
X-24433Y416259D01*
X-24350Y416454D01*
X-24184Y416704D01*
Y416731D01*
X-24128Y416759D01*
X-23989Y416898D01*
X-23767Y417009D01*
X-23628Y417037D01*
X-23489Y417065D01*
X-23462D01*
X-23434D01*
X-23295Y417037D01*
D02*
G37*
G36*
X-5555Y412872D02*
X-5389Y412845D01*
X-5222Y412789D01*
X-5055Y412650D01*
X-4889Y412484D01*
X-4778Y412234D01*
X-4750Y411901D01*
Y407042D01*
X-4778Y406876D01*
X-4806Y406654D01*
X-4861Y406348D01*
X-4972Y406015D01*
X-5111Y405654D01*
X-5333Y405293D01*
X-5611Y404960D01*
X-5638Y404932D01*
X-5777Y404821D01*
X-5944Y404683D01*
X-6194Y404544D01*
X-6499Y404377D01*
X-6888Y404238D01*
X-7304Y404127D01*
X-7748Y404100D01*
X-18020D01*
X-18048D01*
X-18076D01*
X-18215Y404127D01*
X-18437Y404211D01*
X-18659Y404377D01*
X-18687D01*
X-18714Y404433D01*
X-18826Y404571D01*
X-18937Y404766D01*
X-18992Y404905D01*
Y405099D01*
X-18964Y405266D01*
X-18881Y405488D01*
X-18714Y405710D01*
Y405737D01*
X-18659Y405765D01*
X-18548Y405876D01*
X-18326Y405987D01*
X-18187Y406043D01*
X-18020D01*
X-7748D01*
X-7721D01*
X-7665D01*
X-7582Y406071D01*
X-7471D01*
X-7221Y406182D01*
X-7082Y406237D01*
X-6971Y406348D01*
Y406376D01*
X-6916Y406404D01*
X-6832Y406570D01*
X-6721Y406792D01*
X-6693Y406931D01*
X-6666Y407098D01*
Y410957D01*
X-18020D01*
X-18048D01*
X-18076D01*
X-18215Y410985D01*
X-18437Y411068D01*
X-18659Y411234D01*
X-18687D01*
X-18714Y411290D01*
X-18826Y411429D01*
X-18937Y411623D01*
X-18992Y411762D01*
Y411956D01*
X-18964Y412123D01*
X-18881Y412345D01*
X-18714Y412567D01*
Y412595D01*
X-18659Y412622D01*
X-18548Y412734D01*
X-18326Y412845D01*
X-18187Y412900D01*
X-18020D01*
X-5694D01*
X-5666D01*
X-5555Y412872D01*
D02*
G37*
G36*
X-11663Y402517D02*
X-11441Y402434D01*
X-11219Y402295D01*
X-11163Y402239D01*
X-11080Y402101D01*
X-10969Y401879D01*
X-10941Y401740D01*
X-10913Y401573D01*
Y393272D01*
X-10941Y393106D01*
X-11024Y392856D01*
X-11163Y392634D01*
X-11191D01*
X-11219Y392606D01*
X-11357Y392523D01*
X-11580Y392412D01*
X-11857Y392384D01*
X-11885D01*
X-12024Y392412D01*
X-12190Y392467D01*
X-12440Y392606D01*
X-12468D01*
X-12496Y392662D01*
X-12635Y392800D01*
X-12773Y393022D01*
X-12801Y393189D01*
X-12829Y393356D01*
Y401629D01*
X-12801Y401795D01*
X-12690Y402017D01*
X-12635Y402128D01*
X-12523Y402239D01*
Y402267D01*
X-12468Y402295D01*
X-12329Y402406D01*
X-12107Y402489D01*
X-11996Y402545D01*
X-11857D01*
X-11829D01*
X-11802D01*
X-11663Y402517D01*
D02*
G37*
G36*
X-5500Y390885D02*
X-5278Y390802D01*
X-5055Y390663D01*
X-5000Y390607D01*
X-4917Y390468D01*
X-4806Y390246D01*
X-4778Y390107D01*
X-4750Y389941D01*
Y389164D01*
X-4778Y389025D01*
X-4806Y388775D01*
X-4861Y388497D01*
X-4972Y388164D01*
X-5139Y387803D01*
X-5333Y387442D01*
X-5638Y387109D01*
X-5694Y387081D01*
X-5805Y386970D01*
X-5999Y386832D01*
X-6249Y386665D01*
X-6555Y386498D01*
X-6916Y386359D01*
X-7304Y386249D01*
X-7748Y386221D01*
X-23489D01*
X-23517D01*
X-23545D01*
X-23684Y386249D01*
X-23906Y386332D01*
X-24128Y386498D01*
X-24156D01*
X-24184Y386554D01*
X-24295Y386693D01*
X-24406Y386887D01*
X-24461Y387026D01*
Y387220D01*
X-24433Y387387D01*
X-24350Y387609D01*
X-24184Y387831D01*
Y387859D01*
X-24128Y387886D01*
X-24017Y387998D01*
X-23795Y388108D01*
X-23656Y388164D01*
X-23489D01*
X-7748D01*
X-7721D01*
X-7665D01*
X-7582Y388192D01*
X-7471D01*
X-7221Y388303D01*
X-7082Y388358D01*
X-6971Y388469D01*
Y388497D01*
X-6916Y388525D01*
X-6832Y388691D01*
X-6721Y388914D01*
X-6693Y389052D01*
X-6666Y389219D01*
Y389969D01*
X-6638Y390135D01*
X-6527Y390357D01*
X-6443Y390496D01*
X-6332Y390607D01*
Y390635D01*
X-6277Y390663D01*
X-6138Y390774D01*
X-5944Y390857D01*
X-5805Y390913D01*
X-5694D01*
X-5666D01*
X-5638D01*
X-5500Y390885D01*
D02*
G37*
G36*
X-5472Y385277D02*
X-5250Y385193D01*
X-5000Y385027D01*
X-4944Y384971D01*
X-4861Y384833D01*
X-4778Y384610D01*
X-4722Y384305D01*
X-4750Y384055D01*
Y384027D01*
X-4778Y384000D01*
X-4833Y383805D01*
X-4972Y383555D01*
X-5167Y383278D01*
X-5194Y383250D01*
X-5250Y383167D01*
X-5416Y383056D01*
X-5527Y382972D01*
X-5666Y382889D01*
X-5638Y382862D01*
X-5527Y382778D01*
X-5389Y382612D01*
X-5222Y382389D01*
X-5028Y382084D01*
X-4889Y381751D01*
X-4778Y381334D01*
X-4750Y380835D01*
Y378031D01*
X-4778Y377864D01*
X-4806Y377642D01*
X-4861Y377337D01*
X-4972Y377004D01*
X-5111Y376643D01*
X-5333Y376282D01*
X-5611Y375949D01*
X-5638Y375921D01*
X-5777Y375810D01*
X-5944Y375671D01*
X-6194Y375532D01*
X-6499Y375366D01*
X-6888Y375227D01*
X-7304Y375116D01*
X-7748Y375088D01*
X-15966D01*
X-16021D01*
X-16160Y375116D01*
X-16382Y375144D01*
X-16660Y375199D01*
X-16965Y375282D01*
X-17326Y375449D01*
X-17687Y375643D01*
X-18048Y375921D01*
X-18076Y375949D01*
X-18187Y376087D01*
X-18354Y376254D01*
X-18520Y376504D01*
X-18687Y376837D01*
X-18853Y377198D01*
X-18964Y377614D01*
X-18992Y378086D01*
Y382945D01*
X-18964Y383056D01*
X-18937Y383195D01*
X-18881Y383389D01*
X-18742Y383583D01*
X-18576Y383722D01*
X-18354Y383833D01*
X-18020Y383889D01*
X-7748D01*
X-7721D01*
X-7693D01*
X-7526Y383916D01*
X-7304Y383972D01*
X-6999Y384111D01*
X-6971Y384138D01*
X-6860Y384222D01*
X-6721Y384388D01*
X-6582Y384610D01*
Y384638D01*
X-6527Y384721D01*
X-6471Y384833D01*
X-6388Y384971D01*
X-6277Y385082D01*
X-6110Y385193D01*
X-5916Y385277D01*
X-5694Y385304D01*
X-5666D01*
X-5638D01*
X-5472Y385277D01*
D02*
G37*
G36*
X-17826Y373034D02*
X-17604Y372950D01*
X-17382Y372784D01*
X-17326Y372728D01*
X-17243Y372589D01*
X-17132Y372367D01*
X-17104Y372229D01*
X-17076Y372062D01*
Y370285D01*
X-5694D01*
X-5666D01*
X-5611D01*
X-5444Y370257D01*
X-5222Y370174D01*
X-5000Y370008D01*
X-4972Y369952D01*
X-4889Y369813D01*
X-4778Y369563D01*
X-4750Y369286D01*
Y369258D01*
X-4778Y369147D01*
X-4833Y368953D01*
X-4917Y368675D01*
X-4972Y368619D01*
X-5111Y368508D01*
X-5361Y368397D01*
X-5527Y368370D01*
X-5694Y368342D01*
X-17076D01*
Y367870D01*
X-17104Y367703D01*
X-17188Y367481D01*
X-17326Y367259D01*
X-17354D01*
X-17382Y367231D01*
X-17548Y367148D01*
X-17771Y367037D01*
X-18020Y367009D01*
X-18048D01*
X-18187Y367037D01*
X-18354Y367093D01*
X-18603Y367231D01*
X-18631D01*
X-18659Y367287D01*
X-18798Y367398D01*
X-18937Y367620D01*
X-18964Y367787D01*
X-18992Y367953D01*
Y368342D01*
X-23489D01*
X-23517D01*
X-23545D01*
X-23684Y368370D01*
X-23906Y368453D01*
X-24128Y368619D01*
X-24156D01*
X-24184Y368675D01*
X-24295Y368814D01*
X-24406Y369008D01*
X-24461Y369147D01*
Y369341D01*
X-24433Y369508D01*
X-24350Y369730D01*
X-24184Y369952D01*
Y369980D01*
X-24128Y370008D01*
X-24017Y370119D01*
X-23795Y370230D01*
X-23656Y370285D01*
X-23489D01*
X-18992D01*
Y372118D01*
X-18964Y372284D01*
X-18853Y372506D01*
X-18770Y372617D01*
X-18659Y372728D01*
Y372756D01*
X-18603Y372784D01*
X-18465Y372895D01*
X-18270Y373006D01*
X-18131Y373061D01*
X-18020D01*
X-17993D01*
X-17965D01*
X-17826Y373034D01*
D02*
G37*
G36*
X-5444Y364761D02*
X-5222Y364677D01*
X-5000Y364511D01*
X-4972Y364455D01*
X-4889Y364316D01*
X-4778Y364067D01*
X-4750Y363789D01*
Y363761D01*
X-4778Y363650D01*
X-4833Y363456D01*
X-4944Y363178D01*
X-5000Y363122D01*
X-5139Y363012D01*
X-5361Y362900D01*
X-5527Y362873D01*
X-5694Y362845D01*
X-15966D01*
X-15994D01*
X-16049D01*
X-16133Y362817D01*
X-16244D01*
X-16493Y362706D01*
X-16632Y362623D01*
X-16743Y362512D01*
X-16771Y362484D01*
X-16799Y362456D01*
X-16910Y362290D01*
X-17021Y362040D01*
X-17076Y361901D01*
Y357931D01*
X-5694D01*
X-5666D01*
X-5611D01*
X-5444Y357903D01*
X-5222Y357820D01*
X-5000Y357653D01*
X-4972Y357598D01*
X-4889Y357459D01*
X-4778Y357209D01*
X-4750Y356932D01*
Y356904D01*
X-4778Y356793D01*
X-4833Y356598D01*
X-4944Y356321D01*
X-5000Y356265D01*
X-5139Y356154D01*
X-5361Y356043D01*
X-5527Y356015D01*
X-5694Y355988D01*
X-18020D01*
X-18076D01*
X-18187Y356015D01*
X-18326Y356043D01*
X-18520Y356099D01*
X-18687Y356210D01*
X-18853Y356376D01*
X-18964Y356626D01*
X-18992Y356932D01*
Y361956D01*
X-18937Y362179D01*
X-18881Y362484D01*
X-18770Y362817D01*
X-18631Y363178D01*
X-18409Y363539D01*
X-18104Y363872D01*
X-18076Y363900D01*
X-17937Y364011D01*
X-17771Y364150D01*
X-17493Y364344D01*
X-17188Y364511D01*
X-16827Y364650D01*
X-16410Y364761D01*
X-15966Y364788D01*
X-5694D01*
X-5666D01*
X-5611D01*
X-5444Y364761D01*
D02*
G37*
G36*
X-5500Y353767D02*
X-5278Y353683D01*
X-5055Y353517D01*
X-5000Y353461D01*
X-4917Y353322D01*
X-4806Y353100D01*
X-4778Y352962D01*
X-4750Y352795D01*
Y347937D01*
X-4778Y347770D01*
X-4806Y347548D01*
X-4861Y347243D01*
X-4972Y346909D01*
X-5111Y346549D01*
X-5333Y346188D01*
X-5611Y345854D01*
X-5638Y345827D01*
X-5777Y345716D01*
X-5944Y345577D01*
X-6194Y345438D01*
X-6499Y345271D01*
X-6888Y345133D01*
X-7304Y345022D01*
X-7748Y344994D01*
X-15966D01*
X-16021D01*
X-16160Y345022D01*
X-16382Y345049D01*
X-16660Y345105D01*
X-16965Y345188D01*
X-17326Y345355D01*
X-17687Y345549D01*
X-18048Y345827D01*
X-18076Y345854D01*
X-18187Y345993D01*
X-18354Y346160D01*
X-18520Y346410D01*
X-18687Y346743D01*
X-18853Y347104D01*
X-18964Y347520D01*
X-18992Y347992D01*
Y350963D01*
X-18937Y351185D01*
X-18881Y351490D01*
X-18770Y351823D01*
X-18631Y352184D01*
X-18409Y352545D01*
X-18104Y352906D01*
X-18076Y352934D01*
X-17937Y353045D01*
X-17771Y353184D01*
X-17493Y353350D01*
X-17188Y353517D01*
X-16827Y353656D01*
X-16410Y353767D01*
X-15966Y353794D01*
X-11857D01*
X-11829D01*
X-11718Y353767D01*
X-11552Y353739D01*
X-11385Y353656D01*
X-11219Y353545D01*
X-11052Y353350D01*
X-10941Y353100D01*
X-10913Y352767D01*
Y346937D01*
X-7748D01*
X-7721D01*
X-7665D01*
X-7582Y346965D01*
X-7471D01*
X-7221Y347076D01*
X-7082Y347132D01*
X-6971Y347243D01*
Y347270D01*
X-6916Y347298D01*
X-6832Y347465D01*
X-6721Y347687D01*
X-6693Y347826D01*
X-6666Y347992D01*
Y352850D01*
X-6638Y353017D01*
X-6527Y353239D01*
X-6471Y353350D01*
X-6360Y353461D01*
Y353489D01*
X-6305Y353517D01*
X-6166Y353628D01*
X-5944Y353739D01*
X-5833Y353794D01*
X-5694D01*
X-5666D01*
X-5638D01*
X-5500Y353767D01*
D02*
G37*
G36*
X-5555Y342773D02*
X-5389Y342745D01*
X-5222Y342690D01*
X-5055Y342551D01*
X-4889Y342384D01*
X-4778Y342134D01*
X-4750Y341801D01*
Y336970D01*
X-4778Y336804D01*
X-4806Y336582D01*
X-4861Y336277D01*
X-4972Y335943D01*
X-5111Y335582D01*
X-5333Y335221D01*
X-5611Y334861D01*
X-5638Y334833D01*
X-5777Y334722D01*
X-5972Y334583D01*
X-6221Y334444D01*
X-6527Y334278D01*
X-6888Y334139D01*
X-7304Y334028D01*
X-7748Y334000D01*
X-15966D01*
X-15994D01*
X-16021D01*
X-16188Y334028D01*
X-16410Y334055D01*
X-16716Y334111D01*
X-17049Y334222D01*
X-17410Y334361D01*
X-17771Y334583D01*
X-18104Y334861D01*
X-18131Y334888D01*
X-18242Y335027D01*
X-18381Y335221D01*
X-18548Y335471D01*
X-18714Y335777D01*
X-18853Y336138D01*
X-18964Y336554D01*
X-18992Y337026D01*
Y340857D01*
X-23489D01*
X-23517D01*
X-23545D01*
X-23684Y340885D01*
X-23906Y340968D01*
X-24128Y341135D01*
X-24156D01*
X-24184Y341190D01*
X-24295Y341329D01*
X-24406Y341524D01*
X-24461Y341662D01*
Y341857D01*
X-24433Y342023D01*
X-24350Y342245D01*
X-24184Y342467D01*
Y342495D01*
X-24128Y342523D01*
X-24017Y342634D01*
X-23795Y342745D01*
X-23656Y342801D01*
X-23489D01*
X-5694D01*
X-5666D01*
X-5555Y342773D01*
D02*
G37*
G36*
X26306Y428757D02*
X26528Y428674D01*
X26750Y428508D01*
X26778Y428452D01*
X26861Y428313D01*
X26972Y428063D01*
X27000Y427786D01*
Y427758D01*
X26972Y427647D01*
X26917Y427453D01*
X26833Y427175D01*
X26778Y427119D01*
X26639Y427008D01*
X26389Y426897D01*
X26223Y426870D01*
X26056Y426842D01*
X10176D01*
X13036Y424371D01*
X13091Y424315D01*
X13174Y424177D01*
X13258Y423982D01*
X13313Y423705D01*
Y423649D01*
X13285Y423455D01*
X13202Y423233D01*
X13036Y423011D01*
X12980Y422955D01*
X12841Y422872D01*
X12619Y422789D01*
X12342Y422733D01*
X12314D01*
X12203Y422761D01*
X12008Y422844D01*
X11870Y422900D01*
X11703Y422983D01*
X7566Y427092D01*
X7511Y427147D01*
X7428Y427286D01*
X7344Y427480D01*
X7289Y427758D01*
Y427841D01*
X7317Y428008D01*
X7400Y428230D01*
X7566Y428480D01*
Y428508D01*
X7622Y428535D01*
X7733Y428646D01*
X7955Y428730D01*
X8094Y428785D01*
X8233D01*
X26056D01*
X26084D01*
X26139D01*
X26306Y428757D01*
D02*
G37*
G36*
X13980Y420484D02*
X14063Y420457D01*
X26223Y417042D01*
X26250D01*
X26334Y416986D01*
X26472Y416931D01*
X26611Y416847D01*
X26750Y416709D01*
X26889Y416542D01*
X26972Y416348D01*
X27000Y416098D01*
Y416042D01*
X26972Y415904D01*
X26917Y415737D01*
X26833Y415543D01*
X26806Y415515D01*
X26695Y415404D01*
X26500Y415293D01*
X26223Y415154D01*
X13980Y411739D01*
X13730Y411711D01*
X13702D01*
X13674D01*
X13535Y411739D01*
X13341Y411823D01*
X13091Y411989D01*
X13063D01*
X13036Y412045D01*
X12924Y412183D01*
X12814Y412406D01*
X12758Y412544D01*
Y412739D01*
X12786Y412850D01*
X12814Y412989D01*
X12924Y413155D01*
X12952Y413211D01*
X13036Y413322D01*
X13202Y413461D01*
X13341Y413544D01*
X13480Y413627D01*
X23113Y416098D01*
X13507Y418569D01*
X13452Y418596D01*
X13341Y418652D01*
X13174Y418735D01*
X13008Y418874D01*
X12980Y418930D01*
X12897Y419041D01*
X12814Y419235D01*
X12758Y419485D01*
Y419568D01*
X12786Y419735D01*
X12869Y419985D01*
X13036Y420207D01*
Y420234D01*
X13091Y420262D01*
X13202Y420373D01*
X13424Y420457D01*
X13563Y420512D01*
X13702D01*
X13757D01*
X13841D01*
X13980Y420484D01*
D02*
G37*
G36*
X26306Y401245D02*
X26528Y401162D01*
X26750Y400995D01*
X26778Y400940D01*
X26861Y400801D01*
X26972Y400551D01*
X27000Y400273D01*
Y400246D01*
X26972Y400135D01*
X26917Y399940D01*
X26806Y399663D01*
X26750Y399607D01*
X26611Y399496D01*
X26389Y399385D01*
X26223Y399357D01*
X26056Y399329D01*
X15784D01*
X15756D01*
X15701D01*
X15618Y399302D01*
X15506D01*
X15257Y399191D01*
X15118Y399107D01*
X15007Y398996D01*
X14979Y398969D01*
X14951Y398941D01*
X14840Y398774D01*
X14729Y398524D01*
X14674Y398386D01*
Y394416D01*
X26056D01*
X26084D01*
X26139D01*
X26306Y394388D01*
X26528Y394305D01*
X26750Y394138D01*
X26778Y394082D01*
X26861Y393944D01*
X26972Y393694D01*
X27000Y393416D01*
Y393388D01*
X26972Y393277D01*
X26917Y393083D01*
X26806Y392805D01*
X26750Y392750D01*
X26611Y392639D01*
X26389Y392528D01*
X26223Y392500D01*
X26056Y392472D01*
X13730D01*
X13674D01*
X13563Y392500D01*
X13424Y392528D01*
X13230Y392583D01*
X13063Y392694D01*
X12897Y392861D01*
X12786Y393111D01*
X12758Y393416D01*
Y398441D01*
X12814Y398663D01*
X12869Y398969D01*
X12980Y399302D01*
X13119Y399663D01*
X13341Y400024D01*
X13646Y400357D01*
X13674Y400384D01*
X13813Y400495D01*
X13980Y400634D01*
X14257Y400829D01*
X14562Y400995D01*
X14923Y401134D01*
X15340Y401245D01*
X15784Y401273D01*
X26056D01*
X26084D01*
X26139D01*
X26306Y401245D01*
D02*
G37*
G36*
X24446Y390224D02*
X24723Y390168D01*
X25084Y390057D01*
X25417Y389918D01*
X25778Y389696D01*
X26139Y389391D01*
X26167Y389363D01*
X26278Y389224D01*
X26417Y389030D01*
X26556Y388780D01*
X26722Y388475D01*
X26861Y388114D01*
X26972Y387697D01*
X27000Y387225D01*
Y384421D01*
X26972Y384255D01*
X26944Y384033D01*
X26889Y383727D01*
X26778Y383394D01*
X26639Y383033D01*
X26417Y382672D01*
X26139Y382339D01*
X26112Y382311D01*
X25973Y382200D01*
X25806Y382061D01*
X25556Y381923D01*
X25251Y381756D01*
X24862Y381617D01*
X24446Y381506D01*
X24002Y381478D01*
X15784D01*
X15728D01*
X15590Y381506D01*
X15368Y381534D01*
X15090Y381590D01*
X14785Y381673D01*
X14424Y381839D01*
X14063Y382034D01*
X13702Y382311D01*
X13674Y382339D01*
X13563Y382478D01*
X13397Y382644D01*
X13230Y382894D01*
X13063Y383227D01*
X12897Y383588D01*
X12786Y384005D01*
X12758Y384477D01*
Y387447D01*
X12814Y387669D01*
X12869Y387975D01*
X12980Y388308D01*
X13119Y388669D01*
X13341Y389030D01*
X13646Y389363D01*
X13674Y389391D01*
X13813Y389502D01*
X13980Y389641D01*
X14257Y389835D01*
X14562Y390001D01*
X14923Y390140D01*
X15340Y390251D01*
X15784Y390279D01*
X24002D01*
X24057D01*
X24196D01*
X24446Y390224D01*
D02*
G37*
G36*
X13924Y379285D02*
X14146Y379202D01*
X14368Y379035D01*
X14424Y378980D01*
X14507Y378841D01*
X14618Y378619D01*
X14646Y378480D01*
X14674Y378313D01*
Y376537D01*
X26056D01*
X26084D01*
X26139D01*
X26306Y376509D01*
X26528Y376426D01*
X26750Y376259D01*
X26778Y376204D01*
X26861Y376065D01*
X26972Y375815D01*
X27000Y375537D01*
Y375509D01*
X26972Y375398D01*
X26917Y375204D01*
X26833Y374926D01*
X26778Y374871D01*
X26639Y374760D01*
X26389Y374649D01*
X26223Y374621D01*
X26056Y374593D01*
X14674D01*
Y374121D01*
X14646Y373955D01*
X14562Y373733D01*
X14424Y373511D01*
X14396D01*
X14368Y373483D01*
X14202Y373400D01*
X13980Y373289D01*
X13730Y373261D01*
X13702D01*
X13563Y373289D01*
X13397Y373344D01*
X13147Y373483D01*
X13119D01*
X13091Y373538D01*
X12952Y373649D01*
X12814Y373872D01*
X12786Y374038D01*
X12758Y374205D01*
Y374593D01*
X8260D01*
X8233D01*
X8205D01*
X8066Y374621D01*
X7844Y374704D01*
X7622Y374871D01*
X7594D01*
X7566Y374926D01*
X7455Y375065D01*
X7344Y375260D01*
X7289Y375398D01*
Y375593D01*
X7317Y375759D01*
X7400Y375981D01*
X7566Y376204D01*
Y376231D01*
X7622Y376259D01*
X7733Y376370D01*
X7955Y376481D01*
X8094Y376537D01*
X8260D01*
X12758D01*
Y378369D01*
X12786Y378536D01*
X12897Y378758D01*
X12980Y378869D01*
X13091Y378980D01*
Y379008D01*
X13147Y379035D01*
X13285Y379146D01*
X13480Y379257D01*
X13619Y379313D01*
X13730D01*
X13757D01*
X13785D01*
X13924Y379285D01*
D02*
G37*
G36*
Y371040D02*
X14146Y370956D01*
X14368Y370790D01*
X14424Y370734D01*
X14507Y370596D01*
X14618Y370373D01*
X14646Y370235D01*
X14674Y370068D01*
Y368291D01*
X26056D01*
X26084D01*
X26139D01*
X26306Y368264D01*
X26528Y368180D01*
X26750Y368014D01*
X26778Y367958D01*
X26861Y367819D01*
X26972Y367570D01*
X27000Y367292D01*
Y367264D01*
X26972Y367153D01*
X26917Y366959D01*
X26833Y366681D01*
X26778Y366626D01*
X26639Y366515D01*
X26389Y366404D01*
X26223Y366376D01*
X26056Y366348D01*
X14674D01*
Y365876D01*
X14646Y365709D01*
X14562Y365487D01*
X14424Y365265D01*
X14396D01*
X14368Y365238D01*
X14202Y365154D01*
X13980Y365043D01*
X13730Y365015D01*
X13702D01*
X13563Y365043D01*
X13397Y365099D01*
X13147Y365238D01*
X13119D01*
X13091Y365293D01*
X12952Y365404D01*
X12814Y365626D01*
X12786Y365793D01*
X12758Y365959D01*
Y366348D01*
X8260D01*
X8233D01*
X8205D01*
X8066Y366376D01*
X7844Y366459D01*
X7622Y366626D01*
X7594D01*
X7566Y366681D01*
X7455Y366820D01*
X7344Y367014D01*
X7289Y367153D01*
Y367347D01*
X7317Y367514D01*
X7400Y367736D01*
X7566Y367958D01*
Y367986D01*
X7622Y368014D01*
X7733Y368125D01*
X7955Y368236D01*
X8094Y368291D01*
X8260D01*
X12758D01*
Y370124D01*
X12786Y370290D01*
X12897Y370512D01*
X12980Y370623D01*
X13091Y370734D01*
Y370762D01*
X13147Y370790D01*
X13285Y370901D01*
X13480Y371012D01*
X13619Y371068D01*
X13730D01*
X13757D01*
X13785D01*
X13924Y371040D01*
D02*
G37*
G36*
X26195Y362767D02*
X26361Y362739D01*
X26528Y362683D01*
X26695Y362545D01*
X26861Y362378D01*
X26972Y362128D01*
X27000Y361795D01*
Y356937D01*
X26972Y356770D01*
X26944Y356548D01*
X26889Y356243D01*
X26778Y355909D01*
X26639Y355549D01*
X26417Y355188D01*
X26139Y354855D01*
X26112Y354827D01*
X25973Y354716D01*
X25806Y354577D01*
X25556Y354438D01*
X25251Y354272D01*
X24862Y354133D01*
X24446Y354022D01*
X24002Y353994D01*
X13730D01*
X13702D01*
X13674D01*
X13535Y354022D01*
X13313Y354105D01*
X13091Y354272D01*
X13063D01*
X13036Y354327D01*
X12924Y354466D01*
X12814Y354660D01*
X12758Y354799D01*
Y354993D01*
X12786Y355160D01*
X12869Y355382D01*
X13036Y355604D01*
Y355632D01*
X13091Y355660D01*
X13202Y355771D01*
X13424Y355882D01*
X13563Y355937D01*
X13730D01*
X24002D01*
X24029D01*
X24085D01*
X24168Y355965D01*
X24279D01*
X24529Y356076D01*
X24668Y356132D01*
X24779Y356243D01*
Y356270D01*
X24834Y356298D01*
X24918Y356465D01*
X25029Y356687D01*
X25057Y356826D01*
X25084Y356992D01*
Y360851D01*
X13730D01*
X13702D01*
X13674D01*
X13535Y360879D01*
X13313Y360962D01*
X13091Y361129D01*
X13063D01*
X13036Y361184D01*
X12924Y361323D01*
X12814Y361517D01*
X12758Y361656D01*
Y361851D01*
X12786Y362017D01*
X12869Y362239D01*
X13036Y362461D01*
Y362489D01*
X13091Y362517D01*
X13202Y362628D01*
X13424Y362739D01*
X13563Y362794D01*
X13730D01*
X26056D01*
X26084D01*
X26195Y362767D01*
D02*
G37*
G36*
X24446Y351745D02*
X24723Y351690D01*
X25057Y351578D01*
X25417Y351440D01*
X25778Y351218D01*
X26112Y350912D01*
X26139Y350885D01*
X26250Y350746D01*
X26389Y350579D01*
X26556Y350329D01*
X26722Y349996D01*
X26861Y349635D01*
X26972Y349191D01*
X27000Y348719D01*
Y343916D01*
X26972Y343805D01*
X26944Y343638D01*
X26889Y343472D01*
X26778Y343305D01*
X26611Y343139D01*
X26361Y343028D01*
X26056Y343000D01*
X8260D01*
X8233D01*
X8205D01*
X8066Y343028D01*
X7844Y343111D01*
X7622Y343278D01*
X7594D01*
X7566Y343333D01*
X7455Y343472D01*
X7344Y343666D01*
X7289Y343805D01*
Y343999D01*
X7317Y344166D01*
X7400Y344388D01*
X7566Y344610D01*
Y344638D01*
X7622Y344666D01*
X7733Y344777D01*
X7955Y344888D01*
X8094Y344943D01*
X8260D01*
X12758D01*
Y348941D01*
X12814Y349163D01*
X12869Y349469D01*
X12980Y349802D01*
X13119Y350163D01*
X13341Y350524D01*
X13646Y350885D01*
X13674Y350912D01*
X13813Y351023D01*
X13980Y351162D01*
X14257Y351356D01*
X14562Y351523D01*
X14923Y351662D01*
X15340Y351773D01*
X15784Y351801D01*
X24002D01*
X24057D01*
X24196D01*
X24446Y351745D01*
D02*
G37*
G36*
X114408Y238888D02*
X114667Y238824D01*
X115315Y238629D01*
X115639Y238370D01*
X116028Y238111D01*
X116093Y238046D01*
X116158Y237981D01*
X116352Y237787D01*
X116482Y237528D01*
X116676Y237204D01*
X116870Y236815D01*
X116935Y236361D01*
X117000Y235843D01*
Y235584D01*
X116935Y235325D01*
X116870Y235065D01*
X116676Y234288D01*
X116482Y233964D01*
X116222Y233640D01*
X116158Y233575D01*
X116028Y233510D01*
X115834Y233381D01*
X115575Y233251D01*
X114862Y232927D01*
X114473Y232862D01*
X114019Y232798D01*
X113955D01*
X113890D01*
X113501Y232862D01*
X112918Y233122D01*
X112529Y233251D01*
X112140Y233510D01*
X112076Y233575D01*
X111946Y233640D01*
X111752Y233834D01*
X111557Y234093D01*
X111363Y234417D01*
X111168Y234806D01*
X111039Y235325D01*
X110974Y235843D01*
Y236037D01*
X111039Y236297D01*
X111104Y236556D01*
X111233Y236880D01*
X111363Y237269D01*
X111622Y237592D01*
X111946Y237981D01*
X112011Y238046D01*
X112076Y238111D01*
X112270Y238305D01*
X112529Y238500D01*
X113177Y238824D01*
X113566Y238888D01*
X114019Y238953D01*
X114084D01*
X114214D01*
X114408Y238888D01*
D02*
G37*
G36*
X169902Y510433D02*
X170068D01*
X170235Y510406D01*
X170651Y510295D01*
X171151Y510156D01*
X171679Y509906D01*
X172206Y509600D01*
X172456Y509378D01*
X172706Y509156D01*
X172733Y509129D01*
X172761Y509101D01*
X172928Y508934D01*
X173122Y508657D01*
X173372Y508296D01*
X173622Y507851D01*
X173844Y507324D01*
X173983Y506713D01*
X174011Y506408D01*
X174038Y506075D01*
Y495109D01*
Y495081D01*
Y495025D01*
Y494942D01*
X174011Y494803D01*
Y494664D01*
X173983Y494470D01*
X173872Y494054D01*
X173733Y493582D01*
X173483Y493054D01*
X173178Y492527D01*
X172956Y492277D01*
X172733Y492027D01*
X172706D01*
X172678Y491972D01*
X172595Y491916D01*
X172511Y491833D01*
X172234Y491611D01*
X171873Y491389D01*
X171401Y491166D01*
X170873Y490944D01*
X170263Y490806D01*
X169930Y490778D01*
X169596Y490750D01*
X164766D01*
X164655Y490778D01*
X164488Y490806D01*
X164321Y490861D01*
X164155Y490972D01*
X163988Y491139D01*
X163877Y491389D01*
X163850Y491694D01*
Y509490D01*
Y509545D01*
X163877Y509656D01*
X163905Y509795D01*
X163961Y509989D01*
X164072Y510156D01*
X164238Y510322D01*
X164488Y510433D01*
X164793Y510461D01*
X169763D01*
X169902Y510433D01*
D02*
G37*
G36*
X160907D02*
X161129Y510322D01*
X161240Y510267D01*
X161351Y510156D01*
X161379D01*
X161406Y510100D01*
X161518Y509961D01*
X161601Y509739D01*
X161656Y509628D01*
Y509490D01*
Y509462D01*
Y509434D01*
X161629Y509295D01*
X161545Y509073D01*
X161406Y508851D01*
X161351Y508795D01*
X161212Y508712D01*
X160990Y508601D01*
X160851Y508573D01*
X160685Y508546D01*
X154827D01*
Y502216D01*
X157992D01*
X158158Y502188D01*
X158380Y502077D01*
X158491Y502021D01*
X158603Y501910D01*
X158630D01*
X158658Y501855D01*
X158769Y501716D01*
X158880Y501494D01*
X158936Y501383D01*
Y501244D01*
Y501216D01*
Y501189D01*
X158908Y501050D01*
X158825Y500828D01*
X158658Y500606D01*
X158603Y500550D01*
X158464Y500467D01*
X158242Y500356D01*
X158103Y500328D01*
X157936Y500300D01*
X154827D01*
Y492666D01*
X160740D01*
X160907Y492638D01*
X161129Y492527D01*
X161240Y492471D01*
X161351Y492360D01*
X161379D01*
X161406Y492305D01*
X161518Y492166D01*
X161601Y491944D01*
X161656Y491833D01*
Y491694D01*
Y491666D01*
Y491638D01*
X161629Y491500D01*
X161545Y491278D01*
X161406Y491055D01*
X161351Y491000D01*
X161212Y490917D01*
X160990Y490806D01*
X160851Y490778D01*
X160685Y490750D01*
X153800D01*
X153689Y490778D01*
X153522Y490806D01*
X153355Y490861D01*
X153189Y490972D01*
X153022Y491139D01*
X152911Y491389D01*
X152884Y491694D01*
Y509490D01*
Y509545D01*
X152911Y509656D01*
X152939Y509795D01*
X152994Y509989D01*
X153106Y510156D01*
X153272Y510322D01*
X153522Y510433D01*
X153827Y510461D01*
X160740D01*
X160907Y510433D01*
D02*
G37*
G36*
X144416D02*
X144638Y510350D01*
X144860Y510183D01*
X144888D01*
X144916Y510128D01*
X145027Y510017D01*
X145138Y509795D01*
X145193Y509656D01*
Y509490D01*
Y492666D01*
X149746D01*
X149913Y492638D01*
X150135Y492527D01*
X150246Y492471D01*
X150357Y492360D01*
X150385D01*
X150413Y492305D01*
X150524Y492166D01*
X150607Y491944D01*
X150662Y491833D01*
Y491694D01*
Y491666D01*
Y491638D01*
X150635Y491500D01*
X150552Y491278D01*
X150413Y491055D01*
X150357Y491000D01*
X150218Y490917D01*
X149996Y490806D01*
X149857Y490778D01*
X149691Y490750D01*
X144166D01*
X144055Y490778D01*
X143889Y490806D01*
X143722Y490861D01*
X143555Y490972D01*
X143389Y491139D01*
X143278Y491389D01*
X143250Y491694D01*
Y509490D01*
Y509517D01*
Y509545D01*
X143278Y509684D01*
X143361Y509906D01*
X143528Y510128D01*
Y510156D01*
X143583Y510183D01*
X143722Y510295D01*
X143916Y510406D01*
X144055Y510461D01*
X144249D01*
X144416Y510433D01*
D02*
G37*
G36*
X351705Y341592D02*
X351927Y341508D01*
X352149Y341342D01*
X352205Y341286D01*
X352288Y341147D01*
X352399Y340925D01*
X352427Y340787D01*
X352454Y340620D01*
Y337510D01*
X369306D01*
X369334D01*
X369389D01*
X369556Y337483D01*
X369778Y337399D01*
X370000Y337233D01*
X370028Y337177D01*
X370111Y337039D01*
X370222Y336789D01*
X370250Y336511D01*
Y336483D01*
X370222Y336372D01*
X370167Y336178D01*
X370083Y335900D01*
X370028Y335845D01*
X369889Y335734D01*
X369639Y335623D01*
X369473Y335595D01*
X369306Y335567D01*
X352454D01*
Y332319D01*
X352427Y332152D01*
X352343Y331930D01*
X352205Y331708D01*
X352177D01*
X352149Y331680D01*
X352010Y331597D01*
X351788Y331486D01*
X351511Y331458D01*
X351483D01*
X351344Y331486D01*
X351177Y331542D01*
X350928Y331680D01*
X350900D01*
X350872Y331736D01*
X350733Y331847D01*
X350594Y332069D01*
X350567Y332236D01*
X350539Y332402D01*
Y340675D01*
X350567Y340842D01*
X350678Y341064D01*
X350733Y341203D01*
X350844Y341314D01*
Y341342D01*
X350900Y341370D01*
X351039Y341480D01*
X351261Y341564D01*
X351372Y341619D01*
X351511D01*
X351538D01*
X351566D01*
X351705Y341592D01*
D02*
G37*
G36*
X366197Y329265D02*
X366335D01*
X366530Y329237D01*
X366946Y329126D01*
X367418Y328988D01*
X367946Y328738D01*
X368473Y328432D01*
X368723Y328210D01*
X368973Y327988D01*
Y327960D01*
X369029Y327933D01*
X369084Y327849D01*
X369167Y327766D01*
X369389Y327488D01*
X369612Y327127D01*
X369834Y326656D01*
X370056Y326128D01*
X370195Y325517D01*
X370222Y325184D01*
X370250Y324851D01*
Y323324D01*
X370222Y323213D01*
Y323046D01*
X370195Y322880D01*
X370083Y322463D01*
X369945Y321992D01*
X369723Y321492D01*
X369417Y320964D01*
X369223Y320687D01*
X369001Y320437D01*
X368973Y320409D01*
X368945Y320381D01*
X368862Y320326D01*
X368779Y320242D01*
X368501Y320020D01*
X368140Y319771D01*
X367668Y319521D01*
X367141Y319326D01*
X366558Y319160D01*
X366225Y319132D01*
X365891Y319104D01*
X351511D01*
X351483D01*
X351455D01*
X351316Y319132D01*
X351094Y319215D01*
X350872Y319382D01*
X350844D01*
X350816Y319437D01*
X350705Y319576D01*
X350594Y319771D01*
X350539Y319909D01*
Y320104D01*
X350567Y320270D01*
X350650Y320492D01*
X350816Y320714D01*
Y320742D01*
X350872Y320770D01*
X350983Y320881D01*
X351205Y320992D01*
X351344Y321048D01*
X351511D01*
X365891D01*
X365947D01*
X366058D01*
X366252Y321075D01*
X366474Y321131D01*
X366752Y321214D01*
X367030Y321353D01*
X367335Y321520D01*
X367613Y321769D01*
X367640Y321797D01*
X367724Y321908D01*
X367835Y322047D01*
X367974Y322269D01*
X368112Y322519D01*
X368223Y322824D01*
X368307Y323130D01*
X368334Y323491D01*
Y325018D01*
X368307Y325212D01*
X368251Y325434D01*
X368168Y325712D01*
X368029Y326017D01*
X367863Y326322D01*
X367640Y326600D01*
X367613Y326628D01*
X367502Y326711D01*
X367363Y326850D01*
X367168Y326989D01*
X366918Y327100D01*
X366613Y327239D01*
X366280Y327322D01*
X365891Y327350D01*
X351511D01*
X351483D01*
X351455D01*
X351316Y327377D01*
X351094Y327461D01*
X350872Y327627D01*
X350844D01*
X350816Y327683D01*
X350705Y327822D01*
X350594Y328016D01*
X350539Y328155D01*
Y328349D01*
X350567Y328516D01*
X350650Y328738D01*
X350816Y328960D01*
Y328988D01*
X350872Y329015D01*
X350983Y329126D01*
X351205Y329237D01*
X351344Y329293D01*
X351511D01*
X365891D01*
X365919D01*
X365975D01*
X366058D01*
X366197Y329265D01*
D02*
G37*
G36*
Y316911D02*
X366335D01*
X366502Y316855D01*
X366918Y316772D01*
X367418Y316606D01*
X367918Y316356D01*
X368168Y316189D01*
X368446Y316023D01*
X368695Y315800D01*
X368945Y315551D01*
Y315523D01*
X369001Y315495D01*
X369056Y315412D01*
X369140Y315301D01*
X369362Y315023D01*
X369584Y314662D01*
X369834Y314218D01*
X370056Y313691D01*
X370195Y313108D01*
X370222Y312802D01*
X370250Y312497D01*
Y307666D01*
X370222Y307555D01*
X370195Y307388D01*
X370139Y307222D01*
X370028Y307055D01*
X369861Y306889D01*
X369612Y306778D01*
X369306Y306750D01*
X351511D01*
X351455D01*
X351344Y306778D01*
X351205Y306805D01*
X351011Y306861D01*
X350844Y306972D01*
X350678Y307139D01*
X350567Y307388D01*
X350539Y307694D01*
Y311997D01*
X350567Y312136D01*
Y312275D01*
X350594Y312469D01*
X350678Y312885D01*
X350844Y313357D01*
X351066Y313857D01*
X351344Y314357D01*
X351538Y314607D01*
X351760Y314829D01*
X351788Y314857D01*
X351871Y314968D01*
X352010Y315106D01*
X352205Y315273D01*
X352427Y315440D01*
X352677Y315634D01*
X352954Y315800D01*
X353260Y315939D01*
X354037Y316161D01*
X354509Y316245D01*
X354953D01*
X356313D01*
X356369D01*
X356480D01*
X356702Y316217D01*
X356952Y316189D01*
X357229Y316134D01*
X357563Y316078D01*
X357868Y315967D01*
X358201Y315828D01*
X358229Y315800D01*
X358340Y315745D01*
X358479Y315662D01*
X358673Y315551D01*
X358867Y315384D01*
X359090Y315190D01*
X359284Y314968D01*
X359478Y314690D01*
X359506Y314718D01*
X359534Y314829D01*
X359645Y314995D01*
X359784Y315217D01*
X359978Y315467D01*
X360228Y315717D01*
X360533Y315995D01*
X360922Y316245D01*
X360977Y316272D01*
X361116Y316356D01*
X361338Y316467D01*
X361616Y316606D01*
X361949Y316717D01*
X362338Y316828D01*
X362727Y316911D01*
X363171Y316939D01*
X365891D01*
X365919D01*
X365975D01*
X366058D01*
X366197Y316911D01*
D02*
G37*
G36*
X350955Y150342D02*
X351177Y150258D01*
X351399Y150092D01*
X351455Y150036D01*
X351538Y149897D01*
X351649Y149675D01*
X351677Y149537D01*
X351704Y149370D01*
Y146260D01*
X368556D01*
X368584D01*
X368639D01*
X368806Y146233D01*
X369028Y146150D01*
X369250Y145983D01*
X369278Y145927D01*
X369361Y145789D01*
X369472Y145539D01*
X369500Y145261D01*
Y145233D01*
X369472Y145122D01*
X369417Y144928D01*
X369333Y144650D01*
X369278Y144595D01*
X369139Y144484D01*
X368889Y144373D01*
X368723Y144345D01*
X368556Y144317D01*
X351704D01*
Y141069D01*
X351677Y140902D01*
X351593Y140680D01*
X351455Y140458D01*
X351427D01*
X351399Y140430D01*
X351260Y140347D01*
X351038Y140236D01*
X350760Y140208D01*
X350733D01*
X350594Y140236D01*
X350427Y140292D01*
X350177Y140430D01*
X350150D01*
X350122Y140486D01*
X349983Y140597D01*
X349844Y140819D01*
X349817Y140986D01*
X349789Y141152D01*
Y149425D01*
X349817Y149592D01*
X349928Y149814D01*
X349983Y149953D01*
X350094Y150064D01*
Y150092D01*
X350150Y150119D01*
X350289Y150231D01*
X350511Y150314D01*
X350622Y150369D01*
X350760D01*
X350788D01*
X350816D01*
X350955Y150342D01*
D02*
G37*
G36*
X365447Y138015D02*
X365586D01*
X365780Y137987D01*
X366196Y137876D01*
X366668Y137738D01*
X367196Y137488D01*
X367723Y137182D01*
X367973Y136960D01*
X368223Y136738D01*
Y136710D01*
X368279Y136683D01*
X368334Y136599D01*
X368417Y136516D01*
X368639Y136238D01*
X368862Y135878D01*
X369084Y135406D01*
X369306Y134878D01*
X369445Y134267D01*
X369472Y133934D01*
X369500Y133601D01*
Y132074D01*
X369472Y131963D01*
Y131796D01*
X369445Y131630D01*
X369333Y131213D01*
X369195Y130741D01*
X368973Y130242D01*
X368667Y129714D01*
X368473Y129437D01*
X368251Y129187D01*
X368223Y129159D01*
X368195Y129131D01*
X368112Y129076D01*
X368029Y128992D01*
X367751Y128770D01*
X367390Y128520D01*
X366918Y128271D01*
X366391Y128076D01*
X365808Y127910D01*
X365475Y127882D01*
X365141Y127854D01*
X350760D01*
X350733D01*
X350705D01*
X350566Y127882D01*
X350344Y127965D01*
X350122Y128132D01*
X350094D01*
X350066Y128187D01*
X349955Y128326D01*
X349844Y128520D01*
X349789Y128659D01*
Y128854D01*
X349817Y129020D01*
X349900Y129242D01*
X350066Y129464D01*
Y129492D01*
X350122Y129520D01*
X350233Y129631D01*
X350455Y129742D01*
X350594Y129797D01*
X350760D01*
X365141D01*
X365197D01*
X365308D01*
X365502Y129825D01*
X365724Y129881D01*
X366002Y129964D01*
X366280Y130103D01*
X366585Y130269D01*
X366863Y130519D01*
X366890Y130547D01*
X366974Y130658D01*
X367085Y130797D01*
X367224Y131019D01*
X367362Y131269D01*
X367473Y131574D01*
X367557Y131880D01*
X367584Y132241D01*
Y133767D01*
X367557Y133962D01*
X367501Y134184D01*
X367418Y134462D01*
X367279Y134767D01*
X367112Y135072D01*
X366890Y135350D01*
X366863Y135378D01*
X366752Y135461D01*
X366613Y135600D01*
X366418Y135739D01*
X366169Y135850D01*
X365863Y135989D01*
X365530Y136072D01*
X365141Y136100D01*
X350760D01*
X350733D01*
X350705D01*
X350566Y136127D01*
X350344Y136211D01*
X350122Y136377D01*
X350094D01*
X350066Y136433D01*
X349955Y136572D01*
X349844Y136766D01*
X349789Y136905D01*
Y137099D01*
X349817Y137266D01*
X349900Y137488D01*
X350066Y137710D01*
Y137738D01*
X350122Y137765D01*
X350233Y137876D01*
X350455Y137987D01*
X350594Y138043D01*
X350760D01*
X365141D01*
X365169D01*
X365225D01*
X365308D01*
X365447Y138015D01*
D02*
G37*
G36*
Y125661D02*
X365586D01*
X365752Y125605D01*
X366169Y125522D01*
X366668Y125356D01*
X367168Y125106D01*
X367418Y124939D01*
X367696Y124773D01*
X367945Y124551D01*
X368195Y124301D01*
Y124273D01*
X368251Y124245D01*
X368306Y124162D01*
X368390Y124051D01*
X368612Y123773D01*
X368834Y123412D01*
X369084Y122968D01*
X369306Y122441D01*
X369445Y121858D01*
X369472Y121552D01*
X369500Y121247D01*
Y116416D01*
X369472Y116305D01*
X369445Y116138D01*
X369389Y115972D01*
X369278Y115805D01*
X369111Y115639D01*
X368862Y115528D01*
X368556Y115500D01*
X350760D01*
X350705D01*
X350594Y115528D01*
X350455Y115555D01*
X350261Y115611D01*
X350094Y115722D01*
X349928Y115889D01*
X349817Y116138D01*
X349789Y116444D01*
Y120747D01*
X349817Y120886D01*
Y121025D01*
X349844Y121219D01*
X349928Y121635D01*
X350094Y122107D01*
X350316Y122607D01*
X350594Y123107D01*
X350788Y123357D01*
X351010Y123579D01*
X351038Y123607D01*
X351121Y123718D01*
X351260Y123856D01*
X351455Y124023D01*
X351677Y124190D01*
X351926Y124384D01*
X352204Y124551D01*
X352509Y124689D01*
X353287Y124911D01*
X353759Y124995D01*
X354203D01*
X355563D01*
X355619D01*
X355730D01*
X355952Y124967D01*
X356202Y124939D01*
X356479Y124884D01*
X356813Y124828D01*
X357118Y124717D01*
X357451Y124578D01*
X357479Y124551D01*
X357590Y124495D01*
X357729Y124412D01*
X357923Y124301D01*
X358117Y124134D01*
X358340Y123940D01*
X358534Y123718D01*
X358728Y123440D01*
X358756Y123468D01*
X358784Y123579D01*
X358895Y123745D01*
X359034Y123968D01*
X359228Y124217D01*
X359478Y124467D01*
X359783Y124745D01*
X360172Y124995D01*
X360227Y125022D01*
X360366Y125106D01*
X360588Y125217D01*
X360866Y125356D01*
X361199Y125467D01*
X361588Y125578D01*
X361976Y125661D01*
X362421Y125689D01*
X365141D01*
X365169D01*
X365225D01*
X365308D01*
X365447Y125661D01*
D02*
G37*
G36*
X126870Y-27817D02*
X127092Y-27900D01*
X127314Y-28066D01*
X127342D01*
X127369Y-28122D01*
X127480Y-28233D01*
X127592Y-28455D01*
X127647Y-28594D01*
Y-28760D01*
Y-46556D01*
Y-46612D01*
X127619Y-46723D01*
X127536Y-46945D01*
X127369Y-47222D01*
X127342D01*
X127314Y-47278D01*
X127147Y-47361D01*
X126897Y-47445D01*
X126592Y-47500D01*
X126148Y-47417D01*
X125787Y-47000D01*
X119402Y-32148D01*
Y-46556D01*
Y-46584D01*
Y-46639D01*
X119374Y-46806D01*
X119291Y-47028D01*
X119124Y-47250D01*
X119069Y-47278D01*
X118930Y-47361D01*
X118680Y-47472D01*
X118402Y-47500D01*
X118375D01*
X118264Y-47472D01*
X118069Y-47417D01*
X117792Y-47306D01*
X117736Y-47250D01*
X117625Y-47111D01*
X117514Y-46889D01*
X117486Y-46723D01*
X117458Y-46556D01*
Y-28760D01*
Y-28733D01*
Y-28705D01*
X117486Y-28566D01*
X117569Y-28344D01*
X117736Y-28122D01*
Y-28094D01*
X117792Y-28066D01*
X117930Y-27955D01*
X118125Y-27844D01*
X118264Y-27789D01*
X118458D01*
X118569Y-27817D01*
X118708Y-27844D01*
X118902Y-27928D01*
X118958Y-27955D01*
X118985Y-27983D01*
X119041Y-28066D01*
X119124Y-28150D01*
X119180Y-28289D01*
X119263Y-28455D01*
X119318Y-28677D01*
X125704Y-43141D01*
Y-28760D01*
Y-28733D01*
Y-28705D01*
X125731Y-28566D01*
X125815Y-28344D01*
X125981Y-28122D01*
Y-28094D01*
X126037Y-28066D01*
X126176Y-27955D01*
X126370Y-27844D01*
X126509Y-27789D01*
X126703D01*
X126870Y-27817D01*
D02*
G37*
G36*
X109713Y-27844D02*
X109852Y-27928D01*
X110018Y-28011D01*
X110157Y-28150D01*
X110296Y-28344D01*
X110407Y-28622D01*
X115210Y-46334D01*
X115237Y-46556D01*
Y-46584D01*
Y-46612D01*
X115210Y-46778D01*
X115099Y-47000D01*
X115043Y-47111D01*
X114932Y-47250D01*
X114876Y-47278D01*
X114738Y-47361D01*
X114516Y-47472D01*
X114238Y-47500D01*
X114182D01*
X114044Y-47472D01*
X113877Y-47417D01*
X113683Y-47333D01*
X113655Y-47306D01*
X113544Y-47222D01*
X113433Y-47084D01*
X113350Y-46889D01*
X112045Y-42031D01*
X106909D01*
X105632Y-46723D01*
Y-46750D01*
Y-46778D01*
X105576Y-46945D01*
X105465Y-47139D01*
X105299Y-47306D01*
X105243Y-47333D01*
X105132Y-47389D01*
X104938Y-47472D01*
X104688Y-47500D01*
X104632D01*
X104466Y-47472D01*
X104244Y-47389D01*
X103994Y-47250D01*
X103938Y-47195D01*
X103855Y-47056D01*
X103772Y-46806D01*
X103716Y-46501D01*
X103744Y-46334D01*
X108547Y-28622D01*
Y-28594D01*
X108602Y-28483D01*
X108658Y-28372D01*
X108741Y-28205D01*
X108880Y-28066D01*
X109019Y-27928D01*
X109213Y-27844D01*
X109463Y-27817D01*
X109574D01*
X109713Y-27844D01*
D02*
G37*
G36*
X100773Y-27817D02*
X100995Y-27928D01*
X101134Y-27983D01*
X101245Y-28094D01*
X101273D01*
X101301Y-28150D01*
X101412Y-28289D01*
X101495Y-28511D01*
X101551Y-28622D01*
Y-28760D01*
Y-28788D01*
Y-28816D01*
X101523Y-28955D01*
X101440Y-29177D01*
X101273Y-29399D01*
X101217Y-29455D01*
X101079Y-29538D01*
X100857Y-29649D01*
X100718Y-29677D01*
X100551Y-29704D01*
X96970D01*
X96776Y-29732D01*
X96553Y-29788D01*
X96276Y-29871D01*
X95998Y-30010D01*
X95693Y-30176D01*
X95415Y-30426D01*
X95387Y-30454D01*
X95304Y-30537D01*
X95193Y-30704D01*
X95054Y-30898D01*
X94916Y-31148D01*
X94804Y-31453D01*
X94721Y-31787D01*
X94693Y-32175D01*
Y-43141D01*
Y-43197D01*
Y-43308D01*
X94721Y-43502D01*
X94777Y-43752D01*
X94860Y-44030D01*
X94999Y-44307D01*
X95165Y-44613D01*
X95415Y-44890D01*
X95443Y-44918D01*
X95554Y-45001D01*
X95693Y-45112D01*
X95915Y-45223D01*
X96165Y-45362D01*
X96442Y-45473D01*
X96776Y-45557D01*
X97136Y-45584D01*
X100607D01*
X100773Y-45612D01*
X100995Y-45723D01*
X101134Y-45779D01*
X101245Y-45890D01*
X101273D01*
X101301Y-45945D01*
X101412Y-46084D01*
X101495Y-46306D01*
X101551Y-46417D01*
Y-46556D01*
Y-46584D01*
Y-46612D01*
X101523Y-46750D01*
X101440Y-46972D01*
X101273Y-47195D01*
X101217Y-47250D01*
X101079Y-47333D01*
X100857Y-47445D01*
X100718Y-47472D01*
X100551Y-47500D01*
X96970D01*
X96859Y-47472D01*
X96692D01*
X96526Y-47445D01*
X96109Y-47333D01*
X95637Y-47195D01*
X95110Y-46972D01*
X94610Y-46667D01*
X94333Y-46473D01*
X94083Y-46251D01*
X94055Y-46223D01*
X94027Y-46195D01*
X93972Y-46112D01*
X93888Y-46029D01*
X93666Y-45751D01*
X93416Y-45390D01*
X93166Y-44918D01*
X92972Y-44391D01*
X92806Y-43808D01*
X92778Y-43474D01*
X92750Y-43141D01*
Y-32175D01*
Y-32148D01*
Y-32092D01*
Y-32009D01*
X92778Y-31870D01*
Y-31731D01*
X92806Y-31565D01*
X92917Y-31148D01*
X93055Y-30648D01*
X93278Y-30149D01*
X93583Y-29621D01*
X93777Y-29371D01*
X93999Y-29121D01*
X94027Y-29094D01*
X94055Y-29066D01*
X94138Y-29010D01*
X94221Y-28899D01*
X94499Y-28705D01*
X94860Y-28455D01*
X95332Y-28205D01*
X95859Y-27983D01*
X96470Y-27844D01*
X96803Y-27817D01*
X97136Y-27789D01*
X100607D01*
X100773Y-27817D01*
D02*
G37*
G36*
X265370Y-26567D02*
X265592Y-26650D01*
X265814Y-26816D01*
X265842D01*
X265870Y-26872D01*
X265980Y-26983D01*
X266092Y-27205D01*
X266147Y-27344D01*
Y-27510D01*
Y-45306D01*
Y-45362D01*
X266119Y-45473D01*
X266036Y-45695D01*
X265870Y-45972D01*
X265842D01*
X265814Y-46028D01*
X265647Y-46111D01*
X265397Y-46195D01*
X265092Y-46250D01*
X264648Y-46167D01*
X264287Y-45750D01*
X257902Y-30898D01*
Y-45306D01*
Y-45334D01*
Y-45389D01*
X257874Y-45556D01*
X257791Y-45778D01*
X257624Y-46000D01*
X257569Y-46028D01*
X257430Y-46111D01*
X257180Y-46222D01*
X256902Y-46250D01*
X256875D01*
X256763Y-46222D01*
X256569Y-46167D01*
X256292Y-46056D01*
X256236Y-46000D01*
X256125Y-45861D01*
X256014Y-45639D01*
X255986Y-45473D01*
X255958Y-45306D01*
Y-27510D01*
Y-27483D01*
Y-27455D01*
X255986Y-27316D01*
X256069Y-27094D01*
X256236Y-26872D01*
Y-26844D01*
X256292Y-26816D01*
X256430Y-26705D01*
X256625Y-26594D01*
X256763Y-26539D01*
X256958D01*
X257069Y-26567D01*
X257208Y-26594D01*
X257402Y-26678D01*
X257458Y-26705D01*
X257485Y-26733D01*
X257541Y-26816D01*
X257624Y-26900D01*
X257680Y-27039D01*
X257763Y-27205D01*
X257818Y-27427D01*
X264204Y-41891D01*
Y-27510D01*
Y-27483D01*
Y-27455D01*
X264231Y-27316D01*
X264315Y-27094D01*
X264481Y-26872D01*
Y-26844D01*
X264537Y-26816D01*
X264676Y-26705D01*
X264870Y-26594D01*
X265009Y-26539D01*
X265203D01*
X265370Y-26567D01*
D02*
G37*
G36*
X248213Y-26594D02*
X248351Y-26678D01*
X248518Y-26761D01*
X248657Y-26900D01*
X248796Y-27094D01*
X248907Y-27372D01*
X253710Y-45084D01*
X253737Y-45306D01*
Y-45334D01*
Y-45362D01*
X253710Y-45528D01*
X253599Y-45750D01*
X253543Y-45861D01*
X253432Y-46000D01*
X253377Y-46028D01*
X253238Y-46111D01*
X253016Y-46222D01*
X252738Y-46250D01*
X252682D01*
X252544Y-46222D01*
X252377Y-46167D01*
X252183Y-46083D01*
X252155Y-46056D01*
X252044Y-45972D01*
X251933Y-45834D01*
X251850Y-45639D01*
X250545Y-40781D01*
X245409D01*
X244132Y-45473D01*
Y-45500D01*
Y-45528D01*
X244076Y-45695D01*
X243965Y-45889D01*
X243799Y-46056D01*
X243743Y-46083D01*
X243632Y-46139D01*
X243438Y-46222D01*
X243188Y-46250D01*
X243132D01*
X242966Y-46222D01*
X242744Y-46139D01*
X242494Y-46000D01*
X242438Y-45945D01*
X242355Y-45806D01*
X242272Y-45556D01*
X242216Y-45251D01*
X242244Y-45084D01*
X247047Y-27372D01*
Y-27344D01*
X247102Y-27233D01*
X247158Y-27122D01*
X247241Y-26955D01*
X247380Y-26816D01*
X247519Y-26678D01*
X247713Y-26594D01*
X247963Y-26567D01*
X248074D01*
X248213Y-26594D01*
D02*
G37*
G36*
X239273Y-26567D02*
X239495Y-26678D01*
X239634Y-26733D01*
X239745Y-26844D01*
X239773D01*
X239801Y-26900D01*
X239912Y-27039D01*
X239995Y-27261D01*
X240051Y-27372D01*
Y-27510D01*
Y-27538D01*
Y-27566D01*
X240023Y-27705D01*
X239940Y-27927D01*
X239773Y-28149D01*
X239718Y-28205D01*
X239579Y-28288D01*
X239357Y-28399D01*
X239218Y-28427D01*
X239051Y-28454D01*
X235470D01*
X235275Y-28482D01*
X235053Y-28538D01*
X234776Y-28621D01*
X234498Y-28760D01*
X234193Y-28926D01*
X233915Y-29176D01*
X233887Y-29204D01*
X233804Y-29287D01*
X233693Y-29454D01*
X233554Y-29648D01*
X233416Y-29898D01*
X233304Y-30203D01*
X233221Y-30537D01*
X233193Y-30925D01*
Y-41891D01*
Y-41947D01*
Y-42058D01*
X233221Y-42252D01*
X233277Y-42502D01*
X233360Y-42780D01*
X233499Y-43057D01*
X233665Y-43363D01*
X233915Y-43640D01*
X233943Y-43668D01*
X234054Y-43751D01*
X234193Y-43862D01*
X234415Y-43973D01*
X234665Y-44112D01*
X234942Y-44223D01*
X235275Y-44307D01*
X235636Y-44334D01*
X239107D01*
X239273Y-44362D01*
X239495Y-44473D01*
X239634Y-44529D01*
X239745Y-44640D01*
X239773D01*
X239801Y-44695D01*
X239912Y-44834D01*
X239995Y-45056D01*
X240051Y-45167D01*
Y-45306D01*
Y-45334D01*
Y-45362D01*
X240023Y-45500D01*
X239940Y-45722D01*
X239773Y-45945D01*
X239718Y-46000D01*
X239579Y-46083D01*
X239357Y-46195D01*
X239218Y-46222D01*
X239051Y-46250D01*
X235470D01*
X235359Y-46222D01*
X235192D01*
X235026Y-46195D01*
X234609Y-46083D01*
X234137Y-45945D01*
X233610Y-45722D01*
X233110Y-45417D01*
X232833Y-45223D01*
X232583Y-45001D01*
X232555Y-44973D01*
X232527Y-44945D01*
X232472Y-44862D01*
X232388Y-44779D01*
X232166Y-44501D01*
X231916Y-44140D01*
X231666Y-43668D01*
X231472Y-43141D01*
X231306Y-42558D01*
X231278Y-42224D01*
X231250Y-41891D01*
Y-30925D01*
Y-30898D01*
Y-30842D01*
Y-30759D01*
X231278Y-30620D01*
Y-30481D01*
X231306Y-30315D01*
X231417Y-29898D01*
X231555Y-29398D01*
X231777Y-28899D01*
X232083Y-28371D01*
X232277Y-28121D01*
X232499Y-27871D01*
X232527Y-27844D01*
X232555Y-27816D01*
X232638Y-27760D01*
X232721Y-27649D01*
X232999Y-27455D01*
X233360Y-27205D01*
X233832Y-26955D01*
X234359Y-26733D01*
X234970Y-26594D01*
X235303Y-26567D01*
X235636Y-26539D01*
X239107D01*
X239273Y-26567D01*
D02*
G37*
G36*
X353249Y214652D02*
X353666Y214467D01*
X353943Y214374D01*
X354221Y214189D01*
X354267Y214143D01*
X354360Y214097D01*
X354499Y213958D01*
X354637Y213773D01*
X354776Y213541D01*
X354915Y213263D01*
X355008Y212893D01*
X355054Y212523D01*
Y212384D01*
X355008Y212199D01*
X354961Y212014D01*
X354869Y211783D01*
X354776Y211505D01*
X354591Y211273D01*
X354360Y210996D01*
X354314Y210950D01*
X354267Y210903D01*
X354128Y210765D01*
X353943Y210626D01*
X353480Y210394D01*
X353203Y210348D01*
X352879Y210302D01*
X352832D01*
X352740D01*
X352601Y210348D01*
X352416Y210394D01*
X351953Y210533D01*
X351722Y210718D01*
X351444Y210903D01*
X351398Y210950D01*
X351352Y210996D01*
X351213Y211135D01*
X351120Y211320D01*
X350981Y211551D01*
X350843Y211829D01*
X350796Y212153D01*
X350750Y212523D01*
Y212708D01*
X350796Y212893D01*
X350843Y213078D01*
X350981Y213634D01*
X351120Y213865D01*
X351305Y214097D01*
X351352Y214143D01*
X351444Y214189D01*
X351583Y214282D01*
X351768Y214374D01*
X352277Y214606D01*
X352555Y214652D01*
X352879Y214698D01*
X352925D01*
X352971D01*
X353249Y214652D01*
D02*
G37*
G36*
X53649Y251554D02*
X53834Y251508D01*
X54297Y251369D01*
X54528Y251184D01*
X54806Y250999D01*
X54852Y250952D01*
X54898Y250906D01*
X55037Y250767D01*
X55130Y250582D01*
X55269Y250351D01*
X55407Y250073D01*
X55454Y249749D01*
X55500Y249379D01*
Y249194D01*
X55454Y249009D01*
X55407Y248824D01*
X55269Y248268D01*
X55130Y248037D01*
X54945Y247805D01*
X54898Y247759D01*
X54806Y247713D01*
X54667Y247620D01*
X54482Y247528D01*
X53973Y247296D01*
X53695Y247250D01*
X53371Y247204D01*
X53325D01*
X53279D01*
X53001Y247250D01*
X52584Y247435D01*
X52307Y247528D01*
X52029Y247713D01*
X51983Y247759D01*
X51890Y247805D01*
X51751Y247944D01*
X51613Y248129D01*
X51474Y248361D01*
X51335Y248638D01*
X51242Y249009D01*
X51196Y249379D01*
Y249518D01*
X51242Y249703D01*
X51289Y249888D01*
X51381Y250119D01*
X51474Y250397D01*
X51659Y250628D01*
X51890Y250906D01*
X51936Y250952D01*
X51983Y250999D01*
X52122Y251137D01*
X52307Y251276D01*
X52769Y251508D01*
X53047Y251554D01*
X53371Y251600D01*
X53417D01*
X53510D01*
X53649Y251554D01*
D02*
G37*
G36*
X353249Y407902D02*
X353666Y407717D01*
X353943Y407624D01*
X354221Y407439D01*
X354267Y407393D01*
X354360Y407346D01*
X354499Y407208D01*
X354637Y407023D01*
X354776Y406791D01*
X354915Y406513D01*
X355008Y406143D01*
X355054Y405773D01*
Y405634D01*
X355008Y405449D01*
X354961Y405264D01*
X354869Y405033D01*
X354776Y404755D01*
X354591Y404524D01*
X354360Y404246D01*
X354313Y404199D01*
X354267Y404153D01*
X354128Y404014D01*
X353943Y403876D01*
X353480Y403644D01*
X353203Y403598D01*
X352879Y403552D01*
X352832D01*
X352740D01*
X352601Y403598D01*
X352416Y403644D01*
X351953Y403783D01*
X351722Y403968D01*
X351444Y404153D01*
X351398Y404199D01*
X351352Y404246D01*
X351213Y404385D01*
X351120Y404570D01*
X350981Y404801D01*
X350843Y405079D01*
X350796Y405403D01*
X350750Y405773D01*
Y405958D01*
X350796Y406143D01*
X350843Y406328D01*
X350981Y406884D01*
X351120Y407115D01*
X351305Y407346D01*
X351352Y407393D01*
X351444Y407439D01*
X351583Y407532D01*
X351768Y407624D01*
X352277Y407856D01*
X352555Y407902D01*
X352879Y407948D01*
X352925D01*
X352971D01*
X353249Y407902D01*
D02*
G37*
G36*
X205850Y181151D02*
X206266Y180966D01*
X206544Y180874D01*
X206822Y180688D01*
X206868Y180642D01*
X206961Y180596D01*
X207099Y180457D01*
X207238Y180272D01*
X207377Y180040D01*
X207516Y179763D01*
X207608Y179393D01*
X207655Y179022D01*
Y178883D01*
X207608Y178698D01*
X207562Y178513D01*
X207470Y178282D01*
X207377Y178004D01*
X207192Y177773D01*
X206961Y177495D01*
X206914Y177449D01*
X206868Y177403D01*
X206729Y177264D01*
X206544Y177125D01*
X206081Y176894D01*
X205804Y176847D01*
X205480Y176801D01*
X205433D01*
X205341D01*
X205202Y176847D01*
X205017Y176894D01*
X204554Y177032D01*
X204323Y177218D01*
X204045Y177403D01*
X203999Y177449D01*
X203952Y177495D01*
X203814Y177634D01*
X203721Y177819D01*
X203582Y178050D01*
X203443Y178328D01*
X203397Y178652D01*
X203351Y179022D01*
Y179207D01*
X203397Y179393D01*
X203443Y179578D01*
X203582Y180133D01*
X203721Y180364D01*
X203906Y180596D01*
X203952Y180642D01*
X204045Y180688D01*
X204184Y180781D01*
X204369Y180874D01*
X204878Y181105D01*
X205156Y181151D01*
X205480Y181197D01*
X205526D01*
X205572D01*
X205850Y181151D01*
D02*
G37*
G36*
X211301Y-24742D02*
X211486Y-24789D01*
X211717Y-24881D01*
X211995Y-24974D01*
X212226Y-25159D01*
X212504Y-25390D01*
X212550Y-25436D01*
X212597Y-25483D01*
X212736Y-25622D01*
X212874Y-25807D01*
X213106Y-26270D01*
X213152Y-26547D01*
X213198Y-26871D01*
Y-26917D01*
Y-27010D01*
X213152Y-27149D01*
X213106Y-27334D01*
X212967Y-27797D01*
X212782Y-28028D01*
X212597Y-28306D01*
X212550Y-28352D01*
X212504Y-28398D01*
X212365Y-28537D01*
X212180Y-28630D01*
X211949Y-28769D01*
X211671Y-28907D01*
X211347Y-28954D01*
X210977Y-29000D01*
X210792D01*
X210607Y-28954D01*
X210422Y-28907D01*
X209866Y-28769D01*
X209635Y-28630D01*
X209403Y-28445D01*
X209357Y-28398D01*
X209311Y-28306D01*
X209218Y-28167D01*
X209126Y-27982D01*
X208894Y-27473D01*
X208848Y-27195D01*
X208802Y-26871D01*
Y-26825D01*
Y-26779D01*
X208848Y-26501D01*
X209033Y-26084D01*
X209126Y-25807D01*
X209311Y-25529D01*
X209357Y-25483D01*
X209403Y-25390D01*
X209542Y-25251D01*
X209727Y-25113D01*
X209959Y-24974D01*
X210236Y-24835D01*
X210607Y-24742D01*
X210977Y-24696D01*
X211116D01*
X211301Y-24742D01*
D02*
G37*
G36*
X93551Y495508D02*
X93736Y495461D01*
X93967Y495369D01*
X94245Y495276D01*
X94476Y495091D01*
X94754Y494860D01*
X94800Y494813D01*
X94847Y494767D01*
X94986Y494628D01*
X95124Y494443D01*
X95356Y493980D01*
X95402Y493703D01*
X95448Y493379D01*
Y493332D01*
Y493240D01*
X95402Y493101D01*
X95356Y492916D01*
X95217Y492453D01*
X95032Y492222D01*
X94847Y491944D01*
X94800Y491898D01*
X94754Y491852D01*
X94615Y491713D01*
X94430Y491620D01*
X94199Y491481D01*
X93921Y491343D01*
X93597Y491296D01*
X93227Y491250D01*
X93042D01*
X92857Y491296D01*
X92672Y491343D01*
X92116Y491481D01*
X91885Y491620D01*
X91653Y491805D01*
X91607Y491852D01*
X91561Y491944D01*
X91468Y492083D01*
X91376Y492268D01*
X91144Y492777D01*
X91098Y493055D01*
X91052Y493379D01*
Y493425D01*
Y493471D01*
X91098Y493749D01*
X91283Y494166D01*
X91376Y494443D01*
X91561Y494721D01*
X91607Y494767D01*
X91653Y494860D01*
X91792Y494999D01*
X91977Y495137D01*
X92209Y495276D01*
X92486Y495415D01*
X92857Y495508D01*
X93227Y495554D01*
X93366D01*
X93551Y495508D01*
D02*
G37*
G36*
X73801Y-24742D02*
X73986Y-24789D01*
X74217Y-24881D01*
X74495Y-24974D01*
X74726Y-25159D01*
X75004Y-25390D01*
X75050Y-25436D01*
X75097Y-25483D01*
X75236Y-25622D01*
X75374Y-25807D01*
X75606Y-26270D01*
X75652Y-26547D01*
X75698Y-26871D01*
Y-26917D01*
Y-27010D01*
X75652Y-27149D01*
X75606Y-27334D01*
X75467Y-27797D01*
X75282Y-28028D01*
X75097Y-28306D01*
X75050Y-28352D01*
X75004Y-28398D01*
X74865Y-28537D01*
X74680Y-28630D01*
X74449Y-28769D01*
X74171Y-28907D01*
X73847Y-28954D01*
X73477Y-29000D01*
X73292D01*
X73107Y-28954D01*
X72922Y-28907D01*
X72366Y-28769D01*
X72135Y-28630D01*
X71903Y-28445D01*
X71857Y-28398D01*
X71811Y-28306D01*
X71718Y-28167D01*
X71626Y-27982D01*
X71394Y-27473D01*
X71348Y-27195D01*
X71302Y-26871D01*
Y-26825D01*
Y-26779D01*
X71348Y-26501D01*
X71533Y-26084D01*
X71626Y-25807D01*
X71811Y-25529D01*
X71857Y-25483D01*
X71903Y-25390D01*
X72042Y-25251D01*
X72227Y-25113D01*
X72459Y-24974D01*
X72736Y-24835D01*
X73107Y-24742D01*
X73477Y-24696D01*
X73616D01*
X73801Y-24742D01*
D02*
G37*
%LPC*%
G36*
X-7582Y381945D02*
X-7748D01*
X-17076D01*
Y378003D01*
X-17049Y377920D01*
Y377836D01*
X-16938Y377587D01*
X-16854Y377448D01*
X-16743Y377337D01*
X-16688Y377281D01*
X-16521Y377198D01*
X-16299Y377087D01*
X-16133Y377059D01*
X-15966Y377031D01*
X-7748D01*
X-7721D01*
X-7665D01*
X-7582Y377059D01*
X-7471D01*
X-7221Y377170D01*
X-7082Y377226D01*
X-6971Y377337D01*
Y377365D01*
X-6916Y377392D01*
X-6832Y377559D01*
X-6721Y377781D01*
X-6693Y377920D01*
X-6666Y378086D01*
Y380918D01*
X-6693Y381001D01*
Y381112D01*
X-6804Y381362D01*
X-6860Y381501D01*
X-6971Y381612D01*
X-6999Y381640D01*
X-7027Y381668D01*
X-7193Y381779D01*
X-7415Y381890D01*
X-7582Y381945D01*
D02*
G37*
G36*
X-12829Y351851D02*
X-15966D01*
X-15994D01*
X-16049D01*
X-16133Y351823D01*
X-16244D01*
X-16493Y351712D01*
X-16604Y351629D01*
X-16743Y351518D01*
X-16771Y351490D01*
X-16799Y351462D01*
X-16910Y351296D01*
X-17021Y351046D01*
X-17076Y350907D01*
Y347909D01*
X-17049Y347826D01*
Y347742D01*
X-16938Y347492D01*
X-16854Y347354D01*
X-16743Y347243D01*
X-16688Y347187D01*
X-16521Y347104D01*
X-16299Y346993D01*
X-16133Y346965D01*
X-15966Y346937D01*
X-12829D01*
Y351851D01*
D02*
G37*
G36*
X-6666Y340857D02*
X-17076D01*
Y336943D01*
X-17049Y336860D01*
Y336776D01*
X-16938Y336499D01*
X-16854Y336387D01*
X-16743Y336249D01*
X-16716D01*
X-16688Y336193D01*
X-16521Y336110D01*
X-16271Y335999D01*
X-16133Y335971D01*
X-15966Y335943D01*
X-7748D01*
X-7721D01*
X-7665D01*
X-7582Y335971D01*
X-7471D01*
X-7221Y336082D01*
X-7082Y336138D01*
X-6971Y336249D01*
Y336277D01*
X-6916Y336304D01*
X-6832Y336471D01*
X-6721Y336693D01*
X-6693Y336860D01*
X-6666Y337026D01*
Y340857D01*
D02*
G37*
G36*
X24168Y388336D02*
X24002D01*
X15784D01*
X15756D01*
X15701D01*
X15618Y388308D01*
X15506D01*
X15257Y388197D01*
X15145Y388114D01*
X15007Y388003D01*
X14979Y387975D01*
X14951Y387947D01*
X14840Y387780D01*
X14729Y387531D01*
X14674Y387392D01*
Y384393D01*
X14701Y384310D01*
Y384227D01*
X14812Y383977D01*
X14896Y383838D01*
X15007Y383727D01*
X15062Y383672D01*
X15229Y383588D01*
X15451Y383477D01*
X15618Y383450D01*
X15784Y383422D01*
X24002D01*
X24029D01*
X24085D01*
X24168Y383450D01*
X24279D01*
X24529Y383561D01*
X24668Y383616D01*
X24779Y383727D01*
Y383755D01*
X24834Y383783D01*
X24918Y383949D01*
X25029Y384171D01*
X25057Y384310D01*
X25084Y384477D01*
Y387309D01*
X25057Y387392D01*
Y387503D01*
X24946Y387753D01*
X24890Y387892D01*
X24779Y388003D01*
X24751Y388030D01*
X24723Y388058D01*
X24557Y388169D01*
X24335Y388280D01*
X24168Y388336D01*
D02*
G37*
G36*
Y349857D02*
X24002D01*
X15784D01*
X15756D01*
X15701D01*
X15618Y349829D01*
X15506D01*
X15257Y349719D01*
X15145Y349635D01*
X15007Y349524D01*
X14979Y349496D01*
X14951Y349469D01*
X14840Y349302D01*
X14729Y349052D01*
X14674Y348913D01*
Y344943D01*
X25084D01*
Y348830D01*
X25057Y348913D01*
Y349024D01*
X24946Y349274D01*
X24890Y349385D01*
X24779Y349524D01*
X24751Y349552D01*
X24723Y349580D01*
X24557Y349691D01*
X24307Y349802D01*
X24168Y349857D01*
D02*
G37*
G36*
X169596Y508546D02*
X165793D01*
Y492666D01*
X169763D01*
X169957Y492693D01*
X170179Y492749D01*
X170457Y492832D01*
X170762Y492971D01*
X171068Y493138D01*
X171345Y493360D01*
X171373Y493387D01*
X171456Y493498D01*
X171595Y493637D01*
X171734Y493832D01*
X171845Y494081D01*
X171984Y494387D01*
X172067Y494720D01*
X172095Y495109D01*
Y506075D01*
Y506130D01*
Y506241D01*
X172067Y506436D01*
X172012Y506658D01*
X171901Y506935D01*
X171789Y507213D01*
X171595Y507518D01*
X171345Y507796D01*
X171318Y507824D01*
X171206Y507907D01*
X171068Y508046D01*
X170846Y508185D01*
X170596Y508296D01*
X170290Y508434D01*
X169957Y508518D01*
X169596Y508546D01*
D02*
G37*
G36*
X365891Y314995D02*
X363143D01*
X363087D01*
X362976D01*
X362810Y314968D01*
X362588Y314912D01*
X362310Y314801D01*
X362032Y314662D01*
X361727Y314468D01*
X361449Y314218D01*
X361422Y314190D01*
X361338Y314079D01*
X361199Y313940D01*
X361061Y313718D01*
X360950Y313468D01*
X360811Y313163D01*
X360728Y312858D01*
X360700Y312497D01*
Y308693D01*
X368334D01*
Y312663D01*
X368307Y312858D01*
X368251Y313080D01*
X368168Y313357D01*
X368029Y313663D01*
X367863Y313968D01*
X367640Y314246D01*
X367613Y314274D01*
X367502Y314357D01*
X367363Y314496D01*
X367168Y314634D01*
X366918Y314746D01*
X366613Y314884D01*
X366280Y314968D01*
X365891Y314995D01*
D02*
G37*
G36*
X356313Y314301D02*
X354925D01*
X354870D01*
X354759D01*
X354564Y314274D01*
X354342Y314218D01*
X354065Y314135D01*
X353787Y313996D01*
X353482Y313829D01*
X353204Y313580D01*
X353176Y313552D01*
X353093Y313441D01*
X352954Y313302D01*
X352815Y313080D01*
X352704Y312830D01*
X352565Y312525D01*
X352482Y312191D01*
X352454Y311803D01*
Y308693D01*
X358784D01*
Y311969D01*
X358756Y312164D01*
X358701Y312414D01*
X358618Y312691D01*
X358479Y312969D01*
X358312Y313274D01*
X358062Y313552D01*
X358035Y313580D01*
X357924Y313663D01*
X357785Y313802D01*
X357563Y313940D01*
X357313Y314051D01*
X357007Y314190D01*
X356674Y314274D01*
X356313Y314301D01*
D02*
G37*
G36*
X365141Y123745D02*
X362393D01*
X362337D01*
X362226D01*
X362060Y123718D01*
X361838Y123662D01*
X361560Y123551D01*
X361282Y123412D01*
X360977Y123218D01*
X360699Y122968D01*
X360672Y122940D01*
X360588Y122829D01*
X360449Y122690D01*
X360311Y122468D01*
X360200Y122219D01*
X360061Y121913D01*
X359978Y121608D01*
X359950Y121247D01*
Y117443D01*
X367584D01*
Y121413D01*
X367557Y121608D01*
X367501Y121830D01*
X367418Y122107D01*
X367279Y122413D01*
X367112Y122718D01*
X366890Y122996D01*
X366863Y123024D01*
X366752Y123107D01*
X366613Y123246D01*
X366418Y123385D01*
X366169Y123496D01*
X365863Y123634D01*
X365530Y123718D01*
X365141Y123745D01*
D02*
G37*
G36*
X355563Y123051D02*
X354175D01*
X354120D01*
X354009D01*
X353814Y123024D01*
X353592Y122968D01*
X353315Y122885D01*
X353037Y122746D01*
X352732Y122579D01*
X352454Y122330D01*
X352426Y122302D01*
X352343Y122191D01*
X352204Y122052D01*
X352065Y121830D01*
X351954Y121580D01*
X351815Y121274D01*
X351732Y120941D01*
X351704Y120553D01*
Y117443D01*
X358034D01*
Y120719D01*
X358006Y120914D01*
X357951Y121164D01*
X357868Y121441D01*
X357729Y121719D01*
X357562Y122024D01*
X357312Y122302D01*
X357285Y122330D01*
X357174Y122413D01*
X357035Y122552D01*
X356813Y122690D01*
X356563Y122802D01*
X356257Y122940D01*
X355924Y123024D01*
X355563Y123051D01*
D02*
G37*
G36*
X109491Y-31620D02*
X107353Y-40087D01*
X111601D01*
X109491Y-31620D01*
D02*
G37*
G36*
X247991Y-30370D02*
X245853Y-38837D01*
X250100D01*
X247991Y-30370D01*
D02*
G37*
%LPD*%
D10*
X64000Y181500D02*
G03*
X64000Y160500I23375J-10500D01*
G01*
X95500D02*
G03*
X95500Y181500I-23375J10500D01*
G01*
X230500Y278500D02*
G03*
X214500Y278500I-8000J-11550D01*
G01*
Y251500D02*
G03*
X230500Y251500I8000J11550D01*
G01*
X67000Y157500D02*
G03*
X67000Y141500I11550J-8000D01*
G01*
X94000D02*
G03*
X94000Y157500I-11550J8000D01*
G01*
X23000Y80750D02*
G03*
X39000Y80750I8000J11550D01*
G01*
Y107750D02*
G03*
X23000Y107750I-8000J-11550D01*
G01*
X18000Y314250D02*
G03*
X18000Y298250I11550J-8000D01*
G01*
X45000D02*
G03*
X45000Y314250I-11550J8000D01*
G01*
X49250Y401000D02*
G03*
X33250Y401000I-8000J-8000D01*
G01*
X68500D02*
G03*
X52500Y401000I-8000J-8000D01*
G01*
X115750Y190250D02*
G03*
X99750Y190250I-8000J-11550D01*
G01*
Y163250D02*
G03*
X115750Y163250I8000J11550D01*
G01*
X150500Y190500D02*
G03*
X134500Y190500I-8000J-11550D01*
G01*
Y163500D02*
G03*
X150500Y163500I8000J11550D01*
G01*
X133000Y190500D02*
G03*
X117000Y190500I-8000J-11550D01*
G01*
Y163500D02*
G03*
X133000Y163500I8000J11550D01*
G01*
X132000Y224750D02*
G03*
X116000Y224750I-8000J-11550D01*
G01*
Y197750D02*
G03*
X132000Y197750I8000J11550D01*
G01*
X96750Y224750D02*
G03*
X80750Y224750I-8000J-11550D01*
G01*
Y197750D02*
G03*
X96750Y197750I8000J11550D01*
G01*
X83750Y252750D02*
G03*
X83750Y268750I-11550J8000D01*
G01*
X56750D02*
G03*
X56750Y252750I11550J-8000D01*
G01*
X83750Y310500D02*
G03*
X83750Y326500I-11550J8000D01*
G01*
X56750D02*
G03*
X56750Y310500I11550J-8000D01*
G01*
X83750Y273250D02*
G03*
X83750Y289250I-11550J8000D01*
G01*
X56750D02*
G03*
X56750Y273250I11550J-8000D01*
G01*
X8750Y181750D02*
G03*
X-7250Y181750I-8000J-11550D01*
G01*
Y154750D02*
G03*
X8750Y154750I8000J11550D01*
G01*
X207000Y319000D02*
G03*
X223000Y319000I8000J11550D01*
G01*
Y346000D02*
G03*
X207000Y346000I-8000J-11550D01*
G01*
X159500Y353750D02*
G03*
X159500Y337750I11550J-8000D01*
G01*
X186500D02*
G03*
X186500Y353750I-11550J8000D01*
G01*
X159500Y371000D02*
G03*
X159500Y355000I11550J-8000D01*
G01*
X186500D02*
G03*
X186500Y371000I-11550J8000D01*
G01*
X18000Y247750D02*
G03*
X18000Y231750I11550J-8000D01*
G01*
X45000D02*
G03*
X45000Y247750I-11550J8000D01*
G01*
X214250Y120200D02*
G03*
X230250Y120200I8000J11550D01*
G01*
Y147200D02*
G03*
X214250Y147200I-8000J-11550D01*
G01*
X152750Y142000D02*
G03*
X152750Y158000I-11550J8000D01*
G01*
X125750D02*
G03*
X125750Y142000I11550J-8000D01*
G01*
X64000Y160500D02*
X95500D01*
X64000Y181500D02*
X95500D01*
X214500Y251500D02*
Y278500D01*
X230500Y251500D02*
Y278500D01*
X67000Y141500D02*
X94000D01*
X67000Y157500D02*
X94000D01*
X39000Y80750D02*
Y107750D01*
X23000Y80750D02*
Y107750D01*
X18000Y298250D02*
X45000D01*
X18000Y314250D02*
X45000D01*
X239250Y313000D02*
Y329000D01*
X271250D01*
Y313000D02*
Y329000D01*
X239250Y313000D02*
X271250D01*
X49250Y372000D02*
Y401000D01*
X33250Y372000D02*
Y399000D01*
Y372000D02*
X49250D01*
X33250Y399000D02*
Y401000D01*
Y338250D02*
X49250D01*
X33250D02*
Y370250D01*
X49250D01*
Y338250D02*
Y370250D01*
X68500Y372000D02*
Y401000D01*
X52500Y372000D02*
Y399000D01*
Y372000D02*
X68500D01*
X52500Y399000D02*
Y401000D01*
Y338250D02*
X68500D01*
X52500D02*
Y370250D01*
X68500D01*
Y338250D02*
Y370250D01*
X13250Y232250D02*
Y248250D01*
X-18750Y232250D02*
X13250D01*
X-18750D02*
Y248250D01*
X13250D01*
X111251Y227249D02*
X114502Y223998D01*
X98502Y224002D02*
X101749Y227249D01*
X111251D01*
X98502Y198498D02*
Y224002D01*
Y198498D02*
X101751Y195249D01*
X114502Y198502D02*
Y223998D01*
X111249Y195249D02*
X114502Y198502D01*
X101751Y195249D02*
X111249D01*
X99750Y163250D02*
Y190250D01*
X115750Y163250D02*
Y190250D01*
X134500Y163500D02*
Y190500D01*
X150500Y163500D02*
Y190500D01*
X117000Y163500D02*
Y190500D01*
X133000Y163500D02*
Y190500D01*
X116000Y197750D02*
Y224750D01*
X132000Y197750D02*
Y224750D01*
X-24500Y184250D02*
X-8500D01*
Y152250D02*
Y184250D01*
X-24500Y152250D02*
X-8500D01*
X-24500D02*
Y184250D01*
X80750Y197750D02*
Y224750D01*
X96750Y197750D02*
Y224750D01*
X56750Y268750D02*
X83750D01*
X56750Y252750D02*
X83750D01*
X56750Y326500D02*
X83750D01*
X56750Y310500D02*
X83750D01*
X56750Y289250D02*
X83750D01*
X56750Y273250D02*
X83750D01*
X86250Y231000D02*
Y247000D01*
X54250Y231000D02*
X86250D01*
X54250D02*
Y247000D01*
X86250D01*
X-7250Y154750D02*
Y181750D01*
X8750Y154750D02*
Y181750D01*
X223000Y319000D02*
Y346000D01*
X207000Y319000D02*
Y346000D01*
X159500Y337750D02*
X186500D01*
X159500Y353750D02*
X186500D01*
X159500Y355000D02*
X186500D01*
X159500Y371000D02*
X186500D01*
X18000Y231750D02*
X45000D01*
X18000Y247750D02*
X45000D01*
X230250Y120200D02*
Y147200D01*
X214250Y120200D02*
Y147200D01*
X214500Y82950D02*
X230500D01*
X214500D02*
Y114950D01*
X230500D01*
Y82950D02*
Y114950D01*
X125750Y158000D02*
X152750D01*
X125750Y142000D02*
X152750D01*
X202250Y67500D02*
Y83500D01*
X170250Y67500D02*
X202250D01*
X170250D02*
Y83500D01*
X202250D01*
D11*
X271350Y273750D02*
G03*
X271350Y273750I-1000J0D01*
G01*
X271100Y193500D02*
G03*
X271100Y193500I-1000J0D01*
G01*
X270100Y349750D02*
G03*
X270100Y349750I-1000J0D01*
G01*
X271100Y86000D02*
G03*
X271100Y86000I-1000J0D01*
G01*
X136000Y421350D02*
G03*
X136000Y421350I-1000J0D01*
G01*
X182000Y421850D02*
G03*
X182000Y421850I-1000J0D01*
G01*
X343750Y52250D02*
Y233000D01*
X291750Y52250D02*
X343750D01*
X291750D02*
Y233000D01*
X343750D01*
X44000Y80500D02*
Y106500D01*
X108000Y80500D02*
Y106500D01*
X44000Y80500D02*
X108000D01*
X44000Y106500D02*
X108000D01*
X153000Y65000D02*
Y128000D01*
X118000Y65000D02*
Y128000D01*
X118500D01*
X152500D02*
X153000D01*
X118000Y88500D02*
X153000D01*
X118000Y65000D02*
X118500D01*
X152500D02*
X153000D01*
X19250Y57750D02*
Y120750D01*
X-15750Y57750D02*
Y120750D01*
X-15250D01*
X18750D02*
X19250D01*
X-15750Y81250D02*
X19250D01*
X-15750Y57750D02*
X-15250D01*
X18750D02*
X19250D01*
X15500Y295000D02*
X47500D01*
X15500Y251000D02*
X47500D01*
X41250Y223500D02*
X45250D01*
Y215500D02*
Y223500D01*
X41250Y193500D02*
X45250D01*
Y201500D01*
X1500Y223000D02*
X5500D01*
Y215000D02*
Y223000D01*
X1500Y193000D02*
X5500D01*
Y201000D01*
X343750Y245500D02*
Y426250D01*
X291750Y245500D02*
X343750D01*
X291750D02*
Y426250D01*
X343750D01*
X312000Y-22000D02*
Y37500D01*
X185000Y-22000D02*
X312000D01*
X185000D02*
Y37500D01*
X312000D01*
X72750Y484250D02*
X253500D01*
Y432250D02*
Y484250D01*
X72750Y432250D02*
X253500D01*
X72750D02*
Y484250D01*
X174500Y-22000D02*
Y37500D01*
X47500Y-22000D02*
X174500D01*
X47500D02*
Y37500D01*
X174500D01*
D12*
X110750Y122500D02*
G03*
X110750Y122500I-1250J0D01*
G01*
X119250Y58500D02*
G03*
X119250Y58500I-1250J0D01*
G01*
X-14500Y51250D02*
G03*
X-14500Y51250I-1250J0D01*
G01*
X29500Y226500D02*
G03*
X29500Y226500I-1250J0D01*
G01*
X-10250Y226000D02*
G03*
X-10250Y226000I-1250J0D01*
G01*
D13*
X108000Y247951D02*
X113360D01*
X108000D02*
Y253311D01*
Y317951D02*
X113360D01*
X108000Y312591D02*
Y317951D01*
X172640D02*
X178000D01*
Y312591D02*
Y317951D01*
X172640Y247951D02*
X178000D01*
Y253311D01*
D14*
X243700Y267050D02*
X261300D01*
X243700D02*
X261300D01*
X243700Y304450D02*
X261300D01*
X243450Y186800D02*
X261050D01*
X243450D02*
X261050D01*
X243450Y224200D02*
X261050D01*
X242450Y343050D02*
X260050D01*
X242450D02*
X260050D01*
X242450Y380450D02*
X260050D01*
X243450Y79300D02*
X261050D01*
X243450D02*
X261050D01*
X243450Y116700D02*
X261050D01*
X161001Y117499D02*
Y156499D01*
X211501Y117499D02*
Y156499D01*
X141700Y394700D02*
Y412300D01*
Y394700D02*
Y412300D01*
X104300Y394700D02*
Y412300D01*
X187700Y395200D02*
Y412800D01*
Y395200D02*
Y412800D01*
X150300Y395200D02*
Y412800D01*
D15*
X-21500Y322500D02*
X-5500D01*
X-21500Y257500D02*
Y322500D01*
Y257500D02*
X-20500Y256500D01*
X-5500Y258500D02*
Y322500D01*
X-7500Y256500D02*
X-5500Y258500D01*
X-20500Y256500D02*
X-7500D01*
D16*
X28000Y147001D02*
X45250D01*
X28000Y181000D02*
X45250D01*
M02*
