M48
;Layer_Color=9474304
;FILE_FORMAT=4:4
METRIC,LZ
;TYPE=PLATED
T1F00S00C0.3000
T2F00S00C0.6000
T3F00S00C0.7000
T4F00S00C1.0000
;TYPE=NON_PLATED
%
T01
X0021525Y-000465
X00225Y-00018
X00269Y-0002225
X00274292Y-00046125
X0018325Y-00039
X0014575Y-000405
X00086Y-000375
X000505Y-0004425
X0004075Y-0000475
X0005075Y00045
X000295Y000705
X0000825Y00091
X-0002125Y0009175
X-00016Y0014025
X0000575
X0001625Y00164
X000409Y0016425
X0006075Y00141
X00031Y0012525
X0006675Y0009325
X0009975Y00096
X00113745Y00112478
X00116Y001415
X0010675Y001495
X001545Y0016325
X001575Y0018525
X001745Y0017775
X00183Y001365
X0016475Y0013425
X00164523Y00091302
X0016Y000755
X00163Y0004
X001805Y00036
X0018025Y0001525
X0016575Y0001275
X001215Y0002075
X0008575Y0002125
X00112Y0005
X0011125Y0007625
X001355Y000965
X0014325Y0020125
X00147667Y00268951
X00138333
X00129
Y00278284
Y00287618
Y00296951
X00138333
X00147667
X00157
Y00287618
X00147667
X00138333
Y00278284
X00147667
X00157
Y00268951
X001815Y00241
X0010375Y0024075
X0009175Y00244
X00075Y0025
X0005225Y0025075
X0004275Y0022725
X000615Y00226
X0007825Y002175
X00075Y00197
X0005775Y0019075
X0001425Y001885
X-000015Y00228
X0000775Y0025525
X00004Y002785
X000085Y0030175
X0001225Y0033825
X0003525Y003335
X0005825Y003295
X0006825Y00308
Y00292
X0007825Y0029175
X0005225Y0029125
X00082Y003375
X0009175Y0033475
X00105Y0033025
X00104Y00366
X00089Y003615
X000765Y0034725
X00075Y003825
X000985Y00381
X000935Y004
X001455Y0040325
X00143Y00366
X001485Y00348
X00196Y0034275
X0019675Y00363
X0019875Y00375
X0019175Y004035
X00189Y003215
X-00019Y0033275
X-0001475Y0038475
X00015
X-000125Y00035
X0020575Y000335
X002105Y000555
X00207307Y00078554
X002395Y0007125
X00239935Y00047006
X0028875Y0004325
X0027125Y000165
X0032425Y0003375
X00367Y0003125
X003555Y000725
X0036725Y001025
X0035575Y0015925
X00369Y001965
X00365Y00243
X00331357Y00239198
X00291Y00238
X00272Y0021825
X002325Y00224
X0023075Y00204
X00246368Y00181368
X00261Y00179
X002615Y0016575
X0028775Y0018325
X0023749Y0014499
X00236Y0012525
X0025325Y00126
X00272Y0011
X00274061Y0010227
X0027525Y00094
X0020275Y0013675
X0021625Y00157
X0020375Y00218
X0020875Y0026825
X002255Y0028225
X002365Y002625
X002445Y002525
X0025725Y0025775
X0027775Y0027325
X002775Y0028175
X0027725Y0029075
X0027675Y0033125
X002701Y0034975
X00271Y0035825
X002745Y003705
X00273407Y00378425
X0026075Y003865
X0024275Y0038625
X00229Y00375
X0021125Y0037525
X0020725Y003865
X002155Y0035475
X00226179Y00328821
X00251243Y00331257
X00369Y0029675
X0036475Y0037325
X003635Y00429
X002985Y00459
X00311Y004905
X0028725Y0050125
X00251Y0050275
X0025625Y004635
X0025275Y0042225
X0028375Y00413
X0021025Y0041475
X0014725Y0042625
X00096Y004185
X0005075Y0041225
X000235Y0043725
X-00018Y00432
X00055Y0046825
X00079045Y00506943
X00128283Y00506453
X001975Y0050625
T02
X-000135Y002641
X-000145Y002768
X-000135Y002895
X-000145Y003022
X-000135Y003149
T03
X0030775Y000725
Y000925
Y001125
Y001325
Y001525
Y001725
Y001925
Y002125
X0032775
Y001925
Y001725
Y001525
Y001325
Y001125
Y000925
Y000725
Y0026575
Y0028575
Y0030575
Y0032575
Y0034575
Y0036575
Y0038575
X0030775
Y0036575
Y0034575
Y0032575
Y0030575
Y0028575
Y0026575
Y0040575
X0032775
X0023325Y0044825
X0021325
Y0046825
X0023325
X0019325
X0017325
X0015325
X0013325
X0011325
X0009325
Y0044825
X0011325
X0013325
X0015325
X0017325
X0019325
T04
X00211Y00001
X00236
X00261
X00286
X001485
X001235
X000985
X000735
M30
