G04*
G04 #@! TF.GenerationSoftware,Altium Limited,Altium Designer,21.8.1 (53)*
G04*
G04 Layer_Color=16711935*
%FSLAX44Y44*%
%MOMM*%
G71*
G04*
G04 #@! TF.SameCoordinates,996D42DF-EE5A-41D5-9054-6BF74EEE028F*
G04*
G04*
G04 #@! TF.FilePolarity,Negative*
G04*
G01*
G75*
%ADD24R,1.1000X1.1000*%
%ADD34C,0.7000*%
%ADD35C,3.0000*%
%ADD36O,5.3000X7.3000*%
%ADD37C,1.3000*%
%ADD38R,1.3000X1.3000*%
%ADD39C,1.1000*%
%ADD40C,1.9000*%
%ADD41R,1.9000X1.9000*%
%ADD42R,1.3000X1.3000*%
D24*
X-13500Y264100D02*
D03*
D34*
X129000Y296951D02*
D03*
X138333D02*
D03*
X147667D02*
D03*
X157000D02*
D03*
X129000Y287618D02*
D03*
X138333D02*
D03*
X147667D02*
D03*
X157000D02*
D03*
X129000Y268951D02*
D03*
X138333D02*
D03*
X147667D02*
D03*
X157000D02*
D03*
Y278284D02*
D03*
X147667D02*
D03*
X138333D02*
D03*
X129000D02*
D03*
D35*
X307250Y-39000D02*
D03*
X51000Y499750D02*
D03*
D36*
X350000Y480000D02*
D03*
X0D02*
D03*
Y-10000D02*
D03*
X350000D02*
D03*
D37*
X307750Y192500D02*
D03*
Y212500D02*
D03*
Y152500D02*
D03*
Y172500D02*
D03*
Y132500D02*
D03*
Y112500D02*
D03*
Y92500D02*
D03*
Y72500D02*
D03*
X327750D02*
D03*
Y92500D02*
D03*
Y112500D02*
D03*
Y132500D02*
D03*
Y152500D02*
D03*
Y172500D02*
D03*
Y192500D02*
D03*
X307750Y385750D02*
D03*
Y405750D02*
D03*
Y345750D02*
D03*
Y365750D02*
D03*
Y325750D02*
D03*
Y305750D02*
D03*
Y285750D02*
D03*
Y265750D02*
D03*
X327750D02*
D03*
Y285750D02*
D03*
Y305750D02*
D03*
Y325750D02*
D03*
Y345750D02*
D03*
Y365750D02*
D03*
Y385750D02*
D03*
X113250Y448250D02*
D03*
X93250D02*
D03*
X153250D02*
D03*
X133250D02*
D03*
X173250D02*
D03*
X193250D02*
D03*
X213250D02*
D03*
X233250D02*
D03*
Y468250D02*
D03*
X213250D02*
D03*
X193250D02*
D03*
X173250D02*
D03*
X153250D02*
D03*
X133250D02*
D03*
X113250D02*
D03*
D38*
X327750Y212500D02*
D03*
Y405750D02*
D03*
D39*
X-13500Y289500D02*
D03*
X-14500Y302200D02*
D03*
Y276800D02*
D03*
X-13500Y314900D02*
D03*
D40*
X261000Y1000D02*
D03*
X236000D02*
D03*
X286000D02*
D03*
X123500D02*
D03*
X98500D02*
D03*
X148500D02*
D03*
D41*
X211000D02*
D03*
X73500D02*
D03*
D42*
X93250Y468250D02*
D03*
M02*
