G04*
G04 #@! TF.GenerationSoftware,Altium Limited,Altium Designer,21.8.1 (53)*
G04*
G04 Layer_Physical_Order=2*
G04 Layer_Color=16711680*
%FSLAX44Y44*%
%MOMM*%
G71*
G04*
G04 #@! TF.SameCoordinates,996D42DF-EE5A-41D5-9054-6BF74EEE028F*
G04*
G04*
G04 #@! TF.FilePolarity,Positive*
G04*
G01*
G75*
%ADD11C,0.2000*%
%ADD50R,1.0000X1.0000*%
%ADD59C,0.5000*%
%ADD62C,0.6000*%
%ADD63C,1.0000*%
%ADD64O,5.2000X7.2000*%
%ADD65C,1.2000*%
%ADD66R,1.2000X1.2000*%
%ADD67C,1.8000*%
%ADD68R,1.8000X1.8000*%
%ADD69R,1.2000X1.2000*%
G36*
X338808Y515671D02*
X337249Y515025D01*
X333491Y512723D01*
X330140Y509860D01*
X327277Y506509D01*
X324975Y502751D01*
X323288Y498679D01*
X322259Y494394D01*
X321913Y490000D01*
Y470000D01*
X322259Y465606D01*
X323288Y461321D01*
X324975Y457249D01*
X327277Y453491D01*
X330140Y450140D01*
X333491Y447277D01*
X337249Y444975D01*
X341321Y443288D01*
X345606Y442259D01*
X350000Y441913D01*
X354394Y442259D01*
X358679Y443288D01*
X362751Y444975D01*
X366509Y447277D01*
X369860Y450140D01*
X372723Y453491D01*
X375025Y457249D01*
X375671Y458808D01*
X376941Y458556D01*
Y11444D01*
X375671Y11192D01*
X375025Y12751D01*
X372723Y16509D01*
X369860Y19860D01*
X366509Y22722D01*
X362751Y25025D01*
X358679Y26712D01*
X354394Y27741D01*
X350000Y28087D01*
X345606Y27741D01*
X341321Y26712D01*
X337249Y25025D01*
X333491Y22722D01*
X330140Y19860D01*
X327277Y16509D01*
X324975Y12751D01*
X323288Y8679D01*
X322259Y4394D01*
X321913Y0D01*
Y-20000D01*
X322259Y-24394D01*
X323288Y-28679D01*
X324975Y-32751D01*
X327277Y-36509D01*
X330140Y-39860D01*
X333491Y-42723D01*
X337249Y-45025D01*
X341321Y-46712D01*
X345606Y-47741D01*
X350000Y-48087D01*
X354394Y-47741D01*
X358679Y-46712D01*
X362751Y-45025D01*
X366509Y-42723D01*
X369860Y-39860D01*
X372723Y-36509D01*
X375025Y-32751D01*
X375671Y-31192D01*
X376941Y-31444D01*
Y-33738D01*
X376941Y-35000D01*
X376834Y-36226D01*
X376629Y-38308D01*
X375664Y-41488D01*
X374097Y-44419D01*
X371989Y-46989D01*
X369420Y-49097D01*
X366488Y-50664D01*
X363308Y-51629D01*
X360045Y-51950D01*
X360000Y-51941D01*
X317069D01*
X316700Y-50726D01*
X316812Y-50651D01*
X318901Y-48562D01*
X320543Y-46105D01*
X321674Y-43375D01*
X322250Y-40477D01*
Y-37523D01*
X321674Y-34625D01*
X320543Y-31895D01*
X318901Y-29438D01*
X316812Y-27349D01*
X314355Y-25707D01*
X311625Y-24576D01*
X308727Y-24000D01*
X305773D01*
X302875Y-24576D01*
X300145Y-25707D01*
X297688Y-27349D01*
X295599Y-29438D01*
X293957Y-31895D01*
X292826Y-34625D01*
X292250Y-37523D01*
Y-40477D01*
X292826Y-43375D01*
X293957Y-46105D01*
X295599Y-48562D01*
X297688Y-50651D01*
X297800Y-50726D01*
X297431Y-51941D01*
X-8735D01*
X-8752Y-51941D01*
X-10000Y-51941D01*
X-11226Y-51834D01*
X-13308Y-51629D01*
X-16488Y-50664D01*
X-19419Y-49097D01*
X-21989Y-46989D01*
X-24097Y-44419D01*
X-25664Y-41488D01*
X-26629Y-38308D01*
X-26950Y-35045D01*
X-26941Y-35000D01*
Y-31444D01*
X-25671Y-31192D01*
X-25025Y-32751D01*
X-22722Y-36509D01*
X-19860Y-39860D01*
X-16509Y-42723D01*
X-12751Y-45025D01*
X-8679Y-46712D01*
X-4394Y-47741D01*
X0Y-48087D01*
X4394Y-47741D01*
X8679Y-46712D01*
X12751Y-45025D01*
X16509Y-42723D01*
X19860Y-39860D01*
X22722Y-36509D01*
X25025Y-32751D01*
X26712Y-28679D01*
X27741Y-24394D01*
X28087Y-20000D01*
Y0D01*
X27741Y4394D01*
X26712Y8679D01*
X25025Y12751D01*
X22722Y16509D01*
X19860Y19860D01*
X16509Y22722D01*
X12751Y25025D01*
X8679Y26712D01*
X4394Y27741D01*
X0Y28087D01*
X-4394Y27741D01*
X-8679Y26712D01*
X-12751Y25025D01*
X-16509Y22722D01*
X-19860Y19860D01*
X-22722Y16509D01*
X-25025Y12751D01*
X-25671Y11192D01*
X-26941Y11444D01*
X-26941Y458556D01*
X-25671Y458808D01*
X-25025Y457249D01*
X-22722Y453491D01*
X-19860Y450140D01*
X-16509Y447277D01*
X-12751Y444975D01*
X-8679Y443288D01*
X-4394Y442259D01*
X0Y441913D01*
X4394Y442259D01*
X8679Y443288D01*
X12751Y444975D01*
X16509Y447277D01*
X19860Y450140D01*
X22722Y453491D01*
X25025Y457249D01*
X26712Y461321D01*
X27741Y465606D01*
X28087Y470000D01*
Y490000D01*
X27741Y494394D01*
X26712Y498679D01*
X25025Y502751D01*
X22722Y506509D01*
X19860Y509860D01*
X16509Y512723D01*
X12751Y515025D01*
X11192Y515671D01*
X11444Y516941D01*
X338556D01*
X338808Y515671D01*
D02*
G37*
%LPC*%
G36*
X52477Y514750D02*
X49523D01*
X46625Y514174D01*
X43895Y513043D01*
X41438Y511401D01*
X39349Y509312D01*
X37707Y506855D01*
X36576Y504125D01*
X36000Y501227D01*
Y498273D01*
X36576Y495375D01*
X37707Y492645D01*
X39349Y490188D01*
X41438Y488099D01*
X43895Y486457D01*
X46625Y485326D01*
X49523Y484750D01*
X52477D01*
X55375Y485326D01*
X58105Y486457D01*
X60562Y488099D01*
X62651Y490188D01*
X64293Y492645D01*
X65423Y495375D01*
X66000Y498273D01*
Y501227D01*
X65423Y504125D01*
X64293Y506855D01*
X62651Y509312D01*
X60562Y511401D01*
X58105Y513043D01*
X55375Y514174D01*
X52477Y514750D01*
D02*
G37*
G36*
X234750Y476130D02*
Y469750D01*
X241130D01*
X240705Y471338D01*
X239652Y473162D01*
X238162Y474652D01*
X236338Y475705D01*
X234750Y476130D01*
D02*
G37*
G36*
X231750D02*
X230162Y475705D01*
X228338Y474652D01*
X226848Y473162D01*
X225795Y471338D01*
X225370Y469750D01*
X231750D01*
Y476130D01*
D02*
G37*
G36*
X214750D02*
Y469750D01*
X221130D01*
X220705Y471338D01*
X219652Y473162D01*
X218162Y474652D01*
X216338Y475705D01*
X214750Y476130D01*
D02*
G37*
G36*
X211750D02*
X210162Y475705D01*
X208338Y474652D01*
X206848Y473162D01*
X205795Y471338D01*
X205370Y469750D01*
X211750D01*
Y476130D01*
D02*
G37*
G36*
X194750D02*
Y469750D01*
X201130D01*
X200705Y471338D01*
X199652Y473162D01*
X198162Y474652D01*
X196338Y475705D01*
X194750Y476130D01*
D02*
G37*
G36*
X191750D02*
X190162Y475705D01*
X188338Y474652D01*
X186848Y473162D01*
X185795Y471338D01*
X185370Y469750D01*
X191750D01*
Y476130D01*
D02*
G37*
G36*
X174750D02*
Y469750D01*
X181130D01*
X180705Y471338D01*
X179652Y473162D01*
X178162Y474652D01*
X176338Y475705D01*
X174750Y476130D01*
D02*
G37*
G36*
X171750D02*
X170162Y475705D01*
X168338Y474652D01*
X166848Y473162D01*
X165795Y471338D01*
X165370Y469750D01*
X171750D01*
Y476130D01*
D02*
G37*
G36*
X154750D02*
Y469750D01*
X161130D01*
X160705Y471338D01*
X159652Y473162D01*
X158162Y474652D01*
X156338Y475705D01*
X154750Y476130D01*
D02*
G37*
G36*
X151750D02*
X150162Y475705D01*
X148338Y474652D01*
X146848Y473162D01*
X145795Y471338D01*
X145370Y469750D01*
X151750D01*
Y476130D01*
D02*
G37*
G36*
X134750D02*
Y469750D01*
X141130D01*
X140705Y471338D01*
X139652Y473162D01*
X138162Y474652D01*
X136338Y475705D01*
X134750Y476130D01*
D02*
G37*
G36*
X131750D02*
X130162Y475705D01*
X128338Y474652D01*
X126848Y473162D01*
X125795Y471338D01*
X125370Y469750D01*
X131750D01*
Y476130D01*
D02*
G37*
G36*
X114750D02*
Y469750D01*
X121130D01*
X120705Y471338D01*
X119652Y473162D01*
X118162Y474652D01*
X116338Y475705D01*
X114750Y476130D01*
D02*
G37*
G36*
X111750D02*
X110162Y475705D01*
X108338Y474652D01*
X106848Y473162D01*
X105795Y471338D01*
X105370Y469750D01*
X111750D01*
Y476130D01*
D02*
G37*
G36*
X101250Y476250D02*
X94750D01*
Y469750D01*
X101250D01*
Y476250D01*
D02*
G37*
G36*
X91750D02*
X85250D01*
Y469750D01*
X91750D01*
Y476250D01*
D02*
G37*
G36*
X241130Y466750D02*
X234750D01*
Y460370D01*
X236338Y460795D01*
X238162Y461848D01*
X239652Y463338D01*
X240705Y465162D01*
X241130Y466750D01*
D02*
G37*
G36*
X231750D02*
X225370D01*
X225795Y465162D01*
X226848Y463338D01*
X228338Y461848D01*
X230162Y460795D01*
X231750Y460370D01*
Y466750D01*
D02*
G37*
G36*
X221130D02*
X214750D01*
Y460370D01*
X216338Y460795D01*
X218162Y461848D01*
X219652Y463338D01*
X220705Y465162D01*
X221130Y466750D01*
D02*
G37*
G36*
X211750D02*
X205370D01*
X205795Y465162D01*
X206848Y463338D01*
X208338Y461848D01*
X210162Y460795D01*
X211750Y460370D01*
Y466750D01*
D02*
G37*
G36*
X201130D02*
X194750D01*
Y460370D01*
X196338Y460795D01*
X198162Y461848D01*
X199652Y463338D01*
X200705Y465162D01*
X201130Y466750D01*
D02*
G37*
G36*
X191750D02*
X185370D01*
X185795Y465162D01*
X186848Y463338D01*
X188338Y461848D01*
X190162Y460795D01*
X191750Y460370D01*
Y466750D01*
D02*
G37*
G36*
X181130D02*
X174750D01*
Y460370D01*
X176338Y460795D01*
X178162Y461848D01*
X179652Y463338D01*
X180705Y465162D01*
X181130Y466750D01*
D02*
G37*
G36*
X171750D02*
X165370D01*
X165795Y465162D01*
X166848Y463338D01*
X168338Y461848D01*
X170162Y460795D01*
X171750Y460370D01*
Y466750D01*
D02*
G37*
G36*
X161130D02*
X154750D01*
Y460370D01*
X156338Y460795D01*
X158162Y461848D01*
X159652Y463338D01*
X160705Y465162D01*
X161130Y466750D01*
D02*
G37*
G36*
X151750D02*
X145370D01*
X145795Y465162D01*
X146848Y463338D01*
X148338Y461848D01*
X150162Y460795D01*
X151750Y460370D01*
Y466750D01*
D02*
G37*
G36*
X141130D02*
X134750D01*
Y460370D01*
X136338Y460795D01*
X138162Y461848D01*
X139652Y463338D01*
X140705Y465162D01*
X141130Y466750D01*
D02*
G37*
G36*
X131750D02*
X125370D01*
X125795Y465162D01*
X126848Y463338D01*
X128338Y461848D01*
X130162Y460795D01*
X131750Y460370D01*
Y466750D01*
D02*
G37*
G36*
X121130D02*
X114750D01*
Y460370D01*
X116338Y460795D01*
X118162Y461848D01*
X119652Y463338D01*
X120705Y465162D01*
X121130Y466750D01*
D02*
G37*
G36*
X111750D02*
X105370D01*
X105795Y465162D01*
X106848Y463338D01*
X108338Y461848D01*
X110162Y460795D01*
X111750Y460370D01*
Y466750D01*
D02*
G37*
G36*
X101250D02*
X94750D01*
Y460250D01*
X101250D01*
Y466750D01*
D02*
G37*
G36*
X91750D02*
X85250D01*
Y460250D01*
X91750D01*
Y466750D01*
D02*
G37*
G36*
X234303Y456250D02*
X232197D01*
X230162Y455705D01*
X228338Y454652D01*
X226848Y453162D01*
X225795Y451338D01*
X225250Y449303D01*
Y447197D01*
X225795Y445162D01*
X226848Y443338D01*
X228338Y441848D01*
X230162Y440795D01*
X232197Y440250D01*
X234303D01*
X236338Y440795D01*
X238162Y441848D01*
X239652Y443338D01*
X240705Y445162D01*
X241250Y447197D01*
Y449303D01*
X240705Y451338D01*
X239652Y453162D01*
X238162Y454652D01*
X236338Y455705D01*
X234303Y456250D01*
D02*
G37*
G36*
X214303D02*
X212197D01*
X210162Y455705D01*
X208338Y454652D01*
X206848Y453162D01*
X205795Y451338D01*
X205250Y449303D01*
Y447197D01*
X205795Y445162D01*
X206848Y443338D01*
X208338Y441848D01*
X210162Y440795D01*
X212197Y440250D01*
X214303D01*
X216338Y440795D01*
X218162Y441848D01*
X219652Y443338D01*
X220705Y445162D01*
X221250Y447197D01*
Y449303D01*
X220705Y451338D01*
X219652Y453162D01*
X218162Y454652D01*
X216338Y455705D01*
X214303Y456250D01*
D02*
G37*
G36*
X194303D02*
X192197D01*
X190162Y455705D01*
X188338Y454652D01*
X186848Y453162D01*
X185795Y451338D01*
X185250Y449303D01*
Y447197D01*
X185795Y445162D01*
X186848Y443338D01*
X188338Y441848D01*
X190162Y440795D01*
X192197Y440250D01*
X194303D01*
X196338Y440795D01*
X198162Y441848D01*
X199652Y443338D01*
X200705Y445162D01*
X201250Y447197D01*
Y449303D01*
X200705Y451338D01*
X199652Y453162D01*
X198162Y454652D01*
X196338Y455705D01*
X194303Y456250D01*
D02*
G37*
G36*
X174303D02*
X172197D01*
X170162Y455705D01*
X168338Y454652D01*
X166848Y453162D01*
X165795Y451338D01*
X165250Y449303D01*
Y447197D01*
X165795Y445162D01*
X166848Y443338D01*
X168338Y441848D01*
X170162Y440795D01*
X172197Y440250D01*
X174303D01*
X176338Y440795D01*
X178162Y441848D01*
X179652Y443338D01*
X180705Y445162D01*
X181250Y447197D01*
Y449303D01*
X180705Y451338D01*
X179652Y453162D01*
X178162Y454652D01*
X176338Y455705D01*
X174303Y456250D01*
D02*
G37*
G36*
X154303D02*
X152197D01*
X150162Y455705D01*
X148338Y454652D01*
X146848Y453162D01*
X145795Y451338D01*
X145250Y449303D01*
Y447197D01*
X145795Y445162D01*
X146848Y443338D01*
X148338Y441848D01*
X150162Y440795D01*
X152197Y440250D01*
X154303D01*
X156338Y440795D01*
X158162Y441848D01*
X159652Y443338D01*
X160705Y445162D01*
X161250Y447197D01*
Y449303D01*
X160705Y451338D01*
X159652Y453162D01*
X158162Y454652D01*
X156338Y455705D01*
X154303Y456250D01*
D02*
G37*
G36*
X134303D02*
X132197D01*
X130162Y455705D01*
X128338Y454652D01*
X126848Y453162D01*
X125795Y451338D01*
X125250Y449303D01*
Y447197D01*
X125795Y445162D01*
X126848Y443338D01*
X128338Y441848D01*
X130162Y440795D01*
X132197Y440250D01*
X134303D01*
X136338Y440795D01*
X138162Y441848D01*
X139652Y443338D01*
X140705Y445162D01*
X141250Y447197D01*
Y449303D01*
X140705Y451338D01*
X139652Y453162D01*
X138162Y454652D01*
X136338Y455705D01*
X134303Y456250D01*
D02*
G37*
G36*
X114303D02*
X112197D01*
X110162Y455705D01*
X108338Y454652D01*
X106848Y453162D01*
X105795Y451338D01*
X105250Y449303D01*
Y447197D01*
X105795Y445162D01*
X106848Y443338D01*
X108338Y441848D01*
X110162Y440795D01*
X112197Y440250D01*
X114303D01*
X116338Y440795D01*
X118162Y441848D01*
X119652Y443338D01*
X120705Y445162D01*
X121250Y447197D01*
Y449303D01*
X120705Y451338D01*
X119652Y453162D01*
X118162Y454652D01*
X116338Y455705D01*
X114303Y456250D01*
D02*
G37*
G36*
X94303D02*
X92197D01*
X90162Y455705D01*
X88338Y454652D01*
X86848Y453162D01*
X85795Y451338D01*
X85250Y449303D01*
Y447197D01*
X85795Y445162D01*
X86848Y443338D01*
X88338Y441848D01*
X90162Y440795D01*
X92197Y440250D01*
X94303D01*
X96338Y440795D01*
X98162Y441848D01*
X99652Y443338D01*
X100705Y445162D01*
X101250Y447197D01*
Y449303D01*
X100705Y451338D01*
X99652Y453162D01*
X98162Y454652D01*
X96338Y455705D01*
X94303Y456250D01*
D02*
G37*
G36*
X335750Y413750D02*
X329250D01*
Y407250D01*
X335750D01*
Y413750D01*
D02*
G37*
G36*
X326250D02*
X319750D01*
Y407250D01*
X326250D01*
Y413750D01*
D02*
G37*
G36*
X335750Y404250D02*
X329250D01*
Y397750D01*
X335750D01*
Y404250D01*
D02*
G37*
G36*
X326250D02*
X319750D01*
Y397750D01*
X326250D01*
Y404250D01*
D02*
G37*
G36*
X308803Y413750D02*
X306697D01*
X304662Y413205D01*
X302838Y412151D01*
X301348Y410662D01*
X300295Y408838D01*
X300271Y408748D01*
X289940D01*
X288769Y408516D01*
X287777Y407853D01*
X271244Y391320D01*
X270581Y390327D01*
X270348Y389157D01*
X270348Y389157D01*
Y382437D01*
X269168Y381257D01*
X268407Y379420D01*
Y377430D01*
X269168Y375593D01*
X270575Y374186D01*
X270123Y372999D01*
X269500Y371495D01*
Y369505D01*
X270261Y367668D01*
X271668Y366261D01*
X273505Y365500D01*
X275495D01*
X277332Y366261D01*
X278512Y367441D01*
X284500D01*
X284500Y367441D01*
X285671Y367674D01*
X286663Y368337D01*
X299811Y381485D01*
X301070Y381320D01*
X301348Y380838D01*
X302838Y379348D01*
X304662Y378295D01*
X306697Y377750D01*
X308803D01*
X310838Y378295D01*
X312662Y379348D01*
X314152Y380838D01*
X315205Y382662D01*
X315750Y384697D01*
Y386803D01*
X315205Y388838D01*
X314152Y390662D01*
X312662Y392151D01*
X310838Y393205D01*
X308803Y393750D01*
X306697D01*
X304662Y393205D01*
X302838Y392151D01*
X301348Y390662D01*
X300295Y388838D01*
X300287Y388809D01*
X299750D01*
X298579Y388576D01*
X297587Y387913D01*
X283233Y373559D01*
X278512D01*
X277332Y374739D01*
X277784Y375926D01*
X278407Y377430D01*
Y379420D01*
X277646Y381257D01*
X276466Y382437D01*
Y387890D01*
X291207Y402631D01*
X300313D01*
X301348Y400838D01*
X302838Y399348D01*
X304662Y398295D01*
X306697Y397750D01*
X308803D01*
X310838Y398295D01*
X312662Y399348D01*
X314152Y400838D01*
X315205Y402662D01*
X315750Y404697D01*
Y406803D01*
X315205Y408838D01*
X314152Y410662D01*
X312662Y412151D01*
X310838Y413205D01*
X308803Y413750D01*
D02*
G37*
G36*
X329250Y393630D02*
Y387250D01*
X335630D01*
X335205Y388838D01*
X334152Y390662D01*
X332662Y392151D01*
X330838Y393205D01*
X329250Y393630D01*
D02*
G37*
G36*
X326250Y393630D02*
X324662Y393205D01*
X322838Y392151D01*
X321348Y390662D01*
X320295Y388838D01*
X319870Y387250D01*
X326250D01*
Y393630D01*
D02*
G37*
G36*
X212245Y380250D02*
X210255D01*
X208959Y379713D01*
X200437D01*
X199745Y380000D01*
X197755D01*
X195918Y379239D01*
X194511Y377832D01*
X193750Y375995D01*
Y374005D01*
X194511Y372168D01*
X195918Y370761D01*
X197755Y370000D01*
X199745D01*
X201041Y370537D01*
X209563D01*
X210255Y370250D01*
X212245D01*
X214082Y371011D01*
X215489Y372418D01*
X216250Y374255D01*
Y376245D01*
X215489Y378082D01*
X214082Y379489D01*
X212245Y380250D01*
D02*
G37*
G36*
X335630Y384250D02*
X329250D01*
Y377870D01*
X330838Y378295D01*
X332662Y379348D01*
X334152Y380838D01*
X335205Y382662D01*
X335630Y384250D01*
D02*
G37*
G36*
X326250D02*
X319870D01*
X320295Y382662D01*
X321348Y380838D01*
X322838Y379348D01*
X324662Y378295D01*
X326250Y377870D01*
Y384250D01*
D02*
G37*
G36*
X143995Y371000D02*
X142005D01*
X141011Y370588D01*
X105989D01*
X104995Y371000D01*
X103005D01*
X101168Y370239D01*
X99761Y368832D01*
X99000Y366995D01*
Y365005D01*
X99761Y363168D01*
X101168Y361761D01*
X103005Y361000D01*
X104995D01*
X105989Y361412D01*
X141011D01*
X142005Y361000D01*
X143995D01*
X145832Y361761D01*
X147239Y363168D01*
X148000Y365005D01*
Y366995D01*
X147239Y368832D01*
X145832Y370239D01*
X143995Y371000D01*
D02*
G37*
G36*
X329250Y373630D02*
Y367250D01*
X335630D01*
X335205Y368838D01*
X334152Y370662D01*
X332662Y372151D01*
X330838Y373205D01*
X329250Y373630D01*
D02*
G37*
G36*
X326250Y373630D02*
X324662Y373205D01*
X322838Y372151D01*
X321348Y370662D01*
X320295Y368838D01*
X319870Y367250D01*
X326250D01*
Y373630D01*
D02*
G37*
G36*
X308803Y373750D02*
X306697D01*
X304662Y373205D01*
X302838Y372151D01*
X301348Y370662D01*
X300295Y368838D01*
X300287Y368809D01*
X293500D01*
X292329Y368576D01*
X291337Y367913D01*
X284733Y361309D01*
X275012D01*
X273832Y362489D01*
X271995Y363250D01*
X270005D01*
X268168Y362489D01*
X266761Y361082D01*
X266000Y359245D01*
Y357255D01*
X266761Y355418D01*
X267421Y354758D01*
X267268Y353989D01*
X265861Y352582D01*
X265100Y350745D01*
Y348755D01*
X265861Y346918D01*
X267268Y345511D01*
X269105Y344750D01*
X271095D01*
X272932Y345511D01*
X274112Y346691D01*
X285604D01*
X288708Y343587D01*
X288708Y343587D01*
X289700Y342924D01*
X290871Y342691D01*
X300287D01*
X300295Y342662D01*
X301348Y340838D01*
X302838Y339348D01*
X304662Y338295D01*
X306697Y337750D01*
X308803D01*
X310838Y338295D01*
X312662Y339348D01*
X314152Y340838D01*
X315205Y342662D01*
X315750Y344697D01*
Y346803D01*
X315205Y348838D01*
X314152Y350662D01*
X312662Y352151D01*
X310838Y353205D01*
X308803Y353750D01*
X306697D01*
X304662Y353205D01*
X302838Y352151D01*
X301348Y350662D01*
X300295Y348838D01*
X300287Y348809D01*
X292138D01*
X289034Y351913D01*
X288041Y352576D01*
X286871Y352809D01*
X286871Y352809D01*
X274801D01*
X273822Y353958D01*
X273832Y354011D01*
X275012Y355191D01*
X286000D01*
X286000Y355191D01*
X287170Y355424D01*
X288163Y356087D01*
X294767Y362691D01*
X300287D01*
X300295Y362662D01*
X301348Y360838D01*
X302838Y359348D01*
X304662Y358295D01*
X306697Y357750D01*
X308803D01*
X310838Y358295D01*
X312662Y359348D01*
X314152Y360838D01*
X315205Y362662D01*
X315750Y364697D01*
Y366803D01*
X315205Y368838D01*
X314152Y370662D01*
X312662Y372151D01*
X310838Y373205D01*
X308803Y373750D01*
D02*
G37*
G36*
X335630Y364250D02*
X329250D01*
Y357870D01*
X330838Y358295D01*
X332662Y359348D01*
X334152Y360838D01*
X335205Y362662D01*
X335630Y364250D01*
D02*
G37*
G36*
X326250D02*
X319870D01*
X320295Y362662D01*
X321348Y360838D01*
X322838Y359348D01*
X324662Y358295D01*
X326250Y357870D01*
Y364250D01*
D02*
G37*
G36*
X329250Y353630D02*
Y347250D01*
X335630D01*
X335205Y348838D01*
X334152Y350662D01*
X332662Y352151D01*
X330838Y353205D01*
X329250Y353630D01*
D02*
G37*
G36*
X326250D02*
X324662Y353205D01*
X322838Y352151D01*
X321348Y350662D01*
X320295Y348838D01*
X319870Y347250D01*
X326250D01*
Y353630D01*
D02*
G37*
G36*
X335630Y344250D02*
X329250D01*
Y337870D01*
X330838Y338295D01*
X332662Y339348D01*
X334152Y340838D01*
X335205Y342662D01*
X335630Y344250D01*
D02*
G37*
G36*
X326250D02*
X319870D01*
X320295Y342662D01*
X321348Y340838D01*
X322838Y339348D01*
X324662Y338295D01*
X326250Y337870D01*
Y344250D01*
D02*
G37*
G36*
X252237Y336257D02*
X250248D01*
X248410Y335496D01*
X247230Y334316D01*
X229698D01*
X229698Y334316D01*
X228527Y334083D01*
X227767Y333575D01*
X227174Y333821D01*
X225184D01*
X223347Y333060D01*
X221940Y331653D01*
X221179Y329816D01*
Y327826D01*
X221591Y326832D01*
Y298805D01*
X221261Y298312D01*
X220912Y296556D01*
Y284239D01*
X220500Y283245D01*
Y281255D01*
X221261Y279418D01*
X222668Y278011D01*
X224505Y277250D01*
X226495D01*
X228332Y278011D01*
X229739Y279418D01*
X230500Y281255D01*
Y283245D01*
X230088Y284239D01*
Y294986D01*
X230418Y295479D01*
X230767Y297235D01*
Y326832D01*
X231179Y327826D01*
Y328199D01*
X247230D01*
X248410Y327019D01*
X250248Y326257D01*
X252237D01*
X254075Y327019D01*
X255481Y328425D01*
X256243Y330263D01*
Y332252D01*
X255481Y334090D01*
X254075Y335496D01*
X252237Y336257D01*
D02*
G37*
G36*
X329250Y333630D02*
Y327250D01*
X335630D01*
X335205Y328838D01*
X334152Y330662D01*
X332662Y332152D01*
X330838Y333205D01*
X329250Y333630D01*
D02*
G37*
G36*
X326250Y333630D02*
X324662Y333205D01*
X322838Y332152D01*
X321348Y330662D01*
X320295Y328838D01*
X319870Y327250D01*
X326250D01*
Y333630D01*
D02*
G37*
G36*
X335630Y324250D02*
X329250D01*
Y317870D01*
X330838Y318295D01*
X332662Y319348D01*
X334152Y320838D01*
X335205Y322662D01*
X335630Y324250D01*
D02*
G37*
G36*
X326250D02*
X319870D01*
X320295Y322662D01*
X321348Y320838D01*
X322838Y319348D01*
X324662Y318295D01*
X326250Y317870D01*
Y324250D01*
D02*
G37*
G36*
X308803Y333750D02*
X306697D01*
X304662Y333205D01*
X302838Y332152D01*
X301348Y330662D01*
X300295Y328838D01*
X299750Y326803D01*
Y324697D01*
X300295Y322662D01*
X301348Y320838D01*
X302838Y319348D01*
X304662Y318295D01*
X306697Y317750D01*
X308803D01*
X310838Y318295D01*
X312662Y319348D01*
X314152Y320838D01*
X315205Y322662D01*
X315750Y324697D01*
Y326803D01*
X315205Y328838D01*
X314152Y330662D01*
X312662Y332152D01*
X310838Y333205D01*
X308803Y333750D01*
D02*
G37*
G36*
X329250Y313630D02*
Y307250D01*
X335630D01*
X335205Y308838D01*
X334152Y310662D01*
X332662Y312152D01*
X330838Y313205D01*
X329250Y313630D01*
D02*
G37*
G36*
X326250Y313630D02*
X324662Y313205D01*
X322838Y312152D01*
X321348Y310662D01*
X320295Y308838D01*
X319870Y307250D01*
X326250D01*
Y313630D01*
D02*
G37*
G36*
X335630Y304250D02*
X329250D01*
Y297870D01*
X330838Y298295D01*
X332662Y299348D01*
X334152Y300838D01*
X335205Y302662D01*
X335630Y304250D01*
D02*
G37*
G36*
X326250D02*
X319870D01*
X320295Y302662D01*
X321348Y300838D01*
X322838Y299348D01*
X324662Y298295D01*
X326250Y297870D01*
Y304250D01*
D02*
G37*
G36*
X308803Y313750D02*
X306697D01*
X304662Y313205D01*
X302838Y312152D01*
X301348Y310662D01*
X300295Y308838D01*
X300287Y308809D01*
X292250D01*
X291080Y308576D01*
X290087Y307913D01*
X290087Y307913D01*
X277924Y295750D01*
X276255D01*
X274418Y294989D01*
X273011Y293582D01*
X272250Y291745D01*
Y289755D01*
X273011Y287918D01*
X273974Y286955D01*
X274376Y286395D01*
X273992Y285313D01*
X273261Y284582D01*
X272500Y282745D01*
Y280755D01*
X273261Y278918D01*
X274668Y277511D01*
X274713Y277284D01*
X273511Y276082D01*
X272750Y274245D01*
Y272255D01*
X273511Y270418D01*
X274918Y269011D01*
X276755Y268250D01*
X278424D01*
X283087Y263587D01*
X284079Y262924D01*
X285250Y262691D01*
X285250Y262691D01*
X300287D01*
X300295Y262662D01*
X301348Y260838D01*
X302838Y259348D01*
X304662Y258295D01*
X306697Y257750D01*
X308803D01*
X310838Y258295D01*
X312662Y259348D01*
X314152Y260838D01*
X315205Y262662D01*
X315750Y264697D01*
Y266803D01*
X315205Y268838D01*
X314152Y270662D01*
X312662Y272152D01*
X310838Y273205D01*
X308803Y273750D01*
X306697D01*
X304662Y273205D01*
X302838Y272152D01*
X301348Y270662D01*
X300295Y268838D01*
X300287Y268809D01*
X286517D01*
X282750Y272576D01*
Y274245D01*
X281989Y276082D01*
X280582Y277489D01*
X280537Y277716D01*
X281739Y278918D01*
X282500Y280755D01*
Y281939D01*
X283252Y282691D01*
X300287D01*
X300295Y282662D01*
X301348Y280838D01*
X302838Y279348D01*
X304662Y278295D01*
X306697Y277750D01*
X308803D01*
X310838Y278295D01*
X312662Y279348D01*
X314152Y280838D01*
X315205Y282662D01*
X315750Y284697D01*
Y286803D01*
X315205Y288838D01*
X314152Y290662D01*
X312662Y292152D01*
X310838Y293205D01*
X308803Y293750D01*
X306697D01*
X304662Y293205D01*
X302838Y292152D01*
X301348Y290662D01*
X300295Y288838D01*
X300287Y288809D01*
X283232D01*
X282250Y289755D01*
Y291424D01*
X293517Y302691D01*
X300287D01*
X300295Y302662D01*
X301348Y300838D01*
X302838Y299348D01*
X304662Y298295D01*
X306697Y297750D01*
X308803D01*
X310838Y298295D01*
X312662Y299348D01*
X314152Y300838D01*
X315205Y302662D01*
X315750Y304697D01*
Y306803D01*
X315205Y308838D01*
X314152Y310662D01*
X312662Y312152D01*
X310838Y313205D01*
X308803Y313750D01*
D02*
G37*
G36*
X329250Y293630D02*
Y287250D01*
X335630D01*
X335205Y288838D01*
X334152Y290662D01*
X332662Y292152D01*
X330838Y293205D01*
X329250Y293630D01*
D02*
G37*
G36*
X326250Y293630D02*
X324662Y293205D01*
X322838Y292152D01*
X321348Y290662D01*
X320295Y288838D01*
X319870Y287250D01*
X326250D01*
Y293630D01*
D02*
G37*
G36*
X82995Y342500D02*
X81005D01*
X79168Y341739D01*
X77761Y340332D01*
X77349Y339338D01*
X65006Y326994D01*
X64011Y325506D01*
X63662Y323750D01*
Y309989D01*
X63250Y308995D01*
Y307006D01*
X63662Y306011D01*
Y293989D01*
X63250Y292995D01*
Y291005D01*
X63662Y290011D01*
Y283250D01*
X64011Y281494D01*
X65006Y280006D01*
X70412Y274599D01*
Y251989D01*
X70000Y250995D01*
Y249005D01*
X70761Y247168D01*
X72168Y245761D01*
X73624Y245158D01*
X78006Y240776D01*
X79494Y239782D01*
X81250Y239432D01*
X89711D01*
X90755Y239000D01*
X92745D01*
X94582Y239761D01*
X95989Y241168D01*
X96750Y243005D01*
Y244995D01*
X95989Y246832D01*
X94582Y248239D01*
X92745Y249000D01*
X90755D01*
X89811Y248609D01*
X83151D01*
X79588Y252171D01*
Y276500D01*
X79239Y278256D01*
X78244Y279744D01*
X72838Y285151D01*
Y288431D01*
X73661Y288772D01*
X74108Y288821D01*
X75418Y287511D01*
X77255Y286750D01*
X79245D01*
X81082Y287511D01*
X82489Y288918D01*
X83250Y290755D01*
Y292745D01*
X82489Y294582D01*
X81309Y295762D01*
Y319983D01*
X91076Y329750D01*
X92745D01*
X94582Y330511D01*
X95989Y331918D01*
X96750Y333755D01*
Y335745D01*
X95989Y337582D01*
X94582Y338989D01*
X92745Y339750D01*
X90755D01*
X88918Y338989D01*
X88270Y338341D01*
X87786Y338400D01*
X86891Y338758D01*
X86239Y340332D01*
X84832Y341739D01*
X82995Y342500D01*
D02*
G37*
G36*
X335630Y284250D02*
X329250D01*
Y277870D01*
X330838Y278295D01*
X332662Y279348D01*
X334152Y280838D01*
X335205Y282662D01*
X335630Y284250D01*
D02*
G37*
G36*
X326250D02*
X319870D01*
X320295Y282662D01*
X321348Y280838D01*
X322838Y279348D01*
X324662Y278295D01*
X326250Y277870D01*
Y284250D01*
D02*
G37*
G36*
X329250Y273630D02*
Y267250D01*
X335630D01*
X335205Y268838D01*
X334152Y270662D01*
X332662Y272152D01*
X330838Y273205D01*
X329250Y273630D01*
D02*
G37*
G36*
X326250D02*
X324662Y273205D01*
X322838Y272152D01*
X321348Y270662D01*
X320295Y268838D01*
X319870Y267250D01*
X326250D01*
Y273630D01*
D02*
G37*
G36*
X-12579Y321900D02*
X-14422D01*
X-16202Y321423D01*
X-17798Y320501D01*
X-19101Y319198D01*
X-20023Y317602D01*
X-20500Y315821D01*
Y313978D01*
X-20023Y312198D01*
X-19101Y310602D01*
X-18145Y309645D01*
X-18150Y308411D01*
X-18271Y308105D01*
X-18798Y307801D01*
X-20101Y306498D01*
X-21023Y304902D01*
X-21500Y303121D01*
Y301278D01*
X-21023Y299498D01*
X-20101Y297902D01*
X-18798Y296599D01*
X-18271Y296295D01*
X-18150Y295989D01*
X-18145Y294755D01*
X-19101Y293798D01*
X-20023Y292202D01*
X-20500Y290422D01*
Y288578D01*
X-20023Y286798D01*
X-19101Y285202D01*
X-18145Y284245D01*
X-18150Y283011D01*
X-18271Y282705D01*
X-18798Y282401D01*
X-20101Y281098D01*
X-21023Y279502D01*
X-21500Y277722D01*
Y275878D01*
X-21023Y274098D01*
X-20101Y272502D01*
X-19970Y272370D01*
X-20496Y271100D01*
X-20500D01*
Y265600D01*
X-13500D01*
X-6500D01*
Y271100D01*
X-8504D01*
X-9031Y272370D01*
X-8899Y272502D01*
X-7977Y274098D01*
X-7500Y275878D01*
Y277722D01*
X-7977Y279502D01*
X-8899Y281098D01*
X-9855Y282055D01*
X-9850Y283289D01*
X-9729Y283595D01*
X-9202Y283899D01*
X-7899Y285202D01*
X-6977Y286798D01*
X-6500Y288578D01*
Y290422D01*
X-6977Y292202D01*
X-7899Y293798D01*
X-9202Y295101D01*
X-9729Y295405D01*
X-9850Y295711D01*
X-9855Y296945D01*
X-8899Y297902D01*
X-7977Y299498D01*
X-7500Y301278D01*
Y303121D01*
X-7977Y304902D01*
X-8899Y306498D01*
X-9855Y307455D01*
X-9850Y308689D01*
X-9729Y308995D01*
X-9202Y309299D01*
X-7899Y310602D01*
X-6977Y312198D01*
X-6500Y313978D01*
Y315821D01*
X-6977Y317602D01*
X-7899Y319198D01*
X-9202Y320501D01*
X-10798Y321423D01*
X-12579Y321900D01*
D02*
G37*
G36*
X335630Y264250D02*
X329250D01*
Y257870D01*
X330838Y258295D01*
X332662Y259348D01*
X334152Y260838D01*
X335205Y262662D01*
X335630Y264250D01*
D02*
G37*
G36*
X326250D02*
X319870D01*
X320295Y262662D01*
X321348Y260838D01*
X322838Y259348D01*
X324662Y258295D01*
X326250Y257870D01*
Y264250D01*
D02*
G37*
G36*
X-6500Y262600D02*
X-12000D01*
Y257100D01*
X-6500D01*
Y262600D01*
D02*
G37*
G36*
X-15000D02*
X-20500D01*
Y257100D01*
X-15000D01*
Y262600D01*
D02*
G37*
G36*
X245495Y257500D02*
X243505D01*
X241668Y256739D01*
X240261Y255332D01*
X239500Y253494D01*
Y251826D01*
X230337Y242663D01*
X229674Y241670D01*
X229441Y240500D01*
X229441Y240500D01*
Y228012D01*
X228261Y226832D01*
X227500Y224995D01*
Y223006D01*
X228261Y221168D01*
X229668Y219761D01*
X231505Y219000D01*
X233495D01*
X235332Y219761D01*
X236739Y221168D01*
X237500Y223006D01*
Y224995D01*
X236739Y226832D01*
X235559Y228012D01*
Y239233D01*
X243826Y247500D01*
X245495D01*
X247332Y248261D01*
X248739Y249668D01*
X249500Y251505D01*
Y253494D01*
X248739Y255332D01*
X247332Y256739D01*
X245495Y257500D01*
D02*
G37*
G36*
X335750Y220500D02*
X329250D01*
Y214000D01*
X335750D01*
Y220500D01*
D02*
G37*
G36*
X326250D02*
X319750D01*
Y214000D01*
X326250D01*
Y220500D01*
D02*
G37*
G36*
X335750Y211000D02*
X329250D01*
Y204500D01*
X335750D01*
Y211000D01*
D02*
G37*
G36*
X326250D02*
X319750D01*
Y204500D01*
X326250D01*
Y211000D01*
D02*
G37*
G36*
X272995Y223250D02*
X271005D01*
X269168Y222489D01*
X267761Y221082D01*
X267000Y219245D01*
Y217255D01*
X267761Y215418D01*
X269168Y214011D01*
X271005Y213250D01*
X272995D01*
X274832Y214011D01*
X276012Y215191D01*
X298027D01*
X299750Y213468D01*
Y211447D01*
X300295Y209412D01*
X301348Y207588D01*
X302838Y206098D01*
X304662Y205045D01*
X306697Y204500D01*
X308803D01*
X310838Y205045D01*
X312662Y206098D01*
X314152Y207588D01*
X315205Y209412D01*
X315750Y211447D01*
Y213553D01*
X315205Y215588D01*
X314152Y217412D01*
X312662Y218902D01*
X310838Y219955D01*
X308803Y220500D01*
X306697D01*
X304662Y219955D01*
X302920Y218949D01*
X301457Y220413D01*
X300464Y221076D01*
X299294Y221309D01*
X299294Y221309D01*
X276012D01*
X274832Y222489D01*
X272995Y223250D01*
D02*
G37*
G36*
X329250Y200380D02*
Y194000D01*
X335630D01*
X335205Y195588D01*
X334152Y197412D01*
X332662Y198902D01*
X330838Y199955D01*
X329250Y200380D01*
D02*
G37*
G36*
X326250Y200380D02*
X324662Y199955D01*
X322838Y198902D01*
X321348Y197412D01*
X320295Y195588D01*
X319870Y194000D01*
X326250D01*
Y200380D01*
D02*
G37*
G36*
X79245Y222500D02*
X77255D01*
X75418Y221739D01*
X74011Y220332D01*
X73408Y218876D01*
X71756Y217224D01*
X70761Y215735D01*
X70412Y213979D01*
Y198989D01*
X70000Y197995D01*
Y196005D01*
X70761Y194168D01*
X72168Y192761D01*
X74005Y192000D01*
X75995D01*
X77832Y192761D01*
X79239Y194168D01*
X80000Y196005D01*
Y197995D01*
X79588Y198989D01*
Y212079D01*
X80550Y213041D01*
X81082Y213261D01*
X82489Y214668D01*
X83250Y216505D01*
Y218495D01*
X82489Y220332D01*
X81082Y221739D01*
X79245Y222500D01*
D02*
G37*
G36*
X335630Y191000D02*
X329250D01*
Y184620D01*
X330838Y185045D01*
X332662Y186098D01*
X334152Y187588D01*
X335205Y189412D01*
X335630Y191000D01*
D02*
G37*
G36*
X326250D02*
X319870D01*
X320295Y189412D01*
X321348Y187588D01*
X322838Y186098D01*
X324662Y185045D01*
X326250Y184620D01*
Y191000D01*
D02*
G37*
G36*
X308803Y200500D02*
X306697D01*
X304662Y199955D01*
X302838Y198902D01*
X301348Y197412D01*
X300295Y195588D01*
X299750Y193553D01*
Y191447D01*
X300295Y189412D01*
X301348Y187588D01*
X302838Y186098D01*
X304662Y185045D01*
X306697Y184500D01*
X308803D01*
X310838Y185045D01*
X312662Y186098D01*
X314152Y187588D01*
X315205Y189412D01*
X315750Y191447D01*
Y193553D01*
X315205Y195588D01*
X314152Y197412D01*
X312662Y198902D01*
X310838Y199955D01*
X308803Y200500D01*
D02*
G37*
G36*
X329250Y180380D02*
Y174000D01*
X335630D01*
X335205Y175588D01*
X334152Y177412D01*
X332662Y178902D01*
X330838Y179955D01*
X329250Y180380D01*
D02*
G37*
G36*
X326250Y180380D02*
X324662Y179955D01*
X322838Y178902D01*
X321348Y177412D01*
X320295Y175588D01*
X319870Y174000D01*
X326250D01*
Y180380D01*
D02*
G37*
G36*
X335630Y171000D02*
X329250D01*
Y164620D01*
X330838Y165045D01*
X332662Y166098D01*
X334152Y167588D01*
X335205Y169412D01*
X335630Y171000D01*
D02*
G37*
G36*
X326250D02*
X319870D01*
X320295Y169412D01*
X321348Y167588D01*
X322838Y166098D01*
X324662Y165045D01*
X326250Y164620D01*
Y171000D01*
D02*
G37*
G36*
X308803Y180500D02*
X306697D01*
X304662Y179955D01*
X302838Y178902D01*
X301348Y177412D01*
X300295Y175588D01*
X299750Y173553D01*
Y171447D01*
X300295Y169412D01*
X301348Y167588D01*
X302838Y166098D01*
X304662Y165045D01*
X306697Y164500D01*
X308803D01*
X310838Y165045D01*
X312662Y166098D01*
X314152Y167588D01*
X315205Y169412D01*
X315750Y171447D01*
Y173553D01*
X315205Y175588D01*
X314152Y177412D01*
X312662Y178902D01*
X310838Y179955D01*
X308803Y180500D01*
D02*
G37*
G36*
X261995Y184000D02*
X260005D01*
X258168Y183239D01*
X256761Y181832D01*
X256000Y179995D01*
Y178005D01*
X256761Y176168D01*
X258168Y174761D01*
X258191Y174751D01*
Y169512D01*
X257261Y168582D01*
X256500Y166745D01*
Y164755D01*
X257261Y162918D01*
X258668Y161511D01*
X260505Y160750D01*
X262495D01*
X264332Y161511D01*
X265739Y162918D01*
X266500Y164755D01*
Y166745D01*
X265739Y168582D01*
X264332Y169989D01*
X264309Y169998D01*
Y175238D01*
X265239Y176168D01*
X266000Y178005D01*
Y179995D01*
X265239Y181832D01*
X263832Y183239D01*
X261995Y184000D01*
D02*
G37*
G36*
X329250Y160380D02*
Y154000D01*
X335630D01*
X335205Y155588D01*
X334152Y157412D01*
X332662Y158902D01*
X330838Y159955D01*
X329250Y160380D01*
D02*
G37*
G36*
X326250Y160380D02*
X324662Y159955D01*
X322838Y158902D01*
X321348Y157412D01*
X320295Y155588D01*
X319870Y154000D01*
X326250D01*
Y160380D01*
D02*
G37*
G36*
X335630Y151000D02*
X329250D01*
Y144620D01*
X330838Y145045D01*
X332662Y146098D01*
X334152Y147588D01*
X335205Y149412D01*
X335630Y151000D01*
D02*
G37*
G36*
X326250D02*
X319870D01*
X320295Y149412D01*
X321348Y147588D01*
X322838Y146098D01*
X324662Y145045D01*
X326250Y144620D01*
Y151000D01*
D02*
G37*
G36*
X308803Y160500D02*
X306697D01*
X304662Y159955D01*
X302838Y158902D01*
X301348Y157412D01*
X300295Y155588D01*
X299750Y153553D01*
Y151447D01*
X300295Y149412D01*
X301348Y147588D01*
X302838Y146098D01*
X304662Y145045D01*
X306697Y144500D01*
X308803D01*
X310838Y145045D01*
X312662Y146098D01*
X314152Y147588D01*
X315205Y149412D01*
X315750Y151447D01*
Y153553D01*
X315205Y155588D01*
X314152Y157412D01*
X312662Y158902D01*
X310838Y159955D01*
X308803Y160500D01*
D02*
G37*
G36*
X247362Y186368D02*
X245373D01*
X243535Y185606D01*
X242129Y184200D01*
X241368Y182362D01*
Y180693D01*
X235327Y174653D01*
X234664Y173661D01*
X234431Y172490D01*
X234431Y172490D01*
Y149003D01*
X233251Y147823D01*
X232490Y145985D01*
Y143996D01*
X233251Y142158D01*
X234658Y140751D01*
X236496Y139990D01*
X238485D01*
X240323Y140751D01*
X241729Y142158D01*
X242490Y143996D01*
Y145985D01*
X241729Y147823D01*
X240549Y149003D01*
Y171223D01*
X245693Y176368D01*
X247362D01*
X249200Y177129D01*
X250606Y178535D01*
X251368Y180373D01*
Y182362D01*
X250606Y184200D01*
X249200Y185606D01*
X247362Y186368D01*
D02*
G37*
G36*
X329250Y140380D02*
Y134000D01*
X335630D01*
X335205Y135588D01*
X334152Y137412D01*
X332662Y138902D01*
X330838Y139955D01*
X329250Y140380D01*
D02*
G37*
G36*
X326250D02*
X324662Y139955D01*
X322838Y138902D01*
X321348Y137412D01*
X320295Y135588D01*
X319870Y134000D01*
X326250D01*
Y140380D01*
D02*
G37*
G36*
X335630Y131000D02*
X329250D01*
Y124620D01*
X330838Y125045D01*
X332662Y126098D01*
X334152Y127588D01*
X335205Y129412D01*
X335630Y131000D01*
D02*
G37*
G36*
X326250D02*
X319870D01*
X320295Y129412D01*
X321348Y127588D01*
X322838Y126098D01*
X324662Y125045D01*
X326250Y124620D01*
Y131000D01*
D02*
G37*
G36*
X308803Y140500D02*
X306697D01*
X304662Y139955D01*
X302838Y138902D01*
X301348Y137412D01*
X300295Y135588D01*
X299750Y133553D01*
Y131447D01*
X300295Y129412D01*
X300310Y129386D01*
X283983Y113059D01*
X276012D01*
X274832Y114239D01*
X272995Y115000D01*
X271005D01*
X269168Y114239D01*
X267761Y112832D01*
X267000Y110995D01*
Y109005D01*
X267761Y107168D01*
X269168Y105761D01*
X269473Y104260D01*
X269061Y103265D01*
Y101276D01*
X269823Y99438D01*
X271229Y98031D01*
X271259Y97878D01*
X270981Y96759D01*
X270250Y94995D01*
Y93005D01*
X271011Y91168D01*
X272418Y89761D01*
X274255Y89000D01*
X276245D01*
X278082Y89761D01*
X278512Y90191D01*
X300086D01*
X300295Y89412D01*
X301348Y87588D01*
X302838Y86098D01*
X304662Y85045D01*
X306697Y84500D01*
X308803D01*
X310838Y85045D01*
X312662Y86098D01*
X314152Y87588D01*
X315205Y89412D01*
X315750Y91447D01*
Y93553D01*
X315205Y95588D01*
X314152Y97412D01*
X312662Y98902D01*
X310838Y99955D01*
X308803Y100500D01*
X306697D01*
X304662Y99955D01*
X302838Y98902D01*
X301348Y97412D01*
X300711Y96309D01*
X279706D01*
X279489Y96832D01*
X278380Y97941D01*
X278800Y99211D01*
X284979D01*
X284979Y99211D01*
X286149Y99444D01*
X287142Y100107D01*
X296476Y109441D01*
X300287D01*
X300295Y109412D01*
X301348Y107588D01*
X302838Y106098D01*
X304662Y105045D01*
X306697Y104500D01*
X308803D01*
X310838Y105045D01*
X312662Y106098D01*
X314152Y107588D01*
X315205Y109412D01*
X315750Y111447D01*
Y113553D01*
X315205Y115588D01*
X314152Y117412D01*
X312662Y118902D01*
X310838Y119955D01*
X308803Y120500D01*
X306697D01*
X304662Y119955D01*
X302838Y118902D01*
X301348Y117412D01*
X300295Y115588D01*
X300287Y115559D01*
X296931D01*
X296404Y116829D01*
X304636Y125060D01*
X304662Y125045D01*
X306697Y124500D01*
X308803D01*
X310838Y125045D01*
X312662Y126098D01*
X314152Y127588D01*
X315205Y129412D01*
X315750Y131447D01*
Y133553D01*
X315205Y135588D01*
X314152Y137412D01*
X312662Y138902D01*
X310838Y139955D01*
X308803Y140500D01*
D02*
G37*
G36*
X329250Y120380D02*
Y114000D01*
X335630D01*
X335205Y115588D01*
X334152Y117412D01*
X332662Y118902D01*
X330838Y119955D01*
X329250Y120380D01*
D02*
G37*
G36*
X326250D02*
X324662Y119955D01*
X322838Y118902D01*
X321348Y117412D01*
X320295Y115588D01*
X319870Y114000D01*
X326250D01*
Y120380D01*
D02*
G37*
G36*
X335630Y111000D02*
X329250D01*
Y104620D01*
X330838Y105045D01*
X332662Y106098D01*
X334152Y107588D01*
X335205Y109412D01*
X335630Y111000D01*
D02*
G37*
G36*
X326250D02*
X319870D01*
X320295Y109412D01*
X321348Y107588D01*
X322838Y106098D01*
X324662Y105045D01*
X326250Y104620D01*
Y111000D01*
D02*
G37*
G36*
X329250Y100380D02*
Y94000D01*
X335630D01*
X335205Y95588D01*
X334152Y97412D01*
X332662Y98902D01*
X330838Y99955D01*
X329250Y100380D01*
D02*
G37*
G36*
X326250Y100380D02*
X324662Y99955D01*
X322838Y98902D01*
X321348Y97412D01*
X320295Y95588D01*
X319870Y94000D01*
X326250D01*
Y100380D01*
D02*
G37*
G36*
X335630Y91000D02*
X329250D01*
Y84620D01*
X330838Y85045D01*
X332662Y86098D01*
X334152Y87588D01*
X335205Y89412D01*
X335630Y91000D01*
D02*
G37*
G36*
X326250D02*
X319870D01*
X320295Y89412D01*
X321348Y87588D01*
X322838Y86098D01*
X324662Y85045D01*
X326250Y84620D01*
Y91000D01*
D02*
G37*
G36*
X329250Y80380D02*
Y74000D01*
X335630D01*
X335205Y75588D01*
X334152Y77412D01*
X332662Y78902D01*
X330838Y79955D01*
X329250Y80380D01*
D02*
G37*
G36*
X326250Y80380D02*
X324662Y79955D01*
X322838Y78902D01*
X321348Y77412D01*
X320295Y75588D01*
X319870Y74000D01*
X326250D01*
Y80380D01*
D02*
G37*
G36*
X335630Y71000D02*
X329250D01*
Y64620D01*
X330838Y65045D01*
X332662Y66098D01*
X334152Y67588D01*
X335205Y69412D01*
X335630Y71000D01*
D02*
G37*
G36*
X326250D02*
X319870D01*
X320295Y69412D01*
X321348Y67588D01*
X322838Y66098D01*
X324662Y65045D01*
X326250Y64620D01*
Y71000D01*
D02*
G37*
G36*
X308803Y80500D02*
X306697D01*
X304662Y79955D01*
X302838Y78902D01*
X301348Y77412D01*
X300295Y75588D01*
X299750Y73553D01*
Y71447D01*
X300295Y69412D01*
X301348Y67588D01*
X302838Y66098D01*
X304662Y65045D01*
X306697Y64500D01*
X308803D01*
X310838Y65045D01*
X312662Y66098D01*
X314152Y67588D01*
X315205Y69412D01*
X315750Y71447D01*
Y73553D01*
X315205Y75588D01*
X314152Y77412D01*
X312662Y78902D01*
X310838Y79955D01*
X308803Y80500D01*
D02*
G37*
G36*
X181495Y41000D02*
X179505D01*
X177668Y40239D01*
X176261Y38832D01*
X175500Y36995D01*
Y35005D01*
X175787Y34313D01*
Y17541D01*
X175250Y16245D01*
Y14255D01*
X176011Y12418D01*
X177418Y11011D01*
X179255Y10250D01*
X181245D01*
X183082Y11011D01*
X184489Y12418D01*
X185250Y14255D01*
Y16245D01*
X184963Y16937D01*
Y33709D01*
X185500Y35005D01*
Y36995D01*
X184739Y38832D01*
X183332Y40239D01*
X181495Y41000D01*
D02*
G37*
G36*
X287500Y11986D02*
Y2500D01*
X296986D01*
X296250Y5246D01*
X294802Y7754D01*
X292754Y9802D01*
X290246Y11250D01*
X287500Y11986D01*
D02*
G37*
G36*
X284500D02*
X281754Y11250D01*
X279246Y9802D01*
X277198Y7754D01*
X275750Y5246D01*
X275014Y2500D01*
X284500D01*
Y11986D01*
D02*
G37*
G36*
X150000D02*
Y2500D01*
X159486D01*
X158750Y5246D01*
X157302Y7754D01*
X155254Y9802D01*
X152746Y11250D01*
X150000Y11986D01*
D02*
G37*
G36*
X147000D02*
X144254Y11250D01*
X141746Y9802D01*
X139698Y7754D01*
X138250Y5246D01*
X137514Y2500D01*
X147000D01*
Y11986D01*
D02*
G37*
G36*
X296986Y-500D02*
X287500D01*
Y-9986D01*
X290246Y-9250D01*
X292754Y-7802D01*
X294802Y-5754D01*
X296250Y-3246D01*
X296986Y-500D01*
D02*
G37*
G36*
X284500D02*
X275014D01*
X275750Y-3246D01*
X277198Y-5754D01*
X279246Y-7802D01*
X281754Y-9250D01*
X284500Y-9986D01*
Y-500D01*
D02*
G37*
G36*
X159486D02*
X150000D01*
Y-9986D01*
X152746Y-9250D01*
X155254Y-7802D01*
X157302Y-5754D01*
X158750Y-3246D01*
X159486Y-500D01*
D02*
G37*
G36*
X147000D02*
X137514D01*
X138250Y-3246D01*
X139698Y-5754D01*
X141746Y-7802D01*
X144254Y-9250D01*
X147000Y-9986D01*
Y-500D01*
D02*
G37*
G36*
X262448Y12000D02*
X259552D01*
X256754Y11250D01*
X254246Y9802D01*
X252198Y7754D01*
X250750Y5246D01*
X250000Y2448D01*
Y-448D01*
X250750Y-3246D01*
X252198Y-5754D01*
X254246Y-7802D01*
X256754Y-9250D01*
X259552Y-10000D01*
X262448D01*
X265246Y-9250D01*
X267754Y-7802D01*
X269802Y-5754D01*
X271250Y-3246D01*
X272000Y-448D01*
Y2448D01*
X271250Y5246D01*
X269802Y7754D01*
X267754Y9802D01*
X265246Y11250D01*
X262448Y12000D01*
D02*
G37*
G36*
X237448D02*
X234552D01*
X231754Y11250D01*
X229246Y9802D01*
X227198Y7754D01*
X225750Y5246D01*
X225000Y2448D01*
Y-448D01*
X225750Y-3246D01*
X227198Y-5754D01*
X229246Y-7802D01*
X231754Y-9250D01*
X234552Y-10000D01*
X237448D01*
X240246Y-9250D01*
X242754Y-7802D01*
X244802Y-5754D01*
X246250Y-3246D01*
X247000Y-448D01*
Y2448D01*
X246250Y5246D01*
X244802Y7754D01*
X242754Y9802D01*
X240246Y11250D01*
X237448Y12000D01*
D02*
G37*
G36*
X222000D02*
X200000D01*
Y-10000D01*
X222000D01*
Y12000D01*
D02*
G37*
G36*
X124948D02*
X122052D01*
X119254Y11250D01*
X116746Y9802D01*
X114698Y7754D01*
X113250Y5246D01*
X112500Y2448D01*
Y-448D01*
X113250Y-3246D01*
X114698Y-5754D01*
X116746Y-7802D01*
X119254Y-9250D01*
X122052Y-10000D01*
X124948D01*
X127746Y-9250D01*
X130254Y-7802D01*
X132302Y-5754D01*
X133750Y-3246D01*
X134500Y-448D01*
Y2448D01*
X133750Y5246D01*
X132302Y7754D01*
X130254Y9802D01*
X127746Y11250D01*
X124948Y12000D01*
D02*
G37*
G36*
X99948D02*
X97052D01*
X94254Y11250D01*
X91746Y9802D01*
X89698Y7754D01*
X88250Y5246D01*
X87500Y2448D01*
Y-448D01*
X88250Y-3246D01*
X89698Y-5754D01*
X91746Y-7802D01*
X94254Y-9250D01*
X97052Y-10000D01*
X99948D01*
X102746Y-9250D01*
X105254Y-7802D01*
X107302Y-5754D01*
X108750Y-3246D01*
X109500Y-448D01*
Y2448D01*
X108750Y5246D01*
X107302Y7754D01*
X105254Y9802D01*
X102746Y11250D01*
X99948Y12000D01*
D02*
G37*
G36*
X84500D02*
X62500D01*
Y-10000D01*
X84500D01*
Y12000D01*
D02*
G37*
%LPD*%
D11*
X78250Y291750D02*
Y321250D01*
Y291250D02*
Y291750D01*
Y321250D02*
X91750Y334750D01*
X229698Y331257D02*
X251243D01*
X227261Y328821D02*
X229698Y331257D01*
X226179Y328821D02*
X227261D01*
X232500Y240500D02*
X244500Y252500D01*
X232500Y224000D02*
Y240500D01*
X237490Y144990D02*
Y172490D01*
X246368Y181368D01*
X286000Y358250D02*
X293500Y365750D01*
X271000Y358250D02*
X286000D01*
X293500Y365750D02*
X308500D01*
X299750Y385750D02*
X308500D01*
X274500Y370500D02*
X284500D01*
X299750Y385750D01*
X289940Y405690D02*
X308440D01*
X273407Y389157D02*
X289940Y405690D01*
X273407Y378425D02*
Y389157D01*
X308440Y405690D02*
X308500Y405750D01*
X286871Y349750D02*
X290871Y345750D01*
X308500D01*
X270100Y349750D02*
X286871D01*
X292250Y305750D02*
X308500D01*
X277250Y290750D02*
X292250Y305750D01*
X277500Y281750D02*
X277985D01*
X281985Y285750D02*
X308500D01*
X277985Y281750D02*
X281985Y285750D01*
X285250Y265750D02*
X308500D01*
X277750Y273250D02*
X285250Y265750D01*
X299294Y218250D02*
X305044Y212500D01*
X307750D01*
X272000Y218250D02*
X299294D01*
X261250Y166000D02*
X261500Y165750D01*
X261250Y166000D02*
Y178750D01*
X261000Y179000D02*
X261250Y178750D01*
X307000Y93250D02*
X307750Y92500D01*
X276000Y93250D02*
X307000D01*
X275250Y94000D02*
X276000Y93250D01*
X295209Y112500D02*
X307750D01*
X284979Y102270D02*
X295209Y112500D01*
X274061Y102270D02*
X284979D01*
X272000Y110000D02*
X285250D01*
X307750Y132500D01*
D50*
X-13500Y264100D02*
D03*
D59*
X78250Y217229D02*
Y217500D01*
X75000Y213979D02*
X78250Y217229D01*
X75000Y197000D02*
Y213979D01*
X68250Y283250D02*
Y292000D01*
Y308000D02*
Y323750D01*
Y292000D02*
Y308000D01*
Y323750D02*
X82000Y337500D01*
X226179Y297235D02*
Y328821D01*
X225500Y282250D02*
Y296556D01*
X226179Y297235D01*
X198875Y375125D02*
X211125D01*
X211250Y375250D01*
X198750Y375000D02*
X198875Y375125D01*
X104000Y366000D02*
X143000D01*
X68250Y283250D02*
X75000Y276500D01*
Y250000D02*
Y276500D01*
X75271Y250000D02*
X81250Y244021D01*
X75000Y250000D02*
X75271D01*
X91729Y244021D02*
X91750Y244000D01*
X81250Y244021D02*
X91729D01*
X180375Y15375D02*
Y35875D01*
X180250Y15250D02*
X180375Y15375D01*
Y35875D02*
X180500Y36000D01*
D62*
X129000Y296951D02*
D03*
X138333D02*
D03*
X147667D02*
D03*
X157000D02*
D03*
X129000Y287618D02*
D03*
X138333D02*
D03*
X147667D02*
D03*
X157000D02*
D03*
X129000Y268951D02*
D03*
X138333D02*
D03*
X147667D02*
D03*
X157000D02*
D03*
Y278284D02*
D03*
X147667D02*
D03*
X138333D02*
D03*
X129000D02*
D03*
X276750Y331250D02*
D03*
X257250Y257750D02*
D03*
X236500Y262500D02*
D03*
X58250Y329500D02*
D03*
X-14750Y384750D02*
D03*
X15000D02*
D03*
X50750Y412250D02*
D03*
X-18000Y432000D02*
D03*
X23500Y437250D02*
D03*
X55000Y468250D02*
D03*
X79045Y506943D02*
D03*
X128283Y506453D02*
D03*
X197500Y506250D02*
D03*
X251000Y502750D02*
D03*
X287250Y501250D02*
D03*
X311000Y490500D02*
D03*
X208750Y268250D02*
D03*
X174500Y177750D02*
D03*
X216250Y157000D02*
D03*
X236000Y125250D02*
D03*
X253250Y126000D02*
D03*
X288750Y43250D02*
D03*
X324250Y33750D02*
D03*
X367000Y31250D02*
D03*
X355500Y72500D02*
D03*
X367250Y102500D02*
D03*
X355750Y159250D02*
D03*
X369000Y196500D02*
D03*
X331357Y239198D02*
D03*
X291000Y238000D02*
D03*
X365000Y243000D02*
D03*
X369000Y296750D02*
D03*
X364750Y373250D02*
D03*
X363500Y429000D02*
D03*
X298500Y459000D02*
D03*
X256250Y463500D02*
D03*
X210250Y414750D02*
D03*
X252750Y422250D02*
D03*
X283750Y413000D02*
D03*
X260750Y386500D02*
D03*
X242750Y386250D02*
D03*
X229000Y375000D02*
D03*
X215500Y354750D02*
D03*
X189000Y321500D02*
D03*
X148500Y348000D02*
D03*
X196000Y342750D02*
D03*
X196750Y363000D02*
D03*
X207250Y386500D02*
D03*
X191750Y403500D02*
D03*
X145500Y403250D02*
D03*
X147250Y426250D02*
D03*
X96000Y418500D02*
D03*
X93500Y400000D02*
D03*
X75000Y382500D02*
D03*
X98500Y381000D02*
D03*
X89000Y361500D02*
D03*
X76500Y347250D02*
D03*
X35250Y333500D02*
D03*
X12250Y338250D02*
D03*
X-19000Y332750D02*
D03*
X4000Y278500D02*
D03*
X8500Y301750D02*
D03*
X52250Y291250D02*
D03*
Y250750D02*
D03*
X16250Y164000D02*
D03*
X14250Y188500D02*
D03*
X-1500Y228000D02*
D03*
X7750Y255250D02*
D03*
X42750Y227250D02*
D03*
X61500Y226000D02*
D03*
X78250Y217500D02*
D03*
X57750Y190750D02*
D03*
X75000Y197000D02*
D03*
X143250Y201250D02*
D03*
X157500Y185250D02*
D03*
X154500Y163250D02*
D03*
X113745Y112478D02*
D03*
X116000Y141500D02*
D03*
X106750Y149500D02*
D03*
X60750Y141000D02*
D03*
X5750Y140250D02*
D03*
X40900Y164250D02*
D03*
X8250Y91000D02*
D03*
X31000Y125250D02*
D03*
X-16000Y140250D02*
D03*
X-21250Y91750D02*
D03*
X-12500Y35000D02*
D03*
X40750Y-4750D02*
D03*
X50500Y-44250D02*
D03*
X86000Y-37500D02*
D03*
X145750Y-40500D02*
D03*
X183250Y-39000D02*
D03*
X215250Y-46500D02*
D03*
X274292Y-46125D02*
D03*
X269000Y-22250D02*
D03*
X225000Y-18000D02*
D03*
X205750Y33500D02*
D03*
X271250Y16500D02*
D03*
X239935Y47006D02*
D03*
X239500Y71250D02*
D03*
X207307Y78554D02*
D03*
X210500Y55500D02*
D03*
X164523Y91302D02*
D03*
X160000Y75500D02*
D03*
X163000Y40000D02*
D03*
X165750Y12750D02*
D03*
X121500Y20750D02*
D03*
X111250Y76250D02*
D03*
X112000Y50000D02*
D03*
X85750Y21250D02*
D03*
X50750Y45000D02*
D03*
X29500Y70500D02*
D03*
X66750Y93250D02*
D03*
X99750Y96000D02*
D03*
X135500Y96500D02*
D03*
X164750Y134250D02*
D03*
X183000Y136500D02*
D03*
X202750Y136750D02*
D03*
X287750Y183250D02*
D03*
X230750Y204000D02*
D03*
X203750Y218000D02*
D03*
X181500Y241000D02*
D03*
X103750Y240750D02*
D03*
X105000Y330250D02*
D03*
X68250Y308000D02*
D03*
Y292000D02*
D03*
X82000Y337500D02*
D03*
X78250Y291750D02*
D03*
X91750Y334750D02*
D03*
X251243Y331257D02*
D03*
X244500Y252500D02*
D03*
X232500Y224000D02*
D03*
X246368Y181368D02*
D03*
X237490Y144990D02*
D03*
X211250Y375250D02*
D03*
X198750Y375000D02*
D03*
X104000Y366000D02*
D03*
X143000D02*
D03*
X273407Y378425D02*
D03*
X274500Y370500D02*
D03*
X271000Y358250D02*
D03*
X270100Y349750D02*
D03*
X225500Y282250D02*
D03*
X226179Y328821D02*
D03*
X91750Y244000D02*
D03*
X277250Y290750D02*
D03*
X277500Y281750D02*
D03*
X277750Y273250D02*
D03*
X272000Y218250D02*
D03*
X261000Y179000D02*
D03*
X261500Y165750D02*
D03*
X275250Y94000D02*
D03*
X274061Y102270D02*
D03*
X272000Y110000D02*
D03*
X180250Y15250D02*
D03*
X180500Y36000D02*
D03*
X75000Y250000D02*
D03*
D63*
X307250Y-39000D02*
D03*
X51000Y499750D02*
D03*
X-13500Y289500D02*
D03*
X-14500Y302200D02*
D03*
Y276800D02*
D03*
X-13500Y314900D02*
D03*
D64*
X350000Y480000D02*
D03*
X0D02*
D03*
Y-10000D02*
D03*
X350000D02*
D03*
D65*
X307750Y192500D02*
D03*
Y212500D02*
D03*
Y152500D02*
D03*
Y172500D02*
D03*
Y132500D02*
D03*
Y112500D02*
D03*
Y92500D02*
D03*
Y72500D02*
D03*
X327750D02*
D03*
Y92500D02*
D03*
Y112500D02*
D03*
Y132500D02*
D03*
Y152500D02*
D03*
Y172500D02*
D03*
Y192500D02*
D03*
X307750Y385750D02*
D03*
Y405750D02*
D03*
Y345750D02*
D03*
Y365750D02*
D03*
Y325750D02*
D03*
Y305750D02*
D03*
Y285750D02*
D03*
Y265750D02*
D03*
X327750D02*
D03*
Y285750D02*
D03*
Y305750D02*
D03*
Y325750D02*
D03*
Y345750D02*
D03*
Y365750D02*
D03*
Y385750D02*
D03*
X113250Y448250D02*
D03*
X93250D02*
D03*
X153250D02*
D03*
X133250D02*
D03*
X173250D02*
D03*
X193250D02*
D03*
X213250D02*
D03*
X233250D02*
D03*
Y468250D02*
D03*
X213250D02*
D03*
X193250D02*
D03*
X173250D02*
D03*
X153250D02*
D03*
X133250D02*
D03*
X113250D02*
D03*
D66*
X327750Y212500D02*
D03*
Y405750D02*
D03*
D67*
X261000Y1000D02*
D03*
X236000D02*
D03*
X286000D02*
D03*
X123500D02*
D03*
X98500D02*
D03*
X148500D02*
D03*
D68*
X211000D02*
D03*
X73500D02*
D03*
D69*
X93250Y468250D02*
D03*
M02*
